<?xml version="1.0" encoding="UTF-8" standalone="no"?>
<!DOCTYPE svg PUBLIC "-//W3C//DTD SVG 1.1//EN"
 "http://www.w3.org/Graphics/SVG/1.1/DTD/svg11.dtd">
<!-- Generated by graphviz version 2.40.1 (20161225.0304)
 -->
<!-- Title: oneDegreeRelationshipsDiagram Pages: 1 -->
<svg width="199pt" height="165pt"
 viewBox="0.00 0.00 199.00 165.20" xmlns="http://www.w3.org/2000/svg" xmlns:xlink="http://www.w3.org/1999/xlink">
<g id="graph0" class="graph" transform="scale(1 1) rotate(0) translate(4 161.2)">
<title>oneDegreeRelationshipsDiagram</title>
<polygon fill="#ffffff" stroke="transparent" points="-4,4 -4,-161.2 195,-161.2 195,4 -4,4"/>
<text text-anchor="middle" x="72.4936" y="-7.3" font-family="Helvetica,sans-Serif" font-size="11.00" fill="#000000">Generated by SchemaSpy</text>
<!-- actor_info -->
<g id="node1" class="node">
<title>actor_info</title>
<g id="a_node1"><a xlink:href="../../tables/actor_info.html" xlink:title="actor_info" target="_top">
<polygon fill="#ffffff" stroke="transparent" points="8,-38.2 8,-153.2 183,-153.2 183,-38.2 8,-38.2"/>
<polygon fill="#f5f5f5" stroke="transparent" points="10.5,-127.7 10.5,-150.7 181.5,-150.7 181.5,-127.7 10.5,-127.7"/>
<polygon fill="none" stroke="#000000" points="10.5,-127.7 10.5,-150.7 181.5,-150.7 181.5,-127.7 10.5,-127.7"/>
<text text-anchor="start" x="15.5" y="-136.8" font-family="Helvetica,sans-Serif" font-weight="bold" font-size="11.00" fill="#000000">actor_info</text>
<text text-anchor="start" x="148.3895" y="-135.8" font-family="Helvetica,sans-Serif" font-size="11.00" fill="#000000">[view]</text>
<polygon fill="none" stroke="#000000" points="10.5,-105.7 10.5,-127.7 91.5,-127.7 91.5,-105.7 10.5,-105.7"/>
<image xlink:href="../../images/foreignKeys.png" width="11px" height="12px" preserveAspectRatio="xMinYMin meet" x="15.5" y="-122.7"/>
<text text-anchor="start" x="30.5" y="-112.8" font-family="Helvetica,sans-Serif" font-size="11.00" fill="#000000">actor_id</text>
<polygon fill="none" stroke="#000000" points="91.5,-105.7 91.5,-127.7 181.5,-127.7 181.5,-105.7 91.5,-105.7"/>
<text text-anchor="start" x="94.5" y="-113.4" font-family="Helvetica,sans-Serif" font-size="11.00" fill="#000000">int4[10]</text>
<polygon fill="none" stroke="#000000" points="10.5,-83.7 10.5,-105.7 91.5,-105.7 91.5,-83.7 10.5,-83.7"/>
<text text-anchor="start" x="30.5" y="-90.8" font-family="Helvetica,sans-Serif" font-size="11.00" fill="#000000">first_name</text>
<polygon fill="none" stroke="#000000" points="91.5,-83.7 91.5,-105.7 181.5,-105.7 181.5,-83.7 91.5,-83.7"/>
<text text-anchor="start" x="94.5" y="-91.4" font-family="Helvetica,sans-Serif" font-size="11.00" fill="#000000">varchar[45]</text>
<polygon fill="none" stroke="#000000" points="10.5,-61.7 10.5,-83.7 91.5,-83.7 91.5,-61.7 10.5,-61.7"/>
<text text-anchor="start" x="30.5" y="-68.8" font-family="Helvetica,sans-Serif" font-size="11.00" fill="#000000">last_name</text>
<polygon fill="none" stroke="#000000" points="91.5,-61.7 91.5,-83.7 181.5,-83.7 181.5,-61.7 91.5,-61.7"/>
<text text-anchor="start" x="94.5" y="-69.4" font-family="Helvetica,sans-Serif" font-size="11.00" fill="#000000">varchar[45]</text>
<polygon fill="none" stroke="#000000" points="10.5,-39.7 10.5,-61.7 91.5,-61.7 91.5,-39.7 10.5,-39.7"/>
<text text-anchor="start" x="30.5" y="-46.8" font-family="Helvetica,sans-Serif" font-size="11.00" fill="#000000">film_info</text>
<polygon fill="none" stroke="#000000" points="91.5,-39.7 91.5,-61.7 181.5,-61.7 181.5,-39.7 91.5,-39.7"/>
<text text-anchor="start" x="94.0042" y="-47.4" font-family="Helvetica,sans-Serif" font-size="11.00" fill="#000000">text[2147483647]</text>
<polygon fill="none" stroke="#000000" stroke-width="2" points="9,-39.2 9,-152.2 182,-152.2 182,-39.2 9,-39.2"/>
</a>
</g>
</g>
</g>
</svg>
