<?xml version="1.0" encoding="UTF-8" standalone="no"?>
<!DOCTYPE svg PUBLIC "-//W3C//DTD SVG 1.1//EN"
 "http://www.w3.org/Graphics/SVG/1.1/DTD/svg11.dtd">
<!-- Generated by graphviz version 2.40.1 (20161225.0304)
 -->
<!-- Title: twoDegreesRelationshipsDiagramImplied Pages: 1 -->
<svg width="335pt" height="247pt"
 viewBox="0.00 0.00 335.00 247.20" xmlns="http://www.w3.org/2000/svg" xmlns:xlink="http://www.w3.org/1999/xlink">
<g id="graph0" class="graph" transform="scale(1 1) rotate(0) translate(4 243.2)">
<title>twoDegreesRelationshipsDiagramImplied</title>
<polygon fill="#ffffff" stroke="transparent" points="-4,4 -4,-243.2 331,-243.2 331,4 -4,4"/>
<text text-anchor="middle" x="72.4936" y="-7.3" font-family="Helvetica,sans-Serif" font-size="11.00" fill="#000000">Generated by SchemaSpy</text>
<!-- actor_info -->
<g id="node1" class="node">
<title>actor_info</title>
<g id="a_node1"><a xlink:href="../../tables/actor_info.html" xlink:title="actor_info" target="_top">
<polygon fill="#ffffff" stroke="transparent" points="144,-120.2 144,-235.2 319,-235.2 319,-120.2 144,-120.2"/>
<polygon fill="#f5f5f5" stroke="transparent" points="146.5,-209.7 146.5,-232.7 317.5,-232.7 317.5,-209.7 146.5,-209.7"/>
<polygon fill="none" stroke="#000000" points="146.5,-209.7 146.5,-232.7 317.5,-232.7 317.5,-209.7 146.5,-209.7"/>
<text text-anchor="start" x="151.5" y="-218.8" font-family="Helvetica,sans-Serif" font-weight="bold" font-size="11.00" fill="#000000">actor_info</text>
<text text-anchor="start" x="284.3895" y="-217.8" font-family="Helvetica,sans-Serif" font-size="11.00" fill="#000000">[view]</text>
<polygon fill="none" stroke="#000000" points="146.5,-187.7 146.5,-209.7 227.5,-209.7 227.5,-187.7 146.5,-187.7"/>
<image xlink:href="../../images/foreignKeys.png" width="11px" height="12px" preserveAspectRatio="xMinYMin meet" x="151.5" y="-204.7"/>
<text text-anchor="start" x="166.5" y="-194.8" font-family="Helvetica,sans-Serif" font-size="11.00" fill="#000000">actor_id</text>
<polygon fill="none" stroke="#000000" points="227.5,-187.7 227.5,-209.7 317.5,-209.7 317.5,-187.7 227.5,-187.7"/>
<text text-anchor="start" x="230.5" y="-195.4" font-family="Helvetica,sans-Serif" font-size="11.00" fill="#000000">int4[10]</text>
<polygon fill="none" stroke="#000000" points="146.5,-165.7 146.5,-187.7 227.5,-187.7 227.5,-165.7 146.5,-165.7"/>
<text text-anchor="start" x="166.5" y="-172.8" font-family="Helvetica,sans-Serif" font-size="11.00" fill="#000000">first_name</text>
<polygon fill="none" stroke="#000000" points="227.5,-165.7 227.5,-187.7 317.5,-187.7 317.5,-165.7 227.5,-165.7"/>
<text text-anchor="start" x="230.5" y="-173.4" font-family="Helvetica,sans-Serif" font-size="11.00" fill="#000000">varchar[45]</text>
<polygon fill="none" stroke="#000000" points="146.5,-143.7 146.5,-165.7 227.5,-165.7 227.5,-143.7 146.5,-143.7"/>
<text text-anchor="start" x="166.5" y="-150.8" font-family="Helvetica,sans-Serif" font-size="11.00" fill="#000000">last_name</text>
<polygon fill="none" stroke="#000000" points="227.5,-143.7 227.5,-165.7 317.5,-165.7 317.5,-143.7 227.5,-143.7"/>
<text text-anchor="start" x="230.5" y="-151.4" font-family="Helvetica,sans-Serif" font-size="11.00" fill="#000000">varchar[45]</text>
<polygon fill="none" stroke="#000000" points="146.5,-121.7 146.5,-143.7 227.5,-143.7 227.5,-121.7 146.5,-121.7"/>
<text text-anchor="start" x="166.5" y="-128.8" font-family="Helvetica,sans-Serif" font-size="11.00" fill="#000000">film_info</text>
<polygon fill="none" stroke="#000000" points="227.5,-121.7 227.5,-143.7 317.5,-143.7 317.5,-121.7 227.5,-121.7"/>
<text text-anchor="start" x="230.0043" y="-129.4" font-family="Helvetica,sans-Serif" font-size="11.00" fill="#000000">text[2147483647]</text>
<polygon fill="none" stroke="#000000" stroke-width="2" points="145,-121.2 145,-234.2 318,-234.2 318,-121.2 145,-121.2"/>
</a>
</g>
</g>
<!-- actor -->
<g id="node2" class="node">
<title>actor</title>
<g id="a_node2"><a xlink:href="../../tables/actor.html" xlink:title="actor" target="_top">
<polygon fill="#ffffff" stroke="transparent" points="8,-61.2 8,-166.2 95,-166.2 95,-61.2 8,-61.2"/>
<polygon fill="#f5f5f5" stroke="transparent" points="8.5,-142.7 8.5,-165.7 95.5,-165.7 95.5,-142.7 8.5,-142.7"/>
<polygon fill="none" stroke="#000000" points="8.5,-142.7 8.5,-165.7 95.5,-165.7 95.5,-142.7 8.5,-142.7"/>
<text text-anchor="start" x="13.5" y="-151.8" font-family="Helvetica,sans-Serif" font-weight="bold" font-size="11.00" fill="#000000">actor</text>
<text text-anchor="start" x="60.5437" y="-150.8" font-family="Helvetica,sans-Serif" font-size="11.00" fill="#000000">[table]</text>
<polygon fill="none" stroke="#000000" points="8.5,-120.7 8.5,-142.7 95.5,-142.7 95.5,-120.7 8.5,-120.7"/>
<image xlink:href="../../images/primaryKeys.png" width="11px" height="12px" preserveAspectRatio="xMinYMin meet" x="13.5" y="-137.7"/>
<text text-anchor="start" x="28.5" y="-127.8" font-family="Helvetica,sans-Serif" font-size="11.00" fill="#000000">actor_id</text>
<polygon fill="#ffffff" stroke="transparent" points="8.5,-98.7 8.5,-120.7 95.5,-120.7 95.5,-98.7 8.5,-98.7"/>
<polygon fill="none" stroke="#000000" points="8.5,-98.7 8.5,-120.7 95.5,-120.7 95.5,-98.7 8.5,-98.7"/>
<text text-anchor="start" x="28.5" y="-105.8" font-family="Helvetica,sans-Serif" font-size="11.00" fill="#000000">last_name</text>
<polygon fill="none" stroke="#000000" points="8.5,-79.7 8.5,-98.7 95.5,-98.7 95.5,-79.7 8.5,-79.7"/>
<text text-anchor="start" x="11.5" y="-85.8" font-family="Helvetica,sans-Serif" font-size="11.00" fill="#000000">...</text>
<polygon fill="#ffffff" stroke="transparent" points="8.5,-60.7 8.5,-79.7 28.5,-79.7 28.5,-60.7 8.5,-60.7"/>
<polygon fill="none" stroke="#000000" points="8.5,-60.7 8.5,-79.7 28.5,-79.7 28.5,-60.7 8.5,-60.7"/>
<text text-anchor="start" x="11.5" y="-66.8" font-family="Helvetica,sans-Serif" font-size="11.00" fill="#000000"> &#160;</text>
<polygon fill="#ffffff" stroke="transparent" points="28.5,-60.7 28.5,-79.7 70.5,-79.7 70.5,-60.7 28.5,-60.7"/>
<polygon fill="none" stroke="#000000" points="28.5,-60.7 28.5,-79.7 70.5,-79.7 70.5,-60.7 28.5,-60.7"/>
<text text-anchor="start" x="35.1105" y="-66.8" font-family="Helvetica,sans-Serif" font-size="11.00" fill="#000000">0 rows</text>
<polygon fill="#ffffff" stroke="transparent" points="70.5,-60.7 70.5,-79.7 95.5,-79.7 95.5,-60.7 70.5,-60.7"/>
<polygon fill="none" stroke="#000000" points="70.5,-60.7 70.5,-79.7 95.5,-79.7 95.5,-60.7 70.5,-60.7"/>
<text text-anchor="start" x="76.9053" y="-66.8" font-family="Helvetica,sans-Serif" font-size="11.00" fill="#000000">2 &gt;</text>
</a>
</g>
</g>
<!-- actor_info&#45;&gt;actor -->
<g id="edge1" class="edge">
<title>actor_info:w&#45;&gt;actor:e</title>
<path fill="none" stroke="#000000" stroke-dasharray="5,2" d="M132.4871,-193.8815C115.2522,-178.519 126.7834,-131.7 95.5,-131.7"/>
<polygon fill="#000000" stroke="#000000" points="138.9348,-196.0986 145.3294,-202.1044 142.7174,-197.3993 146.5,-198.7 146.5,-198.7 146.5,-198.7 142.7174,-197.3993 147.6706,-195.2956 138.9348,-196.0986 138.9348,-196.0986"/>
<ellipse fill="none" stroke="#000000" cx="135.9087" cy="-195.058" rx="3.2" ry="3.2"/>
</g>
<!-- film_actor -->
<g id="node3" class="node">
<title>film_actor</title>
<g id="a_node3"><a xlink:href="../../tables/film_actor.html" xlink:title="film_actor" target="_top">
<polygon fill="#ffffff" stroke="transparent" points="186.5,-38.2 186.5,-99.2 276.5,-99.2 276.5,-38.2 186.5,-38.2"/>
<polygon fill="#f5f5f5" stroke="transparent" points="186.5,-75.7 186.5,-98.7 276.5,-98.7 276.5,-75.7 186.5,-75.7"/>
<polygon fill="none" stroke="#000000" points="186.5,-75.7 186.5,-98.7 276.5,-98.7 276.5,-75.7 186.5,-75.7"/>
<text text-anchor="start" x="191.168" y="-84.8" font-family="Helvetica,sans-Serif" font-weight="bold" font-size="11.00" fill="#000000">film_actor</text>
<text text-anchor="start" x="242.0219" y="-83.8" font-family="Helvetica,sans-Serif" font-size="11.00" fill="#000000">[table]</text>
<polygon fill="none" stroke="#000000" points="186.5,-56.7 186.5,-75.7 276.5,-75.7 276.5,-56.7 186.5,-56.7"/>
<text text-anchor="start" x="189.5" y="-62.8" font-family="Helvetica,sans-Serif" font-size="11.00" fill="#000000">...</text>
<polygon fill="#ffffff" stroke="transparent" points="186.5,-37.7 186.5,-56.7 216.5,-56.7 216.5,-37.7 186.5,-37.7"/>
<polygon fill="none" stroke="#000000" points="186.5,-37.7 186.5,-56.7 216.5,-56.7 216.5,-37.7 186.5,-37.7"/>
<text text-anchor="start" x="189.5" y="-43.8" font-family="Helvetica,sans-Serif" font-size="11.00" fill="#000000">&lt; 2</text>
<polygon fill="#ffffff" stroke="transparent" points="216.5,-37.7 216.5,-56.7 259.5,-56.7 259.5,-37.7 216.5,-37.7"/>
<polygon fill="none" stroke="#000000" points="216.5,-37.7 216.5,-56.7 259.5,-56.7 259.5,-37.7 216.5,-37.7"/>
<text text-anchor="start" x="224.1105" y="-43.8" font-family="Helvetica,sans-Serif" font-size="11.00" fill="#000000">0 rows</text>
<polygon fill="#ffffff" stroke="transparent" points="259.5,-37.7 259.5,-56.7 276.5,-56.7 276.5,-37.7 259.5,-37.7"/>
<polygon fill="none" stroke="#000000" points="259.5,-37.7 259.5,-56.7 276.5,-56.7 276.5,-37.7 259.5,-37.7"/>
<text text-anchor="start" x="267.3862" y="-43.8" font-family="Helvetica,sans-Serif" font-size="11.00" fill="#000000"> &#160;</text>
</a>
</g>
</g>
<!-- film_actor&#45;&gt;actor -->
<g id="edge2" class="edge">
<title>film_actor:w&#45;&gt;actor:e</title>
<path fill="none" stroke="#000000" d="M172.0655,-67.8959C137.7857,-79.3479 139.9974,-131.7 95.5,-131.7"/>
<polygon fill="#000000" stroke="#000000" points="178.591,-66.9033 187.0415,-69.2591 182.5455,-66.3016 186.5,-65.7 186.5,-65.7 186.5,-65.7 182.5455,-66.3016 185.9585,-62.1409 178.591,-66.9033 178.591,-66.9033"/>
<ellipse fill="none" stroke="#000000" cx="175.4274" cy="-67.3846" rx="3.2" ry="3.2"/>
</g>
</g>
</svg>
