<?xml version="1.0" encoding="UTF-8" standalone="no"?>
<!DOCTYPE svg PUBLIC "-//W3C//DTD SVG 1.1//EN"
 "http://www.w3.org/Graphics/SVG/1.1/DTD/svg11.dtd">
<!-- Generated by graphviz version 2.40.1 (20161225.0304)
 -->
<!-- Title: oneDegreeRelationshipsDiagram Pages: 1 -->
<svg width="338pt" height="184pt"
 viewBox="0.00 0.00 338.00 184.20" xmlns="http://www.w3.org/2000/svg" xmlns:xlink="http://www.w3.org/1999/xlink">
<g id="graph0" class="graph" transform="scale(1 1) rotate(0) translate(4 180.2)">
<title>oneDegreeRelationshipsDiagram</title>
<polygon fill="#ffffff" stroke="transparent" points="-4,4 -4,-180.2 334,-180.2 334,4 -4,4"/>
<text text-anchor="middle" x="72.4936" y="-7.3" font-family="Helvetica,sans-Serif" font-size="11.00" fill="#000000">Generated by SchemaSpy</text>
<!-- film_actor -->
<g id="node1" class="node">
<title>film_actor</title>
<g id="a_node1"><a xlink:href="../../tables/film_actor.html" xlink:title="film_actor" target="_top">
<polygon fill="#ffffff" stroke="transparent" points="232,-65.7 232,-170.7 322,-170.7 322,-65.7 232,-65.7"/>
<polygon fill="#f5f5f5" stroke="transparent" points="232,-147.2 232,-170.2 322,-170.2 322,-147.2 232,-147.2"/>
<polygon fill="none" stroke="#000000" points="232,-147.2 232,-170.2 322,-170.2 322,-147.2 232,-147.2"/>
<text text-anchor="start" x="236.668" y="-156.3" font-family="Helvetica,sans-Serif" font-weight="bold" font-size="11.00" fill="#000000">film_actor</text>
<text text-anchor="start" x="287.5219" y="-155.3" font-family="Helvetica,sans-Serif" font-size="11.00" fill="#000000">[table]</text>
<polygon fill="none" stroke="#000000" points="232,-125.2 232,-147.2 322,-147.2 322,-125.2 232,-125.2"/>
<image xlink:href="../../images/primaryKeys.png" width="11px" height="12px" preserveAspectRatio="xMinYMin meet" x="237" y="-142.2"/>
<text text-anchor="start" x="254" y="-132.3" font-family="Helvetica,sans-Serif" font-size="11.00" fill="#000000">actor_id</text>
<polygon fill="none" stroke="#000000" points="232,-103.2 232,-125.2 322,-125.2 322,-103.2 232,-103.2"/>
<image xlink:href="../../images/primaryKeys.png" width="11px" height="12px" preserveAspectRatio="xMinYMin meet" x="237" y="-120.2"/>
<text text-anchor="start" x="254" y="-110.3" font-family="Helvetica,sans-Serif" font-size="11.00" fill="#000000">film_id</text>
<polygon fill="none" stroke="#000000" points="232,-84.2 232,-103.2 322,-103.2 322,-84.2 232,-84.2"/>
<text text-anchor="start" x="235" y="-90.3" font-family="Helvetica,sans-Serif" font-size="11.00" fill="#000000">...</text>
<polygon fill="#ffffff" stroke="transparent" points="232,-65.2 232,-84.2 262,-84.2 262,-65.2 232,-65.2"/>
<polygon fill="none" stroke="#000000" points="232,-65.2 232,-84.2 262,-84.2 262,-65.2 232,-65.2"/>
<text text-anchor="start" x="235" y="-71.3" font-family="Helvetica,sans-Serif" font-size="11.00" fill="#000000">&lt; 2</text>
<polygon fill="#ffffff" stroke="transparent" points="262,-65.2 262,-84.2 305,-84.2 305,-65.2 262,-65.2"/>
<polygon fill="none" stroke="#000000" points="262,-65.2 262,-84.2 305,-84.2 305,-65.2 262,-65.2"/>
<text text-anchor="start" x="269.6105" y="-71.3" font-family="Helvetica,sans-Serif" font-size="11.00" fill="#000000">0 rows</text>
<polygon fill="#ffffff" stroke="transparent" points="305,-65.2 305,-84.2 322,-84.2 322,-65.2 305,-65.2"/>
<polygon fill="none" stroke="#000000" points="305,-65.2 305,-84.2 322,-84.2 322,-65.2 305,-65.2"/>
<text text-anchor="start" x="312.8862" y="-71.3" font-family="Helvetica,sans-Serif" font-size="11.00" fill="#000000"> &#160;</text>
</a>
</g>
</g>
<!-- actor -->
<g id="node2" class="node">
<title>actor</title>
<g id="a_node2"><a xlink:href="../../tables/actor.html" xlink:title="actor" target="_top">
<polygon fill="#ffffff" stroke="transparent" points="8,-38.2 8,-172.2 183,-172.2 183,-38.2 8,-38.2"/>
<polygon fill="#f5f5f5" stroke="transparent" points="10.5,-147.2 10.5,-170.2 181.5,-170.2 181.5,-147.2 10.5,-147.2"/>
<polygon fill="none" stroke="#000000" points="10.5,-147.2 10.5,-170.2 181.5,-170.2 181.5,-147.2 10.5,-147.2"/>
<text text-anchor="start" x="15.5" y="-156.3" font-family="Helvetica,sans-Serif" font-weight="bold" font-size="11.00" fill="#000000">actor</text>
<text text-anchor="start" x="146.5437" y="-155.3" font-family="Helvetica,sans-Serif" font-size="11.00" fill="#000000">[table]</text>
<polygon fill="none" stroke="#000000" points="10.5,-125.2 10.5,-147.2 97.5,-147.2 97.5,-125.2 10.5,-125.2"/>
<image xlink:href="../../images/primaryKeys.png" width="11px" height="12px" preserveAspectRatio="xMinYMin meet" x="15.5" y="-142.2"/>
<text text-anchor="start" x="30.5" y="-132.3" font-family="Helvetica,sans-Serif" font-size="11.00" fill="#000000">actor_id</text>
<polygon fill="none" stroke="#000000" points="97.5,-125.2 97.5,-147.2 181.5,-147.2 181.5,-125.2 97.5,-125.2"/>
<text text-anchor="start" x="100.5" y="-132.9" font-family="Helvetica,sans-Serif" font-size="11.00" fill="#000000">serial[10]</text>
<polygon fill="none" stroke="#000000" points="10.5,-103.2 10.5,-125.2 97.5,-125.2 97.5,-103.2 10.5,-103.2"/>
<text text-anchor="start" x="30.5" y="-110.3" font-family="Helvetica,sans-Serif" font-size="11.00" fill="#000000">first_name</text>
<polygon fill="none" stroke="#000000" points="97.5,-103.2 97.5,-125.2 181.5,-125.2 181.5,-103.2 97.5,-103.2"/>
<text text-anchor="start" x="100.5" y="-110.9" font-family="Helvetica,sans-Serif" font-size="11.00" fill="#000000">varchar[45]</text>
<polygon fill="#ffffff" stroke="transparent" points="10.5,-81.2 10.5,-103.2 97.5,-103.2 97.5,-81.2 10.5,-81.2"/>
<polygon fill="none" stroke="#000000" points="10.5,-81.2 10.5,-103.2 97.5,-103.2 97.5,-81.2 10.5,-81.2"/>
<text text-anchor="start" x="30.5" y="-88.3" font-family="Helvetica,sans-Serif" font-size="11.00" fill="#000000">last_name</text>
<polygon fill="none" stroke="#000000" points="97.5,-81.2 97.5,-103.2 181.5,-103.2 181.5,-81.2 97.5,-81.2"/>
<text text-anchor="start" x="100.5" y="-88.9" font-family="Helvetica,sans-Serif" font-size="11.00" fill="#000000">varchar[45]</text>
<polygon fill="none" stroke="#000000" points="10.5,-59.2 10.5,-81.2 97.5,-81.2 97.5,-59.2 10.5,-59.2"/>
<text text-anchor="start" x="30.5" y="-66.3" font-family="Helvetica,sans-Serif" font-size="11.00" fill="#000000">last_update</text>
<polygon fill="none" stroke="#000000" points="97.5,-59.2 97.5,-81.2 181.5,-81.2 181.5,-59.2 97.5,-59.2"/>
<text text-anchor="start" x="100.3807" y="-66.9" font-family="Helvetica,sans-Serif" font-size="11.00" fill="#000000">timestamp[29,6]</text>
<polygon fill="#ffffff" stroke="transparent" points="10.5,-40.2 10.5,-59.2 45.5,-59.2 45.5,-40.2 10.5,-40.2"/>
<polygon fill="none" stroke="#000000" points="10.5,-40.2 10.5,-59.2 45.5,-59.2 45.5,-40.2 10.5,-40.2"/>
<text text-anchor="start" x="13.5" y="-46.3" font-family="Helvetica,sans-Serif" font-size="11.00" fill="#000000">&lt; 0</text>
<polygon fill="#ffffff" stroke="transparent" points="45.5,-40.2 45.5,-59.2 97.5,-59.2 97.5,-40.2 45.5,-40.2"/>
<polygon fill="none" stroke="#000000" points="45.5,-40.2 45.5,-59.2 97.5,-59.2 97.5,-40.2 45.5,-40.2"/>
<text text-anchor="start" x="62.1105" y="-46.3" font-family="Helvetica,sans-Serif" font-size="11.00" fill="#000000">0 rows</text>
<polygon fill="#ffffff" stroke="transparent" points="97.5,-40.2 97.5,-59.2 181.5,-59.2 181.5,-40.2 97.5,-40.2"/>
<polygon fill="none" stroke="#000000" points="97.5,-40.2 97.5,-59.2 181.5,-59.2 181.5,-40.2 97.5,-40.2"/>
<text text-anchor="start" x="162.9053" y="-46.3" font-family="Helvetica,sans-Serif" font-size="11.00" fill="#000000">1 &gt;</text>
<polygon fill="none" stroke="#000000" stroke-width="2" points="9,-39.2 9,-171.2 182,-171.2 182,-39.2 9,-39.2"/>
</a>
</g>
</g>
<!-- film_actor&#45;&gt;actor -->
<g id="edge1" class="edge">
<title>film_actor:w&#45;&gt;actor:e</title>
<path fill="none" stroke="#000000" d="M217.4203,-136.2C205.5435,-136.2 198.158,-136.2 181.5,-136.2"/>
<polygon fill="#000000" stroke="#000000" points="224,-136.2001 232,-139.8 228,-136.2 232,-136.2 232,-136.2 232,-136.2 228,-136.2 232,-132.6 224,-136.2001 224,-136.2001"/>
<ellipse fill="none" stroke="#000000" cx="220.8" cy="-136.2001" rx="3.2" ry="3.2"/>
</g>
</g>
</svg>
