<?xml version="1.0" encoding="UTF-8" standalone="no"?>
<!DOCTYPE svg PUBLIC "-//W3C//DTD SVG 1.1//EN"
 "http://www.w3.org/Graphics/SVG/1.1/DTD/svg11.dtd">
<!-- Generated by graphviz version 2.40.1 (20161225.0304)
 -->
<!-- Title: twoDegreesRelationshipsDiagramImplied Pages: 1 -->
<svg width="338pt" height="267pt"
 viewBox="0.00 0.00 338.00 266.70" xmlns="http://www.w3.org/2000/svg" xmlns:xlink="http://www.w3.org/1999/xlink">
<g id="graph0" class="graph" transform="scale(1 1) rotate(0) translate(4 262.7)">
<title>twoDegreesRelationshipsDiagramImplied</title>
<polygon fill="#ffffff" stroke="transparent" points="-4,4 -4,-262.7 334,-262.7 334,4 -4,4"/>
<text text-anchor="middle" x="72.4936" y="-7.3" font-family="Helvetica,sans-Serif" font-size="11.00" fill="#000000">Generated by SchemaSpy</text>
<!-- actor_info -->
<g id="node1" class="node">
<title>actor_info</title>
<g id="a_node1"><a xlink:href="../../tables/actor_info.html" xlink:title="actor_info" target="_top">
<polygon fill="#ffffff" stroke="transparent" points="232,-188.7 232,-252.7 322,-252.7 322,-188.7 232,-188.7"/>
<polygon fill="#f5f5f5" stroke="transparent" points="232,-229.7 232,-252.7 322,-252.7 322,-229.7 232,-229.7"/>
<polygon fill="none" stroke="#000000" points="232,-229.7 232,-252.7 322,-252.7 322,-229.7 232,-229.7"/>
<text text-anchor="start" x="236.8545" y="-238.8" font-family="Helvetica,sans-Serif" font-weight="bold" font-size="11.00" fill="#000000">actor_info</text>
<text text-anchor="start" x="288.9448" y="-237.8" font-family="Helvetica,sans-Serif" font-size="11.00" fill="#000000">[view]</text>
<polygon fill="none" stroke="#000000" points="232,-207.7 232,-229.7 322,-229.7 322,-207.7 232,-207.7"/>
<image xlink:href="../../images/foreignKeys.png" width="11px" height="12px" preserveAspectRatio="xMinYMin meet" x="237" y="-224.7"/>
<text text-anchor="start" x="257" y="-214.8" font-family="Helvetica,sans-Serif" font-size="11.00" fill="#000000">actor_id</text>
<polygon fill="none" stroke="#000000" points="232,-188.7 232,-207.7 322,-207.7 322,-188.7 232,-188.7"/>
<text text-anchor="start" x="235" y="-194.8" font-family="Helvetica,sans-Serif" font-size="11.00" fill="#000000">...</text>
</a>
</g>
</g>
<!-- actor -->
<g id="node2" class="node">
<title>actor</title>
<g id="a_node2"><a xlink:href="../../tables/actor.html" xlink:title="actor" target="_top">
<polygon fill="#ffffff" stroke="transparent" points="8,-120.7 8,-254.7 183,-254.7 183,-120.7 8,-120.7"/>
<polygon fill="#f5f5f5" stroke="transparent" points="10.5,-229.7 10.5,-252.7 181.5,-252.7 181.5,-229.7 10.5,-229.7"/>
<polygon fill="none" stroke="#000000" points="10.5,-229.7 10.5,-252.7 181.5,-252.7 181.5,-229.7 10.5,-229.7"/>
<text text-anchor="start" x="15.5" y="-238.8" font-family="Helvetica,sans-Serif" font-weight="bold" font-size="11.00" fill="#000000">actor</text>
<text text-anchor="start" x="146.5437" y="-237.8" font-family="Helvetica,sans-Serif" font-size="11.00" fill="#000000">[table]</text>
<polygon fill="none" stroke="#000000" points="10.5,-207.7 10.5,-229.7 97.5,-229.7 97.5,-207.7 10.5,-207.7"/>
<image xlink:href="../../images/primaryKeys.png" width="11px" height="12px" preserveAspectRatio="xMinYMin meet" x="15.5" y="-224.7"/>
<text text-anchor="start" x="30.5" y="-214.8" font-family="Helvetica,sans-Serif" font-size="11.00" fill="#000000">actor_id</text>
<polygon fill="none" stroke="#000000" points="97.5,-207.7 97.5,-229.7 181.5,-229.7 181.5,-207.7 97.5,-207.7"/>
<text text-anchor="start" x="100.5" y="-215.4" font-family="Helvetica,sans-Serif" font-size="11.00" fill="#000000">serial[10]</text>
<polygon fill="none" stroke="#000000" points="10.5,-185.7 10.5,-207.7 97.5,-207.7 97.5,-185.7 10.5,-185.7"/>
<text text-anchor="start" x="30.5" y="-192.8" font-family="Helvetica,sans-Serif" font-size="11.00" fill="#000000">first_name</text>
<polygon fill="none" stroke="#000000" points="97.5,-185.7 97.5,-207.7 181.5,-207.7 181.5,-185.7 97.5,-185.7"/>
<text text-anchor="start" x="100.5" y="-193.4" font-family="Helvetica,sans-Serif" font-size="11.00" fill="#000000">varchar[45]</text>
<polygon fill="#ffffff" stroke="transparent" points="10.5,-163.7 10.5,-185.7 97.5,-185.7 97.5,-163.7 10.5,-163.7"/>
<polygon fill="none" stroke="#000000" points="10.5,-163.7 10.5,-185.7 97.5,-185.7 97.5,-163.7 10.5,-163.7"/>
<text text-anchor="start" x="30.5" y="-170.8" font-family="Helvetica,sans-Serif" font-size="11.00" fill="#000000">last_name</text>
<polygon fill="none" stroke="#000000" points="97.5,-163.7 97.5,-185.7 181.5,-185.7 181.5,-163.7 97.5,-163.7"/>
<text text-anchor="start" x="100.5" y="-171.4" font-family="Helvetica,sans-Serif" font-size="11.00" fill="#000000">varchar[45]</text>
<polygon fill="none" stroke="#000000" points="10.5,-141.7 10.5,-163.7 97.5,-163.7 97.5,-141.7 10.5,-141.7"/>
<text text-anchor="start" x="30.5" y="-148.8" font-family="Helvetica,sans-Serif" font-size="11.00" fill="#000000">last_update</text>
<polygon fill="none" stroke="#000000" points="97.5,-141.7 97.5,-163.7 181.5,-163.7 181.5,-141.7 97.5,-141.7"/>
<text text-anchor="start" x="100.3807" y="-149.4" font-family="Helvetica,sans-Serif" font-size="11.00" fill="#000000">timestamp[29,6]</text>
<polygon fill="#ffffff" stroke="transparent" points="10.5,-122.7 10.5,-141.7 39.5,-141.7 39.5,-122.7 10.5,-122.7"/>
<polygon fill="none" stroke="#000000" points="10.5,-122.7 10.5,-141.7 39.5,-141.7 39.5,-122.7 10.5,-122.7"/>
<text text-anchor="start" x="13.5" y="-128.8" font-family="Helvetica,sans-Serif" font-size="11.00" fill="#000000">&lt; 0</text>
<polygon fill="#ffffff" stroke="transparent" points="39.5,-122.7 39.5,-141.7 97.5,-141.7 97.5,-122.7 39.5,-122.7"/>
<polygon fill="none" stroke="#000000" points="39.5,-122.7 39.5,-141.7 97.5,-141.7 97.5,-122.7 39.5,-122.7"/>
<text text-anchor="start" x="49.8807" y="-128.8" font-family="Helvetica,sans-Serif" font-size="11.00" fill="#000000">200 rows</text>
<polygon fill="#ffffff" stroke="transparent" points="97.5,-122.7 97.5,-141.7 181.5,-141.7 181.5,-122.7 97.5,-122.7"/>
<polygon fill="none" stroke="#000000" points="97.5,-122.7 97.5,-141.7 181.5,-141.7 181.5,-122.7 97.5,-122.7"/>
<text text-anchor="start" x="162.9053" y="-128.8" font-family="Helvetica,sans-Serif" font-size="11.00" fill="#000000">2 &gt;</text>
<polygon fill="none" stroke="#000000" stroke-width="2" points="9,-121.7 9,-253.7 182,-253.7 182,-121.7 9,-121.7"/>
</a>
</g>
</g>
<!-- actor_info&#45;&gt;actor -->
<g id="edge1" class="edge">
<title>actor_info:w&#45;&gt;actor:e</title>
<path fill="none" stroke="#000000" stroke-dasharray="5,2" d="M217.4203,-218.7C205.5435,-218.7 198.158,-218.7 181.5,-218.7"/>
<polygon fill="#000000" stroke="#000000" points="224,-218.7001 232,-222.3 228,-218.7 232,-218.7 232,-218.7 232,-218.7 228,-218.7 232,-215.1 224,-218.7001 224,-218.7001"/>
<ellipse fill="none" stroke="#000000" cx="220.8" cy="-218.7001" rx="3.2" ry="3.2"/>
</g>
<!-- film_actor -->
<g id="node3" class="node">
<title>film_actor</title>
<g id="a_node3"><a xlink:href="../../tables/film_actor.html" xlink:title="film_actor" target="_top">
<polygon fill="#ffffff" stroke="transparent" points="232,-39.2 232,-144.2 322,-144.2 322,-39.2 232,-39.2"/>
<polygon fill="#f5f5f5" stroke="transparent" points="232,-120.7 232,-143.7 322,-143.7 322,-120.7 232,-120.7"/>
<polygon fill="none" stroke="#000000" points="232,-120.7 232,-143.7 322,-143.7 322,-120.7 232,-120.7"/>
<text text-anchor="start" x="236.668" y="-129.8" font-family="Helvetica,sans-Serif" font-weight="bold" font-size="11.00" fill="#000000">film_actor</text>
<text text-anchor="start" x="287.5219" y="-128.8" font-family="Helvetica,sans-Serif" font-size="11.00" fill="#000000">[table]</text>
<polygon fill="none" stroke="#000000" points="232,-98.7 232,-120.7 322,-120.7 322,-98.7 232,-98.7"/>
<image xlink:href="../../images/primaryKeys.png" width="11px" height="12px" preserveAspectRatio="xMinYMin meet" x="237" y="-115.7"/>
<text text-anchor="start" x="254" y="-105.8" font-family="Helvetica,sans-Serif" font-size="11.00" fill="#000000">actor_id</text>
<polygon fill="none" stroke="#000000" points="232,-76.7 232,-98.7 322,-98.7 322,-76.7 232,-76.7"/>
<image xlink:href="../../images/primaryKeys.png" width="11px" height="12px" preserveAspectRatio="xMinYMin meet" x="237" y="-93.7"/>
<text text-anchor="start" x="254" y="-83.8" font-family="Helvetica,sans-Serif" font-size="11.00" fill="#000000">film_id</text>
<polygon fill="none" stroke="#000000" points="232,-57.7 232,-76.7 322,-76.7 322,-57.7 232,-57.7"/>
<text text-anchor="start" x="235" y="-63.8" font-family="Helvetica,sans-Serif" font-size="11.00" fill="#000000">...</text>
<polygon fill="#ffffff" stroke="transparent" points="232,-38.7 232,-57.7 262,-57.7 262,-38.7 232,-38.7"/>
<polygon fill="none" stroke="#000000" points="232,-38.7 232,-57.7 262,-57.7 262,-38.7 232,-38.7"/>
<text text-anchor="start" x="235" y="-44.8" font-family="Helvetica,sans-Serif" font-size="11.00" fill="#000000">&lt; 2</text>
<polygon fill="#ffffff" stroke="transparent" points="262,-38.7 262,-57.7 305,-57.7 305,-38.7 262,-38.7"/>
<polygon fill="none" stroke="#000000" points="262,-38.7 262,-57.7 305,-57.7 305,-38.7 262,-38.7"/>
<text text-anchor="start" x="269.6105" y="-44.8" font-family="Helvetica,sans-Serif" font-size="11.00" fill="#000000">0 rows</text>
<polygon fill="#ffffff" stroke="transparent" points="305,-38.7 305,-57.7 322,-57.7 322,-38.7 305,-38.7"/>
<polygon fill="none" stroke="#000000" points="305,-38.7 305,-57.7 322,-57.7 322,-38.7 305,-38.7"/>
<text text-anchor="start" x="312.8862" y="-44.8" font-family="Helvetica,sans-Serif" font-size="11.00" fill="#000000"> &#160;</text>
</a>
</g>
</g>
<!-- film_actor&#45;&gt;actor -->
<g id="edge2" class="edge">
<title>film_actor:w&#45;&gt;actor:e</title>
<path fill="none" stroke="#000000" d="M217.7587,-113.5794C189.9529,-132.9966 228.843,-218.7 181.5,-218.7"/>
<polygon fill="#000000" stroke="#000000" points="224.2813,-111.8026 232.9462,-113.1734 228.1406,-110.7513 232,-109.7 232,-109.7 232,-109.7 228.1406,-110.7513 231.0538,-106.2266 224.2813,-111.8026 224.2813,-111.8026"/>
<ellipse fill="none" stroke="#000000" cx="221.1938" cy="-112.6437" rx="3.2" ry="3.2"/>
</g>
<!-- film -->
<g id="node4" class="node">
<title>film</title>
<g id="a_node4"><a xlink:href="../../tables/film.html" xlink:title="film" target="_top">
<polygon fill="#ffffff" stroke="transparent" points="55.5,-38.2 55.5,-99.2 135.5,-99.2 135.5,-38.2 55.5,-38.2"/>
<polygon fill="#f5f5f5" stroke="transparent" points="55.5,-75.7 55.5,-98.7 135.5,-98.7 135.5,-75.7 55.5,-75.7"/>
<polygon fill="none" stroke="#000000" points="55.5,-75.7 55.5,-98.7 135.5,-98.7 135.5,-75.7 55.5,-75.7"/>
<text text-anchor="start" x="60.5" y="-84.8" font-family="Helvetica,sans-Serif" font-weight="bold" font-size="11.00" fill="#000000">film</text>
<text text-anchor="start" x="100.5437" y="-83.8" font-family="Helvetica,sans-Serif" font-size="11.00" fill="#000000">[table]</text>
<polygon fill="none" stroke="#000000" points="55.5,-56.7 55.5,-75.7 135.5,-75.7 135.5,-56.7 55.5,-56.7"/>
<text text-anchor="start" x="58.5" y="-62.8" font-family="Helvetica,sans-Serif" font-size="11.00" fill="#000000">...</text>
<polygon fill="#ffffff" stroke="transparent" points="55.5,-37.7 55.5,-56.7 76.5,-56.7 76.5,-37.7 55.5,-37.7"/>
<polygon fill="none" stroke="#000000" points="55.5,-37.7 55.5,-56.7 76.5,-56.7 76.5,-37.7 55.5,-37.7"/>
<text text-anchor="start" x="58.2027" y="-43.8" font-family="Helvetica,sans-Serif" font-size="11.00" fill="#000000">&lt; 2</text>
<polygon fill="#ffffff" stroke="transparent" points="76.5,-37.7 76.5,-56.7 114.5,-56.7 114.5,-37.7 76.5,-37.7"/>
<polygon fill="none" stroke="#000000" points="76.5,-37.7 76.5,-56.7 114.5,-56.7 114.5,-37.7 76.5,-37.7"/>
<text text-anchor="start" x="79.3053" y="-43.8" font-family="Helvetica,sans-Serif" font-size="11.00" fill="#000000">0 rows</text>
<polygon fill="#ffffff" stroke="transparent" points="114.5,-37.7 114.5,-56.7 135.5,-56.7 135.5,-37.7 114.5,-37.7"/>
<polygon fill="none" stroke="#000000" points="114.5,-37.7 114.5,-56.7 135.5,-56.7 135.5,-37.7 114.5,-37.7"/>
<text text-anchor="start" x="117.2027" y="-43.8" font-family="Helvetica,sans-Serif" font-size="11.00" fill="#000000">3 &gt;</text>
</a>
</g>
</g>
<!-- film_actor&#45;&gt;film -->
<g id="edge3" class="edge">
<title>film_actor:w&#45;&gt;film:e</title>
<path fill="none" stroke="#000000" d="M217.4538,-86.8103C185.4268,-82.6945 174.1625,-65.7 135.5,-65.7"/>
<polygon fill="#000000" stroke="#000000" points="224.0149,-87.2116 231.7802,-91.2933 228.0075,-87.4558 232,-87.7 232,-87.7 232,-87.7 228.0075,-87.4558 232.2198,-84.1067 224.0149,-87.2116 224.0149,-87.2116"/>
<ellipse fill="none" stroke="#000000" cx="220.8209" cy="-87.0162" rx="3.2" ry="3.2"/>
</g>
</g>
</svg>
