<?xml version="1.0" encoding="UTF-8" standalone="no"?>
<!DOCTYPE svg PUBLIC "-//W3C//DTD SVG 1.1//EN"
 "http://www.w3.org/Graphics/SVG/1.1/DTD/svg11.dtd">
<!-- Generated by graphviz version 2.40.1 (20161225.0304)
 -->
<!-- Title: oneDegreeRelationshipsDiagramImplied Pages: 1 -->
<svg width="335pt" height="165pt"
 viewBox="0.00 0.00 335.00 165.20" xmlns="http://www.w3.org/2000/svg" xmlns:xlink="http://www.w3.org/1999/xlink">
<g id="graph0" class="graph" transform="scale(1 1) rotate(0) translate(4 161.2)">
<title>oneDegreeRelationshipsDiagramImplied</title>
<polygon fill="#ffffff" stroke="transparent" points="-4,4 -4,-161.2 331,-161.2 331,4 -4,4"/>
<text text-anchor="middle" x="72.4936" y="-7.3" font-family="Helvetica,sans-Serif" font-size="11.00" fill="#000000">Generated by SchemaSpy</text>
<!-- actor_info -->
<g id="node1" class="node">
<title>actor_info</title>
<g id="a_node1"><a xlink:href="../../tables/actor_info.html" xlink:title="actor_info" target="_top">
<polygon fill="#ffffff" stroke="transparent" points="144,-38.2 144,-153.2 319,-153.2 319,-38.2 144,-38.2"/>
<polygon fill="#f5f5f5" stroke="transparent" points="146.5,-127.7 146.5,-150.7 317.5,-150.7 317.5,-127.7 146.5,-127.7"/>
<polygon fill="none" stroke="#000000" points="146.5,-127.7 146.5,-150.7 317.5,-150.7 317.5,-127.7 146.5,-127.7"/>
<text text-anchor="start" x="151.5" y="-136.8" font-family="Helvetica,sans-Serif" font-weight="bold" font-size="11.00" fill="#000000">actor_info</text>
<text text-anchor="start" x="284.3895" y="-135.8" font-family="Helvetica,sans-Serif" font-size="11.00" fill="#000000">[view]</text>
<polygon fill="none" stroke="#000000" points="146.5,-105.7 146.5,-127.7 227.5,-127.7 227.5,-105.7 146.5,-105.7"/>
<image xlink:href="../../images/foreignKeys.png" width="11px" height="12px" preserveAspectRatio="xMinYMin meet" x="151.5" y="-122.7"/>
<text text-anchor="start" x="166.5" y="-112.8" font-family="Helvetica,sans-Serif" font-size="11.00" fill="#000000">actor_id</text>
<polygon fill="none" stroke="#000000" points="227.5,-105.7 227.5,-127.7 317.5,-127.7 317.5,-105.7 227.5,-105.7"/>
<text text-anchor="start" x="230.5" y="-113.4" font-family="Helvetica,sans-Serif" font-size="11.00" fill="#000000">int4[10]</text>
<polygon fill="none" stroke="#000000" points="146.5,-83.7 146.5,-105.7 227.5,-105.7 227.5,-83.7 146.5,-83.7"/>
<text text-anchor="start" x="166.5" y="-90.8" font-family="Helvetica,sans-Serif" font-size="11.00" fill="#000000">first_name</text>
<polygon fill="none" stroke="#000000" points="227.5,-83.7 227.5,-105.7 317.5,-105.7 317.5,-83.7 227.5,-83.7"/>
<text text-anchor="start" x="230.5" y="-91.4" font-family="Helvetica,sans-Serif" font-size="11.00" fill="#000000">varchar[45]</text>
<polygon fill="none" stroke="#000000" points="146.5,-61.7 146.5,-83.7 227.5,-83.7 227.5,-61.7 146.5,-61.7"/>
<text text-anchor="start" x="166.5" y="-68.8" font-family="Helvetica,sans-Serif" font-size="11.00" fill="#000000">last_name</text>
<polygon fill="none" stroke="#000000" points="227.5,-61.7 227.5,-83.7 317.5,-83.7 317.5,-61.7 227.5,-61.7"/>
<text text-anchor="start" x="230.5" y="-69.4" font-family="Helvetica,sans-Serif" font-size="11.00" fill="#000000">varchar[45]</text>
<polygon fill="none" stroke="#000000" points="146.5,-39.7 146.5,-61.7 227.5,-61.7 227.5,-39.7 146.5,-39.7"/>
<text text-anchor="start" x="166.5" y="-46.8" font-family="Helvetica,sans-Serif" font-size="11.00" fill="#000000">film_info</text>
<polygon fill="none" stroke="#000000" points="227.5,-39.7 227.5,-61.7 317.5,-61.7 317.5,-39.7 227.5,-39.7"/>
<text text-anchor="start" x="230.0043" y="-47.4" font-family="Helvetica,sans-Serif" font-size="11.00" fill="#000000">text[2147483647]</text>
<polygon fill="none" stroke="#000000" stroke-width="2" points="145,-39.2 145,-152.2 318,-152.2 318,-39.2 145,-39.2"/>
</a>
</g>
</g>
<!-- actor -->
<g id="node2" class="node">
<title>actor</title>
<g id="a_node2"><a xlink:href="../../tables/actor.html" xlink:title="actor" target="_top">
<polygon fill="#ffffff" stroke="transparent" points="8,-46.2 8,-151.2 95,-151.2 95,-46.2 8,-46.2"/>
<polygon fill="#f5f5f5" stroke="transparent" points="8.5,-127.7 8.5,-150.7 95.5,-150.7 95.5,-127.7 8.5,-127.7"/>
<polygon fill="none" stroke="#000000" points="8.5,-127.7 8.5,-150.7 95.5,-150.7 95.5,-127.7 8.5,-127.7"/>
<text text-anchor="start" x="13.5" y="-136.8" font-family="Helvetica,sans-Serif" font-weight="bold" font-size="11.00" fill="#000000">actor</text>
<text text-anchor="start" x="60.5437" y="-135.8" font-family="Helvetica,sans-Serif" font-size="11.00" fill="#000000">[table]</text>
<polygon fill="none" stroke="#000000" points="8.5,-105.7 8.5,-127.7 95.5,-127.7 95.5,-105.7 8.5,-105.7"/>
<image xlink:href="../../images/primaryKeys.png" width="11px" height="12px" preserveAspectRatio="xMinYMin meet" x="13.5" y="-122.7"/>
<text text-anchor="start" x="28.5" y="-112.8" font-family="Helvetica,sans-Serif" font-size="11.00" fill="#000000">actor_id</text>
<polygon fill="#ffffff" stroke="transparent" points="8.5,-83.7 8.5,-105.7 95.5,-105.7 95.5,-83.7 8.5,-83.7"/>
<polygon fill="none" stroke="#000000" points="8.5,-83.7 8.5,-105.7 95.5,-105.7 95.5,-83.7 8.5,-83.7"/>
<text text-anchor="start" x="28.5" y="-90.8" font-family="Helvetica,sans-Serif" font-size="11.00" fill="#000000">last_name</text>
<polygon fill="none" stroke="#000000" points="8.5,-64.7 8.5,-83.7 95.5,-83.7 95.5,-64.7 8.5,-64.7"/>
<text text-anchor="start" x="11.5" y="-70.8" font-family="Helvetica,sans-Serif" font-size="11.00" fill="#000000">...</text>
<polygon fill="#ffffff" stroke="transparent" points="8.5,-45.7 8.5,-64.7 22.5,-64.7 22.5,-45.7 8.5,-45.7"/>
<polygon fill="none" stroke="#000000" points="8.5,-45.7 8.5,-64.7 22.5,-64.7 22.5,-45.7 8.5,-45.7"/>
<text text-anchor="start" x="11.5" y="-51.8" font-family="Helvetica,sans-Serif" font-size="11.00" fill="#000000"> &#160;</text>
<polygon fill="#ffffff" stroke="transparent" points="22.5,-45.7 22.5,-64.7 73.5,-64.7 73.5,-45.7 22.5,-45.7"/>
<polygon fill="none" stroke="#000000" points="22.5,-45.7 22.5,-64.7 73.5,-64.7 73.5,-45.7 22.5,-45.7"/>
<text text-anchor="start" x="25.8807" y="-51.8" font-family="Helvetica,sans-Serif" font-size="11.00" fill="#000000">200 rows</text>
<polygon fill="#ffffff" stroke="transparent" points="73.5,-45.7 73.5,-64.7 95.5,-64.7 95.5,-45.7 73.5,-45.7"/>
<polygon fill="none" stroke="#000000" points="73.5,-45.7 73.5,-64.7 95.5,-64.7 95.5,-45.7 73.5,-45.7"/>
<text text-anchor="start" x="76.9053" y="-51.8" font-family="Helvetica,sans-Serif" font-size="11.00" fill="#000000">2 &gt;</text>
</a>
</g>
</g>
<!-- actor_info&#45;&gt;actor -->
<g id="edge1" class="edge">
<title>actor_info:w&#45;&gt;actor:e</title>
<path fill="none" stroke="#000000" stroke-dasharray="5,2" d="M131.776,-116.7C119.7815,-116.7 112.3229,-116.7 95.5,-116.7"/>
<polygon fill="#000000" stroke="#000000" points="138.5,-116.7001 146.5,-120.3 142.5,-116.7 146.5,-116.7 146.5,-116.7 146.5,-116.7 142.5,-116.7 146.5,-113.1 138.5,-116.7001 138.5,-116.7001"/>
<ellipse fill="none" stroke="#000000" cx="135.3" cy="-116.7001" rx="3.2" ry="3.2"/>
</g>
</g>
</svg>
