<?xml version="1.0" encoding="UTF-8" standalone="no"?>
<!DOCTYPE svg PUBLIC "-//W3C//DTD SVG 1.1//EN"
 "http://www.w3.org/Graphics/SVG/1.1/DTD/svg11.dtd">
<!-- Generated by graphviz version 2.40.1 (20161225.0304)
 -->
<!-- Title: oneDegreeRelationshipsDiagramImplied Pages: 1 -->
<svg width="338pt" height="241pt"
 viewBox="0.00 0.00 338.00 240.70" xmlns="http://www.w3.org/2000/svg" xmlns:xlink="http://www.w3.org/1999/xlink">
<g id="graph0" class="graph" transform="scale(1 1) rotate(0) translate(4 236.7)">
<title>oneDegreeRelationshipsDiagramImplied</title>
<polygon fill="#ffffff" stroke="transparent" points="-4,4 -4,-236.7 334,-236.7 334,4 -4,4"/>
<text text-anchor="middle" x="72.4936" y="-7.3" font-family="Helvetica,sans-Serif" font-size="11.00" fill="#000000">Generated by SchemaSpy</text>
<!-- actor_info -->
<g id="node1" class="node">
<title>actor_info</title>
<g id="a_node1"><a xlink:href="../../tables/actor_info.html" xlink:title="actor_info" target="_top">
<polygon fill="#ffffff" stroke="transparent" points="232,-164.7 232,-228.7 322,-228.7 322,-164.7 232,-164.7"/>
<polygon fill="#f5f5f5" stroke="transparent" points="232,-205.7 232,-228.7 322,-228.7 322,-205.7 232,-205.7"/>
<polygon fill="none" stroke="#000000" points="232,-205.7 232,-228.7 322,-228.7 322,-205.7 232,-205.7"/>
<text text-anchor="start" x="236.8545" y="-214.8" font-family="Helvetica,sans-Serif" font-weight="bold" font-size="11.00" fill="#000000">actor_info</text>
<text text-anchor="start" x="288.9448" y="-213.8" font-family="Helvetica,sans-Serif" font-size="11.00" fill="#000000">[view]</text>
<polygon fill="none" stroke="#000000" points="232,-183.7 232,-205.7 322,-205.7 322,-183.7 232,-183.7"/>
<image xlink:href="../../images/foreignKeys.png" width="11px" height="12px" preserveAspectRatio="xMinYMin meet" x="237" y="-200.7"/>
<text text-anchor="start" x="257" y="-190.8" font-family="Helvetica,sans-Serif" font-size="11.00" fill="#000000">actor_id</text>
<polygon fill="none" stroke="#000000" points="232,-164.7 232,-183.7 322,-183.7 322,-164.7 232,-164.7"/>
<text text-anchor="start" x="235" y="-170.8" font-family="Helvetica,sans-Serif" font-size="11.00" fill="#000000">...</text>
</a>
</g>
</g>
<!-- actor -->
<g id="node2" class="node">
<title>actor</title>
<g id="a_node2"><a xlink:href="../../tables/actor.html" xlink:title="actor" target="_top">
<polygon fill="#ffffff" stroke="transparent" points="8,-53.7 8,-187.7 183,-187.7 183,-53.7 8,-53.7"/>
<polygon fill="#f5f5f5" stroke="transparent" points="10.5,-162.7 10.5,-185.7 181.5,-185.7 181.5,-162.7 10.5,-162.7"/>
<polygon fill="none" stroke="#000000" points="10.5,-162.7 10.5,-185.7 181.5,-185.7 181.5,-162.7 10.5,-162.7"/>
<text text-anchor="start" x="15.5" y="-171.8" font-family="Helvetica,sans-Serif" font-weight="bold" font-size="11.00" fill="#000000">actor</text>
<text text-anchor="start" x="146.5437" y="-170.8" font-family="Helvetica,sans-Serif" font-size="11.00" fill="#000000">[table]</text>
<polygon fill="none" stroke="#000000" points="10.5,-140.7 10.5,-162.7 97.5,-162.7 97.5,-140.7 10.5,-140.7"/>
<image xlink:href="../../images/primaryKeys.png" width="11px" height="12px" preserveAspectRatio="xMinYMin meet" x="15.5" y="-157.7"/>
<text text-anchor="start" x="30.5" y="-147.8" font-family="Helvetica,sans-Serif" font-size="11.00" fill="#000000">actor_id</text>
<polygon fill="none" stroke="#000000" points="97.5,-140.7 97.5,-162.7 181.5,-162.7 181.5,-140.7 97.5,-140.7"/>
<text text-anchor="start" x="100.5" y="-148.4" font-family="Helvetica,sans-Serif" font-size="11.00" fill="#000000">serial[10]</text>
<polygon fill="none" stroke="#000000" points="10.5,-118.7 10.5,-140.7 97.5,-140.7 97.5,-118.7 10.5,-118.7"/>
<text text-anchor="start" x="30.5" y="-125.8" font-family="Helvetica,sans-Serif" font-size="11.00" fill="#000000">first_name</text>
<polygon fill="none" stroke="#000000" points="97.5,-118.7 97.5,-140.7 181.5,-140.7 181.5,-118.7 97.5,-118.7"/>
<text text-anchor="start" x="100.5" y="-126.4" font-family="Helvetica,sans-Serif" font-size="11.00" fill="#000000">varchar[45]</text>
<polygon fill="#ffffff" stroke="transparent" points="10.5,-96.7 10.5,-118.7 97.5,-118.7 97.5,-96.7 10.5,-96.7"/>
<polygon fill="none" stroke="#000000" points="10.5,-96.7 10.5,-118.7 97.5,-118.7 97.5,-96.7 10.5,-96.7"/>
<text text-anchor="start" x="30.5" y="-103.8" font-family="Helvetica,sans-Serif" font-size="11.00" fill="#000000">last_name</text>
<polygon fill="none" stroke="#000000" points="97.5,-96.7 97.5,-118.7 181.5,-118.7 181.5,-96.7 97.5,-96.7"/>
<text text-anchor="start" x="100.5" y="-104.4" font-family="Helvetica,sans-Serif" font-size="11.00" fill="#000000">varchar[45]</text>
<polygon fill="none" stroke="#000000" points="10.5,-74.7 10.5,-96.7 97.5,-96.7 97.5,-74.7 10.5,-74.7"/>
<text text-anchor="start" x="30.5" y="-81.8" font-family="Helvetica,sans-Serif" font-size="11.00" fill="#000000">last_update</text>
<polygon fill="none" stroke="#000000" points="97.5,-74.7 97.5,-96.7 181.5,-96.7 181.5,-74.7 97.5,-74.7"/>
<text text-anchor="start" x="100.3807" y="-82.4" font-family="Helvetica,sans-Serif" font-size="11.00" fill="#000000">timestamp[29,6]</text>
<polygon fill="#ffffff" stroke="transparent" points="10.5,-55.7 10.5,-74.7 39.5,-74.7 39.5,-55.7 10.5,-55.7"/>
<polygon fill="none" stroke="#000000" points="10.5,-55.7 10.5,-74.7 39.5,-74.7 39.5,-55.7 10.5,-55.7"/>
<text text-anchor="start" x="13.5" y="-61.8" font-family="Helvetica,sans-Serif" font-size="11.00" fill="#000000">&lt; 0</text>
<polygon fill="#ffffff" stroke="transparent" points="39.5,-55.7 39.5,-74.7 97.5,-74.7 97.5,-55.7 39.5,-55.7"/>
<polygon fill="none" stroke="#000000" points="39.5,-55.7 39.5,-74.7 97.5,-74.7 97.5,-55.7 39.5,-55.7"/>
<text text-anchor="start" x="49.8807" y="-61.8" font-family="Helvetica,sans-Serif" font-size="11.00" fill="#000000">200 rows</text>
<polygon fill="#ffffff" stroke="transparent" points="97.5,-55.7 97.5,-74.7 181.5,-74.7 181.5,-55.7 97.5,-55.7"/>
<polygon fill="none" stroke="#000000" points="97.5,-55.7 97.5,-74.7 181.5,-74.7 181.5,-55.7 97.5,-55.7"/>
<text text-anchor="start" x="162.9053" y="-61.8" font-family="Helvetica,sans-Serif" font-size="11.00" fill="#000000">2 &gt;</text>
<polygon fill="none" stroke="#000000" stroke-width="2" points="9,-54.7 9,-186.7 182,-186.7 182,-54.7 9,-54.7"/>
</a>
</g>
</g>
<!-- actor_info&#45;&gt;actor -->
<g id="edge1" class="edge">
<title>actor_info:w&#45;&gt;actor:e</title>
<path fill="none" stroke="#000000" stroke-dasharray="5,2" d="M218.0963,-190.0982C204.3919,-179.0054 204.9908,-151.7 181.5,-151.7"/>
<polygon fill="#000000" stroke="#000000" points="224.4052,-192.1863 230.8688,-198.1177 228.2026,-193.4431 232,-194.7 232,-194.7 232,-194.7 228.2026,-193.4431 233.1312,-191.2823 224.4052,-192.1863 224.4052,-192.1863"/>
<ellipse fill="none" stroke="#000000" cx="221.3672" cy="-191.1808" rx="3.2" ry="3.2"/>
</g>
<!-- film_actor -->
<g id="node3" class="node">
<title>film_actor</title>
<g id="a_node3"><a xlink:href="../../tables/film_actor.html" xlink:title="film_actor" target="_top">
<polygon fill="#ffffff" stroke="transparent" points="232,-38.2 232,-143.2 322,-143.2 322,-38.2 232,-38.2"/>
<polygon fill="#f5f5f5" stroke="transparent" points="232,-119.7 232,-142.7 322,-142.7 322,-119.7 232,-119.7"/>
<polygon fill="none" stroke="#000000" points="232,-119.7 232,-142.7 322,-142.7 322,-119.7 232,-119.7"/>
<text text-anchor="start" x="236.668" y="-128.8" font-family="Helvetica,sans-Serif" font-weight="bold" font-size="11.00" fill="#000000">film_actor</text>
<text text-anchor="start" x="287.5219" y="-127.8" font-family="Helvetica,sans-Serif" font-size="11.00" fill="#000000">[table]</text>
<polygon fill="none" stroke="#000000" points="232,-97.7 232,-119.7 322,-119.7 322,-97.7 232,-97.7"/>
<image xlink:href="../../images/primaryKeys.png" width="11px" height="12px" preserveAspectRatio="xMinYMin meet" x="237" y="-114.7"/>
<text text-anchor="start" x="254" y="-104.8" font-family="Helvetica,sans-Serif" font-size="11.00" fill="#000000">actor_id</text>
<polygon fill="none" stroke="#000000" points="232,-75.7 232,-97.7 322,-97.7 322,-75.7 232,-75.7"/>
<image xlink:href="../../images/primaryKeys.png" width="11px" height="12px" preserveAspectRatio="xMinYMin meet" x="237" y="-92.7"/>
<text text-anchor="start" x="254" y="-82.8" font-family="Helvetica,sans-Serif" font-size="11.00" fill="#000000">film_id</text>
<polygon fill="none" stroke="#000000" points="232,-56.7 232,-75.7 322,-75.7 322,-56.7 232,-56.7"/>
<text text-anchor="start" x="235" y="-62.8" font-family="Helvetica,sans-Serif" font-size="11.00" fill="#000000">...</text>
<polygon fill="#ffffff" stroke="transparent" points="232,-37.7 232,-56.7 262,-56.7 262,-37.7 232,-37.7"/>
<polygon fill="none" stroke="#000000" points="232,-37.7 232,-56.7 262,-56.7 262,-37.7 232,-37.7"/>
<text text-anchor="start" x="235" y="-43.8" font-family="Helvetica,sans-Serif" font-size="11.00" fill="#000000">&lt; 2</text>
<polygon fill="#ffffff" stroke="transparent" points="262,-37.7 262,-56.7 305,-56.7 305,-37.7 262,-37.7"/>
<polygon fill="none" stroke="#000000" points="262,-37.7 262,-56.7 305,-56.7 305,-37.7 262,-37.7"/>
<text text-anchor="start" x="269.6105" y="-43.8" font-family="Helvetica,sans-Serif" font-size="11.00" fill="#000000">0 rows</text>
<polygon fill="#ffffff" stroke="transparent" points="305,-37.7 305,-56.7 322,-56.7 322,-37.7 305,-37.7"/>
<polygon fill="none" stroke="#000000" points="305,-37.7 305,-56.7 322,-56.7 322,-37.7 305,-37.7"/>
<text text-anchor="start" x="312.8862" y="-43.8" font-family="Helvetica,sans-Serif" font-size="11.00" fill="#000000"> &#160;</text>
</a>
</g>
</g>
<!-- film_actor&#45;&gt;actor -->
<g id="edge2" class="edge">
<title>film_actor:w&#45;&gt;actor:e</title>
<path fill="none" stroke="#000000" d="M218.0963,-113.3018C204.3919,-124.3946 204.9908,-151.7 181.5,-151.7"/>
<polygon fill="#000000" stroke="#000000" points="224.4052,-111.2137 233.1312,-112.1177 228.2026,-109.9569 232,-108.7 232,-108.7 232,-108.7 228.2026,-109.9569 230.8688,-105.2823 224.4052,-111.2137 224.4052,-111.2137"/>
<ellipse fill="none" stroke="#000000" cx="221.3672" cy="-112.2192" rx="3.2" ry="3.2"/>
</g>
</g>
</svg>
