<?xml version="1.0" encoding="UTF-8" standalone="no"?>
<!DOCTYPE svg PUBLIC "-//W3C//DTD SVG 1.1//EN"
 "http://www.w3.org/Graphics/SVG/1.1/DTD/svg11.dtd">
<!-- Generated by graphviz version 2.40.1 (20161225.0304)
 -->
<!-- Title: twoDegreesRelationshipsDiagram Pages: 1 -->
<svg width="338pt" height="267pt"
 viewBox="0.00 0.00 338.00 266.70" xmlns="http://www.w3.org/2000/svg" xmlns:xlink="http://www.w3.org/1999/xlink">
<g id="graph0" class="graph" transform="scale(1 1) rotate(0) translate(4 262.7)">
<title>twoDegreesRelationshipsDiagram</title>
<polygon fill="#ffffff" stroke="transparent" points="-4,4 -4,-262.7 334,-262.7 334,4 -4,4"/>
<text text-anchor="middle" x="72.4936" y="-7.3" font-family="Helvetica,sans-Serif" font-size="11.00" fill="#000000">Generated by SchemaSpy</text>
<!-- film_actor -->
<g id="node1" class="node">
<title>film_actor</title>
<g id="a_node1"><a xlink:href="../../tables/film_actor.html" xlink:title="film_actor" target="_top">
<polygon fill="#ffffff" stroke="transparent" points="232,-82.2 232,-187.2 322,-187.2 322,-82.2 232,-82.2"/>
<polygon fill="#f5f5f5" stroke="transparent" points="232,-163.7 232,-186.7 322,-186.7 322,-163.7 232,-163.7"/>
<polygon fill="none" stroke="#000000" points="232,-163.7 232,-186.7 322,-186.7 322,-163.7 232,-163.7"/>
<text text-anchor="start" x="236.668" y="-172.8" font-family="Helvetica,sans-Serif" font-weight="bold" font-size="11.00" fill="#000000">film_actor</text>
<text text-anchor="start" x="287.5219" y="-171.8" font-family="Helvetica,sans-Serif" font-size="11.00" fill="#000000">[table]</text>
<polygon fill="none" stroke="#000000" points="232,-141.7 232,-163.7 322,-163.7 322,-141.7 232,-141.7"/>
<image xlink:href="../../images/primaryKeys.png" width="11px" height="12px" preserveAspectRatio="xMinYMin meet" x="237" y="-158.7"/>
<text text-anchor="start" x="254" y="-148.8" font-family="Helvetica,sans-Serif" font-size="11.00" fill="#000000">actor_id</text>
<polygon fill="none" stroke="#000000" points="232,-119.7 232,-141.7 322,-141.7 322,-119.7 232,-119.7"/>
<image xlink:href="../../images/primaryKeys.png" width="11px" height="12px" preserveAspectRatio="xMinYMin meet" x="237" y="-136.7"/>
<text text-anchor="start" x="254" y="-126.8" font-family="Helvetica,sans-Serif" font-size="11.00" fill="#000000">film_id</text>
<polygon fill="none" stroke="#000000" points="232,-100.7 232,-119.7 322,-119.7 322,-100.7 232,-100.7"/>
<text text-anchor="start" x="235" y="-106.8" font-family="Helvetica,sans-Serif" font-size="11.00" fill="#000000">...</text>
<polygon fill="#ffffff" stroke="transparent" points="232,-81.7 232,-100.7 262,-100.7 262,-81.7 232,-81.7"/>
<polygon fill="none" stroke="#000000" points="232,-81.7 232,-100.7 262,-100.7 262,-81.7 232,-81.7"/>
<text text-anchor="start" x="235" y="-87.8" font-family="Helvetica,sans-Serif" font-size="11.00" fill="#000000">&lt; 2</text>
<polygon fill="#ffffff" stroke="transparent" points="262,-81.7 262,-100.7 305,-100.7 305,-81.7 262,-81.7"/>
<polygon fill="none" stroke="#000000" points="262,-81.7 262,-100.7 305,-100.7 305,-81.7 262,-81.7"/>
<text text-anchor="start" x="269.6105" y="-87.8" font-family="Helvetica,sans-Serif" font-size="11.00" fill="#000000">0 rows</text>
<polygon fill="#ffffff" stroke="transparent" points="305,-81.7 305,-100.7 322,-100.7 322,-81.7 305,-81.7"/>
<polygon fill="none" stroke="#000000" points="305,-81.7 305,-100.7 322,-100.7 322,-81.7 305,-81.7"/>
<text text-anchor="start" x="312.8862" y="-87.8" font-family="Helvetica,sans-Serif" font-size="11.00" fill="#000000"> &#160;</text>
</a>
</g>
</g>
<!-- actor -->
<g id="node2" class="node">
<title>actor</title>
<g id="a_node2"><a xlink:href="../../tables/actor.html" xlink:title="actor" target="_top">
<polygon fill="#ffffff" stroke="transparent" points="8,-120.7 8,-254.7 183,-254.7 183,-120.7 8,-120.7"/>
<polygon fill="#f5f5f5" stroke="transparent" points="10.5,-229.7 10.5,-252.7 181.5,-252.7 181.5,-229.7 10.5,-229.7"/>
<polygon fill="none" stroke="#000000" points="10.5,-229.7 10.5,-252.7 181.5,-252.7 181.5,-229.7 10.5,-229.7"/>
<text text-anchor="start" x="15.5" y="-238.8" font-family="Helvetica,sans-Serif" font-weight="bold" font-size="11.00" fill="#000000">actor</text>
<text text-anchor="start" x="146.5437" y="-237.8" font-family="Helvetica,sans-Serif" font-size="11.00" fill="#000000">[table]</text>
<polygon fill="none" stroke="#000000" points="10.5,-207.7 10.5,-229.7 97.5,-229.7 97.5,-207.7 10.5,-207.7"/>
<image xlink:href="../../images/primaryKeys.png" width="11px" height="12px" preserveAspectRatio="xMinYMin meet" x="15.5" y="-224.7"/>
<text text-anchor="start" x="30.5" y="-214.8" font-family="Helvetica,sans-Serif" font-size="11.00" fill="#000000">actor_id</text>
<polygon fill="none" stroke="#000000" points="97.5,-207.7 97.5,-229.7 181.5,-229.7 181.5,-207.7 97.5,-207.7"/>
<text text-anchor="start" x="100.5" y="-215.4" font-family="Helvetica,sans-Serif" font-size="11.00" fill="#000000">serial[10]</text>
<polygon fill="none" stroke="#000000" points="10.5,-185.7 10.5,-207.7 97.5,-207.7 97.5,-185.7 10.5,-185.7"/>
<text text-anchor="start" x="30.5" y="-192.8" font-family="Helvetica,sans-Serif" font-size="11.00" fill="#000000">first_name</text>
<polygon fill="none" stroke="#000000" points="97.5,-185.7 97.5,-207.7 181.5,-207.7 181.5,-185.7 97.5,-185.7"/>
<text text-anchor="start" x="100.5" y="-193.4" font-family="Helvetica,sans-Serif" font-size="11.00" fill="#000000">varchar[45]</text>
<polygon fill="#ffffff" stroke="transparent" points="10.5,-163.7 10.5,-185.7 97.5,-185.7 97.5,-163.7 10.5,-163.7"/>
<polygon fill="none" stroke="#000000" points="10.5,-163.7 10.5,-185.7 97.5,-185.7 97.5,-163.7 10.5,-163.7"/>
<text text-anchor="start" x="30.5" y="-170.8" font-family="Helvetica,sans-Serif" font-size="11.00" fill="#000000">last_name</text>
<polygon fill="none" stroke="#000000" points="97.5,-163.7 97.5,-185.7 181.5,-185.7 181.5,-163.7 97.5,-163.7"/>
<text text-anchor="start" x="100.5" y="-171.4" font-family="Helvetica,sans-Serif" font-size="11.00" fill="#000000">varchar[45]</text>
<polygon fill="none" stroke="#000000" points="10.5,-141.7 10.5,-163.7 97.5,-163.7 97.5,-141.7 10.5,-141.7"/>
<text text-anchor="start" x="30.5" y="-148.8" font-family="Helvetica,sans-Serif" font-size="11.00" fill="#000000">last_update</text>
<polygon fill="none" stroke="#000000" points="97.5,-141.7 97.5,-163.7 181.5,-163.7 181.5,-141.7 97.5,-141.7"/>
<text text-anchor="start" x="100.3807" y="-149.4" font-family="Helvetica,sans-Serif" font-size="11.00" fill="#000000">timestamp[29,6]</text>
<polygon fill="#ffffff" stroke="transparent" points="10.5,-122.7 10.5,-141.7 45.5,-141.7 45.5,-122.7 10.5,-122.7"/>
<polygon fill="none" stroke="#000000" points="10.5,-122.7 10.5,-141.7 45.5,-141.7 45.5,-122.7 10.5,-122.7"/>
<text text-anchor="start" x="13.5" y="-128.8" font-family="Helvetica,sans-Serif" font-size="11.00" fill="#000000">&lt; 0</text>
<polygon fill="#ffffff" stroke="transparent" points="45.5,-122.7 45.5,-141.7 97.5,-141.7 97.5,-122.7 45.5,-122.7"/>
<polygon fill="none" stroke="#000000" points="45.5,-122.7 45.5,-141.7 97.5,-141.7 97.5,-122.7 45.5,-122.7"/>
<text text-anchor="start" x="62.1105" y="-128.8" font-family="Helvetica,sans-Serif" font-size="11.00" fill="#000000">0 rows</text>
<polygon fill="#ffffff" stroke="transparent" points="97.5,-122.7 97.5,-141.7 181.5,-141.7 181.5,-122.7 97.5,-122.7"/>
<polygon fill="none" stroke="#000000" points="97.5,-122.7 97.5,-141.7 181.5,-141.7 181.5,-122.7 97.5,-122.7"/>
<text text-anchor="start" x="162.9053" y="-128.8" font-family="Helvetica,sans-Serif" font-size="11.00" fill="#000000">1 &gt;</text>
<polygon fill="none" stroke="#000000" stroke-width="2" points="9,-121.7 9,-253.7 182,-253.7 182,-121.7 9,-121.7"/>
</a>
</g>
</g>
<!-- film_actor&#45;&gt;actor -->
<g id="edge1" class="edge">
<title>film_actor:w&#45;&gt;actor:e</title>
<path fill="none" stroke="#000000" d="M218.158,-157.4466C201.1101,-172.5798 212.3754,-218.7 181.5,-218.7"/>
<polygon fill="#000000" stroke="#000000" points="224.4326,-155.295 233.1677,-156.1054 228.2163,-153.9975 232,-152.7 232,-152.7 232,-152.7 228.2163,-153.9975 230.8323,-149.2946 224.4326,-155.295 224.4326,-155.295"/>
<ellipse fill="none" stroke="#000000" cx="221.4056" cy="-156.333" rx="3.2" ry="3.2"/>
</g>
<!-- film -->
<g id="node3" class="node">
<title>film</title>
<g id="a_node3"><a xlink:href="../../tables/film.html" xlink:title="film" target="_top">
<polygon fill="#ffffff" stroke="transparent" points="55.5,-38.2 55.5,-99.2 135.5,-99.2 135.5,-38.2 55.5,-38.2"/>
<polygon fill="#f5f5f5" stroke="transparent" points="55.5,-75.7 55.5,-98.7 135.5,-98.7 135.5,-75.7 55.5,-75.7"/>
<polygon fill="none" stroke="#000000" points="55.5,-75.7 55.5,-98.7 135.5,-98.7 135.5,-75.7 55.5,-75.7"/>
<text text-anchor="start" x="60.5" y="-84.8" font-family="Helvetica,sans-Serif" font-weight="bold" font-size="11.00" fill="#000000">film</text>
<text text-anchor="start" x="100.5437" y="-83.8" font-family="Helvetica,sans-Serif" font-size="11.00" fill="#000000">[table]</text>
<polygon fill="none" stroke="#000000" points="55.5,-56.7 55.5,-75.7 135.5,-75.7 135.5,-56.7 55.5,-56.7"/>
<text text-anchor="start" x="58.5" y="-62.8" font-family="Helvetica,sans-Serif" font-size="11.00" fill="#000000">...</text>
<polygon fill="#ffffff" stroke="transparent" points="55.5,-37.7 55.5,-56.7 76.5,-56.7 76.5,-37.7 55.5,-37.7"/>
<polygon fill="none" stroke="#000000" points="55.5,-37.7 55.5,-56.7 76.5,-56.7 76.5,-37.7 55.5,-37.7"/>
<text text-anchor="start" x="58.2027" y="-43.8" font-family="Helvetica,sans-Serif" font-size="11.00" fill="#000000">&lt; 1</text>
<polygon fill="#ffffff" stroke="transparent" points="76.5,-37.7 76.5,-56.7 114.5,-56.7 114.5,-37.7 76.5,-37.7"/>
<polygon fill="none" stroke="#000000" points="76.5,-37.7 76.5,-56.7 114.5,-56.7 114.5,-37.7 76.5,-37.7"/>
<text text-anchor="start" x="79.3053" y="-43.8" font-family="Helvetica,sans-Serif" font-size="11.00" fill="#000000">0 rows</text>
<polygon fill="#ffffff" stroke="transparent" points="114.5,-37.7 114.5,-56.7 135.5,-56.7 135.5,-37.7 114.5,-37.7"/>
<polygon fill="none" stroke="#000000" points="114.5,-37.7 114.5,-56.7 135.5,-56.7 135.5,-37.7 114.5,-37.7"/>
<text text-anchor="start" x="117.2027" y="-43.8" font-family="Helvetica,sans-Serif" font-size="11.00" fill="#000000">3 &gt;</text>
</a>
</g>
</g>
<!-- film_actor&#45;&gt;film -->
<g id="edge2" class="edge">
<title>film_actor:w&#45;&gt;film:e</title>
<path fill="none" stroke="#000000" d="M217.4574,-128.6834C181.0969,-117.7121 181.7571,-65.7 135.5,-65.7"/>
<polygon fill="#000000" stroke="#000000" points="224.0758,-129.6011 231.5055,-134.2659 228.0379,-130.1506 232,-130.7 232,-130.7 232,-130.7 228.0379,-130.1506 232.4945,-127.1341 224.0758,-129.6011 224.0758,-129.6011"/>
<ellipse fill="none" stroke="#000000" cx="220.9062" cy="-129.1616" rx="3.2" ry="3.2"/>
</g>
</g>
</svg>
