<?xml version="1.0" encoding="UTF-8" standalone="no"?>
<!DOCTYPE svg PUBLIC "-//W3C//DTD SVG 1.1//EN"
 "http://www.w3.org/Graphics/SVG/1.1/DTD/svg11.dtd">
<!-- Generated by graphviz version 2.40.1 (20161225.0304)
 -->
<!-- Title: oneDegreeRelationshipsDiagram Pages: 1 -->
<svg width="785pt" height="388pt"
 viewBox="0.00 0.00 785.00 387.70" xmlns="http://www.w3.org/2000/svg" xmlns:xlink="http://www.w3.org/1999/xlink">
<g id="graph0" class="graph" transform="scale(1 1) rotate(0) translate(4 383.7)">
<title>oneDegreeRelationshipsDiagram</title>
<polygon fill="#ffffff" stroke="transparent" points="-4,4 -4,-383.7 781,-383.7 781,4 -4,4"/>
<text text-anchor="middle" x="72.4936" y="-7.3" font-family="Helvetica,sans-Serif" font-size="11.00" fill="#000000">Generated by SchemaSpy</text>
<!-- address -->
<g id="node1" class="node">
<title>address</title>
<g id="a_node1"><a xlink:href="../../tables/address.html" xlink:title="address" target="_top">
<polygon fill="#ffffff" stroke="transparent" points="144,-38.2 144,-260.2 323,-260.2 323,-38.2 144,-38.2"/>
<polygon fill="#f5f5f5" stroke="transparent" points="146.5,-235.2 146.5,-258.2 321.5,-258.2 321.5,-235.2 146.5,-235.2"/>
<polygon fill="none" stroke="#000000" points="146.5,-235.2 146.5,-258.2 321.5,-258.2 321.5,-235.2 146.5,-235.2"/>
<text text-anchor="start" x="151.5" y="-244.3" font-family="Helvetica,sans-Serif" font-weight="bold" font-size="11.00" fill="#000000">address</text>
<text text-anchor="start" x="286.5437" y="-243.3" font-family="Helvetica,sans-Serif" font-size="11.00" fill="#000000">[table]</text>
<polygon fill="none" stroke="#000000" points="146.5,-213.2 146.5,-235.2 237.5,-235.2 237.5,-213.2 146.5,-213.2"/>
<image xlink:href="../../images/primaryKeys.png" width="11px" height="12px" preserveAspectRatio="xMinYMin meet" x="151.5" y="-230.2"/>
<text text-anchor="start" x="166.5" y="-220.3" font-family="Helvetica,sans-Serif" font-size="11.00" fill="#000000">address_id</text>
<polygon fill="none" stroke="#000000" points="237.5,-213.2 237.5,-235.2 321.5,-235.2 321.5,-213.2 237.5,-213.2"/>
<text text-anchor="start" x="240.5" y="-220.9" font-family="Helvetica,sans-Serif" font-size="11.00" fill="#000000">serial[10]</text>
<polygon fill="none" stroke="#000000" points="146.5,-191.2 146.5,-213.2 237.5,-213.2 237.5,-191.2 146.5,-191.2"/>
<text text-anchor="start" x="166.5" y="-198.3" font-family="Helvetica,sans-Serif" font-size="11.00" fill="#000000">address</text>
<polygon fill="none" stroke="#000000" points="237.5,-191.2 237.5,-213.2 321.5,-213.2 321.5,-191.2 237.5,-191.2"/>
<text text-anchor="start" x="240.5" y="-198.9" font-family="Helvetica,sans-Serif" font-size="11.00" fill="#000000">varchar[50]</text>
<polygon fill="none" stroke="#000000" points="146.5,-169.2 146.5,-191.2 237.5,-191.2 237.5,-169.2 146.5,-169.2"/>
<text text-anchor="start" x="166.5" y="-176.3" font-family="Helvetica,sans-Serif" font-size="11.00" fill="#000000">address2</text>
<polygon fill="none" stroke="#000000" points="237.5,-169.2 237.5,-191.2 321.5,-191.2 321.5,-169.2 237.5,-169.2"/>
<text text-anchor="start" x="240.5" y="-176.9" font-family="Helvetica,sans-Serif" font-size="11.00" fill="#000000">varchar[50]</text>
<polygon fill="none" stroke="#000000" points="146.5,-147.2 146.5,-169.2 237.5,-169.2 237.5,-147.2 146.5,-147.2"/>
<text text-anchor="start" x="166.5" y="-154.3" font-family="Helvetica,sans-Serif" font-size="11.00" fill="#000000">district</text>
<polygon fill="none" stroke="#000000" points="237.5,-147.2 237.5,-169.2 321.5,-169.2 321.5,-147.2 237.5,-147.2"/>
<text text-anchor="start" x="240.5" y="-154.9" font-family="Helvetica,sans-Serif" font-size="11.00" fill="#000000">varchar[20]</text>
<polygon fill="#ffffff" stroke="transparent" points="146.5,-125.2 146.5,-147.2 237.5,-147.2 237.5,-125.2 146.5,-125.2"/>
<polygon fill="none" stroke="#000000" points="146.5,-125.2 146.5,-147.2 237.5,-147.2 237.5,-125.2 146.5,-125.2"/>
<image xlink:href="../../images/foreignKeys.png" width="11px" height="12px" preserveAspectRatio="xMinYMin meet" x="151.5" y="-142.2"/>
<text text-anchor="start" x="166.5" y="-132.3" font-family="Helvetica,sans-Serif" font-size="11.00" fill="#000000">city_id</text>
<polygon fill="none" stroke="#000000" points="237.5,-125.2 237.5,-147.2 321.5,-147.2 321.5,-125.2 237.5,-125.2"/>
<text text-anchor="start" x="240.5" y="-132.9" font-family="Helvetica,sans-Serif" font-size="11.00" fill="#000000">int2[5]</text>
<polygon fill="none" stroke="#000000" points="146.5,-103.2 146.5,-125.2 237.5,-125.2 237.5,-103.2 146.5,-103.2"/>
<text text-anchor="start" x="166.5" y="-110.3" font-family="Helvetica,sans-Serif" font-size="11.00" fill="#000000">postal_code</text>
<polygon fill="none" stroke="#000000" points="237.5,-103.2 237.5,-125.2 321.5,-125.2 321.5,-103.2 237.5,-103.2"/>
<text text-anchor="start" x="240.5" y="-110.9" font-family="Helvetica,sans-Serif" font-size="11.00" fill="#000000">varchar[10]</text>
<polygon fill="none" stroke="#000000" points="146.5,-81.2 146.5,-103.2 237.5,-103.2 237.5,-81.2 146.5,-81.2"/>
<text text-anchor="start" x="166.5" y="-88.3" font-family="Helvetica,sans-Serif" font-size="11.00" fill="#000000">phone</text>
<polygon fill="none" stroke="#000000" points="237.5,-81.2 237.5,-103.2 321.5,-103.2 321.5,-81.2 237.5,-81.2"/>
<text text-anchor="start" x="240.5" y="-88.9" font-family="Helvetica,sans-Serif" font-size="11.00" fill="#000000">varchar[20]</text>
<polygon fill="none" stroke="#000000" points="146.5,-59.2 146.5,-81.2 237.5,-81.2 237.5,-59.2 146.5,-59.2"/>
<text text-anchor="start" x="166.5" y="-66.3" font-family="Helvetica,sans-Serif" font-size="11.00" fill="#000000">last_update</text>
<polygon fill="none" stroke="#000000" points="237.5,-59.2 237.5,-81.2 321.5,-81.2 321.5,-59.2 237.5,-59.2"/>
<text text-anchor="start" x="240.3807" y="-66.9" font-family="Helvetica,sans-Serif" font-size="11.00" fill="#000000">timestamp[29,6]</text>
<polygon fill="#ffffff" stroke="transparent" points="146.5,-40.2 146.5,-59.2 183.5,-59.2 183.5,-40.2 146.5,-40.2"/>
<polygon fill="none" stroke="#000000" points="146.5,-40.2 146.5,-59.2 183.5,-59.2 183.5,-40.2 146.5,-40.2"/>
<text text-anchor="start" x="149.5" y="-46.3" font-family="Helvetica,sans-Serif" font-size="11.00" fill="#000000">&lt; 1</text>
<polygon fill="#ffffff" stroke="transparent" points="183.5,-40.2 183.5,-59.2 237.5,-59.2 237.5,-40.2 183.5,-40.2"/>
<polygon fill="none" stroke="#000000" points="183.5,-40.2 183.5,-59.2 237.5,-59.2 237.5,-40.2 183.5,-40.2"/>
<text text-anchor="start" x="202.1105" y="-46.3" font-family="Helvetica,sans-Serif" font-size="11.00" fill="#000000">0 rows</text>
<polygon fill="#ffffff" stroke="transparent" points="237.5,-40.2 237.5,-59.2 321.5,-59.2 321.5,-40.2 237.5,-40.2"/>
<polygon fill="none" stroke="#000000" points="237.5,-40.2 237.5,-59.2 321.5,-59.2 321.5,-40.2 237.5,-40.2"/>
<text text-anchor="start" x="302.9053" y="-46.3" font-family="Helvetica,sans-Serif" font-size="11.00" fill="#000000">3 &gt;</text>
<polygon fill="none" stroke="#000000" stroke-width="2" points="145,-39.2 145,-259.2 322,-259.2 322,-39.2 145,-39.2"/>
</a>
</g>
</g>
<!-- city -->
<g id="node2" class="node">
<title>city</title>
<g id="a_node2"><a xlink:href="../../tables/city.html" xlink:title="city" target="_top">
<polygon fill="#ffffff" stroke="transparent" points="8,-65.7 8,-170.7 95,-170.7 95,-65.7 8,-65.7"/>
<polygon fill="#f5f5f5" stroke="transparent" points="8.5,-147.2 8.5,-170.2 95.5,-170.2 95.5,-147.2 8.5,-147.2"/>
<polygon fill="none" stroke="#000000" points="8.5,-147.2 8.5,-170.2 95.5,-170.2 95.5,-147.2 8.5,-147.2"/>
<text text-anchor="start" x="13.5" y="-156.3" font-family="Helvetica,sans-Serif" font-weight="bold" font-size="11.00" fill="#000000">city</text>
<text text-anchor="start" x="60.5437" y="-155.3" font-family="Helvetica,sans-Serif" font-size="11.00" fill="#000000">[table]</text>
<polygon fill="none" stroke="#000000" points="8.5,-125.2 8.5,-147.2 95.5,-147.2 95.5,-125.2 8.5,-125.2"/>
<image xlink:href="../../images/primaryKeys.png" width="11px" height="12px" preserveAspectRatio="xMinYMin meet" x="13.5" y="-142.2"/>
<text text-anchor="start" x="28.5" y="-132.3" font-family="Helvetica,sans-Serif" font-size="11.00" fill="#000000">city_id</text>
<polygon fill="#ffffff" stroke="transparent" points="8.5,-103.2 8.5,-125.2 95.5,-125.2 95.5,-103.2 8.5,-103.2"/>
<polygon fill="none" stroke="#000000" points="8.5,-103.2 8.5,-125.2 95.5,-125.2 95.5,-103.2 8.5,-103.2"/>
<image xlink:href="../../images/foreignKeys.png" width="11px" height="12px" preserveAspectRatio="xMinYMin meet" x="13.5" y="-120.2"/>
<text text-anchor="start" x="28.5" y="-110.3" font-family="Helvetica,sans-Serif" font-size="11.00" fill="#000000">country_id</text>
<polygon fill="none" stroke="#000000" points="8.5,-84.2 8.5,-103.2 95.5,-103.2 95.5,-84.2 8.5,-84.2"/>
<text text-anchor="start" x="11.5" y="-90.3" font-family="Helvetica,sans-Serif" font-size="11.00" fill="#000000">...</text>
<polygon fill="#ffffff" stroke="transparent" points="8.5,-65.2 8.5,-84.2 32.5,-84.2 32.5,-65.2 8.5,-65.2"/>
<polygon fill="none" stroke="#000000" points="8.5,-65.2 8.5,-84.2 32.5,-84.2 32.5,-65.2 8.5,-65.2"/>
<text text-anchor="start" x="11.5" y="-71.3" font-family="Helvetica,sans-Serif" font-size="11.00" fill="#000000">&lt; 1</text>
<polygon fill="#ffffff" stroke="transparent" points="32.5,-65.2 32.5,-84.2 72.5,-84.2 72.5,-65.2 32.5,-65.2"/>
<polygon fill="none" stroke="#000000" points="32.5,-65.2 32.5,-84.2 72.5,-84.2 72.5,-65.2 32.5,-65.2"/>
<text text-anchor="start" x="37.1105" y="-71.3" font-family="Helvetica,sans-Serif" font-size="11.00" fill="#000000">0 rows</text>
<polygon fill="#ffffff" stroke="transparent" points="72.5,-65.2 72.5,-84.2 95.5,-84.2 95.5,-65.2 72.5,-65.2"/>
<polygon fill="none" stroke="#000000" points="72.5,-65.2 72.5,-84.2 95.5,-84.2 95.5,-65.2 72.5,-65.2"/>
<text text-anchor="start" x="76.9053" y="-71.3" font-family="Helvetica,sans-Serif" font-size="11.00" fill="#000000">1 &gt;</text>
</a>
</g>
</g>
<!-- address&#45;&gt;city -->
<g id="edge1" class="edge">
<title>address:w&#45;&gt;city:e</title>
<path fill="none" stroke="#000000" d="M131.776,-136.2C119.7815,-136.2 112.3229,-136.2 95.5,-136.2"/>
<polygon fill="#000000" stroke="#000000" points="138.5,-136.2001 146.5,-139.8 142.5,-136.2 146.5,-136.2 146.5,-136.2 146.5,-136.2 142.5,-136.2 146.5,-132.6 138.5,-136.2001 138.5,-136.2001"/>
<ellipse fill="none" stroke="#000000" cx="135.3" cy="-136.2001" rx="3.2" ry="3.2"/>
</g>
<!-- customer -->
<g id="node3" class="node">
<title>customer</title>
<g id="a_node3"><a xlink:href="../../tables/customer.html" xlink:title="customer" target="_top">
<polygon fill="#ffffff" stroke="transparent" points="677,-176.7 677,-325.7 769,-325.7 769,-176.7 677,-176.7"/>
<polygon fill="#f5f5f5" stroke="transparent" points="677,-302.2 677,-325.2 769,-325.2 769,-302.2 677,-302.2"/>
<polygon fill="none" stroke="#000000" points="677,-302.2 677,-325.2 769,-325.2 769,-302.2 677,-302.2"/>
<text text-anchor="start" x="682" y="-311.3" font-family="Helvetica,sans-Serif" font-weight="bold" font-size="11.00" fill="#000000">customer</text>
<text text-anchor="start" x="734.0437" y="-310.3" font-family="Helvetica,sans-Serif" font-size="11.00" fill="#000000">[table]</text>
<polygon fill="none" stroke="#000000" points="677,-280.2 677,-302.2 769,-302.2 769,-280.2 677,-280.2"/>
<image xlink:href="../../images/primaryKeys.png" width="11px" height="12px" preserveAspectRatio="xMinYMin meet" x="682" y="-297.2"/>
<text text-anchor="start" x="697" y="-287.3" font-family="Helvetica,sans-Serif" font-size="11.00" fill="#000000">customer_id</text>
<polygon fill="#ffffff" stroke="transparent" points="677,-258.2 677,-280.2 769,-280.2 769,-258.2 677,-258.2"/>
<polygon fill="none" stroke="#000000" points="677,-258.2 677,-280.2 769,-280.2 769,-258.2 677,-258.2"/>
<image xlink:href="../../images/foreignKeys.png" width="11px" height="12px" preserveAspectRatio="xMinYMin meet" x="682" y="-275.2"/>
<text text-anchor="start" x="697" y="-265.3" font-family="Helvetica,sans-Serif" font-size="11.00" fill="#000000">store_id</text>
<polygon fill="#ffffff" stroke="transparent" points="677,-236.2 677,-258.2 769,-258.2 769,-236.2 677,-236.2"/>
<polygon fill="none" stroke="#000000" points="677,-236.2 677,-258.2 769,-258.2 769,-236.2 677,-236.2"/>
<text text-anchor="start" x="697" y="-243.3" font-family="Helvetica,sans-Serif" font-size="11.00" fill="#000000">last_name</text>
<polygon fill="#ffffff" stroke="transparent" points="677,-214.2 677,-236.2 769,-236.2 769,-214.2 677,-214.2"/>
<polygon fill="none" stroke="#000000" points="677,-214.2 677,-236.2 769,-236.2 769,-214.2 677,-214.2"/>
<image xlink:href="../../images/foreignKeys.png" width="11px" height="12px" preserveAspectRatio="xMinYMin meet" x="682" y="-231.2"/>
<text text-anchor="start" x="697" y="-221.3" font-family="Helvetica,sans-Serif" font-size="11.00" fill="#000000">address_id</text>
<polygon fill="none" stroke="#000000" points="677,-195.2 677,-214.2 769,-214.2 769,-195.2 677,-195.2"/>
<text text-anchor="start" x="680" y="-201.3" font-family="Helvetica,sans-Serif" font-size="11.00" fill="#000000">...</text>
<polygon fill="#ffffff" stroke="transparent" points="677,-176.2 677,-195.2 704,-195.2 704,-176.2 677,-176.2"/>
<polygon fill="none" stroke="#000000" points="677,-176.2 677,-195.2 704,-195.2 704,-176.2 677,-176.2"/>
<text text-anchor="start" x="680" y="-182.3" font-family="Helvetica,sans-Serif" font-size="11.00" fill="#000000">&lt; 2</text>
<polygon fill="#ffffff" stroke="transparent" points="704,-176.2 704,-195.2 745,-195.2 745,-176.2 704,-176.2"/>
<polygon fill="none" stroke="#000000" points="704,-176.2 704,-195.2 745,-195.2 745,-176.2 704,-176.2"/>
<text text-anchor="start" x="709.6105" y="-182.3" font-family="Helvetica,sans-Serif" font-size="11.00" fill="#000000">0 rows</text>
<polygon fill="#ffffff" stroke="transparent" points="745,-176.2 745,-195.2 769,-195.2 769,-176.2 745,-176.2"/>
<polygon fill="none" stroke="#000000" points="745,-176.2 745,-195.2 769,-195.2 769,-176.2 745,-176.2"/>
<text text-anchor="start" x="750.4053" y="-182.3" font-family="Helvetica,sans-Serif" font-size="11.00" fill="#000000">8 &gt;</text>
</a>
</g>
</g>
<!-- customer&#45;&gt;address -->
<g id="edge2" class="edge">
<title>customer:w&#45;&gt;address:e</title>
<path fill="none" stroke="#000000" d="M662.928,-221.4715C654.419,-216.181 650.1019,-206.7444 636,-203.2 577.3789,-188.4659 560.3409,-199.6627 500,-203.2 480.0641,-204.3687 341.4701,-224.2 321.5,-224.2"/>
<polygon fill="#000000" stroke="#000000" points="669.2668,-223.151 676.078,-228.6799 673.1334,-224.1755 677,-225.2 677,-225.2 677,-225.2 673.1334,-224.1755 677.922,-221.7201 669.2668,-223.151 669.2668,-223.151"/>
<ellipse fill="none" stroke="#000000" cx="666.1736" cy="-222.3314" rx="3.2" ry="3.2"/>
</g>
<!-- store -->
<g id="node4" class="node">
<title>store</title>
<g id="a_node4"><a xlink:href="../../tables/store.html" xlink:title="store" target="_top">
<polygon fill="#ffffff" stroke="transparent" points="508,-213.7 508,-340.7 628,-340.7 628,-213.7 508,-213.7"/>
<polygon fill="#f5f5f5" stroke="transparent" points="508,-317.2 508,-340.2 628,-340.2 628,-317.2 508,-317.2"/>
<polygon fill="none" stroke="#000000" points="508,-317.2 508,-340.2 628,-340.2 628,-317.2 508,-317.2"/>
<text text-anchor="start" x="513" y="-326.3" font-family="Helvetica,sans-Serif" font-weight="bold" font-size="11.00" fill="#000000">store</text>
<text text-anchor="start" x="593.0437" y="-325.3" font-family="Helvetica,sans-Serif" font-size="11.00" fill="#000000">[table]</text>
<polygon fill="none" stroke="#000000" points="508,-295.2 508,-317.2 628,-317.2 628,-295.2 508,-295.2"/>
<image xlink:href="../../images/primaryKeys.png" width="11px" height="12px" preserveAspectRatio="xMinYMin meet" x="513" y="-312.2"/>
<text text-anchor="start" x="528" y="-302.3" font-family="Helvetica,sans-Serif" font-size="11.00" fill="#000000">store_id</text>
<polygon fill="#ffffff" stroke="transparent" points="508,-273.2 508,-295.2 628,-295.2 628,-273.2 508,-273.2"/>
<polygon fill="none" stroke="#000000" points="508,-273.2 508,-295.2 628,-295.2 628,-273.2 508,-273.2"/>
<image xlink:href="../../images/foreignKeys.png" width="11px" height="12px" preserveAspectRatio="xMinYMin meet" x="513" y="-290.2"/>
<text text-anchor="start" x="528" y="-280.3" font-family="Helvetica,sans-Serif" font-size="11.00" fill="#000000">manager_staff_id</text>
<polygon fill="none" stroke="#000000" points="508,-251.2 508,-273.2 628,-273.2 628,-251.2 508,-251.2"/>
<image xlink:href="../../images/foreignKeys.png" width="11px" height="12px" preserveAspectRatio="xMinYMin meet" x="513" y="-268.2"/>
<text text-anchor="start" x="528" y="-258.3" font-family="Helvetica,sans-Serif" font-size="11.00" fill="#000000">address_id</text>
<polygon fill="none" stroke="#000000" points="508,-232.2 508,-251.2 628,-251.2 628,-232.2 508,-232.2"/>
<text text-anchor="start" x="511" y="-238.3" font-family="Helvetica,sans-Serif" font-size="11.00" fill="#000000">...</text>
<polygon fill="#ffffff" stroke="transparent" points="508,-213.2 508,-232.2 549,-232.2 549,-213.2 508,-213.2"/>
<polygon fill="none" stroke="#000000" points="508,-213.2 508,-232.2 549,-232.2 549,-213.2 508,-213.2"/>
<text text-anchor="start" x="511" y="-219.3" font-family="Helvetica,sans-Serif" font-size="11.00" fill="#000000">&lt; 2</text>
<polygon fill="#ffffff" stroke="transparent" points="549,-213.2 549,-232.2 597,-232.2 597,-213.2 549,-213.2"/>
<polygon fill="none" stroke="#000000" points="549,-213.2 549,-232.2 597,-232.2 597,-213.2 549,-213.2"/>
<text text-anchor="start" x="561.6105" y="-219.3" font-family="Helvetica,sans-Serif" font-size="11.00" fill="#000000">0 rows</text>
<polygon fill="#ffffff" stroke="transparent" points="597,-213.2 597,-232.2 628,-232.2 628,-213.2 597,-213.2"/>
<polygon fill="none" stroke="#000000" points="597,-213.2 597,-232.2 628,-232.2 628,-213.2 597,-213.2"/>
<text text-anchor="start" x="609.4053" y="-219.3" font-family="Helvetica,sans-Serif" font-size="11.00" fill="#000000">3 &gt;</text>
</a>
</g>
</g>
<!-- customer&#45;&gt;store -->
<g id="edge3" class="edge">
<title>customer:w&#45;&gt;store:e</title>
<path fill="none" stroke="#000000" d="M663.1217,-273.7369C650.5786,-283.617 649.3196,-306.2 628,-306.2"/>
<polygon fill="#000000" stroke="#000000" points="669.396,-271.6858 678.1186,-272.6218 673.198,-270.4429 677,-269.2 677,-269.2 677,-269.2 673.198,-270.4429 675.8814,-265.7782 669.396,-271.6858 669.396,-271.6858"/>
<ellipse fill="none" stroke="#000000" cx="666.3544" cy="-272.6802" rx="3.2" ry="3.2"/>
</g>
<!-- store&#45;&gt;address -->
<g id="edge6" class="edge">
<title>store:w&#45;&gt;address:e</title>
<path fill="none" stroke="#000000" d="M494.0287,-258.501C485.308,-253.0005 481.283,-242.8187 467,-238.2 405.1862,-218.2113 386.4653,-224.2 321.5,-224.2"/>
<polygon fill="#000000" stroke="#000000" points="500.2665,-260.1525 507.0786,-265.6801 504.1332,-261.1762 508,-262.2 508,-262.2 508,-262.2 504.1332,-261.1762 508.9214,-258.7199 500.2665,-260.1525 500.2665,-260.1525"/>
<ellipse fill="none" stroke="#000000" cx="497.173" cy="-259.3334" rx="3.2" ry="3.2"/>
</g>
<!-- staff -->
<g id="node5" class="node">
<title>staff</title>
<g id="a_node5"><a xlink:href="../../tables/staff.html" xlink:title="staff" target="_top">
<polygon fill="#ffffff" stroke="transparent" points="372,-248.7 372,-375.7 459,-375.7 459,-248.7 372,-248.7"/>
<polygon fill="#f5f5f5" stroke="transparent" points="372.5,-352.2 372.5,-375.2 459.5,-375.2 459.5,-352.2 372.5,-352.2"/>
<polygon fill="none" stroke="#000000" points="372.5,-352.2 372.5,-375.2 459.5,-375.2 459.5,-352.2 372.5,-352.2"/>
<text text-anchor="start" x="377.5" y="-361.3" font-family="Helvetica,sans-Serif" font-weight="bold" font-size="11.00" fill="#000000">staff</text>
<text text-anchor="start" x="424.5437" y="-360.3" font-family="Helvetica,sans-Serif" font-size="11.00" fill="#000000">[table]</text>
<polygon fill="none" stroke="#000000" points="372.5,-330.2 372.5,-352.2 459.5,-352.2 459.5,-330.2 372.5,-330.2"/>
<image xlink:href="../../images/primaryKeys.png" width="11px" height="12px" preserveAspectRatio="xMinYMin meet" x="377.5" y="-347.2"/>
<text text-anchor="start" x="392.5" y="-337.3" font-family="Helvetica,sans-Serif" font-size="11.00" fill="#000000">staff_id</text>
<polygon fill="none" stroke="#000000" points="372.5,-308.2 372.5,-330.2 459.5,-330.2 459.5,-308.2 372.5,-308.2"/>
<image xlink:href="../../images/foreignKeys.png" width="11px" height="12px" preserveAspectRatio="xMinYMin meet" x="377.5" y="-325.2"/>
<text text-anchor="start" x="392.5" y="-315.3" font-family="Helvetica,sans-Serif" font-size="11.00" fill="#000000">address_id</text>
<polygon fill="none" stroke="#000000" points="372.5,-286.2 372.5,-308.2 459.5,-308.2 459.5,-286.2 372.5,-286.2"/>
<image xlink:href="../../images/foreignKeys.png" width="11px" height="12px" preserveAspectRatio="xMinYMin meet" x="377.5" y="-303.2"/>
<text text-anchor="start" x="392.5" y="-293.3" font-family="Helvetica,sans-Serif" font-size="11.00" fill="#000000">store_id</text>
<polygon fill="none" stroke="#000000" points="372.5,-267.2 372.5,-286.2 459.5,-286.2 459.5,-267.2 372.5,-267.2"/>
<text text-anchor="start" x="375.5" y="-273.3" font-family="Helvetica,sans-Serif" font-size="11.00" fill="#000000">...</text>
<polygon fill="#ffffff" stroke="transparent" points="372.5,-248.2 372.5,-267.2 396.5,-267.2 396.5,-248.2 372.5,-248.2"/>
<polygon fill="none" stroke="#000000" points="372.5,-248.2 372.5,-267.2 396.5,-267.2 396.5,-248.2 372.5,-248.2"/>
<text text-anchor="start" x="375.5" y="-254.3" font-family="Helvetica,sans-Serif" font-size="11.00" fill="#000000">&lt; 2</text>
<polygon fill="#ffffff" stroke="transparent" points="396.5,-248.2 396.5,-267.2 436.5,-267.2 436.5,-248.2 396.5,-248.2"/>
<polygon fill="none" stroke="#000000" points="396.5,-248.2 396.5,-267.2 436.5,-267.2 436.5,-248.2 396.5,-248.2"/>
<text text-anchor="start" x="401.1105" y="-254.3" font-family="Helvetica,sans-Serif" font-size="11.00" fill="#000000">0 rows</text>
<polygon fill="#ffffff" stroke="transparent" points="436.5,-248.2 436.5,-267.2 459.5,-267.2 459.5,-248.2 436.5,-248.2"/>
<polygon fill="none" stroke="#000000" points="436.5,-248.2 436.5,-267.2 459.5,-267.2 459.5,-248.2 436.5,-248.2"/>
<text text-anchor="start" x="440.9053" y="-254.3" font-family="Helvetica,sans-Serif" font-size="11.00" fill="#000000">9 &gt;</text>
</a>
</g>
</g>
<!-- store&#45;&gt;staff -->
<g id="edge7" class="edge">
<title>store:w&#45;&gt;staff:e</title>
<path fill="none" stroke="#000000" d="M497.7302,-286.6492C478.4422,-297.5594 488.605,-341.2 459.5,-341.2"/>
<polygon fill="#000000" stroke="#000000" points="506.2939,-280.4947 508.1498,-288.2765 506.5934,-288.6477 504.7375,-280.8659 506.2939,-280.4947"/>
<polyline fill="none" stroke="#000000" points="508,-284.2 504.1091,-285.128 "/>
<ellipse fill="none" stroke="#000000" cx="500.9964" cy="-285.8703" rx="3.2" ry="3.2"/>
</g>
<!-- staff&#45;&gt;address -->
<g id="edge4" class="edge">
<title>staff:w&#45;&gt;address:e</title>
<path fill="none" stroke="#000000" d="M358.5154,-315.118C334.3397,-296.9344 363.4315,-224.2 321.5,-224.2"/>
<polygon fill="#000000" stroke="#000000" points="364.8205,-316.9584 371.4913,-322.6558 368.6602,-318.0792 372.5,-319.2 372.5,-319.2 372.5,-319.2 368.6602,-318.0792 373.5087,-315.7442 364.8205,-316.9584 364.8205,-316.9584"/>
<ellipse fill="none" stroke="#000000" cx="361.7487" cy="-316.0617" rx="3.2" ry="3.2"/>
</g>
<!-- staff&#45;&gt;store -->
<g id="edge5" class="edge">
<title>staff:w&#45;&gt;store:e</title>
<path fill="none" stroke="#000000" d="M385.2447,-290.1196C411.0391,-275.7894 467,-244.7 467,-244.7 504.9266,-272.1225 462.0734,-317.2775 500,-344.7 500,-344.7 628,-306.2 628,-306.2"/>
<polygon fill="#000000" stroke="#000000" points="379.4933,-293.3148 370.7517,-294.053 375.9966,-295.2574 372.5,-297.2 372.5,-297.2 372.5,-297.2 375.9966,-295.2574 374.2483,-300.347 379.4933,-293.3148 379.4933,-293.3148"/>
<ellipse fill="none" stroke="#000000" cx="382.2906" cy="-291.7608" rx="3.2" ry="3.2"/>
</g>
</g>
</svg>
