<?xml version="1.0" encoding="UTF-8" standalone="no"?>
<!DOCTYPE svg PUBLIC "-//W3C//DTD SVG 1.1//EN"
 "http://www.w3.org/Graphics/SVG/1.1/DTD/svg11.dtd">
<!-- Generated by graphviz version 2.40.1 (20161225.0304)
 -->
<!-- Title: oneDegreeRelationshipsDiagram Pages: 1 -->
<svg width="649pt" height="463pt"
 viewBox="0.00 0.00 649.00 462.70" xmlns="http://www.w3.org/2000/svg" xmlns:xlink="http://www.w3.org/1999/xlink">
<g id="graph0" class="graph" transform="scale(1 1) rotate(0) translate(4 458.7)">
<title>oneDegreeRelationshipsDiagram</title>
<polygon fill="#ffffff" stroke="transparent" points="-4,4 -4,-458.7 645,-458.7 645,4 -4,4"/>
<text text-anchor="middle" x="72.4936" y="-7.3" font-family="Helvetica,sans-Serif" font-size="11.00" fill="#000000">Generated by SchemaSpy</text>
<!-- address -->
<g id="node1" class="node">
<title>address</title>
<g id="a_node1"><a xlink:href="../../tables/address.html" xlink:title="address" target="_top">
<polygon fill="#ffffff" stroke="transparent" points="144,-38.2 144,-260.2 323,-260.2 323,-38.2 144,-38.2"/>
<polygon fill="#f5f5f5" stroke="transparent" points="146.5,-235.2 146.5,-258.2 321.5,-258.2 321.5,-235.2 146.5,-235.2"/>
<polygon fill="none" stroke="#000000" points="146.5,-235.2 146.5,-258.2 321.5,-258.2 321.5,-235.2 146.5,-235.2"/>
<text text-anchor="start" x="151.5" y="-244.3" font-family="Helvetica,sans-Serif" font-weight="bold" font-size="11.00" fill="#000000">address</text>
<text text-anchor="start" x="286.5437" y="-243.3" font-family="Helvetica,sans-Serif" font-size="11.00" fill="#000000">[table]</text>
<polygon fill="none" stroke="#000000" points="146.5,-213.2 146.5,-235.2 237.5,-235.2 237.5,-213.2 146.5,-213.2"/>
<image xlink:href="../../images/primaryKeys.png" width="11px" height="12px" preserveAspectRatio="xMinYMin meet" x="151.5" y="-230.2"/>
<text text-anchor="start" x="166.5" y="-220.3" font-family="Helvetica,sans-Serif" font-size="11.00" fill="#000000">address_id</text>
<polygon fill="none" stroke="#000000" points="237.5,-213.2 237.5,-235.2 321.5,-235.2 321.5,-213.2 237.5,-213.2"/>
<text text-anchor="start" x="240.5" y="-220.9" font-family="Helvetica,sans-Serif" font-size="11.00" fill="#000000">serial[10]</text>
<polygon fill="none" stroke="#000000" points="146.5,-191.2 146.5,-213.2 237.5,-213.2 237.5,-191.2 146.5,-191.2"/>
<text text-anchor="start" x="166.5" y="-198.3" font-family="Helvetica,sans-Serif" font-size="11.00" fill="#000000">address</text>
<polygon fill="none" stroke="#000000" points="237.5,-191.2 237.5,-213.2 321.5,-213.2 321.5,-191.2 237.5,-191.2"/>
<text text-anchor="start" x="240.5" y="-198.9" font-family="Helvetica,sans-Serif" font-size="11.00" fill="#000000">varchar[50]</text>
<polygon fill="none" stroke="#000000" points="146.5,-169.2 146.5,-191.2 237.5,-191.2 237.5,-169.2 146.5,-169.2"/>
<text text-anchor="start" x="166.5" y="-176.3" font-family="Helvetica,sans-Serif" font-size="11.00" fill="#000000">address2</text>
<polygon fill="none" stroke="#000000" points="237.5,-169.2 237.5,-191.2 321.5,-191.2 321.5,-169.2 237.5,-169.2"/>
<text text-anchor="start" x="240.5" y="-176.9" font-family="Helvetica,sans-Serif" font-size="11.00" fill="#000000">varchar[50]</text>
<polygon fill="none" stroke="#000000" points="146.5,-147.2 146.5,-169.2 237.5,-169.2 237.5,-147.2 146.5,-147.2"/>
<text text-anchor="start" x="166.5" y="-154.3" font-family="Helvetica,sans-Serif" font-size="11.00" fill="#000000">district</text>
<polygon fill="none" stroke="#000000" points="237.5,-147.2 237.5,-169.2 321.5,-169.2 321.5,-147.2 237.5,-147.2"/>
<text text-anchor="start" x="240.5" y="-154.9" font-family="Helvetica,sans-Serif" font-size="11.00" fill="#000000">varchar[20]</text>
<polygon fill="#ffffff" stroke="transparent" points="146.5,-125.2 146.5,-147.2 237.5,-147.2 237.5,-125.2 146.5,-125.2"/>
<polygon fill="none" stroke="#000000" points="146.5,-125.2 146.5,-147.2 237.5,-147.2 237.5,-125.2 146.5,-125.2"/>
<image xlink:href="../../images/foreignKeys.png" width="11px" height="12px" preserveAspectRatio="xMinYMin meet" x="151.5" y="-142.2"/>
<text text-anchor="start" x="166.5" y="-132.3" font-family="Helvetica,sans-Serif" font-size="11.00" fill="#000000">city_id</text>
<polygon fill="none" stroke="#000000" points="237.5,-125.2 237.5,-147.2 321.5,-147.2 321.5,-125.2 237.5,-125.2"/>
<text text-anchor="start" x="240.5" y="-132.9" font-family="Helvetica,sans-Serif" font-size="11.00" fill="#000000">int2[5]</text>
<polygon fill="none" stroke="#000000" points="146.5,-103.2 146.5,-125.2 237.5,-125.2 237.5,-103.2 146.5,-103.2"/>
<text text-anchor="start" x="166.5" y="-110.3" font-family="Helvetica,sans-Serif" font-size="11.00" fill="#000000">postal_code</text>
<polygon fill="none" stroke="#000000" points="237.5,-103.2 237.5,-125.2 321.5,-125.2 321.5,-103.2 237.5,-103.2"/>
<text text-anchor="start" x="240.5" y="-110.9" font-family="Helvetica,sans-Serif" font-size="11.00" fill="#000000">varchar[10]</text>
<polygon fill="none" stroke="#000000" points="146.5,-81.2 146.5,-103.2 237.5,-103.2 237.5,-81.2 146.5,-81.2"/>
<text text-anchor="start" x="166.5" y="-88.3" font-family="Helvetica,sans-Serif" font-size="11.00" fill="#000000">phone</text>
<polygon fill="none" stroke="#000000" points="237.5,-81.2 237.5,-103.2 321.5,-103.2 321.5,-81.2 237.5,-81.2"/>
<text text-anchor="start" x="240.5" y="-88.9" font-family="Helvetica,sans-Serif" font-size="11.00" fill="#000000">varchar[20]</text>
<polygon fill="none" stroke="#000000" points="146.5,-59.2 146.5,-81.2 237.5,-81.2 237.5,-59.2 146.5,-59.2"/>
<text text-anchor="start" x="166.5" y="-66.3" font-family="Helvetica,sans-Serif" font-size="11.00" fill="#000000">last_update</text>
<polygon fill="none" stroke="#000000" points="237.5,-59.2 237.5,-81.2 321.5,-81.2 321.5,-59.2 237.5,-59.2"/>
<text text-anchor="start" x="240.3807" y="-66.9" font-family="Helvetica,sans-Serif" font-size="11.00" fill="#000000">timestamp[29,6]</text>
<polygon fill="#ffffff" stroke="transparent" points="146.5,-40.2 146.5,-59.2 183.5,-59.2 183.5,-40.2 146.5,-40.2"/>
<polygon fill="none" stroke="#000000" points="146.5,-40.2 146.5,-59.2 183.5,-59.2 183.5,-40.2 146.5,-40.2"/>
<text text-anchor="start" x="149.5" y="-46.3" font-family="Helvetica,sans-Serif" font-size="11.00" fill="#000000">&lt; 1</text>
<polygon fill="#ffffff" stroke="transparent" points="183.5,-40.2 183.5,-59.2 237.5,-59.2 237.5,-40.2 183.5,-40.2"/>
<polygon fill="none" stroke="#000000" points="183.5,-40.2 183.5,-59.2 237.5,-59.2 237.5,-40.2 183.5,-40.2"/>
<text text-anchor="start" x="202.1105" y="-46.3" font-family="Helvetica,sans-Serif" font-size="11.00" fill="#000000">0 rows</text>
<polygon fill="#ffffff" stroke="transparent" points="237.5,-40.2 237.5,-59.2 321.5,-59.2 321.5,-40.2 237.5,-40.2"/>
<polygon fill="none" stroke="#000000" points="237.5,-40.2 237.5,-59.2 321.5,-59.2 321.5,-40.2 237.5,-40.2"/>
<text text-anchor="start" x="302.9053" y="-46.3" font-family="Helvetica,sans-Serif" font-size="11.00" fill="#000000">3 &gt;</text>
<polygon fill="none" stroke="#000000" stroke-width="2" points="145,-39.2 145,-259.2 322,-259.2 322,-39.2 145,-39.2"/>
</a>
</g>
</g>
<!-- city -->
<g id="node2" class="node">
<title>city</title>
<g id="a_node2"><a xlink:href="../../tables/city.html" xlink:title="city" target="_top">
<polygon fill="#ffffff" stroke="transparent" points="8,-65.7 8,-170.7 95,-170.7 95,-65.7 8,-65.7"/>
<polygon fill="#f5f5f5" stroke="transparent" points="8.5,-147.2 8.5,-170.2 95.5,-170.2 95.5,-147.2 8.5,-147.2"/>
<polygon fill="none" stroke="#000000" points="8.5,-147.2 8.5,-170.2 95.5,-170.2 95.5,-147.2 8.5,-147.2"/>
<text text-anchor="start" x="13.5" y="-156.3" font-family="Helvetica,sans-Serif" font-weight="bold" font-size="11.00" fill="#000000">city</text>
<text text-anchor="start" x="60.5437" y="-155.3" font-family="Helvetica,sans-Serif" font-size="11.00" fill="#000000">[table]</text>
<polygon fill="none" stroke="#000000" points="8.5,-125.2 8.5,-147.2 95.5,-147.2 95.5,-125.2 8.5,-125.2"/>
<image xlink:href="../../images/primaryKeys.png" width="11px" height="12px" preserveAspectRatio="xMinYMin meet" x="13.5" y="-142.2"/>
<text text-anchor="start" x="28.5" y="-132.3" font-family="Helvetica,sans-Serif" font-size="11.00" fill="#000000">city_id</text>
<polygon fill="#ffffff" stroke="transparent" points="8.5,-103.2 8.5,-125.2 95.5,-125.2 95.5,-103.2 8.5,-103.2"/>
<polygon fill="none" stroke="#000000" points="8.5,-103.2 8.5,-125.2 95.5,-125.2 95.5,-103.2 8.5,-103.2"/>
<image xlink:href="../../images/foreignKeys.png" width="11px" height="12px" preserveAspectRatio="xMinYMin meet" x="13.5" y="-120.2"/>
<text text-anchor="start" x="28.5" y="-110.3" font-family="Helvetica,sans-Serif" font-size="11.00" fill="#000000">country_id</text>
<polygon fill="none" stroke="#000000" points="8.5,-84.2 8.5,-103.2 95.5,-103.2 95.5,-84.2 8.5,-84.2"/>
<text text-anchor="start" x="11.5" y="-90.3" font-family="Helvetica,sans-Serif" font-size="11.00" fill="#000000">...</text>
<polygon fill="#ffffff" stroke="transparent" points="8.5,-65.2 8.5,-84.2 32.5,-84.2 32.5,-65.2 8.5,-65.2"/>
<polygon fill="none" stroke="#000000" points="8.5,-65.2 8.5,-84.2 32.5,-84.2 32.5,-65.2 8.5,-65.2"/>
<text text-anchor="start" x="11.5" y="-71.3" font-family="Helvetica,sans-Serif" font-size="11.00" fill="#000000">&lt; 1</text>
<polygon fill="#ffffff" stroke="transparent" points="32.5,-65.2 32.5,-84.2 72.5,-84.2 72.5,-65.2 32.5,-65.2"/>
<polygon fill="none" stroke="#000000" points="32.5,-65.2 32.5,-84.2 72.5,-84.2 72.5,-65.2 32.5,-65.2"/>
<text text-anchor="start" x="37.1105" y="-71.3" font-family="Helvetica,sans-Serif" font-size="11.00" fill="#000000">0 rows</text>
<polygon fill="#ffffff" stroke="transparent" points="72.5,-65.2 72.5,-84.2 95.5,-84.2 95.5,-65.2 72.5,-65.2"/>
<polygon fill="none" stroke="#000000" points="72.5,-65.2 72.5,-84.2 95.5,-84.2 95.5,-65.2 72.5,-65.2"/>
<text text-anchor="start" x="76.9053" y="-71.3" font-family="Helvetica,sans-Serif" font-size="11.00" fill="#000000">1 &gt;</text>
</a>
</g>
</g>
<!-- address&#45;&gt;city -->
<g id="edge1" class="edge">
<title>address:w&#45;&gt;city:e</title>
<path fill="none" stroke="#000000" d="M131.776,-136.2C119.7815,-136.2 112.3229,-136.2 95.5,-136.2"/>
<polygon fill="#000000" stroke="#000000" points="138.5,-136.2001 146.5,-139.8 142.5,-136.2 146.5,-136.2 146.5,-136.2 146.5,-136.2 142.5,-136.2 146.5,-132.6 138.5,-136.2001 138.5,-136.2001"/>
<ellipse fill="none" stroke="#000000" cx="135.3" cy="-136.2001" rx="3.2" ry="3.2"/>
</g>
<!-- customer -->
<g id="node3" class="node">
<title>customer</title>
<g id="a_node3"><a xlink:href="../../tables/customer.html" xlink:title="customer" target="_top">
<polygon fill="#ffffff" stroke="transparent" points="372,-301.7 372,-450.7 464,-450.7 464,-301.7 372,-301.7"/>
<polygon fill="#f5f5f5" stroke="transparent" points="372,-427.2 372,-450.2 464,-450.2 464,-427.2 372,-427.2"/>
<polygon fill="none" stroke="#000000" points="372,-427.2 372,-450.2 464,-450.2 464,-427.2 372,-427.2"/>
<text text-anchor="start" x="377" y="-436.3" font-family="Helvetica,sans-Serif" font-weight="bold" font-size="11.00" fill="#000000">customer</text>
<text text-anchor="start" x="429.0437" y="-435.3" font-family="Helvetica,sans-Serif" font-size="11.00" fill="#000000">[table]</text>
<polygon fill="none" stroke="#000000" points="372,-405.2 372,-427.2 464,-427.2 464,-405.2 372,-405.2"/>
<image xlink:href="../../images/primaryKeys.png" width="11px" height="12px" preserveAspectRatio="xMinYMin meet" x="377" y="-422.2"/>
<text text-anchor="start" x="392" y="-412.3" font-family="Helvetica,sans-Serif" font-size="11.00" fill="#000000">customer_id</text>
<polygon fill="#ffffff" stroke="transparent" points="372,-383.2 372,-405.2 464,-405.2 464,-383.2 372,-383.2"/>
<polygon fill="none" stroke="#000000" points="372,-383.2 372,-405.2 464,-405.2 464,-383.2 372,-383.2"/>
<text text-anchor="start" x="392" y="-390.3" font-family="Helvetica,sans-Serif" font-size="11.00" fill="#000000">store_id</text>
<polygon fill="#ffffff" stroke="transparent" points="372,-361.2 372,-383.2 464,-383.2 464,-361.2 372,-361.2"/>
<polygon fill="none" stroke="#000000" points="372,-361.2 372,-383.2 464,-383.2 464,-361.2 372,-361.2"/>
<text text-anchor="start" x="392" y="-368.3" font-family="Helvetica,sans-Serif" font-size="11.00" fill="#000000">last_name</text>
<polygon fill="#ffffff" stroke="transparent" points="372,-339.2 372,-361.2 464,-361.2 464,-339.2 372,-339.2"/>
<polygon fill="none" stroke="#000000" points="372,-339.2 372,-361.2 464,-361.2 464,-339.2 372,-339.2"/>
<image xlink:href="../../images/foreignKeys.png" width="11px" height="12px" preserveAspectRatio="xMinYMin meet" x="377" y="-356.2"/>
<text text-anchor="start" x="392" y="-346.3" font-family="Helvetica,sans-Serif" font-size="11.00" fill="#000000">address_id</text>
<polygon fill="none" stroke="#000000" points="372,-320.2 372,-339.2 464,-339.2 464,-320.2 372,-320.2"/>
<text text-anchor="start" x="375" y="-326.3" font-family="Helvetica,sans-Serif" font-size="11.00" fill="#000000">...</text>
<polygon fill="#ffffff" stroke="transparent" points="372,-301.2 372,-320.2 399,-320.2 399,-301.2 372,-301.2"/>
<polygon fill="none" stroke="#000000" points="372,-301.2 372,-320.2 399,-320.2 399,-301.2 372,-301.2"/>
<text text-anchor="start" x="375" y="-307.3" font-family="Helvetica,sans-Serif" font-size="11.00" fill="#000000">&lt; 1</text>
<polygon fill="#ffffff" stroke="transparent" points="399,-301.2 399,-320.2 440,-320.2 440,-301.2 399,-301.2"/>
<polygon fill="none" stroke="#000000" points="399,-301.2 399,-320.2 440,-320.2 440,-301.2 399,-301.2"/>
<text text-anchor="start" x="404.6105" y="-307.3" font-family="Helvetica,sans-Serif" font-size="11.00" fill="#000000">0 rows</text>
<polygon fill="#ffffff" stroke="transparent" points="440,-301.2 440,-320.2 464,-320.2 464,-301.2 440,-301.2"/>
<polygon fill="none" stroke="#000000" points="440,-301.2 440,-320.2 464,-320.2 464,-301.2 440,-301.2"/>
<text text-anchor="start" x="445.4053" y="-307.3" font-family="Helvetica,sans-Serif" font-size="11.00" fill="#000000">2 &gt;</text>
</a>
</g>
</g>
<!-- customer&#45;&gt;address -->
<g id="edge2" class="edge">
<title>customer:w&#45;&gt;address:e</title>
<path fill="none" stroke="#000000" d="M357.8154,-346.8298C324.1284,-326.7923 375.9387,-224.2 321.5,-224.2"/>
<polygon fill="#000000" stroke="#000000" points="364.2167,-348.3507 371.1678,-353.7025 368.1083,-349.2753 372,-350.2 372,-350.2 372,-350.2 368.1083,-349.2753 372.8322,-346.6975 364.2167,-348.3507 364.2167,-348.3507"/>
<ellipse fill="none" stroke="#000000" cx="361.1033" cy="-347.6109" rx="3.2" ry="3.2"/>
</g>
<!-- staff -->
<g id="node4" class="node">
<title>staff</title>
<g id="a_node4"><a xlink:href="../../tables/staff.html" xlink:title="staff" target="_top">
<polygon fill="#ffffff" stroke="transparent" points="374.5,-175.7 374.5,-280.7 461.5,-280.7 461.5,-175.7 374.5,-175.7"/>
<polygon fill="#f5f5f5" stroke="transparent" points="375,-257.2 375,-280.2 462,-280.2 462,-257.2 375,-257.2"/>
<polygon fill="none" stroke="#000000" points="375,-257.2 375,-280.2 462,-280.2 462,-257.2 375,-257.2"/>
<text text-anchor="start" x="380" y="-266.3" font-family="Helvetica,sans-Serif" font-weight="bold" font-size="11.00" fill="#000000">staff</text>
<text text-anchor="start" x="427.0437" y="-265.3" font-family="Helvetica,sans-Serif" font-size="11.00" fill="#000000">[table]</text>
<polygon fill="none" stroke="#000000" points="375,-235.2 375,-257.2 462,-257.2 462,-235.2 375,-235.2"/>
<image xlink:href="../../images/primaryKeys.png" width="11px" height="12px" preserveAspectRatio="xMinYMin meet" x="380" y="-252.2"/>
<text text-anchor="start" x="395" y="-242.3" font-family="Helvetica,sans-Serif" font-size="11.00" fill="#000000">staff_id</text>
<polygon fill="none" stroke="#000000" points="375,-213.2 375,-235.2 462,-235.2 462,-213.2 375,-213.2"/>
<image xlink:href="../../images/foreignKeys.png" width="11px" height="12px" preserveAspectRatio="xMinYMin meet" x="380" y="-230.2"/>
<text text-anchor="start" x="395" y="-220.3" font-family="Helvetica,sans-Serif" font-size="11.00" fill="#000000">address_id</text>
<polygon fill="none" stroke="#000000" points="375,-194.2 375,-213.2 462,-213.2 462,-194.2 375,-194.2"/>
<text text-anchor="start" x="378" y="-200.3" font-family="Helvetica,sans-Serif" font-size="11.00" fill="#000000">...</text>
<polygon fill="#ffffff" stroke="transparent" points="375,-175.2 375,-194.2 399,-194.2 399,-175.2 375,-175.2"/>
<polygon fill="none" stroke="#000000" points="375,-175.2 375,-194.2 399,-194.2 399,-175.2 375,-175.2"/>
<text text-anchor="start" x="378" y="-181.3" font-family="Helvetica,sans-Serif" font-size="11.00" fill="#000000">&lt; 1</text>
<polygon fill="#ffffff" stroke="transparent" points="399,-175.2 399,-194.2 439,-194.2 439,-175.2 399,-175.2"/>
<polygon fill="none" stroke="#000000" points="399,-175.2 399,-194.2 439,-194.2 439,-175.2 399,-175.2"/>
<text text-anchor="start" x="403.6105" y="-181.3" font-family="Helvetica,sans-Serif" font-size="11.00" fill="#000000">0 rows</text>
<polygon fill="#ffffff" stroke="transparent" points="439,-175.2 439,-194.2 462,-194.2 462,-175.2 439,-175.2"/>
<polygon fill="none" stroke="#000000" points="439,-175.2 439,-194.2 462,-194.2 462,-175.2 439,-175.2"/>
<text text-anchor="start" x="443.4053" y="-181.3" font-family="Helvetica,sans-Serif" font-size="11.00" fill="#000000">3 &gt;</text>
</a>
</g>
</g>
<!-- staff&#45;&gt;address -->
<g id="edge3" class="edge">
<title>staff:w&#45;&gt;address:e</title>
<path fill="none" stroke="#000000" d="M360.3553,-224.2C347.2969,-224.2 339.5191,-224.2 321.5,-224.2"/>
<polygon fill="#000000" stroke="#000000" points="367,-224.2001 375,-227.8 371,-224.2 375,-224.2 375,-224.2 375,-224.2 371,-224.2 375,-220.6 367,-224.2001 367,-224.2001"/>
<ellipse fill="none" stroke="#000000" cx="363.8" cy="-224.2001" rx="3.2" ry="3.2"/>
</g>
<!-- store -->
<g id="node5" class="node">
<title>store</title>
<g id="a_node5"><a xlink:href="../../tables/store.html" xlink:title="store" target="_top">
<polygon fill="#ffffff" stroke="transparent" points="513,-138.7 513,-265.7 633,-265.7 633,-138.7 513,-138.7"/>
<polygon fill="#f5f5f5" stroke="transparent" points="513,-242.2 513,-265.2 633,-265.2 633,-242.2 513,-242.2"/>
<polygon fill="none" stroke="#000000" points="513,-242.2 513,-265.2 633,-265.2 633,-242.2 513,-242.2"/>
<text text-anchor="start" x="518" y="-251.3" font-family="Helvetica,sans-Serif" font-weight="bold" font-size="11.00" fill="#000000">store</text>
<text text-anchor="start" x="598.0437" y="-250.3" font-family="Helvetica,sans-Serif" font-size="11.00" fill="#000000">[table]</text>
<polygon fill="none" stroke="#000000" points="513,-220.2 513,-242.2 633,-242.2 633,-220.2 513,-220.2"/>
<image xlink:href="../../images/primaryKeys.png" width="11px" height="12px" preserveAspectRatio="xMinYMin meet" x="518" y="-237.2"/>
<text text-anchor="start" x="533" y="-227.3" font-family="Helvetica,sans-Serif" font-size="11.00" fill="#000000">store_id</text>
<polygon fill="#ffffff" stroke="transparent" points="513,-198.2 513,-220.2 633,-220.2 633,-198.2 513,-198.2"/>
<polygon fill="none" stroke="#000000" points="513,-198.2 513,-220.2 633,-220.2 633,-198.2 513,-198.2"/>
<image xlink:href="../../images/foreignKeys.png" width="11px" height="12px" preserveAspectRatio="xMinYMin meet" x="518" y="-215.2"/>
<text text-anchor="start" x="533" y="-205.3" font-family="Helvetica,sans-Serif" font-size="11.00" fill="#000000">manager_staff_id</text>
<polygon fill="none" stroke="#000000" points="513,-176.2 513,-198.2 633,-198.2 633,-176.2 513,-176.2"/>
<image xlink:href="../../images/foreignKeys.png" width="11px" height="12px" preserveAspectRatio="xMinYMin meet" x="518" y="-193.2"/>
<text text-anchor="start" x="533" y="-183.3" font-family="Helvetica,sans-Serif" font-size="11.00" fill="#000000">address_id</text>
<polygon fill="none" stroke="#000000" points="513,-157.2 513,-176.2 633,-176.2 633,-157.2 513,-157.2"/>
<text text-anchor="start" x="516" y="-163.3" font-family="Helvetica,sans-Serif" font-size="11.00" fill="#000000">...</text>
<polygon fill="#ffffff" stroke="transparent" points="513,-138.2 513,-157.2 558,-157.2 558,-138.2 513,-138.2"/>
<polygon fill="none" stroke="#000000" points="513,-138.2 513,-157.2 558,-157.2 558,-138.2 513,-138.2"/>
<text text-anchor="start" x="516" y="-144.3" font-family="Helvetica,sans-Serif" font-size="11.00" fill="#000000">&lt; 2</text>
<polygon fill="#ffffff" stroke="transparent" points="558,-138.2 558,-157.2 608,-157.2 608,-138.2 558,-138.2"/>
<polygon fill="none" stroke="#000000" points="558,-138.2 558,-157.2 608,-157.2 608,-138.2 558,-138.2"/>
<text text-anchor="start" x="572.6105" y="-144.3" font-family="Helvetica,sans-Serif" font-size="11.00" fill="#000000">0 rows</text>
<polygon fill="#ffffff" stroke="transparent" points="608,-138.2 608,-157.2 633,-157.2 633,-138.2 608,-138.2"/>
<polygon fill="none" stroke="#000000" points="608,-138.2 608,-157.2 633,-157.2 633,-138.2 608,-138.2"/>
<text text-anchor="start" x="623.8862" y="-144.3" font-family="Helvetica,sans-Serif" font-size="11.00" fill="#000000"> &#160;</text>
</a>
</g>
</g>
<!-- store&#45;&gt;address -->
<g id="edge4" class="edge">
<title>store:w&#45;&gt;address:e</title>
<path fill="none" stroke="#000000" d="M498.928,-183.4715C490.419,-178.181 486.1019,-168.7444 472,-165.2 425.4479,-153.4994 406.7239,-143.3214 364,-165.2 335.2352,-179.9303 353.8171,-224.2 321.5,-224.2"/>
<polygon fill="#000000" stroke="#000000" points="505.2668,-185.151 512.078,-190.6799 509.1334,-186.1755 513,-187.2 513,-187.2 513,-187.2 509.1334,-186.1755 513.922,-183.7201 505.2668,-185.151 505.2668,-185.151"/>
<ellipse fill="none" stroke="#000000" cx="502.1736" cy="-184.3314" rx="3.2" ry="3.2"/>
</g>
<!-- store&#45;&gt;staff -->
<g id="edge5" class="edge">
<title>store:w&#45;&gt;staff:e</title>
<path fill="none" stroke="#000000" d="M502.4958,-211.4037C485.7556,-219.3691 485.8468,-246.2 462,-246.2"/>
<polygon fill="#000000" stroke="#000000" points="511.3957,-205.4495 513.0384,-213.279 511.4725,-213.6076 509.8298,-205.778 511.3957,-205.4495"/>
<polyline fill="none" stroke="#000000" points="513,-209.2 509.0852,-210.0213 "/>
<ellipse fill="none" stroke="#000000" cx="505.9534" cy="-210.6784" rx="3.2" ry="3.2"/>
</g>
</g>
</svg>
