<?xml version="1.0" encoding="UTF-8" standalone="no"?>
<!DOCTYPE svg PUBLIC "-//W3C//DTD SVG 1.1//EN"
 "http://www.w3.org/Graphics/SVG/1.1/DTD/svg11.dtd">
<!-- Generated by graphviz version 2.40.1 (20161225.0304)
 -->
<!-- Title: twoDegreesRelationshipsDiagram Pages: 1 -->
<svg width="911pt" height="463pt"
 viewBox="0.00 0.00 911.00 462.70" xmlns="http://www.w3.org/2000/svg" xmlns:xlink="http://www.w3.org/1999/xlink">
<g id="graph0" class="graph" transform="scale(1 1) rotate(0) translate(4 458.7)">
<title>twoDegreesRelationshipsDiagram</title>
<polygon fill="#ffffff" stroke="transparent" points="-4,4 -4,-458.7 907,-458.7 907,4 -4,4"/>
<text text-anchor="middle" x="72.4936" y="-7.3" font-family="Helvetica,sans-Serif" font-size="11.00" fill="#000000">Generated by SchemaSpy</text>
<!-- address -->
<g id="node1" class="node">
<title>address</title>
<g id="a_node1"><a xlink:href="../../tables/address.html" xlink:title="address" target="_top">
<polygon fill="#ffffff" stroke="transparent" points="272,-38.2 272,-260.2 451,-260.2 451,-38.2 272,-38.2"/>
<polygon fill="#f5f5f5" stroke="transparent" points="274.5,-235.2 274.5,-258.2 449.5,-258.2 449.5,-235.2 274.5,-235.2"/>
<polygon fill="none" stroke="#000000" points="274.5,-235.2 274.5,-258.2 449.5,-258.2 449.5,-235.2 274.5,-235.2"/>
<text text-anchor="start" x="279.5" y="-244.3" font-family="Helvetica,sans-Serif" font-weight="bold" font-size="11.00" fill="#000000">address</text>
<text text-anchor="start" x="414.5437" y="-243.3" font-family="Helvetica,sans-Serif" font-size="11.00" fill="#000000">[table]</text>
<polygon fill="none" stroke="#000000" points="274.5,-213.2 274.5,-235.2 365.5,-235.2 365.5,-213.2 274.5,-213.2"/>
<image xlink:href="../../images/primaryKeys.png" width="11px" height="12px" preserveAspectRatio="xMinYMin meet" x="279.5" y="-230.2"/>
<text text-anchor="start" x="294.5" y="-220.3" font-family="Helvetica,sans-Serif" font-size="11.00" fill="#000000">address_id</text>
<polygon fill="none" stroke="#000000" points="365.5,-213.2 365.5,-235.2 449.5,-235.2 449.5,-213.2 365.5,-213.2"/>
<text text-anchor="start" x="368.5" y="-220.9" font-family="Helvetica,sans-Serif" font-size="11.00" fill="#000000">serial[10]</text>
<polygon fill="none" stroke="#000000" points="274.5,-191.2 274.5,-213.2 365.5,-213.2 365.5,-191.2 274.5,-191.2"/>
<text text-anchor="start" x="294.5" y="-198.3" font-family="Helvetica,sans-Serif" font-size="11.00" fill="#000000">address</text>
<polygon fill="none" stroke="#000000" points="365.5,-191.2 365.5,-213.2 449.5,-213.2 449.5,-191.2 365.5,-191.2"/>
<text text-anchor="start" x="368.5" y="-198.9" font-family="Helvetica,sans-Serif" font-size="11.00" fill="#000000">varchar[50]</text>
<polygon fill="none" stroke="#000000" points="274.5,-169.2 274.5,-191.2 365.5,-191.2 365.5,-169.2 274.5,-169.2"/>
<text text-anchor="start" x="294.5" y="-176.3" font-family="Helvetica,sans-Serif" font-size="11.00" fill="#000000">address2</text>
<polygon fill="none" stroke="#000000" points="365.5,-169.2 365.5,-191.2 449.5,-191.2 449.5,-169.2 365.5,-169.2"/>
<text text-anchor="start" x="368.5" y="-176.9" font-family="Helvetica,sans-Serif" font-size="11.00" fill="#000000">varchar[50]</text>
<polygon fill="none" stroke="#000000" points="274.5,-147.2 274.5,-169.2 365.5,-169.2 365.5,-147.2 274.5,-147.2"/>
<text text-anchor="start" x="294.5" y="-154.3" font-family="Helvetica,sans-Serif" font-size="11.00" fill="#000000">district</text>
<polygon fill="none" stroke="#000000" points="365.5,-147.2 365.5,-169.2 449.5,-169.2 449.5,-147.2 365.5,-147.2"/>
<text text-anchor="start" x="368.5" y="-154.9" font-family="Helvetica,sans-Serif" font-size="11.00" fill="#000000">varchar[20]</text>
<polygon fill="#ffffff" stroke="transparent" points="274.5,-125.2 274.5,-147.2 365.5,-147.2 365.5,-125.2 274.5,-125.2"/>
<polygon fill="none" stroke="#000000" points="274.5,-125.2 274.5,-147.2 365.5,-147.2 365.5,-125.2 274.5,-125.2"/>
<image xlink:href="../../images/foreignKeys.png" width="11px" height="12px" preserveAspectRatio="xMinYMin meet" x="279.5" y="-142.2"/>
<text text-anchor="start" x="294.5" y="-132.3" font-family="Helvetica,sans-Serif" font-size="11.00" fill="#000000">city_id</text>
<polygon fill="none" stroke="#000000" points="365.5,-125.2 365.5,-147.2 449.5,-147.2 449.5,-125.2 365.5,-125.2"/>
<text text-anchor="start" x="368.5" y="-132.9" font-family="Helvetica,sans-Serif" font-size="11.00" fill="#000000">int2[5]</text>
<polygon fill="none" stroke="#000000" points="274.5,-103.2 274.5,-125.2 365.5,-125.2 365.5,-103.2 274.5,-103.2"/>
<text text-anchor="start" x="294.5" y="-110.3" font-family="Helvetica,sans-Serif" font-size="11.00" fill="#000000">postal_code</text>
<polygon fill="none" stroke="#000000" points="365.5,-103.2 365.5,-125.2 449.5,-125.2 449.5,-103.2 365.5,-103.2"/>
<text text-anchor="start" x="368.5" y="-110.9" font-family="Helvetica,sans-Serif" font-size="11.00" fill="#000000">varchar[10]</text>
<polygon fill="none" stroke="#000000" points="274.5,-81.2 274.5,-103.2 365.5,-103.2 365.5,-81.2 274.5,-81.2"/>
<text text-anchor="start" x="294.5" y="-88.3" font-family="Helvetica,sans-Serif" font-size="11.00" fill="#000000">phone</text>
<polygon fill="none" stroke="#000000" points="365.5,-81.2 365.5,-103.2 449.5,-103.2 449.5,-81.2 365.5,-81.2"/>
<text text-anchor="start" x="368.5" y="-88.9" font-family="Helvetica,sans-Serif" font-size="11.00" fill="#000000">varchar[20]</text>
<polygon fill="none" stroke="#000000" points="274.5,-59.2 274.5,-81.2 365.5,-81.2 365.5,-59.2 274.5,-59.2"/>
<text text-anchor="start" x="294.5" y="-66.3" font-family="Helvetica,sans-Serif" font-size="11.00" fill="#000000">last_update</text>
<polygon fill="none" stroke="#000000" points="365.5,-59.2 365.5,-81.2 449.5,-81.2 449.5,-59.2 365.5,-59.2"/>
<text text-anchor="start" x="368.3807" y="-66.9" font-family="Helvetica,sans-Serif" font-size="11.00" fill="#000000">timestamp[29,6]</text>
<polygon fill="#ffffff" stroke="transparent" points="274.5,-40.2 274.5,-59.2 311.5,-59.2 311.5,-40.2 274.5,-40.2"/>
<polygon fill="none" stroke="#000000" points="274.5,-40.2 274.5,-59.2 311.5,-59.2 311.5,-40.2 274.5,-40.2"/>
<text text-anchor="start" x="277.5" y="-46.3" font-family="Helvetica,sans-Serif" font-size="11.00" fill="#000000">&lt; 1</text>
<polygon fill="#ffffff" stroke="transparent" points="311.5,-40.2 311.5,-59.2 365.5,-59.2 365.5,-40.2 311.5,-40.2"/>
<polygon fill="none" stroke="#000000" points="311.5,-40.2 311.5,-59.2 365.5,-59.2 365.5,-40.2 311.5,-40.2"/>
<text text-anchor="start" x="330.1105" y="-46.3" font-family="Helvetica,sans-Serif" font-size="11.00" fill="#000000">0 rows</text>
<polygon fill="#ffffff" stroke="transparent" points="365.5,-40.2 365.5,-59.2 449.5,-59.2 449.5,-40.2 365.5,-40.2"/>
<polygon fill="none" stroke="#000000" points="365.5,-40.2 365.5,-59.2 449.5,-59.2 449.5,-40.2 365.5,-40.2"/>
<text text-anchor="start" x="430.9053" y="-46.3" font-family="Helvetica,sans-Serif" font-size="11.00" fill="#000000">3 &gt;</text>
<polygon fill="none" stroke="#000000" stroke-width="2" points="273,-39.2 273,-259.2 450,-259.2 450,-39.2 273,-39.2"/>
</a>
</g>
</g>
<!-- city -->
<g id="node2" class="node">
<title>city</title>
<g id="a_node2"><a xlink:href="../../tables/city.html" xlink:title="city" target="_top">
<polygon fill="#ffffff" stroke="transparent" points="136,-65.7 136,-170.7 223,-170.7 223,-65.7 136,-65.7"/>
<polygon fill="#f5f5f5" stroke="transparent" points="136.5,-147.2 136.5,-170.2 223.5,-170.2 223.5,-147.2 136.5,-147.2"/>
<polygon fill="none" stroke="#000000" points="136.5,-147.2 136.5,-170.2 223.5,-170.2 223.5,-147.2 136.5,-147.2"/>
<text text-anchor="start" x="141.5" y="-156.3" font-family="Helvetica,sans-Serif" font-weight="bold" font-size="11.00" fill="#000000">city</text>
<text text-anchor="start" x="188.5437" y="-155.3" font-family="Helvetica,sans-Serif" font-size="11.00" fill="#000000">[table]</text>
<polygon fill="none" stroke="#000000" points="136.5,-125.2 136.5,-147.2 223.5,-147.2 223.5,-125.2 136.5,-125.2"/>
<image xlink:href="../../images/primaryKeys.png" width="11px" height="12px" preserveAspectRatio="xMinYMin meet" x="141.5" y="-142.2"/>
<text text-anchor="start" x="156.5" y="-132.3" font-family="Helvetica,sans-Serif" font-size="11.00" fill="#000000">city_id</text>
<polygon fill="#ffffff" stroke="transparent" points="136.5,-103.2 136.5,-125.2 223.5,-125.2 223.5,-103.2 136.5,-103.2"/>
<polygon fill="none" stroke="#000000" points="136.5,-103.2 136.5,-125.2 223.5,-125.2 223.5,-103.2 136.5,-103.2"/>
<image xlink:href="../../images/foreignKeys.png" width="11px" height="12px" preserveAspectRatio="xMinYMin meet" x="141.5" y="-120.2"/>
<text text-anchor="start" x="156.5" y="-110.3" font-family="Helvetica,sans-Serif" font-size="11.00" fill="#000000">country_id</text>
<polygon fill="none" stroke="#000000" points="136.5,-84.2 136.5,-103.2 223.5,-103.2 223.5,-84.2 136.5,-84.2"/>
<text text-anchor="start" x="139.5" y="-90.3" font-family="Helvetica,sans-Serif" font-size="11.00" fill="#000000">...</text>
<polygon fill="#ffffff" stroke="transparent" points="136.5,-65.2 136.5,-84.2 160.5,-84.2 160.5,-65.2 136.5,-65.2"/>
<polygon fill="none" stroke="#000000" points="136.5,-65.2 136.5,-84.2 160.5,-84.2 160.5,-65.2 136.5,-65.2"/>
<text text-anchor="start" x="139.5" y="-71.3" font-family="Helvetica,sans-Serif" font-size="11.00" fill="#000000">&lt; 1</text>
<polygon fill="#ffffff" stroke="transparent" points="160.5,-65.2 160.5,-84.2 200.5,-84.2 200.5,-65.2 160.5,-65.2"/>
<polygon fill="none" stroke="#000000" points="160.5,-65.2 160.5,-84.2 200.5,-84.2 200.5,-65.2 160.5,-65.2"/>
<text text-anchor="start" x="165.1105" y="-71.3" font-family="Helvetica,sans-Serif" font-size="11.00" fill="#000000">0 rows</text>
<polygon fill="#ffffff" stroke="transparent" points="200.5,-65.2 200.5,-84.2 223.5,-84.2 223.5,-65.2 200.5,-65.2"/>
<polygon fill="none" stroke="#000000" points="200.5,-65.2 200.5,-84.2 223.5,-84.2 223.5,-65.2 200.5,-65.2"/>
<text text-anchor="start" x="204.9053" y="-71.3" font-family="Helvetica,sans-Serif" font-size="11.00" fill="#000000">1 &gt;</text>
</a>
</g>
</g>
<!-- address&#45;&gt;city -->
<g id="edge1" class="edge">
<title>address:w&#45;&gt;city:e</title>
<path fill="none" stroke="#000000" d="M259.776,-136.2C247.7815,-136.2 240.3229,-136.2 223.5,-136.2"/>
<polygon fill="#000000" stroke="#000000" points="266.5,-136.2001 274.5,-139.8 270.5,-136.2 274.5,-136.2 274.5,-136.2 274.5,-136.2 270.5,-136.2 274.5,-132.6 266.5,-136.2001 266.5,-136.2001"/>
<ellipse fill="none" stroke="#000000" cx="263.3" cy="-136.2001" rx="3.2" ry="3.2"/>
</g>
<!-- country -->
<g id="node3" class="node">
<title>country</title>
<g id="a_node3"><a xlink:href="../../tables/country.html" xlink:title="country" target="_top">
<polygon fill="#ffffff" stroke="transparent" points="8,-86.7 8,-147.7 87,-147.7 87,-86.7 8,-86.7"/>
<polygon fill="#f5f5f5" stroke="transparent" points="8.5,-124.2 8.5,-147.2 87.5,-147.2 87.5,-124.2 8.5,-124.2"/>
<polygon fill="none" stroke="#000000" points="8.5,-124.2 8.5,-147.2 87.5,-147.2 87.5,-124.2 8.5,-124.2"/>
<text text-anchor="start" x="13.4683" y="-133.3" font-family="Helvetica,sans-Serif" font-weight="bold" font-size="11.00" fill="#000000">country</text>
<text text-anchor="start" x="53.0219" y="-132.3" font-family="Helvetica,sans-Serif" font-size="11.00" fill="#000000">[table]</text>
<polygon fill="none" stroke="#000000" points="8.5,-105.2 8.5,-124.2 87.5,-124.2 87.5,-105.2 8.5,-105.2"/>
<text text-anchor="start" x="11.5" y="-111.3" font-family="Helvetica,sans-Serif" font-size="11.00" fill="#000000">...</text>
<polygon fill="#ffffff" stroke="transparent" points="8.5,-86.2 8.5,-105.2 24.5,-105.2 24.5,-86.2 8.5,-86.2"/>
<polygon fill="none" stroke="#000000" points="8.5,-86.2 8.5,-105.2 24.5,-105.2 24.5,-86.2 8.5,-86.2"/>
<text text-anchor="start" x="11.5" y="-92.3" font-family="Helvetica,sans-Serif" font-size="11.00" fill="#000000"> &#160;</text>
<polygon fill="#ffffff" stroke="transparent" points="24.5,-86.2 24.5,-105.2 64.5,-105.2 64.5,-86.2 24.5,-86.2"/>
<polygon fill="none" stroke="#000000" points="24.5,-86.2 24.5,-105.2 64.5,-105.2 64.5,-86.2 24.5,-86.2"/>
<text text-anchor="start" x="29.1105" y="-92.3" font-family="Helvetica,sans-Serif" font-size="11.00" fill="#000000">0 rows</text>
<polygon fill="#ffffff" stroke="transparent" points="64.5,-86.2 64.5,-105.2 87.5,-105.2 87.5,-86.2 64.5,-86.2"/>
<polygon fill="none" stroke="#000000" points="64.5,-86.2 64.5,-105.2 87.5,-105.2 87.5,-86.2 64.5,-86.2"/>
<text text-anchor="start" x="68.9053" y="-92.3" font-family="Helvetica,sans-Serif" font-size="11.00" fill="#000000">1 &gt;</text>
</a>
</g>
</g>
<!-- city&#45;&gt;country -->
<g id="edge2" class="edge">
<title>city:w&#45;&gt;country:e</title>
<path fill="none" stroke="#000000" d="M121.9909,-114.2C110.6774,-114.2 103.4931,-114.2 87.5,-114.2"/>
<polygon fill="#000000" stroke="#000000" points="128.5,-114.2001 136.5,-117.8 132.5,-114.2 136.5,-114.2 136.5,-114.2 136.5,-114.2 132.5,-114.2 136.5,-110.6 128.5,-114.2001 128.5,-114.2001"/>
<ellipse fill="none" stroke="#000000" cx="125.3" cy="-114.2001" rx="3.2" ry="3.2"/>
</g>
<!-- customer -->
<g id="node4" class="node">
<title>customer</title>
<g id="a_node4"><a xlink:href="../../tables/customer.html" xlink:title="customer" target="_top">
<polygon fill="#ffffff" stroke="transparent" points="500,-301.7 500,-450.7 592,-450.7 592,-301.7 500,-301.7"/>
<polygon fill="#f5f5f5" stroke="transparent" points="500,-427.2 500,-450.2 592,-450.2 592,-427.2 500,-427.2"/>
<polygon fill="none" stroke="#000000" points="500,-427.2 500,-450.2 592,-450.2 592,-427.2 500,-427.2"/>
<text text-anchor="start" x="505" y="-436.3" font-family="Helvetica,sans-Serif" font-weight="bold" font-size="11.00" fill="#000000">customer</text>
<text text-anchor="start" x="557.0437" y="-435.3" font-family="Helvetica,sans-Serif" font-size="11.00" fill="#000000">[table]</text>
<polygon fill="none" stroke="#000000" points="500,-405.2 500,-427.2 592,-427.2 592,-405.2 500,-405.2"/>
<image xlink:href="../../images/primaryKeys.png" width="11px" height="12px" preserveAspectRatio="xMinYMin meet" x="505" y="-422.2"/>
<text text-anchor="start" x="520" y="-412.3" font-family="Helvetica,sans-Serif" font-size="11.00" fill="#000000">customer_id</text>
<polygon fill="#ffffff" stroke="transparent" points="500,-383.2 500,-405.2 592,-405.2 592,-383.2 500,-383.2"/>
<polygon fill="none" stroke="#000000" points="500,-383.2 500,-405.2 592,-405.2 592,-383.2 500,-383.2"/>
<text text-anchor="start" x="520" y="-390.3" font-family="Helvetica,sans-Serif" font-size="11.00" fill="#000000">store_id</text>
<polygon fill="#ffffff" stroke="transparent" points="500,-361.2 500,-383.2 592,-383.2 592,-361.2 500,-361.2"/>
<polygon fill="none" stroke="#000000" points="500,-361.2 500,-383.2 592,-383.2 592,-361.2 500,-361.2"/>
<text text-anchor="start" x="520" y="-368.3" font-family="Helvetica,sans-Serif" font-size="11.00" fill="#000000">last_name</text>
<polygon fill="#ffffff" stroke="transparent" points="500,-339.2 500,-361.2 592,-361.2 592,-339.2 500,-339.2"/>
<polygon fill="none" stroke="#000000" points="500,-339.2 500,-361.2 592,-361.2 592,-339.2 500,-339.2"/>
<image xlink:href="../../images/foreignKeys.png" width="11px" height="12px" preserveAspectRatio="xMinYMin meet" x="505" y="-356.2"/>
<text text-anchor="start" x="520" y="-346.3" font-family="Helvetica,sans-Serif" font-size="11.00" fill="#000000">address_id</text>
<polygon fill="none" stroke="#000000" points="500,-320.2 500,-339.2 592,-339.2 592,-320.2 500,-320.2"/>
<text text-anchor="start" x="503" y="-326.3" font-family="Helvetica,sans-Serif" font-size="11.00" fill="#000000">...</text>
<polygon fill="#ffffff" stroke="transparent" points="500,-301.2 500,-320.2 527,-320.2 527,-301.2 500,-301.2"/>
<polygon fill="none" stroke="#000000" points="500,-301.2 500,-320.2 527,-320.2 527,-301.2 500,-301.2"/>
<text text-anchor="start" x="503" y="-307.3" font-family="Helvetica,sans-Serif" font-size="11.00" fill="#000000">&lt; 1</text>
<polygon fill="#ffffff" stroke="transparent" points="527,-301.2 527,-320.2 568,-320.2 568,-301.2 527,-301.2"/>
<polygon fill="none" stroke="#000000" points="527,-301.2 527,-320.2 568,-320.2 568,-301.2 527,-301.2"/>
<text text-anchor="start" x="532.6105" y="-307.3" font-family="Helvetica,sans-Serif" font-size="11.00" fill="#000000">0 rows</text>
<polygon fill="#ffffff" stroke="transparent" points="568,-301.2 568,-320.2 592,-320.2 592,-301.2 568,-301.2"/>
<polygon fill="none" stroke="#000000" points="568,-301.2 568,-320.2 592,-320.2 592,-301.2 568,-301.2"/>
<text text-anchor="start" x="573.4053" y="-307.3" font-family="Helvetica,sans-Serif" font-size="11.00" fill="#000000">2 &gt;</text>
</a>
</g>
</g>
<!-- customer&#45;&gt;address -->
<g id="edge3" class="edge">
<title>customer:w&#45;&gt;address:e</title>
<path fill="none" stroke="#000000" d="M485.8154,-346.8298C452.1284,-326.7923 503.9387,-224.2 449.5,-224.2"/>
<polygon fill="#000000" stroke="#000000" points="492.2167,-348.3507 499.1678,-353.7025 496.1083,-349.2753 500,-350.2 500,-350.2 500,-350.2 496.1083,-349.2753 500.8322,-346.6975 492.2167,-348.3507 492.2167,-348.3507"/>
<ellipse fill="none" stroke="#000000" cx="489.1033" cy="-347.6109" rx="3.2" ry="3.2"/>
</g>
<!-- payment -->
<g id="node5" class="node">
<title>payment</title>
<g id="a_node5"><a xlink:href="../../tables/payment.html" xlink:title="payment" target="_top">
<polygon fill="#ffffff" stroke="transparent" points="810,-323.7 810,-384.7 895,-384.7 895,-323.7 810,-323.7"/>
<polygon fill="#f5f5f5" stroke="transparent" points="810.5,-361.2 810.5,-384.2 895.5,-384.2 895.5,-361.2 810.5,-361.2"/>
<polygon fill="none" stroke="#000000" points="810.5,-361.2 810.5,-384.2 895.5,-384.2 895.5,-361.2 810.5,-361.2"/>
<text text-anchor="start" x="815.4108" y="-370.3" font-family="Helvetica,sans-Serif" font-weight="bold" font-size="11.00" fill="#000000">payment</text>
<text text-anchor="start" x="861.0219" y="-369.3" font-family="Helvetica,sans-Serif" font-size="11.00" fill="#000000">[table]</text>
<polygon fill="none" stroke="#000000" points="810.5,-342.2 810.5,-361.2 895.5,-361.2 895.5,-342.2 810.5,-342.2"/>
<text text-anchor="start" x="813.5" y="-348.3" font-family="Helvetica,sans-Serif" font-size="11.00" fill="#000000">...</text>
<polygon fill="#ffffff" stroke="transparent" points="810.5,-323.2 810.5,-342.2 838.5,-342.2 838.5,-323.2 810.5,-323.2"/>
<polygon fill="none" stroke="#000000" points="810.5,-323.2 810.5,-342.2 838.5,-342.2 838.5,-323.2 810.5,-323.2"/>
<text text-anchor="start" x="813.5" y="-329.3" font-family="Helvetica,sans-Serif" font-size="11.00" fill="#000000">&lt; 3</text>
<polygon fill="#ffffff" stroke="transparent" points="838.5,-323.2 838.5,-342.2 879.5,-342.2 879.5,-323.2 838.5,-323.2"/>
<polygon fill="none" stroke="#000000" points="838.5,-323.2 838.5,-342.2 879.5,-342.2 879.5,-323.2 838.5,-323.2"/>
<text text-anchor="start" x="844.1105" y="-329.3" font-family="Helvetica,sans-Serif" font-size="11.00" fill="#000000">0 rows</text>
<polygon fill="#ffffff" stroke="transparent" points="879.5,-323.2 879.5,-342.2 895.5,-342.2 895.5,-323.2 879.5,-323.2"/>
<polygon fill="none" stroke="#000000" points="879.5,-323.2 879.5,-342.2 895.5,-342.2 895.5,-323.2 879.5,-323.2"/>
<text text-anchor="start" x="886.3862" y="-329.3" font-family="Helvetica,sans-Serif" font-size="11.00" fill="#000000"> &#160;</text>
</a>
</g>
</g>
<!-- payment&#45;&gt;customer -->
<g id="edge4" class="edge">
<title>payment:w&#45;&gt;customer:e</title>
<path fill="none" stroke="#000000" d="M796.6796,-355.793C786.1863,-365.0702 787.3833,-385.9459 769,-395.2 698.2413,-430.8197 671.2184,-416.2 592,-416.2"/>
<polygon fill="#000000" stroke="#000000" points="802.9083,-353.723 811.6354,-354.6163 806.7041,-352.4615 810.5,-351.2 810.5,-351.2 810.5,-351.2 806.7041,-352.4615 809.3646,-347.7837 802.9083,-353.723 802.9083,-353.723"/>
<ellipse fill="none" stroke="#000000" cx="799.8716" cy="-354.7322" rx="3.2" ry="3.2"/>
</g>
<!-- rental -->
<g id="node6" class="node">
<title>rental</title>
<g id="a_node6"><a xlink:href="../../tables/rental.html" xlink:title="rental" target="_top">
<polygon fill="#ffffff" stroke="transparent" points="661,-323.7 661,-384.7 741,-384.7 741,-323.7 661,-323.7"/>
<polygon fill="#f5f5f5" stroke="transparent" points="661,-361.2 661,-384.2 741,-384.2 741,-361.2 661,-361.2"/>
<polygon fill="none" stroke="#000000" points="661,-361.2 661,-384.2 741,-384.2 741,-361.2 661,-361.2"/>
<text text-anchor="start" x="666" y="-370.3" font-family="Helvetica,sans-Serif" font-weight="bold" font-size="11.00" fill="#000000">rental</text>
<text text-anchor="start" x="706.0437" y="-369.3" font-family="Helvetica,sans-Serif" font-size="11.00" fill="#000000">[table]</text>
<polygon fill="none" stroke="#000000" points="661,-342.2 661,-361.2 741,-361.2 741,-342.2 661,-342.2"/>
<text text-anchor="start" x="664" y="-348.3" font-family="Helvetica,sans-Serif" font-size="11.00" fill="#000000">...</text>
<polygon fill="#ffffff" stroke="transparent" points="661,-323.2 661,-342.2 682,-342.2 682,-323.2 661,-323.2"/>
<polygon fill="none" stroke="#000000" points="661,-323.2 661,-342.2 682,-342.2 682,-323.2 661,-323.2"/>
<text text-anchor="start" x="663.7026" y="-329.3" font-family="Helvetica,sans-Serif" font-size="11.00" fill="#000000">&lt; 3</text>
<polygon fill="#ffffff" stroke="transparent" points="682,-323.2 682,-342.2 720,-342.2 720,-323.2 682,-323.2"/>
<polygon fill="none" stroke="#000000" points="682,-323.2 682,-342.2 720,-342.2 720,-323.2 682,-323.2"/>
<text text-anchor="start" x="684.8053" y="-329.3" font-family="Helvetica,sans-Serif" font-size="11.00" fill="#000000">0 rows</text>
<polygon fill="#ffffff" stroke="transparent" points="720,-323.2 720,-342.2 741,-342.2 741,-323.2 720,-323.2"/>
<polygon fill="none" stroke="#000000" points="720,-323.2 720,-342.2 741,-342.2 741,-323.2 720,-323.2"/>
<text text-anchor="start" x="722.7026" y="-329.3" font-family="Helvetica,sans-Serif" font-size="11.00" fill="#000000">1 &gt;</text>
</a>
</g>
</g>
<!-- payment&#45;&gt;rental -->
<g id="edge5" class="edge">
<title>payment:w&#45;&gt;rental:e</title>
<path fill="none" stroke="#000000" d="M795.8241,-351.2C776.0879,-351.2 766.3385,-351.2 741,-351.2"/>
<polygon fill="#000000" stroke="#000000" points="802.5,-351.2001 810.5,-354.8 806.5,-351.2 810.5,-351.2 810.5,-351.2 810.5,-351.2 806.5,-351.2 810.5,-347.6 802.5,-351.2001 802.5,-351.2001"/>
<ellipse fill="none" stroke="#000000" cx="799.3" cy="-351.2001" rx="3.2" ry="3.2"/>
</g>
<!-- staff -->
<g id="node7" class="node">
<title>staff</title>
<g id="a_node7"><a xlink:href="../../tables/staff.html" xlink:title="staff" target="_top">
<polygon fill="#ffffff" stroke="transparent" points="502.5,-175.7 502.5,-280.7 589.5,-280.7 589.5,-175.7 502.5,-175.7"/>
<polygon fill="#f5f5f5" stroke="transparent" points="503,-257.2 503,-280.2 590,-280.2 590,-257.2 503,-257.2"/>
<polygon fill="none" stroke="#000000" points="503,-257.2 503,-280.2 590,-280.2 590,-257.2 503,-257.2"/>
<text text-anchor="start" x="508" y="-266.3" font-family="Helvetica,sans-Serif" font-weight="bold" font-size="11.00" fill="#000000">staff</text>
<text text-anchor="start" x="555.0437" y="-265.3" font-family="Helvetica,sans-Serif" font-size="11.00" fill="#000000">[table]</text>
<polygon fill="none" stroke="#000000" points="503,-235.2 503,-257.2 590,-257.2 590,-235.2 503,-235.2"/>
<image xlink:href="../../images/primaryKeys.png" width="11px" height="12px" preserveAspectRatio="xMinYMin meet" x="508" y="-252.2"/>
<text text-anchor="start" x="523" y="-242.3" font-family="Helvetica,sans-Serif" font-size="11.00" fill="#000000">staff_id</text>
<polygon fill="none" stroke="#000000" points="503,-213.2 503,-235.2 590,-235.2 590,-213.2 503,-213.2"/>
<image xlink:href="../../images/foreignKeys.png" width="11px" height="12px" preserveAspectRatio="xMinYMin meet" x="508" y="-230.2"/>
<text text-anchor="start" x="523" y="-220.3" font-family="Helvetica,sans-Serif" font-size="11.00" fill="#000000">address_id</text>
<polygon fill="none" stroke="#000000" points="503,-194.2 503,-213.2 590,-213.2 590,-194.2 503,-194.2"/>
<text text-anchor="start" x="506" y="-200.3" font-family="Helvetica,sans-Serif" font-size="11.00" fill="#000000">...</text>
<polygon fill="#ffffff" stroke="transparent" points="503,-175.2 503,-194.2 527,-194.2 527,-175.2 503,-175.2"/>
<polygon fill="none" stroke="#000000" points="503,-175.2 503,-194.2 527,-194.2 527,-175.2 503,-175.2"/>
<text text-anchor="start" x="506" y="-181.3" font-family="Helvetica,sans-Serif" font-size="11.00" fill="#000000">&lt; 1</text>
<polygon fill="#ffffff" stroke="transparent" points="527,-175.2 527,-194.2 567,-194.2 567,-175.2 527,-175.2"/>
<polygon fill="none" stroke="#000000" points="527,-175.2 527,-194.2 567,-194.2 567,-175.2 527,-175.2"/>
<text text-anchor="start" x="531.6105" y="-181.3" font-family="Helvetica,sans-Serif" font-size="11.00" fill="#000000">0 rows</text>
<polygon fill="#ffffff" stroke="transparent" points="567,-175.2 567,-194.2 590,-194.2 590,-175.2 567,-175.2"/>
<polygon fill="none" stroke="#000000" points="567,-175.2 567,-194.2 590,-194.2 590,-175.2 567,-175.2"/>
<text text-anchor="start" x="571.4053" y="-181.3" font-family="Helvetica,sans-Serif" font-size="11.00" fill="#000000">3 &gt;</text>
</a>
</g>
</g>
<!-- payment&#45;&gt;staff -->
<g id="edge6" class="edge">
<title>payment:w&#45;&gt;staff:e</title>
<path fill="none" stroke="#000000" d="M796.4868,-347.0618C786.3343,-339.3731 785.1158,-322.7962 769,-313.2 714.0516,-280.4807 692.2936,-290.1613 633,-266.2 613.4582,-258.3029 611.0772,-246.2 590,-246.2"/>
<polygon fill="#000000" stroke="#000000" points="802.8276,-348.9342 809.4804,-354.6526 806.6638,-350.0671 810.5,-351.2 810.5,-351.2 810.5,-351.2 806.6638,-350.0671 811.5196,-347.7474 802.8276,-348.9342 802.8276,-348.9342"/>
<ellipse fill="none" stroke="#000000" cx="799.7586" cy="-348.0279" rx="3.2" ry="3.2"/>
</g>
<!-- rental&#45;&gt;customer -->
<g id="edge7" class="edge">
<title>rental:w&#45;&gt;customer:e</title>
<path fill="none" stroke="#000000" d="M646.6448,-354.5127C621.9695,-367.7585 628.3708,-416.2 592,-416.2"/>
<polygon fill="#000000" stroke="#000000" points="653.2049,-352.9989 661.8095,-354.7078 657.1024,-352.0995 661,-351.2 661,-351.2 661,-351.2 657.1024,-352.0995 660.1905,-347.6922 653.2049,-352.9989 653.2049,-352.9989"/>
<ellipse fill="none" stroke="#000000" cx="650.0868" cy="-353.7185" rx="3.2" ry="3.2"/>
</g>
<!-- rental&#45;&gt;staff -->
<g id="edge8" class="edge">
<title>rental:w&#45;&gt;staff:e</title>
<path fill="none" stroke="#000000" d="M646.663,-348.1708C612.1189,-330.9549 640.6127,-246.2 590,-246.2"/>
<polygon fill="#000000" stroke="#000000" points="653.1728,-349.5462 660.2558,-354.7222 657.0864,-350.3731 661,-351.2 661,-351.2 661,-351.2 657.0864,-350.3731 661.7442,-347.6778 653.1728,-349.5462 653.1728,-349.5462"/>
<ellipse fill="none" stroke="#000000" cx="650.0419" cy="-348.8846" rx="3.2" ry="3.2"/>
</g>
<!-- staff&#45;&gt;address -->
<g id="edge9" class="edge">
<title>staff:w&#45;&gt;address:e</title>
<path fill="none" stroke="#000000" d="M488.3553,-224.2C475.2969,-224.2 467.5191,-224.2 449.5,-224.2"/>
<polygon fill="#000000" stroke="#000000" points="495,-224.2001 503,-227.8 499,-224.2 503,-224.2 503,-224.2 503,-224.2 499,-224.2 503,-220.6 495,-224.2001 495,-224.2001"/>
<ellipse fill="none" stroke="#000000" cx="491.8" cy="-224.2001" rx="3.2" ry="3.2"/>
</g>
<!-- store -->
<g id="node8" class="node">
<title>store</title>
<g id="a_node8"><a xlink:href="../../tables/store.html" xlink:title="store" target="_top">
<polygon fill="#ffffff" stroke="transparent" points="641,-128.7 641,-255.7 761,-255.7 761,-128.7 641,-128.7"/>
<polygon fill="#f5f5f5" stroke="transparent" points="641,-232.2 641,-255.2 761,-255.2 761,-232.2 641,-232.2"/>
<polygon fill="none" stroke="#000000" points="641,-232.2 641,-255.2 761,-255.2 761,-232.2 641,-232.2"/>
<text text-anchor="start" x="646" y="-241.3" font-family="Helvetica,sans-Serif" font-weight="bold" font-size="11.00" fill="#000000">store</text>
<text text-anchor="start" x="726.0437" y="-240.3" font-family="Helvetica,sans-Serif" font-size="11.00" fill="#000000">[table]</text>
<polygon fill="none" stroke="#000000" points="641,-210.2 641,-232.2 761,-232.2 761,-210.2 641,-210.2"/>
<image xlink:href="../../images/primaryKeys.png" width="11px" height="12px" preserveAspectRatio="xMinYMin meet" x="646" y="-227.2"/>
<text text-anchor="start" x="661" y="-217.3" font-family="Helvetica,sans-Serif" font-size="11.00" fill="#000000">store_id</text>
<polygon fill="#ffffff" stroke="transparent" points="641,-188.2 641,-210.2 761,-210.2 761,-188.2 641,-188.2"/>
<polygon fill="none" stroke="#000000" points="641,-188.2 641,-210.2 761,-210.2 761,-188.2 641,-188.2"/>
<image xlink:href="../../images/foreignKeys.png" width="11px" height="12px" preserveAspectRatio="xMinYMin meet" x="646" y="-205.2"/>
<text text-anchor="start" x="661" y="-195.3" font-family="Helvetica,sans-Serif" font-size="11.00" fill="#000000">manager_staff_id</text>
<polygon fill="none" stroke="#000000" points="641,-166.2 641,-188.2 761,-188.2 761,-166.2 641,-166.2"/>
<image xlink:href="../../images/foreignKeys.png" width="11px" height="12px" preserveAspectRatio="xMinYMin meet" x="646" y="-183.2"/>
<text text-anchor="start" x="661" y="-173.3" font-family="Helvetica,sans-Serif" font-size="11.00" fill="#000000">address_id</text>
<polygon fill="none" stroke="#000000" points="641,-147.2 641,-166.2 761,-166.2 761,-147.2 641,-147.2"/>
<text text-anchor="start" x="644" y="-153.3" font-family="Helvetica,sans-Serif" font-size="11.00" fill="#000000">...</text>
<polygon fill="#ffffff" stroke="transparent" points="641,-128.2 641,-147.2 686,-147.2 686,-128.2 641,-128.2"/>
<polygon fill="none" stroke="#000000" points="641,-128.2 641,-147.2 686,-147.2 686,-128.2 641,-128.2"/>
<text text-anchor="start" x="644" y="-134.3" font-family="Helvetica,sans-Serif" font-size="11.00" fill="#000000">&lt; 2</text>
<polygon fill="#ffffff" stroke="transparent" points="686,-128.2 686,-147.2 736,-147.2 736,-128.2 686,-128.2"/>
<polygon fill="none" stroke="#000000" points="686,-128.2 686,-147.2 736,-147.2 736,-128.2 686,-128.2"/>
<text text-anchor="start" x="700.6105" y="-134.3" font-family="Helvetica,sans-Serif" font-size="11.00" fill="#000000">0 rows</text>
<polygon fill="#ffffff" stroke="transparent" points="736,-128.2 736,-147.2 761,-147.2 761,-128.2 736,-128.2"/>
<polygon fill="none" stroke="#000000" points="736,-128.2 736,-147.2 761,-147.2 761,-128.2 736,-128.2"/>
<text text-anchor="start" x="751.8862" y="-134.3" font-family="Helvetica,sans-Serif" font-size="11.00" fill="#000000"> &#160;</text>
</a>
</g>
</g>
<!-- store&#45;&gt;address -->
<g id="edge10" class="edge">
<title>store:w&#45;&gt;address:e</title>
<path fill="none" stroke="#000000" d="M626.5783,-174.8587C618.3532,-171.9167 612.7744,-167.031 600,-165.2 552.4856,-158.3895 534.7239,-143.3214 492,-165.2 463.2352,-179.9303 481.8171,-224.2 449.5,-224.2"/>
<polygon fill="#000000" stroke="#000000" points="633.1034,-175.918 640.4231,-180.7535 637.0517,-176.559 641,-177.2 641,-177.2 641,-177.2 637.0517,-176.559 641.5769,-173.6465 633.1034,-175.918 633.1034,-175.918"/>
<ellipse fill="none" stroke="#000000" cx="629.9447" cy="-175.4052" rx="3.2" ry="3.2"/>
</g>
<!-- store&#45;&gt;staff -->
<g id="edge11" class="edge">
<title>store:w&#45;&gt;staff:e</title>
<path fill="none" stroke="#000000" d="M630.7188,-201.4669C612.2728,-210.8553 616.7303,-246.2 590,-246.2"/>
<polygon fill="#000000" stroke="#000000" points="639.3575,-195.4661 641.0801,-203.2784 639.5176,-203.623 637.795,-195.8106 639.3575,-195.4661"/>
<polyline fill="none" stroke="#000000" points="641,-199.2 637.0938,-200.0613 "/>
<ellipse fill="none" stroke="#000000" cx="633.9689" cy="-200.7504" rx="3.2" ry="3.2"/>
</g>
</g>
</svg>
