<?xml version="1.0" encoding="UTF-8" standalone="no"?>
<!DOCTYPE svg PUBLIC "-//W3C//DTD SVG 1.1//EN"
 "http://www.w3.org/Graphics/SVG/1.1/DTD/svg11.dtd">
<!-- Generated by graphviz version 2.40.1 (20161225.0304)
 -->
<!-- Title: twoDegreesRelationshipsDiagram Pages: 1 -->
<svg width="357pt" height="245pt"
 viewBox="0.00 0.00 357.00 244.70" xmlns="http://www.w3.org/2000/svg" xmlns:xlink="http://www.w3.org/1999/xlink">
<g id="graph0" class="graph" transform="scale(1 1) rotate(0) translate(4 240.7)">
<title>twoDegreesRelationshipsDiagram</title>
<polygon fill="#ffffff" stroke="transparent" points="-4,4 -4,-240.7 353,-240.7 353,4 -4,4"/>
<text text-anchor="middle" x="72.4936" y="-7.3" font-family="Helvetica,sans-Serif" font-size="11.00" fill="#000000">Generated by SchemaSpy</text>
<!-- film_category -->
<g id="node1" class="node">
<title>film_category</title>
<g id="a_node1"><a xlink:href="../../tables/film_category.html" xlink:title="film_category" target="_top">
<polygon fill="#ffffff" stroke="transparent" points="233,-96.7 233,-201.7 341,-201.7 341,-96.7 233,-96.7"/>
<polygon fill="#f5f5f5" stroke="transparent" points="233,-178.2 233,-201.2 341,-201.2 341,-178.2 233,-178.2"/>
<polygon fill="none" stroke="#000000" points="233,-178.2 233,-201.2 341,-201.2 341,-178.2 233,-178.2"/>
<text text-anchor="start" x="237.8031" y="-187.3" font-family="Helvetica,sans-Serif" font-weight="bold" font-size="11.00" fill="#000000">film_category</text>
<text text-anchor="start" x="306.5219" y="-186.3" font-family="Helvetica,sans-Serif" font-size="11.00" fill="#000000">[table]</text>
<polygon fill="none" stroke="#000000" points="233,-156.2 233,-178.2 341,-178.2 341,-156.2 233,-156.2"/>
<image xlink:href="../../images/primaryKeys.png" width="11px" height="12px" preserveAspectRatio="xMinYMin meet" x="238" y="-173.2"/>
<text text-anchor="start" x="258" y="-163.3" font-family="Helvetica,sans-Serif" font-size="11.00" fill="#000000">film_id</text>
<polygon fill="none" stroke="#000000" points="233,-134.2 233,-156.2 341,-156.2 341,-134.2 233,-134.2"/>
<image xlink:href="../../images/primaryKeys.png" width="11px" height="12px" preserveAspectRatio="xMinYMin meet" x="238" y="-151.2"/>
<text text-anchor="start" x="258" y="-141.3" font-family="Helvetica,sans-Serif" font-size="11.00" fill="#000000">category_id</text>
<polygon fill="none" stroke="#000000" points="233,-115.2 233,-134.2 341,-134.2 341,-115.2 233,-115.2"/>
<text text-anchor="start" x="236" y="-121.3" font-family="Helvetica,sans-Serif" font-size="11.00" fill="#000000">...</text>
<polygon fill="#ffffff" stroke="transparent" points="233,-96.2 233,-115.2 272,-115.2 272,-96.2 233,-96.2"/>
<polygon fill="none" stroke="#000000" points="233,-96.2 233,-115.2 272,-115.2 272,-96.2 233,-96.2"/>
<text text-anchor="start" x="236" y="-102.3" font-family="Helvetica,sans-Serif" font-size="11.00" fill="#000000">&lt; 2</text>
<polygon fill="#ffffff" stroke="transparent" points="272,-96.2 272,-115.2 319,-115.2 319,-96.2 272,-96.2"/>
<polygon fill="none" stroke="#000000" points="272,-96.2 272,-115.2 319,-115.2 319,-96.2 272,-96.2"/>
<text text-anchor="start" x="283.6105" y="-102.3" font-family="Helvetica,sans-Serif" font-size="11.00" fill="#000000">0 rows</text>
<polygon fill="#ffffff" stroke="transparent" points="319,-96.2 319,-115.2 341,-115.2 341,-96.2 319,-96.2"/>
<polygon fill="none" stroke="#000000" points="319,-96.2 319,-115.2 341,-115.2 341,-96.2 319,-96.2"/>
<text text-anchor="start" x="331.8862" y="-102.3" font-family="Helvetica,sans-Serif" font-size="11.00" fill="#000000"> &#160;</text>
</a>
</g>
</g>
<!-- category -->
<g id="node2" class="node">
<title>category</title>
<g id="a_node2"><a xlink:href="../../tables/category.html" xlink:title="category" target="_top">
<polygon fill="#ffffff" stroke="transparent" points="8,-38.2 8,-150.2 184,-150.2 184,-38.2 8,-38.2"/>
<polygon fill="#f5f5f5" stroke="transparent" points="10,-125.2 10,-148.2 182,-148.2 182,-125.2 10,-125.2"/>
<polygon fill="none" stroke="#000000" points="10,-125.2 10,-148.2 182,-148.2 182,-125.2 10,-125.2"/>
<text text-anchor="start" x="15" y="-134.3" font-family="Helvetica,sans-Serif" font-weight="bold" font-size="11.00" fill="#000000">category</text>
<text text-anchor="start" x="147.0437" y="-133.3" font-family="Helvetica,sans-Serif" font-size="11.00" fill="#000000">[table]</text>
<polygon fill="none" stroke="#000000" points="10,-103.2 10,-125.2 98,-125.2 98,-103.2 10,-103.2"/>
<image xlink:href="../../images/primaryKeys.png" width="11px" height="12px" preserveAspectRatio="xMinYMin meet" x="15" y="-120.2"/>
<text text-anchor="start" x="30" y="-110.3" font-family="Helvetica,sans-Serif" font-size="11.00" fill="#000000">category_id</text>
<polygon fill="none" stroke="#000000" points="98,-103.2 98,-125.2 182,-125.2 182,-103.2 98,-103.2"/>
<text text-anchor="start" x="101" y="-110.9" font-family="Helvetica,sans-Serif" font-size="11.00" fill="#000000">serial[10]</text>
<polygon fill="none" stroke="#000000" points="10,-81.2 10,-103.2 98,-103.2 98,-81.2 10,-81.2"/>
<text text-anchor="start" x="30" y="-88.3" font-family="Helvetica,sans-Serif" font-size="11.00" fill="#000000">name</text>
<polygon fill="none" stroke="#000000" points="98,-81.2 98,-103.2 182,-103.2 182,-81.2 98,-81.2"/>
<text text-anchor="start" x="101" y="-88.9" font-family="Helvetica,sans-Serif" font-size="11.00" fill="#000000">varchar[25]</text>
<polygon fill="none" stroke="#000000" points="10,-59.2 10,-81.2 98,-81.2 98,-59.2 10,-59.2"/>
<text text-anchor="start" x="30" y="-66.3" font-family="Helvetica,sans-Serif" font-size="11.00" fill="#000000">last_update</text>
<polygon fill="none" stroke="#000000" points="98,-59.2 98,-81.2 182,-81.2 182,-59.2 98,-59.2"/>
<text text-anchor="start" x="100.8807" y="-66.9" font-family="Helvetica,sans-Serif" font-size="11.00" fill="#000000">timestamp[29,6]</text>
<polygon fill="#ffffff" stroke="transparent" points="10,-40.2 10,-59.2 45,-59.2 45,-40.2 10,-40.2"/>
<polygon fill="none" stroke="#000000" points="10,-40.2 10,-59.2 45,-59.2 45,-40.2 10,-40.2"/>
<text text-anchor="start" x="13" y="-46.3" font-family="Helvetica,sans-Serif" font-size="11.00" fill="#000000">&lt; 0</text>
<polygon fill="#ffffff" stroke="transparent" points="45,-40.2 45,-59.2 98,-59.2 98,-40.2 45,-40.2"/>
<polygon fill="none" stroke="#000000" points="45,-40.2 45,-59.2 98,-59.2 98,-40.2 45,-40.2"/>
<text text-anchor="start" x="62.6105" y="-46.3" font-family="Helvetica,sans-Serif" font-size="11.00" fill="#000000">0 rows</text>
<polygon fill="#ffffff" stroke="transparent" points="98,-40.2 98,-59.2 182,-59.2 182,-40.2 98,-40.2"/>
<polygon fill="none" stroke="#000000" points="98,-40.2 98,-59.2 182,-59.2 182,-40.2 98,-40.2"/>
<text text-anchor="start" x="163.4053" y="-46.3" font-family="Helvetica,sans-Serif" font-size="11.00" fill="#000000">1 &gt;</text>
<polygon fill="none" stroke="#000000" stroke-width="2" points="9,-39.2 9,-149.2 183,-149.2 183,-39.2 9,-39.2"/>
</a>
</g>
</g>
<!-- film_category&#45;&gt;category -->
<g id="edge1" class="edge">
<title>film_category:w&#45;&gt;category:e</title>
<path fill="none" stroke="#000000" d="M219.0967,-141.3988C206.0044,-133.1209 202.7231,-114.2 182,-114.2"/>
<polygon fill="#000000" stroke="#000000" points="225.2832,-143.0902 232.0506,-148.6726 229.1416,-144.1451 233,-145.2 233,-145.2 233,-145.2 229.1416,-144.1451 233.9494,-141.7274 225.2832,-143.0902 225.2832,-143.0902"/>
<ellipse fill="none" stroke="#000000" cx="222.1965" cy="-142.2462" rx="3.2" ry="3.2"/>
</g>
<!-- film -->
<g id="node3" class="node">
<title>film</title>
<g id="a_node3"><a xlink:href="../../tables/film.html" xlink:title="film" target="_top">
<polygon fill="#ffffff" stroke="transparent" points="56,-171.7 56,-232.7 136,-232.7 136,-171.7 56,-171.7"/>
<polygon fill="#f5f5f5" stroke="transparent" points="56,-209.2 56,-232.2 136,-232.2 136,-209.2 56,-209.2"/>
<polygon fill="none" stroke="#000000" points="56,-209.2 56,-232.2 136,-232.2 136,-209.2 56,-209.2"/>
<text text-anchor="start" x="61" y="-218.3" font-family="Helvetica,sans-Serif" font-weight="bold" font-size="11.00" fill="#000000">film</text>
<text text-anchor="start" x="101.0437" y="-217.3" font-family="Helvetica,sans-Serif" font-size="11.00" fill="#000000">[table]</text>
<polygon fill="none" stroke="#000000" points="56,-190.2 56,-209.2 136,-209.2 136,-190.2 56,-190.2"/>
<text text-anchor="start" x="59" y="-196.3" font-family="Helvetica,sans-Serif" font-size="11.00" fill="#000000">...</text>
<polygon fill="#ffffff" stroke="transparent" points="56,-171.2 56,-190.2 77,-190.2 77,-171.2 56,-171.2"/>
<polygon fill="none" stroke="#000000" points="56,-171.2 56,-190.2 77,-190.2 77,-171.2 56,-171.2"/>
<text text-anchor="start" x="58.7027" y="-177.3" font-family="Helvetica,sans-Serif" font-size="11.00" fill="#000000">&lt; 1</text>
<polygon fill="#ffffff" stroke="transparent" points="77,-171.2 77,-190.2 115,-190.2 115,-171.2 77,-171.2"/>
<polygon fill="none" stroke="#000000" points="77,-171.2 77,-190.2 115,-190.2 115,-171.2 77,-171.2"/>
<text text-anchor="start" x="79.8053" y="-177.3" font-family="Helvetica,sans-Serif" font-size="11.00" fill="#000000">0 rows</text>
<polygon fill="#ffffff" stroke="transparent" points="115,-171.2 115,-190.2 136,-190.2 136,-171.2 115,-171.2"/>
<polygon fill="none" stroke="#000000" points="115,-171.2 115,-190.2 136,-190.2 136,-171.2 115,-171.2"/>
<text text-anchor="start" x="117.7027" y="-177.3" font-family="Helvetica,sans-Serif" font-size="11.00" fill="#000000">3 &gt;</text>
</a>
</g>
</g>
<!-- film_category&#45;&gt;film -->
<g id="edge2" class="edge">
<title>film_category:w&#45;&gt;film:e</title>
<path fill="none" stroke="#000000" d="M218.5287,-168.4154C185.6106,-174.2605 176.0766,-199.2 136,-199.2"/>
<polygon fill="#000000" stroke="#000000" points="225.0281,-167.8696 233.3013,-170.7874 229.014,-167.5348 233,-167.2 233,-167.2 233,-167.2 229.014,-167.5348 232.6987,-163.6126 225.0281,-167.8696 225.0281,-167.8696"/>
<ellipse fill="none" stroke="#000000" cx="221.8393" cy="-168.1374" rx="3.2" ry="3.2"/>
</g>
</g>
</svg>
