<?xml version="1.0" encoding="UTF-8" standalone="no"?>
<!DOCTYPE svg PUBLIC "-//W3C//DTD SVG 1.1//EN"
 "http://www.w3.org/Graphics/SVG/1.1/DTD/svg11.dtd">
<!-- Generated by graphviz version 2.40.1 (20161225.0304)
 -->
<!-- Title: oneDegreeRelationshipsDiagram Pages: 1 -->
<svg width="475pt" height="205pt"
 viewBox="0.00 0.00 475.00 204.70" xmlns="http://www.w3.org/2000/svg" xmlns:xlink="http://www.w3.org/1999/xlink">
<g id="graph0" class="graph" transform="scale(1 1) rotate(0) translate(4 200.7)">
<title>oneDegreeRelationshipsDiagram</title>
<polygon fill="#ffffff" stroke="transparent" points="-4,4 -4,-200.7 471,-200.7 471,4 -4,4"/>
<text text-anchor="middle" x="72.4936" y="-7.3" font-family="Helvetica,sans-Serif" font-size="11.00" fill="#000000">Generated by SchemaSpy</text>
<!-- address -->
<g id="node1" class="node">
<title>address</title>
<g id="a_node1"><a xlink:href="../../tables/address.html" xlink:title="address" target="_top">
<polygon fill="#ffffff" stroke="transparent" points="368,-87.7 368,-192.7 459,-192.7 459,-87.7 368,-87.7"/>
<polygon fill="#f5f5f5" stroke="transparent" points="368.5,-169.2 368.5,-192.2 459.5,-192.2 459.5,-169.2 368.5,-169.2"/>
<polygon fill="none" stroke="#000000" points="368.5,-169.2 368.5,-192.2 459.5,-192.2 459.5,-169.2 368.5,-169.2"/>
<text text-anchor="start" x="373.5" y="-178.3" font-family="Helvetica,sans-Serif" font-weight="bold" font-size="11.00" fill="#000000">address</text>
<text text-anchor="start" x="424.5437" y="-177.3" font-family="Helvetica,sans-Serif" font-size="11.00" fill="#000000">[table]</text>
<polygon fill="none" stroke="#000000" points="368.5,-147.2 368.5,-169.2 459.5,-169.2 459.5,-147.2 368.5,-147.2"/>
<image xlink:href="../../images/primaryKeys.png" width="11px" height="12px" preserveAspectRatio="xMinYMin meet" x="373.5" y="-164.2"/>
<text text-anchor="start" x="388.5" y="-154.3" font-family="Helvetica,sans-Serif" font-size="11.00" fill="#000000">address_id</text>
<polygon fill="#ffffff" stroke="transparent" points="368.5,-125.2 368.5,-147.2 459.5,-147.2 459.5,-125.2 368.5,-125.2"/>
<polygon fill="none" stroke="#000000" points="368.5,-125.2 368.5,-147.2 459.5,-147.2 459.5,-125.2 368.5,-125.2"/>
<image xlink:href="../../images/foreignKeys.png" width="11px" height="12px" preserveAspectRatio="xMinYMin meet" x="373.5" y="-142.2"/>
<text text-anchor="start" x="388.5" y="-132.3" font-family="Helvetica,sans-Serif" font-size="11.00" fill="#000000">city_id</text>
<polygon fill="none" stroke="#000000" points="368.5,-106.2 368.5,-125.2 459.5,-125.2 459.5,-106.2 368.5,-106.2"/>
<text text-anchor="start" x="371.5" y="-112.3" font-family="Helvetica,sans-Serif" font-size="11.00" fill="#000000">...</text>
<polygon fill="#ffffff" stroke="transparent" points="368.5,-87.2 368.5,-106.2 394.5,-106.2 394.5,-87.2 368.5,-87.2"/>
<polygon fill="none" stroke="#000000" points="368.5,-87.2 368.5,-106.2 394.5,-106.2 394.5,-87.2 368.5,-87.2"/>
<text text-anchor="start" x="371.5" y="-93.3" font-family="Helvetica,sans-Serif" font-size="11.00" fill="#000000">&lt; 1</text>
<polygon fill="#ffffff" stroke="transparent" points="394.5,-87.2 394.5,-106.2 435.5,-106.2 435.5,-87.2 394.5,-87.2"/>
<polygon fill="none" stroke="#000000" points="394.5,-87.2 394.5,-106.2 435.5,-106.2 435.5,-87.2 394.5,-87.2"/>
<text text-anchor="start" x="400.1105" y="-93.3" font-family="Helvetica,sans-Serif" font-size="11.00" fill="#000000">0 rows</text>
<polygon fill="#ffffff" stroke="transparent" points="435.5,-87.2 435.5,-106.2 459.5,-106.2 459.5,-87.2 435.5,-87.2"/>
<polygon fill="none" stroke="#000000" points="435.5,-87.2 435.5,-106.2 459.5,-106.2 459.5,-87.2 435.5,-87.2"/>
<text text-anchor="start" x="440.9053" y="-93.3" font-family="Helvetica,sans-Serif" font-size="11.00" fill="#000000">3 &gt;</text>
</a>
</g>
</g>
<!-- city -->
<g id="node2" class="node">
<title>city</title>
<g id="a_node2"><a xlink:href="../../tables/city.html" xlink:title="city" target="_top">
<polygon fill="#ffffff" stroke="transparent" points="144,-38.2 144,-172.2 319,-172.2 319,-38.2 144,-38.2"/>
<polygon fill="#f5f5f5" stroke="transparent" points="146.5,-147.2 146.5,-170.2 317.5,-170.2 317.5,-147.2 146.5,-147.2"/>
<polygon fill="none" stroke="#000000" points="146.5,-147.2 146.5,-170.2 317.5,-170.2 317.5,-147.2 146.5,-147.2"/>
<text text-anchor="start" x="151.5" y="-156.3" font-family="Helvetica,sans-Serif" font-weight="bold" font-size="11.00" fill="#000000">city</text>
<text text-anchor="start" x="282.5437" y="-155.3" font-family="Helvetica,sans-Serif" font-size="11.00" fill="#000000">[table]</text>
<polygon fill="none" stroke="#000000" points="146.5,-125.2 146.5,-147.2 233.5,-147.2 233.5,-125.2 146.5,-125.2"/>
<image xlink:href="../../images/primaryKeys.png" width="11px" height="12px" preserveAspectRatio="xMinYMin meet" x="151.5" y="-142.2"/>
<text text-anchor="start" x="166.5" y="-132.3" font-family="Helvetica,sans-Serif" font-size="11.00" fill="#000000">city_id</text>
<polygon fill="none" stroke="#000000" points="233.5,-125.2 233.5,-147.2 317.5,-147.2 317.5,-125.2 233.5,-125.2"/>
<text text-anchor="start" x="236.5" y="-132.9" font-family="Helvetica,sans-Serif" font-size="11.00" fill="#000000">serial[10]</text>
<polygon fill="none" stroke="#000000" points="146.5,-103.2 146.5,-125.2 233.5,-125.2 233.5,-103.2 146.5,-103.2"/>
<text text-anchor="start" x="166.5" y="-110.3" font-family="Helvetica,sans-Serif" font-size="11.00" fill="#000000">city</text>
<polygon fill="none" stroke="#000000" points="233.5,-103.2 233.5,-125.2 317.5,-125.2 317.5,-103.2 233.5,-103.2"/>
<text text-anchor="start" x="236.5" y="-110.9" font-family="Helvetica,sans-Serif" font-size="11.00" fill="#000000">varchar[50]</text>
<polygon fill="#ffffff" stroke="transparent" points="146.5,-81.2 146.5,-103.2 233.5,-103.2 233.5,-81.2 146.5,-81.2"/>
<polygon fill="none" stroke="#000000" points="146.5,-81.2 146.5,-103.2 233.5,-103.2 233.5,-81.2 146.5,-81.2"/>
<image xlink:href="../../images/foreignKeys.png" width="11px" height="12px" preserveAspectRatio="xMinYMin meet" x="151.5" y="-98.2"/>
<text text-anchor="start" x="166.5" y="-88.3" font-family="Helvetica,sans-Serif" font-size="11.00" fill="#000000">country_id</text>
<polygon fill="none" stroke="#000000" points="233.5,-81.2 233.5,-103.2 317.5,-103.2 317.5,-81.2 233.5,-81.2"/>
<text text-anchor="start" x="236.5" y="-88.9" font-family="Helvetica,sans-Serif" font-size="11.00" fill="#000000">int2[5]</text>
<polygon fill="none" stroke="#000000" points="146.5,-59.2 146.5,-81.2 233.5,-81.2 233.5,-59.2 146.5,-59.2"/>
<text text-anchor="start" x="166.5" y="-66.3" font-family="Helvetica,sans-Serif" font-size="11.00" fill="#000000">last_update</text>
<polygon fill="none" stroke="#000000" points="233.5,-59.2 233.5,-81.2 317.5,-81.2 317.5,-59.2 233.5,-59.2"/>
<text text-anchor="start" x="236.3807" y="-66.9" font-family="Helvetica,sans-Serif" font-size="11.00" fill="#000000">timestamp[29,6]</text>
<polygon fill="#ffffff" stroke="transparent" points="146.5,-40.2 146.5,-59.2 181.5,-59.2 181.5,-40.2 146.5,-40.2"/>
<polygon fill="none" stroke="#000000" points="146.5,-40.2 146.5,-59.2 181.5,-59.2 181.5,-40.2 146.5,-40.2"/>
<text text-anchor="start" x="149.5" y="-46.3" font-family="Helvetica,sans-Serif" font-size="11.00" fill="#000000">&lt; 1</text>
<polygon fill="#ffffff" stroke="transparent" points="181.5,-40.2 181.5,-59.2 233.5,-59.2 233.5,-40.2 181.5,-40.2"/>
<polygon fill="none" stroke="#000000" points="181.5,-40.2 181.5,-59.2 233.5,-59.2 233.5,-40.2 181.5,-40.2"/>
<text text-anchor="start" x="198.1105" y="-46.3" font-family="Helvetica,sans-Serif" font-size="11.00" fill="#000000">0 rows</text>
<polygon fill="#ffffff" stroke="transparent" points="233.5,-40.2 233.5,-59.2 317.5,-59.2 317.5,-40.2 233.5,-40.2"/>
<polygon fill="none" stroke="#000000" points="233.5,-40.2 233.5,-59.2 317.5,-59.2 317.5,-40.2 233.5,-40.2"/>
<text text-anchor="start" x="298.9053" y="-46.3" font-family="Helvetica,sans-Serif" font-size="11.00" fill="#000000">1 &gt;</text>
<polygon fill="none" stroke="#000000" stroke-width="2" points="145,-39.2 145,-171.2 318,-171.2 318,-39.2 145,-39.2"/>
</a>
</g>
</g>
<!-- address&#45;&gt;city -->
<g id="edge1" class="edge">
<title>address:w&#45;&gt;city:e</title>
<path fill="none" stroke="#000000" d="M353.776,-136.2C341.7815,-136.2 334.3229,-136.2 317.5,-136.2"/>
<polygon fill="#000000" stroke="#000000" points="360.5,-136.2001 368.5,-139.8 364.5,-136.2 368.5,-136.2 368.5,-136.2 368.5,-136.2 364.5,-136.2 368.5,-132.6 360.5,-136.2001 360.5,-136.2001"/>
<ellipse fill="none" stroke="#000000" cx="357.3" cy="-136.2001" rx="3.2" ry="3.2"/>
</g>
<!-- country -->
<g id="node3" class="node">
<title>country</title>
<g id="a_node3"><a xlink:href="../../tables/country.html" xlink:title="country" target="_top">
<polygon fill="#ffffff" stroke="transparent" points="8,-43.7 8,-126.7 95,-126.7 95,-43.7 8,-43.7"/>
<polygon fill="#f5f5f5" stroke="transparent" points="8.5,-103.2 8.5,-126.2 95.5,-126.2 95.5,-103.2 8.5,-103.2"/>
<polygon fill="none" stroke="#000000" points="8.5,-103.2 8.5,-126.2 95.5,-126.2 95.5,-103.2 8.5,-103.2"/>
<text text-anchor="start" x="13.5" y="-112.3" font-family="Helvetica,sans-Serif" font-weight="bold" font-size="11.00" fill="#000000">country</text>
<text text-anchor="start" x="60.5437" y="-111.3" font-family="Helvetica,sans-Serif" font-size="11.00" fill="#000000">[table]</text>
<polygon fill="none" stroke="#000000" points="8.5,-81.2 8.5,-103.2 95.5,-103.2 95.5,-81.2 8.5,-81.2"/>
<image xlink:href="../../images/primaryKeys.png" width="11px" height="12px" preserveAspectRatio="xMinYMin meet" x="13.5" y="-98.2"/>
<text text-anchor="start" x="28.5" y="-88.3" font-family="Helvetica,sans-Serif" font-size="11.00" fill="#000000">country_id</text>
<polygon fill="none" stroke="#000000" points="8.5,-62.2 8.5,-81.2 95.5,-81.2 95.5,-62.2 8.5,-62.2"/>
<text text-anchor="start" x="11.5" y="-68.3" font-family="Helvetica,sans-Serif" font-size="11.00" fill="#000000">...</text>
<polygon fill="#ffffff" stroke="transparent" points="8.5,-43.2 8.5,-62.2 22.5,-62.2 22.5,-43.2 8.5,-43.2"/>
<polygon fill="none" stroke="#000000" points="8.5,-43.2 8.5,-62.2 22.5,-62.2 22.5,-43.2 8.5,-43.2"/>
<text text-anchor="start" x="11.5" y="-49.3" font-family="Helvetica,sans-Serif" font-size="11.00" fill="#000000"> &#160;</text>
<polygon fill="#ffffff" stroke="transparent" points="22.5,-43.2 22.5,-62.2 73.5,-62.2 73.5,-43.2 22.5,-43.2"/>
<polygon fill="none" stroke="#000000" points="22.5,-43.2 22.5,-62.2 73.5,-62.2 73.5,-43.2 22.5,-43.2"/>
<text text-anchor="start" x="25.8807" y="-49.3" font-family="Helvetica,sans-Serif" font-size="11.00" fill="#000000">109 rows</text>
<polygon fill="#ffffff" stroke="transparent" points="73.5,-43.2 73.5,-62.2 95.5,-62.2 95.5,-43.2 73.5,-43.2"/>
<polygon fill="none" stroke="#000000" points="73.5,-43.2 73.5,-62.2 95.5,-62.2 95.5,-43.2 73.5,-43.2"/>
<text text-anchor="start" x="76.9053" y="-49.3" font-family="Helvetica,sans-Serif" font-size="11.00" fill="#000000">1 &gt;</text>
</a>
</g>
</g>
<!-- city&#45;&gt;country -->
<g id="edge2" class="edge">
<title>city:w&#45;&gt;country:e</title>
<path fill="none" stroke="#000000" d="M131.776,-92.2C119.7815,-92.2 112.3229,-92.2 95.5,-92.2"/>
<polygon fill="#000000" stroke="#000000" points="138.5,-92.2001 146.5,-95.8 142.5,-92.2 146.5,-92.2 146.5,-92.2 146.5,-92.2 142.5,-92.2 146.5,-88.6 138.5,-92.2001 138.5,-92.2001"/>
<ellipse fill="none" stroke="#000000" cx="135.3" cy="-92.2001" rx="3.2" ry="3.2"/>
</g>
</g>
</svg>
