<?xml version="1.0" encoding="UTF-8" standalone="no"?>
<!DOCTYPE svg PUBLIC "-//W3C//DTD SVG 1.1//EN"
 "http://www.w3.org/Graphics/SVG/1.1/DTD/svg11.dtd">
<!-- Generated by graphviz version 2.40.1 (20161225.0304)
 -->
<!-- Title: twoDegreesRelationshipsDiagram Pages: 1 -->
<svg width="732pt" height="256pt"
 viewBox="0.00 0.00 732.00 255.70" xmlns="http://www.w3.org/2000/svg" xmlns:xlink="http://www.w3.org/1999/xlink">
<g id="graph0" class="graph" transform="scale(1 1) rotate(0) translate(4 251.7)">
<title>twoDegreesRelationshipsDiagram</title>
<polygon fill="#ffffff" stroke="transparent" points="-4,4 -4,-251.7 728,-251.7 728,4 -4,4"/>
<text text-anchor="middle" x="72.4936" y="-7.3" font-family="Helvetica,sans-Serif" font-size="11.00" fill="#000000">Generated by SchemaSpy</text>
<!-- address -->
<g id="node1" class="node">
<title>address</title>
<g id="a_node1"><a xlink:href="../../tables/address.html" xlink:title="address" target="_top">
<polygon fill="#ffffff" stroke="transparent" points="368,-87.7 368,-192.7 459,-192.7 459,-87.7 368,-87.7"/>
<polygon fill="#f5f5f5" stroke="transparent" points="368.5,-169.2 368.5,-192.2 459.5,-192.2 459.5,-169.2 368.5,-169.2"/>
<polygon fill="none" stroke="#000000" points="368.5,-169.2 368.5,-192.2 459.5,-192.2 459.5,-169.2 368.5,-169.2"/>
<text text-anchor="start" x="373.5" y="-178.3" font-family="Helvetica,sans-Serif" font-weight="bold" font-size="11.00" fill="#000000">address</text>
<text text-anchor="start" x="424.5437" y="-177.3" font-family="Helvetica,sans-Serif" font-size="11.00" fill="#000000">[table]</text>
<polygon fill="none" stroke="#000000" points="368.5,-147.2 368.5,-169.2 459.5,-169.2 459.5,-147.2 368.5,-147.2"/>
<image xlink:href="../../images/primaryKeys.png" width="11px" height="12px" preserveAspectRatio="xMinYMin meet" x="373.5" y="-164.2"/>
<text text-anchor="start" x="388.5" y="-154.3" font-family="Helvetica,sans-Serif" font-size="11.00" fill="#000000">address_id</text>
<polygon fill="#ffffff" stroke="transparent" points="368.5,-125.2 368.5,-147.2 459.5,-147.2 459.5,-125.2 368.5,-125.2"/>
<polygon fill="none" stroke="#000000" points="368.5,-125.2 368.5,-147.2 459.5,-147.2 459.5,-125.2 368.5,-125.2"/>
<image xlink:href="../../images/foreignKeys.png" width="11px" height="12px" preserveAspectRatio="xMinYMin meet" x="373.5" y="-142.2"/>
<text text-anchor="start" x="388.5" y="-132.3" font-family="Helvetica,sans-Serif" font-size="11.00" fill="#000000">city_id</text>
<polygon fill="none" stroke="#000000" points="368.5,-106.2 368.5,-125.2 459.5,-125.2 459.5,-106.2 368.5,-106.2"/>
<text text-anchor="start" x="371.5" y="-112.3" font-family="Helvetica,sans-Serif" font-size="11.00" fill="#000000">...</text>
<polygon fill="#ffffff" stroke="transparent" points="368.5,-87.2 368.5,-106.2 394.5,-106.2 394.5,-87.2 368.5,-87.2"/>
<polygon fill="none" stroke="#000000" points="368.5,-87.2 368.5,-106.2 394.5,-106.2 394.5,-87.2 368.5,-87.2"/>
<text text-anchor="start" x="371.5" y="-93.3" font-family="Helvetica,sans-Serif" font-size="11.00" fill="#000000">&lt; 1</text>
<polygon fill="#ffffff" stroke="transparent" points="394.5,-87.2 394.5,-106.2 435.5,-106.2 435.5,-87.2 394.5,-87.2"/>
<polygon fill="none" stroke="#000000" points="394.5,-87.2 394.5,-106.2 435.5,-106.2 435.5,-87.2 394.5,-87.2"/>
<text text-anchor="start" x="400.1105" y="-93.3" font-family="Helvetica,sans-Serif" font-size="11.00" fill="#000000">0 rows</text>
<polygon fill="#ffffff" stroke="transparent" points="435.5,-87.2 435.5,-106.2 459.5,-106.2 459.5,-87.2 435.5,-87.2"/>
<polygon fill="none" stroke="#000000" points="435.5,-87.2 435.5,-106.2 459.5,-106.2 459.5,-87.2 435.5,-87.2"/>
<text text-anchor="start" x="440.9053" y="-93.3" font-family="Helvetica,sans-Serif" font-size="11.00" fill="#000000">3 &gt;</text>
</a>
</g>
</g>
<!-- city -->
<g id="node2" class="node">
<title>city</title>
<g id="a_node2"><a xlink:href="../../tables/city.html" xlink:title="city" target="_top">
<polygon fill="#ffffff" stroke="transparent" points="144,-38.2 144,-172.2 319,-172.2 319,-38.2 144,-38.2"/>
<polygon fill="#f5f5f5" stroke="transparent" points="146.5,-147.2 146.5,-170.2 317.5,-170.2 317.5,-147.2 146.5,-147.2"/>
<polygon fill="none" stroke="#000000" points="146.5,-147.2 146.5,-170.2 317.5,-170.2 317.5,-147.2 146.5,-147.2"/>
<text text-anchor="start" x="151.5" y="-156.3" font-family="Helvetica,sans-Serif" font-weight="bold" font-size="11.00" fill="#000000">city</text>
<text text-anchor="start" x="282.5437" y="-155.3" font-family="Helvetica,sans-Serif" font-size="11.00" fill="#000000">[table]</text>
<polygon fill="none" stroke="#000000" points="146.5,-125.2 146.5,-147.2 233.5,-147.2 233.5,-125.2 146.5,-125.2"/>
<image xlink:href="../../images/primaryKeys.png" width="11px" height="12px" preserveAspectRatio="xMinYMin meet" x="151.5" y="-142.2"/>
<text text-anchor="start" x="166.5" y="-132.3" font-family="Helvetica,sans-Serif" font-size="11.00" fill="#000000">city_id</text>
<polygon fill="none" stroke="#000000" points="233.5,-125.2 233.5,-147.2 317.5,-147.2 317.5,-125.2 233.5,-125.2"/>
<text text-anchor="start" x="236.5" y="-132.9" font-family="Helvetica,sans-Serif" font-size="11.00" fill="#000000">serial[10]</text>
<polygon fill="none" stroke="#000000" points="146.5,-103.2 146.5,-125.2 233.5,-125.2 233.5,-103.2 146.5,-103.2"/>
<text text-anchor="start" x="166.5" y="-110.3" font-family="Helvetica,sans-Serif" font-size="11.00" fill="#000000">city</text>
<polygon fill="none" stroke="#000000" points="233.5,-103.2 233.5,-125.2 317.5,-125.2 317.5,-103.2 233.5,-103.2"/>
<text text-anchor="start" x="236.5" y="-110.9" font-family="Helvetica,sans-Serif" font-size="11.00" fill="#000000">varchar[50]</text>
<polygon fill="#ffffff" stroke="transparent" points="146.5,-81.2 146.5,-103.2 233.5,-103.2 233.5,-81.2 146.5,-81.2"/>
<polygon fill="none" stroke="#000000" points="146.5,-81.2 146.5,-103.2 233.5,-103.2 233.5,-81.2 146.5,-81.2"/>
<image xlink:href="../../images/foreignKeys.png" width="11px" height="12px" preserveAspectRatio="xMinYMin meet" x="151.5" y="-98.2"/>
<text text-anchor="start" x="166.5" y="-88.3" font-family="Helvetica,sans-Serif" font-size="11.00" fill="#000000">country_id</text>
<polygon fill="none" stroke="#000000" points="233.5,-81.2 233.5,-103.2 317.5,-103.2 317.5,-81.2 233.5,-81.2"/>
<text text-anchor="start" x="236.5" y="-88.9" font-family="Helvetica,sans-Serif" font-size="11.00" fill="#000000">int2[5]</text>
<polygon fill="none" stroke="#000000" points="146.5,-59.2 146.5,-81.2 233.5,-81.2 233.5,-59.2 146.5,-59.2"/>
<text text-anchor="start" x="166.5" y="-66.3" font-family="Helvetica,sans-Serif" font-size="11.00" fill="#000000">last_update</text>
<polygon fill="none" stroke="#000000" points="233.5,-59.2 233.5,-81.2 317.5,-81.2 317.5,-59.2 233.5,-59.2"/>
<text text-anchor="start" x="236.3807" y="-66.9" font-family="Helvetica,sans-Serif" font-size="11.00" fill="#000000">timestamp[29,6]</text>
<polygon fill="#ffffff" stroke="transparent" points="146.5,-40.2 146.5,-59.2 181.5,-59.2 181.5,-40.2 146.5,-40.2"/>
<polygon fill="none" stroke="#000000" points="146.5,-40.2 146.5,-59.2 181.5,-59.2 181.5,-40.2 146.5,-40.2"/>
<text text-anchor="start" x="149.5" y="-46.3" font-family="Helvetica,sans-Serif" font-size="11.00" fill="#000000">&lt; 1</text>
<polygon fill="#ffffff" stroke="transparent" points="181.5,-40.2 181.5,-59.2 233.5,-59.2 233.5,-40.2 181.5,-40.2"/>
<polygon fill="none" stroke="#000000" points="181.5,-40.2 181.5,-59.2 233.5,-59.2 233.5,-40.2 181.5,-40.2"/>
<text text-anchor="start" x="198.1105" y="-46.3" font-family="Helvetica,sans-Serif" font-size="11.00" fill="#000000">0 rows</text>
<polygon fill="#ffffff" stroke="transparent" points="233.5,-40.2 233.5,-59.2 317.5,-59.2 317.5,-40.2 233.5,-40.2"/>
<polygon fill="none" stroke="#000000" points="233.5,-40.2 233.5,-59.2 317.5,-59.2 317.5,-40.2 233.5,-40.2"/>
<text text-anchor="start" x="298.9053" y="-46.3" font-family="Helvetica,sans-Serif" font-size="11.00" fill="#000000">1 &gt;</text>
<polygon fill="none" stroke="#000000" stroke-width="2" points="145,-39.2 145,-171.2 318,-171.2 318,-39.2 145,-39.2"/>
</a>
</g>
</g>
<!-- address&#45;&gt;city -->
<g id="edge1" class="edge">
<title>address:w&#45;&gt;city:e</title>
<path fill="none" stroke="#000000" d="M353.776,-136.2C341.7815,-136.2 334.3229,-136.2 317.5,-136.2"/>
<polygon fill="#000000" stroke="#000000" points="360.5,-136.2001 368.5,-139.8 364.5,-136.2 368.5,-136.2 368.5,-136.2 368.5,-136.2 364.5,-136.2 368.5,-132.6 360.5,-136.2001 360.5,-136.2001"/>
<ellipse fill="none" stroke="#000000" cx="357.3" cy="-136.2001" rx="3.2" ry="3.2"/>
</g>
<!-- country -->
<g id="node3" class="node">
<title>country</title>
<g id="a_node3"><a xlink:href="../../tables/country.html" xlink:title="country" target="_top">
<polygon fill="#ffffff" stroke="transparent" points="8,-43.7 8,-126.7 95,-126.7 95,-43.7 8,-43.7"/>
<polygon fill="#f5f5f5" stroke="transparent" points="8.5,-103.2 8.5,-126.2 95.5,-126.2 95.5,-103.2 8.5,-103.2"/>
<polygon fill="none" stroke="#000000" points="8.5,-103.2 8.5,-126.2 95.5,-126.2 95.5,-103.2 8.5,-103.2"/>
<text text-anchor="start" x="13.5" y="-112.3" font-family="Helvetica,sans-Serif" font-weight="bold" font-size="11.00" fill="#000000">country</text>
<text text-anchor="start" x="60.5437" y="-111.3" font-family="Helvetica,sans-Serif" font-size="11.00" fill="#000000">[table]</text>
<polygon fill="none" stroke="#000000" points="8.5,-81.2 8.5,-103.2 95.5,-103.2 95.5,-81.2 8.5,-81.2"/>
<image xlink:href="../../images/primaryKeys.png" width="11px" height="12px" preserveAspectRatio="xMinYMin meet" x="13.5" y="-98.2"/>
<text text-anchor="start" x="28.5" y="-88.3" font-family="Helvetica,sans-Serif" font-size="11.00" fill="#000000">country_id</text>
<polygon fill="none" stroke="#000000" points="8.5,-62.2 8.5,-81.2 95.5,-81.2 95.5,-62.2 8.5,-62.2"/>
<text text-anchor="start" x="11.5" y="-68.3" font-family="Helvetica,sans-Serif" font-size="11.00" fill="#000000">...</text>
<polygon fill="#ffffff" stroke="transparent" points="8.5,-43.2 8.5,-62.2 28.5,-62.2 28.5,-43.2 8.5,-43.2"/>
<polygon fill="none" stroke="#000000" points="8.5,-43.2 8.5,-62.2 28.5,-62.2 28.5,-43.2 8.5,-43.2"/>
<text text-anchor="start" x="11.5" y="-49.3" font-family="Helvetica,sans-Serif" font-size="11.00" fill="#000000"> &#160;</text>
<polygon fill="#ffffff" stroke="transparent" points="28.5,-43.2 28.5,-62.2 70.5,-62.2 70.5,-43.2 28.5,-43.2"/>
<polygon fill="none" stroke="#000000" points="28.5,-43.2 28.5,-62.2 70.5,-62.2 70.5,-43.2 28.5,-43.2"/>
<text text-anchor="start" x="35.1105" y="-49.3" font-family="Helvetica,sans-Serif" font-size="11.00" fill="#000000">0 rows</text>
<polygon fill="#ffffff" stroke="transparent" points="70.5,-43.2 70.5,-62.2 95.5,-62.2 95.5,-43.2 70.5,-43.2"/>
<polygon fill="none" stroke="#000000" points="70.5,-43.2 70.5,-62.2 95.5,-62.2 95.5,-43.2 70.5,-43.2"/>
<text text-anchor="start" x="76.9053" y="-49.3" font-family="Helvetica,sans-Serif" font-size="11.00" fill="#000000">1 &gt;</text>
</a>
</g>
</g>
<!-- city&#45;&gt;country -->
<g id="edge2" class="edge">
<title>city:w&#45;&gt;country:e</title>
<path fill="none" stroke="#000000" d="M131.776,-92.2C119.7815,-92.2 112.3229,-92.2 95.5,-92.2"/>
<polygon fill="#000000" stroke="#000000" points="138.5,-92.2001 146.5,-95.8 142.5,-92.2 146.5,-92.2 146.5,-92.2 146.5,-92.2 142.5,-92.2 146.5,-88.6 138.5,-92.2001 138.5,-92.2001"/>
<ellipse fill="none" stroke="#000000" cx="135.3" cy="-92.2001" rx="3.2" ry="3.2"/>
</g>
<!-- customer -->
<g id="node4" class="node">
<title>customer</title>
<g id="a_node4"><a xlink:href="../../tables/customer.html" xlink:title="customer" target="_top">
<polygon fill="#ffffff" stroke="transparent" points="508,-182.7 508,-243.7 596,-243.7 596,-182.7 508,-182.7"/>
<polygon fill="#f5f5f5" stroke="transparent" points="508,-220.2 508,-243.2 596,-243.2 596,-220.2 508,-220.2"/>
<polygon fill="none" stroke="#000000" points="508,-220.2 508,-243.2 596,-243.2 596,-220.2 508,-220.2"/>
<text text-anchor="start" x="512.8873" y="-229.3" font-family="Helvetica,sans-Serif" font-weight="bold" font-size="11.00" fill="#000000">customer</text>
<text text-anchor="start" x="561.5219" y="-228.3" font-family="Helvetica,sans-Serif" font-size="11.00" fill="#000000">[table]</text>
<polygon fill="none" stroke="#000000" points="508,-201.2 508,-220.2 596,-220.2 596,-201.2 508,-201.2"/>
<text text-anchor="start" x="511" y="-207.3" font-family="Helvetica,sans-Serif" font-size="11.00" fill="#000000">...</text>
<polygon fill="#ffffff" stroke="transparent" points="508,-182.2 508,-201.2 533,-201.2 533,-182.2 508,-182.2"/>
<polygon fill="none" stroke="#000000" points="508,-182.2 508,-201.2 533,-201.2 533,-182.2 508,-182.2"/>
<text text-anchor="start" x="511" y="-188.3" font-family="Helvetica,sans-Serif" font-size="11.00" fill="#000000">&lt; 1</text>
<polygon fill="#ffffff" stroke="transparent" points="533,-182.2 533,-201.2 573,-201.2 573,-182.2 533,-182.2"/>
<polygon fill="none" stroke="#000000" points="533,-182.2 533,-201.2 573,-201.2 573,-182.2 533,-182.2"/>
<text text-anchor="start" x="537.6105" y="-188.3" font-family="Helvetica,sans-Serif" font-size="11.00" fill="#000000">0 rows</text>
<polygon fill="#ffffff" stroke="transparent" points="573,-182.2 573,-201.2 596,-201.2 596,-182.2 573,-182.2"/>
<polygon fill="none" stroke="#000000" points="573,-182.2 573,-201.2 596,-201.2 596,-182.2 573,-182.2"/>
<text text-anchor="start" x="577.4053" y="-188.3" font-family="Helvetica,sans-Serif" font-size="11.00" fill="#000000">2 &gt;</text>
</a>
</g>
</g>
<!-- customer&#45;&gt;address -->
<g id="edge3" class="edge">
<title>customer:w&#45;&gt;address:e</title>
<path fill="none" stroke="#000000" d="M494.0921,-205.0239C480.3749,-191.8711 484.9307,-158.2 459.5,-158.2"/>
<polygon fill="#000000" stroke="#000000" points="500.5024,-207.4096 506.7443,-213.5739 504.2512,-208.8048 508,-210.2 508,-210.2 508,-210.2 504.2512,-208.8048 509.2557,-206.8261 500.5024,-207.4096 500.5024,-207.4096"/>
<ellipse fill="none" stroke="#000000" cx="497.5034" cy="-206.2934" rx="3.2" ry="3.2"/>
</g>
<!-- staff -->
<g id="node5" class="node">
<title>staff</title>
<g id="a_node5"><a xlink:href="../../tables/staff.html" xlink:title="staff" target="_top">
<polygon fill="#ffffff" stroke="transparent" points="512,-72.7 512,-133.7 592,-133.7 592,-72.7 512,-72.7"/>
<polygon fill="#f5f5f5" stroke="transparent" points="512,-110.2 512,-133.2 592,-133.2 592,-110.2 512,-110.2"/>
<polygon fill="none" stroke="#000000" points="512,-110.2 512,-133.2 592,-133.2 592,-110.2 512,-110.2"/>
<text text-anchor="start" x="517" y="-119.3" font-family="Helvetica,sans-Serif" font-weight="bold" font-size="11.00" fill="#000000">staff</text>
<text text-anchor="start" x="557.0437" y="-118.3" font-family="Helvetica,sans-Serif" font-size="11.00" fill="#000000">[table]</text>
<polygon fill="none" stroke="#000000" points="512,-91.2 512,-110.2 592,-110.2 592,-91.2 512,-91.2"/>
<text text-anchor="start" x="515" y="-97.3" font-family="Helvetica,sans-Serif" font-size="11.00" fill="#000000">...</text>
<polygon fill="#ffffff" stroke="transparent" points="512,-72.2 512,-91.2 533,-91.2 533,-72.2 512,-72.2"/>
<polygon fill="none" stroke="#000000" points="512,-72.2 512,-91.2 533,-91.2 533,-72.2 512,-72.2"/>
<text text-anchor="start" x="514.7026" y="-78.3" font-family="Helvetica,sans-Serif" font-size="11.00" fill="#000000">&lt; 1</text>
<polygon fill="#ffffff" stroke="transparent" points="533,-72.2 533,-91.2 571,-91.2 571,-72.2 533,-72.2"/>
<polygon fill="none" stroke="#000000" points="533,-72.2 533,-91.2 571,-91.2 571,-72.2 533,-72.2"/>
<text text-anchor="start" x="535.8053" y="-78.3" font-family="Helvetica,sans-Serif" font-size="11.00" fill="#000000">0 rows</text>
<polygon fill="#ffffff" stroke="transparent" points="571,-72.2 571,-91.2 592,-91.2 592,-72.2 571,-72.2"/>
<polygon fill="none" stroke="#000000" points="571,-72.2 571,-91.2 592,-91.2 592,-72.2 571,-72.2"/>
<text text-anchor="start" x="573.7026" y="-78.3" font-family="Helvetica,sans-Serif" font-size="11.00" fill="#000000">3 &gt;</text>
</a>
</g>
</g>
<!-- staff&#45;&gt;address -->
<g id="edge4" class="edge">
<title>staff:w&#45;&gt;address:e</title>
<path fill="none" stroke="#000000" d="M498.1372,-104.7512C481.5571,-118.4241 488.2937,-158.2 459.5,-158.2"/>
<polygon fill="#000000" stroke="#000000" points="504.3991,-102.6954 513.1229,-103.6204 508.1996,-101.4477 512,-100.2 512,-100.2 512,-100.2 508.1996,-101.4477 510.8771,-96.7796 504.3991,-102.6954 504.3991,-102.6954"/>
<ellipse fill="none" stroke="#000000" cx="501.3588" cy="-103.6936" rx="3.2" ry="3.2"/>
</g>
<!-- store -->
<g id="node6" class="node">
<title>store</title>
<g id="a_node6"><a xlink:href="../../tables/store.html" xlink:title="store" target="_top">
<polygon fill="#ffffff" stroke="transparent" points="645,-101.7 645,-162.7 716,-162.7 716,-101.7 645,-101.7"/>
<polygon fill="#f5f5f5" stroke="transparent" points="645.5,-139.2 645.5,-162.2 716.5,-162.2 716.5,-139.2 645.5,-139.2"/>
<polygon fill="none" stroke="#000000" points="645.5,-139.2 645.5,-162.2 716.5,-162.2 716.5,-139.2 645.5,-139.2"/>
<text text-anchor="start" x="650.5" y="-148.3" font-family="Helvetica,sans-Serif" font-weight="bold" font-size="11.00" fill="#000000">store</text>
<text text-anchor="start" x="681.5437" y="-147.3" font-family="Helvetica,sans-Serif" font-size="11.00" fill="#000000">[table]</text>
<polygon fill="none" stroke="#000000" points="645.5,-120.2 645.5,-139.2 716.5,-139.2 716.5,-120.2 645.5,-120.2"/>
<text text-anchor="start" x="648.5" y="-126.3" font-family="Helvetica,sans-Serif" font-size="11.00" fill="#000000">...</text>
<polygon fill="#ffffff" stroke="transparent" points="645.5,-101.2 645.5,-120.2 666.5,-120.2 666.5,-101.2 645.5,-101.2"/>
<polygon fill="none" stroke="#000000" points="645.5,-101.2 645.5,-120.2 666.5,-120.2 666.5,-101.2 645.5,-101.2"/>
<text text-anchor="start" x="648.2026" y="-107.3" font-family="Helvetica,sans-Serif" font-size="11.00" fill="#000000">&lt; 2</text>
<polygon fill="#ffffff" stroke="transparent" points="666.5,-101.2 666.5,-120.2 704.5,-120.2 704.5,-101.2 666.5,-101.2"/>
<polygon fill="none" stroke="#000000" points="666.5,-101.2 666.5,-120.2 704.5,-120.2 704.5,-101.2 666.5,-101.2"/>
<text text-anchor="start" x="669.3053" y="-107.3" font-family="Helvetica,sans-Serif" font-size="11.00" fill="#000000">0 rows</text>
<polygon fill="#ffffff" stroke="transparent" points="704.5,-101.2 704.5,-120.2 716.5,-120.2 716.5,-101.2 704.5,-101.2"/>
<polygon fill="none" stroke="#000000" points="704.5,-101.2 704.5,-120.2 716.5,-120.2 716.5,-101.2 704.5,-101.2"/>
<text text-anchor="start" x="707.4431" y="-107.3" font-family="Helvetica,sans-Serif" font-size="11.00" fill="#000000"> &#160;</text>
</a>
</g>
</g>
<!-- store&#45;&gt;address -->
<g id="edge5" class="edge">
<title>store:w&#45;&gt;address:e</title>
<path fill="none" stroke="#000000" d="M631.0378,-131.8104C622.5662,-135.257 617.1534,-141.235 604,-144.2 541.0564,-158.3884 524.0229,-158.2 459.5,-158.2"/>
<polygon fill="#000000" stroke="#000000" points="637.6272,-130.621 646.1395,-132.7428 641.5636,-129.9105 645.5,-129.2 645.5,-129.2 645.5,-129.2 641.5636,-129.9105 644.8605,-125.6572 637.6272,-130.621 637.6272,-130.621"/>
<ellipse fill="none" stroke="#000000" cx="634.4781" cy="-131.1895" rx="3.2" ry="3.2"/>
</g>
<!-- store&#45;&gt;staff -->
<g id="edge6" class="edge">
<title>store:w&#45;&gt;staff:e</title>
<path fill="none" stroke="#000000" d="M635.1021,-127.4728C618.0206,-121.2296 615.0317,-100.2 592,-100.2"/>
<polygon fill="#000000" stroke="#000000" points="645.3663,-125.123 644.0553,-133.0148 642.4769,-132.7526 643.7879,-124.8608 645.3663,-125.123"/>
<polyline fill="none" stroke="#000000" points="645.5,-129.2 641.5541,-128.5445 "/>
<ellipse fill="none" stroke="#000000" cx="638.3973" cy="-128.0201" rx="3.2" ry="3.2"/>
</g>
</g>
</svg>
