<?xml version="1.0" encoding="UTF-8" standalone="no"?>
<!DOCTYPE svg PUBLIC "-//W3C//DTD SVG 1.1//EN"
 "http://www.w3.org/Graphics/SVG/1.1/DTD/svg11.dtd">
<!-- Generated by graphviz version 2.40.1 (20161225.0304)
 -->
<!-- Title: twoDegreesRelationshipsDiagram Pages: 1 -->
<svg width="870pt" height="205pt"
 viewBox="0.00 0.00 870.00 204.70" xmlns="http://www.w3.org/2000/svg" xmlns:xlink="http://www.w3.org/1999/xlink">
<g id="graph0" class="graph" transform="scale(1 1) rotate(0) translate(4 200.7)">
<title>twoDegreesRelationshipsDiagram</title>
<polygon fill="#ffffff" stroke="transparent" points="-4,4 -4,-200.7 866,-200.7 866,4 -4,4"/>
<text text-anchor="middle" x="72.4936" y="-7.3" font-family="Helvetica,sans-Serif" font-size="11.00" fill="#000000">Generated by SchemaSpy</text>
<!-- address -->
<g id="node1" class="node">
<title>address</title>
<g id="a_node1"><a xlink:href="../../tables/address.html" xlink:title="address" target="_top">
<polygon fill="#ffffff" stroke="transparent" points="368,-87.7 368,-192.7 459,-192.7 459,-87.7 368,-87.7"/>
<polygon fill="#f5f5f5" stroke="transparent" points="368.5,-169.2 368.5,-192.2 459.5,-192.2 459.5,-169.2 368.5,-169.2"/>
<polygon fill="none" stroke="#000000" points="368.5,-169.2 368.5,-192.2 459.5,-192.2 459.5,-169.2 368.5,-169.2"/>
<text text-anchor="start" x="373.5" y="-178.3" font-family="Helvetica,sans-Serif" font-weight="bold" font-size="11.00" fill="#000000">address</text>
<text text-anchor="start" x="424.5437" y="-177.3" font-family="Helvetica,sans-Serif" font-size="11.00" fill="#000000">[table]</text>
<polygon fill="none" stroke="#000000" points="368.5,-147.2 368.5,-169.2 459.5,-169.2 459.5,-147.2 368.5,-147.2"/>
<image xlink:href="../../images/primaryKeys.png" width="11px" height="12px" preserveAspectRatio="xMinYMin meet" x="373.5" y="-164.2"/>
<text text-anchor="start" x="388.5" y="-154.3" font-family="Helvetica,sans-Serif" font-size="11.00" fill="#000000">address_id</text>
<polygon fill="#ffffff" stroke="transparent" points="368.5,-125.2 368.5,-147.2 459.5,-147.2 459.5,-125.2 368.5,-125.2"/>
<polygon fill="none" stroke="#000000" points="368.5,-125.2 368.5,-147.2 459.5,-147.2 459.5,-125.2 368.5,-125.2"/>
<image xlink:href="../../images/foreignKeys.png" width="11px" height="12px" preserveAspectRatio="xMinYMin meet" x="373.5" y="-142.2"/>
<text text-anchor="start" x="388.5" y="-132.3" font-family="Helvetica,sans-Serif" font-size="11.00" fill="#000000">city_id</text>
<polygon fill="none" stroke="#000000" points="368.5,-106.2 368.5,-125.2 459.5,-125.2 459.5,-106.2 368.5,-106.2"/>
<text text-anchor="start" x="371.5" y="-112.3" font-family="Helvetica,sans-Serif" font-size="11.00" fill="#000000">...</text>
<polygon fill="#ffffff" stroke="transparent" points="368.5,-87.2 368.5,-106.2 394.5,-106.2 394.5,-87.2 368.5,-87.2"/>
<polygon fill="none" stroke="#000000" points="368.5,-87.2 368.5,-106.2 394.5,-106.2 394.5,-87.2 368.5,-87.2"/>
<text text-anchor="start" x="371.5" y="-93.3" font-family="Helvetica,sans-Serif" font-size="11.00" fill="#000000">&lt; 1</text>
<polygon fill="#ffffff" stroke="transparent" points="394.5,-87.2 394.5,-106.2 435.5,-106.2 435.5,-87.2 394.5,-87.2"/>
<polygon fill="none" stroke="#000000" points="394.5,-87.2 394.5,-106.2 435.5,-106.2 435.5,-87.2 394.5,-87.2"/>
<text text-anchor="start" x="400.1105" y="-93.3" font-family="Helvetica,sans-Serif" font-size="11.00" fill="#000000">0 rows</text>
<polygon fill="#ffffff" stroke="transparent" points="435.5,-87.2 435.5,-106.2 459.5,-106.2 459.5,-87.2 435.5,-87.2"/>
<polygon fill="none" stroke="#000000" points="435.5,-87.2 435.5,-106.2 459.5,-106.2 459.5,-87.2 435.5,-87.2"/>
<text text-anchor="start" x="440.9053" y="-93.3" font-family="Helvetica,sans-Serif" font-size="11.00" fill="#000000">3 &gt;</text>
</a>
</g>
</g>
<!-- city -->
<g id="node2" class="node">
<title>city</title>
<g id="a_node2"><a xlink:href="../../tables/city.html" xlink:title="city" target="_top">
<polygon fill="#ffffff" stroke="transparent" points="144,-38.2 144,-172.2 319,-172.2 319,-38.2 144,-38.2"/>
<polygon fill="#f5f5f5" stroke="transparent" points="146.5,-147.2 146.5,-170.2 317.5,-170.2 317.5,-147.2 146.5,-147.2"/>
<polygon fill="none" stroke="#000000" points="146.5,-147.2 146.5,-170.2 317.5,-170.2 317.5,-147.2 146.5,-147.2"/>
<text text-anchor="start" x="151.5" y="-156.3" font-family="Helvetica,sans-Serif" font-weight="bold" font-size="11.00" fill="#000000">city</text>
<text text-anchor="start" x="282.5437" y="-155.3" font-family="Helvetica,sans-Serif" font-size="11.00" fill="#000000">[table]</text>
<polygon fill="none" stroke="#000000" points="146.5,-125.2 146.5,-147.2 233.5,-147.2 233.5,-125.2 146.5,-125.2"/>
<image xlink:href="../../images/primaryKeys.png" width="11px" height="12px" preserveAspectRatio="xMinYMin meet" x="151.5" y="-142.2"/>
<text text-anchor="start" x="166.5" y="-132.3" font-family="Helvetica,sans-Serif" font-size="11.00" fill="#000000">city_id</text>
<polygon fill="none" stroke="#000000" points="233.5,-125.2 233.5,-147.2 317.5,-147.2 317.5,-125.2 233.5,-125.2"/>
<text text-anchor="start" x="236.5" y="-132.9" font-family="Helvetica,sans-Serif" font-size="11.00" fill="#000000">serial[10]</text>
<polygon fill="none" stroke="#000000" points="146.5,-103.2 146.5,-125.2 233.5,-125.2 233.5,-103.2 146.5,-103.2"/>
<text text-anchor="start" x="166.5" y="-110.3" font-family="Helvetica,sans-Serif" font-size="11.00" fill="#000000">city</text>
<polygon fill="none" stroke="#000000" points="233.5,-103.2 233.5,-125.2 317.5,-125.2 317.5,-103.2 233.5,-103.2"/>
<text text-anchor="start" x="236.5" y="-110.9" font-family="Helvetica,sans-Serif" font-size="11.00" fill="#000000">varchar[50]</text>
<polygon fill="#ffffff" stroke="transparent" points="146.5,-81.2 146.5,-103.2 233.5,-103.2 233.5,-81.2 146.5,-81.2"/>
<polygon fill="none" stroke="#000000" points="146.5,-81.2 146.5,-103.2 233.5,-103.2 233.5,-81.2 146.5,-81.2"/>
<image xlink:href="../../images/foreignKeys.png" width="11px" height="12px" preserveAspectRatio="xMinYMin meet" x="151.5" y="-98.2"/>
<text text-anchor="start" x="166.5" y="-88.3" font-family="Helvetica,sans-Serif" font-size="11.00" fill="#000000">country_id</text>
<polygon fill="none" stroke="#000000" points="233.5,-81.2 233.5,-103.2 317.5,-103.2 317.5,-81.2 233.5,-81.2"/>
<text text-anchor="start" x="236.5" y="-88.9" font-family="Helvetica,sans-Serif" font-size="11.00" fill="#000000">int2[5]</text>
<polygon fill="none" stroke="#000000" points="146.5,-59.2 146.5,-81.2 233.5,-81.2 233.5,-59.2 146.5,-59.2"/>
<text text-anchor="start" x="166.5" y="-66.3" font-family="Helvetica,sans-Serif" font-size="11.00" fill="#000000">last_update</text>
<polygon fill="none" stroke="#000000" points="233.5,-59.2 233.5,-81.2 317.5,-81.2 317.5,-59.2 233.5,-59.2"/>
<text text-anchor="start" x="236.3807" y="-66.9" font-family="Helvetica,sans-Serif" font-size="11.00" fill="#000000">timestamp[29,6]</text>
<polygon fill="#ffffff" stroke="transparent" points="146.5,-40.2 146.5,-59.2 181.5,-59.2 181.5,-40.2 146.5,-40.2"/>
<polygon fill="none" stroke="#000000" points="146.5,-40.2 146.5,-59.2 181.5,-59.2 181.5,-40.2 146.5,-40.2"/>
<text text-anchor="start" x="149.5" y="-46.3" font-family="Helvetica,sans-Serif" font-size="11.00" fill="#000000">&lt; 1</text>
<polygon fill="#ffffff" stroke="transparent" points="181.5,-40.2 181.5,-59.2 233.5,-59.2 233.5,-40.2 181.5,-40.2"/>
<polygon fill="none" stroke="#000000" points="181.5,-40.2 181.5,-59.2 233.5,-59.2 233.5,-40.2 181.5,-40.2"/>
<text text-anchor="start" x="198.1105" y="-46.3" font-family="Helvetica,sans-Serif" font-size="11.00" fill="#000000">0 rows</text>
<polygon fill="#ffffff" stroke="transparent" points="233.5,-40.2 233.5,-59.2 317.5,-59.2 317.5,-40.2 233.5,-40.2"/>
<polygon fill="none" stroke="#000000" points="233.5,-40.2 233.5,-59.2 317.5,-59.2 317.5,-40.2 233.5,-40.2"/>
<text text-anchor="start" x="298.9053" y="-46.3" font-family="Helvetica,sans-Serif" font-size="11.00" fill="#000000">1 &gt;</text>
<polygon fill="none" stroke="#000000" stroke-width="2" points="145,-39.2 145,-171.2 318,-171.2 318,-39.2 145,-39.2"/>
</a>
</g>
</g>
<!-- address&#45;&gt;city -->
<g id="edge1" class="edge">
<title>address:w&#45;&gt;city:e</title>
<path fill="none" stroke="#000000" d="M353.776,-136.2C341.7815,-136.2 334.3229,-136.2 317.5,-136.2"/>
<polygon fill="#000000" stroke="#000000" points="360.5,-136.2001 368.5,-139.8 364.5,-136.2 368.5,-136.2 368.5,-136.2 368.5,-136.2 364.5,-136.2 368.5,-132.6 360.5,-136.2001 360.5,-136.2001"/>
<ellipse fill="none" stroke="#000000" cx="357.3" cy="-136.2001" rx="3.2" ry="3.2"/>
</g>
<!-- country -->
<g id="node3" class="node">
<title>country</title>
<g id="a_node3"><a xlink:href="../../tables/country.html" xlink:title="country" target="_top">
<polygon fill="#ffffff" stroke="transparent" points="8,-43.7 8,-126.7 95,-126.7 95,-43.7 8,-43.7"/>
<polygon fill="#f5f5f5" stroke="transparent" points="8.5,-103.2 8.5,-126.2 95.5,-126.2 95.5,-103.2 8.5,-103.2"/>
<polygon fill="none" stroke="#000000" points="8.5,-103.2 8.5,-126.2 95.5,-126.2 95.5,-103.2 8.5,-103.2"/>
<text text-anchor="start" x="13.5" y="-112.3" font-family="Helvetica,sans-Serif" font-weight="bold" font-size="11.00" fill="#000000">country</text>
<text text-anchor="start" x="60.5437" y="-111.3" font-family="Helvetica,sans-Serif" font-size="11.00" fill="#000000">[table]</text>
<polygon fill="none" stroke="#000000" points="8.5,-81.2 8.5,-103.2 95.5,-103.2 95.5,-81.2 8.5,-81.2"/>
<image xlink:href="../../images/primaryKeys.png" width="11px" height="12px" preserveAspectRatio="xMinYMin meet" x="13.5" y="-98.2"/>
<text text-anchor="start" x="28.5" y="-88.3" font-family="Helvetica,sans-Serif" font-size="11.00" fill="#000000">country_id</text>
<polygon fill="none" stroke="#000000" points="8.5,-62.2 8.5,-81.2 95.5,-81.2 95.5,-62.2 8.5,-62.2"/>
<text text-anchor="start" x="11.5" y="-68.3" font-family="Helvetica,sans-Serif" font-size="11.00" fill="#000000">...</text>
<polygon fill="#ffffff" stroke="transparent" points="8.5,-43.2 8.5,-62.2 22.5,-62.2 22.5,-43.2 8.5,-43.2"/>
<polygon fill="none" stroke="#000000" points="8.5,-43.2 8.5,-62.2 22.5,-62.2 22.5,-43.2 8.5,-43.2"/>
<text text-anchor="start" x="11.5" y="-49.3" font-family="Helvetica,sans-Serif" font-size="11.00" fill="#000000"> &#160;</text>
<polygon fill="#ffffff" stroke="transparent" points="22.5,-43.2 22.5,-62.2 73.5,-62.2 73.5,-43.2 22.5,-43.2"/>
<polygon fill="none" stroke="#000000" points="22.5,-43.2 22.5,-62.2 73.5,-62.2 73.5,-43.2 22.5,-43.2"/>
<text text-anchor="start" x="25.8807" y="-49.3" font-family="Helvetica,sans-Serif" font-size="11.00" fill="#000000">109 rows</text>
<polygon fill="#ffffff" stroke="transparent" points="73.5,-43.2 73.5,-62.2 95.5,-62.2 95.5,-43.2 73.5,-43.2"/>
<polygon fill="none" stroke="#000000" points="73.5,-43.2 73.5,-62.2 95.5,-62.2 95.5,-43.2 73.5,-43.2"/>
<text text-anchor="start" x="76.9053" y="-49.3" font-family="Helvetica,sans-Serif" font-size="11.00" fill="#000000">1 &gt;</text>
</a>
</g>
</g>
<!-- city&#45;&gt;country -->
<g id="edge2" class="edge">
<title>city:w&#45;&gt;country:e</title>
<path fill="none" stroke="#000000" d="M131.776,-92.2C119.7815,-92.2 112.3229,-92.2 95.5,-92.2"/>
<polygon fill="#000000" stroke="#000000" points="138.5,-92.2001 146.5,-95.8 142.5,-92.2 146.5,-92.2 146.5,-92.2 146.5,-92.2 142.5,-92.2 146.5,-88.6 138.5,-92.2001 138.5,-92.2001"/>
<ellipse fill="none" stroke="#000000" cx="135.3" cy="-92.2001" rx="3.2" ry="3.2"/>
</g>
<!-- customer -->
<g id="node4" class="node">
<title>customer</title>
<g id="a_node4"><a xlink:href="../../tables/customer.html" xlink:title="customer" target="_top">
<polygon fill="#ffffff" stroke="transparent" points="766,-121.7 766,-182.7 854,-182.7 854,-121.7 766,-121.7"/>
<polygon fill="#f5f5f5" stroke="transparent" points="766,-159.2 766,-182.2 854,-182.2 854,-159.2 766,-159.2"/>
<polygon fill="none" stroke="#000000" points="766,-159.2 766,-182.2 854,-182.2 854,-159.2 766,-159.2"/>
<text text-anchor="start" x="770.8873" y="-168.3" font-family="Helvetica,sans-Serif" font-weight="bold" font-size="11.00" fill="#000000">customer</text>
<text text-anchor="start" x="819.5219" y="-167.3" font-family="Helvetica,sans-Serif" font-size="11.00" fill="#000000">[table]</text>
<polygon fill="none" stroke="#000000" points="766,-140.2 766,-159.2 854,-159.2 854,-140.2 766,-140.2"/>
<text text-anchor="start" x="769" y="-146.3" font-family="Helvetica,sans-Serif" font-size="11.00" fill="#000000">...</text>
<polygon fill="#ffffff" stroke="transparent" points="766,-121.2 766,-140.2 791,-140.2 791,-121.2 766,-121.2"/>
<polygon fill="none" stroke="#000000" points="766,-121.2 766,-140.2 791,-140.2 791,-121.2 766,-121.2"/>
<text text-anchor="start" x="769" y="-127.3" font-family="Helvetica,sans-Serif" font-size="11.00" fill="#000000">&lt; 2</text>
<polygon fill="#ffffff" stroke="transparent" points="791,-121.2 791,-140.2 831,-140.2 831,-121.2 791,-121.2"/>
<polygon fill="none" stroke="#000000" points="791,-121.2 791,-140.2 831,-140.2 831,-121.2 791,-121.2"/>
<text text-anchor="start" x="795.6105" y="-127.3" font-family="Helvetica,sans-Serif" font-size="11.00" fill="#000000">0 rows</text>
<polygon fill="#ffffff" stroke="transparent" points="831,-121.2 831,-140.2 854,-140.2 854,-121.2 831,-121.2"/>
<polygon fill="none" stroke="#000000" points="831,-121.2 831,-140.2 854,-140.2 854,-121.2 831,-121.2"/>
<text text-anchor="start" x="835.4053" y="-127.3" font-family="Helvetica,sans-Serif" font-size="11.00" fill="#000000">8 &gt;</text>
</a>
</g>
</g>
<!-- customer&#45;&gt;address -->
<g id="edge3" class="edge">
<title>customer:w&#45;&gt;address:e</title>
<path fill="none" stroke="#000000" d="M751.4079,-150.769C743.262,-152.675 737.396,-155.8077 725,-157.2 625.6092,-168.3634 599.9475,-164.8967 500,-161.2 481.963,-160.5329 477.5493,-158.2 459.5,-158.2"/>
<polygon fill="#000000" stroke="#000000" points="758.0458,-150.0553 766.3849,-152.7794 762.0229,-149.6277 766,-149.2 766,-149.2 766,-149.2 762.0229,-149.6277 765.6151,-145.6206 758.0458,-150.0553 758.0458,-150.0553"/>
<ellipse fill="none" stroke="#000000" cx="754.8642" cy="-150.3975" rx="3.2" ry="3.2"/>
</g>
<!-- store -->
<g id="node5" class="node">
<title>store</title>
<g id="a_node5"><a xlink:href="../../tables/store.html" xlink:title="store" target="_top">
<polygon fill="#ffffff" stroke="transparent" points="637,-85.7 637,-146.7 717,-146.7 717,-85.7 637,-85.7"/>
<polygon fill="#f5f5f5" stroke="transparent" points="637,-123.2 637,-146.2 717,-146.2 717,-123.2 637,-123.2"/>
<polygon fill="none" stroke="#000000" points="637,-123.2 637,-146.2 717,-146.2 717,-123.2 637,-123.2"/>
<text text-anchor="start" x="642" y="-132.3" font-family="Helvetica,sans-Serif" font-weight="bold" font-size="11.00" fill="#000000">store</text>
<text text-anchor="start" x="682.0437" y="-131.3" font-family="Helvetica,sans-Serif" font-size="11.00" fill="#000000">[table]</text>
<polygon fill="none" stroke="#000000" points="637,-104.2 637,-123.2 717,-123.2 717,-104.2 637,-104.2"/>
<text text-anchor="start" x="640" y="-110.3" font-family="Helvetica,sans-Serif" font-size="11.00" fill="#000000">...</text>
<polygon fill="#ffffff" stroke="transparent" points="637,-85.2 637,-104.2 658,-104.2 658,-85.2 637,-85.2"/>
<polygon fill="none" stroke="#000000" points="637,-85.2 637,-104.2 658,-104.2 658,-85.2 637,-85.2"/>
<text text-anchor="start" x="639.7026" y="-91.3" font-family="Helvetica,sans-Serif" font-size="11.00" fill="#000000">&lt; 2</text>
<polygon fill="#ffffff" stroke="transparent" points="658,-85.2 658,-104.2 696,-104.2 696,-85.2 658,-85.2"/>
<polygon fill="none" stroke="#000000" points="658,-85.2 658,-104.2 696,-104.2 696,-85.2 658,-85.2"/>
<text text-anchor="start" x="660.8053" y="-91.3" font-family="Helvetica,sans-Serif" font-size="11.00" fill="#000000">0 rows</text>
<polygon fill="#ffffff" stroke="transparent" points="696,-85.2 696,-104.2 717,-104.2 717,-85.2 696,-85.2"/>
<polygon fill="none" stroke="#000000" points="696,-85.2 696,-104.2 717,-104.2 717,-85.2 696,-85.2"/>
<text text-anchor="start" x="698.7026" y="-91.3" font-family="Helvetica,sans-Serif" font-size="11.00" fill="#000000">3 &gt;</text>
</a>
</g>
</g>
<!-- customer&#45;&gt;store -->
<g id="edge4" class="edge">
<title>customer:w&#45;&gt;store:e</title>
<path fill="none" stroke="#000000" d="M752.1983,-144.7857C739.6499,-135.1727 738.1121,-113.2 717,-113.2"/>
<polygon fill="#000000" stroke="#000000" points="758.3802,-146.7629 764.9033,-152.6289 762.1901,-147.9814 766,-149.2 766,-149.2 766,-149.2 762.1901,-147.9814 767.0967,-145.7711 758.3802,-146.7629 758.3802,-146.7629"/>
<ellipse fill="none" stroke="#000000" cx="755.3323" cy="-145.788" rx="3.2" ry="3.2"/>
</g>
<!-- store&#45;&gt;address -->
<g id="edge7" class="edge">
<title>store:w&#45;&gt;address:e</title>
<path fill="none" stroke="#000000" d="M623.052,-117.5229C614.031,-124.5123 611.4458,-138.1237 596,-144.2 539.2486,-166.5257 520.4849,-158.2 459.5,-158.2"/>
<polygon fill="#000000" stroke="#000000" points="629.3586,-115.5684 638.0658,-116.6386 633.1793,-114.3842 637,-113.2 637,-113.2 637,-113.2 633.1793,-114.3842 635.9342,-109.7614 629.3586,-115.5684 629.3586,-115.5684"/>
<ellipse fill="none" stroke="#000000" cx="626.302" cy="-116.5157" rx="3.2" ry="3.2"/>
</g>
<!-- staff -->
<g id="node6" class="node">
<title>staff</title>
<g id="a_node6"><a xlink:href="../../tables/staff.html" xlink:title="staff" target="_top">
<polygon fill="#ffffff" stroke="transparent" points="508,-72.7 508,-133.7 588,-133.7 588,-72.7 508,-72.7"/>
<polygon fill="#f5f5f5" stroke="transparent" points="508,-110.2 508,-133.2 588,-133.2 588,-110.2 508,-110.2"/>
<polygon fill="none" stroke="#000000" points="508,-110.2 508,-133.2 588,-133.2 588,-110.2 508,-110.2"/>
<text text-anchor="start" x="513" y="-119.3" font-family="Helvetica,sans-Serif" font-weight="bold" font-size="11.00" fill="#000000">staff</text>
<text text-anchor="start" x="553.0437" y="-118.3" font-family="Helvetica,sans-Serif" font-size="11.00" fill="#000000">[table]</text>
<polygon fill="none" stroke="#000000" points="508,-91.2 508,-110.2 588,-110.2 588,-91.2 508,-91.2"/>
<text text-anchor="start" x="511" y="-97.3" font-family="Helvetica,sans-Serif" font-size="11.00" fill="#000000">...</text>
<polygon fill="#ffffff" stroke="transparent" points="508,-72.2 508,-91.2 529,-91.2 529,-72.2 508,-72.2"/>
<polygon fill="none" stroke="#000000" points="508,-72.2 508,-91.2 529,-91.2 529,-72.2 508,-72.2"/>
<text text-anchor="start" x="510.7027" y="-78.3" font-family="Helvetica,sans-Serif" font-size="11.00" fill="#000000">&lt; 2</text>
<polygon fill="#ffffff" stroke="transparent" points="529,-72.2 529,-91.2 567,-91.2 567,-72.2 529,-72.2"/>
<polygon fill="none" stroke="#000000" points="529,-72.2 529,-91.2 567,-91.2 567,-72.2 529,-72.2"/>
<text text-anchor="start" x="531.8053" y="-78.3" font-family="Helvetica,sans-Serif" font-size="11.00" fill="#000000">0 rows</text>
<polygon fill="#ffffff" stroke="transparent" points="567,-72.2 567,-91.2 588,-91.2 588,-72.2 567,-72.2"/>
<polygon fill="none" stroke="#000000" points="567,-72.2 567,-91.2 588,-91.2 588,-72.2 567,-72.2"/>
<text text-anchor="start" x="569.7026" y="-78.3" font-family="Helvetica,sans-Serif" font-size="11.00" fill="#000000">9 &gt;</text>
</a>
</g>
</g>
<!-- store&#45;&gt;staff -->
<g id="edge8" class="edge">
<title>store:w&#45;&gt;staff:e</title>
<path fill="none" stroke="#000000" d="M626.4396,-112.0916C612.4534,-108.9479 606.4826,-100.2 588,-100.2"/>
<polygon fill="#000000" stroke="#000000" points="636.6219,-109.1383 635.7868,-117.0946 634.1955,-116.9276 635.0307,-108.9713 636.6219,-109.1383"/>
<polyline fill="none" stroke="#000000" points="637,-113.2 633.0219,-112.7824 "/>
<ellipse fill="none" stroke="#000000" cx="629.8393" cy="-112.4484" rx="3.2" ry="3.2"/>
</g>
<!-- staff&#45;&gt;address -->
<g id="edge5" class="edge">
<title>staff:w&#45;&gt;address:e</title>
<path fill="none" stroke="#000000" d="M494.3458,-105.145C479.4307,-119.1711 487.0646,-158.2 459.5,-158.2"/>
<polygon fill="#000000" stroke="#000000" points="500.4781,-102.9242 509.2259,-103.5849 504.239,-101.5621 508,-100.2 508,-100.2 508,-100.2 504.239,-101.5621 506.7741,-96.8151 500.4781,-102.9242 500.4781,-102.9242"/>
<ellipse fill="none" stroke="#000000" cx="497.4693" cy="-104.0139" rx="3.2" ry="3.2"/>
</g>
<!-- staff&#45;&gt;store -->
<g id="edge6" class="edge">
<title>staff:w&#45;&gt;store:e</title>
<path fill="none" stroke="#000000" d="M521.75,-95.2781C546.5,-86.4188 596,-68.7 596,-68.7 650.0098,-71.593 680.855,-41.4636 717,-81.7 726.3558,-92.1148 731,-113.2 717,-113.2"/>
<polygon fill="#000000" stroke="#000000" points="515.532,-97.5039 506.7867,-96.8106 511.766,-98.8519 508,-100.2 508,-100.2 508,-100.2 511.766,-98.8519 509.2133,-103.5894 515.532,-97.5039 515.532,-97.5039"/>
<ellipse fill="none" stroke="#000000" cx="518.5448" cy="-96.4254" rx="3.2" ry="3.2"/>
</g>
</g>
</svg>
