<?xml version="1.0" encoding="UTF-8" standalone="no"?>
<!DOCTYPE svg PUBLIC "-//W3C//DTD SVG 1.1//EN"
 "http://www.w3.org/Graphics/SVG/1.1/DTD/svg11.dtd">
<!-- Generated by graphviz version 2.40.1 (20161225.0304)
 -->
<!-- Title: oneDegreeRelationshipsDiagram Pages: 1 -->
<svg width="335pt" height="183pt"
 viewBox="0.00 0.00 335.00 182.70" xmlns="http://www.w3.org/2000/svg" xmlns:xlink="http://www.w3.org/1999/xlink">
<g id="graph0" class="graph" transform="scale(1 1) rotate(0) translate(4 178.7)">
<title>oneDegreeRelationshipsDiagram</title>
<polygon fill="#ffffff" stroke="transparent" points="-4,4 -4,-178.7 331,-178.7 331,4 -4,4"/>
<text text-anchor="middle" x="72.4936" y="-7.3" font-family="Helvetica,sans-Serif" font-size="11.00" fill="#000000">Generated by SchemaSpy</text>
<!-- city -->
<g id="node1" class="node">
<title>city</title>
<g id="a_node1"><a xlink:href="../../tables/city.html" xlink:title="city" target="_top">
<polygon fill="#ffffff" stroke="transparent" points="232,-65.7 232,-170.7 319,-170.7 319,-65.7 232,-65.7"/>
<polygon fill="#f5f5f5" stroke="transparent" points="232.5,-147.2 232.5,-170.2 319.5,-170.2 319.5,-147.2 232.5,-147.2"/>
<polygon fill="none" stroke="#000000" points="232.5,-147.2 232.5,-170.2 319.5,-170.2 319.5,-147.2 232.5,-147.2"/>
<text text-anchor="start" x="237.5" y="-156.3" font-family="Helvetica,sans-Serif" font-weight="bold" font-size="11.00" fill="#000000">city</text>
<text text-anchor="start" x="284.5437" y="-155.3" font-family="Helvetica,sans-Serif" font-size="11.00" fill="#000000">[table]</text>
<polygon fill="none" stroke="#000000" points="232.5,-125.2 232.5,-147.2 319.5,-147.2 319.5,-125.2 232.5,-125.2"/>
<image xlink:href="../../images/primaryKeys.png" width="11px" height="12px" preserveAspectRatio="xMinYMin meet" x="237.5" y="-142.2"/>
<text text-anchor="start" x="252.5" y="-132.3" font-family="Helvetica,sans-Serif" font-size="11.00" fill="#000000">city_id</text>
<polygon fill="#ffffff" stroke="transparent" points="232.5,-103.2 232.5,-125.2 319.5,-125.2 319.5,-103.2 232.5,-103.2"/>
<polygon fill="none" stroke="#000000" points="232.5,-103.2 232.5,-125.2 319.5,-125.2 319.5,-103.2 232.5,-103.2"/>
<image xlink:href="../../images/foreignKeys.png" width="11px" height="12px" preserveAspectRatio="xMinYMin meet" x="237.5" y="-120.2"/>
<text text-anchor="start" x="252.5" y="-110.3" font-family="Helvetica,sans-Serif" font-size="11.00" fill="#000000">country_id</text>
<polygon fill="none" stroke="#000000" points="232.5,-84.2 232.5,-103.2 319.5,-103.2 319.5,-84.2 232.5,-84.2"/>
<text text-anchor="start" x="235.5" y="-90.3" font-family="Helvetica,sans-Serif" font-size="11.00" fill="#000000">...</text>
<polygon fill="#ffffff" stroke="transparent" points="232.5,-65.2 232.5,-84.2 256.5,-84.2 256.5,-65.2 232.5,-65.2"/>
<polygon fill="none" stroke="#000000" points="232.5,-65.2 232.5,-84.2 256.5,-84.2 256.5,-65.2 232.5,-65.2"/>
<text text-anchor="start" x="235.5" y="-71.3" font-family="Helvetica,sans-Serif" font-size="11.00" fill="#000000">&lt; 1</text>
<polygon fill="#ffffff" stroke="transparent" points="256.5,-65.2 256.5,-84.2 296.5,-84.2 296.5,-65.2 256.5,-65.2"/>
<polygon fill="none" stroke="#000000" points="256.5,-65.2 256.5,-84.2 296.5,-84.2 296.5,-65.2 256.5,-65.2"/>
<text text-anchor="start" x="261.1105" y="-71.3" font-family="Helvetica,sans-Serif" font-size="11.00" fill="#000000">0 rows</text>
<polygon fill="#ffffff" stroke="transparent" points="296.5,-65.2 296.5,-84.2 319.5,-84.2 319.5,-65.2 296.5,-65.2"/>
<polygon fill="none" stroke="#000000" points="296.5,-65.2 296.5,-84.2 319.5,-84.2 319.5,-65.2 296.5,-65.2"/>
<text text-anchor="start" x="300.9053" y="-71.3" font-family="Helvetica,sans-Serif" font-size="11.00" fill="#000000">1 &gt;</text>
</a>
</g>
</g>
<!-- country -->
<g id="node2" class="node">
<title>country</title>
<g id="a_node2"><a xlink:href="../../tables/country.html" xlink:title="country" target="_top">
<polygon fill="#ffffff" stroke="transparent" points="8,-38.2 8,-150.2 183,-150.2 183,-38.2 8,-38.2"/>
<polygon fill="#f5f5f5" stroke="transparent" points="10.5,-125.2 10.5,-148.2 181.5,-148.2 181.5,-125.2 10.5,-125.2"/>
<polygon fill="none" stroke="#000000" points="10.5,-125.2 10.5,-148.2 181.5,-148.2 181.5,-125.2 10.5,-125.2"/>
<text text-anchor="start" x="15.5" y="-134.3" font-family="Helvetica,sans-Serif" font-weight="bold" font-size="11.00" fill="#000000">country</text>
<text text-anchor="start" x="146.5437" y="-133.3" font-family="Helvetica,sans-Serif" font-size="11.00" fill="#000000">[table]</text>
<polygon fill="none" stroke="#000000" points="10.5,-103.2 10.5,-125.2 97.5,-125.2 97.5,-103.2 10.5,-103.2"/>
<image xlink:href="../../images/primaryKeys.png" width="11px" height="12px" preserveAspectRatio="xMinYMin meet" x="15.5" y="-120.2"/>
<text text-anchor="start" x="30.5" y="-110.3" font-family="Helvetica,sans-Serif" font-size="11.00" fill="#000000">country_id</text>
<polygon fill="none" stroke="#000000" points="97.5,-103.2 97.5,-125.2 181.5,-125.2 181.5,-103.2 97.5,-103.2"/>
<text text-anchor="start" x="100.5" y="-110.9" font-family="Helvetica,sans-Serif" font-size="11.00" fill="#000000">serial[10]</text>
<polygon fill="none" stroke="#000000" points="10.5,-81.2 10.5,-103.2 97.5,-103.2 97.5,-81.2 10.5,-81.2"/>
<text text-anchor="start" x="30.5" y="-88.3" font-family="Helvetica,sans-Serif" font-size="11.00" fill="#000000">country</text>
<polygon fill="none" stroke="#000000" points="97.5,-81.2 97.5,-103.2 181.5,-103.2 181.5,-81.2 97.5,-81.2"/>
<text text-anchor="start" x="100.5" y="-88.9" font-family="Helvetica,sans-Serif" font-size="11.00" fill="#000000">varchar[50]</text>
<polygon fill="none" stroke="#000000" points="10.5,-59.2 10.5,-81.2 97.5,-81.2 97.5,-59.2 10.5,-59.2"/>
<text text-anchor="start" x="30.5" y="-66.3" font-family="Helvetica,sans-Serif" font-size="11.00" fill="#000000">last_update</text>
<polygon fill="none" stroke="#000000" points="97.5,-59.2 97.5,-81.2 181.5,-81.2 181.5,-59.2 97.5,-59.2"/>
<text text-anchor="start" x="100.3807" y="-66.9" font-family="Helvetica,sans-Serif" font-size="11.00" fill="#000000">timestamp[29,6]</text>
<polygon fill="#ffffff" stroke="transparent" points="10.5,-40.2 10.5,-59.2 45.5,-59.2 45.5,-40.2 10.5,-40.2"/>
<polygon fill="none" stroke="#000000" points="10.5,-40.2 10.5,-59.2 45.5,-59.2 45.5,-40.2 10.5,-40.2"/>
<text text-anchor="start" x="13.5" y="-46.3" font-family="Helvetica,sans-Serif" font-size="11.00" fill="#000000">&lt; 0</text>
<polygon fill="#ffffff" stroke="transparent" points="45.5,-40.2 45.5,-59.2 97.5,-59.2 97.5,-40.2 45.5,-40.2"/>
<polygon fill="none" stroke="#000000" points="45.5,-40.2 45.5,-59.2 97.5,-59.2 97.5,-40.2 45.5,-40.2"/>
<text text-anchor="start" x="62.1105" y="-46.3" font-family="Helvetica,sans-Serif" font-size="11.00" fill="#000000">0 rows</text>
<polygon fill="#ffffff" stroke="transparent" points="97.5,-40.2 97.5,-59.2 181.5,-59.2 181.5,-40.2 97.5,-40.2"/>
<polygon fill="none" stroke="#000000" points="97.5,-40.2 97.5,-59.2 181.5,-59.2 181.5,-40.2 97.5,-40.2"/>
<text text-anchor="start" x="162.9053" y="-46.3" font-family="Helvetica,sans-Serif" font-size="11.00" fill="#000000">1 &gt;</text>
<polygon fill="none" stroke="#000000" stroke-width="2" points="9,-39.2 9,-149.2 182,-149.2 182,-39.2 9,-39.2"/>
</a>
</g>
</g>
<!-- city&#45;&gt;country -->
<g id="edge1" class="edge">
<title>city:w&#45;&gt;country:e</title>
<path fill="none" stroke="#000000" d="M217.776,-114.2C205.7815,-114.2 198.3229,-114.2 181.5,-114.2"/>
<polygon fill="#000000" stroke="#000000" points="224.5,-114.2001 232.5,-117.8 228.5,-114.2 232.5,-114.2 232.5,-114.2 232.5,-114.2 228.5,-114.2 232.5,-110.6 224.5,-114.2001 224.5,-114.2001"/>
<ellipse fill="none" stroke="#000000" cx="221.3" cy="-114.2001" rx="3.2" ry="3.2"/>
</g>
</g>
</svg>
