<?xml version="1.0" encoding="UTF-8" standalone="no"?>
<!DOCTYPE svg PUBLIC "-//W3C//DTD SVG 1.1//EN"
 "http://www.w3.org/Graphics/SVG/1.1/DTD/svg11.dtd">
<!-- Generated by graphviz version 2.40.1 (20161225.0304)
 -->
<!-- Title: oneDegreeRelationshipsDiagram Pages: 1 -->
<svg width="635pt" height="392pt"
 viewBox="0.00 0.00 635.00 391.70" xmlns="http://www.w3.org/2000/svg" xmlns:xlink="http://www.w3.org/1999/xlink">
<g id="graph0" class="graph" transform="scale(1 1) rotate(0) translate(4 387.7)">
<title>oneDegreeRelationshipsDiagram</title>
<polygon fill="#ffffff" stroke="transparent" points="-4,4 -4,-387.7 631,-387.7 631,4 -4,4"/>
<text text-anchor="middle" x="72.4936" y="-7.3" font-family="Helvetica,sans-Serif" font-size="11.00" fill="#000000">Generated by SchemaSpy</text>
<!-- customer -->
<g id="node1" class="node">
<title>customer</title>
<g id="a_node1"><a xlink:href="../../tables/customer.html" xlink:title="customer" target="_top">
<polygon fill="#ffffff" stroke="transparent" points="148,-38.2 148,-304.2 328,-304.2 328,-38.2 148,-38.2"/>
<polygon fill="#f5f5f5" stroke="transparent" points="150,-279.2 150,-302.2 326,-302.2 326,-279.2 150,-279.2"/>
<polygon fill="none" stroke="#000000" points="150,-279.2 150,-302.2 326,-302.2 326,-279.2 150,-279.2"/>
<text text-anchor="start" x="155" y="-288.3" font-family="Helvetica,sans-Serif" font-weight="bold" font-size="11.00" fill="#000000">customer</text>
<text text-anchor="start" x="291.0437" y="-287.3" font-family="Helvetica,sans-Serif" font-size="11.00" fill="#000000">[table]</text>
<polygon fill="none" stroke="#000000" points="150,-257.2 150,-279.2 242,-279.2 242,-257.2 150,-257.2"/>
<image xlink:href="../../images/primaryKeys.png" width="11px" height="12px" preserveAspectRatio="xMinYMin meet" x="155" y="-274.2"/>
<text text-anchor="start" x="170" y="-264.3" font-family="Helvetica,sans-Serif" font-size="11.00" fill="#000000">customer_id</text>
<polygon fill="none" stroke="#000000" points="242,-257.2 242,-279.2 326,-279.2 326,-257.2 242,-257.2"/>
<text text-anchor="start" x="245" y="-264.9" font-family="Helvetica,sans-Serif" font-size="11.00" fill="#000000">serial[10]</text>
<polygon fill="#ffffff" stroke="transparent" points="150,-235.2 150,-257.2 242,-257.2 242,-235.2 150,-235.2"/>
<polygon fill="none" stroke="#000000" points="150,-235.2 150,-257.2 242,-257.2 242,-235.2 150,-235.2"/>
<text text-anchor="start" x="170" y="-242.3" font-family="Helvetica,sans-Serif" font-size="11.00" fill="#000000">store_id</text>
<polygon fill="none" stroke="#000000" points="242,-235.2 242,-257.2 326,-257.2 326,-235.2 242,-235.2"/>
<text text-anchor="start" x="245" y="-242.9" font-family="Helvetica,sans-Serif" font-size="11.00" fill="#000000">int2[5]</text>
<polygon fill="none" stroke="#000000" points="150,-213.2 150,-235.2 242,-235.2 242,-213.2 150,-213.2"/>
<text text-anchor="start" x="170" y="-220.3" font-family="Helvetica,sans-Serif" font-size="11.00" fill="#000000">first_name</text>
<polygon fill="none" stroke="#000000" points="242,-213.2 242,-235.2 326,-235.2 326,-213.2 242,-213.2"/>
<text text-anchor="start" x="245" y="-220.9" font-family="Helvetica,sans-Serif" font-size="11.00" fill="#000000">varchar[45]</text>
<polygon fill="#ffffff" stroke="transparent" points="150,-191.2 150,-213.2 242,-213.2 242,-191.2 150,-191.2"/>
<polygon fill="none" stroke="#000000" points="150,-191.2 150,-213.2 242,-213.2 242,-191.2 150,-191.2"/>
<text text-anchor="start" x="170" y="-198.3" font-family="Helvetica,sans-Serif" font-size="11.00" fill="#000000">last_name</text>
<polygon fill="none" stroke="#000000" points="242,-191.2 242,-213.2 326,-213.2 326,-191.2 242,-191.2"/>
<text text-anchor="start" x="245" y="-198.9" font-family="Helvetica,sans-Serif" font-size="11.00" fill="#000000">varchar[45]</text>
<polygon fill="none" stroke="#000000" points="150,-169.2 150,-191.2 242,-191.2 242,-169.2 150,-169.2"/>
<text text-anchor="start" x="170" y="-176.3" font-family="Helvetica,sans-Serif" font-size="11.00" fill="#000000">email</text>
<polygon fill="none" stroke="#000000" points="242,-169.2 242,-191.2 326,-191.2 326,-169.2 242,-169.2"/>
<text text-anchor="start" x="245" y="-176.9" font-family="Helvetica,sans-Serif" font-size="11.00" fill="#000000">varchar[50]</text>
<polygon fill="#ffffff" stroke="transparent" points="150,-147.2 150,-169.2 242,-169.2 242,-147.2 150,-147.2"/>
<polygon fill="none" stroke="#000000" points="150,-147.2 150,-169.2 242,-169.2 242,-147.2 150,-147.2"/>
<image xlink:href="../../images/foreignKeys.png" width="11px" height="12px" preserveAspectRatio="xMinYMin meet" x="155" y="-164.2"/>
<text text-anchor="start" x="170" y="-154.3" font-family="Helvetica,sans-Serif" font-size="11.00" fill="#000000">address_id</text>
<polygon fill="none" stroke="#000000" points="242,-147.2 242,-169.2 326,-169.2 326,-147.2 242,-147.2"/>
<text text-anchor="start" x="245" y="-154.9" font-family="Helvetica,sans-Serif" font-size="11.00" fill="#000000">int2[5]</text>
<polygon fill="none" stroke="#000000" points="150,-125.2 150,-147.2 242,-147.2 242,-125.2 150,-125.2"/>
<text text-anchor="start" x="170" y="-132.3" font-family="Helvetica,sans-Serif" font-size="11.00" fill="#000000">activebool</text>
<polygon fill="none" stroke="#000000" points="242,-125.2 242,-147.2 326,-147.2 326,-125.2 242,-125.2"/>
<text text-anchor="start" x="245" y="-132.9" font-family="Helvetica,sans-Serif" font-size="11.00" fill="#000000">bool[1]</text>
<polygon fill="none" stroke="#000000" points="150,-103.2 150,-125.2 242,-125.2 242,-103.2 150,-103.2"/>
<text text-anchor="start" x="170" y="-110.3" font-family="Helvetica,sans-Serif" font-size="11.00" fill="#000000">create_date</text>
<polygon fill="none" stroke="#000000" points="242,-103.2 242,-125.2 326,-125.2 326,-103.2 242,-103.2"/>
<text text-anchor="start" x="245" y="-110.9" font-family="Helvetica,sans-Serif" font-size="11.00" fill="#000000">date[13]</text>
<polygon fill="none" stroke="#000000" points="150,-81.2 150,-103.2 242,-103.2 242,-81.2 150,-81.2"/>
<text text-anchor="start" x="170" y="-88.3" font-family="Helvetica,sans-Serif" font-size="11.00" fill="#000000">last_update</text>
<polygon fill="none" stroke="#000000" points="242,-81.2 242,-103.2 326,-103.2 326,-81.2 242,-81.2"/>
<text text-anchor="start" x="244.8807" y="-88.9" font-family="Helvetica,sans-Serif" font-size="11.00" fill="#000000">timestamp[29,6]</text>
<polygon fill="none" stroke="#000000" points="150,-59.2 150,-81.2 242,-81.2 242,-59.2 150,-59.2"/>
<text text-anchor="start" x="170" y="-66.3" font-family="Helvetica,sans-Serif" font-size="11.00" fill="#000000">active</text>
<polygon fill="none" stroke="#000000" points="242,-59.2 242,-81.2 326,-81.2 326,-59.2 242,-59.2"/>
<text text-anchor="start" x="245" y="-66.9" font-family="Helvetica,sans-Serif" font-size="11.00" fill="#000000">int4[10]</text>
<polygon fill="#ffffff" stroke="transparent" points="150,-40.2 150,-59.2 187,-59.2 187,-40.2 150,-40.2"/>
<polygon fill="none" stroke="#000000" points="150,-40.2 150,-59.2 187,-59.2 187,-40.2 150,-40.2"/>
<text text-anchor="start" x="153" y="-46.3" font-family="Helvetica,sans-Serif" font-size="11.00" fill="#000000">&lt; 1</text>
<polygon fill="#ffffff" stroke="transparent" points="187,-40.2 187,-59.2 242,-59.2 242,-40.2 187,-40.2"/>
<polygon fill="none" stroke="#000000" points="187,-40.2 187,-59.2 242,-59.2 242,-40.2 187,-40.2"/>
<text text-anchor="start" x="206.6105" y="-46.3" font-family="Helvetica,sans-Serif" font-size="11.00" fill="#000000">0 rows</text>
<polygon fill="#ffffff" stroke="transparent" points="242,-40.2 242,-59.2 326,-59.2 326,-40.2 242,-40.2"/>
<polygon fill="none" stroke="#000000" points="242,-40.2 242,-59.2 326,-59.2 326,-40.2 242,-40.2"/>
<text text-anchor="start" x="307.4053" y="-46.3" font-family="Helvetica,sans-Serif" font-size="11.00" fill="#000000">2 &gt;</text>
<polygon fill="none" stroke="#000000" stroke-width="2" points="149,-39.2 149,-303.2 327,-303.2 327,-39.2 149,-39.2"/>
</a>
</g>
</g>
<!-- address -->
<g id="node2" class="node">
<title>address</title>
<g id="a_node2"><a xlink:href="../../tables/address.html" xlink:title="address" target="_top">
<polygon fill="#ffffff" stroke="transparent" points="8,-87.7 8,-192.7 99,-192.7 99,-87.7 8,-87.7"/>
<polygon fill="#f5f5f5" stroke="transparent" points="8.5,-169.2 8.5,-192.2 99.5,-192.2 99.5,-169.2 8.5,-169.2"/>
<polygon fill="none" stroke="#000000" points="8.5,-169.2 8.5,-192.2 99.5,-192.2 99.5,-169.2 8.5,-169.2"/>
<text text-anchor="start" x="13.5" y="-178.3" font-family="Helvetica,sans-Serif" font-weight="bold" font-size="11.00" fill="#000000">address</text>
<text text-anchor="start" x="64.5437" y="-177.3" font-family="Helvetica,sans-Serif" font-size="11.00" fill="#000000">[table]</text>
<polygon fill="none" stroke="#000000" points="8.5,-147.2 8.5,-169.2 99.5,-169.2 99.5,-147.2 8.5,-147.2"/>
<image xlink:href="../../images/primaryKeys.png" width="11px" height="12px" preserveAspectRatio="xMinYMin meet" x="13.5" y="-164.2"/>
<text text-anchor="start" x="28.5" y="-154.3" font-family="Helvetica,sans-Serif" font-size="11.00" fill="#000000">address_id</text>
<polygon fill="#ffffff" stroke="transparent" points="8.5,-125.2 8.5,-147.2 99.5,-147.2 99.5,-125.2 8.5,-125.2"/>
<polygon fill="none" stroke="#000000" points="8.5,-125.2 8.5,-147.2 99.5,-147.2 99.5,-125.2 8.5,-125.2"/>
<image xlink:href="../../images/foreignKeys.png" width="11px" height="12px" preserveAspectRatio="xMinYMin meet" x="13.5" y="-142.2"/>
<text text-anchor="start" x="28.5" y="-132.3" font-family="Helvetica,sans-Serif" font-size="11.00" fill="#000000">city_id</text>
<polygon fill="none" stroke="#000000" points="8.5,-106.2 8.5,-125.2 99.5,-125.2 99.5,-106.2 8.5,-106.2"/>
<text text-anchor="start" x="11.5" y="-112.3" font-family="Helvetica,sans-Serif" font-size="11.00" fill="#000000">...</text>
<polygon fill="#ffffff" stroke="transparent" points="8.5,-87.2 8.5,-106.2 34.5,-106.2 34.5,-87.2 8.5,-87.2"/>
<polygon fill="none" stroke="#000000" points="8.5,-87.2 8.5,-106.2 34.5,-106.2 34.5,-87.2 8.5,-87.2"/>
<text text-anchor="start" x="11.5" y="-93.3" font-family="Helvetica,sans-Serif" font-size="11.00" fill="#000000">&lt; 1</text>
<polygon fill="#ffffff" stroke="transparent" points="34.5,-87.2 34.5,-106.2 75.5,-106.2 75.5,-87.2 34.5,-87.2"/>
<polygon fill="none" stroke="#000000" points="34.5,-87.2 34.5,-106.2 75.5,-106.2 75.5,-87.2 34.5,-87.2"/>
<text text-anchor="start" x="40.1105" y="-93.3" font-family="Helvetica,sans-Serif" font-size="11.00" fill="#000000">0 rows</text>
<polygon fill="#ffffff" stroke="transparent" points="75.5,-87.2 75.5,-106.2 99.5,-106.2 99.5,-87.2 75.5,-87.2"/>
<polygon fill="none" stroke="#000000" points="75.5,-87.2 75.5,-106.2 99.5,-106.2 99.5,-87.2 75.5,-87.2"/>
<text text-anchor="start" x="80.9053" y="-93.3" font-family="Helvetica,sans-Serif" font-size="11.00" fill="#000000">3 &gt;</text>
</a>
</g>
</g>
<!-- customer&#45;&gt;address -->
<g id="edge1" class="edge">
<title>customer:w&#45;&gt;address:e</title>
<path fill="none" stroke="#000000" d="M135.4203,-158.2C123.5435,-158.2 116.158,-158.2 99.5,-158.2"/>
<polygon fill="#000000" stroke="#000000" points="142,-158.2001 150,-161.8 146,-158.2 150,-158.2 150,-158.2 150,-158.2 146,-158.2 150,-154.6 142,-158.2001 142,-158.2001"/>
<ellipse fill="none" stroke="#000000" cx="138.8" cy="-158.2001" rx="3.2" ry="3.2"/>
</g>
<!-- payment -->
<g id="node3" class="node">
<title>payment</title>
<g id="a_node3"><a xlink:href="../../tables/payment.html" xlink:title="payment" target="_top">
<polygon fill="#ffffff" stroke="transparent" points="518,-230.7 518,-379.7 619,-379.7 619,-230.7 518,-230.7"/>
<polygon fill="#f5f5f5" stroke="transparent" points="518.5,-356.2 518.5,-379.2 619.5,-379.2 619.5,-356.2 518.5,-356.2"/>
<polygon fill="none" stroke="#000000" points="518.5,-356.2 518.5,-379.2 619.5,-379.2 619.5,-356.2 518.5,-356.2"/>
<text text-anchor="start" x="523.5" y="-365.3" font-family="Helvetica,sans-Serif" font-weight="bold" font-size="11.00" fill="#000000">payment</text>
<text text-anchor="start" x="584.5437" y="-364.3" font-family="Helvetica,sans-Serif" font-size="11.00" fill="#000000">[table]</text>
<polygon fill="none" stroke="#000000" points="518.5,-334.2 518.5,-356.2 619.5,-356.2 619.5,-334.2 518.5,-334.2"/>
<image xlink:href="../../images/primaryKeys.png" width="11px" height="12px" preserveAspectRatio="xMinYMin meet" x="523.5" y="-351.2"/>
<text text-anchor="start" x="538.5" y="-341.3" font-family="Helvetica,sans-Serif" font-size="11.00" fill="#000000">payment_id</text>
<polygon fill="#ffffff" stroke="transparent" points="518.5,-312.2 518.5,-334.2 619.5,-334.2 619.5,-312.2 518.5,-312.2"/>
<polygon fill="none" stroke="#000000" points="518.5,-312.2 518.5,-334.2 619.5,-334.2 619.5,-312.2 518.5,-312.2"/>
<image xlink:href="../../images/foreignKeys.png" width="11px" height="12px" preserveAspectRatio="xMinYMin meet" x="523.5" y="-329.2"/>
<text text-anchor="start" x="538.5" y="-319.3" font-family="Helvetica,sans-Serif" font-size="11.00" fill="#000000">customer_id</text>
<polygon fill="#ffffff" stroke="transparent" points="518.5,-290.2 518.5,-312.2 619.5,-312.2 619.5,-290.2 518.5,-290.2"/>
<polygon fill="none" stroke="#000000" points="518.5,-290.2 518.5,-312.2 619.5,-312.2 619.5,-290.2 518.5,-290.2"/>
<image xlink:href="../../images/foreignKeys.png" width="11px" height="12px" preserveAspectRatio="xMinYMin meet" x="523.5" y="-307.2"/>
<text text-anchor="start" x="538.5" y="-297.3" font-family="Helvetica,sans-Serif" font-size="11.00" fill="#000000">staff_id</text>
<polygon fill="#ffffff" stroke="transparent" points="518.5,-268.2 518.5,-290.2 619.5,-290.2 619.5,-268.2 518.5,-268.2"/>
<polygon fill="none" stroke="#000000" points="518.5,-268.2 518.5,-290.2 619.5,-290.2 619.5,-268.2 518.5,-268.2"/>
<image xlink:href="../../images/foreignKeys.png" width="11px" height="12px" preserveAspectRatio="xMinYMin meet" x="523.5" y="-285.2"/>
<text text-anchor="start" x="538.5" y="-275.3" font-family="Helvetica,sans-Serif" font-size="11.00" fill="#000000">rental_id</text>
<polygon fill="none" stroke="#000000" points="518.5,-249.2 518.5,-268.2 619.5,-268.2 619.5,-249.2 518.5,-249.2"/>
<text text-anchor="start" x="521.5" y="-255.3" font-family="Helvetica,sans-Serif" font-size="11.00" fill="#000000">...</text>
<polygon fill="#ffffff" stroke="transparent" points="518.5,-230.2 518.5,-249.2 554.5,-249.2 554.5,-230.2 518.5,-230.2"/>
<polygon fill="none" stroke="#000000" points="518.5,-230.2 518.5,-249.2 554.5,-249.2 554.5,-230.2 518.5,-230.2"/>
<text text-anchor="start" x="521.5" y="-236.3" font-family="Helvetica,sans-Serif" font-size="11.00" fill="#000000">&lt; 3</text>
<polygon fill="#ffffff" stroke="transparent" points="554.5,-230.2 554.5,-249.2 599.5,-249.2 599.5,-230.2 554.5,-230.2"/>
<polygon fill="none" stroke="#000000" points="554.5,-230.2 554.5,-249.2 599.5,-249.2 599.5,-230.2 554.5,-230.2"/>
<text text-anchor="start" x="564.1105" y="-236.3" font-family="Helvetica,sans-Serif" font-size="11.00" fill="#000000">0 rows</text>
<polygon fill="#ffffff" stroke="transparent" points="599.5,-230.2 599.5,-249.2 619.5,-249.2 619.5,-230.2 599.5,-230.2"/>
<polygon fill="none" stroke="#000000" points="599.5,-230.2 599.5,-249.2 619.5,-249.2 619.5,-230.2 599.5,-230.2"/>
<text text-anchor="start" x="610.3862" y="-236.3" font-family="Helvetica,sans-Serif" font-size="11.00" fill="#000000"> &#160;</text>
</a>
</g>
</g>
<!-- payment&#45;&gt;customer -->
<g id="edge2" class="edge">
<title>payment:w&#45;&gt;customer:e</title>
<path fill="none" stroke="#000000" d="M504.0259,-323.5615C448.285,-326.352 424.4414,-343.6618 369,-317.2 342.8515,-304.7195 354.9742,-268.2 326,-268.2"/>
<polygon fill="#000000" stroke="#000000" points="510.5025,-323.3998 518.5899,-326.7989 514.5012,-323.2999 518.5,-323.2 518.5,-323.2 518.5,-323.2 514.5012,-323.2999 518.4101,-319.6011 510.5025,-323.3998 510.5025,-323.3998"/>
<ellipse fill="none" stroke="#000000" cx="507.3035" cy="-323.4797" rx="3.2" ry="3.2"/>
</g>
<!-- rental -->
<g id="node4" class="node">
<title>rental</title>
<g id="a_node4"><a xlink:href="../../tables/rental.html" xlink:title="rental" target="_top">
<polygon fill="#ffffff" stroke="transparent" points="377,-135.7 377,-306.7 469,-306.7 469,-135.7 377,-135.7"/>
<polygon fill="#f5f5f5" stroke="transparent" points="377,-283.2 377,-306.2 469,-306.2 469,-283.2 377,-283.2"/>
<polygon fill="none" stroke="#000000" points="377,-283.2 377,-306.2 469,-306.2 469,-283.2 377,-283.2"/>
<text text-anchor="start" x="382" y="-292.3" font-family="Helvetica,sans-Serif" font-weight="bold" font-size="11.00" fill="#000000">rental</text>
<text text-anchor="start" x="434.0437" y="-291.3" font-family="Helvetica,sans-Serif" font-size="11.00" fill="#000000">[table]</text>
<polygon fill="none" stroke="#000000" points="377,-261.2 377,-283.2 469,-283.2 469,-261.2 377,-261.2"/>
<image xlink:href="../../images/primaryKeys.png" width="11px" height="12px" preserveAspectRatio="xMinYMin meet" x="382" y="-278.2"/>
<text text-anchor="start" x="397" y="-268.3" font-family="Helvetica,sans-Serif" font-size="11.00" fill="#000000">rental_id</text>
<polygon fill="#ffffff" stroke="transparent" points="377,-239.2 377,-261.2 469,-261.2 469,-239.2 377,-239.2"/>
<polygon fill="none" stroke="#000000" points="377,-239.2 377,-261.2 469,-261.2 469,-239.2 377,-239.2"/>
<text text-anchor="start" x="397" y="-246.3" font-family="Helvetica,sans-Serif" font-size="11.00" fill="#000000">rental_date</text>
<polygon fill="#ffffff" stroke="transparent" points="377,-217.2 377,-239.2 469,-239.2 469,-217.2 377,-217.2"/>
<polygon fill="none" stroke="#000000" points="377,-217.2 377,-239.2 469,-239.2 469,-217.2 377,-217.2"/>
<image xlink:href="../../images/foreignKeys.png" width="11px" height="12px" preserveAspectRatio="xMinYMin meet" x="382" y="-234.2"/>
<text text-anchor="start" x="397" y="-224.3" font-family="Helvetica,sans-Serif" font-size="11.00" fill="#000000">inventory_id</text>
<polygon fill="#ffffff" stroke="transparent" points="377,-195.2 377,-217.2 469,-217.2 469,-195.2 377,-195.2"/>
<polygon fill="none" stroke="#000000" points="377,-195.2 377,-217.2 469,-217.2 469,-195.2 377,-195.2"/>
<image xlink:href="../../images/foreignKeys.png" width="11px" height="12px" preserveAspectRatio="xMinYMin meet" x="382" y="-212.2"/>
<text text-anchor="start" x="397" y="-202.3" font-family="Helvetica,sans-Serif" font-size="11.00" fill="#000000">customer_id</text>
<polygon fill="none" stroke="#000000" points="377,-173.2 377,-195.2 469,-195.2 469,-173.2 377,-173.2"/>
<image xlink:href="../../images/foreignKeys.png" width="11px" height="12px" preserveAspectRatio="xMinYMin meet" x="382" y="-190.2"/>
<text text-anchor="start" x="397" y="-180.3" font-family="Helvetica,sans-Serif" font-size="11.00" fill="#000000">staff_id</text>
<polygon fill="none" stroke="#000000" points="377,-154.2 377,-173.2 469,-173.2 469,-154.2 377,-154.2"/>
<text text-anchor="start" x="380" y="-160.3" font-family="Helvetica,sans-Serif" font-size="11.00" fill="#000000">...</text>
<polygon fill="#ffffff" stroke="transparent" points="377,-135.2 377,-154.2 404,-154.2 404,-135.2 377,-135.2"/>
<polygon fill="none" stroke="#000000" points="377,-135.2 377,-154.2 404,-154.2 404,-135.2 377,-135.2"/>
<text text-anchor="start" x="380" y="-141.3" font-family="Helvetica,sans-Serif" font-size="11.00" fill="#000000">&lt; 3</text>
<polygon fill="#ffffff" stroke="transparent" points="404,-135.2 404,-154.2 445,-154.2 445,-135.2 404,-135.2"/>
<polygon fill="none" stroke="#000000" points="404,-135.2 404,-154.2 445,-154.2 445,-135.2 404,-135.2"/>
<text text-anchor="start" x="409.6105" y="-141.3" font-family="Helvetica,sans-Serif" font-size="11.00" fill="#000000">0 rows</text>
<polygon fill="#ffffff" stroke="transparent" points="445,-135.2 445,-154.2 469,-154.2 469,-135.2 445,-135.2"/>
<polygon fill="none" stroke="#000000" points="445,-135.2 445,-154.2 469,-154.2 469,-135.2 445,-135.2"/>
<text text-anchor="start" x="450.4053" y="-141.3" font-family="Helvetica,sans-Serif" font-size="11.00" fill="#000000">1 &gt;</text>
</a>
</g>
</g>
<!-- payment&#45;&gt;rental -->
<g id="edge3" class="edge">
<title>payment:w&#45;&gt;rental:e</title>
<path fill="none" stroke="#000000" d="M503.7828,-277.9807C492.3813,-275.9751 485.317,-272.2 469,-272.2"/>
<polygon fill="#000000" stroke="#000000" points="510.5273,-278.5394 518.2027,-282.7877 514.5137,-278.8697 518.5,-279.2 518.5,-279.2 518.5,-279.2 514.5137,-278.8697 518.7973,-275.6123 510.5273,-278.5394 510.5273,-278.5394"/>
<ellipse fill="none" stroke="#000000" cx="507.3382" cy="-278.2752" rx="3.2" ry="3.2"/>
</g>
<!-- rental&#45;&gt;customer -->
<g id="edge4" class="edge">
<title>rental:w&#45;&gt;customer:e</title>
<path fill="none" stroke="#000000" d="M362.9998,-211.065C346.6631,-225.681 355.5478,-268.2 326,-268.2"/>
<polygon fill="#000000" stroke="#000000" points="369.4433,-208.826 378.1817,-209.6005 373.2216,-207.513 377,-206.2 377,-206.2 377,-206.2 373.2216,-207.513 375.8183,-202.7995 369.4433,-208.826 369.4433,-208.826"/>
<ellipse fill="none" stroke="#000000" cx="366.4206" cy="-209.8764" rx="3.2" ry="3.2"/>
</g>
</g>
</svg>
