<?xml version="1.0" encoding="UTF-8" standalone="no"?>
<!DOCTYPE svg PUBLIC "-//W3C//DTD SVG 1.1//EN"
 "http://www.w3.org/Graphics/SVG/1.1/DTD/svg11.dtd">
<!-- Generated by graphviz version 2.40.1 (20161225.0304)
 -->
<!-- Title: twoDegreesRelationshipsDiagram Pages: 1 -->
<svg width="764pt" height="533pt"
 viewBox="0.00 0.00 764.00 532.70" xmlns="http://www.w3.org/2000/svg" xmlns:xlink="http://www.w3.org/1999/xlink">
<g id="graph0" class="graph" transform="scale(1 1) rotate(0) translate(4 528.7)">
<title>twoDegreesRelationshipsDiagram</title>
<polygon fill="#ffffff" stroke="transparent" points="-4,4 -4,-528.7 760,-528.7 760,4 -4,4"/>
<text text-anchor="middle" x="72.4936" y="-7.3" font-family="Helvetica,sans-Serif" font-size="11.00" fill="#000000">Generated by SchemaSpy</text>
<!-- address -->
<g id="node1" class="node">
<title>address</title>
<g id="a_node1"><a xlink:href="../../tables/address.html" xlink:title="address" target="_top">
<polygon fill="#ffffff" stroke="transparent" points="137,-47.2 137,-152.2 228,-152.2 228,-47.2 137,-47.2"/>
<polygon fill="#f5f5f5" stroke="transparent" points="137.5,-128.7 137.5,-151.7 228.5,-151.7 228.5,-128.7 137.5,-128.7"/>
<polygon fill="none" stroke="#000000" points="137.5,-128.7 137.5,-151.7 228.5,-151.7 228.5,-128.7 137.5,-128.7"/>
<text text-anchor="start" x="142.5" y="-137.8" font-family="Helvetica,sans-Serif" font-weight="bold" font-size="11.00" fill="#000000">address</text>
<text text-anchor="start" x="193.5437" y="-136.8" font-family="Helvetica,sans-Serif" font-size="11.00" fill="#000000">[table]</text>
<polygon fill="none" stroke="#000000" points="137.5,-106.7 137.5,-128.7 228.5,-128.7 228.5,-106.7 137.5,-106.7"/>
<image xlink:href="../../images/primaryKeys.png" width="11px" height="12px" preserveAspectRatio="xMinYMin meet" x="142.5" y="-123.7"/>
<text text-anchor="start" x="157.5" y="-113.8" font-family="Helvetica,sans-Serif" font-size="11.00" fill="#000000">address_id</text>
<polygon fill="#ffffff" stroke="transparent" points="137.5,-84.7 137.5,-106.7 228.5,-106.7 228.5,-84.7 137.5,-84.7"/>
<polygon fill="none" stroke="#000000" points="137.5,-84.7 137.5,-106.7 228.5,-106.7 228.5,-84.7 137.5,-84.7"/>
<image xlink:href="../../images/foreignKeys.png" width="11px" height="12px" preserveAspectRatio="xMinYMin meet" x="142.5" y="-101.7"/>
<text text-anchor="start" x="157.5" y="-91.8" font-family="Helvetica,sans-Serif" font-size="11.00" fill="#000000">city_id</text>
<polygon fill="none" stroke="#000000" points="137.5,-65.7 137.5,-84.7 228.5,-84.7 228.5,-65.7 137.5,-65.7"/>
<text text-anchor="start" x="140.5" y="-71.8" font-family="Helvetica,sans-Serif" font-size="11.00" fill="#000000">...</text>
<polygon fill="#ffffff" stroke="transparent" points="137.5,-46.7 137.5,-65.7 163.5,-65.7 163.5,-46.7 137.5,-46.7"/>
<polygon fill="none" stroke="#000000" points="137.5,-46.7 137.5,-65.7 163.5,-65.7 163.5,-46.7 137.5,-46.7"/>
<text text-anchor="start" x="140.5" y="-52.8" font-family="Helvetica,sans-Serif" font-size="11.00" fill="#000000">&lt; 1</text>
<polygon fill="#ffffff" stroke="transparent" points="163.5,-46.7 163.5,-65.7 204.5,-65.7 204.5,-46.7 163.5,-46.7"/>
<polygon fill="none" stroke="#000000" points="163.5,-46.7 163.5,-65.7 204.5,-65.7 204.5,-46.7 163.5,-46.7"/>
<text text-anchor="start" x="169.1105" y="-52.8" font-family="Helvetica,sans-Serif" font-size="11.00" fill="#000000">0 rows</text>
<polygon fill="#ffffff" stroke="transparent" points="204.5,-46.7 204.5,-65.7 228.5,-65.7 228.5,-46.7 204.5,-46.7"/>
<polygon fill="none" stroke="#000000" points="204.5,-46.7 204.5,-65.7 228.5,-65.7 228.5,-46.7 204.5,-46.7"/>
<text text-anchor="start" x="209.9053" y="-52.8" font-family="Helvetica,sans-Serif" font-size="11.00" fill="#000000">3 &gt;</text>
</a>
</g>
</g>
<!-- city -->
<g id="node2" class="node">
<title>city</title>
<g id="a_node2"><a xlink:href="../../tables/city.html" xlink:title="city" target="_top">
<polygon fill="#ffffff" stroke="transparent" points="8,-68.2 8,-129.2 88,-129.2 88,-68.2 8,-68.2"/>
<polygon fill="#f5f5f5" stroke="transparent" points="8,-105.7 8,-128.7 88,-128.7 88,-105.7 8,-105.7"/>
<polygon fill="none" stroke="#000000" points="8,-105.7 8,-128.7 88,-128.7 88,-105.7 8,-105.7"/>
<text text-anchor="start" x="13" y="-114.8" font-family="Helvetica,sans-Serif" font-weight="bold" font-size="11.00" fill="#000000">city</text>
<text text-anchor="start" x="53.0437" y="-113.8" font-family="Helvetica,sans-Serif" font-size="11.00" fill="#000000">[table]</text>
<polygon fill="none" stroke="#000000" points="8,-86.7 8,-105.7 88,-105.7 88,-86.7 8,-86.7"/>
<text text-anchor="start" x="11" y="-92.8" font-family="Helvetica,sans-Serif" font-size="11.00" fill="#000000">...</text>
<polygon fill="#ffffff" stroke="transparent" points="8,-67.7 8,-86.7 29,-86.7 29,-67.7 8,-67.7"/>
<polygon fill="none" stroke="#000000" points="8,-67.7 8,-86.7 29,-86.7 29,-67.7 8,-67.7"/>
<text text-anchor="start" x="10.7027" y="-73.8" font-family="Helvetica,sans-Serif" font-size="11.00" fill="#000000">&lt; 1</text>
<polygon fill="#ffffff" stroke="transparent" points="29,-67.7 29,-86.7 67,-86.7 67,-67.7 29,-67.7"/>
<polygon fill="none" stroke="#000000" points="29,-67.7 29,-86.7 67,-86.7 67,-67.7 29,-67.7"/>
<text text-anchor="start" x="31.8053" y="-73.8" font-family="Helvetica,sans-Serif" font-size="11.00" fill="#000000">0 rows</text>
<polygon fill="#ffffff" stroke="transparent" points="67,-67.7 67,-86.7 88,-86.7 88,-67.7 67,-67.7"/>
<polygon fill="none" stroke="#000000" points="67,-67.7 67,-86.7 88,-86.7 88,-67.7 67,-67.7"/>
<text text-anchor="start" x="69.7027" y="-73.8" font-family="Helvetica,sans-Serif" font-size="11.00" fill="#000000">1 &gt;</text>
</a>
</g>
</g>
<!-- address&#45;&gt;city -->
<g id="edge1" class="edge">
<title>address:w&#45;&gt;city:e</title>
<path fill="none" stroke="#000000" d="M122.8428,-95.7C111.4139,-95.7 104.1563,-95.7 88,-95.7"/>
<polygon fill="#000000" stroke="#000000" points="129.5,-95.7001 137.5,-99.3 133.5,-95.7 137.5,-95.7 137.5,-95.7 137.5,-95.7 133.5,-95.7 137.5,-92.1 129.5,-95.7001 129.5,-95.7001"/>
<ellipse fill="none" stroke="#000000" cx="126.3" cy="-95.7001" rx="3.2" ry="3.2"/>
</g>
<!-- customer -->
<g id="node3" class="node">
<title>customer</title>
<g id="a_node3"><a xlink:href="../../tables/customer.html" xlink:title="customer" target="_top">
<polygon fill="#ffffff" stroke="transparent" points="277,-254.7 277,-520.7 457,-520.7 457,-254.7 277,-254.7"/>
<polygon fill="#f5f5f5" stroke="transparent" points="279,-495.7 279,-518.7 455,-518.7 455,-495.7 279,-495.7"/>
<polygon fill="none" stroke="#000000" points="279,-495.7 279,-518.7 455,-518.7 455,-495.7 279,-495.7"/>
<text text-anchor="start" x="284" y="-504.8" font-family="Helvetica,sans-Serif" font-weight="bold" font-size="11.00" fill="#000000">customer</text>
<text text-anchor="start" x="420.0437" y="-503.8" font-family="Helvetica,sans-Serif" font-size="11.00" fill="#000000">[table]</text>
<polygon fill="none" stroke="#000000" points="279,-473.7 279,-495.7 371,-495.7 371,-473.7 279,-473.7"/>
<image xlink:href="../../images/primaryKeys.png" width="11px" height="12px" preserveAspectRatio="xMinYMin meet" x="284" y="-490.7"/>
<text text-anchor="start" x="299" y="-480.8" font-family="Helvetica,sans-Serif" font-size="11.00" fill="#000000">customer_id</text>
<polygon fill="none" stroke="#000000" points="371,-473.7 371,-495.7 455,-495.7 455,-473.7 371,-473.7"/>
<text text-anchor="start" x="374" y="-481.4" font-family="Helvetica,sans-Serif" font-size="11.00" fill="#000000">serial[10]</text>
<polygon fill="#ffffff" stroke="transparent" points="279,-451.7 279,-473.7 371,-473.7 371,-451.7 279,-451.7"/>
<polygon fill="none" stroke="#000000" points="279,-451.7 279,-473.7 371,-473.7 371,-451.7 279,-451.7"/>
<text text-anchor="start" x="299" y="-458.8" font-family="Helvetica,sans-Serif" font-size="11.00" fill="#000000">store_id</text>
<polygon fill="none" stroke="#000000" points="371,-451.7 371,-473.7 455,-473.7 455,-451.7 371,-451.7"/>
<text text-anchor="start" x="374" y="-459.4" font-family="Helvetica,sans-Serif" font-size="11.00" fill="#000000">int2[5]</text>
<polygon fill="none" stroke="#000000" points="279,-429.7 279,-451.7 371,-451.7 371,-429.7 279,-429.7"/>
<text text-anchor="start" x="299" y="-436.8" font-family="Helvetica,sans-Serif" font-size="11.00" fill="#000000">first_name</text>
<polygon fill="none" stroke="#000000" points="371,-429.7 371,-451.7 455,-451.7 455,-429.7 371,-429.7"/>
<text text-anchor="start" x="374" y="-437.4" font-family="Helvetica,sans-Serif" font-size="11.00" fill="#000000">varchar[45]</text>
<polygon fill="#ffffff" stroke="transparent" points="279,-407.7 279,-429.7 371,-429.7 371,-407.7 279,-407.7"/>
<polygon fill="none" stroke="#000000" points="279,-407.7 279,-429.7 371,-429.7 371,-407.7 279,-407.7"/>
<text text-anchor="start" x="299" y="-414.8" font-family="Helvetica,sans-Serif" font-size="11.00" fill="#000000">last_name</text>
<polygon fill="none" stroke="#000000" points="371,-407.7 371,-429.7 455,-429.7 455,-407.7 371,-407.7"/>
<text text-anchor="start" x="374" y="-415.4" font-family="Helvetica,sans-Serif" font-size="11.00" fill="#000000">varchar[45]</text>
<polygon fill="none" stroke="#000000" points="279,-385.7 279,-407.7 371,-407.7 371,-385.7 279,-385.7"/>
<text text-anchor="start" x="299" y="-392.8" font-family="Helvetica,sans-Serif" font-size="11.00" fill="#000000">email</text>
<polygon fill="none" stroke="#000000" points="371,-385.7 371,-407.7 455,-407.7 455,-385.7 371,-385.7"/>
<text text-anchor="start" x="374" y="-393.4" font-family="Helvetica,sans-Serif" font-size="11.00" fill="#000000">varchar[50]</text>
<polygon fill="#ffffff" stroke="transparent" points="279,-363.7 279,-385.7 371,-385.7 371,-363.7 279,-363.7"/>
<polygon fill="none" stroke="#000000" points="279,-363.7 279,-385.7 371,-385.7 371,-363.7 279,-363.7"/>
<image xlink:href="../../images/foreignKeys.png" width="11px" height="12px" preserveAspectRatio="xMinYMin meet" x="284" y="-380.7"/>
<text text-anchor="start" x="299" y="-370.8" font-family="Helvetica,sans-Serif" font-size="11.00" fill="#000000">address_id</text>
<polygon fill="none" stroke="#000000" points="371,-363.7 371,-385.7 455,-385.7 455,-363.7 371,-363.7"/>
<text text-anchor="start" x="374" y="-371.4" font-family="Helvetica,sans-Serif" font-size="11.00" fill="#000000">int2[5]</text>
<polygon fill="none" stroke="#000000" points="279,-341.7 279,-363.7 371,-363.7 371,-341.7 279,-341.7"/>
<text text-anchor="start" x="299" y="-348.8" font-family="Helvetica,sans-Serif" font-size="11.00" fill="#000000">activebool</text>
<polygon fill="none" stroke="#000000" points="371,-341.7 371,-363.7 455,-363.7 455,-341.7 371,-341.7"/>
<text text-anchor="start" x="374" y="-349.4" font-family="Helvetica,sans-Serif" font-size="11.00" fill="#000000">bool[1]</text>
<polygon fill="none" stroke="#000000" points="279,-319.7 279,-341.7 371,-341.7 371,-319.7 279,-319.7"/>
<text text-anchor="start" x="299" y="-326.8" font-family="Helvetica,sans-Serif" font-size="11.00" fill="#000000">create_date</text>
<polygon fill="none" stroke="#000000" points="371,-319.7 371,-341.7 455,-341.7 455,-319.7 371,-319.7"/>
<text text-anchor="start" x="374" y="-327.4" font-family="Helvetica,sans-Serif" font-size="11.00" fill="#000000">date[13]</text>
<polygon fill="none" stroke="#000000" points="279,-297.7 279,-319.7 371,-319.7 371,-297.7 279,-297.7"/>
<text text-anchor="start" x="299" y="-304.8" font-family="Helvetica,sans-Serif" font-size="11.00" fill="#000000">last_update</text>
<polygon fill="none" stroke="#000000" points="371,-297.7 371,-319.7 455,-319.7 455,-297.7 371,-297.7"/>
<text text-anchor="start" x="373.8807" y="-305.4" font-family="Helvetica,sans-Serif" font-size="11.00" fill="#000000">timestamp[29,6]</text>
<polygon fill="none" stroke="#000000" points="279,-275.7 279,-297.7 371,-297.7 371,-275.7 279,-275.7"/>
<text text-anchor="start" x="299" y="-282.8" font-family="Helvetica,sans-Serif" font-size="11.00" fill="#000000">active</text>
<polygon fill="none" stroke="#000000" points="371,-275.7 371,-297.7 455,-297.7 455,-275.7 371,-275.7"/>
<text text-anchor="start" x="374" y="-283.4" font-family="Helvetica,sans-Serif" font-size="11.00" fill="#000000">int4[10]</text>
<polygon fill="#ffffff" stroke="transparent" points="279,-256.7 279,-275.7 316,-275.7 316,-256.7 279,-256.7"/>
<polygon fill="none" stroke="#000000" points="279,-256.7 279,-275.7 316,-275.7 316,-256.7 279,-256.7"/>
<text text-anchor="start" x="282" y="-262.8" font-family="Helvetica,sans-Serif" font-size="11.00" fill="#000000">&lt; 1</text>
<polygon fill="#ffffff" stroke="transparent" points="316,-256.7 316,-275.7 371,-275.7 371,-256.7 316,-256.7"/>
<polygon fill="none" stroke="#000000" points="316,-256.7 316,-275.7 371,-275.7 371,-256.7 316,-256.7"/>
<text text-anchor="start" x="335.6105" y="-262.8" font-family="Helvetica,sans-Serif" font-size="11.00" fill="#000000">0 rows</text>
<polygon fill="#ffffff" stroke="transparent" points="371,-256.7 371,-275.7 455,-275.7 455,-256.7 371,-256.7"/>
<polygon fill="none" stroke="#000000" points="371,-256.7 371,-275.7 455,-275.7 455,-256.7 371,-256.7"/>
<text text-anchor="start" x="436.4053" y="-262.8" font-family="Helvetica,sans-Serif" font-size="11.00" fill="#000000">2 &gt;</text>
<polygon fill="none" stroke="#000000" stroke-width="2" points="278,-255.7 278,-519.7 456,-519.7 456,-255.7 278,-255.7"/>
</a>
</g>
</g>
<!-- customer&#45;&gt;address -->
<g id="edge2" class="edge">
<title>customer:w&#45;&gt;address:e</title>
<path fill="none" stroke="#000000" d="M265.6982,-368.3472C232.0634,-328.7713 281.2467,-117.7 228.5,-117.7"/>
<polygon fill="#000000" stroke="#000000" points="271.781,-371.2522 277.4485,-377.9485 275.3905,-372.9761 279,-374.7 279,-374.7 279,-374.7 275.3905,-372.9761 280.5515,-371.4515 271.781,-371.2522 271.781,-371.2522"/>
<ellipse fill="none" stroke="#000000" cx="268.8935" cy="-369.8731" rx="3.2" ry="3.2"/>
</g>
<!-- payment -->
<g id="node4" class="node">
<title>payment</title>
<g id="a_node4"><a xlink:href="../../tables/payment.html" xlink:title="payment" target="_top">
<polygon fill="#ffffff" stroke="transparent" points="647,-236.2 647,-385.2 748,-385.2 748,-236.2 647,-236.2"/>
<polygon fill="#f5f5f5" stroke="transparent" points="647.5,-361.7 647.5,-384.7 748.5,-384.7 748.5,-361.7 647.5,-361.7"/>
<polygon fill="none" stroke="#000000" points="647.5,-361.7 647.5,-384.7 748.5,-384.7 748.5,-361.7 647.5,-361.7"/>
<text text-anchor="start" x="652.5" y="-370.8" font-family="Helvetica,sans-Serif" font-weight="bold" font-size="11.00" fill="#000000">payment</text>
<text text-anchor="start" x="713.5437" y="-369.8" font-family="Helvetica,sans-Serif" font-size="11.00" fill="#000000">[table]</text>
<polygon fill="none" stroke="#000000" points="647.5,-339.7 647.5,-361.7 748.5,-361.7 748.5,-339.7 647.5,-339.7"/>
<image xlink:href="../../images/primaryKeys.png" width="11px" height="12px" preserveAspectRatio="xMinYMin meet" x="652.5" y="-356.7"/>
<text text-anchor="start" x="667.5" y="-346.8" font-family="Helvetica,sans-Serif" font-size="11.00" fill="#000000">payment_id</text>
<polygon fill="#ffffff" stroke="transparent" points="647.5,-317.7 647.5,-339.7 748.5,-339.7 748.5,-317.7 647.5,-317.7"/>
<polygon fill="none" stroke="#000000" points="647.5,-317.7 647.5,-339.7 748.5,-339.7 748.5,-317.7 647.5,-317.7"/>
<image xlink:href="../../images/foreignKeys.png" width="11px" height="12px" preserveAspectRatio="xMinYMin meet" x="652.5" y="-334.7"/>
<text text-anchor="start" x="667.5" y="-324.8" font-family="Helvetica,sans-Serif" font-size="11.00" fill="#000000">customer_id</text>
<polygon fill="#ffffff" stroke="transparent" points="647.5,-295.7 647.5,-317.7 748.5,-317.7 748.5,-295.7 647.5,-295.7"/>
<polygon fill="none" stroke="#000000" points="647.5,-295.7 647.5,-317.7 748.5,-317.7 748.5,-295.7 647.5,-295.7"/>
<image xlink:href="../../images/foreignKeys.png" width="11px" height="12px" preserveAspectRatio="xMinYMin meet" x="652.5" y="-312.7"/>
<text text-anchor="start" x="667.5" y="-302.8" font-family="Helvetica,sans-Serif" font-size="11.00" fill="#000000">staff_id</text>
<polygon fill="#ffffff" stroke="transparent" points="647.5,-273.7 647.5,-295.7 748.5,-295.7 748.5,-273.7 647.5,-273.7"/>
<polygon fill="none" stroke="#000000" points="647.5,-273.7 647.5,-295.7 748.5,-295.7 748.5,-273.7 647.5,-273.7"/>
<image xlink:href="../../images/foreignKeys.png" width="11px" height="12px" preserveAspectRatio="xMinYMin meet" x="652.5" y="-290.7"/>
<text text-anchor="start" x="667.5" y="-280.8" font-family="Helvetica,sans-Serif" font-size="11.00" fill="#000000">rental_id</text>
<polygon fill="none" stroke="#000000" points="647.5,-254.7 647.5,-273.7 748.5,-273.7 748.5,-254.7 647.5,-254.7"/>
<text text-anchor="start" x="650.5" y="-260.8" font-family="Helvetica,sans-Serif" font-size="11.00" fill="#000000">...</text>
<polygon fill="#ffffff" stroke="transparent" points="647.5,-235.7 647.5,-254.7 683.5,-254.7 683.5,-235.7 647.5,-235.7"/>
<polygon fill="none" stroke="#000000" points="647.5,-235.7 647.5,-254.7 683.5,-254.7 683.5,-235.7 647.5,-235.7"/>
<text text-anchor="start" x="650.5" y="-241.8" font-family="Helvetica,sans-Serif" font-size="11.00" fill="#000000">&lt; 3</text>
<polygon fill="#ffffff" stroke="transparent" points="683.5,-235.7 683.5,-254.7 728.5,-254.7 728.5,-235.7 683.5,-235.7"/>
<polygon fill="none" stroke="#000000" points="683.5,-235.7 683.5,-254.7 728.5,-254.7 728.5,-235.7 683.5,-235.7"/>
<text text-anchor="start" x="693.1105" y="-241.8" font-family="Helvetica,sans-Serif" font-size="11.00" fill="#000000">0 rows</text>
<polygon fill="#ffffff" stroke="transparent" points="728.5,-235.7 728.5,-254.7 748.5,-254.7 748.5,-235.7 728.5,-235.7"/>
<polygon fill="none" stroke="#000000" points="728.5,-235.7 728.5,-254.7 748.5,-254.7 748.5,-235.7 728.5,-235.7"/>
<text text-anchor="start" x="739.3862" y="-241.8" font-family="Helvetica,sans-Serif" font-size="11.00" fill="#000000"> &#160;</text>
</a>
</g>
</g>
<!-- payment&#45;&gt;customer -->
<g id="edge3" class="edge">
<title>payment:w&#45;&gt;customer:e</title>
<path fill="none" stroke="#000000" d="M632.8945,-329.6962C539.676,-342.9822 559.9601,-484.7 455,-484.7"/>
<polygon fill="#000000" stroke="#000000" points="639.5185,-329.2444 647.745,-332.2917 643.5093,-328.9722 647.5,-328.7 647.5,-328.7 647.5,-328.7 643.5093,-328.9722 647.255,-325.1083 639.5185,-329.2444 639.5185,-329.2444"/>
<ellipse fill="none" stroke="#000000" cx="636.326" cy="-329.4622" rx="3.2" ry="3.2"/>
</g>
<!-- rental -->
<g id="node5" class="node">
<title>rental</title>
<g id="a_node5"><a xlink:href="../../tables/rental.html" xlink:title="rental" target="_top">
<polygon fill="#ffffff" stroke="transparent" points="506,-148.2 506,-319.2 598,-319.2 598,-148.2 506,-148.2"/>
<polygon fill="#f5f5f5" stroke="transparent" points="506,-295.7 506,-318.7 598,-318.7 598,-295.7 506,-295.7"/>
<polygon fill="none" stroke="#000000" points="506,-295.7 506,-318.7 598,-318.7 598,-295.7 506,-295.7"/>
<text text-anchor="start" x="511" y="-304.8" font-family="Helvetica,sans-Serif" font-weight="bold" font-size="11.00" fill="#000000">rental</text>
<text text-anchor="start" x="563.0437" y="-303.8" font-family="Helvetica,sans-Serif" font-size="11.00" fill="#000000">[table]</text>
<polygon fill="none" stroke="#000000" points="506,-273.7 506,-295.7 598,-295.7 598,-273.7 506,-273.7"/>
<image xlink:href="../../images/primaryKeys.png" width="11px" height="12px" preserveAspectRatio="xMinYMin meet" x="511" y="-290.7"/>
<text text-anchor="start" x="526" y="-280.8" font-family="Helvetica,sans-Serif" font-size="11.00" fill="#000000">rental_id</text>
<polygon fill="#ffffff" stroke="transparent" points="506,-251.7 506,-273.7 598,-273.7 598,-251.7 506,-251.7"/>
<polygon fill="none" stroke="#000000" points="506,-251.7 506,-273.7 598,-273.7 598,-251.7 506,-251.7"/>
<text text-anchor="start" x="526" y="-258.8" font-family="Helvetica,sans-Serif" font-size="11.00" fill="#000000">rental_date</text>
<polygon fill="#ffffff" stroke="transparent" points="506,-229.7 506,-251.7 598,-251.7 598,-229.7 506,-229.7"/>
<polygon fill="none" stroke="#000000" points="506,-229.7 506,-251.7 598,-251.7 598,-229.7 506,-229.7"/>
<image xlink:href="../../images/foreignKeys.png" width="11px" height="12px" preserveAspectRatio="xMinYMin meet" x="511" y="-246.7"/>
<text text-anchor="start" x="526" y="-236.8" font-family="Helvetica,sans-Serif" font-size="11.00" fill="#000000">inventory_id</text>
<polygon fill="#ffffff" stroke="transparent" points="506,-207.7 506,-229.7 598,-229.7 598,-207.7 506,-207.7"/>
<polygon fill="none" stroke="#000000" points="506,-207.7 506,-229.7 598,-229.7 598,-207.7 506,-207.7"/>
<image xlink:href="../../images/foreignKeys.png" width="11px" height="12px" preserveAspectRatio="xMinYMin meet" x="511" y="-224.7"/>
<text text-anchor="start" x="526" y="-214.8" font-family="Helvetica,sans-Serif" font-size="11.00" fill="#000000">customer_id</text>
<polygon fill="none" stroke="#000000" points="506,-185.7 506,-207.7 598,-207.7 598,-185.7 506,-185.7"/>
<image xlink:href="../../images/foreignKeys.png" width="11px" height="12px" preserveAspectRatio="xMinYMin meet" x="511" y="-202.7"/>
<text text-anchor="start" x="526" y="-192.8" font-family="Helvetica,sans-Serif" font-size="11.00" fill="#000000">staff_id</text>
<polygon fill="none" stroke="#000000" points="506,-166.7 506,-185.7 598,-185.7 598,-166.7 506,-166.7"/>
<text text-anchor="start" x="509" y="-172.8" font-family="Helvetica,sans-Serif" font-size="11.00" fill="#000000">...</text>
<polygon fill="#ffffff" stroke="transparent" points="506,-147.7 506,-166.7 533,-166.7 533,-147.7 506,-147.7"/>
<polygon fill="none" stroke="#000000" points="506,-147.7 506,-166.7 533,-166.7 533,-147.7 506,-147.7"/>
<text text-anchor="start" x="509" y="-153.8" font-family="Helvetica,sans-Serif" font-size="11.00" fill="#000000">&lt; 3</text>
<polygon fill="#ffffff" stroke="transparent" points="533,-147.7 533,-166.7 574,-166.7 574,-147.7 533,-147.7"/>
<polygon fill="none" stroke="#000000" points="533,-147.7 533,-166.7 574,-166.7 574,-147.7 533,-147.7"/>
<text text-anchor="start" x="538.6105" y="-153.8" font-family="Helvetica,sans-Serif" font-size="11.00" fill="#000000">0 rows</text>
<polygon fill="#ffffff" stroke="transparent" points="574,-147.7 574,-166.7 598,-166.7 598,-147.7 574,-147.7"/>
<polygon fill="none" stroke="#000000" points="574,-147.7 574,-166.7 598,-166.7 598,-147.7 574,-147.7"/>
<text text-anchor="start" x="579.4053" y="-153.8" font-family="Helvetica,sans-Serif" font-size="11.00" fill="#000000">1 &gt;</text>
</a>
</g>
</g>
<!-- payment&#45;&gt;rental -->
<g id="edge4" class="edge">
<title>payment:w&#45;&gt;rental:e</title>
<path fill="none" stroke="#000000" d="M632.8428,-284.7C621.4139,-284.7 614.1563,-284.7 598,-284.7"/>
<polygon fill="#000000" stroke="#000000" points="639.5,-284.7001 647.5,-288.3 643.5,-284.7 647.5,-284.7 647.5,-284.7 647.5,-284.7 643.5,-284.7 647.5,-281.1 639.5,-284.7001 639.5,-284.7001"/>
<ellipse fill="none" stroke="#000000" cx="636.3" cy="-284.7001" rx="3.2" ry="3.2"/>
</g>
<!-- staff -->
<g id="node6" class="node">
<title>staff</title>
<g id="a_node6"><a xlink:href="../../tables/staff.html" xlink:title="staff" target="_top">
<polygon fill="#ffffff" stroke="transparent" points="327,-90.2 327,-151.2 407,-151.2 407,-90.2 327,-90.2"/>
<polygon fill="#f5f5f5" stroke="transparent" points="327,-127.7 327,-150.7 407,-150.7 407,-127.7 327,-127.7"/>
<polygon fill="none" stroke="#000000" points="327,-127.7 327,-150.7 407,-150.7 407,-127.7 327,-127.7"/>
<text text-anchor="start" x="332" y="-136.8" font-family="Helvetica,sans-Serif" font-weight="bold" font-size="11.00" fill="#000000">staff</text>
<text text-anchor="start" x="372.0437" y="-135.8" font-family="Helvetica,sans-Serif" font-size="11.00" fill="#000000">[table]</text>
<polygon fill="none" stroke="#000000" points="327,-108.7 327,-127.7 407,-127.7 407,-108.7 327,-108.7"/>
<text text-anchor="start" x="330" y="-114.8" font-family="Helvetica,sans-Serif" font-size="11.00" fill="#000000">...</text>
<polygon fill="#ffffff" stroke="transparent" points="327,-89.7 327,-108.7 348,-108.7 348,-89.7 327,-89.7"/>
<polygon fill="none" stroke="#000000" points="327,-89.7 327,-108.7 348,-108.7 348,-89.7 327,-89.7"/>
<text text-anchor="start" x="329.7027" y="-95.8" font-family="Helvetica,sans-Serif" font-size="11.00" fill="#000000">&lt; 1</text>
<polygon fill="#ffffff" stroke="transparent" points="348,-89.7 348,-108.7 386,-108.7 386,-89.7 348,-89.7"/>
<polygon fill="none" stroke="#000000" points="348,-89.7 348,-108.7 386,-108.7 386,-89.7 348,-89.7"/>
<text text-anchor="start" x="350.8053" y="-95.8" font-family="Helvetica,sans-Serif" font-size="11.00" fill="#000000">0 rows</text>
<polygon fill="#ffffff" stroke="transparent" points="386,-89.7 386,-108.7 407,-108.7 407,-89.7 386,-89.7"/>
<polygon fill="none" stroke="#000000" points="386,-89.7 386,-108.7 407,-108.7 407,-89.7 386,-89.7"/>
<text text-anchor="start" x="388.7027" y="-95.8" font-family="Helvetica,sans-Serif" font-size="11.00" fill="#000000">3 &gt;</text>
</a>
</g>
</g>
<!-- payment&#45;&gt;staff -->
<g id="edge5" class="edge">
<title>payment:w&#45;&gt;staff:e</title>
<path fill="none" stroke="#000000" d="M632.9821,-304.8212C583.3053,-289.5139 660.0626,-184.6482 606,-137.7 572.4423,-108.5583 451.445,-117.7 407,-117.7"/>
<polygon fill="#000000" stroke="#000000" points="639.5662,-305.6732 647.038,-310.2702 643.5331,-306.1866 647.5,-306.7 647.5,-306.7 647.5,-306.7 643.5331,-306.1866 647.962,-303.1298 639.5662,-305.6732 639.5662,-305.6732"/>
<ellipse fill="none" stroke="#000000" cx="636.3926" cy="-305.2625" rx="3.2" ry="3.2"/>
</g>
<!-- rental&#45;&gt;customer -->
<g id="edge6" class="edge">
<title>rental:w&#45;&gt;customer:e</title>
<path fill="none" stroke="#000000" d="M491.5988,-220.2621C402.0466,-242.0617 569.968,-484.7 455,-484.7"/>
<polygon fill="#000000" stroke="#000000" points="498.0467,-219.5628 506.3882,-222.279 502.0233,-219.1314 506,-218.7 506,-218.7 506,-218.7 502.0233,-219.1314 505.6118,-215.121 498.0467,-219.5628 498.0467,-219.5628"/>
<ellipse fill="none" stroke="#000000" cx="494.8653" cy="-219.9079" rx="3.2" ry="3.2"/>
</g>
<!-- rental&#45;&gt;staff -->
<g id="edge8" class="edge">
<title>rental:w&#45;&gt;staff:e</title>
<path fill="none" stroke="#000000" d="M491.7842,-193.1439C481.5291,-186.7291 478.8513,-172.8508 465,-161.7 439.7962,-141.41 439.356,-117.7 407,-117.7"/>
<polygon fill="#000000" stroke="#000000" points="498.2391,-194.7586 505.1264,-200.1924 502.1196,-195.7293 506,-196.7 506,-196.7 506,-196.7 502.1196,-195.7293 506.8736,-193.2076 498.2391,-194.7586 498.2391,-194.7586"/>
<ellipse fill="none" stroke="#000000" cx="495.1348" cy="-193.982" rx="3.2" ry="3.2"/>
</g>
<!-- inventory -->
<g id="node7" class="node">
<title>inventory</title>
<g id="a_node7"><a xlink:href="../../tables/inventory.html" xlink:title="inventory" target="_top">
<polygon fill="#ffffff" stroke="transparent" points="323.5,-172.2 323.5,-233.2 410.5,-233.2 410.5,-172.2 323.5,-172.2"/>
<polygon fill="#f5f5f5" stroke="transparent" points="324,-209.7 324,-232.7 411,-232.7 411,-209.7 324,-209.7"/>
<polygon fill="none" stroke="#000000" points="324,-209.7 324,-232.7 411,-232.7 411,-209.7 324,-209.7"/>
<text text-anchor="start" x="328.6904" y="-218.8" font-family="Helvetica,sans-Serif" font-weight="bold" font-size="11.00" fill="#000000">inventory</text>
<text text-anchor="start" x="376.5219" y="-217.8" font-family="Helvetica,sans-Serif" font-size="11.00" fill="#000000">[table]</text>
<polygon fill="none" stroke="#000000" points="324,-190.7 324,-209.7 411,-209.7 411,-190.7 324,-190.7"/>
<text text-anchor="start" x="327" y="-196.8" font-family="Helvetica,sans-Serif" font-size="11.00" fill="#000000">...</text>
<polygon fill="#ffffff" stroke="transparent" points="324,-171.7 324,-190.7 348,-190.7 348,-171.7 324,-171.7"/>
<polygon fill="none" stroke="#000000" points="324,-171.7 324,-190.7 348,-190.7 348,-171.7 324,-171.7"/>
<text text-anchor="start" x="327" y="-177.8" font-family="Helvetica,sans-Serif" font-size="11.00" fill="#000000">&lt; 1</text>
<polygon fill="#ffffff" stroke="transparent" points="348,-171.7 348,-190.7 388,-190.7 388,-171.7 348,-171.7"/>
<polygon fill="none" stroke="#000000" points="348,-171.7 348,-190.7 388,-190.7 388,-171.7 348,-171.7"/>
<text text-anchor="start" x="352.6105" y="-177.8" font-family="Helvetica,sans-Serif" font-size="11.00" fill="#000000">0 rows</text>
<polygon fill="#ffffff" stroke="transparent" points="388,-171.7 388,-190.7 411,-190.7 411,-171.7 388,-171.7"/>
<polygon fill="none" stroke="#000000" points="388,-171.7 388,-190.7 411,-190.7 411,-171.7 388,-171.7"/>
<text text-anchor="start" x="392.4053" y="-177.8" font-family="Helvetica,sans-Serif" font-size="11.00" fill="#000000">1 &gt;</text>
</a>
</g>
</g>
<!-- rental&#45;&gt;inventory -->
<g id="edge7" class="edge">
<title>rental:w&#45;&gt;inventory:e</title>
<path fill="none" stroke="#000000" d="M491.4645,-239.1428C458.714,-231.6537 451.5975,-199.7 411,-199.7"/>
<polygon fill="#000000" stroke="#000000" points="498.0455,-239.8478 505.6165,-244.2795 502.0228,-240.2739 506,-240.7 506,-240.7 506,-240.7 502.0228,-240.2739 506.3835,-237.1205 498.0455,-239.8478 498.0455,-239.8478"/>
<ellipse fill="none" stroke="#000000" cx="494.8637" cy="-239.5069" rx="3.2" ry="3.2"/>
</g>
<!-- staff&#45;&gt;address -->
<g id="edge9" class="edge">
<title>staff:w&#45;&gt;address:e</title>
<path fill="none" stroke="#000000" d="M312.4241,-117.7C280.0902,-117.7 266.9766,-117.7 228.5,-117.7"/>
<polygon fill="#000000" stroke="#000000" points="319,-117.7001 327,-121.3 323,-117.7 327,-117.7 327,-117.7 327,-117.7 323,-117.7 327,-114.1 319,-117.7001 319,-117.7001"/>
<ellipse fill="none" stroke="#000000" cx="315.8" cy="-117.7001" rx="3.2" ry="3.2"/>
</g>
<!-- store -->
<g id="node8" class="node">
<title>store</title>
<g id="a_node8"><a xlink:href="../../tables/store.html" xlink:title="store" target="_top">
<polygon fill="#ffffff" stroke="transparent" points="516.5,-38.2 516.5,-99.2 587.5,-99.2 587.5,-38.2 516.5,-38.2"/>
<polygon fill="#f5f5f5" stroke="transparent" points="517,-75.7 517,-98.7 588,-98.7 588,-75.7 517,-75.7"/>
<polygon fill="none" stroke="#000000" points="517,-75.7 517,-98.7 588,-98.7 588,-75.7 517,-75.7"/>
<text text-anchor="start" x="522" y="-84.8" font-family="Helvetica,sans-Serif" font-weight="bold" font-size="11.00" fill="#000000">store</text>
<text text-anchor="start" x="553.0437" y="-83.8" font-family="Helvetica,sans-Serif" font-size="11.00" fill="#000000">[table]</text>
<polygon fill="none" stroke="#000000" points="517,-56.7 517,-75.7 588,-75.7 588,-56.7 517,-56.7"/>
<text text-anchor="start" x="520" y="-62.8" font-family="Helvetica,sans-Serif" font-size="11.00" fill="#000000">...</text>
<polygon fill="#ffffff" stroke="transparent" points="517,-37.7 517,-56.7 538,-56.7 538,-37.7 517,-37.7"/>
<polygon fill="none" stroke="#000000" points="517,-37.7 517,-56.7 538,-56.7 538,-37.7 517,-37.7"/>
<text text-anchor="start" x="519.7026" y="-43.8" font-family="Helvetica,sans-Serif" font-size="11.00" fill="#000000">&lt; 2</text>
<polygon fill="#ffffff" stroke="transparent" points="538,-37.7 538,-56.7 576,-56.7 576,-37.7 538,-37.7"/>
<polygon fill="none" stroke="#000000" points="538,-37.7 538,-56.7 576,-56.7 576,-37.7 538,-37.7"/>
<text text-anchor="start" x="540.8053" y="-43.8" font-family="Helvetica,sans-Serif" font-size="11.00" fill="#000000">0 rows</text>
<polygon fill="#ffffff" stroke="transparent" points="576,-37.7 576,-56.7 588,-56.7 588,-37.7 576,-37.7"/>
<polygon fill="none" stroke="#000000" points="576,-37.7 576,-56.7 588,-56.7 588,-37.7 576,-37.7"/>
<text text-anchor="start" x="578.9431" y="-43.8" font-family="Helvetica,sans-Serif" font-size="11.00" fill="#000000"> &#160;</text>
</a>
</g>
</g>
<!-- store&#45;&gt;address -->
<g id="edge10" class="edge">
<title>store:w&#45;&gt;address:e</title>
<path fill="none" stroke="#000000" d="M502.5591,-65.5307C403.224,-63.1972 365.9097,-38.1575 269,-79.7 246.3139,-89.4249 253.1827,-117.7 228.5,-117.7"/>
<polygon fill="#000000" stroke="#000000" points="509.0005,-65.6062 516.9578,-69.2998 513.0003,-65.6531 517,-65.7 517,-65.7 517,-65.7 513.0003,-65.6531 517.0422,-62.1002 509.0005,-65.6062 509.0005,-65.6062"/>
<ellipse fill="none" stroke="#000000" cx="505.8008" cy="-65.5686" rx="3.2" ry="3.2"/>
</g>
<!-- store&#45;&gt;staff -->
<g id="edge11" class="edge">
<title>store:w&#45;&gt;staff:e</title>
<path fill="none" stroke="#000000" d="M506.609,-66.3958C462.4271,-72.5664 457.3797,-117.7 407,-117.7"/>
<polygon fill="#000000" stroke="#000000" points="515.9345,-61.7624 516.4691,-69.7445 514.8726,-69.8514 514.3381,-61.8693 515.9345,-61.7624"/>
<polyline fill="none" stroke="#000000" points="517,-65.7 513.0089,-65.9673 "/>
<ellipse fill="none" stroke="#000000" cx="509.8161" cy="-66.1811" rx="3.2" ry="3.2"/>
</g>
</g>
</svg>
