<?xml version="1.0" encoding="UTF-8" standalone="no"?>
<!DOCTYPE svg PUBLIC "-//W3C//DTD SVG 1.1//EN"
 "http://www.w3.org/Graphics/SVG/1.1/DTD/svg11.dtd">
<!-- Generated by graphviz version 2.40.1 (20161225.0304)
 -->
<!-- Title: oneDegreeRelationshipsDiagram Pages: 1 -->
<svg width="600pt" height="529pt"
 viewBox="0.00 0.00 600.00 528.70" xmlns="http://www.w3.org/2000/svg" xmlns:xlink="http://www.w3.org/1999/xlink">
<g id="graph0" class="graph" transform="scale(1 1) rotate(0) translate(4 524.7)">
<title>oneDegreeRelationshipsDiagram</title>
<polygon fill="#ffffff" stroke="transparent" points="-4,4 -4,-524.7 596,-524.7 596,4 -4,4"/>
<text text-anchor="middle" x="72.4936" y="-7.3" font-family="Helvetica,sans-Serif" font-size="11.00" fill="#000000">Generated by SchemaSpy</text>
<!-- film -->
<g id="node1" class="node">
<title>film</title>
<g id="a_node1"><a xlink:href="../../tables/film.html" xlink:title="film" target="_top">
<polygon fill="#ffffff" stroke="transparent" points="148,-38.2 148,-392.2 427,-392.2 427,-38.2 148,-38.2"/>
<polygon fill="#f5f5f5" stroke="transparent" points="150.5,-367.2 150.5,-390.2 425.5,-390.2 425.5,-367.2 150.5,-367.2"/>
<polygon fill="none" stroke="#000000" points="150.5,-367.2 150.5,-390.2 425.5,-390.2 425.5,-367.2 150.5,-367.2"/>
<text text-anchor="start" x="155.5" y="-376.3" font-family="Helvetica,sans-Serif" font-weight="bold" font-size="11.00" fill="#000000">film</text>
<text text-anchor="start" x="390.5437" y="-375.3" font-family="Helvetica,sans-Serif" font-size="11.00" fill="#000000">[table]</text>
<polygon fill="none" stroke="#000000" points="150.5,-345.2 150.5,-367.2 291.5,-367.2 291.5,-345.2 150.5,-345.2"/>
<image xlink:href="../../images/primaryKeys.png" width="11px" height="12px" preserveAspectRatio="xMinYMin meet" x="155.5" y="-362.2"/>
<text text-anchor="start" x="170.5" y="-352.3" font-family="Helvetica,sans-Serif" font-size="11.00" fill="#000000">film_id</text>
<polygon fill="none" stroke="#000000" points="291.5,-345.2 291.5,-367.2 425.5,-367.2 425.5,-345.2 291.5,-345.2"/>
<text text-anchor="start" x="294.5" y="-352.9" font-family="Helvetica,sans-Serif" font-size="11.00" fill="#000000">serial[10]</text>
<polygon fill="#ffffff" stroke="transparent" points="150.5,-323.2 150.5,-345.2 291.5,-345.2 291.5,-323.2 150.5,-323.2"/>
<polygon fill="none" stroke="#000000" points="150.5,-323.2 150.5,-345.2 291.5,-345.2 291.5,-323.2 150.5,-323.2"/>
<text text-anchor="start" x="170.5" y="-330.3" font-family="Helvetica,sans-Serif" font-size="11.00" fill="#000000">title</text>
<polygon fill="none" stroke="#000000" points="291.5,-323.2 291.5,-345.2 425.5,-345.2 425.5,-323.2 291.5,-323.2"/>
<text text-anchor="start" x="294.5" y="-330.9" font-family="Helvetica,sans-Serif" font-size="11.00" fill="#000000">varchar[255]</text>
<polygon fill="none" stroke="#000000" points="150.5,-301.2 150.5,-323.2 291.5,-323.2 291.5,-301.2 150.5,-301.2"/>
<text text-anchor="start" x="170.5" y="-308.3" font-family="Helvetica,sans-Serif" font-size="11.00" fill="#000000">description</text>
<polygon fill="none" stroke="#000000" points="291.5,-301.2 291.5,-323.2 425.5,-323.2 425.5,-301.2 291.5,-301.2"/>
<text text-anchor="start" x="294.5" y="-308.9" font-family="Helvetica,sans-Serif" font-size="11.00" fill="#000000">text[2147483647]</text>
<polygon fill="none" stroke="#000000" points="150.5,-279.2 150.5,-301.2 291.5,-301.2 291.5,-279.2 150.5,-279.2"/>
<text text-anchor="start" x="170.5" y="-286.3" font-family="Helvetica,sans-Serif" font-size="11.00" fill="#000000">release_year</text>
<polygon fill="none" stroke="#000000" points="291.5,-279.2 291.5,-301.2 425.5,-301.2 425.5,-279.2 291.5,-279.2"/>
<text text-anchor="start" x="294.5" y="-286.9" font-family="Helvetica,sans-Serif" font-size="11.00" fill="#000000">year[10]</text>
<polygon fill="#ffffff" stroke="transparent" points="150.5,-257.2 150.5,-279.2 291.5,-279.2 291.5,-257.2 150.5,-257.2"/>
<polygon fill="none" stroke="#000000" points="150.5,-257.2 150.5,-279.2 291.5,-279.2 291.5,-257.2 150.5,-257.2"/>
<image xlink:href="../../images/foreignKeys.png" width="11px" height="12px" preserveAspectRatio="xMinYMin meet" x="155.5" y="-274.2"/>
<text text-anchor="start" x="170.5" y="-264.3" font-family="Helvetica,sans-Serif" font-size="11.00" fill="#000000">language_id</text>
<polygon fill="none" stroke="#000000" points="291.5,-257.2 291.5,-279.2 425.5,-279.2 425.5,-257.2 291.5,-257.2"/>
<text text-anchor="start" x="294.5" y="-264.9" font-family="Helvetica,sans-Serif" font-size="11.00" fill="#000000">int2[5]</text>
<polygon fill="#ffffff" stroke="transparent" points="150.5,-235.2 150.5,-257.2 291.5,-257.2 291.5,-235.2 150.5,-235.2"/>
<polygon fill="none" stroke="#000000" points="150.5,-235.2 150.5,-257.2 291.5,-257.2 291.5,-235.2 150.5,-235.2"/>
<image xlink:href="../../images/foreignKeys.png" width="11px" height="12px" preserveAspectRatio="xMinYMin meet" x="155.5" y="-252.2"/>
<text text-anchor="start" x="170.5" y="-242.3" font-family="Helvetica,sans-Serif" font-size="11.00" fill="#000000">original_language_id</text>
<polygon fill="none" stroke="#000000" points="291.5,-235.2 291.5,-257.2 425.5,-257.2 425.5,-235.2 291.5,-235.2"/>
<text text-anchor="start" x="294.5" y="-242.9" font-family="Helvetica,sans-Serif" font-size="11.00" fill="#000000">int2[5]</text>
<polygon fill="none" stroke="#000000" points="150.5,-213.2 150.5,-235.2 291.5,-235.2 291.5,-213.2 150.5,-213.2"/>
<text text-anchor="start" x="170.5" y="-220.3" font-family="Helvetica,sans-Serif" font-size="11.00" fill="#000000">rental_duration</text>
<polygon fill="none" stroke="#000000" points="291.5,-213.2 291.5,-235.2 425.5,-235.2 425.5,-213.2 291.5,-213.2"/>
<text text-anchor="start" x="294.5" y="-220.9" font-family="Helvetica,sans-Serif" font-size="11.00" fill="#000000">int2[5]</text>
<polygon fill="none" stroke="#000000" points="150.5,-191.2 150.5,-213.2 291.5,-213.2 291.5,-191.2 150.5,-191.2"/>
<text text-anchor="start" x="170.5" y="-198.3" font-family="Helvetica,sans-Serif" font-size="11.00" fill="#000000">rental_rate</text>
<polygon fill="none" stroke="#000000" points="291.5,-191.2 291.5,-213.2 425.5,-213.2 425.5,-191.2 291.5,-191.2"/>
<text text-anchor="start" x="294.5" y="-198.9" font-family="Helvetica,sans-Serif" font-size="11.00" fill="#000000">numeric[4,2]</text>
<polygon fill="none" stroke="#000000" points="150.5,-169.2 150.5,-191.2 291.5,-191.2 291.5,-169.2 150.5,-169.2"/>
<text text-anchor="start" x="170.5" y="-176.3" font-family="Helvetica,sans-Serif" font-size="11.00" fill="#000000">length</text>
<polygon fill="none" stroke="#000000" points="291.5,-169.2 291.5,-191.2 425.5,-191.2 425.5,-169.2 291.5,-169.2"/>
<text text-anchor="start" x="294.5" y="-176.9" font-family="Helvetica,sans-Serif" font-size="11.00" fill="#000000">int2[5]</text>
<polygon fill="none" stroke="#000000" points="150.5,-147.2 150.5,-169.2 291.5,-169.2 291.5,-147.2 150.5,-147.2"/>
<text text-anchor="start" x="170.5" y="-154.3" font-family="Helvetica,sans-Serif" font-size="11.00" fill="#000000">replacement_cost</text>
<polygon fill="none" stroke="#000000" points="291.5,-147.2 291.5,-169.2 425.5,-169.2 425.5,-147.2 291.5,-147.2"/>
<text text-anchor="start" x="294.5" y="-154.9" font-family="Helvetica,sans-Serif" font-size="11.00" fill="#000000">numeric[5,2]</text>
<polygon fill="none" stroke="#000000" points="150.5,-125.2 150.5,-147.2 291.5,-147.2 291.5,-125.2 150.5,-125.2"/>
<text text-anchor="start" x="170.5" y="-132.3" font-family="Helvetica,sans-Serif" font-size="11.00" fill="#000000">rating</text>
<polygon fill="none" stroke="#000000" points="291.5,-125.2 291.5,-147.2 425.5,-147.2 425.5,-125.2 291.5,-125.2"/>
<text text-anchor="start" x="294.3057" y="-132.9" font-family="Helvetica,sans-Serif" font-size="11.00" fill="#000000">mpaa_rating[2147483647]</text>
<polygon fill="none" stroke="#000000" points="150.5,-103.2 150.5,-125.2 291.5,-125.2 291.5,-103.2 150.5,-103.2"/>
<text text-anchor="start" x="170.5" y="-110.3" font-family="Helvetica,sans-Serif" font-size="11.00" fill="#000000">last_update</text>
<polygon fill="none" stroke="#000000" points="291.5,-103.2 291.5,-125.2 425.5,-125.2 425.5,-103.2 291.5,-103.2"/>
<text text-anchor="start" x="294.5" y="-110.9" font-family="Helvetica,sans-Serif" font-size="11.00" fill="#000000">timestamp[29,6]</text>
<polygon fill="none" stroke="#000000" points="150.5,-81.2 150.5,-103.2 291.5,-103.2 291.5,-81.2 150.5,-81.2"/>
<text text-anchor="start" x="170.5" y="-88.3" font-family="Helvetica,sans-Serif" font-size="11.00" fill="#000000">special_features</text>
<polygon fill="none" stroke="#000000" points="291.5,-81.2 291.5,-103.2 425.5,-103.2 425.5,-81.2 291.5,-81.2"/>
<text text-anchor="start" x="294.5" y="-88.9" font-family="Helvetica,sans-Serif" font-size="11.00" fill="#000000">_text[2147483647]</text>
<polygon fill="#ffffff" stroke="transparent" points="150.5,-59.2 150.5,-81.2 291.5,-81.2 291.5,-59.2 150.5,-59.2"/>
<polygon fill="none" stroke="#000000" points="150.5,-59.2 150.5,-81.2 291.5,-81.2 291.5,-59.2 150.5,-59.2"/>
<text text-anchor="start" x="170.5" y="-66.3" font-family="Helvetica,sans-Serif" font-size="11.00" fill="#000000">fulltext</text>
<polygon fill="none" stroke="#000000" points="291.5,-59.2 291.5,-81.2 425.5,-81.2 425.5,-59.2 291.5,-59.2"/>
<text text-anchor="start" x="294.5" y="-66.9" font-family="Helvetica,sans-Serif" font-size="11.00" fill="#000000">tsvector[2147483647]</text>
<polygon fill="#ffffff" stroke="transparent" points="150.5,-40.2 150.5,-59.2 212.5,-59.2 212.5,-40.2 150.5,-40.2"/>
<polygon fill="none" stroke="#000000" points="150.5,-40.2 150.5,-59.2 212.5,-59.2 212.5,-40.2 150.5,-40.2"/>
<text text-anchor="start" x="153.5" y="-46.3" font-family="Helvetica,sans-Serif" font-size="11.00" fill="#000000">&lt; 2</text>
<polygon fill="#ffffff" stroke="transparent" points="212.5,-40.2 212.5,-59.2 291.5,-59.2 291.5,-40.2 212.5,-40.2"/>
<polygon fill="none" stroke="#000000" points="212.5,-40.2 212.5,-59.2 291.5,-59.2 291.5,-40.2 212.5,-40.2"/>
<text text-anchor="start" x="256.1105" y="-46.3" font-family="Helvetica,sans-Serif" font-size="11.00" fill="#000000">0 rows</text>
<polygon fill="#ffffff" stroke="transparent" points="291.5,-40.2 291.5,-59.2 425.5,-59.2 425.5,-40.2 291.5,-40.2"/>
<polygon fill="none" stroke="#000000" points="291.5,-40.2 291.5,-59.2 425.5,-59.2 425.5,-40.2 291.5,-40.2"/>
<text text-anchor="start" x="406.9053" y="-46.3" font-family="Helvetica,sans-Serif" font-size="11.00" fill="#000000">3 &gt;</text>
<polygon fill="none" stroke="#000000" stroke-width="2" points="149,-39.2 149,-391.2 426,-391.2 426,-39.2 149,-39.2"/>
</a>
</g>
</g>
<!-- language -->
<g id="node2" class="node">
<title>language</title>
<g id="a_node2"><a xlink:href="../../tables/language.html" xlink:title="language" target="_top">
<polygon fill="#ffffff" stroke="transparent" points="8,-208.7 8,-291.7 99,-291.7 99,-208.7 8,-208.7"/>
<polygon fill="#f5f5f5" stroke="transparent" points="8.5,-268.2 8.5,-291.2 99.5,-291.2 99.5,-268.2 8.5,-268.2"/>
<polygon fill="none" stroke="#000000" points="8.5,-268.2 8.5,-291.2 99.5,-291.2 99.5,-268.2 8.5,-268.2"/>
<text text-anchor="start" x="13.5" y="-277.3" font-family="Helvetica,sans-Serif" font-weight="bold" font-size="11.00" fill="#000000">language</text>
<text text-anchor="start" x="64.5437" y="-276.3" font-family="Helvetica,sans-Serif" font-size="11.00" fill="#000000">[table]</text>
<polygon fill="none" stroke="#000000" points="8.5,-246.2 8.5,-268.2 99.5,-268.2 99.5,-246.2 8.5,-246.2"/>
<image xlink:href="../../images/primaryKeys.png" width="11px" height="12px" preserveAspectRatio="xMinYMin meet" x="13.5" y="-263.2"/>
<text text-anchor="start" x="28.5" y="-253.3" font-family="Helvetica,sans-Serif" font-size="11.00" fill="#000000">language_id</text>
<polygon fill="none" stroke="#000000" points="8.5,-227.2 8.5,-246.2 99.5,-246.2 99.5,-227.2 8.5,-227.2"/>
<text text-anchor="start" x="11.5" y="-233.3" font-family="Helvetica,sans-Serif" font-size="11.00" fill="#000000">...</text>
<polygon fill="#ffffff" stroke="transparent" points="8.5,-208.2 8.5,-227.2 30.5,-227.2 30.5,-208.2 8.5,-208.2"/>
<polygon fill="none" stroke="#000000" points="8.5,-208.2 8.5,-227.2 30.5,-227.2 30.5,-208.2 8.5,-208.2"/>
<text text-anchor="start" x="11.5" y="-214.3" font-family="Helvetica,sans-Serif" font-size="11.00" fill="#000000"> &#160;</text>
<polygon fill="#ffffff" stroke="transparent" points="30.5,-208.2 30.5,-227.2 73.5,-227.2 73.5,-208.2 30.5,-208.2"/>
<polygon fill="none" stroke="#000000" points="30.5,-208.2 30.5,-227.2 73.5,-227.2 73.5,-208.2 30.5,-208.2"/>
<text text-anchor="start" x="38.1105" y="-214.3" font-family="Helvetica,sans-Serif" font-size="11.00" fill="#000000">0 rows</text>
<polygon fill="#ffffff" stroke="transparent" points="73.5,-208.2 73.5,-227.2 99.5,-227.2 99.5,-208.2 73.5,-208.2"/>
<polygon fill="none" stroke="#000000" points="73.5,-208.2 73.5,-227.2 99.5,-227.2 99.5,-208.2 73.5,-208.2"/>
<text text-anchor="start" x="80.9053" y="-214.3" font-family="Helvetica,sans-Serif" font-size="11.00" fill="#000000">2 &gt;</text>
</a>
</g>
</g>
<!-- film&#45;&gt;language -->
<g id="edge1" class="edge">
<title>film:w&#45;&gt;language:e</title>
<path fill="none" stroke="#000000" d="M136.0097,-266.4813C123.8398,-263.3875 116.8909,-257.2 99.5,-257.2"/>
<polygon fill="#000000" stroke="#000000" points="142.5557,-267.2576 150.0759,-271.7749 146.5278,-267.7288 150.5,-268.2 150.5,-268.2 150.5,-268.2 146.5278,-267.7288 150.9241,-264.6251 142.5557,-267.2576 142.5557,-267.2576"/>
<ellipse fill="none" stroke="#000000" cx="139.378" cy="-266.8807" rx="3.2" ry="3.2"/>
</g>
<!-- film&#45;&gt;language -->
<g id="edge2" class="edge">
<title>film:w&#45;&gt;language:e</title>
<path fill="none" stroke="#000000" d="M136.0097,-247.9188C123.8398,-251.0125 116.8909,-257.2 99.5,-257.2"/>
<polygon fill="#000000" stroke="#000000" points="142.5557,-247.1424 150.9241,-249.7749 146.5278,-246.6712 150.5,-246.2 150.5,-246.2 150.5,-246.2 146.5278,-246.6712 150.0759,-242.6251 142.5557,-247.1424 142.5557,-247.1424"/>
<ellipse fill="none" stroke="#000000" cx="139.378" cy="-247.5193" rx="3.2" ry="3.2"/>
</g>
<!-- film_actor -->
<g id="node3" class="node">
<title>film_actor</title>
<g id="a_node3"><a xlink:href="../../tables/film_actor.html" xlink:title="film_actor" target="_top">
<polygon fill="#ffffff" stroke="transparent" points="485,-411.7 485,-516.7 575,-516.7 575,-411.7 485,-411.7"/>
<polygon fill="#f5f5f5" stroke="transparent" points="485,-493.2 485,-516.2 575,-516.2 575,-493.2 485,-493.2"/>
<polygon fill="none" stroke="#000000" points="485,-493.2 485,-516.2 575,-516.2 575,-493.2 485,-493.2"/>
<text text-anchor="start" x="489.668" y="-502.3" font-family="Helvetica,sans-Serif" font-weight="bold" font-size="11.00" fill="#000000">film_actor</text>
<text text-anchor="start" x="540.5219" y="-501.3" font-family="Helvetica,sans-Serif" font-size="11.00" fill="#000000">[table]</text>
<polygon fill="none" stroke="#000000" points="485,-471.2 485,-493.2 575,-493.2 575,-471.2 485,-471.2"/>
<image xlink:href="../../images/primaryKeys.png" width="11px" height="12px" preserveAspectRatio="xMinYMin meet" x="490" y="-488.2"/>
<text text-anchor="start" x="507" y="-478.3" font-family="Helvetica,sans-Serif" font-size="11.00" fill="#000000">actor_id</text>
<polygon fill="none" stroke="#000000" points="485,-449.2 485,-471.2 575,-471.2 575,-449.2 485,-449.2"/>
<image xlink:href="../../images/primaryKeys.png" width="11px" height="12px" preserveAspectRatio="xMinYMin meet" x="490" y="-466.2"/>
<text text-anchor="start" x="507" y="-456.3" font-family="Helvetica,sans-Serif" font-size="11.00" fill="#000000">film_id</text>
<polygon fill="none" stroke="#000000" points="485,-430.2 485,-449.2 575,-449.2 575,-430.2 485,-430.2"/>
<text text-anchor="start" x="488" y="-436.3" font-family="Helvetica,sans-Serif" font-size="11.00" fill="#000000">...</text>
<polygon fill="#ffffff" stroke="transparent" points="485,-411.2 485,-430.2 515,-430.2 515,-411.2 485,-411.2"/>
<polygon fill="none" stroke="#000000" points="485,-411.2 485,-430.2 515,-430.2 515,-411.2 485,-411.2"/>
<text text-anchor="start" x="488" y="-417.3" font-family="Helvetica,sans-Serif" font-size="11.00" fill="#000000">&lt; 2</text>
<polygon fill="#ffffff" stroke="transparent" points="515,-411.2 515,-430.2 558,-430.2 558,-411.2 515,-411.2"/>
<polygon fill="none" stroke="#000000" points="515,-411.2 515,-430.2 558,-430.2 558,-411.2 515,-411.2"/>
<text text-anchor="start" x="522.6105" y="-417.3" font-family="Helvetica,sans-Serif" font-size="11.00" fill="#000000">0 rows</text>
<polygon fill="#ffffff" stroke="transparent" points="558,-411.2 558,-430.2 575,-430.2 575,-411.2 558,-411.2"/>
<polygon fill="none" stroke="#000000" points="558,-411.2 558,-430.2 575,-430.2 575,-411.2 558,-411.2"/>
<text text-anchor="start" x="565.8862" y="-417.3" font-family="Helvetica,sans-Serif" font-size="11.00" fill="#000000"> &#160;</text>
</a>
</g>
</g>
<!-- film_actor&#45;&gt;film -->
<g id="edge3" class="edge">
<title>film_actor:w&#45;&gt;film:e</title>
<path fill="none" stroke="#000000" d="M470.8623,-456.7397C440.8306,-438.6941 472.9278,-356.2 425.5,-356.2"/>
<polygon fill="#000000" stroke="#000000" points="477.2294,-458.2981 484.1441,-463.6968 481.1147,-459.249 485,-460.2 485,-460.2 485,-460.2 481.1147,-459.249 485.8559,-456.7032 477.2294,-458.2981 477.2294,-458.2981"/>
<ellipse fill="none" stroke="#000000" cx="474.1211" cy="-457.5373" rx="3.2" ry="3.2"/>
</g>
<!-- film_category -->
<g id="node4" class="node">
<title>film_category</title>
<g id="a_node4"><a xlink:href="../../tables/film_category.html" xlink:title="film_category" target="_top">
<polygon fill="#ffffff" stroke="transparent" points="476,-285.7 476,-390.7 584,-390.7 584,-285.7 476,-285.7"/>
<polygon fill="#f5f5f5" stroke="transparent" points="476,-367.2 476,-390.2 584,-390.2 584,-367.2 476,-367.2"/>
<polygon fill="none" stroke="#000000" points="476,-367.2 476,-390.2 584,-390.2 584,-367.2 476,-367.2"/>
<text text-anchor="start" x="480.8031" y="-376.3" font-family="Helvetica,sans-Serif" font-weight="bold" font-size="11.00" fill="#000000">film_category</text>
<text text-anchor="start" x="549.5219" y="-375.3" font-family="Helvetica,sans-Serif" font-size="11.00" fill="#000000">[table]</text>
<polygon fill="none" stroke="#000000" points="476,-345.2 476,-367.2 584,-367.2 584,-345.2 476,-345.2"/>
<image xlink:href="../../images/primaryKeys.png" width="11px" height="12px" preserveAspectRatio="xMinYMin meet" x="481" y="-362.2"/>
<text text-anchor="start" x="501" y="-352.3" font-family="Helvetica,sans-Serif" font-size="11.00" fill="#000000">film_id</text>
<polygon fill="none" stroke="#000000" points="476,-323.2 476,-345.2 584,-345.2 584,-323.2 476,-323.2"/>
<image xlink:href="../../images/primaryKeys.png" width="11px" height="12px" preserveAspectRatio="xMinYMin meet" x="481" y="-340.2"/>
<text text-anchor="start" x="501" y="-330.3" font-family="Helvetica,sans-Serif" font-size="11.00" fill="#000000">category_id</text>
<polygon fill="none" stroke="#000000" points="476,-304.2 476,-323.2 584,-323.2 584,-304.2 476,-304.2"/>
<text text-anchor="start" x="479" y="-310.3" font-family="Helvetica,sans-Serif" font-size="11.00" fill="#000000">...</text>
<polygon fill="#ffffff" stroke="transparent" points="476,-285.2 476,-304.2 515,-304.2 515,-285.2 476,-285.2"/>
<polygon fill="none" stroke="#000000" points="476,-285.2 476,-304.2 515,-304.2 515,-285.2 476,-285.2"/>
<text text-anchor="start" x="479" y="-291.3" font-family="Helvetica,sans-Serif" font-size="11.00" fill="#000000">&lt; 2</text>
<polygon fill="#ffffff" stroke="transparent" points="515,-285.2 515,-304.2 562,-304.2 562,-285.2 515,-285.2"/>
<polygon fill="none" stroke="#000000" points="515,-285.2 515,-304.2 562,-304.2 562,-285.2 515,-285.2"/>
<text text-anchor="start" x="526.6105" y="-291.3" font-family="Helvetica,sans-Serif" font-size="11.00" fill="#000000">0 rows</text>
<polygon fill="#ffffff" stroke="transparent" points="562,-285.2 562,-304.2 584,-304.2 584,-285.2 562,-285.2"/>
<polygon fill="none" stroke="#000000" points="562,-285.2 562,-304.2 584,-304.2 584,-285.2 562,-285.2"/>
<text text-anchor="start" x="574.8862" y="-291.3" font-family="Helvetica,sans-Serif" font-size="11.00" fill="#000000"> &#160;</text>
</a>
</g>
</g>
<!-- film_category&#45;&gt;film -->
<g id="edge4" class="edge">
<title>film_category:w&#45;&gt;film:e</title>
<path fill="none" stroke="#000000" d="M461.4203,-356.2C449.5435,-356.2 442.158,-356.2 425.5,-356.2"/>
<polygon fill="#000000" stroke="#000000" points="468,-356.2001 476,-359.8 472,-356.2 476,-356.2 476,-356.2 476,-356.2 472,-356.2 476,-352.6 468,-356.2001 468,-356.2001"/>
<ellipse fill="none" stroke="#000000" cx="464.8" cy="-356.2001" rx="3.2" ry="3.2"/>
</g>
<!-- inventory -->
<g id="node5" class="node">
<title>inventory</title>
<g id="a_node5"><a xlink:href="../../tables/inventory.html" xlink:title="inventory" target="_top">
<polygon fill="#ffffff" stroke="transparent" points="484,-137.7 484,-264.7 576,-264.7 576,-137.7 484,-137.7"/>
<polygon fill="#f5f5f5" stroke="transparent" points="484,-241.2 484,-264.2 576,-264.2 576,-241.2 484,-241.2"/>
<polygon fill="none" stroke="#000000" points="484,-241.2 484,-264.2 576,-264.2 576,-241.2 484,-241.2"/>
<text text-anchor="start" x="489" y="-250.3" font-family="Helvetica,sans-Serif" font-weight="bold" font-size="11.00" fill="#000000">inventory</text>
<text text-anchor="start" x="541.0437" y="-249.3" font-family="Helvetica,sans-Serif" font-size="11.00" fill="#000000">[table]</text>
<polygon fill="none" stroke="#000000" points="484,-219.2 484,-241.2 576,-241.2 576,-219.2 484,-219.2"/>
<image xlink:href="../../images/primaryKeys.png" width="11px" height="12px" preserveAspectRatio="xMinYMin meet" x="489" y="-236.2"/>
<text text-anchor="start" x="504" y="-226.3" font-family="Helvetica,sans-Serif" font-size="11.00" fill="#000000">inventory_id</text>
<polygon fill="#ffffff" stroke="transparent" points="484,-197.2 484,-219.2 576,-219.2 576,-197.2 484,-197.2"/>
<polygon fill="none" stroke="#000000" points="484,-197.2 484,-219.2 576,-219.2 576,-197.2 484,-197.2"/>
<image xlink:href="../../images/foreignKeys.png" width="11px" height="12px" preserveAspectRatio="xMinYMin meet" x="489" y="-214.2"/>
<text text-anchor="start" x="504" y="-204.3" font-family="Helvetica,sans-Serif" font-size="11.00" fill="#000000">film_id</text>
<polygon fill="#ffffff" stroke="transparent" points="484,-175.2 484,-197.2 576,-197.2 576,-175.2 484,-175.2"/>
<polygon fill="none" stroke="#000000" points="484,-175.2 484,-197.2 576,-197.2 576,-175.2 484,-175.2"/>
<image xlink:href="../../images/foreignKeys.png" width="11px" height="12px" preserveAspectRatio="xMinYMin meet" x="489" y="-192.2"/>
<text text-anchor="start" x="504" y="-182.3" font-family="Helvetica,sans-Serif" font-size="11.00" fill="#000000">store_id</text>
<polygon fill="none" stroke="#000000" points="484,-156.2 484,-175.2 576,-175.2 576,-156.2 484,-156.2"/>
<text text-anchor="start" x="487" y="-162.3" font-family="Helvetica,sans-Serif" font-size="11.00" fill="#000000">...</text>
<polygon fill="#ffffff" stroke="transparent" points="484,-137.2 484,-156.2 511,-156.2 511,-137.2 484,-137.2"/>
<polygon fill="none" stroke="#000000" points="484,-137.2 484,-156.2 511,-156.2 511,-137.2 484,-137.2"/>
<text text-anchor="start" x="487" y="-143.3" font-family="Helvetica,sans-Serif" font-size="11.00" fill="#000000">&lt; 2</text>
<polygon fill="#ffffff" stroke="transparent" points="511,-137.2 511,-156.2 552,-156.2 552,-137.2 511,-137.2"/>
<polygon fill="none" stroke="#000000" points="511,-137.2 511,-156.2 552,-156.2 552,-137.2 511,-137.2"/>
<text text-anchor="start" x="516.6105" y="-143.3" font-family="Helvetica,sans-Serif" font-size="11.00" fill="#000000">0 rows</text>
<polygon fill="#ffffff" stroke="transparent" points="552,-137.2 552,-156.2 576,-156.2 576,-137.2 552,-137.2"/>
<polygon fill="none" stroke="#000000" points="552,-137.2 552,-156.2 576,-156.2 576,-137.2 552,-137.2"/>
<text text-anchor="start" x="557.4053" y="-143.3" font-family="Helvetica,sans-Serif" font-size="11.00" fill="#000000">1 &gt;</text>
</a>
</g>
</g>
<!-- inventory&#45;&gt;film -->
<g id="edge5" class="edge">
<title>inventory:w&#45;&gt;film:e</title>
<path fill="none" stroke="#000000" d="M469.807,-210.8952C425.5711,-230.9541 490.566,-356.2 425.5,-356.2"/>
<polygon fill="#000000" stroke="#000000" points="476.1405,-209.6925 484.6716,-211.7368 480.0702,-208.9463 484,-208.2 484,-208.2 484,-208.2 480.0702,-208.9463 483.3284,-204.6632 476.1405,-209.6925 476.1405,-209.6925"/>
<ellipse fill="none" stroke="#000000" cx="472.9966" cy="-210.2895" rx="3.2" ry="3.2"/>
</g>
</g>
</svg>
