<?xml version="1.0" encoding="UTF-8" standalone="no"?>
<!DOCTYPE svg PUBLIC "-//W3C//DTD SVG 1.1//EN"
 "http://www.w3.org/Graphics/SVG/1.1/DTD/svg11.dtd">
<!-- Generated by graphviz version 2.40.1 (20161225.0304)
 -->
<!-- Title: twoDegreesRelationshipsDiagram Pages: 1 -->
<svg width="729pt" height="651pt"
 viewBox="0.00 0.00 729.00 651.20" xmlns="http://www.w3.org/2000/svg" xmlns:xlink="http://www.w3.org/1999/xlink">
<g id="graph0" class="graph" transform="scale(1 1) rotate(0) translate(4 647.2)">
<title>twoDegreesRelationshipsDiagram</title>
<polygon fill="#ffffff" stroke="transparent" points="-4,4 -4,-647.2 725,-647.2 725,4 -4,4"/>
<text text-anchor="middle" x="72.4936" y="-7.3" font-family="Helvetica,sans-Serif" font-size="11.00" fill="#000000">Generated by SchemaSpy</text>
<!-- film -->
<g id="node1" class="node">
<title>film</title>
<g id="a_node1"><a xlink:href="../../tables/film.html" xlink:title="film" target="_top">
<polygon fill="#ffffff" stroke="transparent" points="148,-202.7 148,-556.7 427,-556.7 427,-202.7 148,-202.7"/>
<polygon fill="#f5f5f5" stroke="transparent" points="150.5,-531.7 150.5,-554.7 425.5,-554.7 425.5,-531.7 150.5,-531.7"/>
<polygon fill="none" stroke="#000000" points="150.5,-531.7 150.5,-554.7 425.5,-554.7 425.5,-531.7 150.5,-531.7"/>
<text text-anchor="start" x="155.5" y="-540.8" font-family="Helvetica,sans-Serif" font-weight="bold" font-size="11.00" fill="#000000">film</text>
<text text-anchor="start" x="390.5437" y="-539.8" font-family="Helvetica,sans-Serif" font-size="11.00" fill="#000000">[table]</text>
<polygon fill="none" stroke="#000000" points="150.5,-509.7 150.5,-531.7 291.5,-531.7 291.5,-509.7 150.5,-509.7"/>
<image xlink:href="../../images/primaryKeys.png" width="11px" height="12px" preserveAspectRatio="xMinYMin meet" x="155.5" y="-526.7"/>
<text text-anchor="start" x="170.5" y="-516.8" font-family="Helvetica,sans-Serif" font-size="11.00" fill="#000000">film_id</text>
<polygon fill="none" stroke="#000000" points="291.5,-509.7 291.5,-531.7 425.5,-531.7 425.5,-509.7 291.5,-509.7"/>
<text text-anchor="start" x="294.5" y="-517.4" font-family="Helvetica,sans-Serif" font-size="11.00" fill="#000000">serial[10]</text>
<polygon fill="#ffffff" stroke="transparent" points="150.5,-487.7 150.5,-509.7 291.5,-509.7 291.5,-487.7 150.5,-487.7"/>
<polygon fill="none" stroke="#000000" points="150.5,-487.7 150.5,-509.7 291.5,-509.7 291.5,-487.7 150.5,-487.7"/>
<text text-anchor="start" x="170.5" y="-494.8" font-family="Helvetica,sans-Serif" font-size="11.00" fill="#000000">title</text>
<polygon fill="none" stroke="#000000" points="291.5,-487.7 291.5,-509.7 425.5,-509.7 425.5,-487.7 291.5,-487.7"/>
<text text-anchor="start" x="294.5" y="-495.4" font-family="Helvetica,sans-Serif" font-size="11.00" fill="#000000">varchar[255]</text>
<polygon fill="none" stroke="#000000" points="150.5,-465.7 150.5,-487.7 291.5,-487.7 291.5,-465.7 150.5,-465.7"/>
<text text-anchor="start" x="170.5" y="-472.8" font-family="Helvetica,sans-Serif" font-size="11.00" fill="#000000">description</text>
<polygon fill="none" stroke="#000000" points="291.5,-465.7 291.5,-487.7 425.5,-487.7 425.5,-465.7 291.5,-465.7"/>
<text text-anchor="start" x="294.5" y="-473.4" font-family="Helvetica,sans-Serif" font-size="11.00" fill="#000000">text[2147483647]</text>
<polygon fill="none" stroke="#000000" points="150.5,-443.7 150.5,-465.7 291.5,-465.7 291.5,-443.7 150.5,-443.7"/>
<text text-anchor="start" x="170.5" y="-450.8" font-family="Helvetica,sans-Serif" font-size="11.00" fill="#000000">release_year</text>
<polygon fill="none" stroke="#000000" points="291.5,-443.7 291.5,-465.7 425.5,-465.7 425.5,-443.7 291.5,-443.7"/>
<text text-anchor="start" x="294.5" y="-451.4" font-family="Helvetica,sans-Serif" font-size="11.00" fill="#000000">year[10]</text>
<polygon fill="#ffffff" stroke="transparent" points="150.5,-421.7 150.5,-443.7 291.5,-443.7 291.5,-421.7 150.5,-421.7"/>
<polygon fill="none" stroke="#000000" points="150.5,-421.7 150.5,-443.7 291.5,-443.7 291.5,-421.7 150.5,-421.7"/>
<image xlink:href="../../images/foreignKeys.png" width="11px" height="12px" preserveAspectRatio="xMinYMin meet" x="155.5" y="-438.7"/>
<text text-anchor="start" x="170.5" y="-428.8" font-family="Helvetica,sans-Serif" font-size="11.00" fill="#000000">language_id</text>
<polygon fill="none" stroke="#000000" points="291.5,-421.7 291.5,-443.7 425.5,-443.7 425.5,-421.7 291.5,-421.7"/>
<text text-anchor="start" x="294.5" y="-429.4" font-family="Helvetica,sans-Serif" font-size="11.00" fill="#000000">int2[5]</text>
<polygon fill="#ffffff" stroke="transparent" points="150.5,-399.7 150.5,-421.7 291.5,-421.7 291.5,-399.7 150.5,-399.7"/>
<polygon fill="none" stroke="#000000" points="150.5,-399.7 150.5,-421.7 291.5,-421.7 291.5,-399.7 150.5,-399.7"/>
<image xlink:href="../../images/foreignKeys.png" width="11px" height="12px" preserveAspectRatio="xMinYMin meet" x="155.5" y="-416.7"/>
<text text-anchor="start" x="170.5" y="-406.8" font-family="Helvetica,sans-Serif" font-size="11.00" fill="#000000">original_language_id</text>
<polygon fill="none" stroke="#000000" points="291.5,-399.7 291.5,-421.7 425.5,-421.7 425.5,-399.7 291.5,-399.7"/>
<text text-anchor="start" x="294.5" y="-407.4" font-family="Helvetica,sans-Serif" font-size="11.00" fill="#000000">int2[5]</text>
<polygon fill="none" stroke="#000000" points="150.5,-377.7 150.5,-399.7 291.5,-399.7 291.5,-377.7 150.5,-377.7"/>
<text text-anchor="start" x="170.5" y="-384.8" font-family="Helvetica,sans-Serif" font-size="11.00" fill="#000000">rental_duration</text>
<polygon fill="none" stroke="#000000" points="291.5,-377.7 291.5,-399.7 425.5,-399.7 425.5,-377.7 291.5,-377.7"/>
<text text-anchor="start" x="294.5" y="-385.4" font-family="Helvetica,sans-Serif" font-size="11.00" fill="#000000">int2[5]</text>
<polygon fill="none" stroke="#000000" points="150.5,-355.7 150.5,-377.7 291.5,-377.7 291.5,-355.7 150.5,-355.7"/>
<text text-anchor="start" x="170.5" y="-362.8" font-family="Helvetica,sans-Serif" font-size="11.00" fill="#000000">rental_rate</text>
<polygon fill="none" stroke="#000000" points="291.5,-355.7 291.5,-377.7 425.5,-377.7 425.5,-355.7 291.5,-355.7"/>
<text text-anchor="start" x="294.5" y="-363.4" font-family="Helvetica,sans-Serif" font-size="11.00" fill="#000000">numeric[4,2]</text>
<polygon fill="none" stroke="#000000" points="150.5,-333.7 150.5,-355.7 291.5,-355.7 291.5,-333.7 150.5,-333.7"/>
<text text-anchor="start" x="170.5" y="-340.8" font-family="Helvetica,sans-Serif" font-size="11.00" fill="#000000">length</text>
<polygon fill="none" stroke="#000000" points="291.5,-333.7 291.5,-355.7 425.5,-355.7 425.5,-333.7 291.5,-333.7"/>
<text text-anchor="start" x="294.5" y="-341.4" font-family="Helvetica,sans-Serif" font-size="11.00" fill="#000000">int2[5]</text>
<polygon fill="none" stroke="#000000" points="150.5,-311.7 150.5,-333.7 291.5,-333.7 291.5,-311.7 150.5,-311.7"/>
<text text-anchor="start" x="170.5" y="-318.8" font-family="Helvetica,sans-Serif" font-size="11.00" fill="#000000">replacement_cost</text>
<polygon fill="none" stroke="#000000" points="291.5,-311.7 291.5,-333.7 425.5,-333.7 425.5,-311.7 291.5,-311.7"/>
<text text-anchor="start" x="294.5" y="-319.4" font-family="Helvetica,sans-Serif" font-size="11.00" fill="#000000">numeric[5,2]</text>
<polygon fill="none" stroke="#000000" points="150.5,-289.7 150.5,-311.7 291.5,-311.7 291.5,-289.7 150.5,-289.7"/>
<text text-anchor="start" x="170.5" y="-296.8" font-family="Helvetica,sans-Serif" font-size="11.00" fill="#000000">rating</text>
<polygon fill="none" stroke="#000000" points="291.5,-289.7 291.5,-311.7 425.5,-311.7 425.5,-289.7 291.5,-289.7"/>
<text text-anchor="start" x="294.3057" y="-297.4" font-family="Helvetica,sans-Serif" font-size="11.00" fill="#000000">mpaa_rating[2147483647]</text>
<polygon fill="none" stroke="#000000" points="150.5,-267.7 150.5,-289.7 291.5,-289.7 291.5,-267.7 150.5,-267.7"/>
<text text-anchor="start" x="170.5" y="-274.8" font-family="Helvetica,sans-Serif" font-size="11.00" fill="#000000">last_update</text>
<polygon fill="none" stroke="#000000" points="291.5,-267.7 291.5,-289.7 425.5,-289.7 425.5,-267.7 291.5,-267.7"/>
<text text-anchor="start" x="294.5" y="-275.4" font-family="Helvetica,sans-Serif" font-size="11.00" fill="#000000">timestamp[29,6]</text>
<polygon fill="none" stroke="#000000" points="150.5,-245.7 150.5,-267.7 291.5,-267.7 291.5,-245.7 150.5,-245.7"/>
<text text-anchor="start" x="170.5" y="-252.8" font-family="Helvetica,sans-Serif" font-size="11.00" fill="#000000">special_features</text>
<polygon fill="none" stroke="#000000" points="291.5,-245.7 291.5,-267.7 425.5,-267.7 425.5,-245.7 291.5,-245.7"/>
<text text-anchor="start" x="294.5" y="-253.4" font-family="Helvetica,sans-Serif" font-size="11.00" fill="#000000">_text[2147483647]</text>
<polygon fill="#ffffff" stroke="transparent" points="150.5,-223.7 150.5,-245.7 291.5,-245.7 291.5,-223.7 150.5,-223.7"/>
<polygon fill="none" stroke="#000000" points="150.5,-223.7 150.5,-245.7 291.5,-245.7 291.5,-223.7 150.5,-223.7"/>
<text text-anchor="start" x="170.5" y="-230.8" font-family="Helvetica,sans-Serif" font-size="11.00" fill="#000000">fulltext</text>
<polygon fill="none" stroke="#000000" points="291.5,-223.7 291.5,-245.7 425.5,-245.7 425.5,-223.7 291.5,-223.7"/>
<text text-anchor="start" x="294.5" y="-231.4" font-family="Helvetica,sans-Serif" font-size="11.00" fill="#000000">tsvector[2147483647]</text>
<polygon fill="#ffffff" stroke="transparent" points="150.5,-204.7 150.5,-223.7 212.5,-223.7 212.5,-204.7 150.5,-204.7"/>
<polygon fill="none" stroke="#000000" points="150.5,-204.7 150.5,-223.7 212.5,-223.7 212.5,-204.7 150.5,-204.7"/>
<text text-anchor="start" x="153.5" y="-210.8" font-family="Helvetica,sans-Serif" font-size="11.00" fill="#000000">&lt; 2</text>
<polygon fill="#ffffff" stroke="transparent" points="212.5,-204.7 212.5,-223.7 291.5,-223.7 291.5,-204.7 212.5,-204.7"/>
<polygon fill="none" stroke="#000000" points="212.5,-204.7 212.5,-223.7 291.5,-223.7 291.5,-204.7 212.5,-204.7"/>
<text text-anchor="start" x="256.1105" y="-210.8" font-family="Helvetica,sans-Serif" font-size="11.00" fill="#000000">0 rows</text>
<polygon fill="#ffffff" stroke="transparent" points="291.5,-204.7 291.5,-223.7 425.5,-223.7 425.5,-204.7 291.5,-204.7"/>
<polygon fill="none" stroke="#000000" points="291.5,-204.7 291.5,-223.7 425.5,-223.7 425.5,-204.7 291.5,-204.7"/>
<text text-anchor="start" x="406.9053" y="-210.8" font-family="Helvetica,sans-Serif" font-size="11.00" fill="#000000">3 &gt;</text>
<polygon fill="none" stroke="#000000" stroke-width="2" points="149,-203.7 149,-555.7 426,-555.7 426,-203.7 149,-203.7"/>
</a>
</g>
</g>
<!-- language -->
<g id="node2" class="node">
<title>language</title>
<g id="a_node2"><a xlink:href="../../tables/language.html" xlink:title="language" target="_top">
<polygon fill="#ffffff" stroke="transparent" points="8,-373.2 8,-456.2 99,-456.2 99,-373.2 8,-373.2"/>
<polygon fill="#f5f5f5" stroke="transparent" points="8.5,-432.7 8.5,-455.7 99.5,-455.7 99.5,-432.7 8.5,-432.7"/>
<polygon fill="none" stroke="#000000" points="8.5,-432.7 8.5,-455.7 99.5,-455.7 99.5,-432.7 8.5,-432.7"/>
<text text-anchor="start" x="13.5" y="-441.8" font-family="Helvetica,sans-Serif" font-weight="bold" font-size="11.00" fill="#000000">language</text>
<text text-anchor="start" x="64.5437" y="-440.8" font-family="Helvetica,sans-Serif" font-size="11.00" fill="#000000">[table]</text>
<polygon fill="none" stroke="#000000" points="8.5,-410.7 8.5,-432.7 99.5,-432.7 99.5,-410.7 8.5,-410.7"/>
<image xlink:href="../../images/primaryKeys.png" width="11px" height="12px" preserveAspectRatio="xMinYMin meet" x="13.5" y="-427.7"/>
<text text-anchor="start" x="28.5" y="-417.8" font-family="Helvetica,sans-Serif" font-size="11.00" fill="#000000">language_id</text>
<polygon fill="none" stroke="#000000" points="8.5,-391.7 8.5,-410.7 99.5,-410.7 99.5,-391.7 8.5,-391.7"/>
<text text-anchor="start" x="11.5" y="-397.8" font-family="Helvetica,sans-Serif" font-size="11.00" fill="#000000">...</text>
<polygon fill="#ffffff" stroke="transparent" points="8.5,-372.7 8.5,-391.7 30.5,-391.7 30.5,-372.7 8.5,-372.7"/>
<polygon fill="none" stroke="#000000" points="8.5,-372.7 8.5,-391.7 30.5,-391.7 30.5,-372.7 8.5,-372.7"/>
<text text-anchor="start" x="11.5" y="-378.8" font-family="Helvetica,sans-Serif" font-size="11.00" fill="#000000"> &#160;</text>
<polygon fill="#ffffff" stroke="transparent" points="30.5,-372.7 30.5,-391.7 73.5,-391.7 73.5,-372.7 30.5,-372.7"/>
<polygon fill="none" stroke="#000000" points="30.5,-372.7 30.5,-391.7 73.5,-391.7 73.5,-372.7 30.5,-372.7"/>
<text text-anchor="start" x="38.1105" y="-378.8" font-family="Helvetica,sans-Serif" font-size="11.00" fill="#000000">0 rows</text>
<polygon fill="#ffffff" stroke="transparent" points="73.5,-372.7 73.5,-391.7 99.5,-391.7 99.5,-372.7 73.5,-372.7"/>
<polygon fill="none" stroke="#000000" points="73.5,-372.7 73.5,-391.7 99.5,-391.7 99.5,-372.7 73.5,-372.7"/>
<text text-anchor="start" x="80.9053" y="-378.8" font-family="Helvetica,sans-Serif" font-size="11.00" fill="#000000">2 &gt;</text>
</a>
</g>
</g>
<!-- film&#45;&gt;language -->
<g id="edge1" class="edge">
<title>film:w&#45;&gt;language:e</title>
<path fill="none" stroke="#000000" d="M136.0097,-430.9813C123.8398,-427.8875 116.8909,-421.7 99.5,-421.7"/>
<polygon fill="#000000" stroke="#000000" points="142.5557,-431.7576 150.0759,-436.2749 146.5278,-432.2288 150.5,-432.7 150.5,-432.7 150.5,-432.7 146.5278,-432.2288 150.9241,-429.1251 142.5557,-431.7576 142.5557,-431.7576"/>
<ellipse fill="none" stroke="#000000" cx="139.378" cy="-431.3807" rx="3.2" ry="3.2"/>
</g>
<!-- film&#45;&gt;language -->
<g id="edge2" class="edge">
<title>film:w&#45;&gt;language:e</title>
<path fill="none" stroke="#000000" d="M136.0097,-412.4188C123.8398,-415.5125 116.8909,-421.7 99.5,-421.7"/>
<polygon fill="#000000" stroke="#000000" points="142.5557,-411.6424 150.9241,-414.2749 146.5278,-411.1712 150.5,-410.7 150.5,-410.7 150.5,-410.7 146.5278,-411.1712 150.0759,-407.1251 142.5557,-411.6424 142.5557,-411.6424"/>
<ellipse fill="none" stroke="#000000" cx="139.378" cy="-412.0193" rx="3.2" ry="3.2"/>
</g>
<!-- film_actor -->
<g id="node3" class="node">
<title>film_actor</title>
<g id="a_node3"><a xlink:href="../../tables/film_actor.html" xlink:title="film_actor" target="_top">
<polygon fill="#ffffff" stroke="transparent" points="485,-503.2 485,-608.2 575,-608.2 575,-503.2 485,-503.2"/>
<polygon fill="#f5f5f5" stroke="transparent" points="485,-584.7 485,-607.7 575,-607.7 575,-584.7 485,-584.7"/>
<polygon fill="none" stroke="#000000" points="485,-584.7 485,-607.7 575,-607.7 575,-584.7 485,-584.7"/>
<text text-anchor="start" x="489.668" y="-593.8" font-family="Helvetica,sans-Serif" font-weight="bold" font-size="11.00" fill="#000000">film_actor</text>
<text text-anchor="start" x="540.5219" y="-592.8" font-family="Helvetica,sans-Serif" font-size="11.00" fill="#000000">[table]</text>
<polygon fill="none" stroke="#000000" points="485,-562.7 485,-584.7 575,-584.7 575,-562.7 485,-562.7"/>
<image xlink:href="../../images/primaryKeys.png" width="11px" height="12px" preserveAspectRatio="xMinYMin meet" x="490" y="-579.7"/>
<text text-anchor="start" x="507" y="-569.8" font-family="Helvetica,sans-Serif" font-size="11.00" fill="#000000">actor_id</text>
<polygon fill="none" stroke="#000000" points="485,-540.7 485,-562.7 575,-562.7 575,-540.7 485,-540.7"/>
<image xlink:href="../../images/primaryKeys.png" width="11px" height="12px" preserveAspectRatio="xMinYMin meet" x="490" y="-557.7"/>
<text text-anchor="start" x="507" y="-547.8" font-family="Helvetica,sans-Serif" font-size="11.00" fill="#000000">film_id</text>
<polygon fill="none" stroke="#000000" points="485,-521.7 485,-540.7 575,-540.7 575,-521.7 485,-521.7"/>
<text text-anchor="start" x="488" y="-527.8" font-family="Helvetica,sans-Serif" font-size="11.00" fill="#000000">...</text>
<polygon fill="#ffffff" stroke="transparent" points="485,-502.7 485,-521.7 515,-521.7 515,-502.7 485,-502.7"/>
<polygon fill="none" stroke="#000000" points="485,-502.7 485,-521.7 515,-521.7 515,-502.7 485,-502.7"/>
<text text-anchor="start" x="488" y="-508.8" font-family="Helvetica,sans-Serif" font-size="11.00" fill="#000000">&lt; 2</text>
<polygon fill="#ffffff" stroke="transparent" points="515,-502.7 515,-521.7 558,-521.7 558,-502.7 515,-502.7"/>
<polygon fill="none" stroke="#000000" points="515,-502.7 515,-521.7 558,-521.7 558,-502.7 515,-502.7"/>
<text text-anchor="start" x="522.6105" y="-508.8" font-family="Helvetica,sans-Serif" font-size="11.00" fill="#000000">0 rows</text>
<polygon fill="#ffffff" stroke="transparent" points="558,-502.7 558,-521.7 575,-521.7 575,-502.7 558,-502.7"/>
<polygon fill="none" stroke="#000000" points="558,-502.7 558,-521.7 575,-521.7 575,-502.7 558,-502.7"/>
<text text-anchor="start" x="565.8862" y="-508.8" font-family="Helvetica,sans-Serif" font-size="11.00" fill="#000000"> &#160;</text>
</a>
</g>
</g>
<!-- film_actor&#45;&gt;film -->
<g id="edge4" class="edge">
<title>film_actor:w&#45;&gt;film:e</title>
<path fill="none" stroke="#000000" d="M470.51,-548.6143C454.0923,-540.7732 449.4945,-520.7 425.5,-520.7"/>
<polygon fill="#000000" stroke="#000000" points="477.1755,-550.0337 484.2502,-555.221 481.0877,-550.8668 485,-551.7 485,-551.7 485,-551.7 481.0877,-550.8668 485.7498,-548.179 477.1755,-550.0337 477.1755,-550.0337"/>
<ellipse fill="none" stroke="#000000" cx="474.0456" cy="-549.3671" rx="3.2" ry="3.2"/>
</g>
<!-- actor -->
<g id="node4" class="node">
<title>actor</title>
<g id="a_node4"><a xlink:href="../../tables/actor.html" xlink:title="actor" target="_top">
<polygon fill="#ffffff" stroke="transparent" points="246,-578.2 246,-639.2 329,-639.2 329,-578.2 246,-578.2"/>
<polygon fill="#f5f5f5" stroke="transparent" points="246.5,-615.7 246.5,-638.7 329.5,-638.7 329.5,-615.7 246.5,-615.7"/>
<polygon fill="none" stroke="#000000" points="246.5,-615.7 246.5,-638.7 329.5,-638.7 329.5,-615.7 246.5,-615.7"/>
<text text-anchor="start" x="251.5" y="-624.8" font-family="Helvetica,sans-Serif" font-weight="bold" font-size="11.00" fill="#000000">actor</text>
<text text-anchor="start" x="294.5437" y="-623.8" font-family="Helvetica,sans-Serif" font-size="11.00" fill="#000000">[table]</text>
<polygon fill="none" stroke="#000000" points="246.5,-596.7 246.5,-615.7 329.5,-615.7 329.5,-596.7 246.5,-596.7"/>
<text text-anchor="start" x="249.5" y="-602.8" font-family="Helvetica,sans-Serif" font-size="11.00" fill="#000000">...</text>
<polygon fill="#ffffff" stroke="transparent" points="246.5,-577.7 246.5,-596.7 258.5,-596.7 258.5,-577.7 246.5,-577.7"/>
<polygon fill="none" stroke="#000000" points="246.5,-577.7 246.5,-596.7 258.5,-596.7 258.5,-577.7 246.5,-577.7"/>
<text text-anchor="start" x="249.4431" y="-583.8" font-family="Helvetica,sans-Serif" font-size="11.00" fill="#000000"> &#160;</text>
<polygon fill="#ffffff" stroke="transparent" points="258.5,-577.7 258.5,-596.7 308.5,-596.7 308.5,-577.7 258.5,-577.7"/>
<polygon fill="none" stroke="#000000" points="258.5,-577.7 258.5,-596.7 308.5,-596.7 308.5,-577.7 258.5,-577.7"/>
<text text-anchor="start" x="261.1904" y="-583.8" font-family="Helvetica,sans-Serif" font-size="11.00" fill="#000000">200 rows</text>
<polygon fill="#ffffff" stroke="transparent" points="308.5,-577.7 308.5,-596.7 329.5,-596.7 329.5,-577.7 308.5,-577.7"/>
<polygon fill="none" stroke="#000000" points="308.5,-577.7 308.5,-596.7 329.5,-596.7 329.5,-577.7 308.5,-577.7"/>
<text text-anchor="start" x="311.2027" y="-583.8" font-family="Helvetica,sans-Serif" font-size="11.00" fill="#000000">1 &gt;</text>
</a>
</g>
</g>
<!-- film_actor&#45;&gt;actor -->
<g id="edge3" class="edge">
<title>film_actor:w&#45;&gt;actor:e</title>
<path fill="none" stroke="#000000" d="M470.5407,-574.1772C412.0687,-578.1579 394.9603,-605.7 329.5,-605.7"/>
<polygon fill="#000000" stroke="#000000" points="477.0044,-573.9639 485.1188,-577.298 481.0022,-573.832 485,-573.7 485,-573.7 485,-573.7 481.0022,-573.832 484.8812,-570.102 477.0044,-573.9639 477.0044,-573.9639"/>
<ellipse fill="none" stroke="#000000" cx="473.8061" cy="-574.0695" rx="3.2" ry="3.2"/>
</g>
<!-- film_category -->
<g id="node5" class="node">
<title>film_category</title>
<g id="a_node5"><a xlink:href="../../tables/film_category.html" xlink:title="film_category" target="_top">
<polygon fill="#ffffff" stroke="transparent" points="476,-332.2 476,-437.2 584,-437.2 584,-332.2 476,-332.2"/>
<polygon fill="#f5f5f5" stroke="transparent" points="476,-413.7 476,-436.7 584,-436.7 584,-413.7 476,-413.7"/>
<polygon fill="none" stroke="#000000" points="476,-413.7 476,-436.7 584,-436.7 584,-413.7 476,-413.7"/>
<text text-anchor="start" x="480.8031" y="-422.8" font-family="Helvetica,sans-Serif" font-weight="bold" font-size="11.00" fill="#000000">film_category</text>
<text text-anchor="start" x="549.5219" y="-421.8" font-family="Helvetica,sans-Serif" font-size="11.00" fill="#000000">[table]</text>
<polygon fill="none" stroke="#000000" points="476,-391.7 476,-413.7 584,-413.7 584,-391.7 476,-391.7"/>
<image xlink:href="../../images/primaryKeys.png" width="11px" height="12px" preserveAspectRatio="xMinYMin meet" x="481" y="-408.7"/>
<text text-anchor="start" x="501" y="-398.8" font-family="Helvetica,sans-Serif" font-size="11.00" fill="#000000">film_id</text>
<polygon fill="none" stroke="#000000" points="476,-369.7 476,-391.7 584,-391.7 584,-369.7 476,-369.7"/>
<image xlink:href="../../images/primaryKeys.png" width="11px" height="12px" preserveAspectRatio="xMinYMin meet" x="481" y="-386.7"/>
<text text-anchor="start" x="501" y="-376.8" font-family="Helvetica,sans-Serif" font-size="11.00" fill="#000000">category_id</text>
<polygon fill="none" stroke="#000000" points="476,-350.7 476,-369.7 584,-369.7 584,-350.7 476,-350.7"/>
<text text-anchor="start" x="479" y="-356.8" font-family="Helvetica,sans-Serif" font-size="11.00" fill="#000000">...</text>
<polygon fill="#ffffff" stroke="transparent" points="476,-331.7 476,-350.7 515,-350.7 515,-331.7 476,-331.7"/>
<polygon fill="none" stroke="#000000" points="476,-331.7 476,-350.7 515,-350.7 515,-331.7 476,-331.7"/>
<text text-anchor="start" x="479" y="-337.8" font-family="Helvetica,sans-Serif" font-size="11.00" fill="#000000">&lt; 2</text>
<polygon fill="#ffffff" stroke="transparent" points="515,-331.7 515,-350.7 562,-350.7 562,-331.7 515,-331.7"/>
<polygon fill="none" stroke="#000000" points="515,-331.7 515,-350.7 562,-350.7 562,-331.7 515,-331.7"/>
<text text-anchor="start" x="526.6105" y="-337.8" font-family="Helvetica,sans-Serif" font-size="11.00" fill="#000000">0 rows</text>
<polygon fill="#ffffff" stroke="transparent" points="562,-331.7 562,-350.7 584,-350.7 584,-331.7 562,-331.7"/>
<polygon fill="none" stroke="#000000" points="562,-331.7 562,-350.7 584,-350.7 584,-331.7 562,-331.7"/>
<text text-anchor="start" x="574.8862" y="-337.8" font-family="Helvetica,sans-Serif" font-size="11.00" fill="#000000"> &#160;</text>
</a>
</g>
</g>
<!-- film_category&#45;&gt;film -->
<g id="edge6" class="edge">
<title>film_category:w&#45;&gt;film:e</title>
<path fill="none" stroke="#000000" d="M461.6932,-406.3609C431.0264,-426.278 476.5289,-520.7 425.5,-520.7"/>
<polygon fill="#000000" stroke="#000000" points="468.2497,-404.6832 476.8925,-406.1876 472.1249,-403.6916 476,-402.7 476,-402.7 476,-402.7 472.1249,-403.6916 475.1075,-399.2124 468.2497,-404.6832 468.2497,-404.6832"/>
<ellipse fill="none" stroke="#000000" cx="465.1496" cy="-405.4765" rx="3.2" ry="3.2"/>
</g>
<!-- category -->
<g id="node6" class="node">
<title>category</title>
<g id="a_node6"><a xlink:href="../../tables/category.html" xlink:title="category" target="_top">
<polygon fill="#ffffff" stroke="transparent" points="245,-120.2 245,-181.2 330,-181.2 330,-120.2 245,-120.2"/>
<polygon fill="#f5f5f5" stroke="transparent" points="245.5,-157.7 245.5,-180.7 330.5,-180.7 330.5,-157.7 245.5,-157.7"/>
<polygon fill="none" stroke="#000000" points="245.5,-157.7 245.5,-180.7 330.5,-180.7 330.5,-157.7 245.5,-157.7"/>
<text text-anchor="start" x="250.4108" y="-166.8" font-family="Helvetica,sans-Serif" font-weight="bold" font-size="11.00" fill="#000000">category</text>
<text text-anchor="start" x="296.0219" y="-165.8" font-family="Helvetica,sans-Serif" font-size="11.00" fill="#000000">[table]</text>
<polygon fill="none" stroke="#000000" points="245.5,-138.7 245.5,-157.7 330.5,-157.7 330.5,-138.7 245.5,-138.7"/>
<text text-anchor="start" x="248.5" y="-144.8" font-family="Helvetica,sans-Serif" font-size="11.00" fill="#000000">...</text>
<polygon fill="#ffffff" stroke="transparent" points="245.5,-119.7 245.5,-138.7 261.5,-138.7 261.5,-119.7 245.5,-119.7"/>
<polygon fill="none" stroke="#000000" points="245.5,-119.7 245.5,-138.7 261.5,-138.7 261.5,-119.7 245.5,-119.7"/>
<text text-anchor="start" x="248.5" y="-125.8" font-family="Helvetica,sans-Serif" font-size="11.00" fill="#000000"> &#160;</text>
<polygon fill="#ffffff" stroke="transparent" points="261.5,-119.7 261.5,-138.7 307.5,-138.7 307.5,-119.7 261.5,-119.7"/>
<polygon fill="none" stroke="#000000" points="261.5,-119.7 261.5,-138.7 307.5,-138.7 307.5,-119.7 261.5,-119.7"/>
<text text-anchor="start" x="265.9956" y="-125.8" font-family="Helvetica,sans-Serif" font-size="11.00" fill="#000000">16 rows</text>
<polygon fill="#ffffff" stroke="transparent" points="307.5,-119.7 307.5,-138.7 330.5,-138.7 330.5,-119.7 307.5,-119.7"/>
<polygon fill="none" stroke="#000000" points="307.5,-119.7 307.5,-138.7 330.5,-138.7 330.5,-119.7 307.5,-119.7"/>
<text text-anchor="start" x="311.9053" y="-125.8" font-family="Helvetica,sans-Serif" font-size="11.00" fill="#000000">1 &gt;</text>
</a>
</g>
</g>
<!-- film_category&#45;&gt;category -->
<g id="edge5" class="edge">
<title>film_category:w&#45;&gt;category:e</title>
<path fill="none" stroke="#000000" d="M461.6722,-379.2271C402.5949,-365.2045 485.8937,-254.4335 435,-192.7 402.8333,-153.6822 381.0676,-147.7 330.5,-147.7"/>
<polygon fill="#000000" stroke="#000000" points="468.0419,-379.8818 475.6318,-384.2811 472.021,-380.2909 476,-380.7 476,-380.7 476,-380.7 472.021,-380.2909 476.3682,-377.1189 468.0419,-379.8818 468.0419,-379.8818"/>
<ellipse fill="none" stroke="#000000" cx="464.8587" cy="-379.5546" rx="3.2" ry="3.2"/>
</g>
<!-- inventory -->
<g id="node7" class="node">
<title>inventory</title>
<g id="a_node7"><a xlink:href="../../tables/inventory.html" xlink:title="inventory" target="_top">
<polygon fill="#ffffff" stroke="transparent" points="484,-94.2 484,-221.2 576,-221.2 576,-94.2 484,-94.2"/>
<polygon fill="#f5f5f5" stroke="transparent" points="484,-197.7 484,-220.7 576,-220.7 576,-197.7 484,-197.7"/>
<polygon fill="none" stroke="#000000" points="484,-197.7 484,-220.7 576,-220.7 576,-197.7 484,-197.7"/>
<text text-anchor="start" x="489" y="-206.8" font-family="Helvetica,sans-Serif" font-weight="bold" font-size="11.00" fill="#000000">inventory</text>
<text text-anchor="start" x="541.0437" y="-205.8" font-family="Helvetica,sans-Serif" font-size="11.00" fill="#000000">[table]</text>
<polygon fill="none" stroke="#000000" points="484,-175.7 484,-197.7 576,-197.7 576,-175.7 484,-175.7"/>
<image xlink:href="../../images/primaryKeys.png" width="11px" height="12px" preserveAspectRatio="xMinYMin meet" x="489" y="-192.7"/>
<text text-anchor="start" x="504" y="-182.8" font-family="Helvetica,sans-Serif" font-size="11.00" fill="#000000">inventory_id</text>
<polygon fill="#ffffff" stroke="transparent" points="484,-153.7 484,-175.7 576,-175.7 576,-153.7 484,-153.7"/>
<polygon fill="none" stroke="#000000" points="484,-153.7 484,-175.7 576,-175.7 576,-153.7 484,-153.7"/>
<image xlink:href="../../images/foreignKeys.png" width="11px" height="12px" preserveAspectRatio="xMinYMin meet" x="489" y="-170.7"/>
<text text-anchor="start" x="504" y="-160.8" font-family="Helvetica,sans-Serif" font-size="11.00" fill="#000000">film_id</text>
<polygon fill="#ffffff" stroke="transparent" points="484,-131.7 484,-153.7 576,-153.7 576,-131.7 484,-131.7"/>
<polygon fill="none" stroke="#000000" points="484,-131.7 484,-153.7 576,-153.7 576,-131.7 484,-131.7"/>
<image xlink:href="../../images/foreignKeys.png" width="11px" height="12px" preserveAspectRatio="xMinYMin meet" x="489" y="-148.7"/>
<text text-anchor="start" x="504" y="-138.8" font-family="Helvetica,sans-Serif" font-size="11.00" fill="#000000">store_id</text>
<polygon fill="none" stroke="#000000" points="484,-112.7 484,-131.7 576,-131.7 576,-112.7 484,-112.7"/>
<text text-anchor="start" x="487" y="-118.8" font-family="Helvetica,sans-Serif" font-size="11.00" fill="#000000">...</text>
<polygon fill="#ffffff" stroke="transparent" points="484,-93.7 484,-112.7 511,-112.7 511,-93.7 484,-93.7"/>
<polygon fill="none" stroke="#000000" points="484,-93.7 484,-112.7 511,-112.7 511,-93.7 484,-93.7"/>
<text text-anchor="start" x="487" y="-99.8" font-family="Helvetica,sans-Serif" font-size="11.00" fill="#000000">&lt; 2</text>
<polygon fill="#ffffff" stroke="transparent" points="511,-93.7 511,-112.7 552,-112.7 552,-93.7 511,-93.7"/>
<polygon fill="none" stroke="#000000" points="511,-93.7 511,-112.7 552,-112.7 552,-93.7 511,-93.7"/>
<text text-anchor="start" x="516.6105" y="-99.8" font-family="Helvetica,sans-Serif" font-size="11.00" fill="#000000">0 rows</text>
<polygon fill="#ffffff" stroke="transparent" points="552,-93.7 552,-112.7 576,-112.7 576,-93.7 552,-93.7"/>
<polygon fill="none" stroke="#000000" points="552,-93.7 552,-112.7 576,-112.7 576,-93.7 552,-93.7"/>
<text text-anchor="start" x="557.4053" y="-99.8" font-family="Helvetica,sans-Serif" font-size="11.00" fill="#000000">1 &gt;</text>
</a>
</g>
</g>
<!-- inventory&#45;&gt;film -->
<g id="edge7" class="edge">
<title>inventory:w&#45;&gt;film:e</title>
<path fill="none" stroke="#000000" d="M469.9939,-169.4633C416.9013,-211.7083 500.1916,-520.7 425.5,-520.7"/>
<polygon fill="#000000" stroke="#000000" points="476.426,-167.2759 485.1591,-168.1083 480.213,-165.9879 484,-164.7 484,-164.7 484,-164.7 480.213,-165.9879 482.8409,-161.2917 476.426,-167.2759 476.426,-167.2759"/>
<ellipse fill="none" stroke="#000000" cx="473.3964" cy="-168.3062" rx="3.2" ry="3.2"/>
</g>
<!-- store -->
<g id="node8" class="node">
<title>store</title>
<g id="a_node8"><a xlink:href="../../tables/store.html" xlink:title="store" target="_top">
<polygon fill="#ffffff" stroke="transparent" points="247.5,-38.2 247.5,-99.2 327.5,-99.2 327.5,-38.2 247.5,-38.2"/>
<polygon fill="#f5f5f5" stroke="transparent" points="247.5,-75.7 247.5,-98.7 327.5,-98.7 327.5,-75.7 247.5,-75.7"/>
<polygon fill="none" stroke="#000000" points="247.5,-75.7 247.5,-98.7 327.5,-98.7 327.5,-75.7 247.5,-75.7"/>
<text text-anchor="start" x="252.5" y="-84.8" font-family="Helvetica,sans-Serif" font-weight="bold" font-size="11.00" fill="#000000">store</text>
<text text-anchor="start" x="292.5437" y="-83.8" font-family="Helvetica,sans-Serif" font-size="11.00" fill="#000000">[table]</text>
<polygon fill="none" stroke="#000000" points="247.5,-56.7 247.5,-75.7 327.5,-75.7 327.5,-56.7 247.5,-56.7"/>
<text text-anchor="start" x="250.5" y="-62.8" font-family="Helvetica,sans-Serif" font-size="11.00" fill="#000000">...</text>
<polygon fill="#ffffff" stroke="transparent" points="247.5,-37.7 247.5,-56.7 268.5,-56.7 268.5,-37.7 247.5,-37.7"/>
<polygon fill="none" stroke="#000000" points="247.5,-37.7 247.5,-56.7 268.5,-56.7 268.5,-37.7 247.5,-37.7"/>
<text text-anchor="start" x="250.2027" y="-43.8" font-family="Helvetica,sans-Serif" font-size="11.00" fill="#000000">&lt; 2</text>
<polygon fill="#ffffff" stroke="transparent" points="268.5,-37.7 268.5,-56.7 306.5,-56.7 306.5,-37.7 268.5,-37.7"/>
<polygon fill="none" stroke="#000000" points="268.5,-37.7 268.5,-56.7 306.5,-56.7 306.5,-37.7 268.5,-37.7"/>
<text text-anchor="start" x="271.3053" y="-43.8" font-family="Helvetica,sans-Serif" font-size="11.00" fill="#000000">0 rows</text>
<polygon fill="#ffffff" stroke="transparent" points="306.5,-37.7 306.5,-56.7 327.5,-56.7 327.5,-37.7 306.5,-37.7"/>
<polygon fill="none" stroke="#000000" points="306.5,-37.7 306.5,-56.7 327.5,-56.7 327.5,-37.7 306.5,-37.7"/>
<text text-anchor="start" x="309.2027" y="-43.8" font-family="Helvetica,sans-Serif" font-size="11.00" fill="#000000">3 &gt;</text>
</a>
</g>
</g>
<!-- inventory&#45;&gt;store -->
<g id="edge8" class="edge">
<title>inventory:w&#45;&gt;store:e</title>
<path fill="none" stroke="#000000" d="M469.6769,-139.8592C456.722,-133.7763 452.9122,-119.2679 435,-109.7 389.4642,-85.3767 379.125,-65.7 327.5,-65.7"/>
<polygon fill="#000000" stroke="#000000" points="476.1529,-141.1436 483.2996,-146.2312 480.0764,-141.9218 484,-142.7 484,-142.7 484,-142.7 480.0764,-141.9218 484.7004,-139.1688 476.1529,-141.1436 476.1529,-141.1436"/>
<ellipse fill="none" stroke="#000000" cx="473.014" cy="-140.521" rx="3.2" ry="3.2"/>
</g>
<!-- rental -->
<g id="node9" class="node">
<title>rental</title>
<g id="a_node9"><a xlink:href="../../tables/rental.html" xlink:title="rental" target="_top">
<polygon fill="#ffffff" stroke="transparent" points="633,-159.2 633,-220.2 713,-220.2 713,-159.2 633,-159.2"/>
<polygon fill="#f5f5f5" stroke="transparent" points="633,-196.7 633,-219.7 713,-219.7 713,-196.7 633,-196.7"/>
<polygon fill="none" stroke="#000000" points="633,-196.7 633,-219.7 713,-219.7 713,-196.7 633,-196.7"/>
<text text-anchor="start" x="638" y="-205.8" font-family="Helvetica,sans-Serif" font-weight="bold" font-size="11.00" fill="#000000">rental</text>
<text text-anchor="start" x="678.0437" y="-204.8" font-family="Helvetica,sans-Serif" font-size="11.00" fill="#000000">[table]</text>
<polygon fill="none" stroke="#000000" points="633,-177.7 633,-196.7 713,-196.7 713,-177.7 633,-177.7"/>
<text text-anchor="start" x="636" y="-183.8" font-family="Helvetica,sans-Serif" font-size="11.00" fill="#000000">...</text>
<polygon fill="#ffffff" stroke="transparent" points="633,-158.7 633,-177.7 654,-177.7 654,-158.7 633,-158.7"/>
<polygon fill="none" stroke="#000000" points="633,-158.7 633,-177.7 654,-177.7 654,-158.7 633,-158.7"/>
<text text-anchor="start" x="635.7026" y="-164.8" font-family="Helvetica,sans-Serif" font-size="11.00" fill="#000000">&lt; 3</text>
<polygon fill="#ffffff" stroke="transparent" points="654,-158.7 654,-177.7 692,-177.7 692,-158.7 654,-158.7"/>
<polygon fill="none" stroke="#000000" points="654,-158.7 654,-177.7 692,-177.7 692,-158.7 654,-158.7"/>
<text text-anchor="start" x="656.8053" y="-164.8" font-family="Helvetica,sans-Serif" font-size="11.00" fill="#000000">0 rows</text>
<polygon fill="#ffffff" stroke="transparent" points="692,-158.7 692,-177.7 713,-177.7 713,-158.7 692,-158.7"/>
<polygon fill="none" stroke="#000000" points="692,-158.7 692,-177.7 713,-177.7 713,-158.7 692,-158.7"/>
<text text-anchor="start" x="694.7026" y="-164.8" font-family="Helvetica,sans-Serif" font-size="11.00" fill="#000000">7 &gt;</text>
</a>
</g>
</g>
<!-- rental&#45;&gt;inventory -->
<g id="edge9" class="edge">
<title>rental:w&#45;&gt;inventory:e</title>
<path fill="none" stroke="#000000" d="M618.2652,-186.7C603.8216,-186.7 595.5938,-186.7 576,-186.7"/>
<polygon fill="#000000" stroke="#000000" points="625,-186.7001 633,-190.3 629,-186.7 633,-186.7 633,-186.7 633,-186.7 629,-186.7 633,-183.1 625,-186.7001 625,-186.7001"/>
<ellipse fill="none" stroke="#000000" cx="621.8" cy="-186.7001" rx="3.2" ry="3.2"/>
</g>
</g>
</svg>
