<?xml version="1.0" encoding="UTF-8" standalone="no"?>
<!DOCTYPE svg PUBLIC "-//W3C//DTD SVG 1.1//EN"
 "http://www.w3.org/Graphics/SVG/1.1/DTD/svg11.dtd">
<!-- Generated by graphviz version 2.40.1 (20161225.0304)
 -->
<!-- Title: oneDegreeRelationshipsDiagram Pages: 1 -->
<svg width="383pt" height="303pt"
 viewBox="0.00 0.00 383.00 303.20" xmlns="http://www.w3.org/2000/svg" xmlns:xlink="http://www.w3.org/1999/xlink">
<g id="graph0" class="graph" transform="scale(1 1) rotate(0) translate(4 299.2)">
<title>oneDegreeRelationshipsDiagram</title>
<polygon fill="#ffffff" stroke="transparent" points="-4,4 -4,-299.2 379,-299.2 379,4 -4,4"/>
<text text-anchor="middle" x="72.4936" y="-7.3" font-family="Helvetica,sans-Serif" font-size="11.00" fill="#000000">Generated by SchemaSpy</text>
<!-- film_category -->
<g id="node1" class="node">
<title>film_category</title>
<g id="a_node1"><a xlink:href="../../tables/film_category.html" xlink:title="film_category" target="_top">
<polygon fill="#ffffff" stroke="transparent" points="180,-106.7 180,-218.7 367,-218.7 367,-106.7 180,-106.7"/>
<polygon fill="#f5f5f5" stroke="transparent" points="182.5,-193.7 182.5,-216.7 365.5,-216.7 365.5,-193.7 182.5,-193.7"/>
<polygon fill="none" stroke="#000000" points="182.5,-193.7 182.5,-216.7 365.5,-216.7 365.5,-193.7 182.5,-193.7"/>
<text text-anchor="start" x="187.5" y="-202.8" font-family="Helvetica,sans-Serif" font-weight="bold" font-size="11.00" fill="#000000">film_category</text>
<text text-anchor="start" x="330.5437" y="-201.8" font-family="Helvetica,sans-Serif" font-size="11.00" fill="#000000">[table]</text>
<polygon fill="none" stroke="#000000" points="182.5,-171.7 182.5,-193.7 281.5,-193.7 281.5,-171.7 182.5,-171.7"/>
<image xlink:href="../../images/primaryKeys.png" width="11px" height="12px" preserveAspectRatio="xMinYMin meet" x="187.5" y="-188.7"/>
<text text-anchor="start" x="202.5" y="-178.8" font-family="Helvetica,sans-Serif" font-size="11.00" fill="#000000">film_id</text>
<polygon fill="none" stroke="#000000" points="281.5,-171.7 281.5,-193.7 365.5,-193.7 365.5,-171.7 281.5,-171.7"/>
<text text-anchor="start" x="284.5" y="-179.4" font-family="Helvetica,sans-Serif" font-size="11.00" fill="#000000">int2[5]</text>
<polygon fill="none" stroke="#000000" points="182.5,-149.7 182.5,-171.7 281.5,-171.7 281.5,-149.7 182.5,-149.7"/>
<image xlink:href="../../images/primaryKeys.png" width="11px" height="12px" preserveAspectRatio="xMinYMin meet" x="187.5" y="-166.7"/>
<text text-anchor="start" x="202.5" y="-156.8" font-family="Helvetica,sans-Serif" font-size="11.00" fill="#000000">category_id</text>
<polygon fill="none" stroke="#000000" points="281.5,-149.7 281.5,-171.7 365.5,-171.7 365.5,-149.7 281.5,-149.7"/>
<text text-anchor="start" x="284.5" y="-157.4" font-family="Helvetica,sans-Serif" font-size="11.00" fill="#000000">int2[5]</text>
<polygon fill="none" stroke="#000000" points="182.5,-127.7 182.5,-149.7 281.5,-149.7 281.5,-127.7 182.5,-127.7"/>
<text text-anchor="start" x="202.5" y="-134.8" font-family="Helvetica,sans-Serif" font-size="11.00" fill="#000000">last_update</text>
<polygon fill="none" stroke="#000000" points="281.5,-127.7 281.5,-149.7 365.5,-149.7 365.5,-127.7 281.5,-127.7"/>
<text text-anchor="start" x="284.3807" y="-135.4" font-family="Helvetica,sans-Serif" font-size="11.00" fill="#000000">timestamp[29,6]</text>
<polygon fill="#ffffff" stroke="transparent" points="182.5,-108.7 182.5,-127.7 223.5,-127.7 223.5,-108.7 182.5,-108.7"/>
<polygon fill="none" stroke="#000000" points="182.5,-108.7 182.5,-127.7 223.5,-127.7 223.5,-108.7 182.5,-108.7"/>
<text text-anchor="start" x="185.5" y="-114.8" font-family="Helvetica,sans-Serif" font-size="11.00" fill="#000000">&lt; 2</text>
<polygon fill="#ffffff" stroke="transparent" points="223.5,-108.7 223.5,-127.7 281.5,-127.7 281.5,-108.7 223.5,-108.7"/>
<polygon fill="none" stroke="#000000" points="223.5,-108.7 223.5,-127.7 281.5,-127.7 281.5,-108.7 223.5,-108.7"/>
<text text-anchor="start" x="246.1105" y="-114.8" font-family="Helvetica,sans-Serif" font-size="11.00" fill="#000000">0 rows</text>
<polygon fill="#ffffff" stroke="transparent" points="281.5,-108.7 281.5,-127.7 365.5,-127.7 365.5,-108.7 281.5,-108.7"/>
<polygon fill="none" stroke="#000000" points="281.5,-108.7 281.5,-127.7 365.5,-127.7 365.5,-108.7 281.5,-108.7"/>
<text text-anchor="start" x="346.9053" y="-114.8" font-family="Helvetica,sans-Serif" font-size="11.00" fill="#000000">0 &gt;</text>
<polygon fill="none" stroke="#000000" stroke-width="2" points="181,-107.7 181,-217.7 366,-217.7 366,-107.7 181,-107.7"/>
</a>
</g>
</g>
<!-- category -->
<g id="node2" class="node">
<title>category</title>
<g id="a_node2"><a xlink:href="../../tables/category.html" xlink:title="category" target="_top">
<polygon fill="#ffffff" stroke="transparent" points="25.5,-38.2 25.5,-121.2 113.5,-121.2 113.5,-38.2 25.5,-38.2"/>
<polygon fill="#f5f5f5" stroke="transparent" points="25.5,-97.7 25.5,-120.7 113.5,-120.7 113.5,-97.7 25.5,-97.7"/>
<polygon fill="none" stroke="#000000" points="25.5,-97.7 25.5,-120.7 113.5,-120.7 113.5,-97.7 25.5,-97.7"/>
<text text-anchor="start" x="30.5" y="-106.8" font-family="Helvetica,sans-Serif" font-weight="bold" font-size="11.00" fill="#000000">category</text>
<text text-anchor="start" x="78.5437" y="-105.8" font-family="Helvetica,sans-Serif" font-size="11.00" fill="#000000">[table]</text>
<polygon fill="none" stroke="#000000" points="25.5,-75.7 25.5,-97.7 113.5,-97.7 113.5,-75.7 25.5,-75.7"/>
<image xlink:href="../../images/primaryKeys.png" width="11px" height="12px" preserveAspectRatio="xMinYMin meet" x="30.5" y="-92.7"/>
<text text-anchor="start" x="45.5" y="-82.8" font-family="Helvetica,sans-Serif" font-size="11.00" fill="#000000">category_id</text>
<polygon fill="none" stroke="#000000" points="25.5,-56.7 25.5,-75.7 113.5,-75.7 113.5,-56.7 25.5,-56.7"/>
<text text-anchor="start" x="28.5" y="-62.8" font-family="Helvetica,sans-Serif" font-size="11.00" fill="#000000">...</text>
<polygon fill="#ffffff" stroke="transparent" points="25.5,-37.7 25.5,-56.7 45.5,-56.7 45.5,-37.7 25.5,-37.7"/>
<polygon fill="none" stroke="#000000" points="25.5,-37.7 25.5,-56.7 45.5,-56.7 45.5,-37.7 25.5,-37.7"/>
<text text-anchor="start" x="28.5" y="-43.8" font-family="Helvetica,sans-Serif" font-size="11.00" fill="#000000"> &#160;</text>
<polygon fill="#ffffff" stroke="transparent" points="45.5,-37.7 45.5,-56.7 87.5,-56.7 87.5,-37.7 45.5,-37.7"/>
<polygon fill="none" stroke="#000000" points="45.5,-37.7 45.5,-56.7 87.5,-56.7 87.5,-37.7 45.5,-37.7"/>
<text text-anchor="start" x="52.1105" y="-43.8" font-family="Helvetica,sans-Serif" font-size="11.00" fill="#000000">0 rows</text>
<polygon fill="#ffffff" stroke="transparent" points="87.5,-37.7 87.5,-56.7 113.5,-56.7 113.5,-37.7 87.5,-37.7"/>
<polygon fill="none" stroke="#000000" points="87.5,-37.7 87.5,-56.7 113.5,-56.7 113.5,-37.7 87.5,-37.7"/>
<text text-anchor="start" x="94.9053" y="-43.8" font-family="Helvetica,sans-Serif" font-size="11.00" fill="#000000">1 &gt;</text>
</a>
</g>
</g>
<!-- film_category&#45;&gt;category -->
<g id="edge1" class="edge">
<title>film_category:w&#45;&gt;category:e</title>
<path fill="none" stroke="#000000" d="M168.113,-157.3281C141.8344,-142.8515 152.6714,-86.7 113.5,-86.7"/>
<polygon fill="#000000" stroke="#000000" points="174.7111,-158.8744 181.6785,-164.205 178.6055,-159.7872 182.5,-160.7 182.5,-160.7 182.5,-160.7 178.6055,-159.7872 183.3215,-157.195 174.7111,-158.8744 174.7111,-158.8744"/>
<ellipse fill="none" stroke="#000000" cx="171.5955" cy="-158.1442" rx="3.2" ry="3.2"/>
</g>
<!-- film -->
<g id="node3" class="node">
<title>film</title>
<g id="a_node3"><a xlink:href="../../tables/film.html" xlink:title="film" target="_top">
<polygon fill="#ffffff" stroke="transparent" points="8,-142.2 8,-291.2 131,-291.2 131,-142.2 8,-142.2"/>
<polygon fill="#f5f5f5" stroke="transparent" points="8.5,-267.7 8.5,-290.7 131.5,-290.7 131.5,-267.7 8.5,-267.7"/>
<polygon fill="none" stroke="#000000" points="8.5,-267.7 8.5,-290.7 131.5,-290.7 131.5,-267.7 8.5,-267.7"/>
<text text-anchor="start" x="13.5" y="-276.8" font-family="Helvetica,sans-Serif" font-weight="bold" font-size="11.00" fill="#000000">film</text>
<text text-anchor="start" x="96.5437" y="-275.8" font-family="Helvetica,sans-Serif" font-size="11.00" fill="#000000">[table]</text>
<polygon fill="none" stroke="#000000" points="8.5,-245.7 8.5,-267.7 131.5,-267.7 131.5,-245.7 8.5,-245.7"/>
<image xlink:href="../../images/primaryKeys.png" width="11px" height="12px" preserveAspectRatio="xMinYMin meet" x="13.5" y="-262.7"/>
<text text-anchor="start" x="28.5" y="-252.8" font-family="Helvetica,sans-Serif" font-size="11.00" fill="#000000">film_id</text>
<polygon fill="#ffffff" stroke="transparent" points="8.5,-223.7 8.5,-245.7 131.5,-245.7 131.5,-223.7 8.5,-223.7"/>
<polygon fill="none" stroke="#000000" points="8.5,-223.7 8.5,-245.7 131.5,-245.7 131.5,-223.7 8.5,-223.7"/>
<text text-anchor="start" x="28.5" y="-230.8" font-family="Helvetica,sans-Serif" font-size="11.00" fill="#000000">title</text>
<polygon fill="#ffffff" stroke="transparent" points="8.5,-201.7 8.5,-223.7 131.5,-223.7 131.5,-201.7 8.5,-201.7"/>
<polygon fill="none" stroke="#000000" points="8.5,-201.7 8.5,-223.7 131.5,-223.7 131.5,-201.7 8.5,-201.7"/>
<image xlink:href="../../images/foreignKeys.png" width="11px" height="12px" preserveAspectRatio="xMinYMin meet" x="13.5" y="-218.7"/>
<text text-anchor="start" x="28.5" y="-208.8" font-family="Helvetica,sans-Serif" font-size="11.00" fill="#000000">language_id</text>
<polygon fill="#ffffff" stroke="transparent" points="8.5,-179.7 8.5,-201.7 131.5,-201.7 131.5,-179.7 8.5,-179.7"/>
<polygon fill="none" stroke="#000000" points="8.5,-179.7 8.5,-201.7 131.5,-201.7 131.5,-179.7 8.5,-179.7"/>
<text text-anchor="start" x="28.5" y="-186.8" font-family="Helvetica,sans-Serif" font-size="11.00" fill="#000000">fulltext</text>
<polygon fill="none" stroke="#000000" points="8.5,-160.7 8.5,-179.7 131.5,-179.7 131.5,-160.7 8.5,-160.7"/>
<text text-anchor="start" x="11.5" y="-166.8" font-family="Helvetica,sans-Serif" font-size="11.00" fill="#000000">...</text>
<polygon fill="#ffffff" stroke="transparent" points="8.5,-141.7 8.5,-160.7 50.5,-160.7 50.5,-141.7 8.5,-141.7"/>
<polygon fill="none" stroke="#000000" points="8.5,-141.7 8.5,-160.7 50.5,-160.7 50.5,-141.7 8.5,-141.7"/>
<text text-anchor="start" x="11.5" y="-147.8" font-family="Helvetica,sans-Serif" font-size="11.00" fill="#000000">&lt; 1</text>
<polygon fill="#ffffff" stroke="transparent" points="50.5,-141.7 50.5,-160.7 99.5,-160.7 99.5,-141.7 50.5,-141.7"/>
<polygon fill="none" stroke="#000000" points="50.5,-141.7 50.5,-160.7 99.5,-160.7 99.5,-141.7 50.5,-141.7"/>
<text text-anchor="start" x="64.1105" y="-147.8" font-family="Helvetica,sans-Serif" font-size="11.00" fill="#000000">0 rows</text>
<polygon fill="#ffffff" stroke="transparent" points="99.5,-141.7 99.5,-160.7 131.5,-160.7 131.5,-141.7 99.5,-141.7"/>
<polygon fill="none" stroke="#000000" points="99.5,-141.7 99.5,-160.7 131.5,-160.7 131.5,-141.7 99.5,-141.7"/>
<text text-anchor="start" x="112.9053" y="-147.8" font-family="Helvetica,sans-Serif" font-size="11.00" fill="#000000">3 &gt;</text>
</a>
</g>
</g>
<!-- film_category&#45;&gt;film -->
<g id="edge2" class="edge">
<title>film_category:w&#45;&gt;film:e</title>
<path fill="none" stroke="#000000" d="M168.5503,-187.329C149.7607,-203.5294 165.3581,-256.7 131.5,-256.7"/>
<polygon fill="#000000" stroke="#000000" points="174.9071,-185.2196 183.6338,-186.1168 178.7036,-183.9598 182.5,-182.7 182.5,-182.7 182.5,-182.7 178.7036,-183.9598 181.3662,-179.2832 174.9071,-185.2196 174.9071,-185.2196"/>
<ellipse fill="none" stroke="#000000" cx="171.87" cy="-186.2275" rx="3.2" ry="3.2"/>
</g>
</g>
</svg>
