<?xml version="1.0" encoding="UTF-8" standalone="no"?>
<!DOCTYPE svg PUBLIC "-//W3C//DTD SVG 1.1//EN"
 "http://www.w3.org/Graphics/SVG/1.1/DTD/svg11.dtd">
<!-- Generated by graphviz version 2.40.1 (20161225.0304)
 -->
<!-- Title: twoDegreesRelationshipsDiagram Pages: 1 -->
<svg width="538pt" height="365pt"
 viewBox="0.00 0.00 538.00 365.20" xmlns="http://www.w3.org/2000/svg" xmlns:xlink="http://www.w3.org/1999/xlink">
<g id="graph0" class="graph" transform="scale(1 1) rotate(0) translate(4 361.2)">
<title>twoDegreesRelationshipsDiagram</title>
<polygon fill="#ffffff" stroke="transparent" points="-4,4 -4,-361.2 534,-361.2 534,4 -4,4"/>
<text text-anchor="middle" x="72.4936" y="-7.3" font-family="Helvetica,sans-Serif" font-size="11.00" fill="#000000">Generated by SchemaSpy</text>
<!-- film -->
<g id="node1" class="node">
<title>film</title>
<g id="a_node1"><a xlink:href="../../tables/film.html" xlink:title="film" target="_top">
<polygon fill="#ffffff" stroke="transparent" points="145,-142.2 145,-313.2 286,-313.2 286,-142.2 145,-142.2"/>
<polygon fill="#f5f5f5" stroke="transparent" points="145.5,-289.7 145.5,-312.7 286.5,-312.7 286.5,-289.7 145.5,-289.7"/>
<polygon fill="none" stroke="#000000" points="145.5,-289.7 145.5,-312.7 286.5,-312.7 286.5,-289.7 145.5,-289.7"/>
<text text-anchor="start" x="150.5" y="-298.8" font-family="Helvetica,sans-Serif" font-weight="bold" font-size="11.00" fill="#000000">film</text>
<text text-anchor="start" x="251.5437" y="-297.8" font-family="Helvetica,sans-Serif" font-size="11.00" fill="#000000">[table]</text>
<polygon fill="none" stroke="#000000" points="145.5,-267.7 145.5,-289.7 286.5,-289.7 286.5,-267.7 145.5,-267.7"/>
<image xlink:href="../../images/primaryKeys.png" width="11px" height="12px" preserveAspectRatio="xMinYMin meet" x="150.5" y="-284.7"/>
<text text-anchor="start" x="165.5" y="-274.8" font-family="Helvetica,sans-Serif" font-size="11.00" fill="#000000">film_id</text>
<polygon fill="#ffffff" stroke="transparent" points="145.5,-245.7 145.5,-267.7 286.5,-267.7 286.5,-245.7 145.5,-245.7"/>
<polygon fill="none" stroke="#000000" points="145.5,-245.7 145.5,-267.7 286.5,-267.7 286.5,-245.7 145.5,-245.7"/>
<text text-anchor="start" x="165.5" y="-252.8" font-family="Helvetica,sans-Serif" font-size="11.00" fill="#000000">title</text>
<polygon fill="#ffffff" stroke="transparent" points="145.5,-223.7 145.5,-245.7 286.5,-245.7 286.5,-223.7 145.5,-223.7"/>
<polygon fill="none" stroke="#000000" points="145.5,-223.7 145.5,-245.7 286.5,-245.7 286.5,-223.7 145.5,-223.7"/>
<image xlink:href="../../images/foreignKeys.png" width="11px" height="12px" preserveAspectRatio="xMinYMin meet" x="150.5" y="-240.7"/>
<text text-anchor="start" x="165.5" y="-230.8" font-family="Helvetica,sans-Serif" font-size="11.00" fill="#000000">language_id</text>
<polygon fill="#ffffff" stroke="transparent" points="145.5,-201.7 145.5,-223.7 286.5,-223.7 286.5,-201.7 145.5,-201.7"/>
<polygon fill="none" stroke="#000000" points="145.5,-201.7 145.5,-223.7 286.5,-223.7 286.5,-201.7 145.5,-201.7"/>
<image xlink:href="../../images/foreignKeys.png" width="11px" height="12px" preserveAspectRatio="xMinYMin meet" x="150.5" y="-218.7"/>
<text text-anchor="start" x="165.5" y="-208.8" font-family="Helvetica,sans-Serif" font-size="11.00" fill="#000000">original_language_id</text>
<polygon fill="#ffffff" stroke="transparent" points="145.5,-179.7 145.5,-201.7 286.5,-201.7 286.5,-179.7 145.5,-179.7"/>
<polygon fill="none" stroke="#000000" points="145.5,-179.7 145.5,-201.7 286.5,-201.7 286.5,-179.7 145.5,-179.7"/>
<text text-anchor="start" x="165.5" y="-186.8" font-family="Helvetica,sans-Serif" font-size="11.00" fill="#000000">fulltext</text>
<polygon fill="none" stroke="#000000" points="145.5,-160.7 145.5,-179.7 286.5,-179.7 286.5,-160.7 145.5,-160.7"/>
<text text-anchor="start" x="148.5" y="-166.8" font-family="Helvetica,sans-Serif" font-size="11.00" fill="#000000">...</text>
<polygon fill="#ffffff" stroke="transparent" points="145.5,-141.7 145.5,-160.7 196.5,-160.7 196.5,-141.7 145.5,-141.7"/>
<polygon fill="none" stroke="#000000" points="145.5,-141.7 145.5,-160.7 196.5,-160.7 196.5,-141.7 145.5,-141.7"/>
<text text-anchor="start" x="148.5" y="-147.8" font-family="Helvetica,sans-Serif" font-size="11.00" fill="#000000">&lt; 2</text>
<polygon fill="#ffffff" stroke="transparent" points="196.5,-141.7 196.5,-160.7 249.5,-160.7 249.5,-141.7 196.5,-141.7"/>
<polygon fill="none" stroke="#000000" points="196.5,-141.7 196.5,-160.7 249.5,-160.7 249.5,-141.7 196.5,-141.7"/>
<text text-anchor="start" x="214.1105" y="-147.8" font-family="Helvetica,sans-Serif" font-size="11.00" fill="#000000">0 rows</text>
<polygon fill="#ffffff" stroke="transparent" points="249.5,-141.7 249.5,-160.7 286.5,-160.7 286.5,-141.7 249.5,-141.7"/>
<polygon fill="none" stroke="#000000" points="249.5,-141.7 249.5,-160.7 286.5,-160.7 286.5,-141.7 249.5,-141.7"/>
<text text-anchor="start" x="267.9053" y="-147.8" font-family="Helvetica,sans-Serif" font-size="11.00" fill="#000000">3 &gt;</text>
</a>
</g>
</g>
<!-- language -->
<g id="node2" class="node">
<title>language</title>
<g id="a_node2"><a xlink:href="../../tables/language.html" xlink:title="language" target="_top">
<polygon fill="#ffffff" stroke="transparent" points="8,-196.2 8,-257.2 96,-257.2 96,-196.2 8,-196.2"/>
<polygon fill="#f5f5f5" stroke="transparent" points="8,-233.7 8,-256.7 96,-256.7 96,-233.7 8,-233.7"/>
<polygon fill="none" stroke="#000000" points="8,-233.7 8,-256.7 96,-256.7 96,-233.7 8,-233.7"/>
<text text-anchor="start" x="12.8774" y="-242.8" font-family="Helvetica,sans-Serif" font-weight="bold" font-size="11.00" fill="#000000">language</text>
<text text-anchor="start" x="61.5219" y="-241.8" font-family="Helvetica,sans-Serif" font-size="11.00" fill="#000000">[table]</text>
<polygon fill="none" stroke="#000000" points="8,-214.7 8,-233.7 96,-233.7 96,-214.7 8,-214.7"/>
<text text-anchor="start" x="11" y="-220.8" font-family="Helvetica,sans-Serif" font-size="11.00" fill="#000000">...</text>
<polygon fill="#ffffff" stroke="transparent" points="8,-195.7 8,-214.7 28,-214.7 28,-195.7 8,-195.7"/>
<polygon fill="none" stroke="#000000" points="8,-195.7 8,-214.7 28,-214.7 28,-195.7 8,-195.7"/>
<text text-anchor="start" x="11" y="-201.8" font-family="Helvetica,sans-Serif" font-size="11.00" fill="#000000"> &#160;</text>
<polygon fill="#ffffff" stroke="transparent" points="28,-195.7 28,-214.7 70,-214.7 70,-195.7 28,-195.7"/>
<polygon fill="none" stroke="#000000" points="28,-195.7 28,-214.7 70,-214.7 70,-195.7 28,-195.7"/>
<text text-anchor="start" x="34.6105" y="-201.8" font-family="Helvetica,sans-Serif" font-size="11.00" fill="#000000">0 rows</text>
<polygon fill="#ffffff" stroke="transparent" points="70,-195.7 70,-214.7 96,-214.7 96,-195.7 70,-195.7"/>
<polygon fill="none" stroke="#000000" points="70,-195.7 70,-214.7 96,-214.7 96,-195.7 70,-195.7"/>
<text text-anchor="start" x="77.4053" y="-201.8" font-family="Helvetica,sans-Serif" font-size="11.00" fill="#000000">2 &gt;</text>
</a>
</g>
</g>
<!-- film&#45;&gt;language -->
<g id="edge1" class="edge">
<title>film:w&#45;&gt;language:e</title>
<path fill="none" stroke="#000000" d="M131.0598,-232.8836C119.4771,-229.7593 112.7264,-223.7 96,-223.7"/>
<polygon fill="#000000" stroke="#000000" points="137.5626,-233.7015 145.0507,-238.2719 141.5313,-234.2008 145.5,-234.7 145.5,-234.7 145.5,-234.7 141.5313,-234.2008 145.9493,-231.1281 137.5626,-233.7015 137.5626,-233.7015"/>
<ellipse fill="none" stroke="#000000" cx="134.3876" cy="-233.3021" rx="3.2" ry="3.2"/>
</g>
<!-- film&#45;&gt;language -->
<g id="edge2" class="edge">
<title>film:w&#45;&gt;language:e</title>
<path fill="none" stroke="#000000" d="M131.0598,-214.5164C119.4771,-217.6407 112.7264,-223.7 96,-223.7"/>
<polygon fill="#000000" stroke="#000000" points="137.5626,-213.6985 145.9493,-216.2719 141.5313,-213.1992 145.5,-212.7 145.5,-212.7 145.5,-212.7 141.5313,-213.1992 145.0507,-209.1281 137.5626,-213.6985 137.5626,-213.6985"/>
<ellipse fill="none" stroke="#000000" cx="134.3876" cy="-214.0979" rx="3.2" ry="3.2"/>
</g>
<!-- film_actor -->
<g id="node3" class="node">
<title>film_actor</title>
<g id="a_node3"><a xlink:href="../../tables/film_actor.html" xlink:title="film_actor" target="_top">
<polygon fill="#ffffff" stroke="transparent" points="383.5,-292.2 383.5,-353.2 473.5,-353.2 473.5,-292.2 383.5,-292.2"/>
<polygon fill="#f5f5f5" stroke="transparent" points="383.5,-329.7 383.5,-352.7 473.5,-352.7 473.5,-329.7 383.5,-329.7"/>
<polygon fill="none" stroke="#000000" points="383.5,-329.7 383.5,-352.7 473.5,-352.7 473.5,-329.7 383.5,-329.7"/>
<text text-anchor="start" x="388.168" y="-338.8" font-family="Helvetica,sans-Serif" font-weight="bold" font-size="11.00" fill="#000000">film_actor</text>
<text text-anchor="start" x="439.0219" y="-337.8" font-family="Helvetica,sans-Serif" font-size="11.00" fill="#000000">[table]</text>
<polygon fill="none" stroke="#000000" points="383.5,-310.7 383.5,-329.7 473.5,-329.7 473.5,-310.7 383.5,-310.7"/>
<text text-anchor="start" x="386.5" y="-316.8" font-family="Helvetica,sans-Serif" font-size="11.00" fill="#000000">...</text>
<polygon fill="#ffffff" stroke="transparent" points="383.5,-291.7 383.5,-310.7 413.5,-310.7 413.5,-291.7 383.5,-291.7"/>
<polygon fill="none" stroke="#000000" points="383.5,-291.7 383.5,-310.7 413.5,-310.7 413.5,-291.7 383.5,-291.7"/>
<text text-anchor="start" x="386.5" y="-297.8" font-family="Helvetica,sans-Serif" font-size="11.00" fill="#000000">&lt; 2</text>
<polygon fill="#ffffff" stroke="transparent" points="413.5,-291.7 413.5,-310.7 456.5,-310.7 456.5,-291.7 413.5,-291.7"/>
<polygon fill="none" stroke="#000000" points="413.5,-291.7 413.5,-310.7 456.5,-310.7 456.5,-291.7 413.5,-291.7"/>
<text text-anchor="start" x="421.1105" y="-297.8" font-family="Helvetica,sans-Serif" font-size="11.00" fill="#000000">0 rows</text>
<polygon fill="#ffffff" stroke="transparent" points="456.5,-291.7 456.5,-310.7 473.5,-310.7 473.5,-291.7 456.5,-291.7"/>
<polygon fill="none" stroke="#000000" points="456.5,-291.7 456.5,-310.7 473.5,-310.7 473.5,-291.7 456.5,-291.7"/>
<text text-anchor="start" x="464.3862" y="-297.8" font-family="Helvetica,sans-Serif" font-size="11.00" fill="#000000"> &#160;</text>
</a>
</g>
</g>
<!-- film_actor&#45;&gt;film -->
<g id="edge3" class="edge">
<title>film_actor:w&#45;&gt;film:e</title>
<path fill="none" stroke="#000000" d="M369.139,-318.2408C335.3704,-310.9371 328.002,-278.7 286.5,-278.7"/>
<polygon fill="#000000" stroke="#000000" points="375.541,-318.8912 383.1361,-323.2816 379.5205,-319.2956 383.5,-319.7 383.5,-319.7 383.5,-319.7 379.5205,-319.2956 383.8639,-316.1184 375.541,-318.8912 375.541,-318.8912"/>
<ellipse fill="none" stroke="#000000" cx="372.3574" cy="-318.5677" rx="3.2" ry="3.2"/>
</g>
<!-- film_category -->
<g id="node4" class="node">
<title>film_category</title>
<g id="a_node4"><a xlink:href="../../tables/film_category.html" xlink:title="film_category" target="_top">
<polygon fill="#ffffff" stroke="transparent" points="335,-75.7 335,-187.7 522,-187.7 522,-75.7 335,-75.7"/>
<polygon fill="#f5f5f5" stroke="transparent" points="337.5,-162.7 337.5,-185.7 520.5,-185.7 520.5,-162.7 337.5,-162.7"/>
<polygon fill="none" stroke="#000000" points="337.5,-162.7 337.5,-185.7 520.5,-185.7 520.5,-162.7 337.5,-162.7"/>
<text text-anchor="start" x="342.5" y="-171.8" font-family="Helvetica,sans-Serif" font-weight="bold" font-size="11.00" fill="#000000">film_category</text>
<text text-anchor="start" x="485.5437" y="-170.8" font-family="Helvetica,sans-Serif" font-size="11.00" fill="#000000">[table]</text>
<polygon fill="none" stroke="#000000" points="337.5,-140.7 337.5,-162.7 436.5,-162.7 436.5,-140.7 337.5,-140.7"/>
<image xlink:href="../../images/primaryKeys.png" width="11px" height="12px" preserveAspectRatio="xMinYMin meet" x="342.5" y="-157.7"/>
<text text-anchor="start" x="357.5" y="-147.8" font-family="Helvetica,sans-Serif" font-size="11.00" fill="#000000">film_id</text>
<polygon fill="none" stroke="#000000" points="436.5,-140.7 436.5,-162.7 520.5,-162.7 520.5,-140.7 436.5,-140.7"/>
<text text-anchor="start" x="439.5" y="-148.4" font-family="Helvetica,sans-Serif" font-size="11.00" fill="#000000">int2[5]</text>
<polygon fill="none" stroke="#000000" points="337.5,-118.7 337.5,-140.7 436.5,-140.7 436.5,-118.7 337.5,-118.7"/>
<image xlink:href="../../images/primaryKeys.png" width="11px" height="12px" preserveAspectRatio="xMinYMin meet" x="342.5" y="-135.7"/>
<text text-anchor="start" x="357.5" y="-125.8" font-family="Helvetica,sans-Serif" font-size="11.00" fill="#000000">category_id</text>
<polygon fill="none" stroke="#000000" points="436.5,-118.7 436.5,-140.7 520.5,-140.7 520.5,-118.7 436.5,-118.7"/>
<text text-anchor="start" x="439.5" y="-126.4" font-family="Helvetica,sans-Serif" font-size="11.00" fill="#000000">int2[5]</text>
<polygon fill="none" stroke="#000000" points="337.5,-96.7 337.5,-118.7 436.5,-118.7 436.5,-96.7 337.5,-96.7"/>
<text text-anchor="start" x="357.5" y="-103.8" font-family="Helvetica,sans-Serif" font-size="11.00" fill="#000000">last_update</text>
<polygon fill="none" stroke="#000000" points="436.5,-96.7 436.5,-118.7 520.5,-118.7 520.5,-96.7 436.5,-96.7"/>
<text text-anchor="start" x="439.3807" y="-104.4" font-family="Helvetica,sans-Serif" font-size="11.00" fill="#000000">timestamp[29,6]</text>
<polygon fill="#ffffff" stroke="transparent" points="337.5,-77.7 337.5,-96.7 378.5,-96.7 378.5,-77.7 337.5,-77.7"/>
<polygon fill="none" stroke="#000000" points="337.5,-77.7 337.5,-96.7 378.5,-96.7 378.5,-77.7 337.5,-77.7"/>
<text text-anchor="start" x="340.5" y="-83.8" font-family="Helvetica,sans-Serif" font-size="11.00" fill="#000000">&lt; 2</text>
<polygon fill="#ffffff" stroke="transparent" points="378.5,-77.7 378.5,-96.7 436.5,-96.7 436.5,-77.7 378.5,-77.7"/>
<polygon fill="none" stroke="#000000" points="378.5,-77.7 378.5,-96.7 436.5,-96.7 436.5,-77.7 378.5,-77.7"/>
<text text-anchor="start" x="401.1105" y="-83.8" font-family="Helvetica,sans-Serif" font-size="11.00" fill="#000000">0 rows</text>
<polygon fill="#ffffff" stroke="transparent" points="436.5,-77.7 436.5,-96.7 520.5,-96.7 520.5,-77.7 436.5,-77.7"/>
<polygon fill="none" stroke="#000000" points="436.5,-77.7 436.5,-96.7 520.5,-96.7 520.5,-77.7 436.5,-77.7"/>
<text text-anchor="start" x="501.9053" y="-83.8" font-family="Helvetica,sans-Serif" font-size="11.00" fill="#000000">0 &gt;</text>
<polygon fill="none" stroke="#000000" stroke-width="2" points="336,-76.7 336,-186.7 521,-186.7 521,-76.7 336,-76.7"/>
</a>
</g>
</g>
<!-- film_category&#45;&gt;film -->
<g id="edge5" class="edge">
<title>film_category:w&#45;&gt;film:e</title>
<path fill="none" stroke="#000000" d="M323.1967,-155.0969C289.2196,-175.2935 341.3856,-278.7 286.5,-278.7"/>
<polygon fill="#000000" stroke="#000000" points="329.7165,-153.5486 338.3319,-155.2026 333.6082,-152.6243 337.5,-151.7 337.5,-151.7 337.5,-151.7 333.6082,-152.6243 336.6681,-148.1974 329.7165,-153.5486 329.7165,-153.5486"/>
<ellipse fill="none" stroke="#000000" cx="326.6031" cy="-154.288" rx="3.2" ry="3.2"/>
</g>
<!-- category -->
<g id="node5" class="node">
<title>category</title>
<g id="a_node5"><a xlink:href="../../tables/category.html" xlink:title="category" target="_top">
<polygon fill="#ffffff" stroke="transparent" points="171.5,-38.2 171.5,-121.2 259.5,-121.2 259.5,-38.2 171.5,-38.2"/>
<polygon fill="#f5f5f5" stroke="transparent" points="171.5,-97.7 171.5,-120.7 259.5,-120.7 259.5,-97.7 171.5,-97.7"/>
<polygon fill="none" stroke="#000000" points="171.5,-97.7 171.5,-120.7 259.5,-120.7 259.5,-97.7 171.5,-97.7"/>
<text text-anchor="start" x="176.5" y="-106.8" font-family="Helvetica,sans-Serif" font-weight="bold" font-size="11.00" fill="#000000">category</text>
<text text-anchor="start" x="224.5437" y="-105.8" font-family="Helvetica,sans-Serif" font-size="11.00" fill="#000000">[table]</text>
<polygon fill="none" stroke="#000000" points="171.5,-75.7 171.5,-97.7 259.5,-97.7 259.5,-75.7 171.5,-75.7"/>
<image xlink:href="../../images/primaryKeys.png" width="11px" height="12px" preserveAspectRatio="xMinYMin meet" x="176.5" y="-92.7"/>
<text text-anchor="start" x="191.5" y="-82.8" font-family="Helvetica,sans-Serif" font-size="11.00" fill="#000000">category_id</text>
<polygon fill="none" stroke="#000000" points="171.5,-56.7 171.5,-75.7 259.5,-75.7 259.5,-56.7 171.5,-56.7"/>
<text text-anchor="start" x="174.5" y="-62.8" font-family="Helvetica,sans-Serif" font-size="11.00" fill="#000000">...</text>
<polygon fill="#ffffff" stroke="transparent" points="171.5,-37.7 171.5,-56.7 188.5,-56.7 188.5,-37.7 171.5,-37.7"/>
<polygon fill="none" stroke="#000000" points="171.5,-37.7 171.5,-56.7 188.5,-56.7 188.5,-37.7 171.5,-37.7"/>
<text text-anchor="start" x="174.5" y="-43.8" font-family="Helvetica,sans-Serif" font-size="11.00" fill="#000000"> &#160;</text>
<polygon fill="#ffffff" stroke="transparent" points="188.5,-37.7 188.5,-56.7 235.5,-56.7 235.5,-37.7 188.5,-37.7"/>
<polygon fill="none" stroke="#000000" points="188.5,-37.7 188.5,-56.7 235.5,-56.7 235.5,-37.7 188.5,-37.7"/>
<text text-anchor="start" x="193.9956" y="-43.8" font-family="Helvetica,sans-Serif" font-size="11.00" fill="#000000">16 rows</text>
<polygon fill="#ffffff" stroke="transparent" points="235.5,-37.7 235.5,-56.7 259.5,-56.7 259.5,-37.7 235.5,-37.7"/>
<polygon fill="none" stroke="#000000" points="235.5,-37.7 235.5,-56.7 259.5,-56.7 259.5,-37.7 235.5,-37.7"/>
<text text-anchor="start" x="240.9053" y="-43.8" font-family="Helvetica,sans-Serif" font-size="11.00" fill="#000000">1 &gt;</text>
</a>
</g>
</g>
<!-- film_category&#45;&gt;category -->
<g id="edge4" class="edge">
<title>film_category:w&#45;&gt;category:e</title>
<path fill="none" stroke="#000000" d="M322.9911,-127.3881C297.4379,-118.4566 293.5188,-86.7 259.5,-86.7"/>
<polygon fill="#000000" stroke="#000000" points="329.5997,-128.4411 336.9335,-133.2552 333.5498,-129.0706 337.5,-129.7 337.5,-129.7 337.5,-129.7 333.5498,-129.0706 338.0665,-126.1448 329.5997,-128.4411 329.5997,-128.4411"/>
<ellipse fill="none" stroke="#000000" cx="326.4395" cy="-127.9375" rx="3.2" ry="3.2"/>
</g>
<!-- inventory -->
<g id="node6" class="node">
<title>inventory</title>
<g id="a_node6"><a xlink:href="../../tables/inventory.html" xlink:title="inventory" target="_top">
<polygon fill="#ffffff" stroke="transparent" points="385,-210.2 385,-271.2 472,-271.2 472,-210.2 385,-210.2"/>
<polygon fill="#f5f5f5" stroke="transparent" points="385.5,-247.7 385.5,-270.7 472.5,-270.7 472.5,-247.7 385.5,-247.7"/>
<polygon fill="none" stroke="#000000" points="385.5,-247.7 385.5,-270.7 472.5,-270.7 472.5,-247.7 385.5,-247.7"/>
<text text-anchor="start" x="390.1904" y="-256.8" font-family="Helvetica,sans-Serif" font-weight="bold" font-size="11.00" fill="#000000">inventory</text>
<text text-anchor="start" x="438.0219" y="-255.8" font-family="Helvetica,sans-Serif" font-size="11.00" fill="#000000">[table]</text>
<polygon fill="none" stroke="#000000" points="385.5,-228.7 385.5,-247.7 472.5,-247.7 472.5,-228.7 385.5,-228.7"/>
<text text-anchor="start" x="388.5" y="-234.8" font-family="Helvetica,sans-Serif" font-size="11.00" fill="#000000">...</text>
<polygon fill="#ffffff" stroke="transparent" points="385.5,-209.7 385.5,-228.7 409.5,-228.7 409.5,-209.7 385.5,-209.7"/>
<polygon fill="none" stroke="#000000" points="385.5,-209.7 385.5,-228.7 409.5,-228.7 409.5,-209.7 385.5,-209.7"/>
<text text-anchor="start" x="388.5" y="-215.8" font-family="Helvetica,sans-Serif" font-size="11.00" fill="#000000">&lt; 2</text>
<polygon fill="#ffffff" stroke="transparent" points="409.5,-209.7 409.5,-228.7 449.5,-228.7 449.5,-209.7 409.5,-209.7"/>
<polygon fill="none" stroke="#000000" points="409.5,-209.7 409.5,-228.7 449.5,-228.7 449.5,-209.7 409.5,-209.7"/>
<text text-anchor="start" x="414.1105" y="-215.8" font-family="Helvetica,sans-Serif" font-size="11.00" fill="#000000">0 rows</text>
<polygon fill="#ffffff" stroke="transparent" points="449.5,-209.7 449.5,-228.7 472.5,-228.7 472.5,-209.7 449.5,-209.7"/>
<polygon fill="none" stroke="#000000" points="449.5,-209.7 449.5,-228.7 472.5,-228.7 472.5,-209.7 449.5,-209.7"/>
<text text-anchor="start" x="453.9053" y="-215.8" font-family="Helvetica,sans-Serif" font-size="11.00" fill="#000000">1 &gt;</text>
</a>
</g>
</g>
<!-- inventory&#45;&gt;film -->
<g id="edge6" class="edge">
<title>inventory:w&#45;&gt;film:e</title>
<path fill="none" stroke="#000000" d="M370.8767,-239.1592C336.4629,-246.4629 328.7291,-278.7 286.5,-278.7"/>
<polygon fill="#000000" stroke="#000000" points="377.5395,-238.4944 385.8575,-241.2822 381.5198,-238.0972 385.5,-237.7 385.5,-237.7 385.5,-237.7 381.5198,-238.0972 385.1425,-234.1178 377.5395,-238.4944 377.5395,-238.4944"/>
<ellipse fill="none" stroke="#000000" cx="374.3553" cy="-238.8122" rx="3.2" ry="3.2"/>
</g>
</g>
</svg>
