<?xml version="1.0" encoding="UTF-8" standalone="no"?>
<!DOCTYPE svg PUBLIC "-//W3C//DTD SVG 1.1//EN"
 "http://www.w3.org/Graphics/SVG/1.1/DTD/svg11.dtd">
<!-- Generated by graphviz version 2.40.1 (20161225.0304)
 -->
<!-- Title: oneDegreeRelationshipsDiagram Pages: 1 -->
<svg width="371pt" height="325pt"
 viewBox="0.00 0.00 371.00 325.20" xmlns="http://www.w3.org/2000/svg" xmlns:xlink="http://www.w3.org/1999/xlink">
<g id="graph0" class="graph" transform="scale(1 1) rotate(0) translate(4 321.2)">
<title>oneDegreeRelationshipsDiagram</title>
<polygon fill="#ffffff" stroke="transparent" points="-4,4 -4,-321.2 367,-321.2 367,4 -4,4"/>
<text text-anchor="middle" x="72.4936" y="-7.3" font-family="Helvetica,sans-Serif" font-size="11.00" fill="#000000">Generated by SchemaSpy</text>
<!-- film_actor -->
<g id="node1" class="node">
<title>film_actor</title>
<g id="a_node1"><a xlink:href="../../tables/film_actor.html" xlink:title="film_actor" target="_top">
<polygon fill="#ffffff" stroke="transparent" points="180,-150.7 180,-262.7 355,-262.7 355,-150.7 180,-150.7"/>
<polygon fill="#f5f5f5" stroke="transparent" points="182.5,-237.7 182.5,-260.7 353.5,-260.7 353.5,-237.7 182.5,-237.7"/>
<polygon fill="none" stroke="#000000" points="182.5,-237.7 182.5,-260.7 353.5,-260.7 353.5,-237.7 182.5,-237.7"/>
<text text-anchor="start" x="187.5" y="-246.8" font-family="Helvetica,sans-Serif" font-weight="bold" font-size="11.00" fill="#000000">film_actor</text>
<text text-anchor="start" x="318.5437" y="-245.8" font-family="Helvetica,sans-Serif" font-size="11.00" fill="#000000">[table]</text>
<polygon fill="none" stroke="#000000" points="182.5,-215.7 182.5,-237.7 269.5,-237.7 269.5,-215.7 182.5,-215.7"/>
<image xlink:href="../../images/primaryKeys.png" width="11px" height="12px" preserveAspectRatio="xMinYMin meet" x="187.5" y="-232.7"/>
<text text-anchor="start" x="202.5" y="-222.8" font-family="Helvetica,sans-Serif" font-size="11.00" fill="#000000">actor_id</text>
<polygon fill="none" stroke="#000000" points="269.5,-215.7 269.5,-237.7 353.5,-237.7 353.5,-215.7 269.5,-215.7"/>
<text text-anchor="start" x="272.5" y="-223.4" font-family="Helvetica,sans-Serif" font-size="11.00" fill="#000000">int2[5]</text>
<polygon fill="none" stroke="#000000" points="182.5,-193.7 182.5,-215.7 269.5,-215.7 269.5,-193.7 182.5,-193.7"/>
<image xlink:href="../../images/primaryKeys.png" width="11px" height="12px" preserveAspectRatio="xMinYMin meet" x="187.5" y="-210.7"/>
<text text-anchor="start" x="202.5" y="-200.8" font-family="Helvetica,sans-Serif" font-size="11.00" fill="#000000">film_id</text>
<polygon fill="none" stroke="#000000" points="269.5,-193.7 269.5,-215.7 353.5,-215.7 353.5,-193.7 269.5,-193.7"/>
<text text-anchor="start" x="272.5" y="-201.4" font-family="Helvetica,sans-Serif" font-size="11.00" fill="#000000">int2[5]</text>
<polygon fill="none" stroke="#000000" points="182.5,-171.7 182.5,-193.7 269.5,-193.7 269.5,-171.7 182.5,-171.7"/>
<text text-anchor="start" x="202.5" y="-178.8" font-family="Helvetica,sans-Serif" font-size="11.00" fill="#000000">last_update</text>
<polygon fill="none" stroke="#000000" points="269.5,-171.7 269.5,-193.7 353.5,-193.7 353.5,-171.7 269.5,-171.7"/>
<text text-anchor="start" x="272.3807" y="-179.4" font-family="Helvetica,sans-Serif" font-size="11.00" fill="#000000">timestamp[29,6]</text>
<polygon fill="#ffffff" stroke="transparent" points="182.5,-152.7 182.5,-171.7 217.5,-171.7 217.5,-152.7 182.5,-152.7"/>
<polygon fill="none" stroke="#000000" points="182.5,-152.7 182.5,-171.7 217.5,-171.7 217.5,-152.7 182.5,-152.7"/>
<text text-anchor="start" x="185.5" y="-158.8" font-family="Helvetica,sans-Serif" font-size="11.00" fill="#000000">&lt; 2</text>
<polygon fill="#ffffff" stroke="transparent" points="217.5,-152.7 217.5,-171.7 269.5,-171.7 269.5,-152.7 217.5,-152.7"/>
<polygon fill="none" stroke="#000000" points="217.5,-152.7 217.5,-171.7 269.5,-171.7 269.5,-152.7 217.5,-152.7"/>
<text text-anchor="start" x="234.1105" y="-158.8" font-family="Helvetica,sans-Serif" font-size="11.00" fill="#000000">0 rows</text>
<polygon fill="#ffffff" stroke="transparent" points="269.5,-152.7 269.5,-171.7 353.5,-171.7 353.5,-152.7 269.5,-152.7"/>
<polygon fill="none" stroke="#000000" points="269.5,-152.7 269.5,-171.7 353.5,-171.7 353.5,-152.7 269.5,-152.7"/>
<text text-anchor="start" x="334.9053" y="-158.8" font-family="Helvetica,sans-Serif" font-size="11.00" fill="#000000">0 &gt;</text>
<polygon fill="none" stroke="#000000" stroke-width="2" points="181,-151.7 181,-261.7 354,-261.7 354,-151.7 181,-151.7"/>
</a>
</g>
</g>
<!-- actor -->
<g id="node2" class="node">
<title>actor</title>
<g id="a_node2"><a xlink:href="../../tables/actor.html" xlink:title="actor" target="_top">
<polygon fill="#ffffff" stroke="transparent" points="26,-208.2 26,-313.2 113,-313.2 113,-208.2 26,-208.2"/>
<polygon fill="#f5f5f5" stroke="transparent" points="26.5,-289.7 26.5,-312.7 113.5,-312.7 113.5,-289.7 26.5,-289.7"/>
<polygon fill="none" stroke="#000000" points="26.5,-289.7 26.5,-312.7 113.5,-312.7 113.5,-289.7 26.5,-289.7"/>
<text text-anchor="start" x="31.5" y="-298.8" font-family="Helvetica,sans-Serif" font-weight="bold" font-size="11.00" fill="#000000">actor</text>
<text text-anchor="start" x="78.5437" y="-297.8" font-family="Helvetica,sans-Serif" font-size="11.00" fill="#000000">[table]</text>
<polygon fill="none" stroke="#000000" points="26.5,-267.7 26.5,-289.7 113.5,-289.7 113.5,-267.7 26.5,-267.7"/>
<image xlink:href="../../images/primaryKeys.png" width="11px" height="12px" preserveAspectRatio="xMinYMin meet" x="31.5" y="-284.7"/>
<text text-anchor="start" x="46.5" y="-274.8" font-family="Helvetica,sans-Serif" font-size="11.00" fill="#000000">actor_id</text>
<polygon fill="#ffffff" stroke="transparent" points="26.5,-245.7 26.5,-267.7 113.5,-267.7 113.5,-245.7 26.5,-245.7"/>
<polygon fill="none" stroke="#000000" points="26.5,-245.7 26.5,-267.7 113.5,-267.7 113.5,-245.7 26.5,-245.7"/>
<text text-anchor="start" x="46.5" y="-252.8" font-family="Helvetica,sans-Serif" font-size="11.00" fill="#000000">last_name</text>
<polygon fill="none" stroke="#000000" points="26.5,-226.7 26.5,-245.7 113.5,-245.7 113.5,-226.7 26.5,-226.7"/>
<text text-anchor="start" x="29.5" y="-232.8" font-family="Helvetica,sans-Serif" font-size="11.00" fill="#000000">...</text>
<polygon fill="#ffffff" stroke="transparent" points="26.5,-207.7 26.5,-226.7 46.5,-226.7 46.5,-207.7 26.5,-207.7"/>
<polygon fill="none" stroke="#000000" points="26.5,-207.7 26.5,-226.7 46.5,-226.7 46.5,-207.7 26.5,-207.7"/>
<text text-anchor="start" x="29.5" y="-213.8" font-family="Helvetica,sans-Serif" font-size="11.00" fill="#000000"> &#160;</text>
<polygon fill="#ffffff" stroke="transparent" points="46.5,-207.7 46.5,-226.7 88.5,-226.7 88.5,-207.7 46.5,-207.7"/>
<polygon fill="none" stroke="#000000" points="46.5,-207.7 46.5,-226.7 88.5,-226.7 88.5,-207.7 46.5,-207.7"/>
<text text-anchor="start" x="53.1105" y="-213.8" font-family="Helvetica,sans-Serif" font-size="11.00" fill="#000000">0 rows</text>
<polygon fill="#ffffff" stroke="transparent" points="88.5,-207.7 88.5,-226.7 113.5,-226.7 113.5,-207.7 88.5,-207.7"/>
<polygon fill="none" stroke="#000000" points="88.5,-207.7 88.5,-226.7 113.5,-226.7 113.5,-207.7 88.5,-207.7"/>
<text text-anchor="start" x="94.9053" y="-213.8" font-family="Helvetica,sans-Serif" font-size="11.00" fill="#000000">1 &gt;</text>
</a>
</g>
</g>
<!-- film_actor&#45;&gt;actor -->
<g id="edge1" class="edge">
<title>film_actor:w&#45;&gt;actor:e</title>
<path fill="none" stroke="#000000" d="M168.1516,-229.7971C145.3976,-240.9917 146.2001,-278.7 113.5,-278.7"/>
<polygon fill="#000000" stroke="#000000" points="174.6801,-228.388 183.2596,-230.219 178.59,-227.544 182.5,-226.7 182.5,-226.7 182.5,-226.7 178.59,-227.544 181.7404,-223.181 174.6801,-228.388 174.6801,-228.388"/>
<ellipse fill="none" stroke="#000000" cx="171.5521" cy="-229.0632" rx="3.2" ry="3.2"/>
</g>
<!-- film -->
<g id="node3" class="node">
<title>film</title>
<g id="a_node3"><a xlink:href="../../tables/film.html" xlink:title="film" target="_top">
<polygon fill="#ffffff" stroke="transparent" points="8,-38.2 8,-187.2 131,-187.2 131,-38.2 8,-38.2"/>
<polygon fill="#f5f5f5" stroke="transparent" points="8.5,-163.7 8.5,-186.7 131.5,-186.7 131.5,-163.7 8.5,-163.7"/>
<polygon fill="none" stroke="#000000" points="8.5,-163.7 8.5,-186.7 131.5,-186.7 131.5,-163.7 8.5,-163.7"/>
<text text-anchor="start" x="13.5" y="-172.8" font-family="Helvetica,sans-Serif" font-weight="bold" font-size="11.00" fill="#000000">film</text>
<text text-anchor="start" x="96.5437" y="-171.8" font-family="Helvetica,sans-Serif" font-size="11.00" fill="#000000">[table]</text>
<polygon fill="none" stroke="#000000" points="8.5,-141.7 8.5,-163.7 131.5,-163.7 131.5,-141.7 8.5,-141.7"/>
<image xlink:href="../../images/primaryKeys.png" width="11px" height="12px" preserveAspectRatio="xMinYMin meet" x="13.5" y="-158.7"/>
<text text-anchor="start" x="28.5" y="-148.8" font-family="Helvetica,sans-Serif" font-size="11.00" fill="#000000">film_id</text>
<polygon fill="#ffffff" stroke="transparent" points="8.5,-119.7 8.5,-141.7 131.5,-141.7 131.5,-119.7 8.5,-119.7"/>
<polygon fill="none" stroke="#000000" points="8.5,-119.7 8.5,-141.7 131.5,-141.7 131.5,-119.7 8.5,-119.7"/>
<text text-anchor="start" x="28.5" y="-126.8" font-family="Helvetica,sans-Serif" font-size="11.00" fill="#000000">title</text>
<polygon fill="#ffffff" stroke="transparent" points="8.5,-97.7 8.5,-119.7 131.5,-119.7 131.5,-97.7 8.5,-97.7"/>
<polygon fill="none" stroke="#000000" points="8.5,-97.7 8.5,-119.7 131.5,-119.7 131.5,-97.7 8.5,-97.7"/>
<image xlink:href="../../images/foreignKeys.png" width="11px" height="12px" preserveAspectRatio="xMinYMin meet" x="13.5" y="-114.7"/>
<text text-anchor="start" x="28.5" y="-104.8" font-family="Helvetica,sans-Serif" font-size="11.00" fill="#000000">language_id</text>
<polygon fill="#ffffff" stroke="transparent" points="8.5,-75.7 8.5,-97.7 131.5,-97.7 131.5,-75.7 8.5,-75.7"/>
<polygon fill="none" stroke="#000000" points="8.5,-75.7 8.5,-97.7 131.5,-97.7 131.5,-75.7 8.5,-75.7"/>
<text text-anchor="start" x="28.5" y="-82.8" font-family="Helvetica,sans-Serif" font-size="11.00" fill="#000000">fulltext</text>
<polygon fill="none" stroke="#000000" points="8.5,-56.7 8.5,-75.7 131.5,-75.7 131.5,-56.7 8.5,-56.7"/>
<text text-anchor="start" x="11.5" y="-62.8" font-family="Helvetica,sans-Serif" font-size="11.00" fill="#000000">...</text>
<polygon fill="#ffffff" stroke="transparent" points="8.5,-37.7 8.5,-56.7 50.5,-56.7 50.5,-37.7 8.5,-37.7"/>
<polygon fill="none" stroke="#000000" points="8.5,-37.7 8.5,-56.7 50.5,-56.7 50.5,-37.7 8.5,-37.7"/>
<text text-anchor="start" x="11.5" y="-43.8" font-family="Helvetica,sans-Serif" font-size="11.00" fill="#000000">&lt; 1</text>
<polygon fill="#ffffff" stroke="transparent" points="50.5,-37.7 50.5,-56.7 99.5,-56.7 99.5,-37.7 50.5,-37.7"/>
<polygon fill="none" stroke="#000000" points="50.5,-37.7 50.5,-56.7 99.5,-56.7 99.5,-37.7 50.5,-37.7"/>
<text text-anchor="start" x="64.1105" y="-43.8" font-family="Helvetica,sans-Serif" font-size="11.00" fill="#000000">0 rows</text>
<polygon fill="#ffffff" stroke="transparent" points="99.5,-37.7 99.5,-56.7 131.5,-56.7 131.5,-37.7 99.5,-37.7"/>
<polygon fill="none" stroke="#000000" points="99.5,-37.7 99.5,-56.7 131.5,-56.7 131.5,-37.7 99.5,-37.7"/>
<text text-anchor="start" x="112.9053" y="-43.8" font-family="Helvetica,sans-Serif" font-size="11.00" fill="#000000">3 &gt;</text>
</a>
</g>
</g>
<!-- film_actor&#45;&gt;film -->
<g id="edge2" class="edge">
<title>film_actor:w&#45;&gt;film:e</title>
<path fill="none" stroke="#000000" d="M168.5468,-199.9012C153.661,-187.0281 157.8017,-152.7 131.5,-152.7"/>
<polygon fill="#000000" stroke="#000000" points="174.9349,-202.0982 181.3292,-208.1043 178.7175,-203.3991 182.5,-204.7 182.5,-204.7 182.5,-204.7 178.7175,-203.3991 183.6708,-201.2957 174.9349,-202.0982 174.9349,-202.0982"/>
<ellipse fill="none" stroke="#000000" cx="171.9089" cy="-201.0574" rx="3.2" ry="3.2"/>
</g>
</g>
</svg>
