<?xml version="1.0" encoding="UTF-8" standalone="no"?>
<!DOCTYPE svg PUBLIC "-//W3C//DTD SVG 1.1//EN"
 "http://www.w3.org/Graphics/SVG/1.1/DTD/svg11.dtd">
<!-- Generated by graphviz version 2.40.1 (20161225.0304)
 -->
<!-- Title: oneDegreeRelationshipsDiagram Pages: 1 -->
<svg width="401pt" height="325pt"
 viewBox="0.00 0.00 401.00 325.20" xmlns="http://www.w3.org/2000/svg" xmlns:xlink="http://www.w3.org/1999/xlink">
<g id="graph0" class="graph" transform="scale(1 1) rotate(0) translate(4 321.2)">
<title>oneDegreeRelationshipsDiagram</title>
<polygon fill="#ffffff" stroke="transparent" points="-4,4 -4,-321.2 397,-321.2 397,4 -4,4"/>
<text text-anchor="middle" x="72.4936" y="-7.3" font-family="Helvetica,sans-Serif" font-size="11.00" fill="#000000">Generated by SchemaSpy</text>
<!-- film_category -->
<g id="node1" class="node">
<title>film_category</title>
<g id="a_node1"><a xlink:href="../../tables/film_category.html" xlink:title="film_category" target="_top">
<polygon fill="#ffffff" stroke="transparent" points="198,-117.7 198,-229.7 385,-229.7 385,-117.7 198,-117.7"/>
<polygon fill="#f5f5f5" stroke="transparent" points="200.5,-204.7 200.5,-227.7 383.5,-227.7 383.5,-204.7 200.5,-204.7"/>
<polygon fill="none" stroke="#000000" points="200.5,-204.7 200.5,-227.7 383.5,-227.7 383.5,-204.7 200.5,-204.7"/>
<text text-anchor="start" x="205.5" y="-213.8" font-family="Helvetica,sans-Serif" font-weight="bold" font-size="11.00" fill="#000000">film_category</text>
<text text-anchor="start" x="348.5437" y="-212.8" font-family="Helvetica,sans-Serif" font-size="11.00" fill="#000000">[table]</text>
<polygon fill="none" stroke="#000000" points="200.5,-182.7 200.5,-204.7 299.5,-204.7 299.5,-182.7 200.5,-182.7"/>
<image xlink:href="../../images/primaryKeys.png" width="11px" height="12px" preserveAspectRatio="xMinYMin meet" x="205.5" y="-199.7"/>
<text text-anchor="start" x="220.5" y="-189.8" font-family="Helvetica,sans-Serif" font-size="11.00" fill="#000000">film_id</text>
<polygon fill="none" stroke="#000000" points="299.5,-182.7 299.5,-204.7 383.5,-204.7 383.5,-182.7 299.5,-182.7"/>
<text text-anchor="start" x="302.5" y="-190.4" font-family="Helvetica,sans-Serif" font-size="11.00" fill="#000000">int2[5]</text>
<polygon fill="none" stroke="#000000" points="200.5,-160.7 200.5,-182.7 299.5,-182.7 299.5,-160.7 200.5,-160.7"/>
<image xlink:href="../../images/primaryKeys.png" width="11px" height="12px" preserveAspectRatio="xMinYMin meet" x="205.5" y="-177.7"/>
<text text-anchor="start" x="220.5" y="-167.8" font-family="Helvetica,sans-Serif" font-size="11.00" fill="#000000">category_id</text>
<polygon fill="none" stroke="#000000" points="299.5,-160.7 299.5,-182.7 383.5,-182.7 383.5,-160.7 299.5,-160.7"/>
<text text-anchor="start" x="302.5" y="-168.4" font-family="Helvetica,sans-Serif" font-size="11.00" fill="#000000">int2[5]</text>
<polygon fill="none" stroke="#000000" points="200.5,-138.7 200.5,-160.7 299.5,-160.7 299.5,-138.7 200.5,-138.7"/>
<text text-anchor="start" x="220.5" y="-145.8" font-family="Helvetica,sans-Serif" font-size="11.00" fill="#000000">last_update</text>
<polygon fill="none" stroke="#000000" points="299.5,-138.7 299.5,-160.7 383.5,-160.7 383.5,-138.7 299.5,-138.7"/>
<text text-anchor="start" x="302.3807" y="-146.4" font-family="Helvetica,sans-Serif" font-size="11.00" fill="#000000">timestamp[29,6]</text>
<polygon fill="#ffffff" stroke="transparent" points="200.5,-119.7 200.5,-138.7 241.5,-138.7 241.5,-119.7 200.5,-119.7"/>
<polygon fill="none" stroke="#000000" points="200.5,-119.7 200.5,-138.7 241.5,-138.7 241.5,-119.7 200.5,-119.7"/>
<text text-anchor="start" x="203.5" y="-125.8" font-family="Helvetica,sans-Serif" font-size="11.00" fill="#000000">&lt; 2</text>
<polygon fill="#ffffff" stroke="transparent" points="241.5,-119.7 241.5,-138.7 299.5,-138.7 299.5,-119.7 241.5,-119.7"/>
<polygon fill="none" stroke="#000000" points="241.5,-119.7 241.5,-138.7 299.5,-138.7 299.5,-119.7 241.5,-119.7"/>
<text text-anchor="start" x="264.1105" y="-125.8" font-family="Helvetica,sans-Serif" font-size="11.00" fill="#000000">0 rows</text>
<polygon fill="#ffffff" stroke="transparent" points="299.5,-119.7 299.5,-138.7 383.5,-138.7 383.5,-119.7 299.5,-119.7"/>
<polygon fill="none" stroke="#000000" points="299.5,-119.7 299.5,-138.7 383.5,-138.7 383.5,-119.7 299.5,-119.7"/>
<text text-anchor="start" x="364.9053" y="-125.8" font-family="Helvetica,sans-Serif" font-size="11.00" fill="#000000">0 &gt;</text>
<polygon fill="none" stroke="#000000" stroke-width="2" points="199,-118.7 199,-228.7 384,-228.7 384,-118.7 199,-118.7"/>
</a>
</g>
</g>
<!-- category -->
<g id="node2" class="node">
<title>category</title>
<g id="a_node2"><a xlink:href="../../tables/category.html" xlink:title="category" target="_top">
<polygon fill="#ffffff" stroke="transparent" points="34.5,-38.2 34.5,-121.2 122.5,-121.2 122.5,-38.2 34.5,-38.2"/>
<polygon fill="#f5f5f5" stroke="transparent" points="34.5,-97.7 34.5,-120.7 122.5,-120.7 122.5,-97.7 34.5,-97.7"/>
<polygon fill="none" stroke="#000000" points="34.5,-97.7 34.5,-120.7 122.5,-120.7 122.5,-97.7 34.5,-97.7"/>
<text text-anchor="start" x="39.5" y="-106.8" font-family="Helvetica,sans-Serif" font-weight="bold" font-size="11.00" fill="#000000">category</text>
<text text-anchor="start" x="87.5437" y="-105.8" font-family="Helvetica,sans-Serif" font-size="11.00" fill="#000000">[table]</text>
<polygon fill="none" stroke="#000000" points="34.5,-75.7 34.5,-97.7 122.5,-97.7 122.5,-75.7 34.5,-75.7"/>
<image xlink:href="../../images/primaryKeys.png" width="11px" height="12px" preserveAspectRatio="xMinYMin meet" x="39.5" y="-92.7"/>
<text text-anchor="start" x="54.5" y="-82.8" font-family="Helvetica,sans-Serif" font-size="11.00" fill="#000000">category_id</text>
<polygon fill="none" stroke="#000000" points="34.5,-56.7 34.5,-75.7 122.5,-75.7 122.5,-56.7 34.5,-56.7"/>
<text text-anchor="start" x="37.5" y="-62.8" font-family="Helvetica,sans-Serif" font-size="11.00" fill="#000000">...</text>
<polygon fill="#ffffff" stroke="transparent" points="34.5,-37.7 34.5,-56.7 51.5,-56.7 51.5,-37.7 34.5,-37.7"/>
<polygon fill="none" stroke="#000000" points="34.5,-37.7 34.5,-56.7 51.5,-56.7 51.5,-37.7 34.5,-37.7"/>
<text text-anchor="start" x="37.5" y="-43.8" font-family="Helvetica,sans-Serif" font-size="11.00" fill="#000000"> &#160;</text>
<polygon fill="#ffffff" stroke="transparent" points="51.5,-37.7 51.5,-56.7 98.5,-56.7 98.5,-37.7 51.5,-37.7"/>
<polygon fill="none" stroke="#000000" points="51.5,-37.7 51.5,-56.7 98.5,-56.7 98.5,-37.7 51.5,-37.7"/>
<text text-anchor="start" x="56.9956" y="-43.8" font-family="Helvetica,sans-Serif" font-size="11.00" fill="#000000">16 rows</text>
<polygon fill="#ffffff" stroke="transparent" points="98.5,-37.7 98.5,-56.7 122.5,-56.7 122.5,-37.7 98.5,-37.7"/>
<polygon fill="none" stroke="#000000" points="98.5,-37.7 98.5,-56.7 122.5,-56.7 122.5,-37.7 98.5,-37.7"/>
<text text-anchor="start" x="103.9053" y="-43.8" font-family="Helvetica,sans-Serif" font-size="11.00" fill="#000000">1 &gt;</text>
</a>
</g>
</g>
<!-- film_category&#45;&gt;category -->
<g id="edge1" class="edge">
<title>film_category:w&#45;&gt;category:e</title>
<path fill="none" stroke="#000000" d="M186.1986,-168.8719C153.6893,-154.1231 168.1652,-86.7 122.5,-86.7"/>
<polygon fill="#000000" stroke="#000000" points="192.652,-170.148 199.8016,-175.2316 196.576,-170.924 200.5,-171.7 200.5,-171.7 200.5,-171.7 196.576,-170.924 201.1984,-168.1684 192.652,-170.148 192.652,-170.148"/>
<ellipse fill="none" stroke="#000000" cx="189.5128" cy="-169.5272" rx="3.2" ry="3.2"/>
</g>
<!-- film -->
<g id="node3" class="node">
<title>film</title>
<g id="a_node3"><a xlink:href="../../tables/film.html" xlink:title="film" target="_top">
<polygon fill="#ffffff" stroke="transparent" points="8,-142.2 8,-313.2 149,-313.2 149,-142.2 8,-142.2"/>
<polygon fill="#f5f5f5" stroke="transparent" points="8.5,-289.7 8.5,-312.7 149.5,-312.7 149.5,-289.7 8.5,-289.7"/>
<polygon fill="none" stroke="#000000" points="8.5,-289.7 8.5,-312.7 149.5,-312.7 149.5,-289.7 8.5,-289.7"/>
<text text-anchor="start" x="13.5" y="-298.8" font-family="Helvetica,sans-Serif" font-weight="bold" font-size="11.00" fill="#000000">film</text>
<text text-anchor="start" x="114.5437" y="-297.8" font-family="Helvetica,sans-Serif" font-size="11.00" fill="#000000">[table]</text>
<polygon fill="none" stroke="#000000" points="8.5,-267.7 8.5,-289.7 149.5,-289.7 149.5,-267.7 8.5,-267.7"/>
<image xlink:href="../../images/primaryKeys.png" width="11px" height="12px" preserveAspectRatio="xMinYMin meet" x="13.5" y="-284.7"/>
<text text-anchor="start" x="28.5" y="-274.8" font-family="Helvetica,sans-Serif" font-size="11.00" fill="#000000">film_id</text>
<polygon fill="#ffffff" stroke="transparent" points="8.5,-245.7 8.5,-267.7 149.5,-267.7 149.5,-245.7 8.5,-245.7"/>
<polygon fill="none" stroke="#000000" points="8.5,-245.7 8.5,-267.7 149.5,-267.7 149.5,-245.7 8.5,-245.7"/>
<text text-anchor="start" x="28.5" y="-252.8" font-family="Helvetica,sans-Serif" font-size="11.00" fill="#000000">title</text>
<polygon fill="#ffffff" stroke="transparent" points="8.5,-223.7 8.5,-245.7 149.5,-245.7 149.5,-223.7 8.5,-223.7"/>
<polygon fill="none" stroke="#000000" points="8.5,-223.7 8.5,-245.7 149.5,-245.7 149.5,-223.7 8.5,-223.7"/>
<image xlink:href="../../images/foreignKeys.png" width="11px" height="12px" preserveAspectRatio="xMinYMin meet" x="13.5" y="-240.7"/>
<text text-anchor="start" x="28.5" y="-230.8" font-family="Helvetica,sans-Serif" font-size="11.00" fill="#000000">language_id</text>
<polygon fill="#ffffff" stroke="transparent" points="8.5,-201.7 8.5,-223.7 149.5,-223.7 149.5,-201.7 8.5,-201.7"/>
<polygon fill="none" stroke="#000000" points="8.5,-201.7 8.5,-223.7 149.5,-223.7 149.5,-201.7 8.5,-201.7"/>
<image xlink:href="../../images/foreignKeys.png" width="11px" height="12px" preserveAspectRatio="xMinYMin meet" x="13.5" y="-218.7"/>
<text text-anchor="start" x="28.5" y="-208.8" font-family="Helvetica,sans-Serif" font-size="11.00" fill="#000000">original_language_id</text>
<polygon fill="#ffffff" stroke="transparent" points="8.5,-179.7 8.5,-201.7 149.5,-201.7 149.5,-179.7 8.5,-179.7"/>
<polygon fill="none" stroke="#000000" points="8.5,-179.7 8.5,-201.7 149.5,-201.7 149.5,-179.7 8.5,-179.7"/>
<text text-anchor="start" x="28.5" y="-186.8" font-family="Helvetica,sans-Serif" font-size="11.00" fill="#000000">fulltext</text>
<polygon fill="none" stroke="#000000" points="8.5,-160.7 8.5,-179.7 149.5,-179.7 149.5,-160.7 8.5,-160.7"/>
<text text-anchor="start" x="11.5" y="-166.8" font-family="Helvetica,sans-Serif" font-size="11.00" fill="#000000">...</text>
<polygon fill="#ffffff" stroke="transparent" points="8.5,-141.7 8.5,-160.7 59.5,-160.7 59.5,-141.7 8.5,-141.7"/>
<polygon fill="none" stroke="#000000" points="8.5,-141.7 8.5,-160.7 59.5,-160.7 59.5,-141.7 8.5,-141.7"/>
<text text-anchor="start" x="11.5" y="-147.8" font-family="Helvetica,sans-Serif" font-size="11.00" fill="#000000">&lt; 2</text>
<polygon fill="#ffffff" stroke="transparent" points="59.5,-141.7 59.5,-160.7 112.5,-160.7 112.5,-141.7 59.5,-141.7"/>
<polygon fill="none" stroke="#000000" points="59.5,-141.7 59.5,-160.7 112.5,-160.7 112.5,-141.7 59.5,-141.7"/>
<text text-anchor="start" x="77.1105" y="-147.8" font-family="Helvetica,sans-Serif" font-size="11.00" fill="#000000">0 rows</text>
<polygon fill="#ffffff" stroke="transparent" points="112.5,-141.7 112.5,-160.7 149.5,-160.7 149.5,-141.7 112.5,-141.7"/>
<polygon fill="none" stroke="#000000" points="112.5,-141.7 112.5,-160.7 149.5,-160.7 149.5,-141.7 112.5,-141.7"/>
<text text-anchor="start" x="130.9053" y="-147.8" font-family="Helvetica,sans-Serif" font-size="11.00" fill="#000000">3 &gt;</text>
</a>
</g>
</g>
<!-- film_category&#45;&gt;film -->
<g id="edge2" class="edge">
<title>film_category:w&#45;&gt;film:e</title>
<path fill="none" stroke="#000000" d="M186.5669,-198.032C165.0746,-215.3534 187.5328,-278.7 149.5,-278.7"/>
<polygon fill="#000000" stroke="#000000" points="192.8607,-196.0752 201.5688,-197.1377 196.6804,-194.8876 200.5,-193.7 200.5,-193.7 200.5,-193.7 196.6804,-194.8876 199.4312,-190.2623 192.8607,-196.0752 192.8607,-196.0752"/>
<ellipse fill="none" stroke="#000000" cx="189.805" cy="-197.0253" rx="3.2" ry="3.2"/>
</g>
</g>
</svg>
