<?xml version="1.0" encoding="UTF-8" standalone="no"?>
<!DOCTYPE svg PUBLIC "-//W3C//DTD SVG 1.1//EN"
 "http://www.w3.org/Graphics/SVG/1.1/DTD/svg11.dtd">
<!-- Generated by graphviz version 2.40.1 (20161225.0304)
 -->
<!-- Title: twoDegreesRelationshipsDiagramImplied Pages: 1 -->
<svg width="508pt" height="395pt"
 viewBox="0.00 0.00 508.00 394.70" xmlns="http://www.w3.org/2000/svg" xmlns:xlink="http://www.w3.org/1999/xlink">
<g id="graph0" class="graph" transform="scale(1 1) rotate(0) translate(4 390.7)">
<title>twoDegreesRelationshipsDiagramImplied</title>
<polygon fill="#ffffff" stroke="transparent" points="-4,4 -4,-390.7 504,-390.7 504,4 -4,4"/>
<text text-anchor="middle" x="72.4936" y="-7.3" font-family="Helvetica,sans-Serif" font-size="11.00" fill="#000000">Generated by SchemaSpy</text>
<!-- actor_info -->
<g id="node1" class="node">
<title>actor_info</title>
<g id="a_node1"><a xlink:href="../../tables/actor_info.html" xlink:title="actor_info" target="_top">
<polygon fill="#ffffff" stroke="transparent" points="359.5,-340.7 359.5,-382.7 449.5,-382.7 449.5,-340.7 359.5,-340.7"/>
<polygon fill="#f5f5f5" stroke="transparent" points="359.5,-359.7 359.5,-382.7 449.5,-382.7 449.5,-359.7 359.5,-359.7"/>
<polygon fill="none" stroke="#000000" points="359.5,-359.7 359.5,-382.7 449.5,-382.7 449.5,-359.7 359.5,-359.7"/>
<text text-anchor="start" x="364.3545" y="-368.8" font-family="Helvetica,sans-Serif" font-weight="bold" font-size="11.00" fill="#000000">actor_info</text>
<text text-anchor="start" x="416.4448" y="-367.8" font-family="Helvetica,sans-Serif" font-size="11.00" fill="#000000">[view]</text>
<polygon fill="none" stroke="#000000" points="359.5,-340.7 359.5,-359.7 449.5,-359.7 449.5,-340.7 359.5,-340.7"/>
<text text-anchor="start" x="362.5" y="-346.8" font-family="Helvetica,sans-Serif" font-size="11.00" fill="#000000">...</text>
</a>
</g>
</g>
<!-- actor -->
<g id="node2" class="node">
<title>actor</title>
<g id="a_node2"><a xlink:href="../../tables/actor.html" xlink:title="actor" target="_top">
<polygon fill="#ffffff" stroke="transparent" points="163,-246.2 163,-351.2 250,-351.2 250,-246.2 163,-246.2"/>
<polygon fill="#f5f5f5" stroke="transparent" points="163.5,-327.7 163.5,-350.7 250.5,-350.7 250.5,-327.7 163.5,-327.7"/>
<polygon fill="none" stroke="#000000" points="163.5,-327.7 163.5,-350.7 250.5,-350.7 250.5,-327.7 163.5,-327.7"/>
<text text-anchor="start" x="168.5" y="-336.8" font-family="Helvetica,sans-Serif" font-weight="bold" font-size="11.00" fill="#000000">actor</text>
<text text-anchor="start" x="215.5437" y="-335.8" font-family="Helvetica,sans-Serif" font-size="11.00" fill="#000000">[table]</text>
<polygon fill="none" stroke="#000000" points="163.5,-305.7 163.5,-327.7 250.5,-327.7 250.5,-305.7 163.5,-305.7"/>
<image xlink:href="../../images/primaryKeys.png" width="11px" height="12px" preserveAspectRatio="xMinYMin meet" x="168.5" y="-322.7"/>
<text text-anchor="start" x="183.5" y="-312.8" font-family="Helvetica,sans-Serif" font-size="11.00" fill="#000000">actor_id</text>
<polygon fill="#ffffff" stroke="transparent" points="163.5,-283.7 163.5,-305.7 250.5,-305.7 250.5,-283.7 163.5,-283.7"/>
<polygon fill="none" stroke="#000000" points="163.5,-283.7 163.5,-305.7 250.5,-305.7 250.5,-283.7 163.5,-283.7"/>
<text text-anchor="start" x="183.5" y="-290.8" font-family="Helvetica,sans-Serif" font-size="11.00" fill="#000000">last_name</text>
<polygon fill="none" stroke="#000000" points="163.5,-264.7 163.5,-283.7 250.5,-283.7 250.5,-264.7 163.5,-264.7"/>
<text text-anchor="start" x="166.5" y="-270.8" font-family="Helvetica,sans-Serif" font-size="11.00" fill="#000000">...</text>
<polygon fill="#ffffff" stroke="transparent" points="163.5,-245.7 163.5,-264.7 183.5,-264.7 183.5,-245.7 163.5,-245.7"/>
<polygon fill="none" stroke="#000000" points="163.5,-245.7 163.5,-264.7 183.5,-264.7 183.5,-245.7 163.5,-245.7"/>
<text text-anchor="start" x="166.5" y="-251.8" font-family="Helvetica,sans-Serif" font-size="11.00" fill="#000000"> &#160;</text>
<polygon fill="#ffffff" stroke="transparent" points="183.5,-245.7 183.5,-264.7 225.5,-264.7 225.5,-245.7 183.5,-245.7"/>
<polygon fill="none" stroke="#000000" points="183.5,-245.7 183.5,-264.7 225.5,-264.7 225.5,-245.7 183.5,-245.7"/>
<text text-anchor="start" x="190.1105" y="-251.8" font-family="Helvetica,sans-Serif" font-size="11.00" fill="#000000">0 rows</text>
<polygon fill="#ffffff" stroke="transparent" points="225.5,-245.7 225.5,-264.7 250.5,-264.7 250.5,-245.7 225.5,-245.7"/>
<polygon fill="none" stroke="#000000" points="225.5,-245.7 225.5,-264.7 250.5,-264.7 250.5,-245.7 225.5,-245.7"/>
<text text-anchor="start" x="231.9053" y="-251.8" font-family="Helvetica,sans-Serif" font-size="11.00" fill="#000000">2 &gt;</text>
</a>
</g>
</g>
<!-- actor_info&#45;&gt;actor -->
<g id="edge1" class="edge">
<title>actor_info:w&#45;&gt;actor:e</title>
<path fill="none" stroke="#000000" stroke-dasharray="5,2" d="M344.8141,-348.6762C306.7688,-343.1061 295.7776,-316.7 250.5,-316.7"/>
<polygon fill="#000000" stroke="#000000" points="351.5194,-349.1436 359.2496,-353.2913 355.5097,-349.4218 359.5,-349.7 359.5,-349.7 359.5,-349.7 355.5097,-349.4218 359.7504,-346.1087 351.5194,-349.1436 351.5194,-349.1436"/>
<ellipse fill="none" stroke="#000000" cx="348.3271" cy="-348.921" rx="3.2" ry="3.2"/>
</g>
<!-- film -->
<g id="node3" class="node">
<title>film</title>
<g id="a_node3"><a xlink:href="../../tables/film.html" xlink:title="film" target="_top">
<polygon fill="#ffffff" stroke="transparent" points="145,-38.2 145,-187.2 268,-187.2 268,-38.2 145,-38.2"/>
<polygon fill="#f5f5f5" stroke="transparent" points="145.5,-163.7 145.5,-186.7 268.5,-186.7 268.5,-163.7 145.5,-163.7"/>
<polygon fill="none" stroke="#000000" points="145.5,-163.7 145.5,-186.7 268.5,-186.7 268.5,-163.7 145.5,-163.7"/>
<text text-anchor="start" x="150.5" y="-172.8" font-family="Helvetica,sans-Serif" font-weight="bold" font-size="11.00" fill="#000000">film</text>
<text text-anchor="start" x="233.5437" y="-171.8" font-family="Helvetica,sans-Serif" font-size="11.00" fill="#000000">[table]</text>
<polygon fill="none" stroke="#000000" points="145.5,-141.7 145.5,-163.7 268.5,-163.7 268.5,-141.7 145.5,-141.7"/>
<image xlink:href="../../images/primaryKeys.png" width="11px" height="12px" preserveAspectRatio="xMinYMin meet" x="150.5" y="-158.7"/>
<text text-anchor="start" x="165.5" y="-148.8" font-family="Helvetica,sans-Serif" font-size="11.00" fill="#000000">film_id</text>
<polygon fill="#ffffff" stroke="transparent" points="145.5,-119.7 145.5,-141.7 268.5,-141.7 268.5,-119.7 145.5,-119.7"/>
<polygon fill="none" stroke="#000000" points="145.5,-119.7 145.5,-141.7 268.5,-141.7 268.5,-119.7 145.5,-119.7"/>
<text text-anchor="start" x="165.5" y="-126.8" font-family="Helvetica,sans-Serif" font-size="11.00" fill="#000000">title</text>
<polygon fill="#ffffff" stroke="transparent" points="145.5,-97.7 145.5,-119.7 268.5,-119.7 268.5,-97.7 145.5,-97.7"/>
<polygon fill="none" stroke="#000000" points="145.5,-97.7 145.5,-119.7 268.5,-119.7 268.5,-97.7 145.5,-97.7"/>
<image xlink:href="../../images/foreignKeys.png" width="11px" height="12px" preserveAspectRatio="xMinYMin meet" x="150.5" y="-114.7"/>
<text text-anchor="start" x="165.5" y="-104.8" font-family="Helvetica,sans-Serif" font-size="11.00" fill="#000000">language_id</text>
<polygon fill="#ffffff" stroke="transparent" points="145.5,-75.7 145.5,-97.7 268.5,-97.7 268.5,-75.7 145.5,-75.7"/>
<polygon fill="none" stroke="#000000" points="145.5,-75.7 145.5,-97.7 268.5,-97.7 268.5,-75.7 145.5,-75.7"/>
<text text-anchor="start" x="165.5" y="-82.8" font-family="Helvetica,sans-Serif" font-size="11.00" fill="#000000">fulltext</text>
<polygon fill="none" stroke="#000000" points="145.5,-56.7 145.5,-75.7 268.5,-75.7 268.5,-56.7 145.5,-56.7"/>
<text text-anchor="start" x="148.5" y="-62.8" font-family="Helvetica,sans-Serif" font-size="11.00" fill="#000000">...</text>
<polygon fill="#ffffff" stroke="transparent" points="145.5,-37.7 145.5,-56.7 187.5,-56.7 187.5,-37.7 145.5,-37.7"/>
<polygon fill="none" stroke="#000000" points="145.5,-37.7 145.5,-56.7 187.5,-56.7 187.5,-37.7 145.5,-37.7"/>
<text text-anchor="start" x="148.5" y="-43.8" font-family="Helvetica,sans-Serif" font-size="11.00" fill="#000000">&lt; 1</text>
<polygon fill="#ffffff" stroke="transparent" points="187.5,-37.7 187.5,-56.7 236.5,-56.7 236.5,-37.7 187.5,-37.7"/>
<polygon fill="none" stroke="#000000" points="187.5,-37.7 187.5,-56.7 236.5,-56.7 236.5,-37.7 187.5,-37.7"/>
<text text-anchor="start" x="201.1105" y="-43.8" font-family="Helvetica,sans-Serif" font-size="11.00" fill="#000000">0 rows</text>
<polygon fill="#ffffff" stroke="transparent" points="236.5,-37.7 236.5,-56.7 268.5,-56.7 268.5,-37.7 236.5,-37.7"/>
<polygon fill="none" stroke="#000000" points="236.5,-37.7 236.5,-56.7 268.5,-56.7 268.5,-37.7 236.5,-37.7"/>
<text text-anchor="start" x="249.9053" y="-43.8" font-family="Helvetica,sans-Serif" font-size="11.00" fill="#000000">3 &gt;</text>
</a>
</g>
</g>
<!-- language -->
<g id="node4" class="node">
<title>language</title>
<g id="a_node4"><a xlink:href="../../tables/language.html" xlink:title="language" target="_top">
<polygon fill="#ffffff" stroke="transparent" points="8,-81.2 8,-142.2 96,-142.2 96,-81.2 8,-81.2"/>
<polygon fill="#f5f5f5" stroke="transparent" points="8,-118.7 8,-141.7 96,-141.7 96,-118.7 8,-118.7"/>
<polygon fill="none" stroke="#000000" points="8,-118.7 8,-141.7 96,-141.7 96,-118.7 8,-118.7"/>
<text text-anchor="start" x="12.8774" y="-127.8" font-family="Helvetica,sans-Serif" font-weight="bold" font-size="11.00" fill="#000000">language</text>
<text text-anchor="start" x="61.5219" y="-126.8" font-family="Helvetica,sans-Serif" font-size="11.00" fill="#000000">[table]</text>
<polygon fill="none" stroke="#000000" points="8,-99.7 8,-118.7 96,-118.7 96,-99.7 8,-99.7"/>
<text text-anchor="start" x="11" y="-105.8" font-family="Helvetica,sans-Serif" font-size="11.00" fill="#000000">...</text>
<polygon fill="#ffffff" stroke="transparent" points="8,-80.7 8,-99.7 28,-99.7 28,-80.7 8,-80.7"/>
<polygon fill="none" stroke="#000000" points="8,-80.7 8,-99.7 28,-99.7 28,-80.7 8,-80.7"/>
<text text-anchor="start" x="11" y="-86.8" font-family="Helvetica,sans-Serif" font-size="11.00" fill="#000000"> &#160;</text>
<polygon fill="#ffffff" stroke="transparent" points="28,-80.7 28,-99.7 70,-99.7 70,-80.7 28,-80.7"/>
<polygon fill="none" stroke="#000000" points="28,-80.7 28,-99.7 70,-99.7 70,-80.7 28,-80.7"/>
<text text-anchor="start" x="34.6105" y="-86.8" font-family="Helvetica,sans-Serif" font-size="11.00" fill="#000000">0 rows</text>
<polygon fill="#ffffff" stroke="transparent" points="70,-80.7 70,-99.7 96,-99.7 96,-80.7 70,-80.7"/>
<polygon fill="none" stroke="#000000" points="70,-80.7 70,-99.7 96,-99.7 96,-80.7 70,-80.7"/>
<text text-anchor="start" x="77.4053" y="-86.8" font-family="Helvetica,sans-Serif" font-size="11.00" fill="#000000">1 &gt;</text>
</a>
</g>
</g>
<!-- film&#45;&gt;language -->
<g id="edge2" class="edge">
<title>film:w&#45;&gt;language:e</title>
<path fill="none" stroke="#000000" d="M130.8428,-108.7C119.4139,-108.7 112.1563,-108.7 96,-108.7"/>
<polygon fill="#000000" stroke="#000000" points="137.5,-108.7001 145.5,-112.3 141.5,-108.7 145.5,-108.7 145.5,-108.7 145.5,-108.7 141.5,-108.7 145.5,-105.1 137.5,-108.7001 137.5,-108.7001"/>
<ellipse fill="none" stroke="#000000" cx="134.3" cy="-108.7001" rx="3.2" ry="3.2"/>
</g>
<!-- film_actor -->
<g id="node5" class="node">
<title>film_actor</title>
<g id="a_node5"><a xlink:href="../../tables/film_actor.html" xlink:title="film_actor" target="_top">
<polygon fill="#ffffff" stroke="transparent" points="317,-207.7 317,-319.7 492,-319.7 492,-207.7 317,-207.7"/>
<polygon fill="#f5f5f5" stroke="transparent" points="319.5,-294.7 319.5,-317.7 490.5,-317.7 490.5,-294.7 319.5,-294.7"/>
<polygon fill="none" stroke="#000000" points="319.5,-294.7 319.5,-317.7 490.5,-317.7 490.5,-294.7 319.5,-294.7"/>
<text text-anchor="start" x="324.5" y="-303.8" font-family="Helvetica,sans-Serif" font-weight="bold" font-size="11.00" fill="#000000">film_actor</text>
<text text-anchor="start" x="455.5437" y="-302.8" font-family="Helvetica,sans-Serif" font-size="11.00" fill="#000000">[table]</text>
<polygon fill="none" stroke="#000000" points="319.5,-272.7 319.5,-294.7 406.5,-294.7 406.5,-272.7 319.5,-272.7"/>
<image xlink:href="../../images/primaryKeys.png" width="11px" height="12px" preserveAspectRatio="xMinYMin meet" x="324.5" y="-289.7"/>
<text text-anchor="start" x="339.5" y="-279.8" font-family="Helvetica,sans-Serif" font-size="11.00" fill="#000000">actor_id</text>
<polygon fill="none" stroke="#000000" points="406.5,-272.7 406.5,-294.7 490.5,-294.7 490.5,-272.7 406.5,-272.7"/>
<text text-anchor="start" x="409.5" y="-280.4" font-family="Helvetica,sans-Serif" font-size="11.00" fill="#000000">int2[5]</text>
<polygon fill="none" stroke="#000000" points="319.5,-250.7 319.5,-272.7 406.5,-272.7 406.5,-250.7 319.5,-250.7"/>
<image xlink:href="../../images/primaryKeys.png" width="11px" height="12px" preserveAspectRatio="xMinYMin meet" x="324.5" y="-267.7"/>
<text text-anchor="start" x="339.5" y="-257.8" font-family="Helvetica,sans-Serif" font-size="11.00" fill="#000000">film_id</text>
<polygon fill="none" stroke="#000000" points="406.5,-250.7 406.5,-272.7 490.5,-272.7 490.5,-250.7 406.5,-250.7"/>
<text text-anchor="start" x="409.5" y="-258.4" font-family="Helvetica,sans-Serif" font-size="11.00" fill="#000000">int2[5]</text>
<polygon fill="none" stroke="#000000" points="319.5,-228.7 319.5,-250.7 406.5,-250.7 406.5,-228.7 319.5,-228.7"/>
<text text-anchor="start" x="339.5" y="-235.8" font-family="Helvetica,sans-Serif" font-size="11.00" fill="#000000">last_update</text>
<polygon fill="none" stroke="#000000" points="406.5,-228.7 406.5,-250.7 490.5,-250.7 490.5,-228.7 406.5,-228.7"/>
<text text-anchor="start" x="409.3807" y="-236.4" font-family="Helvetica,sans-Serif" font-size="11.00" fill="#000000">timestamp[29,6]</text>
<polygon fill="#ffffff" stroke="transparent" points="319.5,-209.7 319.5,-228.7 354.5,-228.7 354.5,-209.7 319.5,-209.7"/>
<polygon fill="none" stroke="#000000" points="319.5,-209.7 319.5,-228.7 354.5,-228.7 354.5,-209.7 319.5,-209.7"/>
<text text-anchor="start" x="322.5" y="-215.8" font-family="Helvetica,sans-Serif" font-size="11.00" fill="#000000">&lt; 2</text>
<polygon fill="#ffffff" stroke="transparent" points="354.5,-209.7 354.5,-228.7 406.5,-228.7 406.5,-209.7 354.5,-209.7"/>
<polygon fill="none" stroke="#000000" points="354.5,-209.7 354.5,-228.7 406.5,-228.7 406.5,-209.7 354.5,-209.7"/>
<text text-anchor="start" x="371.1105" y="-215.8" font-family="Helvetica,sans-Serif" font-size="11.00" fill="#000000">0 rows</text>
<polygon fill="#ffffff" stroke="transparent" points="406.5,-209.7 406.5,-228.7 490.5,-228.7 490.5,-209.7 406.5,-209.7"/>
<polygon fill="none" stroke="#000000" points="406.5,-209.7 406.5,-228.7 490.5,-228.7 490.5,-209.7 406.5,-209.7"/>
<text text-anchor="start" x="471.9053" y="-215.8" font-family="Helvetica,sans-Serif" font-size="11.00" fill="#000000">0 &gt;</text>
<polygon fill="none" stroke="#000000" stroke-width="2" points="318,-208.7 318,-318.7 491,-318.7 491,-208.7 318,-208.7"/>
</a>
</g>
</g>
<!-- film_actor&#45;&gt;actor -->
<g id="edge3" class="edge">
<title>film_actor:w&#45;&gt;actor:e</title>
<path fill="none" stroke="#000000" d="M305.1407,-286.0733C284.2864,-293.6399 278.9164,-316.7 250.5,-316.7"/>
<polygon fill="#000000" stroke="#000000" points="311.6071,-285.0046 320.0871,-287.2518 315.5535,-284.3523 319.5,-283.7 319.5,-283.7 319.5,-283.7 315.5535,-284.3523 318.9129,-280.1482 311.6071,-285.0046 311.6071,-285.0046"/>
<ellipse fill="none" stroke="#000000" cx="308.4499" cy="-285.5264" rx="3.2" ry="3.2"/>
</g>
<!-- film_actor&#45;&gt;film -->
<g id="edge4" class="edge">
<title>film_actor:w&#45;&gt;film:e</title>
<path fill="none" stroke="#000000" d="M305.219,-257.8206C277.2911,-238.4034 315.9261,-152.7 268.5,-152.7"/>
<polygon fill="#000000" stroke="#000000" points="311.7798,-259.6028 318.5563,-265.1741 315.6399,-260.6514 319.5,-261.7 319.5,-261.7 319.5,-261.7 315.6399,-260.6514 320.4437,-258.2259 311.7798,-259.6028 311.7798,-259.6028"/>
<ellipse fill="none" stroke="#000000" cx="308.6917" cy="-258.7639" rx="3.2" ry="3.2"/>
</g>
<!-- film_category -->
<g id="node6" class="node">
<title>film_category</title>
<g id="a_node6"><a xlink:href="../../tables/film_category.html" xlink:title="film_category" target="_top">
<polygon fill="#ffffff" stroke="transparent" points="350.5,-125.2 350.5,-186.2 458.5,-186.2 458.5,-125.2 350.5,-125.2"/>
<polygon fill="#f5f5f5" stroke="transparent" points="350.5,-162.7 350.5,-185.7 458.5,-185.7 458.5,-162.7 350.5,-162.7"/>
<polygon fill="none" stroke="#000000" points="350.5,-162.7 350.5,-185.7 458.5,-185.7 458.5,-162.7 350.5,-162.7"/>
<text text-anchor="start" x="355.3031" y="-171.8" font-family="Helvetica,sans-Serif" font-weight="bold" font-size="11.00" fill="#000000">film_category</text>
<text text-anchor="start" x="424.0219" y="-170.8" font-family="Helvetica,sans-Serif" font-size="11.00" fill="#000000">[table]</text>
<polygon fill="none" stroke="#000000" points="350.5,-143.7 350.5,-162.7 458.5,-162.7 458.5,-143.7 350.5,-143.7"/>
<text text-anchor="start" x="353.5" y="-149.8" font-family="Helvetica,sans-Serif" font-size="11.00" fill="#000000">...</text>
<polygon fill="#ffffff" stroke="transparent" points="350.5,-124.7 350.5,-143.7 389.5,-143.7 389.5,-124.7 350.5,-124.7"/>
<polygon fill="none" stroke="#000000" points="350.5,-124.7 350.5,-143.7 389.5,-143.7 389.5,-124.7 350.5,-124.7"/>
<text text-anchor="start" x="353.5" y="-130.8" font-family="Helvetica,sans-Serif" font-size="11.00" fill="#000000">&lt; 2</text>
<polygon fill="#ffffff" stroke="transparent" points="389.5,-124.7 389.5,-143.7 436.5,-143.7 436.5,-124.7 389.5,-124.7"/>
<polygon fill="none" stroke="#000000" points="389.5,-124.7 389.5,-143.7 436.5,-143.7 436.5,-124.7 389.5,-124.7"/>
<text text-anchor="start" x="401.1105" y="-130.8" font-family="Helvetica,sans-Serif" font-size="11.00" fill="#000000">0 rows</text>
<polygon fill="#ffffff" stroke="transparent" points="436.5,-124.7 436.5,-143.7 458.5,-143.7 458.5,-124.7 436.5,-124.7"/>
<polygon fill="none" stroke="#000000" points="436.5,-124.7 436.5,-143.7 458.5,-143.7 458.5,-124.7 436.5,-124.7"/>
<text text-anchor="start" x="449.3862" y="-130.8" font-family="Helvetica,sans-Serif" font-size="11.00" fill="#000000"> &#160;</text>
</a>
</g>
</g>
<!-- film_category&#45;&gt;film -->
<g id="edge5" class="edge">
<title>film_category:w&#45;&gt;film:e</title>
<path fill="none" stroke="#000000" d="M335.8988,-152.7C310.7484,-152.7 299.5347,-152.7 268.5,-152.7"/>
<polygon fill="#000000" stroke="#000000" points="342.5,-152.7001 350.5,-156.3 346.5,-152.7 350.5,-152.7 350.5,-152.7 350.5,-152.7 346.5,-152.7 350.5,-149.1 342.5,-152.7001 342.5,-152.7001"/>
<ellipse fill="none" stroke="#000000" cx="339.3" cy="-152.7001" rx="3.2" ry="3.2"/>
</g>
<!-- inventory -->
<g id="node7" class="node">
<title>inventory</title>
<g id="a_node7"><a xlink:href="../../tables/inventory.html" xlink:title="inventory" target="_top">
<polygon fill="#ffffff" stroke="transparent" points="361,-43.2 361,-104.2 448,-104.2 448,-43.2 361,-43.2"/>
<polygon fill="#f5f5f5" stroke="transparent" points="361.5,-80.7 361.5,-103.7 448.5,-103.7 448.5,-80.7 361.5,-80.7"/>
<polygon fill="none" stroke="#000000" points="361.5,-80.7 361.5,-103.7 448.5,-103.7 448.5,-80.7 361.5,-80.7"/>
<text text-anchor="start" x="366.1904" y="-89.8" font-family="Helvetica,sans-Serif" font-weight="bold" font-size="11.00" fill="#000000">inventory</text>
<text text-anchor="start" x="414.0219" y="-88.8" font-family="Helvetica,sans-Serif" font-size="11.00" fill="#000000">[table]</text>
<polygon fill="none" stroke="#000000" points="361.5,-61.7 361.5,-80.7 448.5,-80.7 448.5,-61.7 361.5,-61.7"/>
<text text-anchor="start" x="364.5" y="-67.8" font-family="Helvetica,sans-Serif" font-size="11.00" fill="#000000">...</text>
<polygon fill="#ffffff" stroke="transparent" points="361.5,-42.7 361.5,-61.7 385.5,-61.7 385.5,-42.7 361.5,-42.7"/>
<polygon fill="none" stroke="#000000" points="361.5,-42.7 361.5,-61.7 385.5,-61.7 385.5,-42.7 361.5,-42.7"/>
<text text-anchor="start" x="364.5" y="-48.8" font-family="Helvetica,sans-Serif" font-size="11.00" fill="#000000">&lt; 1</text>
<polygon fill="#ffffff" stroke="transparent" points="385.5,-42.7 385.5,-61.7 425.5,-61.7 425.5,-42.7 385.5,-42.7"/>
<polygon fill="none" stroke="#000000" points="385.5,-42.7 385.5,-61.7 425.5,-61.7 425.5,-42.7 385.5,-42.7"/>
<text text-anchor="start" x="390.1105" y="-48.8" font-family="Helvetica,sans-Serif" font-size="11.00" fill="#000000">0 rows</text>
<polygon fill="#ffffff" stroke="transparent" points="425.5,-42.7 425.5,-61.7 448.5,-61.7 448.5,-42.7 425.5,-42.7"/>
<polygon fill="none" stroke="#000000" points="425.5,-42.7 425.5,-61.7 448.5,-61.7 448.5,-42.7 425.5,-42.7"/>
<text text-anchor="start" x="429.9053" y="-48.8" font-family="Helvetica,sans-Serif" font-size="11.00" fill="#000000">1 &gt;</text>
</a>
</g>
</g>
<!-- inventory&#45;&gt;film -->
<g id="edge6" class="edge">
<title>inventory:w&#45;&gt;film:e</title>
<path fill="none" stroke="#000000" d="M346.8208,-73.2194C330.4408,-79.8591 327.328,-98.4442 309,-114.7 290.5341,-131.0782 293.1827,-152.7 268.5,-152.7"/>
<polygon fill="#000000" stroke="#000000" points="353.6153,-72.0533 362.109,-74.2481 357.5576,-71.3767 361.5,-70.7 361.5,-70.7 361.5,-70.7 357.5576,-71.3767 360.891,-67.1519 353.6153,-72.0533 353.6153,-72.0533"/>
<ellipse fill="none" stroke="#000000" cx="350.4614" cy="-72.5946" rx="3.2" ry="3.2"/>
</g>
</g>
</svg>
