<?xml version="1.0" encoding="UTF-8" standalone="no"?>
<!DOCTYPE svg PUBLIC "-//W3C//DTD SVG 1.1//EN"
 "http://www.w3.org/Graphics/SVG/1.1/DTD/svg11.dtd">
<!-- Generated by graphviz version 2.40.1 (20161225.0304)
 -->
<!-- Title: twoDegreesRelationshipsDiagram Pages: 1 -->
<svg width="526pt" height="354pt"
 viewBox="0.00 0.00 526.00 353.70" xmlns="http://www.w3.org/2000/svg" xmlns:xlink="http://www.w3.org/1999/xlink">
<g id="graph0" class="graph" transform="scale(1 1) rotate(0) translate(4 349.7)">
<title>twoDegreesRelationshipsDiagram</title>
<polygon fill="#ffffff" stroke="transparent" points="-4,4 -4,-349.7 522,-349.7 522,4 -4,4"/>
<text text-anchor="middle" x="72.4936" y="-7.3" font-family="Helvetica,sans-Serif" font-size="11.00" fill="#000000">Generated by SchemaSpy</text>
<!-- film -->
<g id="node1" class="node">
<title>film</title>
<g id="a_node1"><a xlink:href="../../tables/film.html" xlink:title="film" target="_top">
<polygon fill="#ffffff" stroke="transparent" points="145,-38.2 145,-209.2 286,-209.2 286,-38.2 145,-38.2"/>
<polygon fill="#f5f5f5" stroke="transparent" points="145.5,-185.7 145.5,-208.7 286.5,-208.7 286.5,-185.7 145.5,-185.7"/>
<polygon fill="none" stroke="#000000" points="145.5,-185.7 145.5,-208.7 286.5,-208.7 286.5,-185.7 145.5,-185.7"/>
<text text-anchor="start" x="150.5" y="-194.8" font-family="Helvetica,sans-Serif" font-weight="bold" font-size="11.00" fill="#000000">film</text>
<text text-anchor="start" x="251.5437" y="-193.8" font-family="Helvetica,sans-Serif" font-size="11.00" fill="#000000">[table]</text>
<polygon fill="none" stroke="#000000" points="145.5,-163.7 145.5,-185.7 286.5,-185.7 286.5,-163.7 145.5,-163.7"/>
<image xlink:href="../../images/primaryKeys.png" width="11px" height="12px" preserveAspectRatio="xMinYMin meet" x="150.5" y="-180.7"/>
<text text-anchor="start" x="165.5" y="-170.8" font-family="Helvetica,sans-Serif" font-size="11.00" fill="#000000">film_id</text>
<polygon fill="#ffffff" stroke="transparent" points="145.5,-141.7 145.5,-163.7 286.5,-163.7 286.5,-141.7 145.5,-141.7"/>
<polygon fill="none" stroke="#000000" points="145.5,-141.7 145.5,-163.7 286.5,-163.7 286.5,-141.7 145.5,-141.7"/>
<text text-anchor="start" x="165.5" y="-148.8" font-family="Helvetica,sans-Serif" font-size="11.00" fill="#000000">title</text>
<polygon fill="#ffffff" stroke="transparent" points="145.5,-119.7 145.5,-141.7 286.5,-141.7 286.5,-119.7 145.5,-119.7"/>
<polygon fill="none" stroke="#000000" points="145.5,-119.7 145.5,-141.7 286.5,-141.7 286.5,-119.7 145.5,-119.7"/>
<image xlink:href="../../images/foreignKeys.png" width="11px" height="12px" preserveAspectRatio="xMinYMin meet" x="150.5" y="-136.7"/>
<text text-anchor="start" x="165.5" y="-126.8" font-family="Helvetica,sans-Serif" font-size="11.00" fill="#000000">language_id</text>
<polygon fill="#ffffff" stroke="transparent" points="145.5,-97.7 145.5,-119.7 286.5,-119.7 286.5,-97.7 145.5,-97.7"/>
<polygon fill="none" stroke="#000000" points="145.5,-97.7 145.5,-119.7 286.5,-119.7 286.5,-97.7 145.5,-97.7"/>
<image xlink:href="../../images/foreignKeys.png" width="11px" height="12px" preserveAspectRatio="xMinYMin meet" x="150.5" y="-114.7"/>
<text text-anchor="start" x="165.5" y="-104.8" font-family="Helvetica,sans-Serif" font-size="11.00" fill="#000000">original_language_id</text>
<polygon fill="#ffffff" stroke="transparent" points="145.5,-75.7 145.5,-97.7 286.5,-97.7 286.5,-75.7 145.5,-75.7"/>
<polygon fill="none" stroke="#000000" points="145.5,-75.7 145.5,-97.7 286.5,-97.7 286.5,-75.7 145.5,-75.7"/>
<text text-anchor="start" x="165.5" y="-82.8" font-family="Helvetica,sans-Serif" font-size="11.00" fill="#000000">fulltext</text>
<polygon fill="none" stroke="#000000" points="145.5,-56.7 145.5,-75.7 286.5,-75.7 286.5,-56.7 145.5,-56.7"/>
<text text-anchor="start" x="148.5" y="-62.8" font-family="Helvetica,sans-Serif" font-size="11.00" fill="#000000">...</text>
<polygon fill="#ffffff" stroke="transparent" points="145.5,-37.7 145.5,-56.7 196.5,-56.7 196.5,-37.7 145.5,-37.7"/>
<polygon fill="none" stroke="#000000" points="145.5,-37.7 145.5,-56.7 196.5,-56.7 196.5,-37.7 145.5,-37.7"/>
<text text-anchor="start" x="148.5" y="-43.8" font-family="Helvetica,sans-Serif" font-size="11.00" fill="#000000">&lt; 2</text>
<polygon fill="#ffffff" stroke="transparent" points="196.5,-37.7 196.5,-56.7 249.5,-56.7 249.5,-37.7 196.5,-37.7"/>
<polygon fill="none" stroke="#000000" points="196.5,-37.7 196.5,-56.7 249.5,-56.7 249.5,-37.7 196.5,-37.7"/>
<text text-anchor="start" x="214.1105" y="-43.8" font-family="Helvetica,sans-Serif" font-size="11.00" fill="#000000">0 rows</text>
<polygon fill="#ffffff" stroke="transparent" points="249.5,-37.7 249.5,-56.7 286.5,-56.7 286.5,-37.7 249.5,-37.7"/>
<polygon fill="none" stroke="#000000" points="249.5,-37.7 249.5,-56.7 286.5,-56.7 286.5,-37.7 249.5,-37.7"/>
<text text-anchor="start" x="267.9053" y="-43.8" font-family="Helvetica,sans-Serif" font-size="11.00" fill="#000000">3 &gt;</text>
</a>
</g>
</g>
<!-- language -->
<g id="node2" class="node">
<title>language</title>
<g id="a_node2"><a xlink:href="../../tables/language.html" xlink:title="language" target="_top">
<polygon fill="#ffffff" stroke="transparent" points="8,-92.2 8,-153.2 96,-153.2 96,-92.2 8,-92.2"/>
<polygon fill="#f5f5f5" stroke="transparent" points="8,-129.7 8,-152.7 96,-152.7 96,-129.7 8,-129.7"/>
<polygon fill="none" stroke="#000000" points="8,-129.7 8,-152.7 96,-152.7 96,-129.7 8,-129.7"/>
<text text-anchor="start" x="12.8774" y="-138.8" font-family="Helvetica,sans-Serif" font-weight="bold" font-size="11.00" fill="#000000">language</text>
<text text-anchor="start" x="61.5219" y="-137.8" font-family="Helvetica,sans-Serif" font-size="11.00" fill="#000000">[table]</text>
<polygon fill="none" stroke="#000000" points="8,-110.7 8,-129.7 96,-129.7 96,-110.7 8,-110.7"/>
<text text-anchor="start" x="11" y="-116.8" font-family="Helvetica,sans-Serif" font-size="11.00" fill="#000000">...</text>
<polygon fill="#ffffff" stroke="transparent" points="8,-91.7 8,-110.7 28,-110.7 28,-91.7 8,-91.7"/>
<polygon fill="none" stroke="#000000" points="8,-91.7 8,-110.7 28,-110.7 28,-91.7 8,-91.7"/>
<text text-anchor="start" x="11" y="-97.8" font-family="Helvetica,sans-Serif" font-size="11.00" fill="#000000"> &#160;</text>
<polygon fill="#ffffff" stroke="transparent" points="28,-91.7 28,-110.7 70,-110.7 70,-91.7 28,-91.7"/>
<polygon fill="none" stroke="#000000" points="28,-91.7 28,-110.7 70,-110.7 70,-91.7 28,-91.7"/>
<text text-anchor="start" x="34.6105" y="-97.8" font-family="Helvetica,sans-Serif" font-size="11.00" fill="#000000">0 rows</text>
<polygon fill="#ffffff" stroke="transparent" points="70,-91.7 70,-110.7 96,-110.7 96,-91.7 70,-91.7"/>
<polygon fill="none" stroke="#000000" points="70,-91.7 70,-110.7 96,-110.7 96,-91.7 70,-91.7"/>
<text text-anchor="start" x="77.4053" y="-97.8" font-family="Helvetica,sans-Serif" font-size="11.00" fill="#000000">2 &gt;</text>
</a>
</g>
</g>
<!-- film&#45;&gt;language -->
<g id="edge1" class="edge">
<title>film:w&#45;&gt;language:e</title>
<path fill="none" stroke="#000000" d="M131.0598,-128.8836C119.4771,-125.7593 112.7264,-119.7 96,-119.7"/>
<polygon fill="#000000" stroke="#000000" points="137.5626,-129.7015 145.0507,-134.2719 141.5313,-130.2008 145.5,-130.7 145.5,-130.7 145.5,-130.7 141.5313,-130.2008 145.9493,-127.1281 137.5626,-129.7015 137.5626,-129.7015"/>
<ellipse fill="none" stroke="#000000" cx="134.3876" cy="-129.3021" rx="3.2" ry="3.2"/>
</g>
<!-- film&#45;&gt;language -->
<g id="edge2" class="edge">
<title>film:w&#45;&gt;language:e</title>
<path fill="none" stroke="#000000" d="M131.0598,-110.5164C119.4771,-113.6407 112.7264,-119.7 96,-119.7"/>
<polygon fill="#000000" stroke="#000000" points="137.5626,-109.6985 145.9493,-112.2719 141.5313,-109.1992 145.5,-108.7 145.5,-108.7 145.5,-108.7 141.5313,-109.1992 145.0507,-105.1281 137.5626,-109.6985 137.5626,-109.6985"/>
<ellipse fill="none" stroke="#000000" cx="134.3876" cy="-110.0979" rx="3.2" ry="3.2"/>
</g>
<!-- film_actor -->
<g id="node3" class="node">
<title>film_actor</title>
<g id="a_node3"><a xlink:href="../../tables/film_actor.html" xlink:title="film_actor" target="_top">
<polygon fill="#ffffff" stroke="transparent" points="335,-229.7 335,-341.7 510,-341.7 510,-229.7 335,-229.7"/>
<polygon fill="#f5f5f5" stroke="transparent" points="337.5,-316.7 337.5,-339.7 508.5,-339.7 508.5,-316.7 337.5,-316.7"/>
<polygon fill="none" stroke="#000000" points="337.5,-316.7 337.5,-339.7 508.5,-339.7 508.5,-316.7 337.5,-316.7"/>
<text text-anchor="start" x="342.5" y="-325.8" font-family="Helvetica,sans-Serif" font-weight="bold" font-size="11.00" fill="#000000">film_actor</text>
<text text-anchor="start" x="473.5437" y="-324.8" font-family="Helvetica,sans-Serif" font-size="11.00" fill="#000000">[table]</text>
<polygon fill="none" stroke="#000000" points="337.5,-294.7 337.5,-316.7 424.5,-316.7 424.5,-294.7 337.5,-294.7"/>
<image xlink:href="../../images/primaryKeys.png" width="11px" height="12px" preserveAspectRatio="xMinYMin meet" x="342.5" y="-311.7"/>
<text text-anchor="start" x="357.5" y="-301.8" font-family="Helvetica,sans-Serif" font-size="11.00" fill="#000000">actor_id</text>
<polygon fill="none" stroke="#000000" points="424.5,-294.7 424.5,-316.7 508.5,-316.7 508.5,-294.7 424.5,-294.7"/>
<text text-anchor="start" x="427.5" y="-302.4" font-family="Helvetica,sans-Serif" font-size="11.00" fill="#000000">int2[5]</text>
<polygon fill="none" stroke="#000000" points="337.5,-272.7 337.5,-294.7 424.5,-294.7 424.5,-272.7 337.5,-272.7"/>
<image xlink:href="../../images/primaryKeys.png" width="11px" height="12px" preserveAspectRatio="xMinYMin meet" x="342.5" y="-289.7"/>
<text text-anchor="start" x="357.5" y="-279.8" font-family="Helvetica,sans-Serif" font-size="11.00" fill="#000000">film_id</text>
<polygon fill="none" stroke="#000000" points="424.5,-272.7 424.5,-294.7 508.5,-294.7 508.5,-272.7 424.5,-272.7"/>
<text text-anchor="start" x="427.5" y="-280.4" font-family="Helvetica,sans-Serif" font-size="11.00" fill="#000000">int2[5]</text>
<polygon fill="none" stroke="#000000" points="337.5,-250.7 337.5,-272.7 424.5,-272.7 424.5,-250.7 337.5,-250.7"/>
<text text-anchor="start" x="357.5" y="-257.8" font-family="Helvetica,sans-Serif" font-size="11.00" fill="#000000">last_update</text>
<polygon fill="none" stroke="#000000" points="424.5,-250.7 424.5,-272.7 508.5,-272.7 508.5,-250.7 424.5,-250.7"/>
<text text-anchor="start" x="427.3807" y="-258.4" font-family="Helvetica,sans-Serif" font-size="11.00" fill="#000000">timestamp[29,6]</text>
<polygon fill="#ffffff" stroke="transparent" points="337.5,-231.7 337.5,-250.7 372.5,-250.7 372.5,-231.7 337.5,-231.7"/>
<polygon fill="none" stroke="#000000" points="337.5,-231.7 337.5,-250.7 372.5,-250.7 372.5,-231.7 337.5,-231.7"/>
<text text-anchor="start" x="340.5" y="-237.8" font-family="Helvetica,sans-Serif" font-size="11.00" fill="#000000">&lt; 2</text>
<polygon fill="#ffffff" stroke="transparent" points="372.5,-231.7 372.5,-250.7 424.5,-250.7 424.5,-231.7 372.5,-231.7"/>
<polygon fill="none" stroke="#000000" points="372.5,-231.7 372.5,-250.7 424.5,-250.7 424.5,-231.7 372.5,-231.7"/>
<text text-anchor="start" x="389.1105" y="-237.8" font-family="Helvetica,sans-Serif" font-size="11.00" fill="#000000">0 rows</text>
<polygon fill="#ffffff" stroke="transparent" points="424.5,-231.7 424.5,-250.7 508.5,-250.7 508.5,-231.7 424.5,-231.7"/>
<polygon fill="none" stroke="#000000" points="424.5,-231.7 424.5,-250.7 508.5,-250.7 508.5,-231.7 424.5,-231.7"/>
<text text-anchor="start" x="489.9053" y="-237.8" font-family="Helvetica,sans-Serif" font-size="11.00" fill="#000000">0 &gt;</text>
<polygon fill="none" stroke="#000000" stroke-width="2" points="336,-230.7 336,-340.7 509,-340.7 509,-230.7 336,-230.7"/>
</a>
</g>
</g>
<!-- film_actor&#45;&gt;film -->
<g id="edge4" class="edge">
<title>film_actor:w&#45;&gt;film:e</title>
<path fill="none" stroke="#000000" d="M323.219,-279.8206C295.2911,-260.4034 333.9261,-174.7 286.5,-174.7"/>
<polygon fill="#000000" stroke="#000000" points="329.7798,-281.6028 336.5563,-287.1741 333.6399,-282.6514 337.5,-283.7 337.5,-283.7 337.5,-283.7 333.6399,-282.6514 338.4437,-280.2259 329.7798,-281.6028 329.7798,-281.6028"/>
<ellipse fill="none" stroke="#000000" cx="326.6917" cy="-280.7639" rx="3.2" ry="3.2"/>
</g>
<!-- actor -->
<g id="node4" class="node">
<title>actor</title>
<g id="a_node4"><a xlink:href="../../tables/actor.html" xlink:title="actor" target="_top">
<polygon fill="#ffffff" stroke="transparent" points="172,-235.2 172,-340.2 259,-340.2 259,-235.2 172,-235.2"/>
<polygon fill="#f5f5f5" stroke="transparent" points="172.5,-316.7 172.5,-339.7 259.5,-339.7 259.5,-316.7 172.5,-316.7"/>
<polygon fill="none" stroke="#000000" points="172.5,-316.7 172.5,-339.7 259.5,-339.7 259.5,-316.7 172.5,-316.7"/>
<text text-anchor="start" x="177.5" y="-325.8" font-family="Helvetica,sans-Serif" font-weight="bold" font-size="11.00" fill="#000000">actor</text>
<text text-anchor="start" x="224.5437" y="-324.8" font-family="Helvetica,sans-Serif" font-size="11.00" fill="#000000">[table]</text>
<polygon fill="none" stroke="#000000" points="172.5,-294.7 172.5,-316.7 259.5,-316.7 259.5,-294.7 172.5,-294.7"/>
<image xlink:href="../../images/primaryKeys.png" width="11px" height="12px" preserveAspectRatio="xMinYMin meet" x="177.5" y="-311.7"/>
<text text-anchor="start" x="192.5" y="-301.8" font-family="Helvetica,sans-Serif" font-size="11.00" fill="#000000">actor_id</text>
<polygon fill="#ffffff" stroke="transparent" points="172.5,-272.7 172.5,-294.7 259.5,-294.7 259.5,-272.7 172.5,-272.7"/>
<polygon fill="none" stroke="#000000" points="172.5,-272.7 172.5,-294.7 259.5,-294.7 259.5,-272.7 172.5,-272.7"/>
<text text-anchor="start" x="192.5" y="-279.8" font-family="Helvetica,sans-Serif" font-size="11.00" fill="#000000">last_name</text>
<polygon fill="none" stroke="#000000" points="172.5,-253.7 172.5,-272.7 259.5,-272.7 259.5,-253.7 172.5,-253.7"/>
<text text-anchor="start" x="175.5" y="-259.8" font-family="Helvetica,sans-Serif" font-size="11.00" fill="#000000">...</text>
<polygon fill="#ffffff" stroke="transparent" points="172.5,-234.7 172.5,-253.7 186.5,-253.7 186.5,-234.7 172.5,-234.7"/>
<polygon fill="none" stroke="#000000" points="172.5,-234.7 172.5,-253.7 186.5,-253.7 186.5,-234.7 172.5,-234.7"/>
<text text-anchor="start" x="175.5" y="-240.8" font-family="Helvetica,sans-Serif" font-size="11.00" fill="#000000"> &#160;</text>
<polygon fill="#ffffff" stroke="transparent" points="186.5,-234.7 186.5,-253.7 237.5,-253.7 237.5,-234.7 186.5,-234.7"/>
<polygon fill="none" stroke="#000000" points="186.5,-234.7 186.5,-253.7 237.5,-253.7 237.5,-234.7 186.5,-234.7"/>
<text text-anchor="start" x="189.8807" y="-240.8" font-family="Helvetica,sans-Serif" font-size="11.00" fill="#000000">200 rows</text>
<polygon fill="#ffffff" stroke="transparent" points="237.5,-234.7 237.5,-253.7 259.5,-253.7 259.5,-234.7 237.5,-234.7"/>
<polygon fill="none" stroke="#000000" points="237.5,-234.7 237.5,-253.7 259.5,-253.7 259.5,-234.7 237.5,-234.7"/>
<text text-anchor="start" x="240.9053" y="-240.8" font-family="Helvetica,sans-Serif" font-size="11.00" fill="#000000">1 &gt;</text>
</a>
</g>
</g>
<!-- film_actor&#45;&gt;actor -->
<g id="edge3" class="edge">
<title>film_actor:w&#45;&gt;actor:e</title>
<path fill="none" stroke="#000000" d="M322.9559,-305.7C299.4902,-305.7 288.75,-305.7 259.5,-305.7"/>
<polygon fill="#000000" stroke="#000000" points="329.5,-305.7001 337.5,-309.3 333.5,-305.7 337.5,-305.7 337.5,-305.7 337.5,-305.7 333.5,-305.7 337.5,-302.1 329.5,-305.7001 329.5,-305.7001"/>
<ellipse fill="none" stroke="#000000" cx="326.3" cy="-305.7001" rx="3.2" ry="3.2"/>
</g>
<!-- film_category -->
<g id="node5" class="node">
<title>film_category</title>
<g id="a_node5"><a xlink:href="../../tables/film_category.html" xlink:title="film_category" target="_top">
<polygon fill="#ffffff" stroke="transparent" points="368.5,-147.2 368.5,-208.2 476.5,-208.2 476.5,-147.2 368.5,-147.2"/>
<polygon fill="#f5f5f5" stroke="transparent" points="368.5,-184.7 368.5,-207.7 476.5,-207.7 476.5,-184.7 368.5,-184.7"/>
<polygon fill="none" stroke="#000000" points="368.5,-184.7 368.5,-207.7 476.5,-207.7 476.5,-184.7 368.5,-184.7"/>
<text text-anchor="start" x="373.3031" y="-193.8" font-family="Helvetica,sans-Serif" font-weight="bold" font-size="11.00" fill="#000000">film_category</text>
<text text-anchor="start" x="442.0219" y="-192.8" font-family="Helvetica,sans-Serif" font-size="11.00" fill="#000000">[table]</text>
<polygon fill="none" stroke="#000000" points="368.5,-165.7 368.5,-184.7 476.5,-184.7 476.5,-165.7 368.5,-165.7"/>
<text text-anchor="start" x="371.5" y="-171.8" font-family="Helvetica,sans-Serif" font-size="11.00" fill="#000000">...</text>
<polygon fill="#ffffff" stroke="transparent" points="368.5,-146.7 368.5,-165.7 407.5,-165.7 407.5,-146.7 368.5,-146.7"/>
<polygon fill="none" stroke="#000000" points="368.5,-146.7 368.5,-165.7 407.5,-165.7 407.5,-146.7 368.5,-146.7"/>
<text text-anchor="start" x="371.5" y="-152.8" font-family="Helvetica,sans-Serif" font-size="11.00" fill="#000000">&lt; 2</text>
<polygon fill="#ffffff" stroke="transparent" points="407.5,-146.7 407.5,-165.7 454.5,-165.7 454.5,-146.7 407.5,-146.7"/>
<polygon fill="none" stroke="#000000" points="407.5,-146.7 407.5,-165.7 454.5,-165.7 454.5,-146.7 407.5,-146.7"/>
<text text-anchor="start" x="419.1105" y="-152.8" font-family="Helvetica,sans-Serif" font-size="11.00" fill="#000000">0 rows</text>
<polygon fill="#ffffff" stroke="transparent" points="454.5,-146.7 454.5,-165.7 476.5,-165.7 476.5,-146.7 454.5,-146.7"/>
<polygon fill="none" stroke="#000000" points="454.5,-146.7 454.5,-165.7 476.5,-165.7 476.5,-146.7 454.5,-146.7"/>
<text text-anchor="start" x="467.3862" y="-152.8" font-family="Helvetica,sans-Serif" font-size="11.00" fill="#000000"> &#160;</text>
</a>
</g>
</g>
<!-- film_category&#45;&gt;film -->
<g id="edge5" class="edge">
<title>film_category:w&#45;&gt;film:e</title>
<path fill="none" stroke="#000000" d="M353.8988,-174.7C328.7484,-174.7 317.5347,-174.7 286.5,-174.7"/>
<polygon fill="#000000" stroke="#000000" points="360.5,-174.7001 368.5,-178.3 364.5,-174.7 368.5,-174.7 368.5,-174.7 368.5,-174.7 364.5,-174.7 368.5,-171.1 360.5,-174.7001 360.5,-174.7001"/>
<ellipse fill="none" stroke="#000000" cx="357.3" cy="-174.7001" rx="3.2" ry="3.2"/>
</g>
<!-- inventory -->
<g id="node6" class="node">
<title>inventory</title>
<g id="a_node6"><a xlink:href="../../tables/inventory.html" xlink:title="inventory" target="_top">
<polygon fill="#ffffff" stroke="transparent" points="379,-65.2 379,-126.2 466,-126.2 466,-65.2 379,-65.2"/>
<polygon fill="#f5f5f5" stroke="transparent" points="379.5,-102.7 379.5,-125.7 466.5,-125.7 466.5,-102.7 379.5,-102.7"/>
<polygon fill="none" stroke="#000000" points="379.5,-102.7 379.5,-125.7 466.5,-125.7 466.5,-102.7 379.5,-102.7"/>
<text text-anchor="start" x="384.1904" y="-111.8" font-family="Helvetica,sans-Serif" font-weight="bold" font-size="11.00" fill="#000000">inventory</text>
<text text-anchor="start" x="432.0219" y="-110.8" font-family="Helvetica,sans-Serif" font-size="11.00" fill="#000000">[table]</text>
<polygon fill="none" stroke="#000000" points="379.5,-83.7 379.5,-102.7 466.5,-102.7 466.5,-83.7 379.5,-83.7"/>
<text text-anchor="start" x="382.5" y="-89.8" font-family="Helvetica,sans-Serif" font-size="11.00" fill="#000000">...</text>
<polygon fill="#ffffff" stroke="transparent" points="379.5,-64.7 379.5,-83.7 403.5,-83.7 403.5,-64.7 379.5,-64.7"/>
<polygon fill="none" stroke="#000000" points="379.5,-64.7 379.5,-83.7 403.5,-83.7 403.5,-64.7 379.5,-64.7"/>
<text text-anchor="start" x="382.5" y="-70.8" font-family="Helvetica,sans-Serif" font-size="11.00" fill="#000000">&lt; 2</text>
<polygon fill="#ffffff" stroke="transparent" points="403.5,-64.7 403.5,-83.7 443.5,-83.7 443.5,-64.7 403.5,-64.7"/>
<polygon fill="none" stroke="#000000" points="403.5,-64.7 403.5,-83.7 443.5,-83.7 443.5,-64.7 403.5,-64.7"/>
<text text-anchor="start" x="408.1105" y="-70.8" font-family="Helvetica,sans-Serif" font-size="11.00" fill="#000000">0 rows</text>
<polygon fill="#ffffff" stroke="transparent" points="443.5,-64.7 443.5,-83.7 466.5,-83.7 466.5,-64.7 443.5,-64.7"/>
<polygon fill="none" stroke="#000000" points="443.5,-64.7 443.5,-83.7 466.5,-83.7 466.5,-64.7 443.5,-64.7"/>
<text text-anchor="start" x="447.9053" y="-70.8" font-family="Helvetica,sans-Serif" font-size="11.00" fill="#000000">1 &gt;</text>
</a>
</g>
</g>
<!-- inventory&#45;&gt;film -->
<g id="edge6" class="edge">
<title>inventory:w&#45;&gt;film:e</title>
<path fill="none" stroke="#000000" d="M364.8208,-95.2194C348.4408,-101.8591 345.328,-120.4442 327,-136.7 308.5341,-153.0782 311.1827,-174.7 286.5,-174.7"/>
<polygon fill="#000000" stroke="#000000" points="371.6153,-94.0533 380.109,-96.2481 375.5576,-93.3767 379.5,-92.7 379.5,-92.7 379.5,-92.7 375.5576,-93.3767 378.891,-89.1519 371.6153,-94.0533 371.6153,-94.0533"/>
<ellipse fill="none" stroke="#000000" cx="368.4614" cy="-94.5946" rx="3.2" ry="3.2"/>
</g>
</g>
</svg>
