<?xml version="1.0" encoding="UTF-8" standalone="no"?>
<!DOCTYPE svg PUBLIC "-//W3C//DTD SVG 1.1//EN"
 "http://www.w3.org/Graphics/SVG/1.1/DTD/svg11.dtd">
<!-- Generated by graphviz version 2.40.1 (20161225.0304)
 -->
<!-- Title: oneDegreeRelationshipsDiagram Pages: 1 -->
<svg width="582pt" height="507pt"
 viewBox="0.00 0.00 582.00 506.70" xmlns="http://www.w3.org/2000/svg" xmlns:xlink="http://www.w3.org/1999/xlink">
<g id="graph0" class="graph" transform="scale(1 1) rotate(0) translate(4 502.7)">
<title>oneDegreeRelationshipsDiagram</title>
<polygon fill="#ffffff" stroke="transparent" points="-4,4 -4,-502.7 578,-502.7 578,4 -4,4"/>
<text text-anchor="middle" x="72.4936" y="-7.3" font-family="Helvetica,sans-Serif" font-size="11.00" fill="#000000">Generated by SchemaSpy</text>
<!-- film -->
<g id="node1" class="node">
<title>film</title>
<g id="a_node1"><a xlink:href="../../tables/film.html" xlink:title="film" target="_top">
<polygon fill="#ffffff" stroke="transparent" points="148,-38.2 148,-370.2 409,-370.2 409,-38.2 148,-38.2"/>
<polygon fill="#f5f5f5" stroke="transparent" points="150.5,-345.2 150.5,-368.2 407.5,-368.2 407.5,-345.2 150.5,-345.2"/>
<polygon fill="none" stroke="#000000" points="150.5,-345.2 150.5,-368.2 407.5,-368.2 407.5,-345.2 150.5,-345.2"/>
<text text-anchor="start" x="155.5" y="-354.3" font-family="Helvetica,sans-Serif" font-weight="bold" font-size="11.00" fill="#000000">film</text>
<text text-anchor="start" x="372.5437" y="-353.3" font-family="Helvetica,sans-Serif" font-size="11.00" fill="#000000">[table]</text>
<polygon fill="none" stroke="#000000" points="150.5,-323.2 150.5,-345.2 273.5,-345.2 273.5,-323.2 150.5,-323.2"/>
<image xlink:href="../../images/primaryKeys.png" width="11px" height="12px" preserveAspectRatio="xMinYMin meet" x="155.5" y="-340.2"/>
<text text-anchor="start" x="170.5" y="-330.3" font-family="Helvetica,sans-Serif" font-size="11.00" fill="#000000">film_id</text>
<polygon fill="none" stroke="#000000" points="273.5,-323.2 273.5,-345.2 407.5,-345.2 407.5,-323.2 273.5,-323.2"/>
<text text-anchor="start" x="276.5" y="-330.9" font-family="Helvetica,sans-Serif" font-size="11.00" fill="#000000">serial[10]</text>
<polygon fill="#ffffff" stroke="transparent" points="150.5,-301.2 150.5,-323.2 273.5,-323.2 273.5,-301.2 150.5,-301.2"/>
<polygon fill="none" stroke="#000000" points="150.5,-301.2 150.5,-323.2 273.5,-323.2 273.5,-301.2 150.5,-301.2"/>
<text text-anchor="start" x="170.5" y="-308.3" font-family="Helvetica,sans-Serif" font-size="11.00" fill="#000000">title</text>
<polygon fill="none" stroke="#000000" points="273.5,-301.2 273.5,-323.2 407.5,-323.2 407.5,-301.2 273.5,-301.2"/>
<text text-anchor="start" x="276.5" y="-308.9" font-family="Helvetica,sans-Serif" font-size="11.00" fill="#000000">varchar[255]</text>
<polygon fill="none" stroke="#000000" points="150.5,-279.2 150.5,-301.2 273.5,-301.2 273.5,-279.2 150.5,-279.2"/>
<text text-anchor="start" x="170.5" y="-286.3" font-family="Helvetica,sans-Serif" font-size="11.00" fill="#000000">description</text>
<polygon fill="none" stroke="#000000" points="273.5,-279.2 273.5,-301.2 407.5,-301.2 407.5,-279.2 273.5,-279.2"/>
<text text-anchor="start" x="276.5" y="-286.9" font-family="Helvetica,sans-Serif" font-size="11.00" fill="#000000">text[2147483647]</text>
<polygon fill="none" stroke="#000000" points="150.5,-257.2 150.5,-279.2 273.5,-279.2 273.5,-257.2 150.5,-257.2"/>
<text text-anchor="start" x="170.5" y="-264.3" font-family="Helvetica,sans-Serif" font-size="11.00" fill="#000000">release_year</text>
<polygon fill="none" stroke="#000000" points="273.5,-257.2 273.5,-279.2 407.5,-279.2 407.5,-257.2 273.5,-257.2"/>
<text text-anchor="start" x="276.5" y="-264.9" font-family="Helvetica,sans-Serif" font-size="11.00" fill="#000000">year[10]</text>
<polygon fill="#ffffff" stroke="transparent" points="150.5,-235.2 150.5,-257.2 273.5,-257.2 273.5,-235.2 150.5,-235.2"/>
<polygon fill="none" stroke="#000000" points="150.5,-235.2 150.5,-257.2 273.5,-257.2 273.5,-235.2 150.5,-235.2"/>
<image xlink:href="../../images/foreignKeys.png" width="11px" height="12px" preserveAspectRatio="xMinYMin meet" x="155.5" y="-252.2"/>
<text text-anchor="start" x="170.5" y="-242.3" font-family="Helvetica,sans-Serif" font-size="11.00" fill="#000000">language_id</text>
<polygon fill="none" stroke="#000000" points="273.5,-235.2 273.5,-257.2 407.5,-257.2 407.5,-235.2 273.5,-235.2"/>
<text text-anchor="start" x="276.5" y="-242.9" font-family="Helvetica,sans-Serif" font-size="11.00" fill="#000000">int2[5]</text>
<polygon fill="none" stroke="#000000" points="150.5,-213.2 150.5,-235.2 273.5,-235.2 273.5,-213.2 150.5,-213.2"/>
<text text-anchor="start" x="170.5" y="-220.3" font-family="Helvetica,sans-Serif" font-size="11.00" fill="#000000">rental_duration</text>
<polygon fill="none" stroke="#000000" points="273.5,-213.2 273.5,-235.2 407.5,-235.2 407.5,-213.2 273.5,-213.2"/>
<text text-anchor="start" x="276.5" y="-220.9" font-family="Helvetica,sans-Serif" font-size="11.00" fill="#000000">int2[5]</text>
<polygon fill="none" stroke="#000000" points="150.5,-191.2 150.5,-213.2 273.5,-213.2 273.5,-191.2 150.5,-191.2"/>
<text text-anchor="start" x="170.5" y="-198.3" font-family="Helvetica,sans-Serif" font-size="11.00" fill="#000000">rental_rate</text>
<polygon fill="none" stroke="#000000" points="273.5,-191.2 273.5,-213.2 407.5,-213.2 407.5,-191.2 273.5,-191.2"/>
<text text-anchor="start" x="276.5" y="-198.9" font-family="Helvetica,sans-Serif" font-size="11.00" fill="#000000">numeric[4,2]</text>
<polygon fill="none" stroke="#000000" points="150.5,-169.2 150.5,-191.2 273.5,-191.2 273.5,-169.2 150.5,-169.2"/>
<text text-anchor="start" x="170.5" y="-176.3" font-family="Helvetica,sans-Serif" font-size="11.00" fill="#000000">length</text>
<polygon fill="none" stroke="#000000" points="273.5,-169.2 273.5,-191.2 407.5,-191.2 407.5,-169.2 273.5,-169.2"/>
<text text-anchor="start" x="276.5" y="-176.9" font-family="Helvetica,sans-Serif" font-size="11.00" fill="#000000">int2[5]</text>
<polygon fill="none" stroke="#000000" points="150.5,-147.2 150.5,-169.2 273.5,-169.2 273.5,-147.2 150.5,-147.2"/>
<text text-anchor="start" x="170.5" y="-154.3" font-family="Helvetica,sans-Serif" font-size="11.00" fill="#000000">replacement_cost</text>
<polygon fill="none" stroke="#000000" points="273.5,-147.2 273.5,-169.2 407.5,-169.2 407.5,-147.2 273.5,-147.2"/>
<text text-anchor="start" x="276.5" y="-154.9" font-family="Helvetica,sans-Serif" font-size="11.00" fill="#000000">numeric[5,2]</text>
<polygon fill="none" stroke="#000000" points="150.5,-125.2 150.5,-147.2 273.5,-147.2 273.5,-125.2 150.5,-125.2"/>
<text text-anchor="start" x="170.5" y="-132.3" font-family="Helvetica,sans-Serif" font-size="11.00" fill="#000000">rating</text>
<polygon fill="none" stroke="#000000" points="273.5,-125.2 273.5,-147.2 407.5,-147.2 407.5,-125.2 273.5,-125.2"/>
<text text-anchor="start" x="276.3057" y="-132.9" font-family="Helvetica,sans-Serif" font-size="11.00" fill="#000000">mpaa_rating[2147483647]</text>
<polygon fill="none" stroke="#000000" points="150.5,-103.2 150.5,-125.2 273.5,-125.2 273.5,-103.2 150.5,-103.2"/>
<text text-anchor="start" x="170.5" y="-110.3" font-family="Helvetica,sans-Serif" font-size="11.00" fill="#000000">last_update</text>
<polygon fill="none" stroke="#000000" points="273.5,-103.2 273.5,-125.2 407.5,-125.2 407.5,-103.2 273.5,-103.2"/>
<text text-anchor="start" x="276.5" y="-110.9" font-family="Helvetica,sans-Serif" font-size="11.00" fill="#000000">timestamp[29,6]</text>
<polygon fill="none" stroke="#000000" points="150.5,-81.2 150.5,-103.2 273.5,-103.2 273.5,-81.2 150.5,-81.2"/>
<text text-anchor="start" x="170.5" y="-88.3" font-family="Helvetica,sans-Serif" font-size="11.00" fill="#000000">special_features</text>
<polygon fill="none" stroke="#000000" points="273.5,-81.2 273.5,-103.2 407.5,-103.2 407.5,-81.2 273.5,-81.2"/>
<text text-anchor="start" x="276.5" y="-88.9" font-family="Helvetica,sans-Serif" font-size="11.00" fill="#000000">_text[2147483647]</text>
<polygon fill="#ffffff" stroke="transparent" points="150.5,-59.2 150.5,-81.2 273.5,-81.2 273.5,-59.2 150.5,-59.2"/>
<polygon fill="none" stroke="#000000" points="150.5,-59.2 150.5,-81.2 273.5,-81.2 273.5,-59.2 150.5,-59.2"/>
<text text-anchor="start" x="170.5" y="-66.3" font-family="Helvetica,sans-Serif" font-size="11.00" fill="#000000">fulltext</text>
<polygon fill="none" stroke="#000000" points="273.5,-59.2 273.5,-81.2 407.5,-81.2 407.5,-59.2 273.5,-59.2"/>
<text text-anchor="start" x="276.5" y="-66.9" font-family="Helvetica,sans-Serif" font-size="11.00" fill="#000000">tsvector[2147483647]</text>
<polygon fill="#ffffff" stroke="transparent" points="150.5,-40.2 150.5,-59.2 203.5,-59.2 203.5,-40.2 150.5,-40.2"/>
<polygon fill="none" stroke="#000000" points="150.5,-40.2 150.5,-59.2 203.5,-59.2 203.5,-40.2 150.5,-40.2"/>
<text text-anchor="start" x="153.5" y="-46.3" font-family="Helvetica,sans-Serif" font-size="11.00" fill="#000000">&lt; 1</text>
<polygon fill="#ffffff" stroke="transparent" points="203.5,-40.2 203.5,-59.2 273.5,-59.2 273.5,-40.2 203.5,-40.2"/>
<polygon fill="none" stroke="#000000" points="203.5,-40.2 203.5,-59.2 273.5,-59.2 273.5,-40.2 203.5,-40.2"/>
<text text-anchor="start" x="238.1105" y="-46.3" font-family="Helvetica,sans-Serif" font-size="11.00" fill="#000000">0 rows</text>
<polygon fill="#ffffff" stroke="transparent" points="273.5,-40.2 273.5,-59.2 407.5,-59.2 407.5,-40.2 273.5,-40.2"/>
<polygon fill="none" stroke="#000000" points="273.5,-40.2 273.5,-59.2 407.5,-59.2 407.5,-40.2 273.5,-40.2"/>
<text text-anchor="start" x="388.9053" y="-46.3" font-family="Helvetica,sans-Serif" font-size="11.00" fill="#000000">3 &gt;</text>
<polygon fill="none" stroke="#000000" stroke-width="2" points="149,-39.2 149,-369.2 408,-369.2 408,-39.2 149,-39.2"/>
</a>
</g>
</g>
<!-- language -->
<g id="node2" class="node">
<title>language</title>
<g id="a_node2"><a xlink:href="../../tables/language.html" xlink:title="language" target="_top">
<polygon fill="#ffffff" stroke="transparent" points="8,-197.7 8,-280.7 99,-280.7 99,-197.7 8,-197.7"/>
<polygon fill="#f5f5f5" stroke="transparent" points="8.5,-257.2 8.5,-280.2 99.5,-280.2 99.5,-257.2 8.5,-257.2"/>
<polygon fill="none" stroke="#000000" points="8.5,-257.2 8.5,-280.2 99.5,-280.2 99.5,-257.2 8.5,-257.2"/>
<text text-anchor="start" x="13.5" y="-266.3" font-family="Helvetica,sans-Serif" font-weight="bold" font-size="11.00" fill="#000000">language</text>
<text text-anchor="start" x="64.5437" y="-265.3" font-family="Helvetica,sans-Serif" font-size="11.00" fill="#000000">[table]</text>
<polygon fill="none" stroke="#000000" points="8.5,-235.2 8.5,-257.2 99.5,-257.2 99.5,-235.2 8.5,-235.2"/>
<image xlink:href="../../images/primaryKeys.png" width="11px" height="12px" preserveAspectRatio="xMinYMin meet" x="13.5" y="-252.2"/>
<text text-anchor="start" x="28.5" y="-242.3" font-family="Helvetica,sans-Serif" font-size="11.00" fill="#000000">language_id</text>
<polygon fill="none" stroke="#000000" points="8.5,-216.2 8.5,-235.2 99.5,-235.2 99.5,-216.2 8.5,-216.2"/>
<text text-anchor="start" x="11.5" y="-222.3" font-family="Helvetica,sans-Serif" font-size="11.00" fill="#000000">...</text>
<polygon fill="#ffffff" stroke="transparent" points="8.5,-197.2 8.5,-216.2 30.5,-216.2 30.5,-197.2 8.5,-197.2"/>
<polygon fill="none" stroke="#000000" points="8.5,-197.2 8.5,-216.2 30.5,-216.2 30.5,-197.2 8.5,-197.2"/>
<text text-anchor="start" x="11.5" y="-203.3" font-family="Helvetica,sans-Serif" font-size="11.00" fill="#000000"> &#160;</text>
<polygon fill="#ffffff" stroke="transparent" points="30.5,-197.2 30.5,-216.2 73.5,-216.2 73.5,-197.2 30.5,-197.2"/>
<polygon fill="none" stroke="#000000" points="30.5,-197.2 30.5,-216.2 73.5,-216.2 73.5,-197.2 30.5,-197.2"/>
<text text-anchor="start" x="38.1105" y="-203.3" font-family="Helvetica,sans-Serif" font-size="11.00" fill="#000000">0 rows</text>
<polygon fill="#ffffff" stroke="transparent" points="73.5,-197.2 73.5,-216.2 99.5,-216.2 99.5,-197.2 73.5,-197.2"/>
<polygon fill="none" stroke="#000000" points="73.5,-197.2 73.5,-216.2 99.5,-216.2 99.5,-197.2 73.5,-197.2"/>
<text text-anchor="start" x="80.9053" y="-203.3" font-family="Helvetica,sans-Serif" font-size="11.00" fill="#000000">1 &gt;</text>
</a>
</g>
</g>
<!-- film&#45;&gt;language -->
<g id="edge1" class="edge">
<title>film:w&#45;&gt;language:e</title>
<path fill="none" stroke="#000000" d="M135.776,-246.2C123.7815,-246.2 116.3229,-246.2 99.5,-246.2"/>
<polygon fill="#000000" stroke="#000000" points="142.5,-246.2001 150.5,-249.8 146.5,-246.2 150.5,-246.2 150.5,-246.2 150.5,-246.2 146.5,-246.2 150.5,-242.6 142.5,-246.2001 142.5,-246.2001"/>
<ellipse fill="none" stroke="#000000" cx="139.3" cy="-246.2001" rx="3.2" ry="3.2"/>
</g>
<!-- film_actor -->
<g id="node3" class="node">
<title>film_actor</title>
<g id="a_node3"><a xlink:href="../../tables/film_actor.html" xlink:title="film_actor" target="_top">
<polygon fill="#ffffff" stroke="transparent" points="467,-389.7 467,-494.7 557,-494.7 557,-389.7 467,-389.7"/>
<polygon fill="#f5f5f5" stroke="transparent" points="467,-471.2 467,-494.2 557,-494.2 557,-471.2 467,-471.2"/>
<polygon fill="none" stroke="#000000" points="467,-471.2 467,-494.2 557,-494.2 557,-471.2 467,-471.2"/>
<text text-anchor="start" x="471.668" y="-480.3" font-family="Helvetica,sans-Serif" font-weight="bold" font-size="11.00" fill="#000000">film_actor</text>
<text text-anchor="start" x="522.5219" y="-479.3" font-family="Helvetica,sans-Serif" font-size="11.00" fill="#000000">[table]</text>
<polygon fill="none" stroke="#000000" points="467,-449.2 467,-471.2 557,-471.2 557,-449.2 467,-449.2"/>
<image xlink:href="../../images/primaryKeys.png" width="11px" height="12px" preserveAspectRatio="xMinYMin meet" x="472" y="-466.2"/>
<text text-anchor="start" x="489" y="-456.3" font-family="Helvetica,sans-Serif" font-size="11.00" fill="#000000">actor_id</text>
<polygon fill="none" stroke="#000000" points="467,-427.2 467,-449.2 557,-449.2 557,-427.2 467,-427.2"/>
<image xlink:href="../../images/primaryKeys.png" width="11px" height="12px" preserveAspectRatio="xMinYMin meet" x="472" y="-444.2"/>
<text text-anchor="start" x="489" y="-434.3" font-family="Helvetica,sans-Serif" font-size="11.00" fill="#000000">film_id</text>
<polygon fill="none" stroke="#000000" points="467,-408.2 467,-427.2 557,-427.2 557,-408.2 467,-408.2"/>
<text text-anchor="start" x="470" y="-414.3" font-family="Helvetica,sans-Serif" font-size="11.00" fill="#000000">...</text>
<polygon fill="#ffffff" stroke="transparent" points="467,-389.2 467,-408.2 497,-408.2 497,-389.2 467,-389.2"/>
<polygon fill="none" stroke="#000000" points="467,-389.2 467,-408.2 497,-408.2 497,-389.2 467,-389.2"/>
<text text-anchor="start" x="470" y="-395.3" font-family="Helvetica,sans-Serif" font-size="11.00" fill="#000000">&lt; 2</text>
<polygon fill="#ffffff" stroke="transparent" points="497,-389.2 497,-408.2 540,-408.2 540,-389.2 497,-389.2"/>
<polygon fill="none" stroke="#000000" points="497,-389.2 497,-408.2 540,-408.2 540,-389.2 497,-389.2"/>
<text text-anchor="start" x="504.6105" y="-395.3" font-family="Helvetica,sans-Serif" font-size="11.00" fill="#000000">0 rows</text>
<polygon fill="#ffffff" stroke="transparent" points="540,-389.2 540,-408.2 557,-408.2 557,-389.2 540,-389.2"/>
<polygon fill="none" stroke="#000000" points="540,-389.2 540,-408.2 557,-408.2 557,-389.2 540,-389.2"/>
<text text-anchor="start" x="547.8862" y="-395.3" font-family="Helvetica,sans-Serif" font-size="11.00" fill="#000000"> &#160;</text>
</a>
</g>
</g>
<!-- film_actor&#45;&gt;film -->
<g id="edge2" class="edge">
<title>film_actor:w&#45;&gt;film:e</title>
<path fill="none" stroke="#000000" d="M452.8623,-434.7397C422.8306,-416.6941 454.9278,-334.2 407.5,-334.2"/>
<polygon fill="#000000" stroke="#000000" points="459.2294,-436.2981 466.1441,-441.6968 463.1147,-437.249 467,-438.2 467,-438.2 467,-438.2 463.1147,-437.249 467.8559,-434.7032 459.2294,-436.2981 459.2294,-436.2981"/>
<ellipse fill="none" stroke="#000000" cx="456.1211" cy="-435.5373" rx="3.2" ry="3.2"/>
</g>
<!-- film_category -->
<g id="node4" class="node">
<title>film_category</title>
<g id="a_node4"><a xlink:href="../../tables/film_category.html" xlink:title="film_category" target="_top">
<polygon fill="#ffffff" stroke="transparent" points="458,-263.7 458,-368.7 566,-368.7 566,-263.7 458,-263.7"/>
<polygon fill="#f5f5f5" stroke="transparent" points="458,-345.2 458,-368.2 566,-368.2 566,-345.2 458,-345.2"/>
<polygon fill="none" stroke="#000000" points="458,-345.2 458,-368.2 566,-368.2 566,-345.2 458,-345.2"/>
<text text-anchor="start" x="462.8031" y="-354.3" font-family="Helvetica,sans-Serif" font-weight="bold" font-size="11.00" fill="#000000">film_category</text>
<text text-anchor="start" x="531.5219" y="-353.3" font-family="Helvetica,sans-Serif" font-size="11.00" fill="#000000">[table]</text>
<polygon fill="none" stroke="#000000" points="458,-323.2 458,-345.2 566,-345.2 566,-323.2 458,-323.2"/>
<image xlink:href="../../images/primaryKeys.png" width="11px" height="12px" preserveAspectRatio="xMinYMin meet" x="463" y="-340.2"/>
<text text-anchor="start" x="483" y="-330.3" font-family="Helvetica,sans-Serif" font-size="11.00" fill="#000000">film_id</text>
<polygon fill="none" stroke="#000000" points="458,-301.2 458,-323.2 566,-323.2 566,-301.2 458,-301.2"/>
<image xlink:href="../../images/primaryKeys.png" width="11px" height="12px" preserveAspectRatio="xMinYMin meet" x="463" y="-318.2"/>
<text text-anchor="start" x="483" y="-308.3" font-family="Helvetica,sans-Serif" font-size="11.00" fill="#000000">category_id</text>
<polygon fill="none" stroke="#000000" points="458,-282.2 458,-301.2 566,-301.2 566,-282.2 458,-282.2"/>
<text text-anchor="start" x="461" y="-288.3" font-family="Helvetica,sans-Serif" font-size="11.00" fill="#000000">...</text>
<polygon fill="#ffffff" stroke="transparent" points="458,-263.2 458,-282.2 497,-282.2 497,-263.2 458,-263.2"/>
<polygon fill="none" stroke="#000000" points="458,-263.2 458,-282.2 497,-282.2 497,-263.2 458,-263.2"/>
<text text-anchor="start" x="461" y="-269.3" font-family="Helvetica,sans-Serif" font-size="11.00" fill="#000000">&lt; 2</text>
<polygon fill="#ffffff" stroke="transparent" points="497,-263.2 497,-282.2 544,-282.2 544,-263.2 497,-263.2"/>
<polygon fill="none" stroke="#000000" points="497,-263.2 497,-282.2 544,-282.2 544,-263.2 497,-263.2"/>
<text text-anchor="start" x="508.6105" y="-269.3" font-family="Helvetica,sans-Serif" font-size="11.00" fill="#000000">0 rows</text>
<polygon fill="#ffffff" stroke="transparent" points="544,-263.2 544,-282.2 566,-282.2 566,-263.2 544,-263.2"/>
<polygon fill="none" stroke="#000000" points="544,-263.2 544,-282.2 566,-282.2 566,-263.2 544,-263.2"/>
<text text-anchor="start" x="556.8862" y="-269.3" font-family="Helvetica,sans-Serif" font-size="11.00" fill="#000000"> &#160;</text>
</a>
</g>
</g>
<!-- film_category&#45;&gt;film -->
<g id="edge3" class="edge">
<title>film_category:w&#45;&gt;film:e</title>
<path fill="none" stroke="#000000" d="M443.4203,-334.2C431.5435,-334.2 424.158,-334.2 407.5,-334.2"/>
<polygon fill="#000000" stroke="#000000" points="450,-334.2001 458,-337.8 454,-334.2 458,-334.2 458,-334.2 458,-334.2 454,-334.2 458,-330.6 450,-334.2001 450,-334.2001"/>
<ellipse fill="none" stroke="#000000" cx="446.8" cy="-334.2001" rx="3.2" ry="3.2"/>
</g>
<!-- inventory -->
<g id="node5" class="node">
<title>inventory</title>
<g id="a_node5"><a xlink:href="../../tables/inventory.html" xlink:title="inventory" target="_top">
<polygon fill="#ffffff" stroke="transparent" points="466,-115.7 466,-242.7 558,-242.7 558,-115.7 466,-115.7"/>
<polygon fill="#f5f5f5" stroke="transparent" points="466,-219.2 466,-242.2 558,-242.2 558,-219.2 466,-219.2"/>
<polygon fill="none" stroke="#000000" points="466,-219.2 466,-242.2 558,-242.2 558,-219.2 466,-219.2"/>
<text text-anchor="start" x="471" y="-228.3" font-family="Helvetica,sans-Serif" font-weight="bold" font-size="11.00" fill="#000000">inventory</text>
<text text-anchor="start" x="523.0437" y="-227.3" font-family="Helvetica,sans-Serif" font-size="11.00" fill="#000000">[table]</text>
<polygon fill="none" stroke="#000000" points="466,-197.2 466,-219.2 558,-219.2 558,-197.2 466,-197.2"/>
<image xlink:href="../../images/primaryKeys.png" width="11px" height="12px" preserveAspectRatio="xMinYMin meet" x="471" y="-214.2"/>
<text text-anchor="start" x="486" y="-204.3" font-family="Helvetica,sans-Serif" font-size="11.00" fill="#000000">inventory_id</text>
<polygon fill="#ffffff" stroke="transparent" points="466,-175.2 466,-197.2 558,-197.2 558,-175.2 466,-175.2"/>
<polygon fill="none" stroke="#000000" points="466,-175.2 466,-197.2 558,-197.2 558,-175.2 466,-175.2"/>
<image xlink:href="../../images/foreignKeys.png" width="11px" height="12px" preserveAspectRatio="xMinYMin meet" x="471" y="-192.2"/>
<text text-anchor="start" x="486" y="-182.3" font-family="Helvetica,sans-Serif" font-size="11.00" fill="#000000">film_id</text>
<polygon fill="#ffffff" stroke="transparent" points="466,-153.2 466,-175.2 558,-175.2 558,-153.2 466,-153.2"/>
<polygon fill="none" stroke="#000000" points="466,-153.2 466,-175.2 558,-175.2 558,-153.2 466,-153.2"/>
<text text-anchor="start" x="486" y="-160.3" font-family="Helvetica,sans-Serif" font-size="11.00" fill="#000000">store_id</text>
<polygon fill="none" stroke="#000000" points="466,-134.2 466,-153.2 558,-153.2 558,-134.2 466,-134.2"/>
<text text-anchor="start" x="469" y="-140.3" font-family="Helvetica,sans-Serif" font-size="11.00" fill="#000000">...</text>
<polygon fill="#ffffff" stroke="transparent" points="466,-115.2 466,-134.2 493,-134.2 493,-115.2 466,-115.2"/>
<polygon fill="none" stroke="#000000" points="466,-115.2 466,-134.2 493,-134.2 493,-115.2 466,-115.2"/>
<text text-anchor="start" x="469" y="-121.3" font-family="Helvetica,sans-Serif" font-size="11.00" fill="#000000">&lt; 1</text>
<polygon fill="#ffffff" stroke="transparent" points="493,-115.2 493,-134.2 534,-134.2 534,-115.2 493,-115.2"/>
<polygon fill="none" stroke="#000000" points="493,-115.2 493,-134.2 534,-134.2 534,-115.2 493,-115.2"/>
<text text-anchor="start" x="498.6105" y="-121.3" font-family="Helvetica,sans-Serif" font-size="11.00" fill="#000000">0 rows</text>
<polygon fill="#ffffff" stroke="transparent" points="534,-115.2 534,-134.2 558,-134.2 558,-115.2 534,-115.2"/>
<polygon fill="none" stroke="#000000" points="534,-115.2 534,-134.2 558,-134.2 558,-115.2 534,-115.2"/>
<text text-anchor="start" x="539.4053" y="-121.3" font-family="Helvetica,sans-Serif" font-size="11.00" fill="#000000">1 &gt;</text>
</a>
</g>
</g>
<!-- inventory&#45;&gt;film -->
<g id="edge4" class="edge">
<title>inventory:w&#45;&gt;film:e</title>
<path fill="none" stroke="#000000" d="M451.807,-188.8952C407.5711,-208.9541 472.566,-334.2 407.5,-334.2"/>
<polygon fill="#000000" stroke="#000000" points="458.1405,-187.6925 466.6716,-189.7368 462.0702,-186.9463 466,-186.2 466,-186.2 466,-186.2 462.0702,-186.9463 465.3284,-182.6632 458.1405,-187.6925 458.1405,-187.6925"/>
<ellipse fill="none" stroke="#000000" cx="454.9966" cy="-188.2895" rx="3.2" ry="3.2"/>
</g>
</g>
</svg>
