<?xml version="1.0" encoding="UTF-8" standalone="no"?>
<!DOCTYPE svg PUBLIC "-//W3C//DTD SVG 1.1//EN"
 "http://www.w3.org/Graphics/SVG/1.1/DTD/svg11.dtd">
<!-- Generated by graphviz version 2.40.1 (20161225.0304)
 -->
<!-- Title: oneDegreeRelationshipsDiagram Pages: 1 -->
<svg width="389pt" height="347pt"
 viewBox="0.00 0.00 389.00 347.20" xmlns="http://www.w3.org/2000/svg" xmlns:xlink="http://www.w3.org/1999/xlink">
<g id="graph0" class="graph" transform="scale(1 1) rotate(0) translate(4 343.2)">
<title>oneDegreeRelationshipsDiagram</title>
<polygon fill="#ffffff" stroke="transparent" points="-4,4 -4,-343.2 385,-343.2 385,4 -4,4"/>
<text text-anchor="middle" x="72.4936" y="-7.3" font-family="Helvetica,sans-Serif" font-size="11.00" fill="#000000">Generated by SchemaSpy</text>
<!-- film_actor -->
<g id="node1" class="node">
<title>film_actor</title>
<g id="a_node1"><a xlink:href="../../tables/film_actor.html" xlink:title="film_actor" target="_top">
<polygon fill="#ffffff" stroke="transparent" points="198,-172.7 198,-284.7 373,-284.7 373,-172.7 198,-172.7"/>
<polygon fill="#f5f5f5" stroke="transparent" points="200.5,-259.7 200.5,-282.7 371.5,-282.7 371.5,-259.7 200.5,-259.7"/>
<polygon fill="none" stroke="#000000" points="200.5,-259.7 200.5,-282.7 371.5,-282.7 371.5,-259.7 200.5,-259.7"/>
<text text-anchor="start" x="205.5" y="-268.8" font-family="Helvetica,sans-Serif" font-weight="bold" font-size="11.00" fill="#000000">film_actor</text>
<text text-anchor="start" x="336.5437" y="-267.8" font-family="Helvetica,sans-Serif" font-size="11.00" fill="#000000">[table]</text>
<polygon fill="none" stroke="#000000" points="200.5,-237.7 200.5,-259.7 287.5,-259.7 287.5,-237.7 200.5,-237.7"/>
<image xlink:href="../../images/primaryKeys.png" width="11px" height="12px" preserveAspectRatio="xMinYMin meet" x="205.5" y="-254.7"/>
<text text-anchor="start" x="220.5" y="-244.8" font-family="Helvetica,sans-Serif" font-size="11.00" fill="#000000">actor_id</text>
<polygon fill="none" stroke="#000000" points="287.5,-237.7 287.5,-259.7 371.5,-259.7 371.5,-237.7 287.5,-237.7"/>
<text text-anchor="start" x="290.5" y="-245.4" font-family="Helvetica,sans-Serif" font-size="11.00" fill="#000000">int2[5]</text>
<polygon fill="none" stroke="#000000" points="200.5,-215.7 200.5,-237.7 287.5,-237.7 287.5,-215.7 200.5,-215.7"/>
<image xlink:href="../../images/primaryKeys.png" width="11px" height="12px" preserveAspectRatio="xMinYMin meet" x="205.5" y="-232.7"/>
<text text-anchor="start" x="220.5" y="-222.8" font-family="Helvetica,sans-Serif" font-size="11.00" fill="#000000">film_id</text>
<polygon fill="none" stroke="#000000" points="287.5,-215.7 287.5,-237.7 371.5,-237.7 371.5,-215.7 287.5,-215.7"/>
<text text-anchor="start" x="290.5" y="-223.4" font-family="Helvetica,sans-Serif" font-size="11.00" fill="#000000">int2[5]</text>
<polygon fill="none" stroke="#000000" points="200.5,-193.7 200.5,-215.7 287.5,-215.7 287.5,-193.7 200.5,-193.7"/>
<text text-anchor="start" x="220.5" y="-200.8" font-family="Helvetica,sans-Serif" font-size="11.00" fill="#000000">last_update</text>
<polygon fill="none" stroke="#000000" points="287.5,-193.7 287.5,-215.7 371.5,-215.7 371.5,-193.7 287.5,-193.7"/>
<text text-anchor="start" x="290.3807" y="-201.4" font-family="Helvetica,sans-Serif" font-size="11.00" fill="#000000">timestamp[29,6]</text>
<polygon fill="#ffffff" stroke="transparent" points="200.5,-174.7 200.5,-193.7 235.5,-193.7 235.5,-174.7 200.5,-174.7"/>
<polygon fill="none" stroke="#000000" points="200.5,-174.7 200.5,-193.7 235.5,-193.7 235.5,-174.7 200.5,-174.7"/>
<text text-anchor="start" x="203.5" y="-180.8" font-family="Helvetica,sans-Serif" font-size="11.00" fill="#000000">&lt; 2</text>
<polygon fill="#ffffff" stroke="transparent" points="235.5,-174.7 235.5,-193.7 287.5,-193.7 287.5,-174.7 235.5,-174.7"/>
<polygon fill="none" stroke="#000000" points="235.5,-174.7 235.5,-193.7 287.5,-193.7 287.5,-174.7 235.5,-174.7"/>
<text text-anchor="start" x="252.1105" y="-180.8" font-family="Helvetica,sans-Serif" font-size="11.00" fill="#000000">0 rows</text>
<polygon fill="#ffffff" stroke="transparent" points="287.5,-174.7 287.5,-193.7 371.5,-193.7 371.5,-174.7 287.5,-174.7"/>
<polygon fill="none" stroke="#000000" points="287.5,-174.7 287.5,-193.7 371.5,-193.7 371.5,-174.7 287.5,-174.7"/>
<text text-anchor="start" x="352.9053" y="-180.8" font-family="Helvetica,sans-Serif" font-size="11.00" fill="#000000">0 &gt;</text>
<polygon fill="none" stroke="#000000" stroke-width="2" points="199,-173.7 199,-283.7 372,-283.7 372,-173.7 199,-173.7"/>
</a>
</g>
</g>
<!-- actor -->
<g id="node2" class="node">
<title>actor</title>
<g id="a_node2"><a xlink:href="../../tables/actor.html" xlink:title="actor" target="_top">
<polygon fill="#ffffff" stroke="transparent" points="35,-230.2 35,-335.2 122,-335.2 122,-230.2 35,-230.2"/>
<polygon fill="#f5f5f5" stroke="transparent" points="35.5,-311.7 35.5,-334.7 122.5,-334.7 122.5,-311.7 35.5,-311.7"/>
<polygon fill="none" stroke="#000000" points="35.5,-311.7 35.5,-334.7 122.5,-334.7 122.5,-311.7 35.5,-311.7"/>
<text text-anchor="start" x="40.5" y="-320.8" font-family="Helvetica,sans-Serif" font-weight="bold" font-size="11.00" fill="#000000">actor</text>
<text text-anchor="start" x="87.5437" y="-319.8" font-family="Helvetica,sans-Serif" font-size="11.00" fill="#000000">[table]</text>
<polygon fill="none" stroke="#000000" points="35.5,-289.7 35.5,-311.7 122.5,-311.7 122.5,-289.7 35.5,-289.7"/>
<image xlink:href="../../images/primaryKeys.png" width="11px" height="12px" preserveAspectRatio="xMinYMin meet" x="40.5" y="-306.7"/>
<text text-anchor="start" x="55.5" y="-296.8" font-family="Helvetica,sans-Serif" font-size="11.00" fill="#000000">actor_id</text>
<polygon fill="#ffffff" stroke="transparent" points="35.5,-267.7 35.5,-289.7 122.5,-289.7 122.5,-267.7 35.5,-267.7"/>
<polygon fill="none" stroke="#000000" points="35.5,-267.7 35.5,-289.7 122.5,-289.7 122.5,-267.7 35.5,-267.7"/>
<text text-anchor="start" x="55.5" y="-274.8" font-family="Helvetica,sans-Serif" font-size="11.00" fill="#000000">last_name</text>
<polygon fill="none" stroke="#000000" points="35.5,-248.7 35.5,-267.7 122.5,-267.7 122.5,-248.7 35.5,-248.7"/>
<text text-anchor="start" x="38.5" y="-254.8" font-family="Helvetica,sans-Serif" font-size="11.00" fill="#000000">...</text>
<polygon fill="#ffffff" stroke="transparent" points="35.5,-229.7 35.5,-248.7 49.5,-248.7 49.5,-229.7 35.5,-229.7"/>
<polygon fill="none" stroke="#000000" points="35.5,-229.7 35.5,-248.7 49.5,-248.7 49.5,-229.7 35.5,-229.7"/>
<text text-anchor="start" x="38.5" y="-235.8" font-family="Helvetica,sans-Serif" font-size="11.00" fill="#000000"> &#160;</text>
<polygon fill="#ffffff" stroke="transparent" points="49.5,-229.7 49.5,-248.7 100.5,-248.7 100.5,-229.7 49.5,-229.7"/>
<polygon fill="none" stroke="#000000" points="49.5,-229.7 49.5,-248.7 100.5,-248.7 100.5,-229.7 49.5,-229.7"/>
<text text-anchor="start" x="52.8807" y="-235.8" font-family="Helvetica,sans-Serif" font-size="11.00" fill="#000000">200 rows</text>
<polygon fill="#ffffff" stroke="transparent" points="100.5,-229.7 100.5,-248.7 122.5,-248.7 122.5,-229.7 100.5,-229.7"/>
<polygon fill="none" stroke="#000000" points="100.5,-229.7 100.5,-248.7 122.5,-248.7 122.5,-229.7 100.5,-229.7"/>
<text text-anchor="start" x="103.9053" y="-235.8" font-family="Helvetica,sans-Serif" font-size="11.00" fill="#000000">1 &gt;</text>
</a>
</g>
</g>
<!-- film_actor&#45;&gt;actor -->
<g id="edge1" class="edge">
<title>film_actor:w&#45;&gt;actor:e</title>
<path fill="none" stroke="#000000" d="M186.166,-251.2081C159.4223,-261.5953 158.6306,-300.7 122.5,-300.7"/>
<polygon fill="#000000" stroke="#000000" points="192.6197,-250.0789 201.1205,-252.2461 196.5599,-249.3894 200.5,-248.7 200.5,-248.7 200.5,-248.7 196.5599,-249.3894 199.8795,-245.1539 192.6197,-250.0789 192.6197,-250.0789"/>
<ellipse fill="none" stroke="#000000" cx="189.4676" cy="-250.6304" rx="3.2" ry="3.2"/>
</g>
<!-- film -->
<g id="node3" class="node">
<title>film</title>
<g id="a_node3"><a xlink:href="../../tables/film.html" xlink:title="film" target="_top">
<polygon fill="#ffffff" stroke="transparent" points="8,-38.2 8,-209.2 149,-209.2 149,-38.2 8,-38.2"/>
<polygon fill="#f5f5f5" stroke="transparent" points="8.5,-185.7 8.5,-208.7 149.5,-208.7 149.5,-185.7 8.5,-185.7"/>
<polygon fill="none" stroke="#000000" points="8.5,-185.7 8.5,-208.7 149.5,-208.7 149.5,-185.7 8.5,-185.7"/>
<text text-anchor="start" x="13.5" y="-194.8" font-family="Helvetica,sans-Serif" font-weight="bold" font-size="11.00" fill="#000000">film</text>
<text text-anchor="start" x="114.5437" y="-193.8" font-family="Helvetica,sans-Serif" font-size="11.00" fill="#000000">[table]</text>
<polygon fill="none" stroke="#000000" points="8.5,-163.7 8.5,-185.7 149.5,-185.7 149.5,-163.7 8.5,-163.7"/>
<image xlink:href="../../images/primaryKeys.png" width="11px" height="12px" preserveAspectRatio="xMinYMin meet" x="13.5" y="-180.7"/>
<text text-anchor="start" x="28.5" y="-170.8" font-family="Helvetica,sans-Serif" font-size="11.00" fill="#000000">film_id</text>
<polygon fill="#ffffff" stroke="transparent" points="8.5,-141.7 8.5,-163.7 149.5,-163.7 149.5,-141.7 8.5,-141.7"/>
<polygon fill="none" stroke="#000000" points="8.5,-141.7 8.5,-163.7 149.5,-163.7 149.5,-141.7 8.5,-141.7"/>
<text text-anchor="start" x="28.5" y="-148.8" font-family="Helvetica,sans-Serif" font-size="11.00" fill="#000000">title</text>
<polygon fill="#ffffff" stroke="transparent" points="8.5,-119.7 8.5,-141.7 149.5,-141.7 149.5,-119.7 8.5,-119.7"/>
<polygon fill="none" stroke="#000000" points="8.5,-119.7 8.5,-141.7 149.5,-141.7 149.5,-119.7 8.5,-119.7"/>
<image xlink:href="../../images/foreignKeys.png" width="11px" height="12px" preserveAspectRatio="xMinYMin meet" x="13.5" y="-136.7"/>
<text text-anchor="start" x="28.5" y="-126.8" font-family="Helvetica,sans-Serif" font-size="11.00" fill="#000000">language_id</text>
<polygon fill="#ffffff" stroke="transparent" points="8.5,-97.7 8.5,-119.7 149.5,-119.7 149.5,-97.7 8.5,-97.7"/>
<polygon fill="none" stroke="#000000" points="8.5,-97.7 8.5,-119.7 149.5,-119.7 149.5,-97.7 8.5,-97.7"/>
<image xlink:href="../../images/foreignKeys.png" width="11px" height="12px" preserveAspectRatio="xMinYMin meet" x="13.5" y="-114.7"/>
<text text-anchor="start" x="28.5" y="-104.8" font-family="Helvetica,sans-Serif" font-size="11.00" fill="#000000">original_language_id</text>
<polygon fill="#ffffff" stroke="transparent" points="8.5,-75.7 8.5,-97.7 149.5,-97.7 149.5,-75.7 8.5,-75.7"/>
<polygon fill="none" stroke="#000000" points="8.5,-75.7 8.5,-97.7 149.5,-97.7 149.5,-75.7 8.5,-75.7"/>
<text text-anchor="start" x="28.5" y="-82.8" font-family="Helvetica,sans-Serif" font-size="11.00" fill="#000000">fulltext</text>
<polygon fill="none" stroke="#000000" points="8.5,-56.7 8.5,-75.7 149.5,-75.7 149.5,-56.7 8.5,-56.7"/>
<text text-anchor="start" x="11.5" y="-62.8" font-family="Helvetica,sans-Serif" font-size="11.00" fill="#000000">...</text>
<polygon fill="#ffffff" stroke="transparent" points="8.5,-37.7 8.5,-56.7 59.5,-56.7 59.5,-37.7 8.5,-37.7"/>
<polygon fill="none" stroke="#000000" points="8.5,-37.7 8.5,-56.7 59.5,-56.7 59.5,-37.7 8.5,-37.7"/>
<text text-anchor="start" x="11.5" y="-43.8" font-family="Helvetica,sans-Serif" font-size="11.00" fill="#000000">&lt; 2</text>
<polygon fill="#ffffff" stroke="transparent" points="59.5,-37.7 59.5,-56.7 112.5,-56.7 112.5,-37.7 59.5,-37.7"/>
<polygon fill="none" stroke="#000000" points="59.5,-37.7 59.5,-56.7 112.5,-56.7 112.5,-37.7 59.5,-37.7"/>
<text text-anchor="start" x="77.1105" y="-43.8" font-family="Helvetica,sans-Serif" font-size="11.00" fill="#000000">0 rows</text>
<polygon fill="#ffffff" stroke="transparent" points="112.5,-37.7 112.5,-56.7 149.5,-56.7 149.5,-37.7 112.5,-37.7"/>
<polygon fill="none" stroke="#000000" points="112.5,-37.7 112.5,-56.7 149.5,-56.7 149.5,-37.7 112.5,-37.7"/>
<text text-anchor="start" x="130.9053" y="-43.8" font-family="Helvetica,sans-Serif" font-size="11.00" fill="#000000">3 &gt;</text>
</a>
</g>
</g>
<!-- film_actor&#45;&gt;film -->
<g id="edge2" class="edge">
<title>film_actor:w&#45;&gt;film:e</title>
<path fill="none" stroke="#000000" d="M186.5468,-221.9012C171.661,-209.0281 175.8017,-174.7 149.5,-174.7"/>
<polygon fill="#000000" stroke="#000000" points="192.9349,-224.0982 199.3292,-230.1043 196.7175,-225.3991 200.5,-226.7 200.5,-226.7 200.5,-226.7 196.7175,-225.3991 201.6708,-223.2957 192.9349,-224.0982 192.9349,-224.0982"/>
<ellipse fill="none" stroke="#000000" cx="189.9089" cy="-223.0574" rx="3.2" ry="3.2"/>
</g>
</g>
</svg>
