<?xml version="1.0" encoding="UTF-8" standalone="no"?>
<!DOCTYPE svg PUBLIC "-//W3C//DTD SVG 1.1//EN"
 "http://www.w3.org/Graphics/SVG/1.1/DTD/svg11.dtd">
<!-- Generated by graphviz version 2.40.1 (20161225.0304)
 -->
<!-- Title: twoDegreesRelationshipsDiagram Pages: 1 -->
<svg width="520pt" height="368pt"
 viewBox="0.00 0.00 520.00 368.20" xmlns="http://www.w3.org/2000/svg" xmlns:xlink="http://www.w3.org/1999/xlink">
<g id="graph0" class="graph" transform="scale(1 1) rotate(0) translate(4 364.2)">
<title>twoDegreesRelationshipsDiagram</title>
<polygon fill="#ffffff" stroke="transparent" points="-4,4 -4,-364.2 516,-364.2 516,4 -4,4"/>
<text text-anchor="middle" x="72.4936" y="-7.3" font-family="Helvetica,sans-Serif" font-size="11.00" fill="#000000">Generated by SchemaSpy</text>
<!-- film -->
<g id="node1" class="node">
<title>film</title>
<g id="a_node1"><a xlink:href="../../tables/film.html" xlink:title="film" target="_top">
<polygon fill="#ffffff" stroke="transparent" points="145,-142.2 145,-291.2 268,-291.2 268,-142.2 145,-142.2"/>
<polygon fill="#f5f5f5" stroke="transparent" points="145.5,-267.7 145.5,-290.7 268.5,-290.7 268.5,-267.7 145.5,-267.7"/>
<polygon fill="none" stroke="#000000" points="145.5,-267.7 145.5,-290.7 268.5,-290.7 268.5,-267.7 145.5,-267.7"/>
<text text-anchor="start" x="150.5" y="-276.8" font-family="Helvetica,sans-Serif" font-weight="bold" font-size="11.00" fill="#000000">film</text>
<text text-anchor="start" x="233.5437" y="-275.8" font-family="Helvetica,sans-Serif" font-size="11.00" fill="#000000">[table]</text>
<polygon fill="none" stroke="#000000" points="145.5,-245.7 145.5,-267.7 268.5,-267.7 268.5,-245.7 145.5,-245.7"/>
<image xlink:href="../../images/primaryKeys.png" width="11px" height="12px" preserveAspectRatio="xMinYMin meet" x="150.5" y="-262.7"/>
<text text-anchor="start" x="165.5" y="-252.8" font-family="Helvetica,sans-Serif" font-size="11.00" fill="#000000">film_id</text>
<polygon fill="#ffffff" stroke="transparent" points="145.5,-223.7 145.5,-245.7 268.5,-245.7 268.5,-223.7 145.5,-223.7"/>
<polygon fill="none" stroke="#000000" points="145.5,-223.7 145.5,-245.7 268.5,-245.7 268.5,-223.7 145.5,-223.7"/>
<text text-anchor="start" x="165.5" y="-230.8" font-family="Helvetica,sans-Serif" font-size="11.00" fill="#000000">title</text>
<polygon fill="#ffffff" stroke="transparent" points="145.5,-201.7 145.5,-223.7 268.5,-223.7 268.5,-201.7 145.5,-201.7"/>
<polygon fill="none" stroke="#000000" points="145.5,-201.7 145.5,-223.7 268.5,-223.7 268.5,-201.7 145.5,-201.7"/>
<image xlink:href="../../images/foreignKeys.png" width="11px" height="12px" preserveAspectRatio="xMinYMin meet" x="150.5" y="-218.7"/>
<text text-anchor="start" x="165.5" y="-208.8" font-family="Helvetica,sans-Serif" font-size="11.00" fill="#000000">language_id</text>
<polygon fill="#ffffff" stroke="transparent" points="145.5,-179.7 145.5,-201.7 268.5,-201.7 268.5,-179.7 145.5,-179.7"/>
<polygon fill="none" stroke="#000000" points="145.5,-179.7 145.5,-201.7 268.5,-201.7 268.5,-179.7 145.5,-179.7"/>
<text text-anchor="start" x="165.5" y="-186.8" font-family="Helvetica,sans-Serif" font-size="11.00" fill="#000000">fulltext</text>
<polygon fill="none" stroke="#000000" points="145.5,-160.7 145.5,-179.7 268.5,-179.7 268.5,-160.7 145.5,-160.7"/>
<text text-anchor="start" x="148.5" y="-166.8" font-family="Helvetica,sans-Serif" font-size="11.00" fill="#000000">...</text>
<polygon fill="#ffffff" stroke="transparent" points="145.5,-141.7 145.5,-160.7 187.5,-160.7 187.5,-141.7 145.5,-141.7"/>
<polygon fill="none" stroke="#000000" points="145.5,-141.7 145.5,-160.7 187.5,-160.7 187.5,-141.7 145.5,-141.7"/>
<text text-anchor="start" x="148.5" y="-147.8" font-family="Helvetica,sans-Serif" font-size="11.00" fill="#000000">&lt; 1</text>
<polygon fill="#ffffff" stroke="transparent" points="187.5,-141.7 187.5,-160.7 236.5,-160.7 236.5,-141.7 187.5,-141.7"/>
<polygon fill="none" stroke="#000000" points="187.5,-141.7 187.5,-160.7 236.5,-160.7 236.5,-141.7 187.5,-141.7"/>
<text text-anchor="start" x="201.1105" y="-147.8" font-family="Helvetica,sans-Serif" font-size="11.00" fill="#000000">0 rows</text>
<polygon fill="#ffffff" stroke="transparent" points="236.5,-141.7 236.5,-160.7 268.5,-160.7 268.5,-141.7 236.5,-141.7"/>
<polygon fill="none" stroke="#000000" points="236.5,-141.7 236.5,-160.7 268.5,-160.7 268.5,-141.7 236.5,-141.7"/>
<text text-anchor="start" x="249.9053" y="-147.8" font-family="Helvetica,sans-Serif" font-size="11.00" fill="#000000">3 &gt;</text>
</a>
</g>
</g>
<!-- language -->
<g id="node2" class="node">
<title>language</title>
<g id="a_node2"><a xlink:href="../../tables/language.html" xlink:title="language" target="_top">
<polygon fill="#ffffff" stroke="transparent" points="8,-185.2 8,-246.2 96,-246.2 96,-185.2 8,-185.2"/>
<polygon fill="#f5f5f5" stroke="transparent" points="8,-222.7 8,-245.7 96,-245.7 96,-222.7 8,-222.7"/>
<polygon fill="none" stroke="#000000" points="8,-222.7 8,-245.7 96,-245.7 96,-222.7 8,-222.7"/>
<text text-anchor="start" x="12.8774" y="-231.8" font-family="Helvetica,sans-Serif" font-weight="bold" font-size="11.00" fill="#000000">language</text>
<text text-anchor="start" x="61.5219" y="-230.8" font-family="Helvetica,sans-Serif" font-size="11.00" fill="#000000">[table]</text>
<polygon fill="none" stroke="#000000" points="8,-203.7 8,-222.7 96,-222.7 96,-203.7 8,-203.7"/>
<text text-anchor="start" x="11" y="-209.8" font-family="Helvetica,sans-Serif" font-size="11.00" fill="#000000">...</text>
<polygon fill="#ffffff" stroke="transparent" points="8,-184.7 8,-203.7 28,-203.7 28,-184.7 8,-184.7"/>
<polygon fill="none" stroke="#000000" points="8,-184.7 8,-203.7 28,-203.7 28,-184.7 8,-184.7"/>
<text text-anchor="start" x="11" y="-190.8" font-family="Helvetica,sans-Serif" font-size="11.00" fill="#000000"> &#160;</text>
<polygon fill="#ffffff" stroke="transparent" points="28,-184.7 28,-203.7 70,-203.7 70,-184.7 28,-184.7"/>
<polygon fill="none" stroke="#000000" points="28,-184.7 28,-203.7 70,-203.7 70,-184.7 28,-184.7"/>
<text text-anchor="start" x="34.6105" y="-190.8" font-family="Helvetica,sans-Serif" font-size="11.00" fill="#000000">0 rows</text>
<polygon fill="#ffffff" stroke="transparent" points="70,-184.7 70,-203.7 96,-203.7 96,-184.7 70,-184.7"/>
<polygon fill="none" stroke="#000000" points="70,-184.7 70,-203.7 96,-203.7 96,-184.7 70,-184.7"/>
<text text-anchor="start" x="77.4053" y="-190.8" font-family="Helvetica,sans-Serif" font-size="11.00" fill="#000000">1 &gt;</text>
</a>
</g>
</g>
<!-- film&#45;&gt;language -->
<g id="edge1" class="edge">
<title>film:w&#45;&gt;language:e</title>
<path fill="none" stroke="#000000" d="M130.8428,-212.7C119.4139,-212.7 112.1563,-212.7 96,-212.7"/>
<polygon fill="#000000" stroke="#000000" points="137.5,-212.7001 145.5,-216.3 141.5,-212.7 145.5,-212.7 145.5,-212.7 145.5,-212.7 141.5,-212.7 145.5,-209.1 137.5,-212.7001 137.5,-212.7001"/>
<ellipse fill="none" stroke="#000000" cx="134.3" cy="-212.7001" rx="3.2" ry="3.2"/>
</g>
<!-- film_actor -->
<g id="node3" class="node">
<title>film_actor</title>
<g id="a_node3"><a xlink:href="../../tables/film_actor.html" xlink:title="film_actor" target="_top">
<polygon fill="#ffffff" stroke="transparent" points="365.5,-295.2 365.5,-356.2 455.5,-356.2 455.5,-295.2 365.5,-295.2"/>
<polygon fill="#f5f5f5" stroke="transparent" points="365.5,-332.7 365.5,-355.7 455.5,-355.7 455.5,-332.7 365.5,-332.7"/>
<polygon fill="none" stroke="#000000" points="365.5,-332.7 365.5,-355.7 455.5,-355.7 455.5,-332.7 365.5,-332.7"/>
<text text-anchor="start" x="370.168" y="-341.8" font-family="Helvetica,sans-Serif" font-weight="bold" font-size="11.00" fill="#000000">film_actor</text>
<text text-anchor="start" x="421.0219" y="-340.8" font-family="Helvetica,sans-Serif" font-size="11.00" fill="#000000">[table]</text>
<polygon fill="none" stroke="#000000" points="365.5,-313.7 365.5,-332.7 455.5,-332.7 455.5,-313.7 365.5,-313.7"/>
<text text-anchor="start" x="368.5" y="-319.8" font-family="Helvetica,sans-Serif" font-size="11.00" fill="#000000">...</text>
<polygon fill="#ffffff" stroke="transparent" points="365.5,-294.7 365.5,-313.7 395.5,-313.7 395.5,-294.7 365.5,-294.7"/>
<polygon fill="none" stroke="#000000" points="365.5,-294.7 365.5,-313.7 395.5,-313.7 395.5,-294.7 365.5,-294.7"/>
<text text-anchor="start" x="368.5" y="-300.8" font-family="Helvetica,sans-Serif" font-size="11.00" fill="#000000">&lt; 2</text>
<polygon fill="#ffffff" stroke="transparent" points="395.5,-294.7 395.5,-313.7 438.5,-313.7 438.5,-294.7 395.5,-294.7"/>
<polygon fill="none" stroke="#000000" points="395.5,-294.7 395.5,-313.7 438.5,-313.7 438.5,-294.7 395.5,-294.7"/>
<text text-anchor="start" x="403.1105" y="-300.8" font-family="Helvetica,sans-Serif" font-size="11.00" fill="#000000">0 rows</text>
<polygon fill="#ffffff" stroke="transparent" points="438.5,-294.7 438.5,-313.7 455.5,-313.7 455.5,-294.7 438.5,-294.7"/>
<polygon fill="none" stroke="#000000" points="438.5,-294.7 438.5,-313.7 455.5,-313.7 455.5,-294.7 438.5,-294.7"/>
<text text-anchor="start" x="446.3862" y="-300.8" font-family="Helvetica,sans-Serif" font-size="11.00" fill="#000000"> &#160;</text>
</a>
</g>
</g>
<!-- film_actor&#45;&gt;film -->
<g id="edge2" class="edge">
<title>film_actor:w&#45;&gt;film:e</title>
<path fill="none" stroke="#000000" d="M351.1909,-320.6542C333.9389,-314.9807 329.3144,-298.5528 309,-284.7 290.9206,-272.3712 290.383,-256.7 268.5,-256.7"/>
<polygon fill="#000000" stroke="#000000" points="357.5805,-321.5677 364.9905,-326.2638 361.5403,-322.1338 365.5,-322.7 365.5,-322.7 365.5,-322.7 361.5403,-322.1338 366.0095,-319.1362 357.5805,-321.5677 357.5805,-321.5677"/>
<ellipse fill="none" stroke="#000000" cx="354.4127" cy="-321.1148" rx="3.2" ry="3.2"/>
</g>
<!-- film_category -->
<g id="node4" class="node">
<title>film_category</title>
<g id="a_node4"><a xlink:href="../../tables/film_category.html" xlink:title="film_category" target="_top">
<polygon fill="#ffffff" stroke="transparent" points="317,-48.7 317,-160.7 504,-160.7 504,-48.7 317,-48.7"/>
<polygon fill="#f5f5f5" stroke="transparent" points="319.5,-135.7 319.5,-158.7 502.5,-158.7 502.5,-135.7 319.5,-135.7"/>
<polygon fill="none" stroke="#000000" points="319.5,-135.7 319.5,-158.7 502.5,-158.7 502.5,-135.7 319.5,-135.7"/>
<text text-anchor="start" x="324.5" y="-144.8" font-family="Helvetica,sans-Serif" font-weight="bold" font-size="11.00" fill="#000000">film_category</text>
<text text-anchor="start" x="467.5437" y="-143.8" font-family="Helvetica,sans-Serif" font-size="11.00" fill="#000000">[table]</text>
<polygon fill="none" stroke="#000000" points="319.5,-113.7 319.5,-135.7 418.5,-135.7 418.5,-113.7 319.5,-113.7"/>
<image xlink:href="../../images/primaryKeys.png" width="11px" height="12px" preserveAspectRatio="xMinYMin meet" x="324.5" y="-130.7"/>
<text text-anchor="start" x="339.5" y="-120.8" font-family="Helvetica,sans-Serif" font-size="11.00" fill="#000000">film_id</text>
<polygon fill="none" stroke="#000000" points="418.5,-113.7 418.5,-135.7 502.5,-135.7 502.5,-113.7 418.5,-113.7"/>
<text text-anchor="start" x="421.5" y="-121.4" font-family="Helvetica,sans-Serif" font-size="11.00" fill="#000000">int2[5]</text>
<polygon fill="none" stroke="#000000" points="319.5,-91.7 319.5,-113.7 418.5,-113.7 418.5,-91.7 319.5,-91.7"/>
<image xlink:href="../../images/primaryKeys.png" width="11px" height="12px" preserveAspectRatio="xMinYMin meet" x="324.5" y="-108.7"/>
<text text-anchor="start" x="339.5" y="-98.8" font-family="Helvetica,sans-Serif" font-size="11.00" fill="#000000">category_id</text>
<polygon fill="none" stroke="#000000" points="418.5,-91.7 418.5,-113.7 502.5,-113.7 502.5,-91.7 418.5,-91.7"/>
<text text-anchor="start" x="421.5" y="-99.4" font-family="Helvetica,sans-Serif" font-size="11.00" fill="#000000">int2[5]</text>
<polygon fill="none" stroke="#000000" points="319.5,-69.7 319.5,-91.7 418.5,-91.7 418.5,-69.7 319.5,-69.7"/>
<text text-anchor="start" x="339.5" y="-76.8" font-family="Helvetica,sans-Serif" font-size="11.00" fill="#000000">last_update</text>
<polygon fill="none" stroke="#000000" points="418.5,-69.7 418.5,-91.7 502.5,-91.7 502.5,-69.7 418.5,-69.7"/>
<text text-anchor="start" x="421.3807" y="-77.4" font-family="Helvetica,sans-Serif" font-size="11.00" fill="#000000">timestamp[29,6]</text>
<polygon fill="#ffffff" stroke="transparent" points="319.5,-50.7 319.5,-69.7 360.5,-69.7 360.5,-50.7 319.5,-50.7"/>
<polygon fill="none" stroke="#000000" points="319.5,-50.7 319.5,-69.7 360.5,-69.7 360.5,-50.7 319.5,-50.7"/>
<text text-anchor="start" x="322.5" y="-56.8" font-family="Helvetica,sans-Serif" font-size="11.00" fill="#000000">&lt; 2</text>
<polygon fill="#ffffff" stroke="transparent" points="360.5,-50.7 360.5,-69.7 418.5,-69.7 418.5,-50.7 360.5,-50.7"/>
<polygon fill="none" stroke="#000000" points="360.5,-50.7 360.5,-69.7 418.5,-69.7 418.5,-50.7 360.5,-50.7"/>
<text text-anchor="start" x="383.1105" y="-56.8" font-family="Helvetica,sans-Serif" font-size="11.00" fill="#000000">0 rows</text>
<polygon fill="#ffffff" stroke="transparent" points="418.5,-50.7 418.5,-69.7 502.5,-69.7 502.5,-50.7 418.5,-50.7"/>
<polygon fill="none" stroke="#000000" points="418.5,-50.7 418.5,-69.7 502.5,-69.7 502.5,-50.7 418.5,-50.7"/>
<text text-anchor="start" x="483.9053" y="-56.8" font-family="Helvetica,sans-Serif" font-size="11.00" fill="#000000">0 &gt;</text>
<polygon fill="none" stroke="#000000" stroke-width="2" points="318,-49.7 318,-159.7 503,-159.7 503,-49.7 318,-49.7"/>
</a>
</g>
</g>
<!-- film_category&#45;&gt;film -->
<g id="edge4" class="edge">
<title>film_category:w&#45;&gt;film:e</title>
<path fill="none" stroke="#000000" d="M305.2146,-127.9629C269.4192,-148.2898 325.497,-256.7 268.5,-256.7"/>
<polygon fill="#000000" stroke="#000000" points="311.7009,-126.4815 320.3017,-128.2096 315.6004,-125.5907 319.5,-124.7 319.5,-124.7 319.5,-124.7 315.6004,-125.5907 318.6983,-121.1904 311.7009,-126.4815 311.7009,-126.4815"/>
<ellipse fill="none" stroke="#000000" cx="308.5812" cy="-127.194" rx="3.2" ry="3.2"/>
</g>
<!-- category -->
<g id="node5" class="node">
<title>category</title>
<g id="a_node5"><a xlink:href="../../tables/category.html" xlink:title="category" target="_top">
<polygon fill="#ffffff" stroke="transparent" points="162.5,-38.2 162.5,-121.2 250.5,-121.2 250.5,-38.2 162.5,-38.2"/>
<polygon fill="#f5f5f5" stroke="transparent" points="162.5,-97.7 162.5,-120.7 250.5,-120.7 250.5,-97.7 162.5,-97.7"/>
<polygon fill="none" stroke="#000000" points="162.5,-97.7 162.5,-120.7 250.5,-120.7 250.5,-97.7 162.5,-97.7"/>
<text text-anchor="start" x="167.5" y="-106.8" font-family="Helvetica,sans-Serif" font-weight="bold" font-size="11.00" fill="#000000">category</text>
<text text-anchor="start" x="215.5437" y="-105.8" font-family="Helvetica,sans-Serif" font-size="11.00" fill="#000000">[table]</text>
<polygon fill="none" stroke="#000000" points="162.5,-75.7 162.5,-97.7 250.5,-97.7 250.5,-75.7 162.5,-75.7"/>
<image xlink:href="../../images/primaryKeys.png" width="11px" height="12px" preserveAspectRatio="xMinYMin meet" x="167.5" y="-92.7"/>
<text text-anchor="start" x="182.5" y="-82.8" font-family="Helvetica,sans-Serif" font-size="11.00" fill="#000000">category_id</text>
<polygon fill="none" stroke="#000000" points="162.5,-56.7 162.5,-75.7 250.5,-75.7 250.5,-56.7 162.5,-56.7"/>
<text text-anchor="start" x="165.5" y="-62.8" font-family="Helvetica,sans-Serif" font-size="11.00" fill="#000000">...</text>
<polygon fill="#ffffff" stroke="transparent" points="162.5,-37.7 162.5,-56.7 182.5,-56.7 182.5,-37.7 162.5,-37.7"/>
<polygon fill="none" stroke="#000000" points="162.5,-37.7 162.5,-56.7 182.5,-56.7 182.5,-37.7 162.5,-37.7"/>
<text text-anchor="start" x="165.5" y="-43.8" font-family="Helvetica,sans-Serif" font-size="11.00" fill="#000000"> &#160;</text>
<polygon fill="#ffffff" stroke="transparent" points="182.5,-37.7 182.5,-56.7 224.5,-56.7 224.5,-37.7 182.5,-37.7"/>
<polygon fill="none" stroke="#000000" points="182.5,-37.7 182.5,-56.7 224.5,-56.7 224.5,-37.7 182.5,-37.7"/>
<text text-anchor="start" x="189.1105" y="-43.8" font-family="Helvetica,sans-Serif" font-size="11.00" fill="#000000">0 rows</text>
<polygon fill="#ffffff" stroke="transparent" points="224.5,-37.7 224.5,-56.7 250.5,-56.7 250.5,-37.7 224.5,-37.7"/>
<polygon fill="none" stroke="#000000" points="224.5,-37.7 224.5,-56.7 250.5,-56.7 250.5,-37.7 224.5,-37.7"/>
<text text-anchor="start" x="231.9053" y="-43.8" font-family="Helvetica,sans-Serif" font-size="11.00" fill="#000000">1 &gt;</text>
</a>
</g>
</g>
<!-- film_category&#45;&gt;category -->
<g id="edge3" class="edge">
<title>film_category:w&#45;&gt;category:e</title>
<path fill="none" stroke="#000000" d="M304.981,-101.3907C285.1104,-97.5694 276.4467,-86.7 250.5,-86.7"/>
<polygon fill="#000000" stroke="#000000" points="311.5323,-101.9814 319.1766,-106.2854 315.5162,-102.3407 319.5,-102.7 319.5,-102.7 319.5,-102.7 315.5162,-102.3407 319.8234,-99.1146 311.5323,-101.9814 311.5323,-101.9814"/>
<ellipse fill="none" stroke="#000000" cx="308.3453" cy="-101.694" rx="3.2" ry="3.2"/>
</g>
<!-- inventory -->
<g id="node6" class="node">
<title>inventory</title>
<g id="a_node6"><a xlink:href="../../tables/inventory.html" xlink:title="inventory" target="_top">
<polygon fill="#ffffff" stroke="transparent" points="367,-213.2 367,-274.2 454,-274.2 454,-213.2 367,-213.2"/>
<polygon fill="#f5f5f5" stroke="transparent" points="367.5,-250.7 367.5,-273.7 454.5,-273.7 454.5,-250.7 367.5,-250.7"/>
<polygon fill="none" stroke="#000000" points="367.5,-250.7 367.5,-273.7 454.5,-273.7 454.5,-250.7 367.5,-250.7"/>
<text text-anchor="start" x="372.1904" y="-259.8" font-family="Helvetica,sans-Serif" font-weight="bold" font-size="11.00" fill="#000000">inventory</text>
<text text-anchor="start" x="420.0219" y="-258.8" font-family="Helvetica,sans-Serif" font-size="11.00" fill="#000000">[table]</text>
<polygon fill="none" stroke="#000000" points="367.5,-231.7 367.5,-250.7 454.5,-250.7 454.5,-231.7 367.5,-231.7"/>
<text text-anchor="start" x="370.5" y="-237.8" font-family="Helvetica,sans-Serif" font-size="11.00" fill="#000000">...</text>
<polygon fill="#ffffff" stroke="transparent" points="367.5,-212.7 367.5,-231.7 391.5,-231.7 391.5,-212.7 367.5,-212.7"/>
<polygon fill="none" stroke="#000000" points="367.5,-212.7 367.5,-231.7 391.5,-231.7 391.5,-212.7 367.5,-212.7"/>
<text text-anchor="start" x="370.5" y="-218.8" font-family="Helvetica,sans-Serif" font-size="11.00" fill="#000000">&lt; 1</text>
<polygon fill="#ffffff" stroke="transparent" points="391.5,-212.7 391.5,-231.7 431.5,-231.7 431.5,-212.7 391.5,-212.7"/>
<polygon fill="none" stroke="#000000" points="391.5,-212.7 391.5,-231.7 431.5,-231.7 431.5,-212.7 391.5,-212.7"/>
<text text-anchor="start" x="396.1105" y="-218.8" font-family="Helvetica,sans-Serif" font-size="11.00" fill="#000000">0 rows</text>
<polygon fill="#ffffff" stroke="transparent" points="431.5,-212.7 431.5,-231.7 454.5,-231.7 454.5,-212.7 431.5,-212.7"/>
<polygon fill="none" stroke="#000000" points="431.5,-212.7 431.5,-231.7 454.5,-231.7 454.5,-212.7 431.5,-212.7"/>
<text text-anchor="start" x="435.9053" y="-218.8" font-family="Helvetica,sans-Serif" font-size="11.00" fill="#000000">1 &gt;</text>
</a>
</g>
</g>
<!-- inventory&#45;&gt;film -->
<g id="edge5" class="edge">
<title>inventory:w&#45;&gt;film:e</title>
<path fill="none" stroke="#000000" d="M352.712,-241.347C320.0325,-244.3404 307.6737,-256.7 268.5,-256.7"/>
<polygon fill="#000000" stroke="#000000" points="359.5076,-241.0497 367.6574,-244.2966 363.5038,-240.8749 367.5,-240.7 367.5,-240.7 367.5,-240.7 363.5038,-240.8749 367.3426,-237.1034 359.5076,-241.0497 359.5076,-241.0497"/>
<ellipse fill="none" stroke="#000000" cx="356.3107" cy="-241.1896" rx="3.2" ry="3.2"/>
</g>
</g>
</svg>
