<?xml version="1.0" encoding="UTF-8" standalone="no"?>
<!DOCTYPE svg PUBLIC "-//W3C//DTD SVG 1.1//EN"
 "http://www.w3.org/Graphics/SVG/1.1/DTD/svg11.dtd">
<!-- Generated by graphviz version 2.40.1 (20161225.0304)
 -->
<!-- Title: twoDegreesRelationshipsDiagram Pages: 1 -->
<svg width="711pt" height="579pt"
 viewBox="0.00 0.00 711.00 579.20" xmlns="http://www.w3.org/2000/svg" xmlns:xlink="http://www.w3.org/1999/xlink">
<g id="graph0" class="graph" transform="scale(1 1) rotate(0) translate(4 575.2)">
<title>twoDegreesRelationshipsDiagram</title>
<polygon fill="#ffffff" stroke="transparent" points="-4,4 -4,-575.2 707,-575.2 707,4 -4,4"/>
<text text-anchor="middle" x="72.4936" y="-7.3" font-family="Helvetica,sans-Serif" font-size="11.00" fill="#000000">Generated by SchemaSpy</text>
<!-- film -->
<g id="node1" class="node">
<title>film</title>
<g id="a_node1"><a xlink:href="../../tables/film.html" xlink:title="film" target="_top">
<polygon fill="#ffffff" stroke="transparent" points="148,-120.7 148,-452.7 409,-452.7 409,-120.7 148,-120.7"/>
<polygon fill="#f5f5f5" stroke="transparent" points="150.5,-427.7 150.5,-450.7 407.5,-450.7 407.5,-427.7 150.5,-427.7"/>
<polygon fill="none" stroke="#000000" points="150.5,-427.7 150.5,-450.7 407.5,-450.7 407.5,-427.7 150.5,-427.7"/>
<text text-anchor="start" x="155.5" y="-436.8" font-family="Helvetica,sans-Serif" font-weight="bold" font-size="11.00" fill="#000000">film</text>
<text text-anchor="start" x="372.5437" y="-435.8" font-family="Helvetica,sans-Serif" font-size="11.00" fill="#000000">[table]</text>
<polygon fill="none" stroke="#000000" points="150.5,-405.7 150.5,-427.7 273.5,-427.7 273.5,-405.7 150.5,-405.7"/>
<image xlink:href="../../images/primaryKeys.png" width="11px" height="12px" preserveAspectRatio="xMinYMin meet" x="155.5" y="-422.7"/>
<text text-anchor="start" x="170.5" y="-412.8" font-family="Helvetica,sans-Serif" font-size="11.00" fill="#000000">film_id</text>
<polygon fill="none" stroke="#000000" points="273.5,-405.7 273.5,-427.7 407.5,-427.7 407.5,-405.7 273.5,-405.7"/>
<text text-anchor="start" x="276.5" y="-413.4" font-family="Helvetica,sans-Serif" font-size="11.00" fill="#000000">serial[10]</text>
<polygon fill="#ffffff" stroke="transparent" points="150.5,-383.7 150.5,-405.7 273.5,-405.7 273.5,-383.7 150.5,-383.7"/>
<polygon fill="none" stroke="#000000" points="150.5,-383.7 150.5,-405.7 273.5,-405.7 273.5,-383.7 150.5,-383.7"/>
<text text-anchor="start" x="170.5" y="-390.8" font-family="Helvetica,sans-Serif" font-size="11.00" fill="#000000">title</text>
<polygon fill="none" stroke="#000000" points="273.5,-383.7 273.5,-405.7 407.5,-405.7 407.5,-383.7 273.5,-383.7"/>
<text text-anchor="start" x="276.5" y="-391.4" font-family="Helvetica,sans-Serif" font-size="11.00" fill="#000000">varchar[255]</text>
<polygon fill="none" stroke="#000000" points="150.5,-361.7 150.5,-383.7 273.5,-383.7 273.5,-361.7 150.5,-361.7"/>
<text text-anchor="start" x="170.5" y="-368.8" font-family="Helvetica,sans-Serif" font-size="11.00" fill="#000000">description</text>
<polygon fill="none" stroke="#000000" points="273.5,-361.7 273.5,-383.7 407.5,-383.7 407.5,-361.7 273.5,-361.7"/>
<text text-anchor="start" x="276.5" y="-369.4" font-family="Helvetica,sans-Serif" font-size="11.00" fill="#000000">text[2147483647]</text>
<polygon fill="none" stroke="#000000" points="150.5,-339.7 150.5,-361.7 273.5,-361.7 273.5,-339.7 150.5,-339.7"/>
<text text-anchor="start" x="170.5" y="-346.8" font-family="Helvetica,sans-Serif" font-size="11.00" fill="#000000">release_year</text>
<polygon fill="none" stroke="#000000" points="273.5,-339.7 273.5,-361.7 407.5,-361.7 407.5,-339.7 273.5,-339.7"/>
<text text-anchor="start" x="276.5" y="-347.4" font-family="Helvetica,sans-Serif" font-size="11.00" fill="#000000">year[10]</text>
<polygon fill="#ffffff" stroke="transparent" points="150.5,-317.7 150.5,-339.7 273.5,-339.7 273.5,-317.7 150.5,-317.7"/>
<polygon fill="none" stroke="#000000" points="150.5,-317.7 150.5,-339.7 273.5,-339.7 273.5,-317.7 150.5,-317.7"/>
<image xlink:href="../../images/foreignKeys.png" width="11px" height="12px" preserveAspectRatio="xMinYMin meet" x="155.5" y="-334.7"/>
<text text-anchor="start" x="170.5" y="-324.8" font-family="Helvetica,sans-Serif" font-size="11.00" fill="#000000">language_id</text>
<polygon fill="none" stroke="#000000" points="273.5,-317.7 273.5,-339.7 407.5,-339.7 407.5,-317.7 273.5,-317.7"/>
<text text-anchor="start" x="276.5" y="-325.4" font-family="Helvetica,sans-Serif" font-size="11.00" fill="#000000">int2[5]</text>
<polygon fill="none" stroke="#000000" points="150.5,-295.7 150.5,-317.7 273.5,-317.7 273.5,-295.7 150.5,-295.7"/>
<text text-anchor="start" x="170.5" y="-302.8" font-family="Helvetica,sans-Serif" font-size="11.00" fill="#000000">rental_duration</text>
<polygon fill="none" stroke="#000000" points="273.5,-295.7 273.5,-317.7 407.5,-317.7 407.5,-295.7 273.5,-295.7"/>
<text text-anchor="start" x="276.5" y="-303.4" font-family="Helvetica,sans-Serif" font-size="11.00" fill="#000000">int2[5]</text>
<polygon fill="none" stroke="#000000" points="150.5,-273.7 150.5,-295.7 273.5,-295.7 273.5,-273.7 150.5,-273.7"/>
<text text-anchor="start" x="170.5" y="-280.8" font-family="Helvetica,sans-Serif" font-size="11.00" fill="#000000">rental_rate</text>
<polygon fill="none" stroke="#000000" points="273.5,-273.7 273.5,-295.7 407.5,-295.7 407.5,-273.7 273.5,-273.7"/>
<text text-anchor="start" x="276.5" y="-281.4" font-family="Helvetica,sans-Serif" font-size="11.00" fill="#000000">numeric[4,2]</text>
<polygon fill="none" stroke="#000000" points="150.5,-251.7 150.5,-273.7 273.5,-273.7 273.5,-251.7 150.5,-251.7"/>
<text text-anchor="start" x="170.5" y="-258.8" font-family="Helvetica,sans-Serif" font-size="11.00" fill="#000000">length</text>
<polygon fill="none" stroke="#000000" points="273.5,-251.7 273.5,-273.7 407.5,-273.7 407.5,-251.7 273.5,-251.7"/>
<text text-anchor="start" x="276.5" y="-259.4" font-family="Helvetica,sans-Serif" font-size="11.00" fill="#000000">int2[5]</text>
<polygon fill="none" stroke="#000000" points="150.5,-229.7 150.5,-251.7 273.5,-251.7 273.5,-229.7 150.5,-229.7"/>
<text text-anchor="start" x="170.5" y="-236.8" font-family="Helvetica,sans-Serif" font-size="11.00" fill="#000000">replacement_cost</text>
<polygon fill="none" stroke="#000000" points="273.5,-229.7 273.5,-251.7 407.5,-251.7 407.5,-229.7 273.5,-229.7"/>
<text text-anchor="start" x="276.5" y="-237.4" font-family="Helvetica,sans-Serif" font-size="11.00" fill="#000000">numeric[5,2]</text>
<polygon fill="none" stroke="#000000" points="150.5,-207.7 150.5,-229.7 273.5,-229.7 273.5,-207.7 150.5,-207.7"/>
<text text-anchor="start" x="170.5" y="-214.8" font-family="Helvetica,sans-Serif" font-size="11.00" fill="#000000">rating</text>
<polygon fill="none" stroke="#000000" points="273.5,-207.7 273.5,-229.7 407.5,-229.7 407.5,-207.7 273.5,-207.7"/>
<text text-anchor="start" x="276.3057" y="-215.4" font-family="Helvetica,sans-Serif" font-size="11.00" fill="#000000">mpaa_rating[2147483647]</text>
<polygon fill="none" stroke="#000000" points="150.5,-185.7 150.5,-207.7 273.5,-207.7 273.5,-185.7 150.5,-185.7"/>
<text text-anchor="start" x="170.5" y="-192.8" font-family="Helvetica,sans-Serif" font-size="11.00" fill="#000000">last_update</text>
<polygon fill="none" stroke="#000000" points="273.5,-185.7 273.5,-207.7 407.5,-207.7 407.5,-185.7 273.5,-185.7"/>
<text text-anchor="start" x="276.5" y="-193.4" font-family="Helvetica,sans-Serif" font-size="11.00" fill="#000000">timestamp[29,6]</text>
<polygon fill="none" stroke="#000000" points="150.5,-163.7 150.5,-185.7 273.5,-185.7 273.5,-163.7 150.5,-163.7"/>
<text text-anchor="start" x="170.5" y="-170.8" font-family="Helvetica,sans-Serif" font-size="11.00" fill="#000000">special_features</text>
<polygon fill="none" stroke="#000000" points="273.5,-163.7 273.5,-185.7 407.5,-185.7 407.5,-163.7 273.5,-163.7"/>
<text text-anchor="start" x="276.5" y="-171.4" font-family="Helvetica,sans-Serif" font-size="11.00" fill="#000000">_text[2147483647]</text>
<polygon fill="#ffffff" stroke="transparent" points="150.5,-141.7 150.5,-163.7 273.5,-163.7 273.5,-141.7 150.5,-141.7"/>
<polygon fill="none" stroke="#000000" points="150.5,-141.7 150.5,-163.7 273.5,-163.7 273.5,-141.7 150.5,-141.7"/>
<text text-anchor="start" x="170.5" y="-148.8" font-family="Helvetica,sans-Serif" font-size="11.00" fill="#000000">fulltext</text>
<polygon fill="none" stroke="#000000" points="273.5,-141.7 273.5,-163.7 407.5,-163.7 407.5,-141.7 273.5,-141.7"/>
<text text-anchor="start" x="276.5" y="-149.4" font-family="Helvetica,sans-Serif" font-size="11.00" fill="#000000">tsvector[2147483647]</text>
<polygon fill="#ffffff" stroke="transparent" points="150.5,-122.7 150.5,-141.7 203.5,-141.7 203.5,-122.7 150.5,-122.7"/>
<polygon fill="none" stroke="#000000" points="150.5,-122.7 150.5,-141.7 203.5,-141.7 203.5,-122.7 150.5,-122.7"/>
<text text-anchor="start" x="153.5" y="-128.8" font-family="Helvetica,sans-Serif" font-size="11.00" fill="#000000">&lt; 1</text>
<polygon fill="#ffffff" stroke="transparent" points="203.5,-122.7 203.5,-141.7 273.5,-141.7 273.5,-122.7 203.5,-122.7"/>
<polygon fill="none" stroke="#000000" points="203.5,-122.7 203.5,-141.7 273.5,-141.7 273.5,-122.7 203.5,-122.7"/>
<text text-anchor="start" x="238.1105" y="-128.8" font-family="Helvetica,sans-Serif" font-size="11.00" fill="#000000">0 rows</text>
<polygon fill="#ffffff" stroke="transparent" points="273.5,-122.7 273.5,-141.7 407.5,-141.7 407.5,-122.7 273.5,-122.7"/>
<polygon fill="none" stroke="#000000" points="273.5,-122.7 273.5,-141.7 407.5,-141.7 407.5,-122.7 273.5,-122.7"/>
<text text-anchor="start" x="388.9053" y="-128.8" font-family="Helvetica,sans-Serif" font-size="11.00" fill="#000000">3 &gt;</text>
<polygon fill="none" stroke="#000000" stroke-width="2" points="149,-121.7 149,-451.7 408,-451.7 408,-121.7 149,-121.7"/>
</a>
</g>
</g>
<!-- language -->
<g id="node2" class="node">
<title>language</title>
<g id="a_node2"><a xlink:href="../../tables/language.html" xlink:title="language" target="_top">
<polygon fill="#ffffff" stroke="transparent" points="8,-280.2 8,-363.2 99,-363.2 99,-280.2 8,-280.2"/>
<polygon fill="#f5f5f5" stroke="transparent" points="8.5,-339.7 8.5,-362.7 99.5,-362.7 99.5,-339.7 8.5,-339.7"/>
<polygon fill="none" stroke="#000000" points="8.5,-339.7 8.5,-362.7 99.5,-362.7 99.5,-339.7 8.5,-339.7"/>
<text text-anchor="start" x="13.5" y="-348.8" font-family="Helvetica,sans-Serif" font-weight="bold" font-size="11.00" fill="#000000">language</text>
<text text-anchor="start" x="64.5437" y="-347.8" font-family="Helvetica,sans-Serif" font-size="11.00" fill="#000000">[table]</text>
<polygon fill="none" stroke="#000000" points="8.5,-317.7 8.5,-339.7 99.5,-339.7 99.5,-317.7 8.5,-317.7"/>
<image xlink:href="../../images/primaryKeys.png" width="11px" height="12px" preserveAspectRatio="xMinYMin meet" x="13.5" y="-334.7"/>
<text text-anchor="start" x="28.5" y="-324.8" font-family="Helvetica,sans-Serif" font-size="11.00" fill="#000000">language_id</text>
<polygon fill="none" stroke="#000000" points="8.5,-298.7 8.5,-317.7 99.5,-317.7 99.5,-298.7 8.5,-298.7"/>
<text text-anchor="start" x="11.5" y="-304.8" font-family="Helvetica,sans-Serif" font-size="11.00" fill="#000000">...</text>
<polygon fill="#ffffff" stroke="transparent" points="8.5,-279.7 8.5,-298.7 30.5,-298.7 30.5,-279.7 8.5,-279.7"/>
<polygon fill="none" stroke="#000000" points="8.5,-279.7 8.5,-298.7 30.5,-298.7 30.5,-279.7 8.5,-279.7"/>
<text text-anchor="start" x="11.5" y="-285.8" font-family="Helvetica,sans-Serif" font-size="11.00" fill="#000000"> &#160;</text>
<polygon fill="#ffffff" stroke="transparent" points="30.5,-279.7 30.5,-298.7 73.5,-298.7 73.5,-279.7 30.5,-279.7"/>
<polygon fill="none" stroke="#000000" points="30.5,-279.7 30.5,-298.7 73.5,-298.7 73.5,-279.7 30.5,-279.7"/>
<text text-anchor="start" x="38.1105" y="-285.8" font-family="Helvetica,sans-Serif" font-size="11.00" fill="#000000">0 rows</text>
<polygon fill="#ffffff" stroke="transparent" points="73.5,-279.7 73.5,-298.7 99.5,-298.7 99.5,-279.7 73.5,-279.7"/>
<polygon fill="none" stroke="#000000" points="73.5,-279.7 73.5,-298.7 99.5,-298.7 99.5,-279.7 73.5,-279.7"/>
<text text-anchor="start" x="80.9053" y="-285.8" font-family="Helvetica,sans-Serif" font-size="11.00" fill="#000000">1 &gt;</text>
</a>
</g>
</g>
<!-- film&#45;&gt;language -->
<g id="edge1" class="edge">
<title>film:w&#45;&gt;language:e</title>
<path fill="none" stroke="#000000" d="M135.776,-328.7C123.7815,-328.7 116.3229,-328.7 99.5,-328.7"/>
<polygon fill="#000000" stroke="#000000" points="142.5,-328.7001 150.5,-332.3 146.5,-328.7 150.5,-328.7 150.5,-328.7 150.5,-328.7 146.5,-328.7 150.5,-325.1 142.5,-328.7001 142.5,-328.7001"/>
<ellipse fill="none" stroke="#000000" cx="139.3" cy="-328.7001" rx="3.2" ry="3.2"/>
</g>
<!-- film_actor -->
<g id="node3" class="node">
<title>film_actor</title>
<g id="a_node3"><a xlink:href="../../tables/film_actor.html" xlink:title="film_actor" target="_top">
<polygon fill="#ffffff" stroke="transparent" points="467,-462.2 467,-567.2 557,-567.2 557,-462.2 467,-462.2"/>
<polygon fill="#f5f5f5" stroke="transparent" points="467,-543.7 467,-566.7 557,-566.7 557,-543.7 467,-543.7"/>
<polygon fill="none" stroke="#000000" points="467,-543.7 467,-566.7 557,-566.7 557,-543.7 467,-543.7"/>
<text text-anchor="start" x="471.668" y="-552.8" font-family="Helvetica,sans-Serif" font-weight="bold" font-size="11.00" fill="#000000">film_actor</text>
<text text-anchor="start" x="522.5219" y="-551.8" font-family="Helvetica,sans-Serif" font-size="11.00" fill="#000000">[table]</text>
<polygon fill="none" stroke="#000000" points="467,-521.7 467,-543.7 557,-543.7 557,-521.7 467,-521.7"/>
<image xlink:href="../../images/primaryKeys.png" width="11px" height="12px" preserveAspectRatio="xMinYMin meet" x="472" y="-538.7"/>
<text text-anchor="start" x="489" y="-528.8" font-family="Helvetica,sans-Serif" font-size="11.00" fill="#000000">actor_id</text>
<polygon fill="none" stroke="#000000" points="467,-499.7 467,-521.7 557,-521.7 557,-499.7 467,-499.7"/>
<image xlink:href="../../images/primaryKeys.png" width="11px" height="12px" preserveAspectRatio="xMinYMin meet" x="472" y="-516.7"/>
<text text-anchor="start" x="489" y="-506.8" font-family="Helvetica,sans-Serif" font-size="11.00" fill="#000000">film_id</text>
<polygon fill="none" stroke="#000000" points="467,-480.7 467,-499.7 557,-499.7 557,-480.7 467,-480.7"/>
<text text-anchor="start" x="470" y="-486.8" font-family="Helvetica,sans-Serif" font-size="11.00" fill="#000000">...</text>
<polygon fill="#ffffff" stroke="transparent" points="467,-461.7 467,-480.7 497,-480.7 497,-461.7 467,-461.7"/>
<polygon fill="none" stroke="#000000" points="467,-461.7 467,-480.7 497,-480.7 497,-461.7 467,-461.7"/>
<text text-anchor="start" x="470" y="-467.8" font-family="Helvetica,sans-Serif" font-size="11.00" fill="#000000">&lt; 2</text>
<polygon fill="#ffffff" stroke="transparent" points="497,-461.7 497,-480.7 540,-480.7 540,-461.7 497,-461.7"/>
<polygon fill="none" stroke="#000000" points="497,-461.7 497,-480.7 540,-480.7 540,-461.7 497,-461.7"/>
<text text-anchor="start" x="504.6105" y="-467.8" font-family="Helvetica,sans-Serif" font-size="11.00" fill="#000000">0 rows</text>
<polygon fill="#ffffff" stroke="transparent" points="540,-461.7 540,-480.7 557,-480.7 557,-461.7 540,-461.7"/>
<polygon fill="none" stroke="#000000" points="540,-461.7 540,-480.7 557,-480.7 557,-461.7 540,-461.7"/>
<text text-anchor="start" x="547.8862" y="-467.8" font-family="Helvetica,sans-Serif" font-size="11.00" fill="#000000"> &#160;</text>
</a>
</g>
</g>
<!-- film_actor&#45;&gt;film -->
<g id="edge3" class="edge">
<title>film_actor:w&#45;&gt;film:e</title>
<path fill="none" stroke="#000000" d="M452.9912,-507.1299C425.5677,-489.9596 451.1496,-416.7 407.5,-416.7"/>
<polygon fill="#000000" stroke="#000000" points="459.2478,-508.7243 466.1109,-514.1885 463.1239,-509.7122 467,-510.7 467,-510.7 467,-510.7 463.1239,-509.7122 467.8891,-507.2115 459.2478,-508.7243 459.2478,-508.7243"/>
<ellipse fill="none" stroke="#000000" cx="456.1469" cy="-507.934" rx="3.2" ry="3.2"/>
</g>
<!-- actor -->
<g id="node4" class="node">
<title>actor</title>
<g id="a_node4"><a xlink:href="../../tables/actor.html" xlink:title="actor" target="_top">
<polygon fill="#ffffff" stroke="transparent" points="243,-505.2 243,-566.2 314,-566.2 314,-505.2 243,-505.2"/>
<polygon fill="#f5f5f5" stroke="transparent" points="243.5,-542.7 243.5,-565.7 314.5,-565.7 314.5,-542.7 243.5,-542.7"/>
<polygon fill="none" stroke="#000000" points="243.5,-542.7 243.5,-565.7 314.5,-565.7 314.5,-542.7 243.5,-542.7"/>
<text text-anchor="start" x="248.5" y="-551.8" font-family="Helvetica,sans-Serif" font-weight="bold" font-size="11.00" fill="#000000">actor</text>
<text text-anchor="start" x="279.5437" y="-550.8" font-family="Helvetica,sans-Serif" font-size="11.00" fill="#000000">[table]</text>
<polygon fill="none" stroke="#000000" points="243.5,-523.7 243.5,-542.7 314.5,-542.7 314.5,-523.7 243.5,-523.7"/>
<text text-anchor="start" x="246.5" y="-529.8" font-family="Helvetica,sans-Serif" font-size="11.00" fill="#000000">...</text>
<polygon fill="#ffffff" stroke="transparent" points="243.5,-504.7 243.5,-523.7 255.5,-523.7 255.5,-504.7 243.5,-504.7"/>
<polygon fill="none" stroke="#000000" points="243.5,-504.7 243.5,-523.7 255.5,-523.7 255.5,-504.7 243.5,-504.7"/>
<text text-anchor="start" x="246.4431" y="-510.8" font-family="Helvetica,sans-Serif" font-size="11.00" fill="#000000"> &#160;</text>
<polygon fill="#ffffff" stroke="transparent" points="255.5,-504.7 255.5,-523.7 293.5,-523.7 293.5,-504.7 255.5,-504.7"/>
<polygon fill="none" stroke="#000000" points="255.5,-504.7 255.5,-523.7 293.5,-523.7 293.5,-504.7 255.5,-504.7"/>
<text text-anchor="start" x="258.3053" y="-510.8" font-family="Helvetica,sans-Serif" font-size="11.00" fill="#000000">0 rows</text>
<polygon fill="#ffffff" stroke="transparent" points="293.5,-504.7 293.5,-523.7 314.5,-523.7 314.5,-504.7 293.5,-504.7"/>
<polygon fill="none" stroke="#000000" points="293.5,-504.7 293.5,-523.7 314.5,-523.7 314.5,-504.7 293.5,-504.7"/>
<text text-anchor="start" x="296.2027" y="-510.8" font-family="Helvetica,sans-Serif" font-size="11.00" fill="#000000">1 &gt;</text>
</a>
</g>
</g>
<!-- film_actor&#45;&gt;actor -->
<g id="edge2" class="edge">
<title>film_actor:w&#45;&gt;actor:e</title>
<path fill="none" stroke="#000000" d="M452.3516,-532.7C396.3459,-532.7 377.115,-532.7 314.5,-532.7"/>
<polygon fill="#000000" stroke="#000000" points="459,-532.7001 467,-536.3 463,-532.7 467,-532.7 467,-532.7 467,-532.7 463,-532.7 467,-529.1 459,-532.7001 459,-532.7001"/>
<ellipse fill="none" stroke="#000000" cx="455.8" cy="-532.7001" rx="3.2" ry="3.2"/>
</g>
<!-- film_category -->
<g id="node5" class="node">
<title>film_category</title>
<g id="a_node5"><a xlink:href="../../tables/film_category.html" xlink:title="film_category" target="_top">
<polygon fill="#ffffff" stroke="transparent" points="458,-103.2 458,-208.2 566,-208.2 566,-103.2 458,-103.2"/>
<polygon fill="#f5f5f5" stroke="transparent" points="458,-184.7 458,-207.7 566,-207.7 566,-184.7 458,-184.7"/>
<polygon fill="none" stroke="#000000" points="458,-184.7 458,-207.7 566,-207.7 566,-184.7 458,-184.7"/>
<text text-anchor="start" x="462.8031" y="-193.8" font-family="Helvetica,sans-Serif" font-weight="bold" font-size="11.00" fill="#000000">film_category</text>
<text text-anchor="start" x="531.5219" y="-192.8" font-family="Helvetica,sans-Serif" font-size="11.00" fill="#000000">[table]</text>
<polygon fill="none" stroke="#000000" points="458,-162.7 458,-184.7 566,-184.7 566,-162.7 458,-162.7"/>
<image xlink:href="../../images/primaryKeys.png" width="11px" height="12px" preserveAspectRatio="xMinYMin meet" x="463" y="-179.7"/>
<text text-anchor="start" x="483" y="-169.8" font-family="Helvetica,sans-Serif" font-size="11.00" fill="#000000">film_id</text>
<polygon fill="none" stroke="#000000" points="458,-140.7 458,-162.7 566,-162.7 566,-140.7 458,-140.7"/>
<image xlink:href="../../images/primaryKeys.png" width="11px" height="12px" preserveAspectRatio="xMinYMin meet" x="463" y="-157.7"/>
<text text-anchor="start" x="483" y="-147.8" font-family="Helvetica,sans-Serif" font-size="11.00" fill="#000000">category_id</text>
<polygon fill="none" stroke="#000000" points="458,-121.7 458,-140.7 566,-140.7 566,-121.7 458,-121.7"/>
<text text-anchor="start" x="461" y="-127.8" font-family="Helvetica,sans-Serif" font-size="11.00" fill="#000000">...</text>
<polygon fill="#ffffff" stroke="transparent" points="458,-102.7 458,-121.7 497,-121.7 497,-102.7 458,-102.7"/>
<polygon fill="none" stroke="#000000" points="458,-102.7 458,-121.7 497,-121.7 497,-102.7 458,-102.7"/>
<text text-anchor="start" x="461" y="-108.8" font-family="Helvetica,sans-Serif" font-size="11.00" fill="#000000">&lt; 2</text>
<polygon fill="#ffffff" stroke="transparent" points="497,-102.7 497,-121.7 544,-121.7 544,-102.7 497,-102.7"/>
<polygon fill="none" stroke="#000000" points="497,-102.7 497,-121.7 544,-121.7 544,-102.7 497,-102.7"/>
<text text-anchor="start" x="508.6105" y="-108.8" font-family="Helvetica,sans-Serif" font-size="11.00" fill="#000000">0 rows</text>
<polygon fill="#ffffff" stroke="transparent" points="544,-102.7 544,-121.7 566,-121.7 566,-102.7 544,-102.7"/>
<polygon fill="none" stroke="#000000" points="544,-102.7 544,-121.7 566,-121.7 566,-102.7 544,-102.7"/>
<text text-anchor="start" x="556.8862" y="-108.8" font-family="Helvetica,sans-Serif" font-size="11.00" fill="#000000"> &#160;</text>
</a>
</g>
</g>
<!-- film_category&#45;&gt;film -->
<g id="edge5" class="edge">
<title>film_category:w&#45;&gt;film:e</title>
<path fill="none" stroke="#000000" d="M443.2913,-175.5163C364.2466,-197.7531 512.206,-416.7 407.5,-416.7"/>
<polygon fill="#000000" stroke="#000000" points="450.0603,-174.6805 458.4412,-177.2729 454.0302,-174.1902 458,-173.7 458,-173.7 458,-173.7 454.0302,-174.1902 457.5588,-170.1271 450.0603,-174.6805 450.0603,-174.6805"/>
<ellipse fill="none" stroke="#000000" cx="446.8844" cy="-175.0726" rx="3.2" ry="3.2"/>
</g>
<!-- category -->
<g id="node6" class="node">
<title>category</title>
<g id="a_node6"><a xlink:href="../../tables/category.html" xlink:title="category" target="_top">
<polygon fill="#ffffff" stroke="transparent" points="236,-38.2 236,-99.2 321,-99.2 321,-38.2 236,-38.2"/>
<polygon fill="#f5f5f5" stroke="transparent" points="236.5,-75.7 236.5,-98.7 321.5,-98.7 321.5,-75.7 236.5,-75.7"/>
<polygon fill="none" stroke="#000000" points="236.5,-75.7 236.5,-98.7 321.5,-98.7 321.5,-75.7 236.5,-75.7"/>
<text text-anchor="start" x="241.4108" y="-84.8" font-family="Helvetica,sans-Serif" font-weight="bold" font-size="11.00" fill="#000000">category</text>
<text text-anchor="start" x="287.0219" y="-83.8" font-family="Helvetica,sans-Serif" font-size="11.00" fill="#000000">[table]</text>
<polygon fill="none" stroke="#000000" points="236.5,-56.7 236.5,-75.7 321.5,-75.7 321.5,-56.7 236.5,-56.7"/>
<text text-anchor="start" x="239.5" y="-62.8" font-family="Helvetica,sans-Serif" font-size="11.00" fill="#000000">...</text>
<polygon fill="#ffffff" stroke="transparent" points="236.5,-37.7 236.5,-56.7 255.5,-56.7 255.5,-37.7 236.5,-37.7"/>
<polygon fill="none" stroke="#000000" points="236.5,-37.7 236.5,-56.7 255.5,-56.7 255.5,-37.7 236.5,-37.7"/>
<text text-anchor="start" x="239.5" y="-43.8" font-family="Helvetica,sans-Serif" font-size="11.00" fill="#000000"> &#160;</text>
<polygon fill="#ffffff" stroke="transparent" points="255.5,-37.7 255.5,-56.7 296.5,-56.7 296.5,-37.7 255.5,-37.7"/>
<polygon fill="none" stroke="#000000" points="255.5,-37.7 255.5,-56.7 296.5,-56.7 296.5,-37.7 255.5,-37.7"/>
<text text-anchor="start" x="261.1105" y="-43.8" font-family="Helvetica,sans-Serif" font-size="11.00" fill="#000000">0 rows</text>
<polygon fill="#ffffff" stroke="transparent" points="296.5,-37.7 296.5,-56.7 321.5,-56.7 321.5,-37.7 296.5,-37.7"/>
<polygon fill="none" stroke="#000000" points="296.5,-37.7 296.5,-56.7 321.5,-56.7 321.5,-37.7 296.5,-37.7"/>
<text text-anchor="start" x="302.9053" y="-43.8" font-family="Helvetica,sans-Serif" font-size="11.00" fill="#000000">1 &gt;</text>
</a>
</g>
</g>
<!-- film_category&#45;&gt;category -->
<g id="edge4" class="edge">
<title>film_category:w&#45;&gt;category:e</title>
<path fill="none" stroke="#000000" d="M443.9078,-147.5086C433.3878,-139.3412 433.151,-121.0991 417,-109.7 378.819,-82.7526 368.2328,-65.7 321.5,-65.7"/>
<polygon fill="#000000" stroke="#000000" points="450.332,-149.4193 456.9737,-155.1506 454.166,-150.5596 458,-151.7 458,-151.7 458,-151.7 454.166,-150.5596 459.0263,-148.2494 450.332,-149.4193 450.332,-149.4193"/>
<ellipse fill="none" stroke="#000000" cx="447.2648" cy="-148.507" rx="3.2" ry="3.2"/>
</g>
<!-- inventory -->
<g id="node7" class="node">
<title>inventory</title>
<g id="a_node7"><a xlink:href="../../tables/inventory.html" xlink:title="inventory" target="_top">
<polygon fill="#ffffff" stroke="transparent" points="466,-314.2 466,-441.2 558,-441.2 558,-314.2 466,-314.2"/>
<polygon fill="#f5f5f5" stroke="transparent" points="466,-417.7 466,-440.7 558,-440.7 558,-417.7 466,-417.7"/>
<polygon fill="none" stroke="#000000" points="466,-417.7 466,-440.7 558,-440.7 558,-417.7 466,-417.7"/>
<text text-anchor="start" x="471" y="-426.8" font-family="Helvetica,sans-Serif" font-weight="bold" font-size="11.00" fill="#000000">inventory</text>
<text text-anchor="start" x="523.0437" y="-425.8" font-family="Helvetica,sans-Serif" font-size="11.00" fill="#000000">[table]</text>
<polygon fill="none" stroke="#000000" points="466,-395.7 466,-417.7 558,-417.7 558,-395.7 466,-395.7"/>
<image xlink:href="../../images/primaryKeys.png" width="11px" height="12px" preserveAspectRatio="xMinYMin meet" x="471" y="-412.7"/>
<text text-anchor="start" x="486" y="-402.8" font-family="Helvetica,sans-Serif" font-size="11.00" fill="#000000">inventory_id</text>
<polygon fill="#ffffff" stroke="transparent" points="466,-373.7 466,-395.7 558,-395.7 558,-373.7 466,-373.7"/>
<polygon fill="none" stroke="#000000" points="466,-373.7 466,-395.7 558,-395.7 558,-373.7 466,-373.7"/>
<image xlink:href="../../images/foreignKeys.png" width="11px" height="12px" preserveAspectRatio="xMinYMin meet" x="471" y="-390.7"/>
<text text-anchor="start" x="486" y="-380.8" font-family="Helvetica,sans-Serif" font-size="11.00" fill="#000000">film_id</text>
<polygon fill="#ffffff" stroke="transparent" points="466,-351.7 466,-373.7 558,-373.7 558,-351.7 466,-351.7"/>
<polygon fill="none" stroke="#000000" points="466,-351.7 466,-373.7 558,-373.7 558,-351.7 466,-351.7"/>
<text text-anchor="start" x="486" y="-358.8" font-family="Helvetica,sans-Serif" font-size="11.00" fill="#000000">store_id</text>
<polygon fill="none" stroke="#000000" points="466,-332.7 466,-351.7 558,-351.7 558,-332.7 466,-332.7"/>
<text text-anchor="start" x="469" y="-338.8" font-family="Helvetica,sans-Serif" font-size="11.00" fill="#000000">...</text>
<polygon fill="#ffffff" stroke="transparent" points="466,-313.7 466,-332.7 493,-332.7 493,-313.7 466,-313.7"/>
<polygon fill="none" stroke="#000000" points="466,-313.7 466,-332.7 493,-332.7 493,-313.7 466,-313.7"/>
<text text-anchor="start" x="469" y="-319.8" font-family="Helvetica,sans-Serif" font-size="11.00" fill="#000000">&lt; 1</text>
<polygon fill="#ffffff" stroke="transparent" points="493,-313.7 493,-332.7 534,-332.7 534,-313.7 493,-313.7"/>
<polygon fill="none" stroke="#000000" points="493,-313.7 493,-332.7 534,-332.7 534,-313.7 493,-313.7"/>
<text text-anchor="start" x="498.6105" y="-319.8" font-family="Helvetica,sans-Serif" font-size="11.00" fill="#000000">0 rows</text>
<polygon fill="#ffffff" stroke="transparent" points="534,-313.7 534,-332.7 558,-332.7 558,-313.7 534,-313.7"/>
<polygon fill="none" stroke="#000000" points="534,-313.7 534,-332.7 558,-332.7 558,-313.7 534,-313.7"/>
<text text-anchor="start" x="539.4053" y="-319.8" font-family="Helvetica,sans-Serif" font-size="11.00" fill="#000000">1 &gt;</text>
</a>
</g>
</g>
<!-- inventory&#45;&gt;film -->
<g id="edge6" class="edge">
<title>inventory:w&#45;&gt;film:e</title>
<path fill="none" stroke="#000000" d="M451.6621,-387.8853C435.5057,-395.9793 431.3474,-416.7 407.5,-416.7"/>
<polygon fill="#000000" stroke="#000000" points="458.1904,-386.435 466.7808,-388.2143 462.0952,-385.5675 466,-384.7 466,-384.7 466,-384.7 462.0952,-385.5675 465.2192,-381.1857 458.1904,-386.435 458.1904,-386.435"/>
<ellipse fill="none" stroke="#000000" cx="455.0666" cy="-387.129" rx="3.2" ry="3.2"/>
</g>
<!-- rental -->
<g id="node8" class="node">
<title>rental</title>
<g id="a_node8"><a xlink:href="../../tables/rental.html" xlink:title="rental" target="_top">
<polygon fill="#ffffff" stroke="transparent" points="615,-379.2 615,-440.2 695,-440.2 695,-379.2 615,-379.2"/>
<polygon fill="#f5f5f5" stroke="transparent" points="615,-416.7 615,-439.7 695,-439.7 695,-416.7 615,-416.7"/>
<polygon fill="none" stroke="#000000" points="615,-416.7 615,-439.7 695,-439.7 695,-416.7 615,-416.7"/>
<text text-anchor="start" x="620" y="-425.8" font-family="Helvetica,sans-Serif" font-weight="bold" font-size="11.00" fill="#000000">rental</text>
<text text-anchor="start" x="660.0437" y="-424.8" font-family="Helvetica,sans-Serif" font-size="11.00" fill="#000000">[table]</text>
<polygon fill="none" stroke="#000000" points="615,-397.7 615,-416.7 695,-416.7 695,-397.7 615,-397.7"/>
<text text-anchor="start" x="618" y="-403.8" font-family="Helvetica,sans-Serif" font-size="11.00" fill="#000000">...</text>
<polygon fill="#ffffff" stroke="transparent" points="615,-378.7 615,-397.7 636,-397.7 636,-378.7 615,-378.7"/>
<polygon fill="none" stroke="#000000" points="615,-378.7 615,-397.7 636,-397.7 636,-378.7 615,-378.7"/>
<text text-anchor="start" x="617.7026" y="-384.8" font-family="Helvetica,sans-Serif" font-size="11.00" fill="#000000">&lt; 3</text>
<polygon fill="#ffffff" stroke="transparent" points="636,-378.7 636,-397.7 674,-397.7 674,-378.7 636,-378.7"/>
<polygon fill="none" stroke="#000000" points="636,-378.7 636,-397.7 674,-397.7 674,-378.7 636,-378.7"/>
<text text-anchor="start" x="638.8053" y="-384.8" font-family="Helvetica,sans-Serif" font-size="11.00" fill="#000000">0 rows</text>
<polygon fill="#ffffff" stroke="transparent" points="674,-378.7 674,-397.7 695,-397.7 695,-378.7 674,-378.7"/>
<polygon fill="none" stroke="#000000" points="674,-378.7 674,-397.7 695,-397.7 695,-378.7 674,-378.7"/>
<text text-anchor="start" x="676.7026" y="-384.8" font-family="Helvetica,sans-Serif" font-size="11.00" fill="#000000">1 &gt;</text>
</a>
</g>
</g>
<!-- rental&#45;&gt;inventory -->
<g id="edge7" class="edge">
<title>rental:w&#45;&gt;inventory:e</title>
<path fill="none" stroke="#000000" d="M600.2652,-406.7C585.8216,-406.7 577.5938,-406.7 558,-406.7"/>
<polygon fill="#000000" stroke="#000000" points="607,-406.7001 615,-410.3 611,-406.7 615,-406.7 615,-406.7 615,-406.7 611,-406.7 615,-403.1 607,-406.7001 607,-406.7001"/>
<ellipse fill="none" stroke="#000000" cx="603.8" cy="-406.7001" rx="3.2" ry="3.2"/>
</g>
</g>
</svg>
