<?xml version="1.0" encoding="UTF-8" standalone="no"?>
<!DOCTYPE svg PUBLIC "-//W3C//DTD SVG 1.1//EN"
 "http://www.w3.org/Graphics/SVG/1.1/DTD/svg11.dtd">
<!-- Generated by graphviz version 2.40.1 (20161225.0304)
 -->
<!-- Title: oneDegreeRelationshipsDiagram Pages: 1 -->
<svg width="517pt" height="265pt"
 viewBox="0.00 0.00 517.00 265.20" xmlns="http://www.w3.org/2000/svg" xmlns:xlink="http://www.w3.org/1999/xlink">
<g id="graph0" class="graph" transform="scale(1 1) rotate(0) translate(4 261.2)">
<title>oneDegreeRelationshipsDiagram</title>
<polygon fill="#ffffff" stroke="transparent" points="-4,4 -4,-261.2 513,-261.2 513,4 -4,4"/>
<text text-anchor="middle" x="72.4936" y="-7.3" font-family="Helvetica,sans-Serif" font-size="11.00" fill="#000000">Generated by SchemaSpy</text>
<!-- inventory -->
<g id="node1" class="node">
<title>inventory</title>
<g id="a_node1"><a xlink:href="../../tables/inventory.html" xlink:title="inventory" target="_top">
<polygon fill="#ffffff" stroke="transparent" points="180,-76.7 180,-210.7 360,-210.7 360,-76.7 180,-76.7"/>
<polygon fill="#f5f5f5" stroke="transparent" points="182,-185.7 182,-208.7 358,-208.7 358,-185.7 182,-185.7"/>
<polygon fill="none" stroke="#000000" points="182,-185.7 182,-208.7 358,-208.7 358,-185.7 182,-185.7"/>
<text text-anchor="start" x="187" y="-194.8" font-family="Helvetica,sans-Serif" font-weight="bold" font-size="11.00" fill="#000000">inventory</text>
<text text-anchor="start" x="323.0437" y="-193.8" font-family="Helvetica,sans-Serif" font-size="11.00" fill="#000000">[table]</text>
<polygon fill="none" stroke="#000000" points="182,-163.7 182,-185.7 274,-185.7 274,-163.7 182,-163.7"/>
<image xlink:href="../../images/primaryKeys.png" width="11px" height="12px" preserveAspectRatio="xMinYMin meet" x="187" y="-180.7"/>
<text text-anchor="start" x="202" y="-170.8" font-family="Helvetica,sans-Serif" font-size="11.00" fill="#000000">inventory_id</text>
<polygon fill="none" stroke="#000000" points="274,-163.7 274,-185.7 358,-185.7 358,-163.7 274,-163.7"/>
<text text-anchor="start" x="277" y="-171.4" font-family="Helvetica,sans-Serif" font-size="11.00" fill="#000000">serial[10]</text>
<polygon fill="#ffffff" stroke="transparent" points="182,-141.7 182,-163.7 274,-163.7 274,-141.7 182,-141.7"/>
<polygon fill="none" stroke="#000000" points="182,-141.7 182,-163.7 274,-163.7 274,-141.7 182,-141.7"/>
<image xlink:href="../../images/foreignKeys.png" width="11px" height="12px" preserveAspectRatio="xMinYMin meet" x="187" y="-158.7"/>
<text text-anchor="start" x="202" y="-148.8" font-family="Helvetica,sans-Serif" font-size="11.00" fill="#000000">film_id</text>
<polygon fill="none" stroke="#000000" points="274,-141.7 274,-163.7 358,-163.7 358,-141.7 274,-141.7"/>
<text text-anchor="start" x="277" y="-149.4" font-family="Helvetica,sans-Serif" font-size="11.00" fill="#000000">int2[5]</text>
<polygon fill="#ffffff" stroke="transparent" points="182,-119.7 182,-141.7 274,-141.7 274,-119.7 182,-119.7"/>
<polygon fill="none" stroke="#000000" points="182,-119.7 182,-141.7 274,-141.7 274,-119.7 182,-119.7"/>
<text text-anchor="start" x="202" y="-126.8" font-family="Helvetica,sans-Serif" font-size="11.00" fill="#000000">store_id</text>
<polygon fill="none" stroke="#000000" points="274,-119.7 274,-141.7 358,-141.7 358,-119.7 274,-119.7"/>
<text text-anchor="start" x="277" y="-127.4" font-family="Helvetica,sans-Serif" font-size="11.00" fill="#000000">int2[5]</text>
<polygon fill="none" stroke="#000000" points="182,-97.7 182,-119.7 274,-119.7 274,-97.7 182,-97.7"/>
<text text-anchor="start" x="202" y="-104.8" font-family="Helvetica,sans-Serif" font-size="11.00" fill="#000000">last_update</text>
<polygon fill="none" stroke="#000000" points="274,-97.7 274,-119.7 358,-119.7 358,-97.7 274,-97.7"/>
<text text-anchor="start" x="276.8807" y="-105.4" font-family="Helvetica,sans-Serif" font-size="11.00" fill="#000000">timestamp[29,6]</text>
<polygon fill="#ffffff" stroke="transparent" points="182,-78.7 182,-97.7 219,-97.7 219,-78.7 182,-78.7"/>
<polygon fill="none" stroke="#000000" points="182,-78.7 182,-97.7 219,-97.7 219,-78.7 182,-78.7"/>
<text text-anchor="start" x="185" y="-84.8" font-family="Helvetica,sans-Serif" font-size="11.00" fill="#000000">&lt; 1</text>
<polygon fill="#ffffff" stroke="transparent" points="219,-78.7 219,-97.7 274,-97.7 274,-78.7 219,-78.7"/>
<polygon fill="none" stroke="#000000" points="219,-78.7 219,-97.7 274,-97.7 274,-78.7 219,-78.7"/>
<text text-anchor="start" x="238.6105" y="-84.8" font-family="Helvetica,sans-Serif" font-size="11.00" fill="#000000">0 rows</text>
<polygon fill="#ffffff" stroke="transparent" points="274,-78.7 274,-97.7 358,-97.7 358,-78.7 274,-78.7"/>
<polygon fill="none" stroke="#000000" points="274,-78.7 274,-97.7 358,-97.7 358,-78.7 274,-78.7"/>
<text text-anchor="start" x="339.4053" y="-84.8" font-family="Helvetica,sans-Serif" font-size="11.00" fill="#000000">1 &gt;</text>
<polygon fill="none" stroke="#000000" stroke-width="2" points="181,-77.7 181,-209.7 359,-209.7 359,-77.7 181,-77.7"/>
</a>
</g>
</g>
<!-- film -->
<g id="node2" class="node">
<title>film</title>
<g id="a_node2"><a xlink:href="../../tables/film.html" xlink:title="film" target="_top">
<polygon fill="#ffffff" stroke="transparent" points="8,-38.2 8,-187.2 131,-187.2 131,-38.2 8,-38.2"/>
<polygon fill="#f5f5f5" stroke="transparent" points="8.5,-163.7 8.5,-186.7 131.5,-186.7 131.5,-163.7 8.5,-163.7"/>
<polygon fill="none" stroke="#000000" points="8.5,-163.7 8.5,-186.7 131.5,-186.7 131.5,-163.7 8.5,-163.7"/>
<text text-anchor="start" x="13.5" y="-172.8" font-family="Helvetica,sans-Serif" font-weight="bold" font-size="11.00" fill="#000000">film</text>
<text text-anchor="start" x="96.5437" y="-171.8" font-family="Helvetica,sans-Serif" font-size="11.00" fill="#000000">[table]</text>
<polygon fill="none" stroke="#000000" points="8.5,-141.7 8.5,-163.7 131.5,-163.7 131.5,-141.7 8.5,-141.7"/>
<image xlink:href="../../images/primaryKeys.png" width="11px" height="12px" preserveAspectRatio="xMinYMin meet" x="13.5" y="-158.7"/>
<text text-anchor="start" x="28.5" y="-148.8" font-family="Helvetica,sans-Serif" font-size="11.00" fill="#000000">film_id</text>
<polygon fill="#ffffff" stroke="transparent" points="8.5,-119.7 8.5,-141.7 131.5,-141.7 131.5,-119.7 8.5,-119.7"/>
<polygon fill="none" stroke="#000000" points="8.5,-119.7 8.5,-141.7 131.5,-141.7 131.5,-119.7 8.5,-119.7"/>
<text text-anchor="start" x="28.5" y="-126.8" font-family="Helvetica,sans-Serif" font-size="11.00" fill="#000000">title</text>
<polygon fill="#ffffff" stroke="transparent" points="8.5,-97.7 8.5,-119.7 131.5,-119.7 131.5,-97.7 8.5,-97.7"/>
<polygon fill="none" stroke="#000000" points="8.5,-97.7 8.5,-119.7 131.5,-119.7 131.5,-97.7 8.5,-97.7"/>
<image xlink:href="../../images/foreignKeys.png" width="11px" height="12px" preserveAspectRatio="xMinYMin meet" x="13.5" y="-114.7"/>
<text text-anchor="start" x="28.5" y="-104.8" font-family="Helvetica,sans-Serif" font-size="11.00" fill="#000000">language_id</text>
<polygon fill="#ffffff" stroke="transparent" points="8.5,-75.7 8.5,-97.7 131.5,-97.7 131.5,-75.7 8.5,-75.7"/>
<polygon fill="none" stroke="#000000" points="8.5,-75.7 8.5,-97.7 131.5,-97.7 131.5,-75.7 8.5,-75.7"/>
<text text-anchor="start" x="28.5" y="-82.8" font-family="Helvetica,sans-Serif" font-size="11.00" fill="#000000">fulltext</text>
<polygon fill="none" stroke="#000000" points="8.5,-56.7 8.5,-75.7 131.5,-75.7 131.5,-56.7 8.5,-56.7"/>
<text text-anchor="start" x="11.5" y="-62.8" font-family="Helvetica,sans-Serif" font-size="11.00" fill="#000000">...</text>
<polygon fill="#ffffff" stroke="transparent" points="8.5,-37.7 8.5,-56.7 50.5,-56.7 50.5,-37.7 8.5,-37.7"/>
<polygon fill="none" stroke="#000000" points="8.5,-37.7 8.5,-56.7 50.5,-56.7 50.5,-37.7 8.5,-37.7"/>
<text text-anchor="start" x="11.5" y="-43.8" font-family="Helvetica,sans-Serif" font-size="11.00" fill="#000000">&lt; 1</text>
<polygon fill="#ffffff" stroke="transparent" points="50.5,-37.7 50.5,-56.7 99.5,-56.7 99.5,-37.7 50.5,-37.7"/>
<polygon fill="none" stroke="#000000" points="50.5,-37.7 50.5,-56.7 99.5,-56.7 99.5,-37.7 50.5,-37.7"/>
<text text-anchor="start" x="64.1105" y="-43.8" font-family="Helvetica,sans-Serif" font-size="11.00" fill="#000000">0 rows</text>
<polygon fill="#ffffff" stroke="transparent" points="99.5,-37.7 99.5,-56.7 131.5,-56.7 131.5,-37.7 99.5,-37.7"/>
<polygon fill="none" stroke="#000000" points="99.5,-37.7 99.5,-56.7 131.5,-56.7 131.5,-37.7 99.5,-37.7"/>
<text text-anchor="start" x="112.9053" y="-43.8" font-family="Helvetica,sans-Serif" font-size="11.00" fill="#000000">3 &gt;</text>
</a>
</g>
</g>
<!-- inventory&#45;&gt;film -->
<g id="edge1" class="edge">
<title>inventory:w&#45;&gt;film:e</title>
<path fill="none" stroke="#000000" d="M167.4203,-152.7C155.5435,-152.7 148.158,-152.7 131.5,-152.7"/>
<polygon fill="#000000" stroke="#000000" points="174,-152.7001 182,-156.3 178,-152.7 182,-152.7 182,-152.7 182,-152.7 178,-152.7 182,-149.1 174,-152.7001 174,-152.7001"/>
<ellipse fill="none" stroke="#000000" cx="170.8" cy="-152.7001" rx="3.2" ry="3.2"/>
</g>
<!-- rental -->
<g id="node3" class="node">
<title>rental</title>
<g id="a_node3"><a xlink:href="../../tables/rental.html" xlink:title="rental" target="_top">
<polygon fill="#ffffff" stroke="transparent" points="409,-82.2 409,-253.2 501,-253.2 501,-82.2 409,-82.2"/>
<polygon fill="#f5f5f5" stroke="transparent" points="409,-229.7 409,-252.7 501,-252.7 501,-229.7 409,-229.7"/>
<polygon fill="none" stroke="#000000" points="409,-229.7 409,-252.7 501,-252.7 501,-229.7 409,-229.7"/>
<text text-anchor="start" x="414" y="-238.8" font-family="Helvetica,sans-Serif" font-weight="bold" font-size="11.00" fill="#000000">rental</text>
<text text-anchor="start" x="466.0437" y="-237.8" font-family="Helvetica,sans-Serif" font-size="11.00" fill="#000000">[table]</text>
<polygon fill="none" stroke="#000000" points="409,-207.7 409,-229.7 501,-229.7 501,-207.7 409,-207.7"/>
<image xlink:href="../../images/primaryKeys.png" width="11px" height="12px" preserveAspectRatio="xMinYMin meet" x="414" y="-224.7"/>
<text text-anchor="start" x="429" y="-214.8" font-family="Helvetica,sans-Serif" font-size="11.00" fill="#000000">rental_id</text>
<polygon fill="#ffffff" stroke="transparent" points="409,-185.7 409,-207.7 501,-207.7 501,-185.7 409,-185.7"/>
<polygon fill="none" stroke="#000000" points="409,-185.7 409,-207.7 501,-207.7 501,-185.7 409,-185.7"/>
<text text-anchor="start" x="429" y="-192.8" font-family="Helvetica,sans-Serif" font-size="11.00" fill="#000000">rental_date</text>
<polygon fill="#ffffff" stroke="transparent" points="409,-163.7 409,-185.7 501,-185.7 501,-163.7 409,-163.7"/>
<polygon fill="none" stroke="#000000" points="409,-163.7 409,-185.7 501,-185.7 501,-163.7 409,-163.7"/>
<image xlink:href="../../images/foreignKeys.png" width="11px" height="12px" preserveAspectRatio="xMinYMin meet" x="414" y="-180.7"/>
<text text-anchor="start" x="429" y="-170.8" font-family="Helvetica,sans-Serif" font-size="11.00" fill="#000000">inventory_id</text>
<polygon fill="#ffffff" stroke="transparent" points="409,-141.7 409,-163.7 501,-163.7 501,-141.7 409,-141.7"/>
<polygon fill="none" stroke="#000000" points="409,-141.7 409,-163.7 501,-163.7 501,-141.7 409,-141.7"/>
<image xlink:href="../../images/foreignKeys.png" width="11px" height="12px" preserveAspectRatio="xMinYMin meet" x="414" y="-158.7"/>
<text text-anchor="start" x="429" y="-148.8" font-family="Helvetica,sans-Serif" font-size="11.00" fill="#000000">customer_id</text>
<polygon fill="none" stroke="#000000" points="409,-119.7 409,-141.7 501,-141.7 501,-119.7 409,-119.7"/>
<image xlink:href="../../images/foreignKeys.png" width="11px" height="12px" preserveAspectRatio="xMinYMin meet" x="414" y="-136.7"/>
<text text-anchor="start" x="429" y="-126.8" font-family="Helvetica,sans-Serif" font-size="11.00" fill="#000000">staff_id</text>
<polygon fill="none" stroke="#000000" points="409,-100.7 409,-119.7 501,-119.7 501,-100.7 409,-100.7"/>
<text text-anchor="start" x="412" y="-106.8" font-family="Helvetica,sans-Serif" font-size="11.00" fill="#000000">...</text>
<polygon fill="#ffffff" stroke="transparent" points="409,-81.7 409,-100.7 436,-100.7 436,-81.7 409,-81.7"/>
<polygon fill="none" stroke="#000000" points="409,-81.7 409,-100.7 436,-100.7 436,-81.7 409,-81.7"/>
<text text-anchor="start" x="412" y="-87.8" font-family="Helvetica,sans-Serif" font-size="11.00" fill="#000000">&lt; 3</text>
<polygon fill="#ffffff" stroke="transparent" points="436,-81.7 436,-100.7 477,-100.7 477,-81.7 436,-81.7"/>
<polygon fill="none" stroke="#000000" points="436,-81.7 436,-100.7 477,-100.7 477,-81.7 436,-81.7"/>
<text text-anchor="start" x="441.6105" y="-87.8" font-family="Helvetica,sans-Serif" font-size="11.00" fill="#000000">0 rows</text>
<polygon fill="#ffffff" stroke="transparent" points="477,-81.7 477,-100.7 501,-100.7 501,-81.7 477,-81.7"/>
<polygon fill="none" stroke="#000000" points="477,-81.7 477,-100.7 501,-100.7 501,-81.7 477,-81.7"/>
<text text-anchor="start" x="482.4053" y="-87.8" font-family="Helvetica,sans-Serif" font-size="11.00" fill="#000000">1 &gt;</text>
</a>
</g>
</g>
<!-- rental&#45;&gt;inventory -->
<g id="edge2" class="edge">
<title>rental:w&#45;&gt;inventory:e</title>
<path fill="none" stroke="#000000" d="M394.276,-174.7C382.2815,-174.7 374.8229,-174.7 358,-174.7"/>
<polygon fill="#000000" stroke="#000000" points="401,-174.7001 409,-178.3 405,-174.7 409,-174.7 409,-174.7 409,-174.7 405,-174.7 409,-171.1 401,-174.7001 401,-174.7001"/>
<ellipse fill="none" stroke="#000000" cx="397.8" cy="-174.7001" rx="3.2" ry="3.2"/>
</g>
</g>
</svg>
