<?xml version="1.0" encoding="UTF-8" standalone="no"?>
<!DOCTYPE svg PUBLIC "-//W3C//DTD SVG 1.1//EN"
 "http://www.w3.org/Graphics/SVG/1.1/DTD/svg11.dtd">
<!-- Generated by graphviz version 2.40.1 (20161225.0304)
 -->
<!-- Title: twoDegreesRelationshipsDiagram Pages: 1 -->
<svg width="992pt" height="1004pt"
 viewBox="0.00 0.00 992.00 1004.04" xmlns="http://www.w3.org/2000/svg" xmlns:xlink="http://www.w3.org/1999/xlink">
<g id="graph0" class="graph" transform="scale(1 1) rotate(0) translate(4 1000.0376)">
<title>twoDegreesRelationshipsDiagram</title>
<polygon fill="#ffffff" stroke="transparent" points="-4,4 -4,-1000.0376 988,-1000.0376 988,4 -4,4"/>
<text text-anchor="middle" x="72.4936" y="-7.3" font-family="Helvetica,sans-Serif" font-size="11.00" fill="#000000">Generated by SchemaSpy</text>
<!-- customer -->
<g id="node1" class="node">
<title>customer</title>
<g id="a_node1"><a xlink:href="../../tables/customer.html" xlink:title="customer" target="_top">
<polygon fill="#ffffff" stroke="transparent" points="512,-327.0376 512,-388.0376 600,-388.0376 600,-327.0376 512,-327.0376"/>
<polygon fill="#f5f5f5" stroke="transparent" points="512,-364.5376 512,-387.5376 600,-387.5376 600,-364.5376 512,-364.5376"/>
<polygon fill="none" stroke="#000000" points="512,-364.5376 512,-387.5376 600,-387.5376 600,-364.5376 512,-364.5376"/>
<text text-anchor="start" x="516.8873" y="-373.6376" font-family="Helvetica,sans-Serif" font-weight="bold" font-size="11.00" fill="#000000">customer</text>
<text text-anchor="start" x="565.5219" y="-372.6376" font-family="Helvetica,sans-Serif" font-size="11.00" fill="#000000">[table]</text>
<polygon fill="none" stroke="#000000" points="512,-345.5376 512,-364.5376 600,-364.5376 600,-345.5376 512,-345.5376"/>
<text text-anchor="start" x="515" y="-351.6376" font-family="Helvetica,sans-Serif" font-size="11.00" fill="#000000">...</text>
<polygon fill="#ffffff" stroke="transparent" points="512,-326.5376 512,-345.5376 537,-345.5376 537,-326.5376 512,-326.5376"/>
<polygon fill="none" stroke="#000000" points="512,-326.5376 512,-345.5376 537,-345.5376 537,-326.5376 512,-326.5376"/>
<text text-anchor="start" x="515" y="-332.6376" font-family="Helvetica,sans-Serif" font-size="11.00" fill="#000000">&lt; 2</text>
<polygon fill="#ffffff" stroke="transparent" points="537,-326.5376 537,-345.5376 577,-345.5376 577,-326.5376 537,-326.5376"/>
<polygon fill="none" stroke="#000000" points="537,-326.5376 537,-345.5376 577,-345.5376 577,-326.5376 537,-326.5376"/>
<text text-anchor="start" x="541.6105" y="-332.6376" font-family="Helvetica,sans-Serif" font-size="11.00" fill="#000000">0 rows</text>
<polygon fill="#ffffff" stroke="transparent" points="577,-326.5376 577,-345.5376 600,-345.5376 600,-326.5376 577,-326.5376"/>
<polygon fill="none" stroke="#000000" points="577,-326.5376 577,-345.5376 600,-345.5376 600,-326.5376 577,-326.5376"/>
<text text-anchor="start" x="581.4053" y="-332.6376" font-family="Helvetica,sans-Serif" font-size="11.00" fill="#000000">8 &gt;</text>
</a>
</g>
</g>
<!-- address -->
<g id="node2" class="node">
<title>address</title>
<g id="a_node2"><a xlink:href="../../tables/address.html" xlink:title="address" target="_top">
<polygon fill="#ffffff" stroke="transparent" points="8,-349.0376 8,-410.0376 90,-410.0376 90,-349.0376 8,-349.0376"/>
<polygon fill="#f5f5f5" stroke="transparent" points="8,-386.5376 8,-409.5376 90,-409.5376 90,-386.5376 8,-386.5376"/>
<polygon fill="none" stroke="#000000" points="8,-386.5376 8,-409.5376 90,-409.5376 90,-386.5376 8,-386.5376"/>
<text text-anchor="start" x="12.9393" y="-395.6376" font-family="Helvetica,sans-Serif" font-weight="bold" font-size="11.00" fill="#000000">address</text>
<text text-anchor="start" x="55.5219" y="-394.6376" font-family="Helvetica,sans-Serif" font-size="11.00" fill="#000000">[table]</text>
<polygon fill="none" stroke="#000000" points="8,-367.5376 8,-386.5376 90,-386.5376 90,-367.5376 8,-367.5376"/>
<text text-anchor="start" x="11" y="-373.6376" font-family="Helvetica,sans-Serif" font-size="11.00" fill="#000000">...</text>
<polygon fill="#ffffff" stroke="transparent" points="8,-348.5376 8,-367.5376 30,-367.5376 30,-348.5376 8,-348.5376"/>
<polygon fill="none" stroke="#000000" points="8,-348.5376 8,-367.5376 30,-367.5376 30,-348.5376 8,-348.5376"/>
<text text-anchor="start" x="11" y="-354.6376" font-family="Helvetica,sans-Serif" font-size="11.00" fill="#000000">&lt; 1</text>
<polygon fill="#ffffff" stroke="transparent" points="30,-348.5376 30,-367.5376 68,-367.5376 68,-348.5376 30,-348.5376"/>
<polygon fill="none" stroke="#000000" points="30,-348.5376 30,-367.5376 68,-367.5376 68,-348.5376 30,-348.5376"/>
<text text-anchor="start" x="32.8053" y="-354.6376" font-family="Helvetica,sans-Serif" font-size="11.00" fill="#000000">0 rows</text>
<polygon fill="#ffffff" stroke="transparent" points="68,-348.5376 68,-367.5376 90,-367.5376 90,-348.5376 68,-348.5376"/>
<polygon fill="none" stroke="#000000" points="68,-348.5376 68,-367.5376 90,-367.5376 90,-348.5376 68,-348.5376"/>
<text text-anchor="start" x="71.4053" y="-354.6376" font-family="Helvetica,sans-Serif" font-size="11.00" fill="#000000">3 &gt;</text>
</a>
</g>
</g>
<!-- customer&#45;&gt;address -->
<g id="edge1" class="edge">
<title>customer:w&#45;&gt;address:e</title>
<path fill="none" stroke="#000000" d="M497.3966,-354.3426C339.2797,-350.0946 284.1615,-278.4753 131,-338.5376 107.8697,-347.6082 114.8452,-376.5376 90,-376.5376"/>
<polygon fill="#000000" stroke="#000000" points="504.0007,-354.4307 511.9519,-358.1373 508.0004,-354.4842 512,-354.5376 512,-354.5376 512,-354.5376 508.0004,-354.4842 512.0481,-350.938 504.0007,-354.4307 504.0007,-354.4307"/>
<ellipse fill="none" stroke="#000000" cx="500.801" cy="-354.388" rx="3.2" ry="3.2"/>
</g>
<!-- store -->
<g id="node3" class="node">
<title>store</title>
<g id="a_node3"><a xlink:href="../../tables/store.html" xlink:title="store" target="_top">
<polygon fill="#ffffff" stroke="transparent" points="286.5,-624.0376 286.5,-751.0376 406.5,-751.0376 406.5,-624.0376 286.5,-624.0376"/>
<polygon fill="#f5f5f5" stroke="transparent" points="286.5,-727.5376 286.5,-750.5376 406.5,-750.5376 406.5,-727.5376 286.5,-727.5376"/>
<polygon fill="none" stroke="#000000" points="286.5,-727.5376 286.5,-750.5376 406.5,-750.5376 406.5,-727.5376 286.5,-727.5376"/>
<text text-anchor="start" x="291.5" y="-736.6376" font-family="Helvetica,sans-Serif" font-weight="bold" font-size="11.00" fill="#000000">store</text>
<text text-anchor="start" x="371.5437" y="-735.6376" font-family="Helvetica,sans-Serif" font-size="11.00" fill="#000000">[table]</text>
<polygon fill="none" stroke="#000000" points="286.5,-705.5376 286.5,-727.5376 406.5,-727.5376 406.5,-705.5376 286.5,-705.5376"/>
<image xlink:href="../../images/primaryKeys.png" width="11px" height="12px" preserveAspectRatio="xMinYMin meet" x="291.5" y="-722.538"/>
<text text-anchor="start" x="306.5" y="-712.6376" font-family="Helvetica,sans-Serif" font-size="11.00" fill="#000000">store_id</text>
<polygon fill="#ffffff" stroke="transparent" points="286.5,-683.5376 286.5,-705.5376 406.5,-705.5376 406.5,-683.5376 286.5,-683.5376"/>
<polygon fill="none" stroke="#000000" points="286.5,-683.5376 286.5,-705.5376 406.5,-705.5376 406.5,-683.5376 286.5,-683.5376"/>
<image xlink:href="../../images/foreignKeys.png" width="11px" height="12px" preserveAspectRatio="xMinYMin meet" x="291.5" y="-700.538"/>
<text text-anchor="start" x="306.5" y="-690.6376" font-family="Helvetica,sans-Serif" font-size="11.00" fill="#000000">manager_staff_id</text>
<polygon fill="none" stroke="#000000" points="286.5,-661.5376 286.5,-683.5376 406.5,-683.5376 406.5,-661.5376 286.5,-661.5376"/>
<image xlink:href="../../images/foreignKeys.png" width="11px" height="12px" preserveAspectRatio="xMinYMin meet" x="291.5" y="-678.538"/>
<text text-anchor="start" x="306.5" y="-668.6376" font-family="Helvetica,sans-Serif" font-size="11.00" fill="#000000">address_id</text>
<polygon fill="none" stroke="#000000" points="286.5,-642.5376 286.5,-661.5376 406.5,-661.5376 406.5,-642.5376 286.5,-642.5376"/>
<text text-anchor="start" x="289.5" y="-648.6376" font-family="Helvetica,sans-Serif" font-size="11.00" fill="#000000">...</text>
<polygon fill="#ffffff" stroke="transparent" points="286.5,-623.5376 286.5,-642.5376 327.5,-642.5376 327.5,-623.5376 286.5,-623.5376"/>
<polygon fill="none" stroke="#000000" points="286.5,-623.5376 286.5,-642.5376 327.5,-642.5376 327.5,-623.5376 286.5,-623.5376"/>
<text text-anchor="start" x="289.5" y="-629.6376" font-family="Helvetica,sans-Serif" font-size="11.00" fill="#000000">&lt; 2</text>
<polygon fill="#ffffff" stroke="transparent" points="327.5,-623.5376 327.5,-642.5376 375.5,-642.5376 375.5,-623.5376 327.5,-623.5376"/>
<polygon fill="none" stroke="#000000" points="327.5,-623.5376 327.5,-642.5376 375.5,-642.5376 375.5,-623.5376 327.5,-623.5376"/>
<text text-anchor="start" x="340.1105" y="-629.6376" font-family="Helvetica,sans-Serif" font-size="11.00" fill="#000000">0 rows</text>
<polygon fill="#ffffff" stroke="transparent" points="375.5,-623.5376 375.5,-642.5376 406.5,-642.5376 406.5,-623.5376 375.5,-623.5376"/>
<polygon fill="none" stroke="#000000" points="375.5,-623.5376 375.5,-642.5376 406.5,-642.5376 406.5,-623.5376 375.5,-623.5376"/>
<text text-anchor="start" x="387.9053" y="-629.6376" font-family="Helvetica,sans-Serif" font-size="11.00" fill="#000000">3 &gt;</text>
</a>
</g>
</g>
<!-- customer&#45;&gt;store -->
<g id="edge2" class="edge">
<title>customer:w&#45;&gt;store:e</title>
<path fill="none" stroke="#000000" d="M497.9274,-358.6031C435.3993,-398.3736 485.0542,-716.5376 406.5,-716.5376"/>
<polygon fill="#000000" stroke="#000000" points="504.3143,-356.758 512.9992,-357.9962 508.1571,-355.6478 512,-354.5376 512,-354.5376 512,-354.5376 508.1571,-355.6478 511.0008,-351.0791 504.3143,-356.758 504.3143,-356.758"/>
<ellipse fill="none" stroke="#000000" cx="501.24" cy="-357.6461" rx="3.2" ry="3.2"/>
</g>
<!-- store&#45;&gt;address -->
<g id="edge35" class="edge">
<title>store:w&#45;&gt;address:e</title>
<path fill="none" stroke="#000000" d="M273.7758,-665.5127C226.1007,-620.6882 125.8524,-376.5376 90,-376.5376"/>
<polygon fill="#000000" stroke="#000000" points="279.4965,-668.671 284.76,-675.6892 282.9982,-670.6043 286.5,-672.5376 286.5,-672.5376 286.5,-672.5376 282.9982,-670.6043 288.24,-669.386 279.4965,-668.671 279.4965,-668.671"/>
<ellipse fill="none" stroke="#000000" cx="276.695" cy="-667.1244" rx="3.2" ry="3.2"/>
</g>
<!-- staff -->
<g id="node11" class="node">
<title>staff</title>
<g id="a_node11"><a xlink:href="../../tables/staff.html" xlink:title="staff" target="_top">
<polygon fill="#ffffff" stroke="transparent" points="143,-349.0376 143,-410.0376 223,-410.0376 223,-349.0376 143,-349.0376"/>
<polygon fill="#f5f5f5" stroke="transparent" points="143,-386.5376 143,-409.5376 223,-409.5376 223,-386.5376 143,-386.5376"/>
<polygon fill="none" stroke="#000000" points="143,-386.5376 143,-409.5376 223,-409.5376 223,-386.5376 143,-386.5376"/>
<text text-anchor="start" x="148" y="-395.6376" font-family="Helvetica,sans-Serif" font-weight="bold" font-size="11.00" fill="#000000">staff</text>
<text text-anchor="start" x="188.0437" y="-394.6376" font-family="Helvetica,sans-Serif" font-size="11.00" fill="#000000">[table]</text>
<polygon fill="none" stroke="#000000" points="143,-367.5376 143,-386.5376 223,-386.5376 223,-367.5376 143,-367.5376"/>
<text text-anchor="start" x="146" y="-373.6376" font-family="Helvetica,sans-Serif" font-size="11.00" fill="#000000">...</text>
<polygon fill="#ffffff" stroke="transparent" points="143,-348.5376 143,-367.5376 164,-367.5376 164,-348.5376 143,-348.5376"/>
<polygon fill="none" stroke="#000000" points="143,-348.5376 143,-367.5376 164,-367.5376 164,-348.5376 143,-348.5376"/>
<text text-anchor="start" x="145.7027" y="-354.6376" font-family="Helvetica,sans-Serif" font-size="11.00" fill="#000000">&lt; 2</text>
<polygon fill="#ffffff" stroke="transparent" points="164,-348.5376 164,-367.5376 202,-367.5376 202,-348.5376 164,-348.5376"/>
<polygon fill="none" stroke="#000000" points="164,-348.5376 164,-367.5376 202,-367.5376 202,-348.5376 164,-348.5376"/>
<text text-anchor="start" x="166.8053" y="-354.6376" font-family="Helvetica,sans-Serif" font-size="11.00" fill="#000000">0 rows</text>
<polygon fill="#ffffff" stroke="transparent" points="202,-348.5376 202,-367.5376 223,-367.5376 223,-348.5376 202,-348.5376"/>
<polygon fill="none" stroke="#000000" points="202,-348.5376 202,-367.5376 223,-367.5376 223,-348.5376 202,-348.5376"/>
<text text-anchor="start" x="204.7027" y="-354.6376" font-family="Helvetica,sans-Serif" font-size="11.00" fill="#000000">9 &gt;</text>
</a>
</g>
</g>
<!-- store&#45;&gt;staff -->
<g id="edge36" class="edge">
<title>store:w&#45;&gt;staff:e</title>
<path fill="none" stroke="#000000" d="M276.3286,-691.9779C222.5169,-661.8829 291.2617,-376.5376 223,-376.5376"/>
<polygon fill="#000000" stroke="#000000" points="286.7004,-690.4633 284.748,-698.2214 283.1963,-697.831 285.1488,-690.0728 286.7004,-690.4633"/>
<polyline fill="none" stroke="#000000" points="286.5,-694.5376 282.6209,-693.5614 "/>
<ellipse fill="none" stroke="#000000" cx="279.5177" cy="-692.7804" rx="3.2" ry="3.2"/>
</g>
<!-- film -->
<g id="node4" class="node">
<title>film</title>
<g id="a_node4"><a xlink:href="../../tables/film.html" xlink:title="film" target="_top">
<polygon fill="#ffffff" stroke="transparent" points="276,-772.0376 276,-943.0376 417,-943.0376 417,-772.0376 276,-772.0376"/>
<polygon fill="#f5f5f5" stroke="transparent" points="276.5,-919.5376 276.5,-942.5376 417.5,-942.5376 417.5,-919.5376 276.5,-919.5376"/>
<polygon fill="none" stroke="#000000" points="276.5,-919.5376 276.5,-942.5376 417.5,-942.5376 417.5,-919.5376 276.5,-919.5376"/>
<text text-anchor="start" x="281.5" y="-928.6376" font-family="Helvetica,sans-Serif" font-weight="bold" font-size="11.00" fill="#000000">film</text>
<text text-anchor="start" x="382.5437" y="-927.6376" font-family="Helvetica,sans-Serif" font-size="11.00" fill="#000000">[table]</text>
<polygon fill="none" stroke="#000000" points="276.5,-897.5376 276.5,-919.5376 417.5,-919.5376 417.5,-897.5376 276.5,-897.5376"/>
<image xlink:href="../../images/primaryKeys.png" width="11px" height="12px" preserveAspectRatio="xMinYMin meet" x="281.5" y="-914.538"/>
<text text-anchor="start" x="296.5" y="-904.6376" font-family="Helvetica,sans-Serif" font-size="11.00" fill="#000000">film_id</text>
<polygon fill="#ffffff" stroke="transparent" points="276.5,-875.5376 276.5,-897.5376 417.5,-897.5376 417.5,-875.5376 276.5,-875.5376"/>
<polygon fill="none" stroke="#000000" points="276.5,-875.5376 276.5,-897.5376 417.5,-897.5376 417.5,-875.5376 276.5,-875.5376"/>
<text text-anchor="start" x="296.5" y="-882.6376" font-family="Helvetica,sans-Serif" font-size="11.00" fill="#000000">title</text>
<polygon fill="#ffffff" stroke="transparent" points="276.5,-853.5376 276.5,-875.5376 417.5,-875.5376 417.5,-853.5376 276.5,-853.5376"/>
<polygon fill="none" stroke="#000000" points="276.5,-853.5376 276.5,-875.5376 417.5,-875.5376 417.5,-853.5376 276.5,-853.5376"/>
<image xlink:href="../../images/foreignKeys.png" width="11px" height="12px" preserveAspectRatio="xMinYMin meet" x="281.5" y="-870.538"/>
<text text-anchor="start" x="296.5" y="-860.6376" font-family="Helvetica,sans-Serif" font-size="11.00" fill="#000000">language_id</text>
<polygon fill="#ffffff" stroke="transparent" points="276.5,-831.5376 276.5,-853.5376 417.5,-853.5376 417.5,-831.5376 276.5,-831.5376"/>
<polygon fill="none" stroke="#000000" points="276.5,-831.5376 276.5,-853.5376 417.5,-853.5376 417.5,-831.5376 276.5,-831.5376"/>
<image xlink:href="../../images/foreignKeys.png" width="11px" height="12px" preserveAspectRatio="xMinYMin meet" x="281.5" y="-848.538"/>
<text text-anchor="start" x="296.5" y="-838.6376" font-family="Helvetica,sans-Serif" font-size="11.00" fill="#000000">original_language_id</text>
<polygon fill="#ffffff" stroke="transparent" points="276.5,-809.5376 276.5,-831.5376 417.5,-831.5376 417.5,-809.5376 276.5,-809.5376"/>
<polygon fill="none" stroke="#000000" points="276.5,-809.5376 276.5,-831.5376 417.5,-831.5376 417.5,-809.5376 276.5,-809.5376"/>
<text text-anchor="start" x="296.5" y="-816.6376" font-family="Helvetica,sans-Serif" font-size="11.00" fill="#000000">fulltext</text>
<polygon fill="none" stroke="#000000" points="276.5,-790.5376 276.5,-809.5376 417.5,-809.5376 417.5,-790.5376 276.5,-790.5376"/>
<text text-anchor="start" x="279.5" y="-796.6376" font-family="Helvetica,sans-Serif" font-size="11.00" fill="#000000">...</text>
<polygon fill="#ffffff" stroke="transparent" points="276.5,-771.5376 276.5,-790.5376 327.5,-790.5376 327.5,-771.5376 276.5,-771.5376"/>
<polygon fill="none" stroke="#000000" points="276.5,-771.5376 276.5,-790.5376 327.5,-790.5376 327.5,-771.5376 276.5,-771.5376"/>
<text text-anchor="start" x="279.5" y="-777.6376" font-family="Helvetica,sans-Serif" font-size="11.00" fill="#000000">&lt; 2</text>
<polygon fill="#ffffff" stroke="transparent" points="327.5,-771.5376 327.5,-790.5376 380.5,-790.5376 380.5,-771.5376 327.5,-771.5376"/>
<polygon fill="none" stroke="#000000" points="327.5,-771.5376 327.5,-790.5376 380.5,-790.5376 380.5,-771.5376 327.5,-771.5376"/>
<text text-anchor="start" x="345.1105" y="-777.6376" font-family="Helvetica,sans-Serif" font-size="11.00" fill="#000000">0 rows</text>
<polygon fill="#ffffff" stroke="transparent" points="380.5,-771.5376 380.5,-790.5376 417.5,-790.5376 417.5,-771.5376 380.5,-771.5376"/>
<polygon fill="none" stroke="#000000" points="380.5,-771.5376 380.5,-790.5376 417.5,-790.5376 417.5,-771.5376 380.5,-771.5376"/>
<text text-anchor="start" x="398.9053" y="-777.6376" font-family="Helvetica,sans-Serif" font-size="11.00" fill="#000000">3 &gt;</text>
</a>
</g>
</g>
<!-- language -->
<g id="node5" class="node">
<title>language</title>
<g id="a_node5"><a xlink:href="../../tables/language.html" xlink:title="language" target="_top">
<polygon fill="#ffffff" stroke="transparent" points="139,-826.0376 139,-887.0376 227,-887.0376 227,-826.0376 139,-826.0376"/>
<polygon fill="#f5f5f5" stroke="transparent" points="139,-863.5376 139,-886.5376 227,-886.5376 227,-863.5376 139,-863.5376"/>
<polygon fill="none" stroke="#000000" points="139,-863.5376 139,-886.5376 227,-886.5376 227,-863.5376 139,-863.5376"/>
<text text-anchor="start" x="143.8774" y="-872.6376" font-family="Helvetica,sans-Serif" font-weight="bold" font-size="11.00" fill="#000000">language</text>
<text text-anchor="start" x="192.5219" y="-871.6376" font-family="Helvetica,sans-Serif" font-size="11.00" fill="#000000">[table]</text>
<polygon fill="none" stroke="#000000" points="139,-844.5376 139,-863.5376 227,-863.5376 227,-844.5376 139,-844.5376"/>
<text text-anchor="start" x="142" y="-850.6376" font-family="Helvetica,sans-Serif" font-size="11.00" fill="#000000">...</text>
<polygon fill="#ffffff" stroke="transparent" points="139,-825.5376 139,-844.5376 159,-844.5376 159,-825.5376 139,-825.5376"/>
<polygon fill="none" stroke="#000000" points="139,-825.5376 139,-844.5376 159,-844.5376 159,-825.5376 139,-825.5376"/>
<text text-anchor="start" x="142" y="-831.6376" font-family="Helvetica,sans-Serif" font-size="11.00" fill="#000000"> &#160;</text>
<polygon fill="#ffffff" stroke="transparent" points="159,-825.5376 159,-844.5376 201,-844.5376 201,-825.5376 159,-825.5376"/>
<polygon fill="none" stroke="#000000" points="159,-825.5376 159,-844.5376 201,-844.5376 201,-825.5376 159,-825.5376"/>
<text text-anchor="start" x="165.6105" y="-831.6376" font-family="Helvetica,sans-Serif" font-size="11.00" fill="#000000">0 rows</text>
<polygon fill="#ffffff" stroke="transparent" points="201,-825.5376 201,-844.5376 227,-844.5376 227,-825.5376 201,-825.5376"/>
<polygon fill="none" stroke="#000000" points="201,-825.5376 201,-844.5376 227,-844.5376 227,-825.5376 201,-825.5376"/>
<text text-anchor="start" x="208.4053" y="-831.6376" font-family="Helvetica,sans-Serif" font-size="11.00" fill="#000000">2 &gt;</text>
</a>
</g>
</g>
<!-- film&#45;&gt;language -->
<g id="edge3" class="edge">
<title>film:w&#45;&gt;language:e</title>
<path fill="none" stroke="#000000" d="M262.0598,-862.7212C250.4771,-859.5969 243.7264,-853.5376 227,-853.5376"/>
<polygon fill="#000000" stroke="#000000" points="268.5626,-863.5391 276.0507,-868.1095 272.5313,-864.0384 276.5,-864.5376 276.5,-864.5376 276.5,-864.5376 272.5313,-864.0384 276.9493,-860.9658 268.5626,-863.5391 268.5626,-863.5391"/>
<ellipse fill="none" stroke="#000000" cx="265.3876" cy="-863.1397" rx="3.2" ry="3.2"/>
</g>
<!-- film&#45;&gt;language -->
<g id="edge4" class="edge">
<title>film:w&#45;&gt;language:e</title>
<path fill="none" stroke="#000000" d="M262.0598,-844.3541C250.4771,-847.4784 243.7264,-853.5376 227,-853.5376"/>
<polygon fill="#000000" stroke="#000000" points="268.5626,-843.5361 276.9493,-846.1095 272.5313,-843.0369 276.5,-842.5376 276.5,-842.5376 276.5,-842.5376 272.5313,-843.0369 276.0507,-838.9658 268.5626,-843.5361 268.5626,-843.5361"/>
<ellipse fill="none" stroke="#000000" cx="265.3876" cy="-843.9355" rx="3.2" ry="3.2"/>
</g>
<!-- film_actor -->
<g id="node6" class="node">
<title>film_actor</title>
<g id="a_node6"><a xlink:href="../../tables/film_actor.html" xlink:title="film_actor" target="_top">
<polygon fill="#ffffff" stroke="transparent" points="511,-931.0376 511,-992.0376 601,-992.0376 601,-931.0376 511,-931.0376"/>
<polygon fill="#f5f5f5" stroke="transparent" points="511,-968.5376 511,-991.5376 601,-991.5376 601,-968.5376 511,-968.5376"/>
<polygon fill="none" stroke="#000000" points="511,-968.5376 511,-991.5376 601,-991.5376 601,-968.5376 511,-968.5376"/>
<text text-anchor="start" x="515.668" y="-977.6376" font-family="Helvetica,sans-Serif" font-weight="bold" font-size="11.00" fill="#000000">film_actor</text>
<text text-anchor="start" x="566.5219" y="-976.6376" font-family="Helvetica,sans-Serif" font-size="11.00" fill="#000000">[table]</text>
<polygon fill="none" stroke="#000000" points="511,-949.5376 511,-968.5376 601,-968.5376 601,-949.5376 511,-949.5376"/>
<text text-anchor="start" x="514" y="-955.6376" font-family="Helvetica,sans-Serif" font-size="11.00" fill="#000000">...</text>
<polygon fill="#ffffff" stroke="transparent" points="511,-930.5376 511,-949.5376 541,-949.5376 541,-930.5376 511,-930.5376"/>
<polygon fill="none" stroke="#000000" points="511,-930.5376 511,-949.5376 541,-949.5376 541,-930.5376 511,-930.5376"/>
<text text-anchor="start" x="514" y="-936.6376" font-family="Helvetica,sans-Serif" font-size="11.00" fill="#000000">&lt; 2</text>
<polygon fill="#ffffff" stroke="transparent" points="541,-930.5376 541,-949.5376 584,-949.5376 584,-930.5376 541,-930.5376"/>
<polygon fill="none" stroke="#000000" points="541,-930.5376 541,-949.5376 584,-949.5376 584,-930.5376 541,-930.5376"/>
<text text-anchor="start" x="548.6105" y="-936.6376" font-family="Helvetica,sans-Serif" font-size="11.00" fill="#000000">0 rows</text>
<polygon fill="#ffffff" stroke="transparent" points="584,-930.5376 584,-949.5376 601,-949.5376 601,-930.5376 584,-930.5376"/>
<polygon fill="none" stroke="#000000" points="584,-930.5376 584,-949.5376 601,-949.5376 601,-930.5376 584,-930.5376"/>
<text text-anchor="start" x="591.8862" y="-936.6376" font-family="Helvetica,sans-Serif" font-size="11.00" fill="#000000"> &#160;</text>
</a>
</g>
</g>
<!-- film_actor&#45;&gt;film -->
<g id="edge5" class="edge">
<title>film_actor:w&#45;&gt;film:e</title>
<path fill="none" stroke="#000000" d="M496.6889,-956.7581C463.431,-947.8511 459.2859,-908.5376 417.5,-908.5376"/>
<polygon fill="#000000" stroke="#000000" points="503.0611,-957.5504 510.5558,-962.1101 507.0306,-958.044 511,-958.5376 511,-958.5376 511,-958.5376 507.0306,-958.044 511.4442,-954.9652 503.0611,-957.5504 503.0611,-957.5504"/>
<ellipse fill="none" stroke="#000000" cx="499.8856" cy="-957.1555" rx="3.2" ry="3.2"/>
</g>
<!-- film_category -->
<g id="node7" class="node">
<title>film_category</title>
<g id="a_node7"><a xlink:href="../../tables/film_category.html" xlink:title="film_category" target="_top">
<polygon fill="#ffffff" stroke="transparent" points="502,-849.0376 502,-910.0376 610,-910.0376 610,-849.0376 502,-849.0376"/>
<polygon fill="#f5f5f5" stroke="transparent" points="502,-886.5376 502,-909.5376 610,-909.5376 610,-886.5376 502,-886.5376"/>
<polygon fill="none" stroke="#000000" points="502,-886.5376 502,-909.5376 610,-909.5376 610,-886.5376 502,-886.5376"/>
<text text-anchor="start" x="506.8031" y="-895.6376" font-family="Helvetica,sans-Serif" font-weight="bold" font-size="11.00" fill="#000000">film_category</text>
<text text-anchor="start" x="575.5219" y="-894.6376" font-family="Helvetica,sans-Serif" font-size="11.00" fill="#000000">[table]</text>
<polygon fill="none" stroke="#000000" points="502,-867.5376 502,-886.5376 610,-886.5376 610,-867.5376 502,-867.5376"/>
<text text-anchor="start" x="505" y="-873.6376" font-family="Helvetica,sans-Serif" font-size="11.00" fill="#000000">...</text>
<polygon fill="#ffffff" stroke="transparent" points="502,-848.5376 502,-867.5376 541,-867.5376 541,-848.5376 502,-848.5376"/>
<polygon fill="none" stroke="#000000" points="502,-848.5376 502,-867.5376 541,-867.5376 541,-848.5376 502,-848.5376"/>
<text text-anchor="start" x="505" y="-854.6376" font-family="Helvetica,sans-Serif" font-size="11.00" fill="#000000">&lt; 2</text>
<polygon fill="#ffffff" stroke="transparent" points="541,-848.5376 541,-867.5376 588,-867.5376 588,-848.5376 541,-848.5376"/>
<polygon fill="none" stroke="#000000" points="541,-848.5376 541,-867.5376 588,-867.5376 588,-848.5376 541,-848.5376"/>
<text text-anchor="start" x="552.6105" y="-854.6376" font-family="Helvetica,sans-Serif" font-size="11.00" fill="#000000">0 rows</text>
<polygon fill="#ffffff" stroke="transparent" points="588,-848.5376 588,-867.5376 610,-867.5376 610,-848.5376 588,-848.5376"/>
<polygon fill="none" stroke="#000000" points="588,-848.5376 588,-867.5376 610,-867.5376 610,-848.5376 588,-848.5376"/>
<text text-anchor="start" x="600.8862" y="-854.6376" font-family="Helvetica,sans-Serif" font-size="11.00" fill="#000000"> &#160;</text>
</a>
</g>
</g>
<!-- film_category&#45;&gt;film -->
<g id="edge6" class="edge">
<title>film_category:w&#45;&gt;film:e</title>
<path fill="none" stroke="#000000" d="M487.3623,-878.1685C460.0253,-884.6895 452.1679,-908.5376 417.5,-908.5376"/>
<polygon fill="#000000" stroke="#000000" points="494.0492,-877.4235 502.3987,-880.1155 498.0246,-876.9806 502,-876.5376 502,-876.5376 502,-876.5376 498.0246,-876.9806 501.6013,-872.9598 494.0492,-877.4235 494.0492,-877.4235"/>
<ellipse fill="none" stroke="#000000" cx="490.8689" cy="-877.7779" rx="3.2" ry="3.2"/>
</g>
<!-- inventory -->
<g id="node8" class="node">
<title>inventory</title>
<g id="a_node8"><a xlink:href="../../tables/inventory.html" xlink:title="inventory" target="_top">
<polygon fill="#ffffff" stroke="transparent" points="466,-662.5376 466,-796.5376 646,-796.5376 646,-662.5376 466,-662.5376"/>
<polygon fill="#f5f5f5" stroke="transparent" points="468,-771.5376 468,-794.5376 644,-794.5376 644,-771.5376 468,-771.5376"/>
<polygon fill="none" stroke="#000000" points="468,-771.5376 468,-794.5376 644,-794.5376 644,-771.5376 468,-771.5376"/>
<text text-anchor="start" x="473" y="-780.6376" font-family="Helvetica,sans-Serif" font-weight="bold" font-size="11.00" fill="#000000">inventory</text>
<text text-anchor="start" x="609.0437" y="-779.6376" font-family="Helvetica,sans-Serif" font-size="11.00" fill="#000000">[table]</text>
<polygon fill="none" stroke="#000000" points="468,-749.5376 468,-771.5376 560,-771.5376 560,-749.5376 468,-749.5376"/>
<image xlink:href="../../images/primaryKeys.png" width="11px" height="12px" preserveAspectRatio="xMinYMin meet" x="473" y="-766.538"/>
<text text-anchor="start" x="488" y="-756.6376" font-family="Helvetica,sans-Serif" font-size="11.00" fill="#000000">inventory_id</text>
<polygon fill="none" stroke="#000000" points="560,-749.5376 560,-771.5376 644,-771.5376 644,-749.5376 560,-749.5376"/>
<text text-anchor="start" x="563" y="-757.2376" font-family="Helvetica,sans-Serif" font-size="11.00" fill="#000000">serial[10]</text>
<polygon fill="#ffffff" stroke="transparent" points="468,-727.5376 468,-749.5376 560,-749.5376 560,-727.5376 468,-727.5376"/>
<polygon fill="none" stroke="#000000" points="468,-727.5376 468,-749.5376 560,-749.5376 560,-727.5376 468,-727.5376"/>
<image xlink:href="../../images/foreignKeys.png" width="11px" height="12px" preserveAspectRatio="xMinYMin meet" x="473" y="-744.538"/>
<text text-anchor="start" x="488" y="-734.6376" font-family="Helvetica,sans-Serif" font-size="11.00" fill="#000000">film_id</text>
<polygon fill="none" stroke="#000000" points="560,-727.5376 560,-749.5376 644,-749.5376 644,-727.5376 560,-727.5376"/>
<text text-anchor="start" x="563" y="-735.2376" font-family="Helvetica,sans-Serif" font-size="11.00" fill="#000000">int2[5]</text>
<polygon fill="#ffffff" stroke="transparent" points="468,-705.5376 468,-727.5376 560,-727.5376 560,-705.5376 468,-705.5376"/>
<polygon fill="none" stroke="#000000" points="468,-705.5376 468,-727.5376 560,-727.5376 560,-705.5376 468,-705.5376"/>
<image xlink:href="../../images/foreignKeys.png" width="11px" height="12px" preserveAspectRatio="xMinYMin meet" x="473" y="-722.538"/>
<text text-anchor="start" x="488" y="-712.6376" font-family="Helvetica,sans-Serif" font-size="11.00" fill="#000000">store_id</text>
<polygon fill="none" stroke="#000000" points="560,-705.5376 560,-727.5376 644,-727.5376 644,-705.5376 560,-705.5376"/>
<text text-anchor="start" x="563" y="-713.2376" font-family="Helvetica,sans-Serif" font-size="11.00" fill="#000000">int2[5]</text>
<polygon fill="none" stroke="#000000" points="468,-683.5376 468,-705.5376 560,-705.5376 560,-683.5376 468,-683.5376"/>
<text text-anchor="start" x="488" y="-690.6376" font-family="Helvetica,sans-Serif" font-size="11.00" fill="#000000">last_update</text>
<polygon fill="none" stroke="#000000" points="560,-683.5376 560,-705.5376 644,-705.5376 644,-683.5376 560,-683.5376"/>
<text text-anchor="start" x="562.8807" y="-691.2376" font-family="Helvetica,sans-Serif" font-size="11.00" fill="#000000">timestamp[29,6]</text>
<polygon fill="#ffffff" stroke="transparent" points="468,-664.5376 468,-683.5376 505,-683.5376 505,-664.5376 468,-664.5376"/>
<polygon fill="none" stroke="#000000" points="468,-664.5376 468,-683.5376 505,-683.5376 505,-664.5376 468,-664.5376"/>
<text text-anchor="start" x="471" y="-670.6376" font-family="Helvetica,sans-Serif" font-size="11.00" fill="#000000">&lt; 2</text>
<polygon fill="#ffffff" stroke="transparent" points="505,-664.5376 505,-683.5376 560,-683.5376 560,-664.5376 505,-664.5376"/>
<polygon fill="none" stroke="#000000" points="505,-664.5376 505,-683.5376 560,-683.5376 560,-664.5376 505,-664.5376"/>
<text text-anchor="start" x="524.6105" y="-670.6376" font-family="Helvetica,sans-Serif" font-size="11.00" fill="#000000">0 rows</text>
<polygon fill="#ffffff" stroke="transparent" points="560,-664.5376 560,-683.5376 644,-683.5376 644,-664.5376 560,-664.5376"/>
<polygon fill="none" stroke="#000000" points="560,-664.5376 560,-683.5376 644,-683.5376 644,-664.5376 560,-664.5376"/>
<text text-anchor="start" x="625.4053" y="-670.6376" font-family="Helvetica,sans-Serif" font-size="11.00" fill="#000000">1 &gt;</text>
<polygon fill="none" stroke="#000000" stroke-width="2" points="467,-663.5376 467,-795.5376 645,-795.5376 645,-663.5376 467,-663.5376"/>
</a>
</g>
</g>
<!-- inventory&#45;&gt;store -->
<g id="edge8" class="edge">
<title>inventory:w&#45;&gt;store:e</title>
<path fill="none" stroke="#000000" d="M453.5376,-716.5376C437.0448,-716.5376 428.2813,-716.5376 406.5,-716.5376"/>
<polygon fill="#000000" stroke="#000000" points="460,-716.5377 468,-720.1376 464,-716.5377 468,-716.5376 468,-716.5376 468,-716.5376 464,-716.5377 468,-712.9376 460,-716.5377 460,-716.5377"/>
<ellipse fill="none" stroke="#000000" cx="456.8" cy="-716.5377" rx="3.2" ry="3.2"/>
</g>
<!-- inventory&#45;&gt;film -->
<g id="edge7" class="edge">
<title>inventory:w&#45;&gt;film:e</title>
<path fill="none" stroke="#000000" d="M453.6854,-741.0727C403.6948,-762.2202 490.6229,-908.5376 417.5,-908.5376"/>
<polygon fill="#000000" stroke="#000000" points="460.1226,-739.9327 468.6278,-742.0825 464.0613,-739.2352 468,-738.5376 468,-738.5376 468,-738.5376 464.0613,-739.2352 467.3722,-734.9928 460.1226,-739.9327 460.1226,-739.9327"/>
<ellipse fill="none" stroke="#000000" cx="456.9716" cy="-740.4908" rx="3.2" ry="3.2"/>
</g>
<!-- payment -->
<g id="node9" class="node">
<title>payment</title>
<g id="a_node9"><a xlink:href="../../tables/payment.html" xlink:title="payment" target="_top">
<polygon fill="#ffffff" stroke="transparent" points="863.5,-205.0376 863.5,-266.0376 948.5,-266.0376 948.5,-205.0376 863.5,-205.0376"/>
<polygon fill="#f5f5f5" stroke="transparent" points="864,-242.5376 864,-265.5376 949,-265.5376 949,-242.5376 864,-242.5376"/>
<polygon fill="none" stroke="#000000" points="864,-242.5376 864,-265.5376 949,-265.5376 949,-242.5376 864,-242.5376"/>
<text text-anchor="start" x="868.9108" y="-251.6376" font-family="Helvetica,sans-Serif" font-weight="bold" font-size="11.00" fill="#000000">payment</text>
<text text-anchor="start" x="914.5219" y="-250.6376" font-family="Helvetica,sans-Serif" font-size="11.00" fill="#000000">[table]</text>
<polygon fill="none" stroke="#000000" points="864,-223.5376 864,-242.5376 949,-242.5376 949,-223.5376 864,-223.5376"/>
<text text-anchor="start" x="867" y="-229.6376" font-family="Helvetica,sans-Serif" font-size="11.00" fill="#000000">...</text>
<polygon fill="#ffffff" stroke="transparent" points="864,-204.5376 864,-223.5376 892,-223.5376 892,-204.5376 864,-204.5376"/>
<polygon fill="none" stroke="#000000" points="864,-204.5376 864,-223.5376 892,-223.5376 892,-204.5376 864,-204.5376"/>
<text text-anchor="start" x="867" y="-210.6376" font-family="Helvetica,sans-Serif" font-size="11.00" fill="#000000">&lt; 3</text>
<polygon fill="#ffffff" stroke="transparent" points="892,-204.5376 892,-223.5376 933,-223.5376 933,-204.5376 892,-204.5376"/>
<polygon fill="none" stroke="#000000" points="892,-204.5376 892,-223.5376 933,-223.5376 933,-204.5376 892,-204.5376"/>
<text text-anchor="start" x="897.6105" y="-210.6376" font-family="Helvetica,sans-Serif" font-size="11.00" fill="#000000">0 rows</text>
<polygon fill="#ffffff" stroke="transparent" points="933,-204.5376 933,-223.5376 949,-223.5376 949,-204.5376 933,-204.5376"/>
<polygon fill="none" stroke="#000000" points="933,-204.5376 933,-223.5376 949,-223.5376 949,-204.5376 933,-204.5376"/>
<text text-anchor="start" x="939.8862" y="-210.6376" font-family="Helvetica,sans-Serif" font-size="11.00" fill="#000000"> &#160;</text>
</a>
</g>
</g>
<!-- payment&#45;&gt;customer -->
<g id="edge9" class="edge">
<title>payment:w&#45;&gt;customer:e</title>
<path fill="none" stroke="#000000" d="M849.3755,-232.2074C781.4103,-229.133 752.2765,-206.384 687,-240.5376 630.5272,-270.0851 663.7356,-354.5376 600,-354.5376"/>
<polygon fill="#000000" stroke="#000000" points="856.002,-232.357 863.9187,-236.1367 860.001,-232.4473 864,-232.5376 864,-232.5376 864,-232.5376 860.001,-232.4473 864.0813,-228.9386 856.002,-232.357 856.002,-232.357"/>
<ellipse fill="none" stroke="#000000" cx="852.8029" cy="-232.2847" rx="3.2" ry="3.2"/>
</g>
<!-- rental -->
<g id="node10" class="node">
<title>rental</title>
<g id="a_node10"><a xlink:href="../../tables/rental.html" xlink:title="rental" target="_top">
<polygon fill="#ffffff" stroke="transparent" points="695,-269.0376 695,-440.0376 787,-440.0376 787,-269.0376 695,-269.0376"/>
<polygon fill="#f5f5f5" stroke="transparent" points="695,-416.5376 695,-439.5376 787,-439.5376 787,-416.5376 695,-416.5376"/>
<polygon fill="none" stroke="#000000" points="695,-416.5376 695,-439.5376 787,-439.5376 787,-416.5376 695,-416.5376"/>
<text text-anchor="start" x="700" y="-425.6376" font-family="Helvetica,sans-Serif" font-weight="bold" font-size="11.00" fill="#000000">rental</text>
<text text-anchor="start" x="752.0437" y="-424.6376" font-family="Helvetica,sans-Serif" font-size="11.00" fill="#000000">[table]</text>
<polygon fill="none" stroke="#000000" points="695,-394.5376 695,-416.5376 787,-416.5376 787,-394.5376 695,-394.5376"/>
<image xlink:href="../../images/primaryKeys.png" width="11px" height="12px" preserveAspectRatio="xMinYMin meet" x="700" y="-411.538"/>
<text text-anchor="start" x="715" y="-401.6376" font-family="Helvetica,sans-Serif" font-size="11.00" fill="#000000">rental_id</text>
<polygon fill="#ffffff" stroke="transparent" points="695,-372.5376 695,-394.5376 787,-394.5376 787,-372.5376 695,-372.5376"/>
<polygon fill="none" stroke="#000000" points="695,-372.5376 695,-394.5376 787,-394.5376 787,-372.5376 695,-372.5376"/>
<text text-anchor="start" x="715" y="-379.6376" font-family="Helvetica,sans-Serif" font-size="11.00" fill="#000000">rental_date</text>
<polygon fill="#ffffff" stroke="transparent" points="695,-350.5376 695,-372.5376 787,-372.5376 787,-350.5376 695,-350.5376"/>
<polygon fill="none" stroke="#000000" points="695,-350.5376 695,-372.5376 787,-372.5376 787,-350.5376 695,-350.5376"/>
<image xlink:href="../../images/foreignKeys.png" width="11px" height="12px" preserveAspectRatio="xMinYMin meet" x="700" y="-367.538"/>
<text text-anchor="start" x="715" y="-357.6376" font-family="Helvetica,sans-Serif" font-size="11.00" fill="#000000">inventory_id</text>
<polygon fill="#ffffff" stroke="transparent" points="695,-328.5376 695,-350.5376 787,-350.5376 787,-328.5376 695,-328.5376"/>
<polygon fill="none" stroke="#000000" points="695,-328.5376 695,-350.5376 787,-350.5376 787,-328.5376 695,-328.5376"/>
<image xlink:href="../../images/foreignKeys.png" width="11px" height="12px" preserveAspectRatio="xMinYMin meet" x="700" y="-345.538"/>
<text text-anchor="start" x="715" y="-335.6376" font-family="Helvetica,sans-Serif" font-size="11.00" fill="#000000">customer_id</text>
<polygon fill="none" stroke="#000000" points="695,-306.5376 695,-328.5376 787,-328.5376 787,-306.5376 695,-306.5376"/>
<image xlink:href="../../images/foreignKeys.png" width="11px" height="12px" preserveAspectRatio="xMinYMin meet" x="700" y="-323.538"/>
<text text-anchor="start" x="715" y="-313.6376" font-family="Helvetica,sans-Serif" font-size="11.00" fill="#000000">staff_id</text>
<polygon fill="none" stroke="#000000" points="695,-287.5376 695,-306.5376 787,-306.5376 787,-287.5376 695,-287.5376"/>
<text text-anchor="start" x="698" y="-293.6376" font-family="Helvetica,sans-Serif" font-size="11.00" fill="#000000">...</text>
<polygon fill="#ffffff" stroke="transparent" points="695,-268.5376 695,-287.5376 722,-287.5376 722,-268.5376 695,-268.5376"/>
<polygon fill="none" stroke="#000000" points="695,-268.5376 695,-287.5376 722,-287.5376 722,-268.5376 695,-268.5376"/>
<text text-anchor="start" x="698" y="-274.6376" font-family="Helvetica,sans-Serif" font-size="11.00" fill="#000000">&lt; 3</text>
<polygon fill="#ffffff" stroke="transparent" points="722,-268.5376 722,-287.5376 763,-287.5376 763,-268.5376 722,-268.5376"/>
<polygon fill="none" stroke="#000000" points="722,-268.5376 722,-287.5376 763,-287.5376 763,-268.5376 722,-268.5376"/>
<text text-anchor="start" x="727.6105" y="-274.6376" font-family="Helvetica,sans-Serif" font-size="11.00" fill="#000000">0 rows</text>
<polygon fill="#ffffff" stroke="transparent" points="763,-268.5376 763,-287.5376 787,-287.5376 787,-268.5376 763,-268.5376"/>
<polygon fill="none" stroke="#000000" points="763,-268.5376 763,-287.5376 787,-287.5376 787,-268.5376 763,-268.5376"/>
<text text-anchor="start" x="768.4053" y="-274.6376" font-family="Helvetica,sans-Serif" font-size="11.00" fill="#000000">7 &gt;</text>
</a>
</g>
</g>
<!-- payment&#45;&gt;rental -->
<g id="edge10" class="edge">
<title>payment:w&#45;&gt;rental:e</title>
<path fill="none" stroke="#000000" d="M849.4523,-234.725C791.1939,-254.7513 865.5721,-405.5376 787,-405.5376"/>
<polygon fill="#000000" stroke="#000000" points="856.0889,-233.7272 864.5353,-236.0976 860.0445,-233.1324 864,-232.5376 864,-232.5376 864,-232.5376 860.0445,-233.1324 863.4647,-228.9777 856.0889,-233.7272 856.0889,-233.7272"/>
<ellipse fill="none" stroke="#000000" cx="852.9245" cy="-234.203" rx="3.2" ry="3.2"/>
</g>
<!-- payment&#45;&gt;staff -->
<g id="edge11" class="edge">
<title>payment:w&#45;&gt;staff:e</title>
<path fill="none" stroke="#000000" d="M849.3946,-232.1321C829.7832,-230.9686 820.2274,-227.6324 795,-226.5376 645.234,-220.0383 607.6183,-231.2394 458,-240.5376 373.5502,-245.7859 335.722,-201.8125 268,-252.5376 221.0756,-287.685 281.6279,-376.5376 223,-376.5376"/>
<polygon fill="#000000" stroke="#000000" points="856.0031,-232.3156 863.9001,-236.1363 860.0015,-232.4266 864,-232.5376 864,-232.5376 864,-232.5376 860.0015,-232.4266 864.0999,-228.939 856.0031,-232.3156 856.0031,-232.3156"/>
<ellipse fill="none" stroke="#000000" cx="852.8043" cy="-232.2267" rx="3.2" ry="3.2"/>
</g>
<!-- rental&#45;&gt;customer -->
<g id="edge30" class="edge">
<title>rental:w&#45;&gt;customer:e</title>
<path fill="none" stroke="#000000" d="M680.3986,-340.1822C649.358,-343.0533 637.4021,-354.5376 600,-354.5376"/>
<polygon fill="#000000" stroke="#000000" points="687.0078,-339.8905 695.1588,-343.1341 691.0039,-339.7141 695,-339.5376 695,-339.5376 695,-339.5376 691.0039,-339.7141 694.8412,-335.9411 687.0078,-339.8905 687.0078,-339.8905"/>
<ellipse fill="none" stroke="#000000" cx="683.8109" cy="-340.0316" rx="3.2" ry="3.2"/>
</g>
<!-- rental&#45;&gt;inventory -->
<g id="edge31" class="edge">
<title>rental:w&#45;&gt;inventory:e</title>
<path fill="none" stroke="#000000" d="M681.0554,-365.7486C620.2887,-408.3913 727.9759,-760.5376 644,-760.5376"/>
<polygon fill="#000000" stroke="#000000" points="687.3416,-363.8504 696.0407,-364.9839 691.1708,-362.694 695,-361.5376 695,-361.5376 695,-361.5376 691.1708,-362.694 693.9593,-358.0913 687.3416,-363.8504 687.3416,-363.8504"/>
<ellipse fill="none" stroke="#000000" cx="684.2782" cy="-364.7755" rx="3.2" ry="3.2"/>
</g>
<!-- rental&#45;&gt;staff -->
<g id="edge32" class="edge">
<title>rental:w&#45;&gt;staff:e</title>
<path fill="none" stroke="#000000" d="M680.5097,-317.3335C672.3161,-317.087 666.2458,-316.687 654,-316.5376 566.8954,-315.4755 544.4316,-305.678 458,-316.5376 351.0459,-329.9758 330.795,-376.5376 223,-376.5376"/>
<polygon fill="#000000" stroke="#000000" points="687.0008,-317.4249 694.9493,-321.1373 691.0004,-317.4813 695,-317.5376 695,-317.5376 695,-317.5376 691.0004,-317.4813 695.0507,-313.938 687.0008,-317.4249 687.0008,-317.4249"/>
<ellipse fill="none" stroke="#000000" cx="683.8011" cy="-317.3798" rx="3.2" ry="3.2"/>
</g>
<!-- staff&#45;&gt;address -->
<g id="edge33" class="edge">
<title>staff:w&#45;&gt;address:e</title>
<path fill="none" stroke="#000000" d="M128.4922,-376.5376C115.5558,-376.5376 107.8507,-376.5376 90,-376.5376"/>
<polygon fill="#000000" stroke="#000000" points="135,-376.5377 143,-380.1376 139,-376.5377 143,-376.5376 143,-376.5376 143,-376.5376 139,-376.5377 143,-372.9376 135,-376.5377 135,-376.5377"/>
<ellipse fill="none" stroke="#000000" cx="131.8" cy="-376.5377" rx="3.2" ry="3.2"/>
</g>
<!-- staff&#45;&gt;store -->
<g id="edge34" class="edge">
<title>staff:w&#45;&gt;store:e</title>
<path fill="none" stroke="#000000" d="M132.9763,-366.1912C119.2874,-335.1763 125.1807,-250.7701 231,-345.0376 299.4866,-406.0479 210.0134,-694.0274 278.5,-755.0376 278.5,-755.0376 406.5,-716.5376 406.5,-716.5376"/>
<polygon fill="#000000" stroke="#000000" points="137.4335,-370.7918 140.4144,-379.0426 140.2167,-373.6647 143,-376.5376 143,-376.5376 143,-376.5376 140.2167,-373.6647 145.5856,-374.0327 137.4335,-370.7918 137.4335,-370.7918"/>
<ellipse fill="none" stroke="#000000" cx="135.2069" cy="-368.4935" rx="3.2" ry="3.2"/>
</g>
<!-- payment_p2007_01 -->
<g id="node12" class="node">
<title>payment_p2007_01</title>
<g id="a_node12"><a xlink:href="../../tables/payment_p2007_01.html" xlink:title="payment_p2007_01" target="_top">
<polygon fill="#ffffff" stroke="transparent" points="836,-123.0376 836,-184.0376 976,-184.0376 976,-123.0376 836,-123.0376"/>
<polygon fill="#f5f5f5" stroke="transparent" points="836,-160.5376 836,-183.5376 976,-183.5376 976,-160.5376 836,-160.5376"/>
<polygon fill="none" stroke="#000000" points="836,-160.5376 836,-183.5376 976,-183.5376 976,-160.5376 836,-160.5376"/>
<text text-anchor="start" x="840.8938" y="-169.6376" font-family="Helvetica,sans-Serif" font-weight="bold" font-size="11.00" fill="#000000">payment_p2007_01</text>
<text text-anchor="start" x="941.5219" y="-168.6376" font-family="Helvetica,sans-Serif" font-size="11.00" fill="#000000">[table]</text>
<polygon fill="none" stroke="#000000" points="836,-141.5376 836,-160.5376 976,-160.5376 976,-141.5376 836,-141.5376"/>
<text text-anchor="start" x="839" y="-147.6376" font-family="Helvetica,sans-Serif" font-size="11.00" fill="#000000">...</text>
<polygon fill="#ffffff" stroke="transparent" points="836,-122.5376 836,-141.5376 891,-141.5376 891,-122.5376 836,-122.5376"/>
<polygon fill="none" stroke="#000000" points="836,-122.5376 836,-141.5376 891,-141.5376 891,-122.5376 836,-122.5376"/>
<text text-anchor="start" x="839" y="-128.6376" font-family="Helvetica,sans-Serif" font-size="11.00" fill="#000000">&lt; 3</text>
<polygon fill="#ffffff" stroke="transparent" points="891,-122.5376 891,-141.5376 946,-141.5376 946,-122.5376 891,-122.5376"/>
<polygon fill="none" stroke="#000000" points="891,-122.5376 891,-141.5376 946,-141.5376 946,-122.5376 891,-122.5376"/>
<text text-anchor="start" x="910.6105" y="-128.6376" font-family="Helvetica,sans-Serif" font-size="11.00" fill="#000000">0 rows</text>
<polygon fill="#ffffff" stroke="transparent" points="946,-122.5376 946,-141.5376 976,-141.5376 976,-122.5376 946,-122.5376"/>
<polygon fill="none" stroke="#000000" points="946,-122.5376 946,-141.5376 976,-141.5376 976,-122.5376 946,-122.5376"/>
<text text-anchor="start" x="966.8862" y="-128.6376" font-family="Helvetica,sans-Serif" font-size="11.00" fill="#000000"> &#160;</text>
</a>
</g>
</g>
<!-- payment_p2007_01&#45;&gt;customer -->
<g id="edge12" class="edge">
<title>payment_p2007_01:w&#45;&gt;customer:e</title>
<path fill="none" stroke="#000000" d="M821.3477,-150.8525C759.905,-153.6371 738.1858,-175.0042 687,-219.5376 633.1487,-266.3901 671.38,-354.5376 600,-354.5376"/>
<polygon fill="#000000" stroke="#000000" points="828.0018,-150.7096 836.0774,-154.1368 832.0009,-150.6236 836,-150.5376 836,-150.5376 836,-150.5376 832.0009,-150.6236 835.9226,-146.9385 828.0018,-150.7096 828.0018,-150.7096"/>
<ellipse fill="none" stroke="#000000" cx="824.8026" cy="-150.7784" rx="3.2" ry="3.2"/>
</g>
<!-- payment_p2007_01&#45;&gt;rental -->
<g id="edge13" class="edge">
<title>payment_p2007_01:w&#45;&gt;rental:e</title>
<path fill="none" stroke="#000000" d="M821.6689,-152.166C736.9852,-173.8836 896.9971,-405.5376 787,-405.5376"/>
<polygon fill="#000000" stroke="#000000" points="828.0511,-151.4409 836.4065,-154.1146 832.0256,-150.9893 836,-150.5376 836,-150.5376 836,-150.5376 832.0256,-150.9893 835.5935,-146.9607 828.0511,-151.4409 828.0511,-151.4409"/>
<ellipse fill="none" stroke="#000000" cx="824.8716" cy="-151.8022" rx="3.2" ry="3.2"/>
</g>
<!-- payment_p2007_01&#45;&gt;staff -->
<g id="edge14" class="edge">
<title>payment_p2007_01:w&#45;&gt;staff:e</title>
<path fill="none" stroke="#000000" d="M821.5984,-150.4418C576.7812,-147.1931 458.0423,-63.4349 268,-225.5376 214.7215,-270.9833 293.0279,-376.5376 223,-376.5376"/>
<polygon fill="#000000" stroke="#000000" points="828.0002,-150.4844 835.976,-154.1376 832.0001,-150.511 836,-150.5376 836,-150.5376 836,-150.5376 832.0001,-150.511 836.024,-146.9377 828.0002,-150.4844 828.0002,-150.4844"/>
<ellipse fill="none" stroke="#000000" cx="824.8002" cy="-150.4631" rx="3.2" ry="3.2"/>
</g>
<!-- payment_p2007_02 -->
<g id="node13" class="node">
<title>payment_p2007_02</title>
<g id="a_node13"><a xlink:href="../../tables/payment_p2007_02.html" xlink:title="payment_p2007_02" target="_top">
<polygon fill="#ffffff" stroke="transparent" points="836,-546.0376 836,-607.0376 976,-607.0376 976,-546.0376 836,-546.0376"/>
<polygon fill="#f5f5f5" stroke="transparent" points="836,-583.5376 836,-606.5376 976,-606.5376 976,-583.5376 836,-583.5376"/>
<polygon fill="none" stroke="#000000" points="836,-583.5376 836,-606.5376 976,-606.5376 976,-583.5376 836,-583.5376"/>
<text text-anchor="start" x="840.8938" y="-592.6376" font-family="Helvetica,sans-Serif" font-weight="bold" font-size="11.00" fill="#000000">payment_p2007_02</text>
<text text-anchor="start" x="941.5219" y="-591.6376" font-family="Helvetica,sans-Serif" font-size="11.00" fill="#000000">[table]</text>
<polygon fill="none" stroke="#000000" points="836,-564.5376 836,-583.5376 976,-583.5376 976,-564.5376 836,-564.5376"/>
<text text-anchor="start" x="839" y="-570.6376" font-family="Helvetica,sans-Serif" font-size="11.00" fill="#000000">...</text>
<polygon fill="#ffffff" stroke="transparent" points="836,-545.5376 836,-564.5376 891,-564.5376 891,-545.5376 836,-545.5376"/>
<polygon fill="none" stroke="#000000" points="836,-545.5376 836,-564.5376 891,-564.5376 891,-545.5376 836,-545.5376"/>
<text text-anchor="start" x="839" y="-551.6376" font-family="Helvetica,sans-Serif" font-size="11.00" fill="#000000">&lt; 3</text>
<polygon fill="#ffffff" stroke="transparent" points="891,-545.5376 891,-564.5376 946,-564.5376 946,-545.5376 891,-545.5376"/>
<polygon fill="none" stroke="#000000" points="891,-545.5376 891,-564.5376 946,-564.5376 946,-545.5376 891,-545.5376"/>
<text text-anchor="start" x="910.6105" y="-551.6376" font-family="Helvetica,sans-Serif" font-size="11.00" fill="#000000">0 rows</text>
<polygon fill="#ffffff" stroke="transparent" points="946,-545.5376 946,-564.5376 976,-564.5376 976,-545.5376 946,-545.5376"/>
<polygon fill="none" stroke="#000000" points="946,-545.5376 946,-564.5376 976,-564.5376 976,-545.5376 946,-545.5376"/>
<text text-anchor="start" x="966.8862" y="-551.6376" font-family="Helvetica,sans-Serif" font-size="11.00" fill="#000000"> &#160;</text>
</a>
</g>
</g>
<!-- payment_p2007_02&#45;&gt;customer -->
<g id="edge15" class="edge">
<title>payment_p2007_02:w&#45;&gt;customer:e</title>
<path fill="none" stroke="#000000" d="M821.5992,-573.1196C757.4678,-569.2171 738.6464,-538.2177 687,-489.5376 635.0571,-440.578 671.38,-354.5376 600,-354.5376"/>
<polygon fill="#000000" stroke="#000000" points="828.0034,-573.3054 835.8955,-577.1361 832.0017,-573.4215 836,-573.5376 836,-573.5376 836,-573.5376 832.0017,-573.4215 836.1045,-569.9392 828.0034,-573.3054 828.0034,-573.3054"/>
<ellipse fill="none" stroke="#000000" cx="824.8047" cy="-573.2126" rx="3.2" ry="3.2"/>
</g>
<!-- payment_p2007_02&#45;&gt;rental -->
<g id="edge16" class="edge">
<title>payment_p2007_02:w&#45;&gt;rental:e</title>
<path fill="none" stroke="#000000" d="M821.5777,-570.8988C773.0237,-549.5256 859.0052,-405.5376 787,-405.5376"/>
<polygon fill="#000000" stroke="#000000" points="828.1306,-572.0977 835.352,-577.0788 832.0653,-572.8177 836,-573.5376 836,-573.5376 836,-573.5376 832.0653,-572.8177 836.648,-569.9964 828.1306,-572.0977 828.1306,-572.0977"/>
<ellipse fill="none" stroke="#000000" cx="824.9829" cy="-571.5218" rx="3.2" ry="3.2"/>
</g>
<!-- payment_p2007_02&#45;&gt;staff -->
<g id="edge17" class="edge">
<title>payment_p2007_02:w&#45;&gt;staff:e</title>
<path fill="none" stroke="#000000" d="M821.3353,-573.5393C572.6295,-573.5785 481.8816,-573.2869 268,-434.5376 240.6284,-416.7812 255.6266,-376.5376 223,-376.5376"/>
<polygon fill="#000000" stroke="#000000" points="828,-573.5386 836.0004,-577.1376 832,-573.5381 836,-573.5376 836,-573.5376 836,-573.5376 832,-573.5381 835.9996,-569.9376 828,-573.5386 828,-573.5386"/>
<ellipse fill="none" stroke="#000000" cx="824.8" cy="-573.539" rx="3.2" ry="3.2"/>
</g>
<!-- payment_p2007_03 -->
<g id="node14" class="node">
<title>payment_p2007_03</title>
<g id="a_node14"><a xlink:href="../../tables/payment_p2007_03.html" xlink:title="payment_p2007_03" target="_top">
<polygon fill="#ffffff" stroke="transparent" points="836,-41.0376 836,-102.0376 976,-102.0376 976,-41.0376 836,-41.0376"/>
<polygon fill="#f5f5f5" stroke="transparent" points="836,-78.5376 836,-101.5376 976,-101.5376 976,-78.5376 836,-78.5376"/>
<polygon fill="none" stroke="#000000" points="836,-78.5376 836,-101.5376 976,-101.5376 976,-78.5376 836,-78.5376"/>
<text text-anchor="start" x="840.8938" y="-87.6376" font-family="Helvetica,sans-Serif" font-weight="bold" font-size="11.00" fill="#000000">payment_p2007_03</text>
<text text-anchor="start" x="941.5219" y="-86.6376" font-family="Helvetica,sans-Serif" font-size="11.00" fill="#000000">[table]</text>
<polygon fill="none" stroke="#000000" points="836,-59.5376 836,-78.5376 976,-78.5376 976,-59.5376 836,-59.5376"/>
<text text-anchor="start" x="839" y="-65.6376" font-family="Helvetica,sans-Serif" font-size="11.00" fill="#000000">...</text>
<polygon fill="#ffffff" stroke="transparent" points="836,-40.5376 836,-59.5376 891,-59.5376 891,-40.5376 836,-40.5376"/>
<polygon fill="none" stroke="#000000" points="836,-40.5376 836,-59.5376 891,-59.5376 891,-40.5376 836,-40.5376"/>
<text text-anchor="start" x="839" y="-46.6376" font-family="Helvetica,sans-Serif" font-size="11.00" fill="#000000">&lt; 3</text>
<polygon fill="#ffffff" stroke="transparent" points="891,-40.5376 891,-59.5376 946,-59.5376 946,-40.5376 891,-40.5376"/>
<polygon fill="none" stroke="#000000" points="891,-40.5376 891,-59.5376 946,-59.5376 946,-40.5376 891,-40.5376"/>
<text text-anchor="start" x="910.6105" y="-46.6376" font-family="Helvetica,sans-Serif" font-size="11.00" fill="#000000">0 rows</text>
<polygon fill="#ffffff" stroke="transparent" points="946,-40.5376 946,-59.5376 976,-59.5376 976,-40.5376 946,-40.5376"/>
<polygon fill="none" stroke="#000000" points="946,-40.5376 946,-59.5376 976,-59.5376 976,-40.5376 946,-40.5376"/>
<text text-anchor="start" x="966.8862" y="-46.6376" font-family="Helvetica,sans-Serif" font-size="11.00" fill="#000000"> &#160;</text>
</a>
</g>
</g>
<!-- payment_p2007_03&#45;&gt;customer -->
<g id="edge18" class="edge">
<title>payment_p2007_03:w&#45;&gt;customer:e</title>
<path fill="none" stroke="#000000" d="M821.5806,-68.8917C757.0919,-72.2145 734.3903,-98.9781 687,-151.5376 621.2688,-224.4387 698.1589,-354.5376 600,-354.5376"/>
<polygon fill="#000000" stroke="#000000" points="828.0024,-68.7341 836.0884,-72.1366 832.0012,-68.6359 836,-68.5376 836,-68.5376 836,-68.5376 832.0012,-68.6359 835.9116,-64.9387 828.0024,-68.7341 828.0024,-68.7341"/>
<ellipse fill="none" stroke="#000000" cx="824.8034" cy="-68.8127" rx="3.2" ry="3.2"/>
</g>
<!-- payment_p2007_03&#45;&gt;rental -->
<g id="edge19" class="edge">
<title>payment_p2007_03:w&#45;&gt;rental:e</title>
<path fill="none" stroke="#000000" d="M822.2484,-73.563C774.1871,-115.4847 857.2076,-405.5376 787,-405.5376"/>
<polygon fill="#000000" stroke="#000000" points="828.486,-71.2836 837.2357,-71.9189 832.243,-69.9106 836,-68.5376 836,-68.5376 836,-68.5376 832.243,-69.9106 834.7643,-65.1563 828.486,-71.2836 828.486,-71.2836"/>
<ellipse fill="none" stroke="#000000" cx="825.4804" cy="-72.382" rx="3.2" ry="3.2"/>
</g>
<!-- payment_p2007_03&#45;&gt;staff -->
<g id="edge20" class="edge">
<title>payment_p2007_03:w&#45;&gt;staff:e</title>
<path fill="none" stroke="#000000" d="M821.2449,-68.4145C576.648,-64.3435 446.7135,38.1777 268,-135.5376 189.8672,-211.4853 331.9623,-376.5376 223,-376.5376"/>
<polygon fill="#000000" stroke="#000000" points="828.0003,-68.4708 835.9699,-72.1375 832.0001,-68.5042 836,-68.5376 836,-68.5376 836,-68.5376 832.0001,-68.5042 836.0301,-64.9378 828.0003,-68.4708 828.0003,-68.4708"/>
<ellipse fill="none" stroke="#000000" cx="824.8004" cy="-68.4441" rx="3.2" ry="3.2"/>
</g>
<!-- payment_p2007_04 -->
<g id="node15" class="node">
<title>payment_p2007_04</title>
<g id="a_node15"><a xlink:href="../../tables/payment_p2007_04.html" xlink:title="payment_p2007_04" target="_top">
<polygon fill="#ffffff" stroke="transparent" points="836,-464.0376 836,-525.0376 976,-525.0376 976,-464.0376 836,-464.0376"/>
<polygon fill="#f5f5f5" stroke="transparent" points="836,-501.5376 836,-524.5376 976,-524.5376 976,-501.5376 836,-501.5376"/>
<polygon fill="none" stroke="#000000" points="836,-501.5376 836,-524.5376 976,-524.5376 976,-501.5376 836,-501.5376"/>
<text text-anchor="start" x="840.8938" y="-510.6376" font-family="Helvetica,sans-Serif" font-weight="bold" font-size="11.00" fill="#000000">payment_p2007_04</text>
<text text-anchor="start" x="941.5219" y="-509.6376" font-family="Helvetica,sans-Serif" font-size="11.00" fill="#000000">[table]</text>
<polygon fill="none" stroke="#000000" points="836,-482.5376 836,-501.5376 976,-501.5376 976,-482.5376 836,-482.5376"/>
<text text-anchor="start" x="839" y="-488.6376" font-family="Helvetica,sans-Serif" font-size="11.00" fill="#000000">...</text>
<polygon fill="#ffffff" stroke="transparent" points="836,-463.5376 836,-482.5376 891,-482.5376 891,-463.5376 836,-463.5376"/>
<polygon fill="none" stroke="#000000" points="836,-463.5376 836,-482.5376 891,-482.5376 891,-463.5376 836,-463.5376"/>
<text text-anchor="start" x="839" y="-469.6376" font-family="Helvetica,sans-Serif" font-size="11.00" fill="#000000">&lt; 3</text>
<polygon fill="#ffffff" stroke="transparent" points="891,-463.5376 891,-482.5376 946,-482.5376 946,-463.5376 891,-463.5376"/>
<polygon fill="none" stroke="#000000" points="891,-463.5376 891,-482.5376 946,-482.5376 946,-463.5376 891,-463.5376"/>
<text text-anchor="start" x="910.6105" y="-469.6376" font-family="Helvetica,sans-Serif" font-size="11.00" fill="#000000">0 rows</text>
<polygon fill="#ffffff" stroke="transparent" points="946,-463.5376 946,-482.5376 976,-482.5376 976,-463.5376 946,-463.5376"/>
<polygon fill="none" stroke="#000000" points="946,-463.5376 946,-482.5376 976,-482.5376 976,-463.5376 946,-463.5376"/>
<text text-anchor="start" x="966.8862" y="-469.6376" font-family="Helvetica,sans-Serif" font-size="11.00" fill="#000000"> &#160;</text>
</a>
</g>
</g>
<!-- payment_p2007_04&#45;&gt;customer -->
<g id="edge21" class="edge">
<title>payment_p2007_04:w&#45;&gt;customer:e</title>
<path fill="none" stroke="#000000" d="M821.3831,-491.6931C765.0295,-492.8514 740.2386,-499.2472 687,-467.5376 632.5446,-435.1033 663.3828,-354.5376 600,-354.5376"/>
<polygon fill="#000000" stroke="#000000" points="828.0005,-491.6227 836.0383,-495.1374 832.0002,-491.5802 836,-491.5376 836,-491.5376 836,-491.5376 832.0002,-491.5802 835.9617,-487.9378 828.0005,-491.6227 828.0005,-491.6227"/>
<ellipse fill="none" stroke="#000000" cx="824.8006" cy="-491.6568" rx="3.2" ry="3.2"/>
</g>
<!-- payment_p2007_04&#45;&gt;rental -->
<g id="edge22" class="edge">
<title>payment_p2007_04:w&#45;&gt;rental:e</title>
<path fill="none" stroke="#000000" d="M822.1855,-487.1547C801.1172,-469.6295 824.9766,-405.5376 787,-405.5376"/>
<polygon fill="#000000" stroke="#000000" points="828.3746,-489.1183 834.9113,-494.9691 832.1873,-490.3279 836,-491.5376 836,-491.5376 836,-491.5376 832.1873,-490.3279 837.0887,-488.1062 828.3746,-489.1183 828.3746,-489.1183"/>
<ellipse fill="none" stroke="#000000" cx="825.3244" cy="-488.1505" rx="3.2" ry="3.2"/>
</g>
<!-- payment_p2007_04&#45;&gt;staff -->
<g id="edge23" class="edge">
<title>payment_p2007_04:w&#45;&gt;staff:e</title>
<path fill="none" stroke="#000000" d="M821.3134,-491.4951C766.7532,-491.1567 747.8437,-488.7484 687,-482.5376 498.2261,-463.2682 444.8328,-469.364 268,-400.5376 246.8769,-392.3162 245.6667,-376.5376 223,-376.5376"/>
<polygon fill="#000000" stroke="#000000" points="828,-491.5144 835.9896,-495.1376 832,-491.526 836,-491.5376 836,-491.5376 836,-491.5376 832,-491.526 836.0104,-487.9377 828,-491.5144 828,-491.5144"/>
<ellipse fill="none" stroke="#000000" cx="824.8" cy="-491.5052" rx="3.2" ry="3.2"/>
</g>
<!-- payment_p2007_05 -->
<g id="node16" class="node">
<title>payment_p2007_05</title>
<g id="a_node16"><a xlink:href="../../tables/payment_p2007_05.html" xlink:title="payment_p2007_05" target="_top">
<polygon fill="#ffffff" stroke="transparent" points="836,-382.0376 836,-443.0376 976,-443.0376 976,-382.0376 836,-382.0376"/>
<polygon fill="#f5f5f5" stroke="transparent" points="836,-419.5376 836,-442.5376 976,-442.5376 976,-419.5376 836,-419.5376"/>
<polygon fill="none" stroke="#000000" points="836,-419.5376 836,-442.5376 976,-442.5376 976,-419.5376 836,-419.5376"/>
<text text-anchor="start" x="840.8938" y="-428.6376" font-family="Helvetica,sans-Serif" font-weight="bold" font-size="11.00" fill="#000000">payment_p2007_05</text>
<text text-anchor="start" x="941.5219" y="-427.6376" font-family="Helvetica,sans-Serif" font-size="11.00" fill="#000000">[table]</text>
<polygon fill="none" stroke="#000000" points="836,-400.5376 836,-419.5376 976,-419.5376 976,-400.5376 836,-400.5376"/>
<text text-anchor="start" x="839" y="-406.6376" font-family="Helvetica,sans-Serif" font-size="11.00" fill="#000000">...</text>
<polygon fill="#ffffff" stroke="transparent" points="836,-381.5376 836,-400.5376 891,-400.5376 891,-381.5376 836,-381.5376"/>
<polygon fill="none" stroke="#000000" points="836,-381.5376 836,-400.5376 891,-400.5376 891,-381.5376 836,-381.5376"/>
<text text-anchor="start" x="839" y="-387.6376" font-family="Helvetica,sans-Serif" font-size="11.00" fill="#000000">&lt; 3</text>
<polygon fill="#ffffff" stroke="transparent" points="891,-381.5376 891,-400.5376 946,-400.5376 946,-381.5376 891,-381.5376"/>
<polygon fill="none" stroke="#000000" points="891,-381.5376 891,-400.5376 946,-400.5376 946,-381.5376 891,-381.5376"/>
<text text-anchor="start" x="910.6105" y="-387.6376" font-family="Helvetica,sans-Serif" font-size="11.00" fill="#000000">0 rows</text>
<polygon fill="#ffffff" stroke="transparent" points="946,-381.5376 946,-400.5376 976,-400.5376 976,-381.5376 946,-381.5376"/>
<polygon fill="none" stroke="#000000" points="946,-381.5376 946,-400.5376 976,-400.5376 976,-381.5376 946,-381.5376"/>
<text text-anchor="start" x="966.8862" y="-387.6376" font-family="Helvetica,sans-Serif" font-size="11.00" fill="#000000"> &#160;</text>
</a>
</g>
</g>
<!-- payment_p2007_05&#45;&gt;customer -->
<g id="edge24" class="edge">
<title>payment_p2007_05:w&#45;&gt;customer:e</title>
<path fill="none" stroke="#000000" d="M822.3725,-414.2723C812.4855,-423.3722 813.0424,-443.0642 795,-450.5376 750.6538,-468.9064 730.8815,-469.9904 687,-450.5376 634.3596,-427.2021 657.5809,-354.5376 600,-354.5376"/>
<polygon fill="#000000" stroke="#000000" points="828.4431,-412.1632 837.1815,-412.9382 832.2216,-410.8504 836,-409.5376 836,-409.5376 836,-409.5376 832.2216,-410.8504 834.8185,-406.137 828.4431,-412.1632 828.4431,-412.1632"/>
<ellipse fill="none" stroke="#000000" cx="825.4203" cy="-413.2134" rx="3.2" ry="3.2"/>
</g>
<!-- payment_p2007_05&#45;&gt;rental -->
<g id="edge25" class="edge">
<title>payment_p2007_05:w&#45;&gt;rental:e</title>
<path fill="none" stroke="#000000" d="M821.471,-408.8409C810.1666,-407.6949 803.0463,-405.5376 787,-405.5376"/>
<polygon fill="#000000" stroke="#000000" points="828.0092,-409.1544 835.8275,-413.1335 832.0046,-409.346 836,-409.5376 836,-409.5376 836,-409.5376 832.0046,-409.346 836.1725,-405.9418 828.0092,-409.1544 828.0092,-409.1544"/>
<ellipse fill="none" stroke="#000000" cx="824.8129" cy="-409.0011" rx="3.2" ry="3.2"/>
</g>
<!-- payment_p2007_05&#45;&gt;staff -->
<g id="edge26" class="edge">
<title>payment_p2007_05:w&#45;&gt;staff:e</title>
<path fill="none" stroke="#000000" d="M822.1619,-414.3131C810.0647,-426.0085 817.3394,-455.9719 795,-467.5376 752.374,-489.6063 734.7751,-472.1783 687,-467.5376 477.8337,-447.2202 433.1508,-376.5376 223,-376.5376"/>
<polygon fill="#000000" stroke="#000000" points="828.4376,-412.1474 837.1744,-412.9407 832.2188,-410.8425 836,-409.5376 836,-409.5376 836,-409.5376 832.2188,-410.8425 834.8256,-406.1346 828.4376,-412.1474 828.4376,-412.1474"/>
<ellipse fill="none" stroke="#000000" cx="825.4127" cy="-413.1913" rx="3.2" ry="3.2"/>
</g>
<!-- payment_p2007_06 -->
<g id="node17" class="node">
<title>payment_p2007_06</title>
<g id="a_node17"><a xlink:href="../../tables/payment_p2007_06.html" xlink:title="payment_p2007_06" target="_top">
<polygon fill="#ffffff" stroke="transparent" points="836,-287.0376 836,-348.0376 976,-348.0376 976,-287.0376 836,-287.0376"/>
<polygon fill="#f5f5f5" stroke="transparent" points="836,-324.5376 836,-347.5376 976,-347.5376 976,-324.5376 836,-324.5376"/>
<polygon fill="none" stroke="#000000" points="836,-324.5376 836,-347.5376 976,-347.5376 976,-324.5376 836,-324.5376"/>
<text text-anchor="start" x="840.8938" y="-333.6376" font-family="Helvetica,sans-Serif" font-weight="bold" font-size="11.00" fill="#000000">payment_p2007_06</text>
<text text-anchor="start" x="941.5219" y="-332.6376" font-family="Helvetica,sans-Serif" font-size="11.00" fill="#000000">[table]</text>
<polygon fill="none" stroke="#000000" points="836,-305.5376 836,-324.5376 976,-324.5376 976,-305.5376 836,-305.5376"/>
<text text-anchor="start" x="839" y="-311.6376" font-family="Helvetica,sans-Serif" font-size="11.00" fill="#000000">...</text>
<polygon fill="#ffffff" stroke="transparent" points="836,-286.5376 836,-305.5376 891,-305.5376 891,-286.5376 836,-286.5376"/>
<polygon fill="none" stroke="#000000" points="836,-286.5376 836,-305.5376 891,-305.5376 891,-286.5376 836,-286.5376"/>
<text text-anchor="start" x="839" y="-292.6376" font-family="Helvetica,sans-Serif" font-size="11.00" fill="#000000">&lt; 3</text>
<polygon fill="#ffffff" stroke="transparent" points="891,-286.5376 891,-305.5376 946,-305.5376 946,-286.5376 891,-286.5376"/>
<polygon fill="none" stroke="#000000" points="891,-286.5376 891,-305.5376 946,-305.5376 946,-286.5376 891,-286.5376"/>
<text text-anchor="start" x="910.6105" y="-292.6376" font-family="Helvetica,sans-Serif" font-size="11.00" fill="#000000">0 rows</text>
<polygon fill="#ffffff" stroke="transparent" points="946,-286.5376 946,-305.5376 976,-305.5376 976,-286.5376 946,-286.5376"/>
<polygon fill="none" stroke="#000000" points="946,-286.5376 946,-305.5376 976,-305.5376 976,-286.5376 946,-286.5376"/>
<text text-anchor="start" x="966.8862" y="-292.6376" font-family="Helvetica,sans-Serif" font-size="11.00" fill="#000000"> &#160;</text>
</a>
</g>
</g>
<!-- payment_p2007_06&#45;&gt;customer -->
<g id="edge27" class="edge">
<title>payment_p2007_06:w&#45;&gt;customer:e</title>
<path fill="none" stroke="#000000" d="M822.0408,-309.5834C810.4795,-298.0493 816.7071,-269.548 795,-258.5376 752.1919,-236.8243 730.8815,-239.0849 687,-258.5376 634.3596,-281.8732 657.5809,-354.5376 600,-354.5376"/>
<polygon fill="#000000" stroke="#000000" points="828.4607,-311.8619 834.7959,-317.9303 832.2304,-313.1998 836,-314.5376 836,-314.5376 836,-314.5376 832.2304,-313.1998 837.2041,-311.145 828.4607,-311.8619 828.4607,-311.8619"/>
<ellipse fill="none" stroke="#000000" cx="825.445" cy="-310.7916" rx="3.2" ry="3.2"/>
</g>
<!-- payment_p2007_06&#45;&gt;rental -->
<g id="edge28" class="edge">
<title>payment_p2007_06:w&#45;&gt;rental:e</title>
<path fill="none" stroke="#000000" d="M821.981,-318.9268C799.8859,-337.1044 826.8343,-405.5376 787,-405.5376"/>
<polygon fill="#000000" stroke="#000000" points="828.3654,-316.9279 837.0756,-317.9732 832.1827,-315.7328 836,-314.5376 836,-314.5376 836,-314.5376 832.1827,-315.7328 834.9244,-311.1021 828.3654,-316.9279 828.3654,-316.9279"/>
<ellipse fill="none" stroke="#000000" cx="825.3116" cy="-317.8841" rx="3.2" ry="3.2"/>
</g>
<!-- payment_p2007_06&#45;&gt;staff -->
<g id="edge29" class="edge">
<title>payment_p2007_06:w&#45;&gt;staff:e</title>
<path fill="none" stroke="#000000" d="M821.8647,-310.1318C806.5538,-296.7195 821.8271,-256.3436 795,-240.5376 753.6442,-216.1718 734.7969,-236.1267 687,-240.5376 498.38,-257.9446 429.7335,-219.9336 268,-318.5376 240.1425,-335.5215 255.6266,-376.5376 223,-376.5376"/>
<polygon fill="#000000" stroke="#000000" points="828.3624,-312.157 834.9287,-317.9746 832.1812,-313.3473 836,-314.5376 836,-314.5376 836,-314.5376 832.1812,-313.3473 837.0713,-311.1007 828.3624,-312.157 828.3624,-312.157"/>
<ellipse fill="none" stroke="#000000" cx="825.3074" cy="-311.2048" rx="3.2" ry="3.2"/>
</g>
</g>
</svg>
