<?xml version="1.0" encoding="UTF-8" standalone="no"?>
<!DOCTYPE svg PUBLIC "-//W3C//DTD SVG 1.1//EN"
 "http://www.w3.org/Graphics/SVG/1.1/DTD/svg11.dtd">
<!-- Generated by graphviz version 2.40.1 (20161225.0304)
 -->
<!-- Title: twoDegreesRelationshipsDiagram Pages: 1 -->
<svg width="788pt" height="513pt"
 viewBox="0.00 0.00 788.00 513.20" xmlns="http://www.w3.org/2000/svg" xmlns:xlink="http://www.w3.org/1999/xlink">
<g id="graph0" class="graph" transform="scale(1 1) rotate(0) translate(4 509.2)">
<title>twoDegreesRelationshipsDiagram</title>
<polygon fill="#ffffff" stroke="transparent" points="-4,4 -4,-509.2 784,-509.2 784,4 -4,4"/>
<text text-anchor="middle" x="72.4936" y="-7.3" font-family="Helvetica,sans-Serif" font-size="11.00" fill="#000000">Generated by SchemaSpy</text>
<!-- film -->
<g id="node1" class="node">
<title>film</title>
<g id="a_node1"><a xlink:href="../../tables/film.html" xlink:title="film" target="_top">
<polygon fill="#ffffff" stroke="transparent" points="145,-164.2 145,-313.2 268,-313.2 268,-164.2 145,-164.2"/>
<polygon fill="#f5f5f5" stroke="transparent" points="145.5,-289.7 145.5,-312.7 268.5,-312.7 268.5,-289.7 145.5,-289.7"/>
<polygon fill="none" stroke="#000000" points="145.5,-289.7 145.5,-312.7 268.5,-312.7 268.5,-289.7 145.5,-289.7"/>
<text text-anchor="start" x="150.5" y="-298.8" font-family="Helvetica,sans-Serif" font-weight="bold" font-size="11.00" fill="#000000">film</text>
<text text-anchor="start" x="233.5437" y="-297.8" font-family="Helvetica,sans-Serif" font-size="11.00" fill="#000000">[table]</text>
<polygon fill="none" stroke="#000000" points="145.5,-267.7 145.5,-289.7 268.5,-289.7 268.5,-267.7 145.5,-267.7"/>
<image xlink:href="../../images/primaryKeys.png" width="11px" height="12px" preserveAspectRatio="xMinYMin meet" x="150.5" y="-284.7"/>
<text text-anchor="start" x="165.5" y="-274.8" font-family="Helvetica,sans-Serif" font-size="11.00" fill="#000000">film_id</text>
<polygon fill="#ffffff" stroke="transparent" points="145.5,-245.7 145.5,-267.7 268.5,-267.7 268.5,-245.7 145.5,-245.7"/>
<polygon fill="none" stroke="#000000" points="145.5,-245.7 145.5,-267.7 268.5,-267.7 268.5,-245.7 145.5,-245.7"/>
<text text-anchor="start" x="165.5" y="-252.8" font-family="Helvetica,sans-Serif" font-size="11.00" fill="#000000">title</text>
<polygon fill="#ffffff" stroke="transparent" points="145.5,-223.7 145.5,-245.7 268.5,-245.7 268.5,-223.7 145.5,-223.7"/>
<polygon fill="none" stroke="#000000" points="145.5,-223.7 145.5,-245.7 268.5,-245.7 268.5,-223.7 145.5,-223.7"/>
<image xlink:href="../../images/foreignKeys.png" width="11px" height="12px" preserveAspectRatio="xMinYMin meet" x="150.5" y="-240.7"/>
<text text-anchor="start" x="165.5" y="-230.8" font-family="Helvetica,sans-Serif" font-size="11.00" fill="#000000">language_id</text>
<polygon fill="#ffffff" stroke="transparent" points="145.5,-201.7 145.5,-223.7 268.5,-223.7 268.5,-201.7 145.5,-201.7"/>
<polygon fill="none" stroke="#000000" points="145.5,-201.7 145.5,-223.7 268.5,-223.7 268.5,-201.7 145.5,-201.7"/>
<text text-anchor="start" x="165.5" y="-208.8" font-family="Helvetica,sans-Serif" font-size="11.00" fill="#000000">fulltext</text>
<polygon fill="none" stroke="#000000" points="145.5,-182.7 145.5,-201.7 268.5,-201.7 268.5,-182.7 145.5,-182.7"/>
<text text-anchor="start" x="148.5" y="-188.8" font-family="Helvetica,sans-Serif" font-size="11.00" fill="#000000">...</text>
<polygon fill="#ffffff" stroke="transparent" points="145.5,-163.7 145.5,-182.7 187.5,-182.7 187.5,-163.7 145.5,-163.7"/>
<polygon fill="none" stroke="#000000" points="145.5,-163.7 145.5,-182.7 187.5,-182.7 187.5,-163.7 145.5,-163.7"/>
<text text-anchor="start" x="148.5" y="-169.8" font-family="Helvetica,sans-Serif" font-size="11.00" fill="#000000">&lt; 1</text>
<polygon fill="#ffffff" stroke="transparent" points="187.5,-163.7 187.5,-182.7 236.5,-182.7 236.5,-163.7 187.5,-163.7"/>
<polygon fill="none" stroke="#000000" points="187.5,-163.7 187.5,-182.7 236.5,-182.7 236.5,-163.7 187.5,-163.7"/>
<text text-anchor="start" x="201.1105" y="-169.8" font-family="Helvetica,sans-Serif" font-size="11.00" fill="#000000">0 rows</text>
<polygon fill="#ffffff" stroke="transparent" points="236.5,-163.7 236.5,-182.7 268.5,-182.7 268.5,-163.7 236.5,-163.7"/>
<polygon fill="none" stroke="#000000" points="236.5,-163.7 236.5,-182.7 268.5,-182.7 268.5,-163.7 236.5,-163.7"/>
<text text-anchor="start" x="249.9053" y="-169.8" font-family="Helvetica,sans-Serif" font-size="11.00" fill="#000000">3 &gt;</text>
</a>
</g>
</g>
<!-- language -->
<g id="node2" class="node">
<title>language</title>
<g id="a_node2"><a xlink:href="../../tables/language.html" xlink:title="language" target="_top">
<polygon fill="#ffffff" stroke="transparent" points="8,-207.2 8,-268.2 96,-268.2 96,-207.2 8,-207.2"/>
<polygon fill="#f5f5f5" stroke="transparent" points="8,-244.7 8,-267.7 96,-267.7 96,-244.7 8,-244.7"/>
<polygon fill="none" stroke="#000000" points="8,-244.7 8,-267.7 96,-267.7 96,-244.7 8,-244.7"/>
<text text-anchor="start" x="12.8774" y="-253.8" font-family="Helvetica,sans-Serif" font-weight="bold" font-size="11.00" fill="#000000">language</text>
<text text-anchor="start" x="61.5219" y="-252.8" font-family="Helvetica,sans-Serif" font-size="11.00" fill="#000000">[table]</text>
<polygon fill="none" stroke="#000000" points="8,-225.7 8,-244.7 96,-244.7 96,-225.7 8,-225.7"/>
<text text-anchor="start" x="11" y="-231.8" font-family="Helvetica,sans-Serif" font-size="11.00" fill="#000000">...</text>
<polygon fill="#ffffff" stroke="transparent" points="8,-206.7 8,-225.7 28,-225.7 28,-206.7 8,-206.7"/>
<polygon fill="none" stroke="#000000" points="8,-206.7 8,-225.7 28,-225.7 28,-206.7 8,-206.7"/>
<text text-anchor="start" x="11" y="-212.8" font-family="Helvetica,sans-Serif" font-size="11.00" fill="#000000"> &#160;</text>
<polygon fill="#ffffff" stroke="transparent" points="28,-206.7 28,-225.7 70,-225.7 70,-206.7 28,-206.7"/>
<polygon fill="none" stroke="#000000" points="28,-206.7 28,-225.7 70,-225.7 70,-206.7 28,-206.7"/>
<text text-anchor="start" x="34.6105" y="-212.8" font-family="Helvetica,sans-Serif" font-size="11.00" fill="#000000">0 rows</text>
<polygon fill="#ffffff" stroke="transparent" points="70,-206.7 70,-225.7 96,-225.7 96,-206.7 70,-206.7"/>
<polygon fill="none" stroke="#000000" points="70,-206.7 70,-225.7 96,-225.7 96,-206.7 70,-206.7"/>
<text text-anchor="start" x="77.4053" y="-212.8" font-family="Helvetica,sans-Serif" font-size="11.00" fill="#000000">1 &gt;</text>
</a>
</g>
</g>
<!-- film&#45;&gt;language -->
<g id="edge1" class="edge">
<title>film:w&#45;&gt;language:e</title>
<path fill="none" stroke="#000000" d="M130.8428,-234.7C119.4139,-234.7 112.1563,-234.7 96,-234.7"/>
<polygon fill="#000000" stroke="#000000" points="137.5,-234.7001 145.5,-238.3 141.5,-234.7 145.5,-234.7 145.5,-234.7 145.5,-234.7 141.5,-234.7 145.5,-231.1 137.5,-234.7001 137.5,-234.7001"/>
<ellipse fill="none" stroke="#000000" cx="134.3" cy="-234.7001" rx="3.2" ry="3.2"/>
</g>
<!-- film_actor -->
<g id="node3" class="node">
<title>film_actor</title>
<g id="a_node3"><a xlink:href="../../tables/film_actor.html" xlink:title="film_actor" target="_top">
<polygon fill="#ffffff" stroke="transparent" points="362,-120.2 362,-181.2 452,-181.2 452,-120.2 362,-120.2"/>
<polygon fill="#f5f5f5" stroke="transparent" points="362,-157.7 362,-180.7 452,-180.7 452,-157.7 362,-157.7"/>
<polygon fill="none" stroke="#000000" points="362,-157.7 362,-180.7 452,-180.7 452,-157.7 362,-157.7"/>
<text text-anchor="start" x="366.668" y="-166.8" font-family="Helvetica,sans-Serif" font-weight="bold" font-size="11.00" fill="#000000">film_actor</text>
<text text-anchor="start" x="417.5219" y="-165.8" font-family="Helvetica,sans-Serif" font-size="11.00" fill="#000000">[table]</text>
<polygon fill="none" stroke="#000000" points="362,-138.7 362,-157.7 452,-157.7 452,-138.7 362,-138.7"/>
<text text-anchor="start" x="365" y="-144.8" font-family="Helvetica,sans-Serif" font-size="11.00" fill="#000000">...</text>
<polygon fill="#ffffff" stroke="transparent" points="362,-119.7 362,-138.7 392,-138.7 392,-119.7 362,-119.7"/>
<polygon fill="none" stroke="#000000" points="362,-119.7 362,-138.7 392,-138.7 392,-119.7 362,-119.7"/>
<text text-anchor="start" x="365" y="-125.8" font-family="Helvetica,sans-Serif" font-size="11.00" fill="#000000">&lt; 2</text>
<polygon fill="#ffffff" stroke="transparent" points="392,-119.7 392,-138.7 435,-138.7 435,-119.7 392,-119.7"/>
<polygon fill="none" stroke="#000000" points="392,-119.7 392,-138.7 435,-138.7 435,-119.7 392,-119.7"/>
<text text-anchor="start" x="399.6105" y="-125.8" font-family="Helvetica,sans-Serif" font-size="11.00" fill="#000000">0 rows</text>
<polygon fill="#ffffff" stroke="transparent" points="435,-119.7 435,-138.7 452,-138.7 452,-119.7 435,-119.7"/>
<polygon fill="none" stroke="#000000" points="435,-119.7 435,-138.7 452,-138.7 452,-119.7 435,-119.7"/>
<text text-anchor="start" x="442.8862" y="-125.8" font-family="Helvetica,sans-Serif" font-size="11.00" fill="#000000"> &#160;</text>
</a>
</g>
</g>
<!-- film_actor&#45;&gt;film -->
<g id="edge2" class="edge">
<title>film_actor:w&#45;&gt;film:e</title>
<path fill="none" stroke="#000000" d="M347.5036,-149.668C329.3612,-155.3519 324.3374,-172.67 309,-192.7 283.3147,-226.244 310.7485,-278.7 268.5,-278.7"/>
<polygon fill="#000000" stroke="#000000" points="354.0727,-148.7762 362.4843,-151.2673 358.0364,-148.2381 362,-147.7 362,-147.7 362,-147.7 358.0364,-148.2381 361.5157,-144.1327 354.0727,-148.7762 354.0727,-148.7762"/>
<ellipse fill="none" stroke="#000000" cx="350.9018" cy="-149.2067" rx="3.2" ry="3.2"/>
</g>
<!-- film_category -->
<g id="node4" class="node">
<title>film_category</title>
<g id="a_node4"><a xlink:href="../../tables/film_category.html" xlink:title="film_category" target="_top">
<polygon fill="#ffffff" stroke="transparent" points="353,-358.2 353,-419.2 461,-419.2 461,-358.2 353,-358.2"/>
<polygon fill="#f5f5f5" stroke="transparent" points="353,-395.7 353,-418.7 461,-418.7 461,-395.7 353,-395.7"/>
<polygon fill="none" stroke="#000000" points="353,-395.7 353,-418.7 461,-418.7 461,-395.7 353,-395.7"/>
<text text-anchor="start" x="357.8031" y="-404.8" font-family="Helvetica,sans-Serif" font-weight="bold" font-size="11.00" fill="#000000">film_category</text>
<text text-anchor="start" x="426.5219" y="-403.8" font-family="Helvetica,sans-Serif" font-size="11.00" fill="#000000">[table]</text>
<polygon fill="none" stroke="#000000" points="353,-376.7 353,-395.7 461,-395.7 461,-376.7 353,-376.7"/>
<text text-anchor="start" x="356" y="-382.8" font-family="Helvetica,sans-Serif" font-size="11.00" fill="#000000">...</text>
<polygon fill="#ffffff" stroke="transparent" points="353,-357.7 353,-376.7 392,-376.7 392,-357.7 353,-357.7"/>
<polygon fill="none" stroke="#000000" points="353,-357.7 353,-376.7 392,-376.7 392,-357.7 353,-357.7"/>
<text text-anchor="start" x="356" y="-363.8" font-family="Helvetica,sans-Serif" font-size="11.00" fill="#000000">&lt; 2</text>
<polygon fill="#ffffff" stroke="transparent" points="392,-357.7 392,-376.7 439,-376.7 439,-357.7 392,-357.7"/>
<polygon fill="none" stroke="#000000" points="392,-357.7 392,-376.7 439,-376.7 439,-357.7 392,-357.7"/>
<text text-anchor="start" x="403.6105" y="-363.8" font-family="Helvetica,sans-Serif" font-size="11.00" fill="#000000">0 rows</text>
<polygon fill="#ffffff" stroke="transparent" points="439,-357.7 439,-376.7 461,-376.7 461,-357.7 439,-357.7"/>
<polygon fill="none" stroke="#000000" points="439,-357.7 439,-376.7 461,-376.7 461,-357.7 439,-357.7"/>
<text text-anchor="start" x="451.8862" y="-363.8" font-family="Helvetica,sans-Serif" font-size="11.00" fill="#000000"> &#160;</text>
</a>
</g>
</g>
<!-- film_category&#45;&gt;film -->
<g id="edge3" class="edge">
<title>film_category:w&#45;&gt;film:e</title>
<path fill="none" stroke="#000000" d="M338.7117,-383.0966C325.6604,-377.3893 321.792,-363.0545 309,-347.7 286.2393,-320.3798 304.059,-278.7 268.5,-278.7"/>
<polygon fill="#000000" stroke="#000000" points="345.1296,-384.2659 352.3547,-389.2417 349.0648,-384.983 353,-385.7 353,-385.7 353,-385.7 349.0648,-384.983 353.6453,-382.1583 345.1296,-384.2659 345.1296,-384.2659"/>
<ellipse fill="none" stroke="#000000" cx="341.9814" cy="-383.6923" rx="3.2" ry="3.2"/>
</g>
<!-- inventory -->
<g id="node5" class="node">
<title>inventory</title>
<g id="a_node5"><a xlink:href="../../tables/inventory.html" xlink:title="inventory" target="_top">
<polygon fill="#ffffff" stroke="transparent" points="317,-202.7 317,-336.7 497,-336.7 497,-202.7 317,-202.7"/>
<polygon fill="#f5f5f5" stroke="transparent" points="319,-311.7 319,-334.7 495,-334.7 495,-311.7 319,-311.7"/>
<polygon fill="none" stroke="#000000" points="319,-311.7 319,-334.7 495,-334.7 495,-311.7 319,-311.7"/>
<text text-anchor="start" x="324" y="-320.8" font-family="Helvetica,sans-Serif" font-weight="bold" font-size="11.00" fill="#000000">inventory</text>
<text text-anchor="start" x="460.0437" y="-319.8" font-family="Helvetica,sans-Serif" font-size="11.00" fill="#000000">[table]</text>
<polygon fill="none" stroke="#000000" points="319,-289.7 319,-311.7 411,-311.7 411,-289.7 319,-289.7"/>
<image xlink:href="../../images/primaryKeys.png" width="11px" height="12px" preserveAspectRatio="xMinYMin meet" x="324" y="-306.7"/>
<text text-anchor="start" x="339" y="-296.8" font-family="Helvetica,sans-Serif" font-size="11.00" fill="#000000">inventory_id</text>
<polygon fill="none" stroke="#000000" points="411,-289.7 411,-311.7 495,-311.7 495,-289.7 411,-289.7"/>
<text text-anchor="start" x="414" y="-297.4" font-family="Helvetica,sans-Serif" font-size="11.00" fill="#000000">serial[10]</text>
<polygon fill="#ffffff" stroke="transparent" points="319,-267.7 319,-289.7 411,-289.7 411,-267.7 319,-267.7"/>
<polygon fill="none" stroke="#000000" points="319,-267.7 319,-289.7 411,-289.7 411,-267.7 319,-267.7"/>
<image xlink:href="../../images/foreignKeys.png" width="11px" height="12px" preserveAspectRatio="xMinYMin meet" x="324" y="-284.7"/>
<text text-anchor="start" x="339" y="-274.8" font-family="Helvetica,sans-Serif" font-size="11.00" fill="#000000">film_id</text>
<polygon fill="none" stroke="#000000" points="411,-267.7 411,-289.7 495,-289.7 495,-267.7 411,-267.7"/>
<text text-anchor="start" x="414" y="-275.4" font-family="Helvetica,sans-Serif" font-size="11.00" fill="#000000">int2[5]</text>
<polygon fill="#ffffff" stroke="transparent" points="319,-245.7 319,-267.7 411,-267.7 411,-245.7 319,-245.7"/>
<polygon fill="none" stroke="#000000" points="319,-245.7 319,-267.7 411,-267.7 411,-245.7 319,-245.7"/>
<text text-anchor="start" x="339" y="-252.8" font-family="Helvetica,sans-Serif" font-size="11.00" fill="#000000">store_id</text>
<polygon fill="none" stroke="#000000" points="411,-245.7 411,-267.7 495,-267.7 495,-245.7 411,-245.7"/>
<text text-anchor="start" x="414" y="-253.4" font-family="Helvetica,sans-Serif" font-size="11.00" fill="#000000">int2[5]</text>
<polygon fill="none" stroke="#000000" points="319,-223.7 319,-245.7 411,-245.7 411,-223.7 319,-223.7"/>
<text text-anchor="start" x="339" y="-230.8" font-family="Helvetica,sans-Serif" font-size="11.00" fill="#000000">last_update</text>
<polygon fill="none" stroke="#000000" points="411,-223.7 411,-245.7 495,-245.7 495,-223.7 411,-223.7"/>
<text text-anchor="start" x="413.8807" y="-231.4" font-family="Helvetica,sans-Serif" font-size="11.00" fill="#000000">timestamp[29,6]</text>
<polygon fill="#ffffff" stroke="transparent" points="319,-204.7 319,-223.7 356,-223.7 356,-204.7 319,-204.7"/>
<polygon fill="none" stroke="#000000" points="319,-204.7 319,-223.7 356,-223.7 356,-204.7 319,-204.7"/>
<text text-anchor="start" x="322" y="-210.8" font-family="Helvetica,sans-Serif" font-size="11.00" fill="#000000">&lt; 1</text>
<polygon fill="#ffffff" stroke="transparent" points="356,-204.7 356,-223.7 411,-223.7 411,-204.7 356,-204.7"/>
<polygon fill="none" stroke="#000000" points="356,-204.7 356,-223.7 411,-223.7 411,-204.7 356,-204.7"/>
<text text-anchor="start" x="375.6105" y="-210.8" font-family="Helvetica,sans-Serif" font-size="11.00" fill="#000000">0 rows</text>
<polygon fill="#ffffff" stroke="transparent" points="411,-204.7 411,-223.7 495,-223.7 495,-204.7 411,-204.7"/>
<polygon fill="none" stroke="#000000" points="411,-204.7 411,-223.7 495,-223.7 495,-204.7 411,-204.7"/>
<text text-anchor="start" x="476.4053" y="-210.8" font-family="Helvetica,sans-Serif" font-size="11.00" fill="#000000">1 &gt;</text>
<polygon fill="none" stroke="#000000" stroke-width="2" points="318,-203.7 318,-335.7 496,-335.7 496,-203.7 318,-203.7"/>
</a>
</g>
</g>
<!-- inventory&#45;&gt;film -->
<g id="edge4" class="edge">
<title>inventory:w&#45;&gt;film:e</title>
<path fill="none" stroke="#000000" d="M304.4203,-278.7C292.5435,-278.7 285.158,-278.7 268.5,-278.7"/>
<polygon fill="#000000" stroke="#000000" points="311,-278.7001 319,-282.3 315,-278.7 319,-278.7 319,-278.7 319,-278.7 315,-278.7 319,-275.1 311,-278.7001 311,-278.7001"/>
<ellipse fill="none" stroke="#000000" cx="307.8" cy="-278.7001" rx="3.2" ry="3.2"/>
</g>
<!-- payment -->
<g id="node6" class="node">
<title>payment</title>
<g id="a_node6"><a xlink:href="../../tables/payment.html" xlink:title="payment" target="_top">
<polygon fill="#ffffff" stroke="transparent" points="687,-317.2 687,-378.2 772,-378.2 772,-317.2 687,-317.2"/>
<polygon fill="#f5f5f5" stroke="transparent" points="687.5,-354.7 687.5,-377.7 772.5,-377.7 772.5,-354.7 687.5,-354.7"/>
<polygon fill="none" stroke="#000000" points="687.5,-354.7 687.5,-377.7 772.5,-377.7 772.5,-354.7 687.5,-354.7"/>
<text text-anchor="start" x="692.4108" y="-363.8" font-family="Helvetica,sans-Serif" font-weight="bold" font-size="11.00" fill="#000000">payment</text>
<text text-anchor="start" x="738.0219" y="-362.8" font-family="Helvetica,sans-Serif" font-size="11.00" fill="#000000">[table]</text>
<polygon fill="none" stroke="#000000" points="687.5,-335.7 687.5,-354.7 772.5,-354.7 772.5,-335.7 687.5,-335.7"/>
<text text-anchor="start" x="690.5" y="-341.8" font-family="Helvetica,sans-Serif" font-size="11.00" fill="#000000">...</text>
<polygon fill="#ffffff" stroke="transparent" points="687.5,-316.7 687.5,-335.7 715.5,-335.7 715.5,-316.7 687.5,-316.7"/>
<polygon fill="none" stroke="#000000" points="687.5,-316.7 687.5,-335.7 715.5,-335.7 715.5,-316.7 687.5,-316.7"/>
<text text-anchor="start" x="690.5" y="-322.8" font-family="Helvetica,sans-Serif" font-size="11.00" fill="#000000">&lt; 3</text>
<polygon fill="#ffffff" stroke="transparent" points="715.5,-316.7 715.5,-335.7 756.5,-335.7 756.5,-316.7 715.5,-316.7"/>
<polygon fill="none" stroke="#000000" points="715.5,-316.7 715.5,-335.7 756.5,-335.7 756.5,-316.7 715.5,-316.7"/>
<text text-anchor="start" x="721.1105" y="-322.8" font-family="Helvetica,sans-Serif" font-size="11.00" fill="#000000">0 rows</text>
<polygon fill="#ffffff" stroke="transparent" points="756.5,-316.7 756.5,-335.7 772.5,-335.7 772.5,-316.7 756.5,-316.7"/>
<polygon fill="none" stroke="#000000" points="756.5,-316.7 756.5,-335.7 772.5,-335.7 772.5,-316.7 756.5,-316.7"/>
<text text-anchor="start" x="763.3862" y="-322.8" font-family="Helvetica,sans-Serif" font-size="11.00" fill="#000000"> &#160;</text>
</a>
</g>
</g>
<!-- customer -->
<g id="node7" class="node">
<title>customer</title>
<g id="a_node7"><a xlink:href="../../tables/customer.html" xlink:title="customer" target="_top">
<polygon fill="#ffffff" stroke="transparent" points="363,-440.2 363,-501.2 451,-501.2 451,-440.2 363,-440.2"/>
<polygon fill="#f5f5f5" stroke="transparent" points="363,-477.7 363,-500.7 451,-500.7 451,-477.7 363,-477.7"/>
<polygon fill="none" stroke="#000000" points="363,-477.7 363,-500.7 451,-500.7 451,-477.7 363,-477.7"/>
<text text-anchor="start" x="367.8873" y="-486.8" font-family="Helvetica,sans-Serif" font-weight="bold" font-size="11.00" fill="#000000">customer</text>
<text text-anchor="start" x="416.5219" y="-485.8" font-family="Helvetica,sans-Serif" font-size="11.00" fill="#000000">[table]</text>
<polygon fill="none" stroke="#000000" points="363,-458.7 363,-477.7 451,-477.7 451,-458.7 363,-458.7"/>
<text text-anchor="start" x="366" y="-464.8" font-family="Helvetica,sans-Serif" font-size="11.00" fill="#000000">...</text>
<polygon fill="#ffffff" stroke="transparent" points="363,-439.7 363,-458.7 388,-458.7 388,-439.7 363,-439.7"/>
<polygon fill="none" stroke="#000000" points="363,-439.7 363,-458.7 388,-458.7 388,-439.7 363,-439.7"/>
<text text-anchor="start" x="366" y="-445.8" font-family="Helvetica,sans-Serif" font-size="11.00" fill="#000000">&lt; 1</text>
<polygon fill="#ffffff" stroke="transparent" points="388,-439.7 388,-458.7 428,-458.7 428,-439.7 388,-439.7"/>
<polygon fill="none" stroke="#000000" points="388,-439.7 388,-458.7 428,-458.7 428,-439.7 388,-439.7"/>
<text text-anchor="start" x="392.6105" y="-445.8" font-family="Helvetica,sans-Serif" font-size="11.00" fill="#000000">0 rows</text>
<polygon fill="#ffffff" stroke="transparent" points="428,-439.7 428,-458.7 451,-458.7 451,-439.7 428,-439.7"/>
<polygon fill="none" stroke="#000000" points="428,-439.7 428,-458.7 451,-458.7 451,-439.7 428,-439.7"/>
<text text-anchor="start" x="432.4053" y="-445.8" font-family="Helvetica,sans-Serif" font-size="11.00" fill="#000000">2 &gt;</text>
</a>
</g>
</g>
<!-- payment&#45;&gt;customer -->
<g id="edge5" class="edge">
<title>payment:w&#45;&gt;customer:e</title>
<path fill="none" stroke="#000000" d="M673.3431,-349.0098C662.4197,-357.7831 663.1544,-377.884 646,-389.7 569.1284,-442.6495 544.3429,-467.7 451,-467.7"/>
<polygon fill="#000000" stroke="#000000" points="679.8468,-347.0299 688.5485,-348.1439 683.6734,-345.865 687.5,-344.7 687.5,-344.7 687.5,-344.7 683.6734,-345.865 686.4515,-341.2561 679.8468,-347.0299 679.8468,-347.0299"/>
<ellipse fill="none" stroke="#000000" cx="676.7855" cy="-347.9619" rx="3.2" ry="3.2"/>
</g>
<!-- rental -->
<g id="node8" class="node">
<title>rental</title>
<g id="a_node8"><a xlink:href="../../tables/rental.html" xlink:title="rental" target="_top">
<polygon fill="#ffffff" stroke="transparent" points="546,-208.2 546,-379.2 638,-379.2 638,-208.2 546,-208.2"/>
<polygon fill="#f5f5f5" stroke="transparent" points="546,-355.7 546,-378.7 638,-378.7 638,-355.7 546,-355.7"/>
<polygon fill="none" stroke="#000000" points="546,-355.7 546,-378.7 638,-378.7 638,-355.7 546,-355.7"/>
<text text-anchor="start" x="551" y="-364.8" font-family="Helvetica,sans-Serif" font-weight="bold" font-size="11.00" fill="#000000">rental</text>
<text text-anchor="start" x="603.0437" y="-363.8" font-family="Helvetica,sans-Serif" font-size="11.00" fill="#000000">[table]</text>
<polygon fill="none" stroke="#000000" points="546,-333.7 546,-355.7 638,-355.7 638,-333.7 546,-333.7"/>
<image xlink:href="../../images/primaryKeys.png" width="11px" height="12px" preserveAspectRatio="xMinYMin meet" x="551" y="-350.7"/>
<text text-anchor="start" x="566" y="-340.8" font-family="Helvetica,sans-Serif" font-size="11.00" fill="#000000">rental_id</text>
<polygon fill="#ffffff" stroke="transparent" points="546,-311.7 546,-333.7 638,-333.7 638,-311.7 546,-311.7"/>
<polygon fill="none" stroke="#000000" points="546,-311.7 546,-333.7 638,-333.7 638,-311.7 546,-311.7"/>
<text text-anchor="start" x="566" y="-318.8" font-family="Helvetica,sans-Serif" font-size="11.00" fill="#000000">rental_date</text>
<polygon fill="#ffffff" stroke="transparent" points="546,-289.7 546,-311.7 638,-311.7 638,-289.7 546,-289.7"/>
<polygon fill="none" stroke="#000000" points="546,-289.7 546,-311.7 638,-311.7 638,-289.7 546,-289.7"/>
<image xlink:href="../../images/foreignKeys.png" width="11px" height="12px" preserveAspectRatio="xMinYMin meet" x="551" y="-306.7"/>
<text text-anchor="start" x="566" y="-296.8" font-family="Helvetica,sans-Serif" font-size="11.00" fill="#000000">inventory_id</text>
<polygon fill="#ffffff" stroke="transparent" points="546,-267.7 546,-289.7 638,-289.7 638,-267.7 546,-267.7"/>
<polygon fill="none" stroke="#000000" points="546,-267.7 546,-289.7 638,-289.7 638,-267.7 546,-267.7"/>
<image xlink:href="../../images/foreignKeys.png" width="11px" height="12px" preserveAspectRatio="xMinYMin meet" x="551" y="-284.7"/>
<text text-anchor="start" x="566" y="-274.8" font-family="Helvetica,sans-Serif" font-size="11.00" fill="#000000">customer_id</text>
<polygon fill="none" stroke="#000000" points="546,-245.7 546,-267.7 638,-267.7 638,-245.7 546,-245.7"/>
<image xlink:href="../../images/foreignKeys.png" width="11px" height="12px" preserveAspectRatio="xMinYMin meet" x="551" y="-262.7"/>
<text text-anchor="start" x="566" y="-252.8" font-family="Helvetica,sans-Serif" font-size="11.00" fill="#000000">staff_id</text>
<polygon fill="none" stroke="#000000" points="546,-226.7 546,-245.7 638,-245.7 638,-226.7 546,-226.7"/>
<text text-anchor="start" x="549" y="-232.8" font-family="Helvetica,sans-Serif" font-size="11.00" fill="#000000">...</text>
<polygon fill="#ffffff" stroke="transparent" points="546,-207.7 546,-226.7 573,-226.7 573,-207.7 546,-207.7"/>
<polygon fill="none" stroke="#000000" points="546,-207.7 546,-226.7 573,-226.7 573,-207.7 546,-207.7"/>
<text text-anchor="start" x="549" y="-213.8" font-family="Helvetica,sans-Serif" font-size="11.00" fill="#000000">&lt; 3</text>
<polygon fill="#ffffff" stroke="transparent" points="573,-207.7 573,-226.7 614,-226.7 614,-207.7 573,-207.7"/>
<polygon fill="none" stroke="#000000" points="573,-207.7 573,-226.7 614,-226.7 614,-207.7 573,-207.7"/>
<text text-anchor="start" x="578.6105" y="-213.8" font-family="Helvetica,sans-Serif" font-size="11.00" fill="#000000">0 rows</text>
<polygon fill="#ffffff" stroke="transparent" points="614,-207.7 614,-226.7 638,-226.7 638,-207.7 614,-207.7"/>
<polygon fill="none" stroke="#000000" points="614,-207.7 614,-226.7 638,-226.7 638,-207.7 614,-207.7"/>
<text text-anchor="start" x="619.4053" y="-213.8" font-family="Helvetica,sans-Serif" font-size="11.00" fill="#000000">1 &gt;</text>
</a>
</g>
</g>
<!-- payment&#45;&gt;rental -->
<g id="edge6" class="edge">
<title>payment:w&#45;&gt;rental:e</title>
<path fill="none" stroke="#000000" d="M672.8428,-344.7C661.4139,-344.7 654.1563,-344.7 638,-344.7"/>
<polygon fill="#000000" stroke="#000000" points="679.5,-344.7001 687.5,-348.3 683.5,-344.7 687.5,-344.7 687.5,-344.7 687.5,-344.7 683.5,-344.7 687.5,-341.1 679.5,-344.7001 679.5,-344.7001"/>
<ellipse fill="none" stroke="#000000" cx="676.3" cy="-344.7001" rx="3.2" ry="3.2"/>
</g>
<!-- staff -->
<g id="node9" class="node">
<title>staff</title>
<g id="a_node9"><a xlink:href="../../tables/staff.html" xlink:title="staff" target="_top">
<polygon fill="#ffffff" stroke="transparent" points="367,-38.2 367,-99.2 447,-99.2 447,-38.2 367,-38.2"/>
<polygon fill="#f5f5f5" stroke="transparent" points="367,-75.7 367,-98.7 447,-98.7 447,-75.7 367,-75.7"/>
<polygon fill="none" stroke="#000000" points="367,-75.7 367,-98.7 447,-98.7 447,-75.7 367,-75.7"/>
<text text-anchor="start" x="372" y="-84.8" font-family="Helvetica,sans-Serif" font-weight="bold" font-size="11.00" fill="#000000">staff</text>
<text text-anchor="start" x="412.0437" y="-83.8" font-family="Helvetica,sans-Serif" font-size="11.00" fill="#000000">[table]</text>
<polygon fill="none" stroke="#000000" points="367,-56.7 367,-75.7 447,-75.7 447,-56.7 367,-56.7"/>
<text text-anchor="start" x="370" y="-62.8" font-family="Helvetica,sans-Serif" font-size="11.00" fill="#000000">...</text>
<polygon fill="#ffffff" stroke="transparent" points="367,-37.7 367,-56.7 388,-56.7 388,-37.7 367,-37.7"/>
<polygon fill="none" stroke="#000000" points="367,-37.7 367,-56.7 388,-56.7 388,-37.7 367,-37.7"/>
<text text-anchor="start" x="369.7027" y="-43.8" font-family="Helvetica,sans-Serif" font-size="11.00" fill="#000000">&lt; 1</text>
<polygon fill="#ffffff" stroke="transparent" points="388,-37.7 388,-56.7 426,-56.7 426,-37.7 388,-37.7"/>
<polygon fill="none" stroke="#000000" points="388,-37.7 388,-56.7 426,-56.7 426,-37.7 388,-37.7"/>
<text text-anchor="start" x="390.8053" y="-43.8" font-family="Helvetica,sans-Serif" font-size="11.00" fill="#000000">0 rows</text>
<polygon fill="#ffffff" stroke="transparent" points="426,-37.7 426,-56.7 447,-56.7 447,-37.7 426,-37.7"/>
<polygon fill="none" stroke="#000000" points="426,-37.7 426,-56.7 447,-56.7 447,-37.7 426,-37.7"/>
<text text-anchor="start" x="428.7027" y="-43.8" font-family="Helvetica,sans-Serif" font-size="11.00" fill="#000000">3 &gt;</text>
</a>
</g>
</g>
<!-- payment&#45;&gt;staff -->
<g id="edge7" class="edge">
<title>payment:w&#45;&gt;staff:e</title>
<path fill="none" stroke="#000000" d="M673.0944,-342.8268C630.014,-329.4846 682.643,-247.9427 646,-197.7 583.4608,-111.9501 553.1329,-65.7 447,-65.7"/>
<polygon fill="#000000" stroke="#000000" points="679.5668,-343.6684 687.0358,-348.2699 683.5334,-344.1842 687.5,-344.7 687.5,-344.7 687.5,-344.7 683.5334,-344.1842 687.9642,-341.1301 679.5668,-343.6684 679.5668,-343.6684"/>
<ellipse fill="none" stroke="#000000" cx="676.3935" cy="-343.2557" rx="3.2" ry="3.2"/>
</g>
<!-- rental&#45;&gt;inventory -->
<g id="edge9" class="edge">
<title>rental:w&#45;&gt;inventory:e</title>
<path fill="none" stroke="#000000" d="M531.276,-300.7C519.2815,-300.7 511.8229,-300.7 495,-300.7"/>
<polygon fill="#000000" stroke="#000000" points="538,-300.7001 546,-304.3 542,-300.7 546,-300.7 546,-300.7 546,-300.7 542,-300.7 546,-297.1 538,-300.7001 538,-300.7001"/>
<ellipse fill="none" stroke="#000000" cx="534.8" cy="-300.7001" rx="3.2" ry="3.2"/>
</g>
<!-- rental&#45;&gt;customer -->
<g id="edge8" class="edge">
<title>rental:w&#45;&gt;customer:e</title>
<path fill="none" stroke="#000000" d="M531.5362,-280.5263C486.9609,-293.8812 541.641,-377.4264 505,-429.7 488.1555,-453.7312 480.3468,-467.7 451,-467.7"/>
<polygon fill="#000000" stroke="#000000" points="538.063,-279.7022 546.451,-282.2716 542.0315,-279.2011 546,-278.7 546,-278.7 546,-278.7 542.0315,-279.2011 545.549,-275.1284 538.063,-279.7022 538.063,-279.7022"/>
<ellipse fill="none" stroke="#000000" cx="534.8882" cy="-280.1031" rx="3.2" ry="3.2"/>
</g>
<!-- rental&#45;&gt;staff -->
<g id="edge10" class="edge">
<title>rental:w&#45;&gt;staff:e</title>
<path fill="none" stroke="#000000" d="M531.5807,-254.851C488.3558,-241.6769 539.9224,-161.0871 505,-109.7 486.8133,-82.9389 479.356,-65.7 447,-65.7"/>
<polygon fill="#000000" stroke="#000000" points="538.065,-255.6824 545.5421,-260.2708 542.0325,-256.1912 546,-256.7 546,-256.7 546,-256.7 542.0325,-256.1912 546.4579,-253.1292 538.065,-255.6824 538.065,-255.6824"/>
<ellipse fill="none" stroke="#000000" cx="534.891" cy="-255.2754" rx="3.2" ry="3.2"/>
</g>
</g>
</svg>
