<?xml version="1.0" encoding="UTF-8" standalone="no"?>
<!DOCTYPE svg PUBLIC "-//W3C//DTD SVG 1.1//EN"
 "http://www.w3.org/Graphics/SVG/1.1/DTD/svg11.dtd">
<!-- Generated by graphviz version 2.40.1 (20161225.0304)
 -->
<!-- Title: oneDegreeRelationshipsDiagram Pages: 1 -->
<svg width="535pt" height="369pt"
 viewBox="0.00 0.00 535.00 369.20" xmlns="http://www.w3.org/2000/svg" xmlns:xlink="http://www.w3.org/1999/xlink">
<g id="graph0" class="graph" transform="scale(1 1) rotate(0) translate(4 365.2)">
<title>oneDegreeRelationshipsDiagram</title>
<polygon fill="#ffffff" stroke="transparent" points="-4,4 -4,-365.2 531,-365.2 531,4 -4,4"/>
<text text-anchor="middle" x="72.4936" y="-7.3" font-family="Helvetica,sans-Serif" font-size="11.00" fill="#000000">Generated by SchemaSpy</text>
<!-- inventory -->
<g id="node1" class="node">
<title>inventory</title>
<g id="a_node1"><a xlink:href="../../tables/inventory.html" xlink:title="inventory" target="_top">
<polygon fill="#ffffff" stroke="transparent" points="198,-161.7 198,-295.7 378,-295.7 378,-161.7 198,-161.7"/>
<polygon fill="#f5f5f5" stroke="transparent" points="200,-270.7 200,-293.7 376,-293.7 376,-270.7 200,-270.7"/>
<polygon fill="none" stroke="#000000" points="200,-270.7 200,-293.7 376,-293.7 376,-270.7 200,-270.7"/>
<text text-anchor="start" x="205" y="-279.8" font-family="Helvetica,sans-Serif" font-weight="bold" font-size="11.00" fill="#000000">inventory</text>
<text text-anchor="start" x="341.0437" y="-278.8" font-family="Helvetica,sans-Serif" font-size="11.00" fill="#000000">[table]</text>
<polygon fill="none" stroke="#000000" points="200,-248.7 200,-270.7 292,-270.7 292,-248.7 200,-248.7"/>
<image xlink:href="../../images/primaryKeys.png" width="11px" height="12px" preserveAspectRatio="xMinYMin meet" x="205" y="-265.7"/>
<text text-anchor="start" x="220" y="-255.8" font-family="Helvetica,sans-Serif" font-size="11.00" fill="#000000">inventory_id</text>
<polygon fill="none" stroke="#000000" points="292,-248.7 292,-270.7 376,-270.7 376,-248.7 292,-248.7"/>
<text text-anchor="start" x="295" y="-256.4" font-family="Helvetica,sans-Serif" font-size="11.00" fill="#000000">serial[10]</text>
<polygon fill="#ffffff" stroke="transparent" points="200,-226.7 200,-248.7 292,-248.7 292,-226.7 200,-226.7"/>
<polygon fill="none" stroke="#000000" points="200,-226.7 200,-248.7 292,-248.7 292,-226.7 200,-226.7"/>
<image xlink:href="../../images/foreignKeys.png" width="11px" height="12px" preserveAspectRatio="xMinYMin meet" x="205" y="-243.7"/>
<text text-anchor="start" x="220" y="-233.8" font-family="Helvetica,sans-Serif" font-size="11.00" fill="#000000">film_id</text>
<polygon fill="none" stroke="#000000" points="292,-226.7 292,-248.7 376,-248.7 376,-226.7 292,-226.7"/>
<text text-anchor="start" x="295" y="-234.4" font-family="Helvetica,sans-Serif" font-size="11.00" fill="#000000">int2[5]</text>
<polygon fill="#ffffff" stroke="transparent" points="200,-204.7 200,-226.7 292,-226.7 292,-204.7 200,-204.7"/>
<polygon fill="none" stroke="#000000" points="200,-204.7 200,-226.7 292,-226.7 292,-204.7 200,-204.7"/>
<image xlink:href="../../images/foreignKeys.png" width="11px" height="12px" preserveAspectRatio="xMinYMin meet" x="205" y="-221.7"/>
<text text-anchor="start" x="220" y="-211.8" font-family="Helvetica,sans-Serif" font-size="11.00" fill="#000000">store_id</text>
<polygon fill="none" stroke="#000000" points="292,-204.7 292,-226.7 376,-226.7 376,-204.7 292,-204.7"/>
<text text-anchor="start" x="295" y="-212.4" font-family="Helvetica,sans-Serif" font-size="11.00" fill="#000000">int2[5]</text>
<polygon fill="none" stroke="#000000" points="200,-182.7 200,-204.7 292,-204.7 292,-182.7 200,-182.7"/>
<text text-anchor="start" x="220" y="-189.8" font-family="Helvetica,sans-Serif" font-size="11.00" fill="#000000">last_update</text>
<polygon fill="none" stroke="#000000" points="292,-182.7 292,-204.7 376,-204.7 376,-182.7 292,-182.7"/>
<text text-anchor="start" x="294.8807" y="-190.4" font-family="Helvetica,sans-Serif" font-size="11.00" fill="#000000">timestamp[29,6]</text>
<polygon fill="#ffffff" stroke="transparent" points="200,-163.7 200,-182.7 237,-182.7 237,-163.7 200,-163.7"/>
<polygon fill="none" stroke="#000000" points="200,-163.7 200,-182.7 237,-182.7 237,-163.7 200,-163.7"/>
<text text-anchor="start" x="203" y="-169.8" font-family="Helvetica,sans-Serif" font-size="11.00" fill="#000000">&lt; 2</text>
<polygon fill="#ffffff" stroke="transparent" points="237,-163.7 237,-182.7 292,-182.7 292,-163.7 237,-163.7"/>
<polygon fill="none" stroke="#000000" points="237,-163.7 237,-182.7 292,-182.7 292,-163.7 237,-163.7"/>
<text text-anchor="start" x="256.6105" y="-169.8" font-family="Helvetica,sans-Serif" font-size="11.00" fill="#000000">0 rows</text>
<polygon fill="#ffffff" stroke="transparent" points="292,-163.7 292,-182.7 376,-182.7 376,-163.7 292,-163.7"/>
<polygon fill="none" stroke="#000000" points="292,-163.7 292,-182.7 376,-182.7 376,-163.7 292,-163.7"/>
<text text-anchor="start" x="357.4053" y="-169.8" font-family="Helvetica,sans-Serif" font-size="11.00" fill="#000000">1 &gt;</text>
<polygon fill="none" stroke="#000000" stroke-width="2" points="199,-162.7 199,-294.7 377,-294.7 377,-162.7 199,-162.7"/>
</a>
</g>
</g>
<!-- film -->
<g id="node2" class="node">
<title>film</title>
<g id="a_node2"><a xlink:href="../../tables/film.html" xlink:title="film" target="_top">
<polygon fill="#ffffff" stroke="transparent" points="8,-186.2 8,-357.2 149,-357.2 149,-186.2 8,-186.2"/>
<polygon fill="#f5f5f5" stroke="transparent" points="8.5,-333.7 8.5,-356.7 149.5,-356.7 149.5,-333.7 8.5,-333.7"/>
<polygon fill="none" stroke="#000000" points="8.5,-333.7 8.5,-356.7 149.5,-356.7 149.5,-333.7 8.5,-333.7"/>
<text text-anchor="start" x="13.5" y="-342.8" font-family="Helvetica,sans-Serif" font-weight="bold" font-size="11.00" fill="#000000">film</text>
<text text-anchor="start" x="114.5437" y="-341.8" font-family="Helvetica,sans-Serif" font-size="11.00" fill="#000000">[table]</text>
<polygon fill="none" stroke="#000000" points="8.5,-311.7 8.5,-333.7 149.5,-333.7 149.5,-311.7 8.5,-311.7"/>
<image xlink:href="../../images/primaryKeys.png" width="11px" height="12px" preserveAspectRatio="xMinYMin meet" x="13.5" y="-328.7"/>
<text text-anchor="start" x="28.5" y="-318.8" font-family="Helvetica,sans-Serif" font-size="11.00" fill="#000000">film_id</text>
<polygon fill="#ffffff" stroke="transparent" points="8.5,-289.7 8.5,-311.7 149.5,-311.7 149.5,-289.7 8.5,-289.7"/>
<polygon fill="none" stroke="#000000" points="8.5,-289.7 8.5,-311.7 149.5,-311.7 149.5,-289.7 8.5,-289.7"/>
<text text-anchor="start" x="28.5" y="-296.8" font-family="Helvetica,sans-Serif" font-size="11.00" fill="#000000">title</text>
<polygon fill="#ffffff" stroke="transparent" points="8.5,-267.7 8.5,-289.7 149.5,-289.7 149.5,-267.7 8.5,-267.7"/>
<polygon fill="none" stroke="#000000" points="8.5,-267.7 8.5,-289.7 149.5,-289.7 149.5,-267.7 8.5,-267.7"/>
<image xlink:href="../../images/foreignKeys.png" width="11px" height="12px" preserveAspectRatio="xMinYMin meet" x="13.5" y="-284.7"/>
<text text-anchor="start" x="28.5" y="-274.8" font-family="Helvetica,sans-Serif" font-size="11.00" fill="#000000">language_id</text>
<polygon fill="#ffffff" stroke="transparent" points="8.5,-245.7 8.5,-267.7 149.5,-267.7 149.5,-245.7 8.5,-245.7"/>
<polygon fill="none" stroke="#000000" points="8.5,-245.7 8.5,-267.7 149.5,-267.7 149.5,-245.7 8.5,-245.7"/>
<image xlink:href="../../images/foreignKeys.png" width="11px" height="12px" preserveAspectRatio="xMinYMin meet" x="13.5" y="-262.7"/>
<text text-anchor="start" x="28.5" y="-252.8" font-family="Helvetica,sans-Serif" font-size="11.00" fill="#000000">original_language_id</text>
<polygon fill="#ffffff" stroke="transparent" points="8.5,-223.7 8.5,-245.7 149.5,-245.7 149.5,-223.7 8.5,-223.7"/>
<polygon fill="none" stroke="#000000" points="8.5,-223.7 8.5,-245.7 149.5,-245.7 149.5,-223.7 8.5,-223.7"/>
<text text-anchor="start" x="28.5" y="-230.8" font-family="Helvetica,sans-Serif" font-size="11.00" fill="#000000">fulltext</text>
<polygon fill="none" stroke="#000000" points="8.5,-204.7 8.5,-223.7 149.5,-223.7 149.5,-204.7 8.5,-204.7"/>
<text text-anchor="start" x="11.5" y="-210.8" font-family="Helvetica,sans-Serif" font-size="11.00" fill="#000000">...</text>
<polygon fill="#ffffff" stroke="transparent" points="8.5,-185.7 8.5,-204.7 59.5,-204.7 59.5,-185.7 8.5,-185.7"/>
<polygon fill="none" stroke="#000000" points="8.5,-185.7 8.5,-204.7 59.5,-204.7 59.5,-185.7 8.5,-185.7"/>
<text text-anchor="start" x="11.5" y="-191.8" font-family="Helvetica,sans-Serif" font-size="11.00" fill="#000000">&lt; 2</text>
<polygon fill="#ffffff" stroke="transparent" points="59.5,-185.7 59.5,-204.7 112.5,-204.7 112.5,-185.7 59.5,-185.7"/>
<polygon fill="none" stroke="#000000" points="59.5,-185.7 59.5,-204.7 112.5,-204.7 112.5,-185.7 59.5,-185.7"/>
<text text-anchor="start" x="77.1105" y="-191.8" font-family="Helvetica,sans-Serif" font-size="11.00" fill="#000000">0 rows</text>
<polygon fill="#ffffff" stroke="transparent" points="112.5,-185.7 112.5,-204.7 149.5,-204.7 149.5,-185.7 112.5,-185.7"/>
<polygon fill="none" stroke="#000000" points="112.5,-185.7 112.5,-204.7 149.5,-204.7 149.5,-185.7 112.5,-185.7"/>
<text text-anchor="start" x="130.9053" y="-191.8" font-family="Helvetica,sans-Serif" font-size="11.00" fill="#000000">3 &gt;</text>
</a>
</g>
</g>
<!-- inventory&#45;&gt;film -->
<g id="edge1" class="edge">
<title>inventory:w&#45;&gt;film:e</title>
<path fill="none" stroke="#000000" d="M186.1216,-242.032C164.76,-259.3534 187.4344,-322.7 149.5,-322.7"/>
<polygon fill="#000000" stroke="#000000" points="192.3634,-240.0837 201.0727,-241.1365 196.1817,-238.8919 200,-237.7 200,-237.7 200,-237.7 196.1817,-238.8919 198.9273,-234.2635 192.3634,-240.0837 192.3634,-240.0837"/>
<ellipse fill="none" stroke="#000000" cx="189.3087" cy="-241.0372" rx="3.2" ry="3.2"/>
</g>
<!-- store -->
<g id="node3" class="node">
<title>store</title>
<g id="a_node3"><a xlink:href="../../tables/store.html" xlink:title="store" target="_top">
<polygon fill="#ffffff" stroke="transparent" points="18.5,-38.2 18.5,-165.2 138.5,-165.2 138.5,-38.2 18.5,-38.2"/>
<polygon fill="#f5f5f5" stroke="transparent" points="18.5,-141.7 18.5,-164.7 138.5,-164.7 138.5,-141.7 18.5,-141.7"/>
<polygon fill="none" stroke="#000000" points="18.5,-141.7 18.5,-164.7 138.5,-164.7 138.5,-141.7 18.5,-141.7"/>
<text text-anchor="start" x="23.5" y="-150.8" font-family="Helvetica,sans-Serif" font-weight="bold" font-size="11.00" fill="#000000">store</text>
<text text-anchor="start" x="103.5437" y="-149.8" font-family="Helvetica,sans-Serif" font-size="11.00" fill="#000000">[table]</text>
<polygon fill="none" stroke="#000000" points="18.5,-119.7 18.5,-141.7 138.5,-141.7 138.5,-119.7 18.5,-119.7"/>
<image xlink:href="../../images/primaryKeys.png" width="11px" height="12px" preserveAspectRatio="xMinYMin meet" x="23.5" y="-136.7"/>
<text text-anchor="start" x="38.5" y="-126.8" font-family="Helvetica,sans-Serif" font-size="11.00" fill="#000000">store_id</text>
<polygon fill="#ffffff" stroke="transparent" points="18.5,-97.7 18.5,-119.7 138.5,-119.7 138.5,-97.7 18.5,-97.7"/>
<polygon fill="none" stroke="#000000" points="18.5,-97.7 18.5,-119.7 138.5,-119.7 138.5,-97.7 18.5,-97.7"/>
<image xlink:href="../../images/foreignKeys.png" width="11px" height="12px" preserveAspectRatio="xMinYMin meet" x="23.5" y="-114.7"/>
<text text-anchor="start" x="38.5" y="-104.8" font-family="Helvetica,sans-Serif" font-size="11.00" fill="#000000">manager_staff_id</text>
<polygon fill="none" stroke="#000000" points="18.5,-75.7 18.5,-97.7 138.5,-97.7 138.5,-75.7 18.5,-75.7"/>
<image xlink:href="../../images/foreignKeys.png" width="11px" height="12px" preserveAspectRatio="xMinYMin meet" x="23.5" y="-92.7"/>
<text text-anchor="start" x="38.5" y="-82.8" font-family="Helvetica,sans-Serif" font-size="11.00" fill="#000000">address_id</text>
<polygon fill="none" stroke="#000000" points="18.5,-56.7 18.5,-75.7 138.5,-75.7 138.5,-56.7 18.5,-56.7"/>
<text text-anchor="start" x="21.5" y="-62.8" font-family="Helvetica,sans-Serif" font-size="11.00" fill="#000000">...</text>
<polygon fill="#ffffff" stroke="transparent" points="18.5,-37.7 18.5,-56.7 59.5,-56.7 59.5,-37.7 18.5,-37.7"/>
<polygon fill="none" stroke="#000000" points="18.5,-37.7 18.5,-56.7 59.5,-56.7 59.5,-37.7 18.5,-37.7"/>
<text text-anchor="start" x="21.5" y="-43.8" font-family="Helvetica,sans-Serif" font-size="11.00" fill="#000000">&lt; 2</text>
<polygon fill="#ffffff" stroke="transparent" points="59.5,-37.7 59.5,-56.7 107.5,-56.7 107.5,-37.7 59.5,-37.7"/>
<polygon fill="none" stroke="#000000" points="59.5,-37.7 59.5,-56.7 107.5,-56.7 107.5,-37.7 59.5,-37.7"/>
<text text-anchor="start" x="72.1105" y="-43.8" font-family="Helvetica,sans-Serif" font-size="11.00" fill="#000000">0 rows</text>
<polygon fill="#ffffff" stroke="transparent" points="107.5,-37.7 107.5,-56.7 138.5,-56.7 138.5,-37.7 107.5,-37.7"/>
<polygon fill="none" stroke="#000000" points="107.5,-37.7 107.5,-56.7 138.5,-56.7 138.5,-37.7 107.5,-37.7"/>
<text text-anchor="start" x="119.9053" y="-43.8" font-family="Helvetica,sans-Serif" font-size="11.00" fill="#000000">3 &gt;</text>
</a>
</g>
</g>
<!-- inventory&#45;&gt;store -->
<g id="edge2" class="edge">
<title>inventory:w&#45;&gt;store:e</title>
<path fill="none" stroke="#000000" d="M185.8823,-212.0477C160.0857,-195.7781 179.3004,-130.7 138.5,-130.7"/>
<polygon fill="#000000" stroke="#000000" points="192.255,-213.6963 199.0983,-219.1853 196.1275,-214.6981 200,-215.7 200,-215.7 200,-215.7 196.1275,-214.6981 200.9017,-212.2147 192.255,-213.6963 192.255,-213.6963"/>
<ellipse fill="none" stroke="#000000" cx="189.157" cy="-212.8948" rx="3.2" ry="3.2"/>
</g>
<!-- rental -->
<g id="node4" class="node">
<title>rental</title>
<g id="a_node4"><a xlink:href="../../tables/rental.html" xlink:title="rental" target="_top">
<polygon fill="#ffffff" stroke="transparent" points="427,-167.2 427,-338.2 519,-338.2 519,-167.2 427,-167.2"/>
<polygon fill="#f5f5f5" stroke="transparent" points="427,-314.7 427,-337.7 519,-337.7 519,-314.7 427,-314.7"/>
<polygon fill="none" stroke="#000000" points="427,-314.7 427,-337.7 519,-337.7 519,-314.7 427,-314.7"/>
<text text-anchor="start" x="432" y="-323.8" font-family="Helvetica,sans-Serif" font-weight="bold" font-size="11.00" fill="#000000">rental</text>
<text text-anchor="start" x="484.0437" y="-322.8" font-family="Helvetica,sans-Serif" font-size="11.00" fill="#000000">[table]</text>
<polygon fill="none" stroke="#000000" points="427,-292.7 427,-314.7 519,-314.7 519,-292.7 427,-292.7"/>
<image xlink:href="../../images/primaryKeys.png" width="11px" height="12px" preserveAspectRatio="xMinYMin meet" x="432" y="-309.7"/>
<text text-anchor="start" x="447" y="-299.8" font-family="Helvetica,sans-Serif" font-size="11.00" fill="#000000">rental_id</text>
<polygon fill="#ffffff" stroke="transparent" points="427,-270.7 427,-292.7 519,-292.7 519,-270.7 427,-270.7"/>
<polygon fill="none" stroke="#000000" points="427,-270.7 427,-292.7 519,-292.7 519,-270.7 427,-270.7"/>
<text text-anchor="start" x="447" y="-277.8" font-family="Helvetica,sans-Serif" font-size="11.00" fill="#000000">rental_date</text>
<polygon fill="#ffffff" stroke="transparent" points="427,-248.7 427,-270.7 519,-270.7 519,-248.7 427,-248.7"/>
<polygon fill="none" stroke="#000000" points="427,-248.7 427,-270.7 519,-270.7 519,-248.7 427,-248.7"/>
<image xlink:href="../../images/foreignKeys.png" width="11px" height="12px" preserveAspectRatio="xMinYMin meet" x="432" y="-265.7"/>
<text text-anchor="start" x="447" y="-255.8" font-family="Helvetica,sans-Serif" font-size="11.00" fill="#000000">inventory_id</text>
<polygon fill="#ffffff" stroke="transparent" points="427,-226.7 427,-248.7 519,-248.7 519,-226.7 427,-226.7"/>
<polygon fill="none" stroke="#000000" points="427,-226.7 427,-248.7 519,-248.7 519,-226.7 427,-226.7"/>
<image xlink:href="../../images/foreignKeys.png" width="11px" height="12px" preserveAspectRatio="xMinYMin meet" x="432" y="-243.7"/>
<text text-anchor="start" x="447" y="-233.8" font-family="Helvetica,sans-Serif" font-size="11.00" fill="#000000">customer_id</text>
<polygon fill="none" stroke="#000000" points="427,-204.7 427,-226.7 519,-226.7 519,-204.7 427,-204.7"/>
<image xlink:href="../../images/foreignKeys.png" width="11px" height="12px" preserveAspectRatio="xMinYMin meet" x="432" y="-221.7"/>
<text text-anchor="start" x="447" y="-211.8" font-family="Helvetica,sans-Serif" font-size="11.00" fill="#000000">staff_id</text>
<polygon fill="none" stroke="#000000" points="427,-185.7 427,-204.7 519,-204.7 519,-185.7 427,-185.7"/>
<text text-anchor="start" x="430" y="-191.8" font-family="Helvetica,sans-Serif" font-size="11.00" fill="#000000">...</text>
<polygon fill="#ffffff" stroke="transparent" points="427,-166.7 427,-185.7 454,-185.7 454,-166.7 427,-166.7"/>
<polygon fill="none" stroke="#000000" points="427,-166.7 427,-185.7 454,-185.7 454,-166.7 427,-166.7"/>
<text text-anchor="start" x="430" y="-172.8" font-family="Helvetica,sans-Serif" font-size="11.00" fill="#000000">&lt; 3</text>
<polygon fill="#ffffff" stroke="transparent" points="454,-166.7 454,-185.7 495,-185.7 495,-166.7 454,-166.7"/>
<polygon fill="none" stroke="#000000" points="454,-166.7 454,-185.7 495,-185.7 495,-166.7 454,-166.7"/>
<text text-anchor="start" x="459.6105" y="-172.8" font-family="Helvetica,sans-Serif" font-size="11.00" fill="#000000">0 rows</text>
<polygon fill="#ffffff" stroke="transparent" points="495,-166.7 495,-185.7 519,-185.7 519,-166.7 495,-166.7"/>
<polygon fill="none" stroke="#000000" points="495,-166.7 495,-185.7 519,-185.7 519,-166.7 495,-166.7"/>
<text text-anchor="start" x="500.4053" y="-172.8" font-family="Helvetica,sans-Serif" font-size="11.00" fill="#000000">7 &gt;</text>
</a>
</g>
</g>
<!-- rental&#45;&gt;inventory -->
<g id="edge3" class="edge">
<title>rental:w&#45;&gt;inventory:e</title>
<path fill="none" stroke="#000000" d="M412.276,-259.7C400.2815,-259.7 392.8229,-259.7 376,-259.7"/>
<polygon fill="#000000" stroke="#000000" points="419,-259.7001 427,-263.3 423,-259.7 427,-259.7 427,-259.7 427,-259.7 423,-259.7 427,-256.1 419,-259.7001 419,-259.7001"/>
<ellipse fill="none" stroke="#000000" cx="415.8" cy="-259.7001" rx="3.2" ry="3.2"/>
</g>
</g>
</svg>
