<?xml version="1.0" encoding="UTF-8" standalone="no"?>
<!DOCTYPE svg PUBLIC "-//W3C//DTD SVG 1.1//EN"
 "http://www.w3.org/Graphics/SVG/1.1/DTD/svg11.dtd">
<!-- Generated by graphviz version 2.40.1 (20161225.0304)
 -->
<!-- Title: twoDegreesRelationshipsDiagram Pages: 1 -->
<svg width="550pt" height="302pt"
 viewBox="0.00 0.00 550.00 302.20" xmlns="http://www.w3.org/2000/svg" xmlns:xlink="http://www.w3.org/1999/xlink">
<g id="graph0" class="graph" transform="scale(1 1) rotate(0) translate(4 298.2)">
<title>twoDegreesRelationshipsDiagram</title>
<polygon fill="#ffffff" stroke="transparent" points="-4,4 -4,-298.2 546,-298.2 546,4 -4,4"/>
<text text-anchor="middle" x="72.4936" y="-7.3" font-family="Helvetica,sans-Serif" font-size="11.00" fill="#000000">Generated by SchemaSpy</text>
<!-- film -->
<g id="node1" class="node">
<title>film</title>
<g id="a_node1"><a xlink:href="../../tables/film.html" xlink:title="film" target="_top">
<polygon fill="#ffffff" stroke="transparent" points="236,-38.2 236,-209.2 377,-209.2 377,-38.2 236,-38.2"/>
<polygon fill="#f5f5f5" stroke="transparent" points="236.5,-185.7 236.5,-208.7 377.5,-208.7 377.5,-185.7 236.5,-185.7"/>
<polygon fill="none" stroke="#000000" points="236.5,-185.7 236.5,-208.7 377.5,-208.7 377.5,-185.7 236.5,-185.7"/>
<text text-anchor="start" x="241.5" y="-194.8" font-family="Helvetica,sans-Serif" font-weight="bold" font-size="11.00" fill="#000000">film</text>
<text text-anchor="start" x="342.5437" y="-193.8" font-family="Helvetica,sans-Serif" font-size="11.00" fill="#000000">[table]</text>
<polygon fill="none" stroke="#000000" points="236.5,-163.7 236.5,-185.7 377.5,-185.7 377.5,-163.7 236.5,-163.7"/>
<image xlink:href="../../images/primaryKeys.png" width="11px" height="12px" preserveAspectRatio="xMinYMin meet" x="241.5" y="-180.7"/>
<text text-anchor="start" x="256.5" y="-170.8" font-family="Helvetica,sans-Serif" font-size="11.00" fill="#000000">film_id</text>
<polygon fill="#ffffff" stroke="transparent" points="236.5,-141.7 236.5,-163.7 377.5,-163.7 377.5,-141.7 236.5,-141.7"/>
<polygon fill="none" stroke="#000000" points="236.5,-141.7 236.5,-163.7 377.5,-163.7 377.5,-141.7 236.5,-141.7"/>
<text text-anchor="start" x="256.5" y="-148.8" font-family="Helvetica,sans-Serif" font-size="11.00" fill="#000000">title</text>
<polygon fill="#ffffff" stroke="transparent" points="236.5,-119.7 236.5,-141.7 377.5,-141.7 377.5,-119.7 236.5,-119.7"/>
<polygon fill="none" stroke="#000000" points="236.5,-119.7 236.5,-141.7 377.5,-141.7 377.5,-119.7 236.5,-119.7"/>
<image xlink:href="../../images/foreignKeys.png" width="11px" height="12px" preserveAspectRatio="xMinYMin meet" x="241.5" y="-136.7"/>
<text text-anchor="start" x="256.5" y="-126.8" font-family="Helvetica,sans-Serif" font-size="11.00" fill="#000000">language_id</text>
<polygon fill="#ffffff" stroke="transparent" points="236.5,-97.7 236.5,-119.7 377.5,-119.7 377.5,-97.7 236.5,-97.7"/>
<polygon fill="none" stroke="#000000" points="236.5,-97.7 236.5,-119.7 377.5,-119.7 377.5,-97.7 236.5,-97.7"/>
<image xlink:href="../../images/foreignKeys.png" width="11px" height="12px" preserveAspectRatio="xMinYMin meet" x="241.5" y="-114.7"/>
<text text-anchor="start" x="256.5" y="-104.8" font-family="Helvetica,sans-Serif" font-size="11.00" fill="#000000">original_language_id</text>
<polygon fill="#ffffff" stroke="transparent" points="236.5,-75.7 236.5,-97.7 377.5,-97.7 377.5,-75.7 236.5,-75.7"/>
<polygon fill="none" stroke="#000000" points="236.5,-75.7 236.5,-97.7 377.5,-97.7 377.5,-75.7 236.5,-75.7"/>
<text text-anchor="start" x="256.5" y="-82.8" font-family="Helvetica,sans-Serif" font-size="11.00" fill="#000000">fulltext</text>
<polygon fill="none" stroke="#000000" points="236.5,-56.7 236.5,-75.7 377.5,-75.7 377.5,-56.7 236.5,-56.7"/>
<text text-anchor="start" x="239.5" y="-62.8" font-family="Helvetica,sans-Serif" font-size="11.00" fill="#000000">...</text>
<polygon fill="#ffffff" stroke="transparent" points="236.5,-37.7 236.5,-56.7 287.5,-56.7 287.5,-37.7 236.5,-37.7"/>
<polygon fill="none" stroke="#000000" points="236.5,-37.7 236.5,-56.7 287.5,-56.7 287.5,-37.7 236.5,-37.7"/>
<text text-anchor="start" x="239.5" y="-43.8" font-family="Helvetica,sans-Serif" font-size="11.00" fill="#000000">&lt; 2</text>
<polygon fill="#ffffff" stroke="transparent" points="287.5,-37.7 287.5,-56.7 340.5,-56.7 340.5,-37.7 287.5,-37.7"/>
<polygon fill="none" stroke="#000000" points="287.5,-37.7 287.5,-56.7 340.5,-56.7 340.5,-37.7 287.5,-37.7"/>
<text text-anchor="start" x="305.1105" y="-43.8" font-family="Helvetica,sans-Serif" font-size="11.00" fill="#000000">0 rows</text>
<polygon fill="#ffffff" stroke="transparent" points="340.5,-37.7 340.5,-56.7 377.5,-56.7 377.5,-37.7 340.5,-37.7"/>
<polygon fill="none" stroke="#000000" points="340.5,-37.7 340.5,-56.7 377.5,-56.7 377.5,-37.7 340.5,-37.7"/>
<text text-anchor="start" x="358.9053" y="-43.8" font-family="Helvetica,sans-Serif" font-size="11.00" fill="#000000">3 &gt;</text>
</a>
</g>
</g>
<!-- language -->
<g id="node2" class="node">
<title>language</title>
<g id="a_node2"><a xlink:href="../../tables/language.html" xlink:title="language" target="_top">
<polygon fill="#ffffff" stroke="transparent" points="8,-43.7 8,-155.7 187,-155.7 187,-43.7 8,-43.7"/>
<polygon fill="#f5f5f5" stroke="transparent" points="10.5,-130.7 10.5,-153.7 185.5,-153.7 185.5,-130.7 10.5,-130.7"/>
<polygon fill="none" stroke="#000000" points="10.5,-130.7 10.5,-153.7 185.5,-153.7 185.5,-130.7 10.5,-130.7"/>
<text text-anchor="start" x="15.5" y="-139.8" font-family="Helvetica,sans-Serif" font-weight="bold" font-size="11.00" fill="#000000">language</text>
<text text-anchor="start" x="150.5437" y="-138.8" font-family="Helvetica,sans-Serif" font-size="11.00" fill="#000000">[table]</text>
<polygon fill="none" stroke="#000000" points="10.5,-108.7 10.5,-130.7 101.5,-130.7 101.5,-108.7 10.5,-108.7"/>
<image xlink:href="../../images/primaryKeys.png" width="11px" height="12px" preserveAspectRatio="xMinYMin meet" x="15.5" y="-125.7"/>
<text text-anchor="start" x="30.5" y="-115.8" font-family="Helvetica,sans-Serif" font-size="11.00" fill="#000000">language_id</text>
<polygon fill="none" stroke="#000000" points="101.5,-108.7 101.5,-130.7 185.5,-130.7 185.5,-108.7 101.5,-108.7"/>
<text text-anchor="start" x="104.5" y="-116.4" font-family="Helvetica,sans-Serif" font-size="11.00" fill="#000000">serial[10]</text>
<polygon fill="none" stroke="#000000" points="10.5,-86.7 10.5,-108.7 101.5,-108.7 101.5,-86.7 10.5,-86.7"/>
<text text-anchor="start" x="30.5" y="-93.8" font-family="Helvetica,sans-Serif" font-size="11.00" fill="#000000">name</text>
<polygon fill="none" stroke="#000000" points="101.5,-86.7 101.5,-108.7 185.5,-108.7 185.5,-86.7 101.5,-86.7"/>
<text text-anchor="start" x="104.5" y="-94.4" font-family="Helvetica,sans-Serif" font-size="11.00" fill="#000000">bpchar[20]</text>
<polygon fill="none" stroke="#000000" points="10.5,-64.7 10.5,-86.7 101.5,-86.7 101.5,-64.7 10.5,-64.7"/>
<text text-anchor="start" x="30.5" y="-71.8" font-family="Helvetica,sans-Serif" font-size="11.00" fill="#000000">last_update</text>
<polygon fill="none" stroke="#000000" points="101.5,-64.7 101.5,-86.7 185.5,-86.7 185.5,-64.7 101.5,-64.7"/>
<text text-anchor="start" x="104.3807" y="-72.4" font-family="Helvetica,sans-Serif" font-size="11.00" fill="#000000">timestamp[29,6]</text>
<polygon fill="#ffffff" stroke="transparent" points="10.5,-45.7 10.5,-64.7 47.5,-64.7 47.5,-45.7 10.5,-45.7"/>
<polygon fill="none" stroke="#000000" points="10.5,-45.7 10.5,-64.7 47.5,-64.7 47.5,-45.7 10.5,-45.7"/>
<text text-anchor="start" x="13.5" y="-51.8" font-family="Helvetica,sans-Serif" font-size="11.00" fill="#000000">&lt; 0</text>
<polygon fill="#ffffff" stroke="transparent" points="47.5,-45.7 47.5,-64.7 101.5,-64.7 101.5,-45.7 47.5,-45.7"/>
<polygon fill="none" stroke="#000000" points="47.5,-45.7 47.5,-64.7 101.5,-64.7 101.5,-45.7 47.5,-45.7"/>
<text text-anchor="start" x="66.1105" y="-51.8" font-family="Helvetica,sans-Serif" font-size="11.00" fill="#000000">0 rows</text>
<polygon fill="#ffffff" stroke="transparent" points="101.5,-45.7 101.5,-64.7 185.5,-64.7 185.5,-45.7 101.5,-45.7"/>
<polygon fill="none" stroke="#000000" points="101.5,-45.7 101.5,-64.7 185.5,-64.7 185.5,-45.7 101.5,-45.7"/>
<text text-anchor="start" x="166.9053" y="-51.8" font-family="Helvetica,sans-Serif" font-size="11.00" fill="#000000">2 &gt;</text>
<polygon fill="none" stroke="#000000" stroke-width="2" points="9,-44.7 9,-154.7 186,-154.7 186,-44.7 9,-44.7"/>
</a>
</g>
</g>
<!-- film&#45;&gt;language -->
<g id="edge1" class="edge">
<title>film:w&#45;&gt;language:e</title>
<path fill="none" stroke="#000000" d="M222.0097,-128.9813C209.8398,-125.8875 202.8909,-119.7 185.5,-119.7"/>
<polygon fill="#000000" stroke="#000000" points="228.5557,-129.7576 236.0759,-134.2749 232.5278,-130.2288 236.5,-130.7 236.5,-130.7 236.5,-130.7 232.5278,-130.2288 236.9241,-127.1251 228.5557,-129.7576 228.5557,-129.7576"/>
<ellipse fill="none" stroke="#000000" cx="225.378" cy="-129.3807" rx="3.2" ry="3.2"/>
</g>
<!-- film&#45;&gt;language -->
<g id="edge2" class="edge">
<title>film:w&#45;&gt;language:e</title>
<path fill="none" stroke="#000000" d="M222.0097,-110.4188C209.8398,-113.5125 202.8909,-119.7 185.5,-119.7"/>
<polygon fill="#000000" stroke="#000000" points="228.5557,-109.6424 236.9241,-112.2749 232.5278,-109.1712 236.5,-108.7 236.5,-108.7 236.5,-108.7 232.5278,-109.1712 236.0759,-105.1251 228.5557,-109.6424 228.5557,-109.6424"/>
<ellipse fill="none" stroke="#000000" cx="225.378" cy="-110.0193" rx="3.2" ry="3.2"/>
</g>
<!-- film_actor -->
<g id="node3" class="node">
<title>film_actor</title>
<g id="a_node3"><a xlink:href="../../tables/film_actor.html" xlink:title="film_actor" target="_top">
<polygon fill="#ffffff" stroke="transparent" points="435,-229.2 435,-290.2 525,-290.2 525,-229.2 435,-229.2"/>
<polygon fill="#f5f5f5" stroke="transparent" points="435,-266.7 435,-289.7 525,-289.7 525,-266.7 435,-266.7"/>
<polygon fill="none" stroke="#000000" points="435,-266.7 435,-289.7 525,-289.7 525,-266.7 435,-266.7"/>
<text text-anchor="start" x="439.668" y="-275.8" font-family="Helvetica,sans-Serif" font-weight="bold" font-size="11.00" fill="#000000">film_actor</text>
<text text-anchor="start" x="490.5219" y="-274.8" font-family="Helvetica,sans-Serif" font-size="11.00" fill="#000000">[table]</text>
<polygon fill="none" stroke="#000000" points="435,-247.7 435,-266.7 525,-266.7 525,-247.7 435,-247.7"/>
<text text-anchor="start" x="438" y="-253.8" font-family="Helvetica,sans-Serif" font-size="11.00" fill="#000000">...</text>
<polygon fill="#ffffff" stroke="transparent" points="435,-228.7 435,-247.7 465,-247.7 465,-228.7 435,-228.7"/>
<polygon fill="none" stroke="#000000" points="435,-228.7 435,-247.7 465,-247.7 465,-228.7 435,-228.7"/>
<text text-anchor="start" x="438" y="-234.8" font-family="Helvetica,sans-Serif" font-size="11.00" fill="#000000">&lt; 2</text>
<polygon fill="#ffffff" stroke="transparent" points="465,-228.7 465,-247.7 508,-247.7 508,-228.7 465,-228.7"/>
<polygon fill="none" stroke="#000000" points="465,-228.7 465,-247.7 508,-247.7 508,-228.7 465,-228.7"/>
<text text-anchor="start" x="472.6105" y="-234.8" font-family="Helvetica,sans-Serif" font-size="11.00" fill="#000000">0 rows</text>
<polygon fill="#ffffff" stroke="transparent" points="508,-228.7 508,-247.7 525,-247.7 525,-228.7 508,-228.7"/>
<polygon fill="none" stroke="#000000" points="508,-228.7 508,-247.7 525,-247.7 525,-228.7 508,-228.7"/>
<text text-anchor="start" x="515.8862" y="-234.8" font-family="Helvetica,sans-Serif" font-size="11.00" fill="#000000"> &#160;</text>
</a>
</g>
</g>
<!-- film_actor&#45;&gt;film -->
<g id="edge3" class="edge">
<title>film_actor:w&#45;&gt;film:e</title>
<path fill="none" stroke="#000000" d="M420.9322,-252.745C397.5206,-236.3652 416.0999,-174.7 377.5,-174.7"/>
<polygon fill="#000000" stroke="#000000" points="427.2986,-254.5348 434.0256,-260.1656 431.1493,-255.6174 435,-256.7 435,-256.7 435,-256.7 431.1493,-255.6174 435.9744,-253.2344 427.2986,-254.5348 427.2986,-254.5348"/>
<ellipse fill="none" stroke="#000000" cx="424.218" cy="-253.6687" rx="3.2" ry="3.2"/>
</g>
<!-- film_category -->
<g id="node4" class="node">
<title>film_category</title>
<g id="a_node4"><a xlink:href="../../tables/film_category.html" xlink:title="film_category" target="_top">
<polygon fill="#ffffff" stroke="transparent" points="426,-147.2 426,-208.2 534,-208.2 534,-147.2 426,-147.2"/>
<polygon fill="#f5f5f5" stroke="transparent" points="426,-184.7 426,-207.7 534,-207.7 534,-184.7 426,-184.7"/>
<polygon fill="none" stroke="#000000" points="426,-184.7 426,-207.7 534,-207.7 534,-184.7 426,-184.7"/>
<text text-anchor="start" x="430.8031" y="-193.8" font-family="Helvetica,sans-Serif" font-weight="bold" font-size="11.00" fill="#000000">film_category</text>
<text text-anchor="start" x="499.5219" y="-192.8" font-family="Helvetica,sans-Serif" font-size="11.00" fill="#000000">[table]</text>
<polygon fill="none" stroke="#000000" points="426,-165.7 426,-184.7 534,-184.7 534,-165.7 426,-165.7"/>
<text text-anchor="start" x="429" y="-171.8" font-family="Helvetica,sans-Serif" font-size="11.00" fill="#000000">...</text>
<polygon fill="#ffffff" stroke="transparent" points="426,-146.7 426,-165.7 465,-165.7 465,-146.7 426,-146.7"/>
<polygon fill="none" stroke="#000000" points="426,-146.7 426,-165.7 465,-165.7 465,-146.7 426,-146.7"/>
<text text-anchor="start" x="429" y="-152.8" font-family="Helvetica,sans-Serif" font-size="11.00" fill="#000000">&lt; 2</text>
<polygon fill="#ffffff" stroke="transparent" points="465,-146.7 465,-165.7 512,-165.7 512,-146.7 465,-146.7"/>
<polygon fill="none" stroke="#000000" points="465,-146.7 465,-165.7 512,-165.7 512,-146.7 465,-146.7"/>
<text text-anchor="start" x="476.6105" y="-152.8" font-family="Helvetica,sans-Serif" font-size="11.00" fill="#000000">0 rows</text>
<polygon fill="#ffffff" stroke="transparent" points="512,-146.7 512,-165.7 534,-165.7 534,-146.7 512,-146.7"/>
<polygon fill="none" stroke="#000000" points="512,-146.7 512,-165.7 534,-165.7 534,-146.7 512,-146.7"/>
<text text-anchor="start" x="524.8862" y="-152.8" font-family="Helvetica,sans-Serif" font-size="11.00" fill="#000000"> &#160;</text>
</a>
</g>
</g>
<!-- film_category&#45;&gt;film -->
<g id="edge4" class="edge">
<title>film_category:w&#45;&gt;film:e</title>
<path fill="none" stroke="#000000" d="M411.2829,-174.7C400.2886,-174.7 393.1615,-174.7 377.5,-174.7"/>
<polygon fill="#000000" stroke="#000000" points="418,-174.7001 426,-178.3 422,-174.7 426,-174.7 426,-174.7 426,-174.7 422,-174.7 426,-171.1 418,-174.7001 418,-174.7001"/>
<ellipse fill="none" stroke="#000000" cx="414.8" cy="-174.7001" rx="3.2" ry="3.2"/>
</g>
<!-- inventory -->
<g id="node5" class="node">
<title>inventory</title>
<g id="a_node5"><a xlink:href="../../tables/inventory.html" xlink:title="inventory" target="_top">
<polygon fill="#ffffff" stroke="transparent" points="436.5,-65.2 436.5,-126.2 523.5,-126.2 523.5,-65.2 436.5,-65.2"/>
<polygon fill="#f5f5f5" stroke="transparent" points="437,-102.7 437,-125.7 524,-125.7 524,-102.7 437,-102.7"/>
<polygon fill="none" stroke="#000000" points="437,-102.7 437,-125.7 524,-125.7 524,-102.7 437,-102.7"/>
<text text-anchor="start" x="441.6904" y="-111.8" font-family="Helvetica,sans-Serif" font-weight="bold" font-size="11.00" fill="#000000">inventory</text>
<text text-anchor="start" x="489.5219" y="-110.8" font-family="Helvetica,sans-Serif" font-size="11.00" fill="#000000">[table]</text>
<polygon fill="none" stroke="#000000" points="437,-83.7 437,-102.7 524,-102.7 524,-83.7 437,-83.7"/>
<text text-anchor="start" x="440" y="-89.8" font-family="Helvetica,sans-Serif" font-size="11.00" fill="#000000">...</text>
<polygon fill="#ffffff" stroke="transparent" points="437,-64.7 437,-83.7 461,-83.7 461,-64.7 437,-64.7"/>
<polygon fill="none" stroke="#000000" points="437,-64.7 437,-83.7 461,-83.7 461,-64.7 437,-64.7"/>
<text text-anchor="start" x="440" y="-70.8" font-family="Helvetica,sans-Serif" font-size="11.00" fill="#000000">&lt; 2</text>
<polygon fill="#ffffff" stroke="transparent" points="461,-64.7 461,-83.7 501,-83.7 501,-64.7 461,-64.7"/>
<polygon fill="none" stroke="#000000" points="461,-64.7 461,-83.7 501,-83.7 501,-64.7 461,-64.7"/>
<text text-anchor="start" x="465.6105" y="-70.8" font-family="Helvetica,sans-Serif" font-size="11.00" fill="#000000">0 rows</text>
<polygon fill="#ffffff" stroke="transparent" points="501,-64.7 501,-83.7 524,-83.7 524,-64.7 501,-64.7"/>
<polygon fill="none" stroke="#000000" points="501,-64.7 501,-83.7 524,-83.7 524,-64.7 501,-64.7"/>
<text text-anchor="start" x="505.4053" y="-70.8" font-family="Helvetica,sans-Serif" font-size="11.00" fill="#000000">1 &gt;</text>
</a>
</g>
</g>
<!-- inventory&#45;&gt;film -->
<g id="edge5" class="edge">
<title>inventory:w&#45;&gt;film:e</title>
<path fill="none" stroke="#000000" d="M423.031,-96.4364C398.5938,-112.478 416.7235,-174.7 377.5,-174.7"/>
<polygon fill="#000000" stroke="#000000" points="429.2717,-94.7672 437.9302,-96.1777 433.1358,-93.7336 437,-92.7 437,-92.7 437,-92.7 433.1358,-93.7336 436.0698,-89.2223 429.2717,-94.7672 429.2717,-94.7672"/>
<ellipse fill="none" stroke="#000000" cx="426.1804" cy="-95.5941" rx="3.2" ry="3.2"/>
</g>
</g>
</svg>
