<?xml version="1.0" encoding="UTF-8" standalone="no"?>
<!DOCTYPE svg PUBLIC "-//W3C//DTD SVG 1.1//EN"
 "http://www.w3.org/Graphics/SVG/1.1/DTD/svg11.dtd">
<!-- Generated by graphviz version 2.40.1 (20161225.0304)
 -->
<!-- Title: oneDegreeRelationshipsDiagram Pages: 1 -->
<svg width="393pt" height="221pt"
 viewBox="0.00 0.00 393.00 221.20" xmlns="http://www.w3.org/2000/svg" xmlns:xlink="http://www.w3.org/1999/xlink">
<g id="graph0" class="graph" transform="scale(1 1) rotate(0) translate(4 217.2)">
<title>oneDegreeRelationshipsDiagram</title>
<polygon fill="#ffffff" stroke="transparent" points="-4,4 -4,-217.2 389,-217.2 389,4 -4,4"/>
<text text-anchor="middle" x="72.4936" y="-7.3" font-family="Helvetica,sans-Serif" font-size="11.00" fill="#000000">Generated by SchemaSpy</text>
<!-- film -->
<g id="node1" class="node">
<title>film</title>
<g id="a_node1"><a xlink:href="../../tables/film.html" xlink:title="film" target="_top">
<polygon fill="#ffffff" stroke="transparent" points="236,-38.2 236,-209.2 377,-209.2 377,-38.2 236,-38.2"/>
<polygon fill="#f5f5f5" stroke="transparent" points="236.5,-185.7 236.5,-208.7 377.5,-208.7 377.5,-185.7 236.5,-185.7"/>
<polygon fill="none" stroke="#000000" points="236.5,-185.7 236.5,-208.7 377.5,-208.7 377.5,-185.7 236.5,-185.7"/>
<text text-anchor="start" x="241.5" y="-194.8" font-family="Helvetica,sans-Serif" font-weight="bold" font-size="11.00" fill="#000000">film</text>
<text text-anchor="start" x="342.5437" y="-193.8" font-family="Helvetica,sans-Serif" font-size="11.00" fill="#000000">[table]</text>
<polygon fill="none" stroke="#000000" points="236.5,-163.7 236.5,-185.7 377.5,-185.7 377.5,-163.7 236.5,-163.7"/>
<image xlink:href="../../images/primaryKeys.png" width="11px" height="12px" preserveAspectRatio="xMinYMin meet" x="241.5" y="-180.7"/>
<text text-anchor="start" x="256.5" y="-170.8" font-family="Helvetica,sans-Serif" font-size="11.00" fill="#000000">film_id</text>
<polygon fill="#ffffff" stroke="transparent" points="236.5,-141.7 236.5,-163.7 377.5,-163.7 377.5,-141.7 236.5,-141.7"/>
<polygon fill="none" stroke="#000000" points="236.5,-141.7 236.5,-163.7 377.5,-163.7 377.5,-141.7 236.5,-141.7"/>
<text text-anchor="start" x="256.5" y="-148.8" font-family="Helvetica,sans-Serif" font-size="11.00" fill="#000000">title</text>
<polygon fill="#ffffff" stroke="transparent" points="236.5,-119.7 236.5,-141.7 377.5,-141.7 377.5,-119.7 236.5,-119.7"/>
<polygon fill="none" stroke="#000000" points="236.5,-119.7 236.5,-141.7 377.5,-141.7 377.5,-119.7 236.5,-119.7"/>
<image xlink:href="../../images/foreignKeys.png" width="11px" height="12px" preserveAspectRatio="xMinYMin meet" x="241.5" y="-136.7"/>
<text text-anchor="start" x="256.5" y="-126.8" font-family="Helvetica,sans-Serif" font-size="11.00" fill="#000000">language_id</text>
<polygon fill="#ffffff" stroke="transparent" points="236.5,-97.7 236.5,-119.7 377.5,-119.7 377.5,-97.7 236.5,-97.7"/>
<polygon fill="none" stroke="#000000" points="236.5,-97.7 236.5,-119.7 377.5,-119.7 377.5,-97.7 236.5,-97.7"/>
<image xlink:href="../../images/foreignKeys.png" width="11px" height="12px" preserveAspectRatio="xMinYMin meet" x="241.5" y="-114.7"/>
<text text-anchor="start" x="256.5" y="-104.8" font-family="Helvetica,sans-Serif" font-size="11.00" fill="#000000">original_language_id</text>
<polygon fill="#ffffff" stroke="transparent" points="236.5,-75.7 236.5,-97.7 377.5,-97.7 377.5,-75.7 236.5,-75.7"/>
<polygon fill="none" stroke="#000000" points="236.5,-75.7 236.5,-97.7 377.5,-97.7 377.5,-75.7 236.5,-75.7"/>
<text text-anchor="start" x="256.5" y="-82.8" font-family="Helvetica,sans-Serif" font-size="11.00" fill="#000000">fulltext</text>
<polygon fill="none" stroke="#000000" points="236.5,-56.7 236.5,-75.7 377.5,-75.7 377.5,-56.7 236.5,-56.7"/>
<text text-anchor="start" x="239.5" y="-62.8" font-family="Helvetica,sans-Serif" font-size="11.00" fill="#000000">...</text>
<polygon fill="#ffffff" stroke="transparent" points="236.5,-37.7 236.5,-56.7 287.5,-56.7 287.5,-37.7 236.5,-37.7"/>
<polygon fill="none" stroke="#000000" points="236.5,-37.7 236.5,-56.7 287.5,-56.7 287.5,-37.7 236.5,-37.7"/>
<text text-anchor="start" x="239.5" y="-43.8" font-family="Helvetica,sans-Serif" font-size="11.00" fill="#000000">&lt; 2</text>
<polygon fill="#ffffff" stroke="transparent" points="287.5,-37.7 287.5,-56.7 340.5,-56.7 340.5,-37.7 287.5,-37.7"/>
<polygon fill="none" stroke="#000000" points="287.5,-37.7 287.5,-56.7 340.5,-56.7 340.5,-37.7 287.5,-37.7"/>
<text text-anchor="start" x="305.1105" y="-43.8" font-family="Helvetica,sans-Serif" font-size="11.00" fill="#000000">0 rows</text>
<polygon fill="#ffffff" stroke="transparent" points="340.5,-37.7 340.5,-56.7 377.5,-56.7 377.5,-37.7 340.5,-37.7"/>
<polygon fill="none" stroke="#000000" points="340.5,-37.7 340.5,-56.7 377.5,-56.7 377.5,-37.7 340.5,-37.7"/>
<text text-anchor="start" x="358.9053" y="-43.8" font-family="Helvetica,sans-Serif" font-size="11.00" fill="#000000">3 &gt;</text>
</a>
</g>
</g>
<!-- language -->
<g id="node2" class="node">
<title>language</title>
<g id="a_node2"><a xlink:href="../../tables/language.html" xlink:title="language" target="_top">
<polygon fill="#ffffff" stroke="transparent" points="8,-43.7 8,-155.7 187,-155.7 187,-43.7 8,-43.7"/>
<polygon fill="#f5f5f5" stroke="transparent" points="10.5,-130.7 10.5,-153.7 185.5,-153.7 185.5,-130.7 10.5,-130.7"/>
<polygon fill="none" stroke="#000000" points="10.5,-130.7 10.5,-153.7 185.5,-153.7 185.5,-130.7 10.5,-130.7"/>
<text text-anchor="start" x="15.5" y="-139.8" font-family="Helvetica,sans-Serif" font-weight="bold" font-size="11.00" fill="#000000">language</text>
<text text-anchor="start" x="150.5437" y="-138.8" font-family="Helvetica,sans-Serif" font-size="11.00" fill="#000000">[table]</text>
<polygon fill="none" stroke="#000000" points="10.5,-108.7 10.5,-130.7 101.5,-130.7 101.5,-108.7 10.5,-108.7"/>
<image xlink:href="../../images/primaryKeys.png" width="11px" height="12px" preserveAspectRatio="xMinYMin meet" x="15.5" y="-125.7"/>
<text text-anchor="start" x="30.5" y="-115.8" font-family="Helvetica,sans-Serif" font-size="11.00" fill="#000000">language_id</text>
<polygon fill="none" stroke="#000000" points="101.5,-108.7 101.5,-130.7 185.5,-130.7 185.5,-108.7 101.5,-108.7"/>
<text text-anchor="start" x="104.5" y="-116.4" font-family="Helvetica,sans-Serif" font-size="11.00" fill="#000000">serial[10]</text>
<polygon fill="none" stroke="#000000" points="10.5,-86.7 10.5,-108.7 101.5,-108.7 101.5,-86.7 10.5,-86.7"/>
<text text-anchor="start" x="30.5" y="-93.8" font-family="Helvetica,sans-Serif" font-size="11.00" fill="#000000">name</text>
<polygon fill="none" stroke="#000000" points="101.5,-86.7 101.5,-108.7 185.5,-108.7 185.5,-86.7 101.5,-86.7"/>
<text text-anchor="start" x="104.5" y="-94.4" font-family="Helvetica,sans-Serif" font-size="11.00" fill="#000000">bpchar[20]</text>
<polygon fill="none" stroke="#000000" points="10.5,-64.7 10.5,-86.7 101.5,-86.7 101.5,-64.7 10.5,-64.7"/>
<text text-anchor="start" x="30.5" y="-71.8" font-family="Helvetica,sans-Serif" font-size="11.00" fill="#000000">last_update</text>
<polygon fill="none" stroke="#000000" points="101.5,-64.7 101.5,-86.7 185.5,-86.7 185.5,-64.7 101.5,-64.7"/>
<text text-anchor="start" x="104.3807" y="-72.4" font-family="Helvetica,sans-Serif" font-size="11.00" fill="#000000">timestamp[29,6]</text>
<polygon fill="#ffffff" stroke="transparent" points="10.5,-45.7 10.5,-64.7 47.5,-64.7 47.5,-45.7 10.5,-45.7"/>
<polygon fill="none" stroke="#000000" points="10.5,-45.7 10.5,-64.7 47.5,-64.7 47.5,-45.7 10.5,-45.7"/>
<text text-anchor="start" x="13.5" y="-51.8" font-family="Helvetica,sans-Serif" font-size="11.00" fill="#000000">&lt; 0</text>
<polygon fill="#ffffff" stroke="transparent" points="47.5,-45.7 47.5,-64.7 101.5,-64.7 101.5,-45.7 47.5,-45.7"/>
<polygon fill="none" stroke="#000000" points="47.5,-45.7 47.5,-64.7 101.5,-64.7 101.5,-45.7 47.5,-45.7"/>
<text text-anchor="start" x="66.1105" y="-51.8" font-family="Helvetica,sans-Serif" font-size="11.00" fill="#000000">0 rows</text>
<polygon fill="#ffffff" stroke="transparent" points="101.5,-45.7 101.5,-64.7 185.5,-64.7 185.5,-45.7 101.5,-45.7"/>
<polygon fill="none" stroke="#000000" points="101.5,-45.7 101.5,-64.7 185.5,-64.7 185.5,-45.7 101.5,-45.7"/>
<text text-anchor="start" x="166.9053" y="-51.8" font-family="Helvetica,sans-Serif" font-size="11.00" fill="#000000">2 &gt;</text>
<polygon fill="none" stroke="#000000" stroke-width="2" points="9,-44.7 9,-154.7 186,-154.7 186,-44.7 9,-44.7"/>
</a>
</g>
</g>
<!-- film&#45;&gt;language -->
<g id="edge1" class="edge">
<title>film:w&#45;&gt;language:e</title>
<path fill="none" stroke="#000000" d="M222.0097,-128.9813C209.8398,-125.8875 202.8909,-119.7 185.5,-119.7"/>
<polygon fill="#000000" stroke="#000000" points="228.5557,-129.7576 236.0759,-134.2749 232.5278,-130.2288 236.5,-130.7 236.5,-130.7 236.5,-130.7 232.5278,-130.2288 236.9241,-127.1251 228.5557,-129.7576 228.5557,-129.7576"/>
<ellipse fill="none" stroke="#000000" cx="225.378" cy="-129.3807" rx="3.2" ry="3.2"/>
</g>
<!-- film&#45;&gt;language -->
<g id="edge2" class="edge">
<title>film:w&#45;&gt;language:e</title>
<path fill="none" stroke="#000000" d="M222.0097,-110.4188C209.8398,-113.5125 202.8909,-119.7 185.5,-119.7"/>
<polygon fill="#000000" stroke="#000000" points="228.5557,-109.6424 236.9241,-112.2749 232.5278,-109.1712 236.5,-108.7 236.5,-108.7 236.5,-108.7 232.5278,-109.1712 236.0759,-105.1251 228.5557,-109.6424 228.5557,-109.6424"/>
<ellipse fill="none" stroke="#000000" cx="225.378" cy="-110.0193" rx="3.2" ry="3.2"/>
</g>
</g>
</svg>
