<?xml version="1.0" encoding="UTF-8" standalone="no"?>
<!DOCTYPE svg PUBLIC "-//W3C//DTD SVG 1.1//EN"
 "http://www.w3.org/Graphics/SVG/1.1/DTD/svg11.dtd">
<!-- Generated by graphviz version 2.40.1 (20161225.0304)
 -->
<!-- Title: twoDegreesRelationshipsDiagram Pages: 1 -->
<svg width="532pt" height="286pt"
 viewBox="0.00 0.00 532.00 285.70" xmlns="http://www.w3.org/2000/svg" xmlns:xlink="http://www.w3.org/1999/xlink">
<g id="graph0" class="graph" transform="scale(1 1) rotate(0) translate(4 281.7)">
<title>twoDegreesRelationshipsDiagram</title>
<polygon fill="#ffffff" stroke="transparent" points="-4,4 -4,-281.7 528,-281.7 528,4 -4,4"/>
<text text-anchor="middle" x="72.4936" y="-7.3" font-family="Helvetica,sans-Serif" font-size="11.00" fill="#000000">Generated by SchemaSpy</text>
<!-- film -->
<g id="node1" class="node">
<title>film</title>
<g id="a_node1"><a xlink:href="../../tables/film.html" xlink:title="film" target="_top">
<polygon fill="#ffffff" stroke="transparent" points="236,-43.7 236,-192.7 359,-192.7 359,-43.7 236,-43.7"/>
<polygon fill="#f5f5f5" stroke="transparent" points="236.5,-169.2 236.5,-192.2 359.5,-192.2 359.5,-169.2 236.5,-169.2"/>
<polygon fill="none" stroke="#000000" points="236.5,-169.2 236.5,-192.2 359.5,-192.2 359.5,-169.2 236.5,-169.2"/>
<text text-anchor="start" x="241.5" y="-178.3" font-family="Helvetica,sans-Serif" font-weight="bold" font-size="11.00" fill="#000000">film</text>
<text text-anchor="start" x="324.5437" y="-177.3" font-family="Helvetica,sans-Serif" font-size="11.00" fill="#000000">[table]</text>
<polygon fill="none" stroke="#000000" points="236.5,-147.2 236.5,-169.2 359.5,-169.2 359.5,-147.2 236.5,-147.2"/>
<image xlink:href="../../images/primaryKeys.png" width="11px" height="12px" preserveAspectRatio="xMinYMin meet" x="241.5" y="-164.2"/>
<text text-anchor="start" x="256.5" y="-154.3" font-family="Helvetica,sans-Serif" font-size="11.00" fill="#000000">film_id</text>
<polygon fill="#ffffff" stroke="transparent" points="236.5,-125.2 236.5,-147.2 359.5,-147.2 359.5,-125.2 236.5,-125.2"/>
<polygon fill="none" stroke="#000000" points="236.5,-125.2 236.5,-147.2 359.5,-147.2 359.5,-125.2 236.5,-125.2"/>
<text text-anchor="start" x="256.5" y="-132.3" font-family="Helvetica,sans-Serif" font-size="11.00" fill="#000000">title</text>
<polygon fill="#ffffff" stroke="transparent" points="236.5,-103.2 236.5,-125.2 359.5,-125.2 359.5,-103.2 236.5,-103.2"/>
<polygon fill="none" stroke="#000000" points="236.5,-103.2 236.5,-125.2 359.5,-125.2 359.5,-103.2 236.5,-103.2"/>
<image xlink:href="../../images/foreignKeys.png" width="11px" height="12px" preserveAspectRatio="xMinYMin meet" x="241.5" y="-120.2"/>
<text text-anchor="start" x="256.5" y="-110.3" font-family="Helvetica,sans-Serif" font-size="11.00" fill="#000000">language_id</text>
<polygon fill="#ffffff" stroke="transparent" points="236.5,-81.2 236.5,-103.2 359.5,-103.2 359.5,-81.2 236.5,-81.2"/>
<polygon fill="none" stroke="#000000" points="236.5,-81.2 236.5,-103.2 359.5,-103.2 359.5,-81.2 236.5,-81.2"/>
<text text-anchor="start" x="256.5" y="-88.3" font-family="Helvetica,sans-Serif" font-size="11.00" fill="#000000">fulltext</text>
<polygon fill="none" stroke="#000000" points="236.5,-62.2 236.5,-81.2 359.5,-81.2 359.5,-62.2 236.5,-62.2"/>
<text text-anchor="start" x="239.5" y="-68.3" font-family="Helvetica,sans-Serif" font-size="11.00" fill="#000000">...</text>
<polygon fill="#ffffff" stroke="transparent" points="236.5,-43.2 236.5,-62.2 278.5,-62.2 278.5,-43.2 236.5,-43.2"/>
<polygon fill="none" stroke="#000000" points="236.5,-43.2 236.5,-62.2 278.5,-62.2 278.5,-43.2 236.5,-43.2"/>
<text text-anchor="start" x="239.5" y="-49.3" font-family="Helvetica,sans-Serif" font-size="11.00" fill="#000000">&lt; 1</text>
<polygon fill="#ffffff" stroke="transparent" points="278.5,-43.2 278.5,-62.2 327.5,-62.2 327.5,-43.2 278.5,-43.2"/>
<polygon fill="none" stroke="#000000" points="278.5,-43.2 278.5,-62.2 327.5,-62.2 327.5,-43.2 278.5,-43.2"/>
<text text-anchor="start" x="292.1105" y="-49.3" font-family="Helvetica,sans-Serif" font-size="11.00" fill="#000000">0 rows</text>
<polygon fill="#ffffff" stroke="transparent" points="327.5,-43.2 327.5,-62.2 359.5,-62.2 359.5,-43.2 327.5,-43.2"/>
<polygon fill="none" stroke="#000000" points="327.5,-43.2 327.5,-62.2 359.5,-62.2 359.5,-43.2 327.5,-43.2"/>
<text text-anchor="start" x="340.9053" y="-49.3" font-family="Helvetica,sans-Serif" font-size="11.00" fill="#000000">3 &gt;</text>
</a>
</g>
</g>
<!-- language -->
<g id="node2" class="node">
<title>language</title>
<g id="a_node2"><a xlink:href="../../tables/language.html" xlink:title="language" target="_top">
<polygon fill="#ffffff" stroke="transparent" points="8,-38.2 8,-150.2 187,-150.2 187,-38.2 8,-38.2"/>
<polygon fill="#f5f5f5" stroke="transparent" points="10.5,-125.2 10.5,-148.2 185.5,-148.2 185.5,-125.2 10.5,-125.2"/>
<polygon fill="none" stroke="#000000" points="10.5,-125.2 10.5,-148.2 185.5,-148.2 185.5,-125.2 10.5,-125.2"/>
<text text-anchor="start" x="15.5" y="-134.3" font-family="Helvetica,sans-Serif" font-weight="bold" font-size="11.00" fill="#000000">language</text>
<text text-anchor="start" x="150.5437" y="-133.3" font-family="Helvetica,sans-Serif" font-size="11.00" fill="#000000">[table]</text>
<polygon fill="none" stroke="#000000" points="10.5,-103.2 10.5,-125.2 101.5,-125.2 101.5,-103.2 10.5,-103.2"/>
<image xlink:href="../../images/primaryKeys.png" width="11px" height="12px" preserveAspectRatio="xMinYMin meet" x="15.5" y="-120.2"/>
<text text-anchor="start" x="30.5" y="-110.3" font-family="Helvetica,sans-Serif" font-size="11.00" fill="#000000">language_id</text>
<polygon fill="none" stroke="#000000" points="101.5,-103.2 101.5,-125.2 185.5,-125.2 185.5,-103.2 101.5,-103.2"/>
<text text-anchor="start" x="104.5" y="-110.9" font-family="Helvetica,sans-Serif" font-size="11.00" fill="#000000">serial[10]</text>
<polygon fill="none" stroke="#000000" points="10.5,-81.2 10.5,-103.2 101.5,-103.2 101.5,-81.2 10.5,-81.2"/>
<text text-anchor="start" x="30.5" y="-88.3" font-family="Helvetica,sans-Serif" font-size="11.00" fill="#000000">name</text>
<polygon fill="none" stroke="#000000" points="101.5,-81.2 101.5,-103.2 185.5,-103.2 185.5,-81.2 101.5,-81.2"/>
<text text-anchor="start" x="104.5" y="-88.9" font-family="Helvetica,sans-Serif" font-size="11.00" fill="#000000">bpchar[20]</text>
<polygon fill="none" stroke="#000000" points="10.5,-59.2 10.5,-81.2 101.5,-81.2 101.5,-59.2 10.5,-59.2"/>
<text text-anchor="start" x="30.5" y="-66.3" font-family="Helvetica,sans-Serif" font-size="11.00" fill="#000000">last_update</text>
<polygon fill="none" stroke="#000000" points="101.5,-59.2 101.5,-81.2 185.5,-81.2 185.5,-59.2 101.5,-59.2"/>
<text text-anchor="start" x="104.3807" y="-66.9" font-family="Helvetica,sans-Serif" font-size="11.00" fill="#000000">timestamp[29,6]</text>
<polygon fill="#ffffff" stroke="transparent" points="10.5,-40.2 10.5,-59.2 47.5,-59.2 47.5,-40.2 10.5,-40.2"/>
<polygon fill="none" stroke="#000000" points="10.5,-40.2 10.5,-59.2 47.5,-59.2 47.5,-40.2 10.5,-40.2"/>
<text text-anchor="start" x="13.5" y="-46.3" font-family="Helvetica,sans-Serif" font-size="11.00" fill="#000000">&lt; 0</text>
<polygon fill="#ffffff" stroke="transparent" points="47.5,-40.2 47.5,-59.2 101.5,-59.2 101.5,-40.2 47.5,-40.2"/>
<polygon fill="none" stroke="#000000" points="47.5,-40.2 47.5,-59.2 101.5,-59.2 101.5,-40.2 47.5,-40.2"/>
<text text-anchor="start" x="66.1105" y="-46.3" font-family="Helvetica,sans-Serif" font-size="11.00" fill="#000000">0 rows</text>
<polygon fill="#ffffff" stroke="transparent" points="101.5,-40.2 101.5,-59.2 185.5,-59.2 185.5,-40.2 101.5,-40.2"/>
<polygon fill="none" stroke="#000000" points="101.5,-40.2 101.5,-59.2 185.5,-59.2 185.5,-40.2 101.5,-40.2"/>
<text text-anchor="start" x="166.9053" y="-46.3" font-family="Helvetica,sans-Serif" font-size="11.00" fill="#000000">1 &gt;</text>
<polygon fill="none" stroke="#000000" stroke-width="2" points="9,-39.2 9,-149.2 186,-149.2 186,-39.2 9,-39.2"/>
</a>
</g>
</g>
<!-- film&#45;&gt;language -->
<g id="edge1" class="edge">
<title>film:w&#45;&gt;language:e</title>
<path fill="none" stroke="#000000" d="M221.776,-114.2C209.7815,-114.2 202.3229,-114.2 185.5,-114.2"/>
<polygon fill="#000000" stroke="#000000" points="228.5,-114.2001 236.5,-117.8 232.5,-114.2 236.5,-114.2 236.5,-114.2 236.5,-114.2 232.5,-114.2 236.5,-110.6 228.5,-114.2001 228.5,-114.2001"/>
<ellipse fill="none" stroke="#000000" cx="225.3" cy="-114.2001" rx="3.2" ry="3.2"/>
</g>
<!-- film_actor -->
<g id="node3" class="node">
<title>film_actor</title>
<g id="a_node3"><a xlink:href="../../tables/film_actor.html" xlink:title="film_actor" target="_top">
<polygon fill="#ffffff" stroke="transparent" points="417,-212.7 417,-273.7 507,-273.7 507,-212.7 417,-212.7"/>
<polygon fill="#f5f5f5" stroke="transparent" points="417,-250.2 417,-273.2 507,-273.2 507,-250.2 417,-250.2"/>
<polygon fill="none" stroke="#000000" points="417,-250.2 417,-273.2 507,-273.2 507,-250.2 417,-250.2"/>
<text text-anchor="start" x="421.668" y="-259.3" font-family="Helvetica,sans-Serif" font-weight="bold" font-size="11.00" fill="#000000">film_actor</text>
<text text-anchor="start" x="472.5219" y="-258.3" font-family="Helvetica,sans-Serif" font-size="11.00" fill="#000000">[table]</text>
<polygon fill="none" stroke="#000000" points="417,-231.2 417,-250.2 507,-250.2 507,-231.2 417,-231.2"/>
<text text-anchor="start" x="420" y="-237.3" font-family="Helvetica,sans-Serif" font-size="11.00" fill="#000000">...</text>
<polygon fill="#ffffff" stroke="transparent" points="417,-212.2 417,-231.2 447,-231.2 447,-212.2 417,-212.2"/>
<polygon fill="none" stroke="#000000" points="417,-212.2 417,-231.2 447,-231.2 447,-212.2 417,-212.2"/>
<text text-anchor="start" x="420" y="-218.3" font-family="Helvetica,sans-Serif" font-size="11.00" fill="#000000">&lt; 2</text>
<polygon fill="#ffffff" stroke="transparent" points="447,-212.2 447,-231.2 490,-231.2 490,-212.2 447,-212.2"/>
<polygon fill="none" stroke="#000000" points="447,-212.2 447,-231.2 490,-231.2 490,-212.2 447,-212.2"/>
<text text-anchor="start" x="454.6105" y="-218.3" font-family="Helvetica,sans-Serif" font-size="11.00" fill="#000000">0 rows</text>
<polygon fill="#ffffff" stroke="transparent" points="490,-212.2 490,-231.2 507,-231.2 507,-212.2 490,-212.2"/>
<polygon fill="none" stroke="#000000" points="490,-212.2 490,-231.2 507,-231.2 507,-212.2 490,-212.2"/>
<text text-anchor="start" x="497.8862" y="-218.3" font-family="Helvetica,sans-Serif" font-size="11.00" fill="#000000"> &#160;</text>
</a>
</g>
</g>
<!-- film_actor&#45;&gt;film -->
<g id="edge2" class="edge">
<title>film_actor:w&#45;&gt;film:e</title>
<path fill="none" stroke="#000000" d="M402.9322,-236.245C379.5206,-219.8652 398.0999,-158.2 359.5,-158.2"/>
<polygon fill="#000000" stroke="#000000" points="409.2986,-238.0348 416.0256,-243.6656 413.1493,-239.1174 417,-240.2 417,-240.2 417,-240.2 413.1493,-239.1174 417.9744,-236.7344 409.2986,-238.0348 409.2986,-238.0348"/>
<ellipse fill="none" stroke="#000000" cx="406.218" cy="-237.1687" rx="3.2" ry="3.2"/>
</g>
<!-- film_category -->
<g id="node4" class="node">
<title>film_category</title>
<g id="a_node4"><a xlink:href="../../tables/film_category.html" xlink:title="film_category" target="_top">
<polygon fill="#ffffff" stroke="transparent" points="408,-130.7 408,-191.7 516,-191.7 516,-130.7 408,-130.7"/>
<polygon fill="#f5f5f5" stroke="transparent" points="408,-168.2 408,-191.2 516,-191.2 516,-168.2 408,-168.2"/>
<polygon fill="none" stroke="#000000" points="408,-168.2 408,-191.2 516,-191.2 516,-168.2 408,-168.2"/>
<text text-anchor="start" x="412.8031" y="-177.3" font-family="Helvetica,sans-Serif" font-weight="bold" font-size="11.00" fill="#000000">film_category</text>
<text text-anchor="start" x="481.5219" y="-176.3" font-family="Helvetica,sans-Serif" font-size="11.00" fill="#000000">[table]</text>
<polygon fill="none" stroke="#000000" points="408,-149.2 408,-168.2 516,-168.2 516,-149.2 408,-149.2"/>
<text text-anchor="start" x="411" y="-155.3" font-family="Helvetica,sans-Serif" font-size="11.00" fill="#000000">...</text>
<polygon fill="#ffffff" stroke="transparent" points="408,-130.2 408,-149.2 447,-149.2 447,-130.2 408,-130.2"/>
<polygon fill="none" stroke="#000000" points="408,-130.2 408,-149.2 447,-149.2 447,-130.2 408,-130.2"/>
<text text-anchor="start" x="411" y="-136.3" font-family="Helvetica,sans-Serif" font-size="11.00" fill="#000000">&lt; 2</text>
<polygon fill="#ffffff" stroke="transparent" points="447,-130.2 447,-149.2 494,-149.2 494,-130.2 447,-130.2"/>
<polygon fill="none" stroke="#000000" points="447,-130.2 447,-149.2 494,-149.2 494,-130.2 447,-130.2"/>
<text text-anchor="start" x="458.6105" y="-136.3" font-family="Helvetica,sans-Serif" font-size="11.00" fill="#000000">0 rows</text>
<polygon fill="#ffffff" stroke="transparent" points="494,-130.2 494,-149.2 516,-149.2 516,-130.2 494,-130.2"/>
<polygon fill="none" stroke="#000000" points="494,-130.2 494,-149.2 516,-149.2 516,-130.2 494,-130.2"/>
<text text-anchor="start" x="506.8862" y="-136.3" font-family="Helvetica,sans-Serif" font-size="11.00" fill="#000000"> &#160;</text>
</a>
</g>
</g>
<!-- film_category&#45;&gt;film -->
<g id="edge3" class="edge">
<title>film_category:w&#45;&gt;film:e</title>
<path fill="none" stroke="#000000" d="M393.2829,-158.2C382.2886,-158.2 375.1615,-158.2 359.5,-158.2"/>
<polygon fill="#000000" stroke="#000000" points="400,-158.2001 408,-161.8 404,-158.2 408,-158.2 408,-158.2 408,-158.2 404,-158.2 408,-154.6 400,-158.2001 400,-158.2001"/>
<ellipse fill="none" stroke="#000000" cx="396.8" cy="-158.2001" rx="3.2" ry="3.2"/>
</g>
<!-- inventory -->
<g id="node5" class="node">
<title>inventory</title>
<g id="a_node5"><a xlink:href="../../tables/inventory.html" xlink:title="inventory" target="_top">
<polygon fill="#ffffff" stroke="transparent" points="418.5,-48.7 418.5,-109.7 505.5,-109.7 505.5,-48.7 418.5,-48.7"/>
<polygon fill="#f5f5f5" stroke="transparent" points="419,-86.2 419,-109.2 506,-109.2 506,-86.2 419,-86.2"/>
<polygon fill="none" stroke="#000000" points="419,-86.2 419,-109.2 506,-109.2 506,-86.2 419,-86.2"/>
<text text-anchor="start" x="423.6904" y="-95.3" font-family="Helvetica,sans-Serif" font-weight="bold" font-size="11.00" fill="#000000">inventory</text>
<text text-anchor="start" x="471.5219" y="-94.3" font-family="Helvetica,sans-Serif" font-size="11.00" fill="#000000">[table]</text>
<polygon fill="none" stroke="#000000" points="419,-67.2 419,-86.2 506,-86.2 506,-67.2 419,-67.2"/>
<text text-anchor="start" x="422" y="-73.3" font-family="Helvetica,sans-Serif" font-size="11.00" fill="#000000">...</text>
<polygon fill="#ffffff" stroke="transparent" points="419,-48.2 419,-67.2 443,-67.2 443,-48.2 419,-48.2"/>
<polygon fill="none" stroke="#000000" points="419,-48.2 419,-67.2 443,-67.2 443,-48.2 419,-48.2"/>
<text text-anchor="start" x="422" y="-54.3" font-family="Helvetica,sans-Serif" font-size="11.00" fill="#000000">&lt; 1</text>
<polygon fill="#ffffff" stroke="transparent" points="443,-48.2 443,-67.2 483,-67.2 483,-48.2 443,-48.2"/>
<polygon fill="none" stroke="#000000" points="443,-48.2 443,-67.2 483,-67.2 483,-48.2 443,-48.2"/>
<text text-anchor="start" x="447.6105" y="-54.3" font-family="Helvetica,sans-Serif" font-size="11.00" fill="#000000">0 rows</text>
<polygon fill="#ffffff" stroke="transparent" points="483,-48.2 483,-67.2 506,-67.2 506,-48.2 483,-48.2"/>
<polygon fill="none" stroke="#000000" points="483,-48.2 483,-67.2 506,-67.2 506,-48.2 483,-48.2"/>
<text text-anchor="start" x="487.4053" y="-54.3" font-family="Helvetica,sans-Serif" font-size="11.00" fill="#000000">1 &gt;</text>
</a>
</g>
</g>
<!-- inventory&#45;&gt;film -->
<g id="edge4" class="edge">
<title>inventory:w&#45;&gt;film:e</title>
<path fill="none" stroke="#000000" d="M405.031,-79.9364C380.5938,-95.978 398.7235,-158.2 359.5,-158.2"/>
<polygon fill="#000000" stroke="#000000" points="411.2717,-78.2672 419.9302,-79.6777 415.1358,-77.2336 419,-76.2 419,-76.2 419,-76.2 415.1358,-77.2336 418.0698,-72.7223 411.2717,-78.2672 411.2717,-78.2672"/>
<ellipse fill="none" stroke="#000000" cx="408.1804" cy="-79.0941" rx="3.2" ry="3.2"/>
</g>
</g>
</svg>
