<?xml version="1.0" encoding="UTF-8" standalone="no"?>
<!DOCTYPE svg PUBLIC "-//W3C//DTD SVG 1.1//EN"
 "http://www.w3.org/Graphics/SVG/1.1/DTD/svg11.dtd">
<!-- Generated by graphviz version 2.40.1 (20161225.0304)
 -->
<!-- Title: oneDegreeRelationshipsDiagram Pages: 1 -->
<svg width="375pt" height="205pt"
 viewBox="0.00 0.00 375.00 204.70" xmlns="http://www.w3.org/2000/svg" xmlns:xlink="http://www.w3.org/1999/xlink">
<g id="graph0" class="graph" transform="scale(1 1) rotate(0) translate(4 200.7)">
<title>oneDegreeRelationshipsDiagram</title>
<polygon fill="#ffffff" stroke="transparent" points="-4,4 -4,-200.7 371,-200.7 371,4 -4,4"/>
<text text-anchor="middle" x="72.4936" y="-7.3" font-family="Helvetica,sans-Serif" font-size="11.00" fill="#000000">Generated by SchemaSpy</text>
<!-- film -->
<g id="node1" class="node">
<title>film</title>
<g id="a_node1"><a xlink:href="../../tables/film.html" xlink:title="film" target="_top">
<polygon fill="#ffffff" stroke="transparent" points="236,-43.7 236,-192.7 359,-192.7 359,-43.7 236,-43.7"/>
<polygon fill="#f5f5f5" stroke="transparent" points="236.5,-169.2 236.5,-192.2 359.5,-192.2 359.5,-169.2 236.5,-169.2"/>
<polygon fill="none" stroke="#000000" points="236.5,-169.2 236.5,-192.2 359.5,-192.2 359.5,-169.2 236.5,-169.2"/>
<text text-anchor="start" x="241.5" y="-178.3" font-family="Helvetica,sans-Serif" font-weight="bold" font-size="11.00" fill="#000000">film</text>
<text text-anchor="start" x="324.5437" y="-177.3" font-family="Helvetica,sans-Serif" font-size="11.00" fill="#000000">[table]</text>
<polygon fill="none" stroke="#000000" points="236.5,-147.2 236.5,-169.2 359.5,-169.2 359.5,-147.2 236.5,-147.2"/>
<image xlink:href="../../images/primaryKeys.png" width="11px" height="12px" preserveAspectRatio="xMinYMin meet" x="241.5" y="-164.2"/>
<text text-anchor="start" x="256.5" y="-154.3" font-family="Helvetica,sans-Serif" font-size="11.00" fill="#000000">film_id</text>
<polygon fill="#ffffff" stroke="transparent" points="236.5,-125.2 236.5,-147.2 359.5,-147.2 359.5,-125.2 236.5,-125.2"/>
<polygon fill="none" stroke="#000000" points="236.5,-125.2 236.5,-147.2 359.5,-147.2 359.5,-125.2 236.5,-125.2"/>
<text text-anchor="start" x="256.5" y="-132.3" font-family="Helvetica,sans-Serif" font-size="11.00" fill="#000000">title</text>
<polygon fill="#ffffff" stroke="transparent" points="236.5,-103.2 236.5,-125.2 359.5,-125.2 359.5,-103.2 236.5,-103.2"/>
<polygon fill="none" stroke="#000000" points="236.5,-103.2 236.5,-125.2 359.5,-125.2 359.5,-103.2 236.5,-103.2"/>
<image xlink:href="../../images/foreignKeys.png" width="11px" height="12px" preserveAspectRatio="xMinYMin meet" x="241.5" y="-120.2"/>
<text text-anchor="start" x="256.5" y="-110.3" font-family="Helvetica,sans-Serif" font-size="11.00" fill="#000000">language_id</text>
<polygon fill="#ffffff" stroke="transparent" points="236.5,-81.2 236.5,-103.2 359.5,-103.2 359.5,-81.2 236.5,-81.2"/>
<polygon fill="none" stroke="#000000" points="236.5,-81.2 236.5,-103.2 359.5,-103.2 359.5,-81.2 236.5,-81.2"/>
<text text-anchor="start" x="256.5" y="-88.3" font-family="Helvetica,sans-Serif" font-size="11.00" fill="#000000">fulltext</text>
<polygon fill="none" stroke="#000000" points="236.5,-62.2 236.5,-81.2 359.5,-81.2 359.5,-62.2 236.5,-62.2"/>
<text text-anchor="start" x="239.5" y="-68.3" font-family="Helvetica,sans-Serif" font-size="11.00" fill="#000000">...</text>
<polygon fill="#ffffff" stroke="transparent" points="236.5,-43.2 236.5,-62.2 278.5,-62.2 278.5,-43.2 236.5,-43.2"/>
<polygon fill="none" stroke="#000000" points="236.5,-43.2 236.5,-62.2 278.5,-62.2 278.5,-43.2 236.5,-43.2"/>
<text text-anchor="start" x="239.5" y="-49.3" font-family="Helvetica,sans-Serif" font-size="11.00" fill="#000000">&lt; 1</text>
<polygon fill="#ffffff" stroke="transparent" points="278.5,-43.2 278.5,-62.2 327.5,-62.2 327.5,-43.2 278.5,-43.2"/>
<polygon fill="none" stroke="#000000" points="278.5,-43.2 278.5,-62.2 327.5,-62.2 327.5,-43.2 278.5,-43.2"/>
<text text-anchor="start" x="292.1105" y="-49.3" font-family="Helvetica,sans-Serif" font-size="11.00" fill="#000000">0 rows</text>
<polygon fill="#ffffff" stroke="transparent" points="327.5,-43.2 327.5,-62.2 359.5,-62.2 359.5,-43.2 327.5,-43.2"/>
<polygon fill="none" stroke="#000000" points="327.5,-43.2 327.5,-62.2 359.5,-62.2 359.5,-43.2 327.5,-43.2"/>
<text text-anchor="start" x="340.9053" y="-49.3" font-family="Helvetica,sans-Serif" font-size="11.00" fill="#000000">3 &gt;</text>
</a>
</g>
</g>
<!-- language -->
<g id="node2" class="node">
<title>language</title>
<g id="a_node2"><a xlink:href="../../tables/language.html" xlink:title="language" target="_top">
<polygon fill="#ffffff" stroke="transparent" points="8,-38.2 8,-150.2 187,-150.2 187,-38.2 8,-38.2"/>
<polygon fill="#f5f5f5" stroke="transparent" points="10.5,-125.2 10.5,-148.2 185.5,-148.2 185.5,-125.2 10.5,-125.2"/>
<polygon fill="none" stroke="#000000" points="10.5,-125.2 10.5,-148.2 185.5,-148.2 185.5,-125.2 10.5,-125.2"/>
<text text-anchor="start" x="15.5" y="-134.3" font-family="Helvetica,sans-Serif" font-weight="bold" font-size="11.00" fill="#000000">language</text>
<text text-anchor="start" x="150.5437" y="-133.3" font-family="Helvetica,sans-Serif" font-size="11.00" fill="#000000">[table]</text>
<polygon fill="none" stroke="#000000" points="10.5,-103.2 10.5,-125.2 101.5,-125.2 101.5,-103.2 10.5,-103.2"/>
<image xlink:href="../../images/primaryKeys.png" width="11px" height="12px" preserveAspectRatio="xMinYMin meet" x="15.5" y="-120.2"/>
<text text-anchor="start" x="30.5" y="-110.3" font-family="Helvetica,sans-Serif" font-size="11.00" fill="#000000">language_id</text>
<polygon fill="none" stroke="#000000" points="101.5,-103.2 101.5,-125.2 185.5,-125.2 185.5,-103.2 101.5,-103.2"/>
<text text-anchor="start" x="104.5" y="-110.9" font-family="Helvetica,sans-Serif" font-size="11.00" fill="#000000">serial[10]</text>
<polygon fill="none" stroke="#000000" points="10.5,-81.2 10.5,-103.2 101.5,-103.2 101.5,-81.2 10.5,-81.2"/>
<text text-anchor="start" x="30.5" y="-88.3" font-family="Helvetica,sans-Serif" font-size="11.00" fill="#000000">name</text>
<polygon fill="none" stroke="#000000" points="101.5,-81.2 101.5,-103.2 185.5,-103.2 185.5,-81.2 101.5,-81.2"/>
<text text-anchor="start" x="104.5" y="-88.9" font-family="Helvetica,sans-Serif" font-size="11.00" fill="#000000">bpchar[20]</text>
<polygon fill="none" stroke="#000000" points="10.5,-59.2 10.5,-81.2 101.5,-81.2 101.5,-59.2 10.5,-59.2"/>
<text text-anchor="start" x="30.5" y="-66.3" font-family="Helvetica,sans-Serif" font-size="11.00" fill="#000000">last_update</text>
<polygon fill="none" stroke="#000000" points="101.5,-59.2 101.5,-81.2 185.5,-81.2 185.5,-59.2 101.5,-59.2"/>
<text text-anchor="start" x="104.3807" y="-66.9" font-family="Helvetica,sans-Serif" font-size="11.00" fill="#000000">timestamp[29,6]</text>
<polygon fill="#ffffff" stroke="transparent" points="10.5,-40.2 10.5,-59.2 47.5,-59.2 47.5,-40.2 10.5,-40.2"/>
<polygon fill="none" stroke="#000000" points="10.5,-40.2 10.5,-59.2 47.5,-59.2 47.5,-40.2 10.5,-40.2"/>
<text text-anchor="start" x="13.5" y="-46.3" font-family="Helvetica,sans-Serif" font-size="11.00" fill="#000000">&lt; 0</text>
<polygon fill="#ffffff" stroke="transparent" points="47.5,-40.2 47.5,-59.2 101.5,-59.2 101.5,-40.2 47.5,-40.2"/>
<polygon fill="none" stroke="#000000" points="47.5,-40.2 47.5,-59.2 101.5,-59.2 101.5,-40.2 47.5,-40.2"/>
<text text-anchor="start" x="66.1105" y="-46.3" font-family="Helvetica,sans-Serif" font-size="11.00" fill="#000000">0 rows</text>
<polygon fill="#ffffff" stroke="transparent" points="101.5,-40.2 101.5,-59.2 185.5,-59.2 185.5,-40.2 101.5,-40.2"/>
<polygon fill="none" stroke="#000000" points="101.5,-40.2 101.5,-59.2 185.5,-59.2 185.5,-40.2 101.5,-40.2"/>
<text text-anchor="start" x="166.9053" y="-46.3" font-family="Helvetica,sans-Serif" font-size="11.00" fill="#000000">1 &gt;</text>
<polygon fill="none" stroke="#000000" stroke-width="2" points="9,-39.2 9,-149.2 186,-149.2 186,-39.2 9,-39.2"/>
</a>
</g>
</g>
<!-- film&#45;&gt;language -->
<g id="edge1" class="edge">
<title>film:w&#45;&gt;language:e</title>
<path fill="none" stroke="#000000" d="M221.776,-114.2C209.7815,-114.2 202.3229,-114.2 185.5,-114.2"/>
<polygon fill="#000000" stroke="#000000" points="228.5,-114.2001 236.5,-117.8 232.5,-114.2 236.5,-114.2 236.5,-114.2 236.5,-114.2 232.5,-114.2 236.5,-110.6 228.5,-114.2001 228.5,-114.2001"/>
<ellipse fill="none" stroke="#000000" cx="225.3" cy="-114.2001" rx="3.2" ry="3.2"/>
</g>
</g>
</svg>
