<?xml version="1.0" encoding="UTF-8" standalone="no"?>
<!DOCTYPE svg PUBLIC "-//W3C//DTD SVG 1.1//EN"
 "http://www.w3.org/Graphics/SVG/1.1/DTD/svg11.dtd">
<!-- Generated by graphviz version 2.40.1 (20161225.0304)
 -->
<!-- Title: oneDegreeRelationshipsDiagram Pages: 1 -->
<svg width="525pt" height="368pt"
 viewBox="0.00 0.00 525.00 367.70" xmlns="http://www.w3.org/2000/svg" xmlns:xlink="http://www.w3.org/1999/xlink">
<g id="graph0" class="graph" transform="scale(1 1) rotate(0) translate(4 363.7)">
<title>oneDegreeRelationshipsDiagram</title>
<polygon fill="#ffffff" stroke="transparent" points="-4,4 -4,-363.7 521,-363.7 521,4 -4,4"/>
<text text-anchor="middle" x="72.4936" y="-7.3" font-family="Helvetica,sans-Serif" font-size="11.00" fill="#000000">Generated by SchemaSpy</text>
<!-- payment_p2007_01 -->
<g id="node1" class="node">
<title>payment_p2007_01</title>
<g id="a_node1"><a xlink:href="../../tables/payment_p2007_01.html" xlink:title="payment_p2007_01" target="_top">
<polygon fill="#ffffff" stroke="transparent" points="290,-177.7 290,-355.7 509,-355.7 509,-177.7 290,-177.7"/>
<polygon fill="#f5f5f5" stroke="transparent" points="292.5,-330.7 292.5,-353.7 507.5,-353.7 507.5,-330.7 292.5,-330.7"/>
<polygon fill="none" stroke="#000000" points="292.5,-330.7 292.5,-353.7 507.5,-353.7 507.5,-330.7 292.5,-330.7"/>
<text text-anchor="start" x="297.5" y="-339.8" font-family="Helvetica,sans-Serif" font-weight="bold" font-size="11.00" fill="#000000">payment_p2007_01</text>
<text text-anchor="start" x="472.5437" y="-338.8" font-family="Helvetica,sans-Serif" font-size="11.00" fill="#000000">[table]</text>
<polygon fill="none" stroke="#000000" points="292.5,-308.7 292.5,-330.7 423.5,-330.7 423.5,-308.7 292.5,-308.7"/>
<image xlink:href="../../images/foreignKeys.png" width="11px" height="12px" preserveAspectRatio="xMinYMin meet" x="297.5" y="-325.7"/>
<text text-anchor="start" x="312.5" y="-315.8" font-family="Helvetica,sans-Serif" font-size="11.00" fill="#000000">payment_id</text>
<polygon fill="none" stroke="#000000" points="423.5,-308.7 423.5,-330.7 507.5,-330.7 507.5,-308.7 423.5,-308.7"/>
<text text-anchor="start" x="426.5" y="-316.4" font-family="Helvetica,sans-Serif" font-size="11.00" fill="#000000">serial[10]</text>
<polygon fill="#ffffff" stroke="transparent" points="292.5,-286.7 292.5,-308.7 423.5,-308.7 423.5,-286.7 292.5,-286.7"/>
<polygon fill="none" stroke="#000000" points="292.5,-286.7 292.5,-308.7 423.5,-308.7 423.5,-286.7 292.5,-286.7"/>
<image xlink:href="../../images/foreignKeys.png" width="11px" height="12px" preserveAspectRatio="xMinYMin meet" x="297.5" y="-303.7"/>
<text text-anchor="start" x="312.5" y="-293.8" font-family="Helvetica,sans-Serif" font-size="11.00" fill="#000000">customer_id</text>
<polygon fill="none" stroke="#000000" points="423.5,-286.7 423.5,-308.7 507.5,-308.7 507.5,-286.7 423.5,-286.7"/>
<text text-anchor="start" x="426.5" y="-294.4" font-family="Helvetica,sans-Serif" font-size="11.00" fill="#000000">int2[5]</text>
<polygon fill="#ffffff" stroke="transparent" points="292.5,-264.7 292.5,-286.7 423.5,-286.7 423.5,-264.7 292.5,-264.7"/>
<polygon fill="none" stroke="#000000" points="292.5,-264.7 292.5,-286.7 423.5,-286.7 423.5,-264.7 292.5,-264.7"/>
<image xlink:href="../../images/foreignKeys.png" width="11px" height="12px" preserveAspectRatio="xMinYMin meet" x="297.5" y="-281.7"/>
<text text-anchor="start" x="312.5" y="-271.8" font-family="Helvetica,sans-Serif" font-size="11.00" fill="#000000">staff_id</text>
<polygon fill="none" stroke="#000000" points="423.5,-264.7 423.5,-286.7 507.5,-286.7 507.5,-264.7 423.5,-264.7"/>
<text text-anchor="start" x="426.5" y="-272.4" font-family="Helvetica,sans-Serif" font-size="11.00" fill="#000000">int2[5]</text>
<polygon fill="none" stroke="#000000" points="292.5,-242.7 292.5,-264.7 423.5,-264.7 423.5,-242.7 292.5,-242.7"/>
<image xlink:href="../../images/foreignKeys.png" width="11px" height="12px" preserveAspectRatio="xMinYMin meet" x="297.5" y="-259.7"/>
<text text-anchor="start" x="312.5" y="-249.8" font-family="Helvetica,sans-Serif" font-size="11.00" fill="#000000">rental_id</text>
<polygon fill="none" stroke="#000000" points="423.5,-242.7 423.5,-264.7 507.5,-264.7 507.5,-242.7 423.5,-242.7"/>
<text text-anchor="start" x="426.5" y="-250.4" font-family="Helvetica,sans-Serif" font-size="11.00" fill="#000000">int4[10]</text>
<polygon fill="none" stroke="#000000" points="292.5,-220.7 292.5,-242.7 423.5,-242.7 423.5,-220.7 292.5,-220.7"/>
<text text-anchor="start" x="312.5" y="-227.8" font-family="Helvetica,sans-Serif" font-size="11.00" fill="#000000">amount</text>
<polygon fill="none" stroke="#000000" points="423.5,-220.7 423.5,-242.7 507.5,-242.7 507.5,-220.7 423.5,-220.7"/>
<text text-anchor="start" x="426.5" y="-228.4" font-family="Helvetica,sans-Serif" font-size="11.00" fill="#000000">numeric[5,2]</text>
<polygon fill="none" stroke="#000000" points="292.5,-198.7 292.5,-220.7 423.5,-220.7 423.5,-198.7 292.5,-198.7"/>
<text text-anchor="start" x="312.5" y="-205.8" font-family="Helvetica,sans-Serif" font-size="11.00" fill="#000000">payment_date</text>
<polygon fill="none" stroke="#000000" points="423.5,-198.7 423.5,-220.7 507.5,-220.7 507.5,-198.7 423.5,-198.7"/>
<text text-anchor="start" x="426.3807" y="-206.4" font-family="Helvetica,sans-Serif" font-size="11.00" fill="#000000">timestamp[29,6]</text>
<polygon fill="#ffffff" stroke="transparent" points="292.5,-179.7 292.5,-198.7 349.5,-198.7 349.5,-179.7 292.5,-179.7"/>
<polygon fill="none" stroke="#000000" points="292.5,-179.7 292.5,-198.7 349.5,-198.7 349.5,-179.7 292.5,-179.7"/>
<text text-anchor="start" x="295.5" y="-185.8" font-family="Helvetica,sans-Serif" font-size="11.00" fill="#000000">&lt; 3</text>
<polygon fill="#ffffff" stroke="transparent" points="349.5,-179.7 349.5,-198.7 423.5,-198.7 423.5,-179.7 349.5,-179.7"/>
<polygon fill="none" stroke="#000000" points="349.5,-179.7 349.5,-198.7 423.5,-198.7 423.5,-179.7 349.5,-179.7"/>
<text text-anchor="start" x="388.1105" y="-185.8" font-family="Helvetica,sans-Serif" font-size="11.00" fill="#000000">0 rows</text>
<polygon fill="#ffffff" stroke="transparent" points="423.5,-179.7 423.5,-198.7 507.5,-198.7 507.5,-179.7 423.5,-179.7"/>
<polygon fill="none" stroke="#000000" points="423.5,-179.7 423.5,-198.7 507.5,-198.7 507.5,-179.7 423.5,-179.7"/>
<text text-anchor="start" x="488.9053" y="-185.8" font-family="Helvetica,sans-Serif" font-size="11.00" fill="#000000">0 &gt;</text>
<polygon fill="none" stroke="#000000" stroke-width="2" points="291,-178.7 291,-354.7 508,-354.7 508,-178.7 291,-178.7"/>
</a>
</g>
</g>
<!-- customer -->
<g id="node2" class="node">
<title>customer</title>
<g id="a_node2"><a xlink:href="../../tables/customer.html" xlink:title="customer" target="_top">
<polygon fill="#ffffff" stroke="transparent" points="8,-187.2 8,-336.2 100,-336.2 100,-187.2 8,-187.2"/>
<polygon fill="#f5f5f5" stroke="transparent" points="8,-312.7 8,-335.7 100,-335.7 100,-312.7 8,-312.7"/>
<polygon fill="none" stroke="#000000" points="8,-312.7 8,-335.7 100,-335.7 100,-312.7 8,-312.7"/>
<text text-anchor="start" x="13" y="-321.8" font-family="Helvetica,sans-Serif" font-weight="bold" font-size="11.00" fill="#000000">customer</text>
<text text-anchor="start" x="65.0437" y="-320.8" font-family="Helvetica,sans-Serif" font-size="11.00" fill="#000000">[table]</text>
<polygon fill="none" stroke="#000000" points="8,-290.7 8,-312.7 100,-312.7 100,-290.7 8,-290.7"/>
<image xlink:href="../../images/primaryKeys.png" width="11px" height="12px" preserveAspectRatio="xMinYMin meet" x="13" y="-307.7"/>
<text text-anchor="start" x="28" y="-297.8" font-family="Helvetica,sans-Serif" font-size="11.00" fill="#000000">customer_id</text>
<polygon fill="#ffffff" stroke="transparent" points="8,-268.7 8,-290.7 100,-290.7 100,-268.7 8,-268.7"/>
<polygon fill="none" stroke="#000000" points="8,-268.7 8,-290.7 100,-290.7 100,-268.7 8,-268.7"/>
<image xlink:href="../../images/foreignKeys.png" width="11px" height="12px" preserveAspectRatio="xMinYMin meet" x="13" y="-285.7"/>
<text text-anchor="start" x="28" y="-275.8" font-family="Helvetica,sans-Serif" font-size="11.00" fill="#000000">store_id</text>
<polygon fill="#ffffff" stroke="transparent" points="8,-246.7 8,-268.7 100,-268.7 100,-246.7 8,-246.7"/>
<polygon fill="none" stroke="#000000" points="8,-246.7 8,-268.7 100,-268.7 100,-246.7 8,-246.7"/>
<text text-anchor="start" x="28" y="-253.8" font-family="Helvetica,sans-Serif" font-size="11.00" fill="#000000">last_name</text>
<polygon fill="#ffffff" stroke="transparent" points="8,-224.7 8,-246.7 100,-246.7 100,-224.7 8,-224.7"/>
<polygon fill="none" stroke="#000000" points="8,-224.7 8,-246.7 100,-246.7 100,-224.7 8,-224.7"/>
<image xlink:href="../../images/foreignKeys.png" width="11px" height="12px" preserveAspectRatio="xMinYMin meet" x="13" y="-241.7"/>
<text text-anchor="start" x="28" y="-231.8" font-family="Helvetica,sans-Serif" font-size="11.00" fill="#000000">address_id</text>
<polygon fill="none" stroke="#000000" points="8,-205.7 8,-224.7 100,-224.7 100,-205.7 8,-205.7"/>
<text text-anchor="start" x="11" y="-211.8" font-family="Helvetica,sans-Serif" font-size="11.00" fill="#000000">...</text>
<polygon fill="#ffffff" stroke="transparent" points="8,-186.7 8,-205.7 35,-205.7 35,-186.7 8,-186.7"/>
<polygon fill="none" stroke="#000000" points="8,-186.7 8,-205.7 35,-205.7 35,-186.7 8,-186.7"/>
<text text-anchor="start" x="11" y="-192.8" font-family="Helvetica,sans-Serif" font-size="11.00" fill="#000000">&lt; 2</text>
<polygon fill="#ffffff" stroke="transparent" points="35,-186.7 35,-205.7 76,-205.7 76,-186.7 35,-186.7"/>
<polygon fill="none" stroke="#000000" points="35,-186.7 35,-205.7 76,-205.7 76,-186.7 35,-186.7"/>
<text text-anchor="start" x="40.6105" y="-192.8" font-family="Helvetica,sans-Serif" font-size="11.00" fill="#000000">0 rows</text>
<polygon fill="#ffffff" stroke="transparent" points="76,-186.7 76,-205.7 100,-205.7 100,-186.7 76,-186.7"/>
<polygon fill="none" stroke="#000000" points="76,-186.7 76,-205.7 100,-205.7 100,-186.7 76,-186.7"/>
<text text-anchor="start" x="81.4053" y="-192.8" font-family="Helvetica,sans-Serif" font-size="11.00" fill="#000000">8 &gt;</text>
</a>
</g>
</g>
<!-- payment_p2007_01&#45;&gt;customer -->
<g id="edge1" class="edge">
<title>payment_p2007_01:w&#45;&gt;customer:e</title>
<path fill="none" stroke="#000000" d="M278.0933,-297.7396C204.2033,-298.155 180.5599,-301.7 100,-301.7"/>
<polygon fill="#000000" stroke="#000000" points="284.5,-297.722 292.5099,-301.3 288.5,-297.711 292.5,-297.7 292.5,-297.7 292.5,-297.7 288.5,-297.711 292.4901,-294.1 284.5,-297.722 284.5,-297.722"/>
<ellipse fill="none" stroke="#000000" cx="281.3" cy="-297.7309" rx="3.2" ry="3.2"/>
</g>
<!-- rental -->
<g id="node3" class="node">
<title>rental</title>
<g id="a_node3"><a xlink:href="../../tables/rental.html" xlink:title="rental" target="_top">
<polygon fill="#ffffff" stroke="transparent" points="149,-80.2 149,-251.2 241,-251.2 241,-80.2 149,-80.2"/>
<polygon fill="#f5f5f5" stroke="transparent" points="149,-227.7 149,-250.7 241,-250.7 241,-227.7 149,-227.7"/>
<polygon fill="none" stroke="#000000" points="149,-227.7 149,-250.7 241,-250.7 241,-227.7 149,-227.7"/>
<text text-anchor="start" x="154" y="-236.8" font-family="Helvetica,sans-Serif" font-weight="bold" font-size="11.00" fill="#000000">rental</text>
<text text-anchor="start" x="206.0437" y="-235.8" font-family="Helvetica,sans-Serif" font-size="11.00" fill="#000000">[table]</text>
<polygon fill="none" stroke="#000000" points="149,-205.7 149,-227.7 241,-227.7 241,-205.7 149,-205.7"/>
<image xlink:href="../../images/primaryKeys.png" width="11px" height="12px" preserveAspectRatio="xMinYMin meet" x="154" y="-222.7"/>
<text text-anchor="start" x="169" y="-212.8" font-family="Helvetica,sans-Serif" font-size="11.00" fill="#000000">rental_id</text>
<polygon fill="#ffffff" stroke="transparent" points="149,-183.7 149,-205.7 241,-205.7 241,-183.7 149,-183.7"/>
<polygon fill="none" stroke="#000000" points="149,-183.7 149,-205.7 241,-205.7 241,-183.7 149,-183.7"/>
<text text-anchor="start" x="169" y="-190.8" font-family="Helvetica,sans-Serif" font-size="11.00" fill="#000000">rental_date</text>
<polygon fill="#ffffff" stroke="transparent" points="149,-161.7 149,-183.7 241,-183.7 241,-161.7 149,-161.7"/>
<polygon fill="none" stroke="#000000" points="149,-161.7 149,-183.7 241,-183.7 241,-161.7 149,-161.7"/>
<image xlink:href="../../images/foreignKeys.png" width="11px" height="12px" preserveAspectRatio="xMinYMin meet" x="154" y="-178.7"/>
<text text-anchor="start" x="169" y="-168.8" font-family="Helvetica,sans-Serif" font-size="11.00" fill="#000000">inventory_id</text>
<polygon fill="#ffffff" stroke="transparent" points="149,-139.7 149,-161.7 241,-161.7 241,-139.7 149,-139.7"/>
<polygon fill="none" stroke="#000000" points="149,-139.7 149,-161.7 241,-161.7 241,-139.7 149,-139.7"/>
<image xlink:href="../../images/foreignKeys.png" width="11px" height="12px" preserveAspectRatio="xMinYMin meet" x="154" y="-156.7"/>
<text text-anchor="start" x="169" y="-146.8" font-family="Helvetica,sans-Serif" font-size="11.00" fill="#000000">customer_id</text>
<polygon fill="none" stroke="#000000" points="149,-117.7 149,-139.7 241,-139.7 241,-117.7 149,-117.7"/>
<image xlink:href="../../images/foreignKeys.png" width="11px" height="12px" preserveAspectRatio="xMinYMin meet" x="154" y="-134.7"/>
<text text-anchor="start" x="169" y="-124.8" font-family="Helvetica,sans-Serif" font-size="11.00" fill="#000000">staff_id</text>
<polygon fill="none" stroke="#000000" points="149,-98.7 149,-117.7 241,-117.7 241,-98.7 149,-98.7"/>
<text text-anchor="start" x="152" y="-104.8" font-family="Helvetica,sans-Serif" font-size="11.00" fill="#000000">...</text>
<polygon fill="#ffffff" stroke="transparent" points="149,-79.7 149,-98.7 176,-98.7 176,-79.7 149,-79.7"/>
<polygon fill="none" stroke="#000000" points="149,-79.7 149,-98.7 176,-98.7 176,-79.7 149,-79.7"/>
<text text-anchor="start" x="152" y="-85.8" font-family="Helvetica,sans-Serif" font-size="11.00" fill="#000000">&lt; 3</text>
<polygon fill="#ffffff" stroke="transparent" points="176,-79.7 176,-98.7 217,-98.7 217,-79.7 176,-79.7"/>
<polygon fill="none" stroke="#000000" points="176,-79.7 176,-98.7 217,-98.7 217,-79.7 176,-79.7"/>
<text text-anchor="start" x="181.6105" y="-85.8" font-family="Helvetica,sans-Serif" font-size="11.00" fill="#000000">0 rows</text>
<polygon fill="#ffffff" stroke="transparent" points="217,-79.7 217,-98.7 241,-98.7 241,-79.7 217,-79.7"/>
<polygon fill="none" stroke="#000000" points="217,-79.7 217,-98.7 241,-98.7 241,-79.7 217,-79.7"/>
<text text-anchor="start" x="222.4053" y="-85.8" font-family="Helvetica,sans-Serif" font-size="11.00" fill="#000000">7 &gt;</text>
</a>
</g>
</g>
<!-- payment_p2007_01&#45;&gt;rental -->
<g id="edge2" class="edge">
<title>payment_p2007_01:w&#45;&gt;rental:e</title>
<path fill="none" stroke="#000000" d="M278.4564,-249.4556C264.8991,-239.7369 263.2387,-216.7 241,-216.7"/>
<polygon fill="#000000" stroke="#000000" points="284.8421,-251.3855 291.4585,-257.1461 288.671,-252.5428 292.5,-253.7 292.5,-253.7 292.5,-253.7 288.671,-252.5428 293.5415,-250.2539 284.8421,-251.3855 284.8421,-251.3855"/>
<ellipse fill="none" stroke="#000000" cx="281.7789" cy="-250.4597" rx="3.2" ry="3.2"/>
</g>
<!-- staff -->
<g id="node4" class="node">
<title>staff</title>
<g id="a_node4"><a xlink:href="../../tables/staff.html" xlink:title="staff" target="_top">
<polygon fill="#ffffff" stroke="transparent" points="10.5,-38.2 10.5,-165.2 97.5,-165.2 97.5,-38.2 10.5,-38.2"/>
<polygon fill="#f5f5f5" stroke="transparent" points="11,-141.7 11,-164.7 98,-164.7 98,-141.7 11,-141.7"/>
<polygon fill="none" stroke="#000000" points="11,-141.7 11,-164.7 98,-164.7 98,-141.7 11,-141.7"/>
<text text-anchor="start" x="16" y="-150.8" font-family="Helvetica,sans-Serif" font-weight="bold" font-size="11.00" fill="#000000">staff</text>
<text text-anchor="start" x="63.0437" y="-149.8" font-family="Helvetica,sans-Serif" font-size="11.00" fill="#000000">[table]</text>
<polygon fill="none" stroke="#000000" points="11,-119.7 11,-141.7 98,-141.7 98,-119.7 11,-119.7"/>
<image xlink:href="../../images/primaryKeys.png" width="11px" height="12px" preserveAspectRatio="xMinYMin meet" x="16" y="-136.7"/>
<text text-anchor="start" x="31" y="-126.8" font-family="Helvetica,sans-Serif" font-size="11.00" fill="#000000">staff_id</text>
<polygon fill="none" stroke="#000000" points="11,-97.7 11,-119.7 98,-119.7 98,-97.7 11,-97.7"/>
<image xlink:href="../../images/foreignKeys.png" width="11px" height="12px" preserveAspectRatio="xMinYMin meet" x="16" y="-114.7"/>
<text text-anchor="start" x="31" y="-104.8" font-family="Helvetica,sans-Serif" font-size="11.00" fill="#000000">address_id</text>
<polygon fill="none" stroke="#000000" points="11,-75.7 11,-97.7 98,-97.7 98,-75.7 11,-75.7"/>
<image xlink:href="../../images/foreignKeys.png" width="11px" height="12px" preserveAspectRatio="xMinYMin meet" x="16" y="-92.7"/>
<text text-anchor="start" x="31" y="-82.8" font-family="Helvetica,sans-Serif" font-size="11.00" fill="#000000">store_id</text>
<polygon fill="none" stroke="#000000" points="11,-56.7 11,-75.7 98,-75.7 98,-56.7 11,-56.7"/>
<text text-anchor="start" x="14" y="-62.8" font-family="Helvetica,sans-Serif" font-size="11.00" fill="#000000">...</text>
<polygon fill="#ffffff" stroke="transparent" points="11,-37.7 11,-56.7 35,-56.7 35,-37.7 11,-37.7"/>
<polygon fill="none" stroke="#000000" points="11,-37.7 11,-56.7 35,-56.7 35,-37.7 11,-37.7"/>
<text text-anchor="start" x="14" y="-43.8" font-family="Helvetica,sans-Serif" font-size="11.00" fill="#000000">&lt; 2</text>
<polygon fill="#ffffff" stroke="transparent" points="35,-37.7 35,-56.7 75,-56.7 75,-37.7 35,-37.7"/>
<polygon fill="none" stroke="#000000" points="35,-37.7 35,-56.7 75,-56.7 75,-37.7 35,-37.7"/>
<text text-anchor="start" x="39.6105" y="-43.8" font-family="Helvetica,sans-Serif" font-size="11.00" fill="#000000">0 rows</text>
<polygon fill="#ffffff" stroke="transparent" points="75,-37.7 75,-56.7 98,-56.7 98,-37.7 75,-37.7"/>
<polygon fill="none" stroke="#000000" points="75,-37.7 75,-56.7 98,-56.7 98,-37.7 75,-37.7"/>
<text text-anchor="start" x="79.4053" y="-43.8" font-family="Helvetica,sans-Serif" font-size="11.00" fill="#000000">9 &gt;</text>
</a>
</g>
</g>
<!-- payment_p2007_01&#45;&gt;staff -->
<g id="edge3" class="edge">
<title>payment_p2007_01:w&#45;&gt;staff:e</title>
<path fill="none" stroke="#000000" d="M278.0252,-276.1248C220.1578,-279.4905 189.9559,-300.7163 141,-261.7 93.0787,-223.5082 159.2786,-130.7 98,-130.7"/>
<polygon fill="#000000" stroke="#000000" points="284.5034,-275.9348 292.6056,-279.2985 288.5017,-275.8174 292.5,-275.7 292.5,-275.7 292.5,-275.7 288.5017,-275.8174 292.3944,-272.1015 284.5034,-275.9348 284.5034,-275.9348"/>
<ellipse fill="none" stroke="#000000" cx="281.3048" cy="-276.0287" rx="3.2" ry="3.2"/>
</g>
<!-- rental&#45;&gt;customer -->
<g id="edge4" class="edge">
<title>rental:w&#45;&gt;customer:e</title>
<path fill="none" stroke="#000000" d="M134.7408,-153.5816C92.4614,-174.4573 164.7684,-301.7 100,-301.7"/>
<polygon fill="#000000" stroke="#000000" points="141.1585,-152.2847 149.7131,-154.2287 145.0793,-151.4924 149,-150.7 149,-150.7 149,-150.7 145.0793,-151.4924 148.2869,-147.1713 141.1585,-152.2847 141.1585,-152.2847"/>
<ellipse fill="none" stroke="#000000" cx="138.0219" cy="-152.9186" rx="3.2" ry="3.2"/>
</g>
<!-- rental&#45;&gt;staff -->
<g id="edge5" class="edge">
<title>rental:w&#45;&gt;staff:e</title>
<path fill="none" stroke="#000000" d="M134.2711,-129.0303C122.2786,-129.5983 114.8358,-130.7 98,-130.7"/>
<polygon fill="#000000" stroke="#000000" points="141.002,-128.8794 149.0807,-132.2991 145.001,-128.7897 149,-128.7 149,-128.7 149,-128.7 145.001,-128.7897 148.9193,-125.1009 141.002,-128.8794 141.002,-128.8794"/>
<ellipse fill="none" stroke="#000000" cx="137.8028" cy="-128.9511" rx="3.2" ry="3.2"/>
</g>
</g>
</svg>
