<?xml version="1.0" encoding="UTF-8" standalone="no"?>
<!DOCTYPE svg PUBLIC "-//W3C//DTD SVG 1.1//EN"
 "http://www.w3.org/Graphics/SVG/1.1/DTD/svg11.dtd">
<!-- Generated by graphviz version 2.40.1 (20161225.0304)
 -->
<!-- Title: oneDegreeRelationshipsDiagram Pages: 1 -->
<svg width="495pt" height="346pt"
 viewBox="0.00 0.00 495.00 345.70" xmlns="http://www.w3.org/2000/svg" xmlns:xlink="http://www.w3.org/1999/xlink">
<g id="graph0" class="graph" transform="scale(1 1) rotate(0) translate(4 341.7)">
<title>oneDegreeRelationshipsDiagram</title>
<polygon fill="#ffffff" stroke="transparent" points="-4,4 -4,-341.7 491,-341.7 491,4 -4,4"/>
<text text-anchor="middle" x="72.4936" y="-7.3" font-family="Helvetica,sans-Serif" font-size="11.00" fill="#000000">Generated by SchemaSpy</text>
<!-- payment -->
<g id="node1" class="node">
<title>payment</title>
<g id="a_node1"><a xlink:href="../../tables/payment.html" xlink:title="payment" target="_top">
<polygon fill="#ffffff" stroke="transparent" points="290,-155.7 290,-333.7 479,-333.7 479,-155.7 290,-155.7"/>
<polygon fill="#f5f5f5" stroke="transparent" points="292.5,-308.7 292.5,-331.7 477.5,-331.7 477.5,-308.7 292.5,-308.7"/>
<polygon fill="none" stroke="#000000" points="292.5,-308.7 292.5,-331.7 477.5,-331.7 477.5,-308.7 292.5,-308.7"/>
<text text-anchor="start" x="297.5" y="-317.8" font-family="Helvetica,sans-Serif" font-weight="bold" font-size="11.00" fill="#000000">payment</text>
<text text-anchor="start" x="442.5437" y="-316.8" font-family="Helvetica,sans-Serif" font-size="11.00" fill="#000000">[table]</text>
<polygon fill="none" stroke="#000000" points="292.5,-286.7 292.5,-308.7 393.5,-308.7 393.5,-286.7 292.5,-286.7"/>
<image xlink:href="../../images/primaryKeys.png" width="11px" height="12px" preserveAspectRatio="xMinYMin meet" x="297.5" y="-303.7"/>
<text text-anchor="start" x="312.5" y="-293.8" font-family="Helvetica,sans-Serif" font-size="11.00" fill="#000000">payment_id</text>
<polygon fill="none" stroke="#000000" points="393.5,-286.7 393.5,-308.7 477.5,-308.7 477.5,-286.7 393.5,-286.7"/>
<text text-anchor="start" x="396.5" y="-294.4" font-family="Helvetica,sans-Serif" font-size="11.00" fill="#000000">serial[10]</text>
<polygon fill="#ffffff" stroke="transparent" points="292.5,-264.7 292.5,-286.7 393.5,-286.7 393.5,-264.7 292.5,-264.7"/>
<polygon fill="none" stroke="#000000" points="292.5,-264.7 292.5,-286.7 393.5,-286.7 393.5,-264.7 292.5,-264.7"/>
<image xlink:href="../../images/foreignKeys.png" width="11px" height="12px" preserveAspectRatio="xMinYMin meet" x="297.5" y="-281.7"/>
<text text-anchor="start" x="312.5" y="-271.8" font-family="Helvetica,sans-Serif" font-size="11.00" fill="#000000">customer_id</text>
<polygon fill="none" stroke="#000000" points="393.5,-264.7 393.5,-286.7 477.5,-286.7 477.5,-264.7 393.5,-264.7"/>
<text text-anchor="start" x="396.5" y="-272.4" font-family="Helvetica,sans-Serif" font-size="11.00" fill="#000000">int2[5]</text>
<polygon fill="#ffffff" stroke="transparent" points="292.5,-242.7 292.5,-264.7 393.5,-264.7 393.5,-242.7 292.5,-242.7"/>
<polygon fill="none" stroke="#000000" points="292.5,-242.7 292.5,-264.7 393.5,-264.7 393.5,-242.7 292.5,-242.7"/>
<image xlink:href="../../images/foreignKeys.png" width="11px" height="12px" preserveAspectRatio="xMinYMin meet" x="297.5" y="-259.7"/>
<text text-anchor="start" x="312.5" y="-249.8" font-family="Helvetica,sans-Serif" font-size="11.00" fill="#000000">staff_id</text>
<polygon fill="none" stroke="#000000" points="393.5,-242.7 393.5,-264.7 477.5,-264.7 477.5,-242.7 393.5,-242.7"/>
<text text-anchor="start" x="396.5" y="-250.4" font-family="Helvetica,sans-Serif" font-size="11.00" fill="#000000">int2[5]</text>
<polygon fill="#ffffff" stroke="transparent" points="292.5,-220.7 292.5,-242.7 393.5,-242.7 393.5,-220.7 292.5,-220.7"/>
<polygon fill="none" stroke="#000000" points="292.5,-220.7 292.5,-242.7 393.5,-242.7 393.5,-220.7 292.5,-220.7"/>
<image xlink:href="../../images/foreignKeys.png" width="11px" height="12px" preserveAspectRatio="xMinYMin meet" x="297.5" y="-237.7"/>
<text text-anchor="start" x="312.5" y="-227.8" font-family="Helvetica,sans-Serif" font-size="11.00" fill="#000000">rental_id</text>
<polygon fill="none" stroke="#000000" points="393.5,-220.7 393.5,-242.7 477.5,-242.7 477.5,-220.7 393.5,-220.7"/>
<text text-anchor="start" x="396.5" y="-228.4" font-family="Helvetica,sans-Serif" font-size="11.00" fill="#000000">int4[10]</text>
<polygon fill="none" stroke="#000000" points="292.5,-198.7 292.5,-220.7 393.5,-220.7 393.5,-198.7 292.5,-198.7"/>
<text text-anchor="start" x="312.5" y="-205.8" font-family="Helvetica,sans-Serif" font-size="11.00" fill="#000000">amount</text>
<polygon fill="none" stroke="#000000" points="393.5,-198.7 393.5,-220.7 477.5,-220.7 477.5,-198.7 393.5,-198.7"/>
<text text-anchor="start" x="396.5" y="-206.4" font-family="Helvetica,sans-Serif" font-size="11.00" fill="#000000">numeric[5,2]</text>
<polygon fill="none" stroke="#000000" points="292.5,-176.7 292.5,-198.7 393.5,-198.7 393.5,-176.7 292.5,-176.7"/>
<text text-anchor="start" x="312.5" y="-183.8" font-family="Helvetica,sans-Serif" font-size="11.00" fill="#000000">payment_date</text>
<polygon fill="none" stroke="#000000" points="393.5,-176.7 393.5,-198.7 477.5,-198.7 477.5,-176.7 393.5,-176.7"/>
<text text-anchor="start" x="396.3807" y="-184.4" font-family="Helvetica,sans-Serif" font-size="11.00" fill="#000000">timestamp[29,6]</text>
<polygon fill="#ffffff" stroke="transparent" points="292.5,-157.7 292.5,-176.7 334.5,-176.7 334.5,-157.7 292.5,-157.7"/>
<polygon fill="none" stroke="#000000" points="292.5,-157.7 292.5,-176.7 334.5,-176.7 334.5,-157.7 292.5,-157.7"/>
<text text-anchor="start" x="295.5" y="-163.8" font-family="Helvetica,sans-Serif" font-size="11.00" fill="#000000">&lt; 3</text>
<polygon fill="#ffffff" stroke="transparent" points="334.5,-157.7 334.5,-176.7 393.5,-176.7 393.5,-157.7 334.5,-157.7"/>
<polygon fill="none" stroke="#000000" points="334.5,-157.7 334.5,-176.7 393.5,-176.7 393.5,-157.7 334.5,-157.7"/>
<text text-anchor="start" x="358.1105" y="-163.8" font-family="Helvetica,sans-Serif" font-size="11.00" fill="#000000">0 rows</text>
<polygon fill="#ffffff" stroke="transparent" points="393.5,-157.7 393.5,-176.7 477.5,-176.7 477.5,-157.7 393.5,-157.7"/>
<polygon fill="none" stroke="#000000" points="393.5,-157.7 393.5,-176.7 477.5,-176.7 477.5,-157.7 393.5,-157.7"/>
<text text-anchor="start" x="458.9053" y="-163.8" font-family="Helvetica,sans-Serif" font-size="11.00" fill="#000000">0 &gt;</text>
<polygon fill="none" stroke="#000000" stroke-width="2" points="291,-156.7 291,-332.7 478,-332.7 478,-156.7 291,-156.7"/>
</a>
</g>
</g>
<!-- customer -->
<g id="node2" class="node">
<title>customer</title>
<g id="a_node2"><a xlink:href="../../tables/customer.html" xlink:title="customer" target="_top">
<polygon fill="#ffffff" stroke="transparent" points="8,-165.2 8,-314.2 100,-314.2 100,-165.2 8,-165.2"/>
<polygon fill="#f5f5f5" stroke="transparent" points="8,-290.7 8,-313.7 100,-313.7 100,-290.7 8,-290.7"/>
<polygon fill="none" stroke="#000000" points="8,-290.7 8,-313.7 100,-313.7 100,-290.7 8,-290.7"/>
<text text-anchor="start" x="13" y="-299.8" font-family="Helvetica,sans-Serif" font-weight="bold" font-size="11.00" fill="#000000">customer</text>
<text text-anchor="start" x="65.0437" y="-298.8" font-family="Helvetica,sans-Serif" font-size="11.00" fill="#000000">[table]</text>
<polygon fill="none" stroke="#000000" points="8,-268.7 8,-290.7 100,-290.7 100,-268.7 8,-268.7"/>
<image xlink:href="../../images/primaryKeys.png" width="11px" height="12px" preserveAspectRatio="xMinYMin meet" x="13" y="-285.7"/>
<text text-anchor="start" x="28" y="-275.8" font-family="Helvetica,sans-Serif" font-size="11.00" fill="#000000">customer_id</text>
<polygon fill="#ffffff" stroke="transparent" points="8,-246.7 8,-268.7 100,-268.7 100,-246.7 8,-246.7"/>
<polygon fill="none" stroke="#000000" points="8,-246.7 8,-268.7 100,-268.7 100,-246.7 8,-246.7"/>
<text text-anchor="start" x="28" y="-253.8" font-family="Helvetica,sans-Serif" font-size="11.00" fill="#000000">store_id</text>
<polygon fill="#ffffff" stroke="transparent" points="8,-224.7 8,-246.7 100,-246.7 100,-224.7 8,-224.7"/>
<polygon fill="none" stroke="#000000" points="8,-224.7 8,-246.7 100,-246.7 100,-224.7 8,-224.7"/>
<text text-anchor="start" x="28" y="-231.8" font-family="Helvetica,sans-Serif" font-size="11.00" fill="#000000">last_name</text>
<polygon fill="#ffffff" stroke="transparent" points="8,-202.7 8,-224.7 100,-224.7 100,-202.7 8,-202.7"/>
<polygon fill="none" stroke="#000000" points="8,-202.7 8,-224.7 100,-224.7 100,-202.7 8,-202.7"/>
<image xlink:href="../../images/foreignKeys.png" width="11px" height="12px" preserveAspectRatio="xMinYMin meet" x="13" y="-219.7"/>
<text text-anchor="start" x="28" y="-209.8" font-family="Helvetica,sans-Serif" font-size="11.00" fill="#000000">address_id</text>
<polygon fill="none" stroke="#000000" points="8,-183.7 8,-202.7 100,-202.7 100,-183.7 8,-183.7"/>
<text text-anchor="start" x="11" y="-189.8" font-family="Helvetica,sans-Serif" font-size="11.00" fill="#000000">...</text>
<polygon fill="#ffffff" stroke="transparent" points="8,-164.7 8,-183.7 35,-183.7 35,-164.7 8,-164.7"/>
<polygon fill="none" stroke="#000000" points="8,-164.7 8,-183.7 35,-183.7 35,-164.7 8,-164.7"/>
<text text-anchor="start" x="11" y="-170.8" font-family="Helvetica,sans-Serif" font-size="11.00" fill="#000000">&lt; 1</text>
<polygon fill="#ffffff" stroke="transparent" points="35,-164.7 35,-183.7 76,-183.7 76,-164.7 35,-164.7"/>
<polygon fill="none" stroke="#000000" points="35,-164.7 35,-183.7 76,-183.7 76,-164.7 35,-164.7"/>
<text text-anchor="start" x="40.6105" y="-170.8" font-family="Helvetica,sans-Serif" font-size="11.00" fill="#000000">0 rows</text>
<polygon fill="#ffffff" stroke="transparent" points="76,-164.7 76,-183.7 100,-183.7 100,-164.7 76,-164.7"/>
<polygon fill="none" stroke="#000000" points="76,-164.7 76,-183.7 100,-183.7 100,-164.7 76,-164.7"/>
<text text-anchor="start" x="81.4053" y="-170.8" font-family="Helvetica,sans-Serif" font-size="11.00" fill="#000000">2 &gt;</text>
</a>
</g>
</g>
<!-- payment&#45;&gt;customer -->
<g id="edge1" class="edge">
<title>payment:w&#45;&gt;customer:e</title>
<path fill="none" stroke="#000000" d="M278.0933,-275.7396C204.2033,-276.155 180.5599,-279.7 100,-279.7"/>
<polygon fill="#000000" stroke="#000000" points="284.5,-275.722 292.5099,-279.3 288.5,-275.711 292.5,-275.7 292.5,-275.7 292.5,-275.7 288.5,-275.711 292.4901,-272.1 284.5,-275.722 284.5,-275.722"/>
<ellipse fill="none" stroke="#000000" cx="281.3" cy="-275.7309" rx="3.2" ry="3.2"/>
</g>
<!-- rental -->
<g id="node3" class="node">
<title>rental</title>
<g id="a_node3"><a xlink:href="../../tables/rental.html" xlink:title="rental" target="_top">
<polygon fill="#ffffff" stroke="transparent" points="149,-58.2 149,-229.2 241,-229.2 241,-58.2 149,-58.2"/>
<polygon fill="#f5f5f5" stroke="transparent" points="149,-205.7 149,-228.7 241,-228.7 241,-205.7 149,-205.7"/>
<polygon fill="none" stroke="#000000" points="149,-205.7 149,-228.7 241,-228.7 241,-205.7 149,-205.7"/>
<text text-anchor="start" x="154" y="-214.8" font-family="Helvetica,sans-Serif" font-weight="bold" font-size="11.00" fill="#000000">rental</text>
<text text-anchor="start" x="206.0437" y="-213.8" font-family="Helvetica,sans-Serif" font-size="11.00" fill="#000000">[table]</text>
<polygon fill="none" stroke="#000000" points="149,-183.7 149,-205.7 241,-205.7 241,-183.7 149,-183.7"/>
<image xlink:href="../../images/primaryKeys.png" width="11px" height="12px" preserveAspectRatio="xMinYMin meet" x="154" y="-200.7"/>
<text text-anchor="start" x="169" y="-190.8" font-family="Helvetica,sans-Serif" font-size="11.00" fill="#000000">rental_id</text>
<polygon fill="#ffffff" stroke="transparent" points="149,-161.7 149,-183.7 241,-183.7 241,-161.7 149,-161.7"/>
<polygon fill="none" stroke="#000000" points="149,-161.7 149,-183.7 241,-183.7 241,-161.7 149,-161.7"/>
<text text-anchor="start" x="169" y="-168.8" font-family="Helvetica,sans-Serif" font-size="11.00" fill="#000000">rental_date</text>
<polygon fill="#ffffff" stroke="transparent" points="149,-139.7 149,-161.7 241,-161.7 241,-139.7 149,-139.7"/>
<polygon fill="none" stroke="#000000" points="149,-139.7 149,-161.7 241,-161.7 241,-139.7 149,-139.7"/>
<image xlink:href="../../images/foreignKeys.png" width="11px" height="12px" preserveAspectRatio="xMinYMin meet" x="154" y="-156.7"/>
<text text-anchor="start" x="169" y="-146.8" font-family="Helvetica,sans-Serif" font-size="11.00" fill="#000000">inventory_id</text>
<polygon fill="#ffffff" stroke="transparent" points="149,-117.7 149,-139.7 241,-139.7 241,-117.7 149,-117.7"/>
<polygon fill="none" stroke="#000000" points="149,-117.7 149,-139.7 241,-139.7 241,-117.7 149,-117.7"/>
<image xlink:href="../../images/foreignKeys.png" width="11px" height="12px" preserveAspectRatio="xMinYMin meet" x="154" y="-134.7"/>
<text text-anchor="start" x="169" y="-124.8" font-family="Helvetica,sans-Serif" font-size="11.00" fill="#000000">customer_id</text>
<polygon fill="none" stroke="#000000" points="149,-95.7 149,-117.7 241,-117.7 241,-95.7 149,-95.7"/>
<image xlink:href="../../images/foreignKeys.png" width="11px" height="12px" preserveAspectRatio="xMinYMin meet" x="154" y="-112.7"/>
<text text-anchor="start" x="169" y="-102.8" font-family="Helvetica,sans-Serif" font-size="11.00" fill="#000000">staff_id</text>
<polygon fill="none" stroke="#000000" points="149,-76.7 149,-95.7 241,-95.7 241,-76.7 149,-76.7"/>
<text text-anchor="start" x="152" y="-82.8" font-family="Helvetica,sans-Serif" font-size="11.00" fill="#000000">...</text>
<polygon fill="#ffffff" stroke="transparent" points="149,-57.7 149,-76.7 176,-76.7 176,-57.7 149,-57.7"/>
<polygon fill="none" stroke="#000000" points="149,-57.7 149,-76.7 176,-76.7 176,-57.7 149,-57.7"/>
<text text-anchor="start" x="152" y="-63.8" font-family="Helvetica,sans-Serif" font-size="11.00" fill="#000000">&lt; 3</text>
<polygon fill="#ffffff" stroke="transparent" points="176,-57.7 176,-76.7 217,-76.7 217,-57.7 176,-57.7"/>
<polygon fill="none" stroke="#000000" points="176,-57.7 176,-76.7 217,-76.7 217,-57.7 176,-57.7"/>
<text text-anchor="start" x="181.6105" y="-63.8" font-family="Helvetica,sans-Serif" font-size="11.00" fill="#000000">0 rows</text>
<polygon fill="#ffffff" stroke="transparent" points="217,-57.7 217,-76.7 241,-76.7 241,-57.7 217,-57.7"/>
<polygon fill="none" stroke="#000000" points="217,-57.7 217,-76.7 241,-76.7 241,-57.7 217,-57.7"/>
<text text-anchor="start" x="222.4053" y="-63.8" font-family="Helvetica,sans-Serif" font-size="11.00" fill="#000000">1 &gt;</text>
</a>
</g>
</g>
<!-- payment&#45;&gt;rental -->
<g id="edge2" class="edge">
<title>payment:w&#45;&gt;rental:e</title>
<path fill="none" stroke="#000000" d="M278.4564,-227.4556C264.8991,-217.7369 263.2387,-194.7 241,-194.7"/>
<polygon fill="#000000" stroke="#000000" points="284.8421,-229.3855 291.4585,-235.1461 288.671,-230.5428 292.5,-231.7 292.5,-231.7 292.5,-231.7 288.671,-230.5428 293.5415,-228.2539 284.8421,-229.3855 284.8421,-229.3855"/>
<ellipse fill="none" stroke="#000000" cx="281.7789" cy="-228.4597" rx="3.2" ry="3.2"/>
</g>
<!-- staff -->
<g id="node4" class="node">
<title>staff</title>
<g id="a_node4"><a xlink:href="../../tables/staff.html" xlink:title="staff" target="_top">
<polygon fill="#ffffff" stroke="transparent" points="10.5,-38.2 10.5,-143.2 97.5,-143.2 97.5,-38.2 10.5,-38.2"/>
<polygon fill="#f5f5f5" stroke="transparent" points="11,-119.7 11,-142.7 98,-142.7 98,-119.7 11,-119.7"/>
<polygon fill="none" stroke="#000000" points="11,-119.7 11,-142.7 98,-142.7 98,-119.7 11,-119.7"/>
<text text-anchor="start" x="16" y="-128.8" font-family="Helvetica,sans-Serif" font-weight="bold" font-size="11.00" fill="#000000">staff</text>
<text text-anchor="start" x="63.0437" y="-127.8" font-family="Helvetica,sans-Serif" font-size="11.00" fill="#000000">[table]</text>
<polygon fill="none" stroke="#000000" points="11,-97.7 11,-119.7 98,-119.7 98,-97.7 11,-97.7"/>
<image xlink:href="../../images/primaryKeys.png" width="11px" height="12px" preserveAspectRatio="xMinYMin meet" x="16" y="-114.7"/>
<text text-anchor="start" x="31" y="-104.8" font-family="Helvetica,sans-Serif" font-size="11.00" fill="#000000">staff_id</text>
<polygon fill="none" stroke="#000000" points="11,-75.7 11,-97.7 98,-97.7 98,-75.7 11,-75.7"/>
<image xlink:href="../../images/foreignKeys.png" width="11px" height="12px" preserveAspectRatio="xMinYMin meet" x="16" y="-92.7"/>
<text text-anchor="start" x="31" y="-82.8" font-family="Helvetica,sans-Serif" font-size="11.00" fill="#000000">address_id</text>
<polygon fill="none" stroke="#000000" points="11,-56.7 11,-75.7 98,-75.7 98,-56.7 11,-56.7"/>
<text text-anchor="start" x="14" y="-62.8" font-family="Helvetica,sans-Serif" font-size="11.00" fill="#000000">...</text>
<polygon fill="#ffffff" stroke="transparent" points="11,-37.7 11,-56.7 35,-56.7 35,-37.7 11,-37.7"/>
<polygon fill="none" stroke="#000000" points="11,-37.7 11,-56.7 35,-56.7 35,-37.7 11,-37.7"/>
<text text-anchor="start" x="14" y="-43.8" font-family="Helvetica,sans-Serif" font-size="11.00" fill="#000000">&lt; 1</text>
<polygon fill="#ffffff" stroke="transparent" points="35,-37.7 35,-56.7 75,-56.7 75,-37.7 35,-37.7"/>
<polygon fill="none" stroke="#000000" points="35,-37.7 35,-56.7 75,-56.7 75,-37.7 35,-37.7"/>
<text text-anchor="start" x="39.6105" y="-43.8" font-family="Helvetica,sans-Serif" font-size="11.00" fill="#000000">0 rows</text>
<polygon fill="#ffffff" stroke="transparent" points="75,-37.7 75,-56.7 98,-56.7 98,-37.7 75,-37.7"/>
<polygon fill="none" stroke="#000000" points="75,-37.7 75,-56.7 98,-56.7 98,-37.7 75,-37.7"/>
<text text-anchor="start" x="79.4053" y="-43.8" font-family="Helvetica,sans-Serif" font-size="11.00" fill="#000000">3 &gt;</text>
</a>
</g>
</g>
<!-- payment&#45;&gt;staff -->
<g id="edge3" class="edge">
<title>payment:w&#45;&gt;staff:e</title>
<path fill="none" stroke="#000000" d="M278.0252,-254.1248C220.1578,-257.4905 189.9559,-278.7163 141,-239.7 93.0787,-201.5082 159.2786,-108.7 98,-108.7"/>
<polygon fill="#000000" stroke="#000000" points="284.5034,-253.9348 292.6056,-257.2985 288.5017,-253.8174 292.5,-253.7 292.5,-253.7 292.5,-253.7 288.5017,-253.8174 292.3944,-250.1015 284.5034,-253.9348 284.5034,-253.9348"/>
<ellipse fill="none" stroke="#000000" cx="281.3048" cy="-254.0287" rx="3.2" ry="3.2"/>
</g>
<!-- rental&#45;&gt;customer -->
<g id="edge4" class="edge">
<title>rental:w&#45;&gt;customer:e</title>
<path fill="none" stroke="#000000" d="M134.7408,-131.5816C92.4614,-152.4573 164.7684,-279.7 100,-279.7"/>
<polygon fill="#000000" stroke="#000000" points="141.1585,-130.2847 149.7131,-132.2287 145.0793,-129.4924 149,-128.7 149,-128.7 149,-128.7 145.0793,-129.4924 148.2869,-125.1713 141.1585,-130.2847 141.1585,-130.2847"/>
<ellipse fill="none" stroke="#000000" cx="138.0219" cy="-130.9186" rx="3.2" ry="3.2"/>
</g>
<!-- rental&#45;&gt;staff -->
<g id="edge5" class="edge">
<title>rental:w&#45;&gt;staff:e</title>
<path fill="none" stroke="#000000" d="M134.2711,-107.0303C122.2786,-107.5983 114.8358,-108.7 98,-108.7"/>
<polygon fill="#000000" stroke="#000000" points="141.002,-106.8794 149.0807,-110.2991 145.001,-106.7897 149,-106.7 149,-106.7 149,-106.7 145.001,-106.7897 148.9193,-103.1009 141.002,-106.8794 141.002,-106.8794"/>
<ellipse fill="none" stroke="#000000" cx="137.8028" cy="-106.9511" rx="3.2" ry="3.2"/>
</g>
</g>
</svg>
