<?xml version="1.0" encoding="UTF-8" standalone="no"?>
<!DOCTYPE svg PUBLIC "-//W3C//DTD SVG 1.1//EN"
 "http://www.w3.org/Graphics/SVG/1.1/DTD/svg11.dtd">
<!-- Generated by graphviz version 2.40.1 (20161225.0304)
 -->
<!-- Title: twoDegreesRelationshipsDiagramImplied Pages: 1 -->
<svg width="1071pt" height="684pt"
 viewBox="0.00 0.00 1071.00 684.43" xmlns="http://www.w3.org/2000/svg" xmlns:xlink="http://www.w3.org/1999/xlink">
<g id="graph0" class="graph" transform="scale(1 1) rotate(0) translate(4 680.4318)">
<title>twoDegreesRelationshipsDiagramImplied</title>
<polygon fill="#ffffff" stroke="transparent" points="-4,4 -4,-680.4318 1067,-680.4318 1067,4 -4,4"/>
<text text-anchor="middle" x="72.4936" y="-7.3" font-family="Helvetica,sans-Serif" font-size="11.00" fill="#000000">Generated by SchemaSpy</text>
<!-- customer -->
<g id="node1" class="node">
<title>customer</title>
<g id="a_node1"><a xlink:href="../../tables/customer.html" xlink:title="customer" target="_top">
<polygon fill="#ffffff" stroke="transparent" points="404,-319.4318 404,-468.4318 496,-468.4318 496,-319.4318 404,-319.4318"/>
<polygon fill="#f5f5f5" stroke="transparent" points="404,-444.9318 404,-467.9318 496,-467.9318 496,-444.9318 404,-444.9318"/>
<polygon fill="none" stroke="#000000" points="404,-444.9318 404,-467.9318 496,-467.9318 496,-444.9318 404,-444.9318"/>
<text text-anchor="start" x="409" y="-454.0318" font-family="Helvetica,sans-Serif" font-weight="bold" font-size="11.00" fill="#000000">customer</text>
<text text-anchor="start" x="461.0437" y="-453.0318" font-family="Helvetica,sans-Serif" font-size="11.00" fill="#000000">[table]</text>
<polygon fill="none" stroke="#000000" points="404,-422.9318 404,-444.9318 496,-444.9318 496,-422.9318 404,-422.9318"/>
<image xlink:href="../../images/primaryKeys.png" width="11px" height="12px" preserveAspectRatio="xMinYMin meet" x="409" y="-439.932"/>
<text text-anchor="start" x="424" y="-430.0318" font-family="Helvetica,sans-Serif" font-size="11.00" fill="#000000">customer_id</text>
<polygon fill="#ffffff" stroke="transparent" points="404,-400.9318 404,-422.9318 496,-422.9318 496,-400.9318 404,-400.9318"/>
<polygon fill="none" stroke="#000000" points="404,-400.9318 404,-422.9318 496,-422.9318 496,-400.9318 404,-400.9318"/>
<image xlink:href="../../images/foreignKeys.png" width="11px" height="12px" preserveAspectRatio="xMinYMin meet" x="409" y="-417.932"/>
<text text-anchor="start" x="424" y="-408.0318" font-family="Helvetica,sans-Serif" font-size="11.00" fill="#000000">store_id</text>
<polygon fill="#ffffff" stroke="transparent" points="404,-378.9318 404,-400.9318 496,-400.9318 496,-378.9318 404,-378.9318"/>
<polygon fill="none" stroke="#000000" points="404,-378.9318 404,-400.9318 496,-400.9318 496,-378.9318 404,-378.9318"/>
<text text-anchor="start" x="424" y="-386.0318" font-family="Helvetica,sans-Serif" font-size="11.00" fill="#000000">last_name</text>
<polygon fill="#ffffff" stroke="transparent" points="404,-356.9318 404,-378.9318 496,-378.9318 496,-356.9318 404,-356.9318"/>
<polygon fill="none" stroke="#000000" points="404,-356.9318 404,-378.9318 496,-378.9318 496,-356.9318 404,-356.9318"/>
<image xlink:href="../../images/foreignKeys.png" width="11px" height="12px" preserveAspectRatio="xMinYMin meet" x="409" y="-373.932"/>
<text text-anchor="start" x="424" y="-364.0318" font-family="Helvetica,sans-Serif" font-size="11.00" fill="#000000">address_id</text>
<polygon fill="none" stroke="#000000" points="404,-337.9318 404,-356.9318 496,-356.9318 496,-337.9318 404,-337.9318"/>
<text text-anchor="start" x="407" y="-344.0318" font-family="Helvetica,sans-Serif" font-size="11.00" fill="#000000">...</text>
<polygon fill="#ffffff" stroke="transparent" points="404,-318.9318 404,-337.9318 431,-337.9318 431,-318.9318 404,-318.9318"/>
<polygon fill="none" stroke="#000000" points="404,-318.9318 404,-337.9318 431,-337.9318 431,-318.9318 404,-318.9318"/>
<text text-anchor="start" x="407" y="-325.0318" font-family="Helvetica,sans-Serif" font-size="11.00" fill="#000000">&lt; 2</text>
<polygon fill="#ffffff" stroke="transparent" points="431,-318.9318 431,-337.9318 472,-337.9318 472,-318.9318 431,-318.9318"/>
<polygon fill="none" stroke="#000000" points="431,-318.9318 431,-337.9318 472,-337.9318 472,-318.9318 431,-318.9318"/>
<text text-anchor="start" x="436.6105" y="-325.0318" font-family="Helvetica,sans-Serif" font-size="11.00" fill="#000000">0 rows</text>
<polygon fill="#ffffff" stroke="transparent" points="472,-318.9318 472,-337.9318 496,-337.9318 496,-318.9318 472,-318.9318"/>
<polygon fill="none" stroke="#000000" points="472,-318.9318 472,-337.9318 496,-337.9318 496,-318.9318 472,-318.9318"/>
<text text-anchor="start" x="477.4053" y="-325.0318" font-family="Helvetica,sans-Serif" font-size="11.00" fill="#000000">8 &gt;</text>
</a>
</g>
</g>
<!-- address -->
<g id="node2" class="node">
<title>address</title>
<g id="a_node2"><a xlink:href="../../tables/address.html" xlink:title="address" target="_top">
<polygon fill="#ffffff" stroke="transparent" points="8,-267.4318 8,-328.4318 90,-328.4318 90,-267.4318 8,-267.4318"/>
<polygon fill="#f5f5f5" stroke="transparent" points="8,-304.9318 8,-327.9318 90,-327.9318 90,-304.9318 8,-304.9318"/>
<polygon fill="none" stroke="#000000" points="8,-304.9318 8,-327.9318 90,-327.9318 90,-304.9318 8,-304.9318"/>
<text text-anchor="start" x="12.9393" y="-314.0318" font-family="Helvetica,sans-Serif" font-weight="bold" font-size="11.00" fill="#000000">address</text>
<text text-anchor="start" x="55.5219" y="-313.0318" font-family="Helvetica,sans-Serif" font-size="11.00" fill="#000000">[table]</text>
<polygon fill="none" stroke="#000000" points="8,-285.9318 8,-304.9318 90,-304.9318 90,-285.9318 8,-285.9318"/>
<text text-anchor="start" x="11" y="-292.0318" font-family="Helvetica,sans-Serif" font-size="11.00" fill="#000000">...</text>
<polygon fill="#ffffff" stroke="transparent" points="8,-266.9318 8,-285.9318 30,-285.9318 30,-266.9318 8,-266.9318"/>
<polygon fill="none" stroke="#000000" points="8,-266.9318 8,-285.9318 30,-285.9318 30,-266.9318 8,-266.9318"/>
<text text-anchor="start" x="11" y="-273.0318" font-family="Helvetica,sans-Serif" font-size="11.00" fill="#000000">&lt; 1</text>
<polygon fill="#ffffff" stroke="transparent" points="30,-266.9318 30,-285.9318 68,-285.9318 68,-266.9318 30,-266.9318"/>
<polygon fill="none" stroke="#000000" points="30,-266.9318 30,-285.9318 68,-285.9318 68,-266.9318 30,-266.9318"/>
<text text-anchor="start" x="32.8053" y="-273.0318" font-family="Helvetica,sans-Serif" font-size="11.00" fill="#000000">0 rows</text>
<polygon fill="#ffffff" stroke="transparent" points="68,-266.9318 68,-285.9318 90,-285.9318 90,-266.9318 68,-266.9318"/>
<polygon fill="none" stroke="#000000" points="68,-266.9318 68,-285.9318 90,-285.9318 90,-266.9318 68,-266.9318"/>
<text text-anchor="start" x="71.4053" y="-273.0318" font-family="Helvetica,sans-Serif" font-size="11.00" fill="#000000">3 &gt;</text>
</a>
</g>
</g>
<!-- customer&#45;&gt;address -->
<g id="edge1" class="edge">
<title>customer:w&#45;&gt;address:e</title>
<path fill="none" stroke="#000000" d="M389.4357,-368.1951C278.7301,-372.2085 231.8962,-419.9437 131,-361.9318 100.7351,-344.5305 124.9108,-294.9318 90,-294.9318"/>
<polygon fill="#000000" stroke="#000000" points="396.0013,-368.0765 404.0651,-371.5312 400.0007,-368.0041 404,-367.9318 404,-367.9318 404,-367.9318 400.0007,-368.0041 403.9349,-364.3324 396.0013,-368.0765 396.0013,-368.0765"/>
<ellipse fill="none" stroke="#000000" cx="392.8018" cy="-368.1343" rx="3.2" ry="3.2"/>
</g>
<!-- store -->
<g id="node3" class="node">
<title>store</title>
<g id="a_node3"><a xlink:href="../../tables/store.html" xlink:title="store" target="_top">
<polygon fill="#ffffff" stroke="transparent" points="275,-202.4318 275,-263.4318 355,-263.4318 355,-202.4318 275,-202.4318"/>
<polygon fill="#f5f5f5" stroke="transparent" points="275,-239.9318 275,-262.9318 355,-262.9318 355,-239.9318 275,-239.9318"/>
<polygon fill="none" stroke="#000000" points="275,-239.9318 275,-262.9318 355,-262.9318 355,-239.9318 275,-239.9318"/>
<text text-anchor="start" x="280" y="-249.0318" font-family="Helvetica,sans-Serif" font-weight="bold" font-size="11.00" fill="#000000">store</text>
<text text-anchor="start" x="320.0437" y="-248.0318" font-family="Helvetica,sans-Serif" font-size="11.00" fill="#000000">[table]</text>
<polygon fill="none" stroke="#000000" points="275,-220.9318 275,-239.9318 355,-239.9318 355,-220.9318 275,-220.9318"/>
<text text-anchor="start" x="278" y="-227.0318" font-family="Helvetica,sans-Serif" font-size="11.00" fill="#000000">...</text>
<polygon fill="#ffffff" stroke="transparent" points="275,-201.9318 275,-220.9318 296,-220.9318 296,-201.9318 275,-201.9318"/>
<polygon fill="none" stroke="#000000" points="275,-201.9318 275,-220.9318 296,-220.9318 296,-201.9318 275,-201.9318"/>
<text text-anchor="start" x="277.7027" y="-208.0318" font-family="Helvetica,sans-Serif" font-size="11.00" fill="#000000">&lt; 2</text>
<polygon fill="#ffffff" stroke="transparent" points="296,-201.9318 296,-220.9318 334,-220.9318 334,-201.9318 296,-201.9318"/>
<polygon fill="none" stroke="#000000" points="296,-201.9318 296,-220.9318 334,-220.9318 334,-201.9318 296,-201.9318"/>
<text text-anchor="start" x="298.8053" y="-208.0318" font-family="Helvetica,sans-Serif" font-size="11.00" fill="#000000">0 rows</text>
<polygon fill="#ffffff" stroke="transparent" points="334,-201.9318 334,-220.9318 355,-220.9318 355,-201.9318 334,-201.9318"/>
<polygon fill="none" stroke="#000000" points="334,-201.9318 334,-220.9318 355,-220.9318 355,-201.9318 334,-201.9318"/>
<text text-anchor="start" x="336.7027" y="-208.0318" font-family="Helvetica,sans-Serif" font-size="11.00" fill="#000000">3 &gt;</text>
</a>
</g>
</g>
<!-- customer&#45;&gt;store -->
<g id="edge2" class="edge">
<title>customer:w&#45;&gt;store:e</title>
<path fill="none" stroke="#000000" d="M389.5277,-409.4966C335.4918,-387.8995 433.0428,-229.9318 355,-229.9318"/>
<polygon fill="#000000" stroke="#000000" points="396.1109,-410.6043 403.4026,-415.4819 400.0555,-411.2681 404,-411.9318 404,-411.9318 404,-411.9318 400.0555,-411.2681 404.5974,-408.3817 396.1109,-410.6043 396.1109,-410.6043"/>
<ellipse fill="none" stroke="#000000" cx="392.9553" cy="-410.0733" rx="3.2" ry="3.2"/>
</g>
<!-- store&#45;&gt;address -->
<g id="edge36" class="edge">
<title>store:w&#45;&gt;address:e</title>
<path fill="none" stroke="#000000" d="M260.695,-226.9496C252.3934,-223.0489 247.2159,-216.4192 234,-213.9318 189.0121,-205.4646 170.0001,-189.961 131,-213.9318 96.6249,-235.06 130.3491,-294.9318 90,-294.9318"/>
<polygon fill="#000000" stroke="#000000" points="267.1684,-228.2991 274.2653,-233.456 271.0842,-229.1154 275,-229.9318 275,-229.9318 275,-229.9318 271.0842,-229.1154 275.7347,-226.4076 267.1684,-228.2991 267.1684,-228.2991"/>
<ellipse fill="none" stroke="#000000" cx="264.0357" cy="-227.646" rx="3.2" ry="3.2"/>
</g>
<!-- staff -->
<g id="node7" class="node">
<title>staff</title>
<g id="a_node7"><a xlink:href="../../tables/staff.html" xlink:title="staff" target="_top">
<polygon fill="#ffffff" stroke="transparent" points="139,-224.4318 139,-351.4318 226,-351.4318 226,-224.4318 139,-224.4318"/>
<polygon fill="#f5f5f5" stroke="transparent" points="139.5,-327.9318 139.5,-350.9318 226.5,-350.9318 226.5,-327.9318 139.5,-327.9318"/>
<polygon fill="none" stroke="#000000" points="139.5,-327.9318 139.5,-350.9318 226.5,-350.9318 226.5,-327.9318 139.5,-327.9318"/>
<text text-anchor="start" x="144.5" y="-337.0318" font-family="Helvetica,sans-Serif" font-weight="bold" font-size="11.00" fill="#000000">staff</text>
<text text-anchor="start" x="191.5437" y="-336.0318" font-family="Helvetica,sans-Serif" font-size="11.00" fill="#000000">[table]</text>
<polygon fill="none" stroke="#000000" points="139.5,-305.9318 139.5,-327.9318 226.5,-327.9318 226.5,-305.9318 139.5,-305.9318"/>
<image xlink:href="../../images/primaryKeys.png" width="11px" height="12px" preserveAspectRatio="xMinYMin meet" x="144.5" y="-322.932"/>
<text text-anchor="start" x="159.5" y="-313.0318" font-family="Helvetica,sans-Serif" font-size="11.00" fill="#000000">staff_id</text>
<polygon fill="none" stroke="#000000" points="139.5,-283.9318 139.5,-305.9318 226.5,-305.9318 226.5,-283.9318 139.5,-283.9318"/>
<image xlink:href="../../images/foreignKeys.png" width="11px" height="12px" preserveAspectRatio="xMinYMin meet" x="144.5" y="-300.932"/>
<text text-anchor="start" x="159.5" y="-291.0318" font-family="Helvetica,sans-Serif" font-size="11.00" fill="#000000">address_id</text>
<polygon fill="none" stroke="#000000" points="139.5,-261.9318 139.5,-283.9318 226.5,-283.9318 226.5,-261.9318 139.5,-261.9318"/>
<image xlink:href="../../images/foreignKeys.png" width="11px" height="12px" preserveAspectRatio="xMinYMin meet" x="144.5" y="-278.932"/>
<text text-anchor="start" x="159.5" y="-269.0318" font-family="Helvetica,sans-Serif" font-size="11.00" fill="#000000">store_id</text>
<polygon fill="none" stroke="#000000" points="139.5,-242.9318 139.5,-261.9318 226.5,-261.9318 226.5,-242.9318 139.5,-242.9318"/>
<text text-anchor="start" x="142.5" y="-249.0318" font-family="Helvetica,sans-Serif" font-size="11.00" fill="#000000">...</text>
<polygon fill="#ffffff" stroke="transparent" points="139.5,-223.9318 139.5,-242.9318 163.5,-242.9318 163.5,-223.9318 139.5,-223.9318"/>
<polygon fill="none" stroke="#000000" points="139.5,-223.9318 139.5,-242.9318 163.5,-242.9318 163.5,-223.9318 139.5,-223.9318"/>
<text text-anchor="start" x="142.5" y="-230.0318" font-family="Helvetica,sans-Serif" font-size="11.00" fill="#000000">&lt; 2</text>
<polygon fill="#ffffff" stroke="transparent" points="163.5,-223.9318 163.5,-242.9318 203.5,-242.9318 203.5,-223.9318 163.5,-223.9318"/>
<polygon fill="none" stroke="#000000" points="163.5,-223.9318 163.5,-242.9318 203.5,-242.9318 203.5,-223.9318 163.5,-223.9318"/>
<text text-anchor="start" x="168.1105" y="-230.0318" font-family="Helvetica,sans-Serif" font-size="11.00" fill="#000000">0 rows</text>
<polygon fill="#ffffff" stroke="transparent" points="203.5,-223.9318 203.5,-242.9318 226.5,-242.9318 226.5,-223.9318 203.5,-223.9318"/>
<polygon fill="none" stroke="#000000" points="203.5,-223.9318 203.5,-242.9318 226.5,-242.9318 226.5,-223.9318 203.5,-223.9318"/>
<text text-anchor="start" x="207.9053" y="-230.0318" font-family="Helvetica,sans-Serif" font-size="11.00" fill="#000000">9 &gt;</text>
</a>
</g>
</g>
<!-- store&#45;&gt;staff -->
<g id="edge37" class="edge">
<title>store:w&#45;&gt;staff:e</title>
<path fill="none" stroke="#000000" d="M264.6333,-232.0824C237.4971,-245.4797 266.6189,-316.9318 226.5,-316.9318"/>
<polygon fill="#000000" stroke="#000000" points="273.4041,-226.1777 275.0292,-234.0109 273.4626,-234.3359 271.8375,-226.5027 273.4041,-226.1777"/>
<polyline fill="none" stroke="#000000" points="275,-229.9318 271.0834,-230.7443 "/>
<ellipse fill="none" stroke="#000000" cx="267.9501" cy="-231.3944" rx="3.2" ry="3.2"/>
</g>
<!-- inventory -->
<g id="node4" class="node">
<title>inventory</title>
<g id="a_node4"><a xlink:href="../../tables/inventory.html" xlink:title="inventory" target="_top">
<polygon fill="#ffffff" stroke="transparent" points="406.5,-237.4318 406.5,-298.4318 493.5,-298.4318 493.5,-237.4318 406.5,-237.4318"/>
<polygon fill="#f5f5f5" stroke="transparent" points="407,-274.9318 407,-297.9318 494,-297.9318 494,-274.9318 407,-274.9318"/>
<polygon fill="none" stroke="#000000" points="407,-274.9318 407,-297.9318 494,-297.9318 494,-274.9318 407,-274.9318"/>
<text text-anchor="start" x="411.6904" y="-284.0318" font-family="Helvetica,sans-Serif" font-weight="bold" font-size="11.00" fill="#000000">inventory</text>
<text text-anchor="start" x="459.5219" y="-283.0318" font-family="Helvetica,sans-Serif" font-size="11.00" fill="#000000">[table]</text>
<polygon fill="none" stroke="#000000" points="407,-255.9318 407,-274.9318 494,-274.9318 494,-255.9318 407,-255.9318"/>
<text text-anchor="start" x="410" y="-262.0318" font-family="Helvetica,sans-Serif" font-size="11.00" fill="#000000">...</text>
<polygon fill="#ffffff" stroke="transparent" points="407,-236.9318 407,-255.9318 431,-255.9318 431,-236.9318 407,-236.9318"/>
<polygon fill="none" stroke="#000000" points="407,-236.9318 407,-255.9318 431,-255.9318 431,-236.9318 407,-236.9318"/>
<text text-anchor="start" x="410" y="-243.0318" font-family="Helvetica,sans-Serif" font-size="11.00" fill="#000000">&lt; 2</text>
<polygon fill="#ffffff" stroke="transparent" points="431,-236.9318 431,-255.9318 471,-255.9318 471,-236.9318 431,-236.9318"/>
<polygon fill="none" stroke="#000000" points="431,-236.9318 431,-255.9318 471,-255.9318 471,-236.9318 431,-236.9318"/>
<text text-anchor="start" x="435.6105" y="-243.0318" font-family="Helvetica,sans-Serif" font-size="11.00" fill="#000000">0 rows</text>
<polygon fill="#ffffff" stroke="transparent" points="471,-236.9318 471,-255.9318 494,-255.9318 494,-236.9318 471,-236.9318"/>
<polygon fill="none" stroke="#000000" points="471,-236.9318 471,-255.9318 494,-255.9318 494,-236.9318 471,-236.9318"/>
<text text-anchor="start" x="475.4053" y="-243.0318" font-family="Helvetica,sans-Serif" font-size="11.00" fill="#000000">1 &gt;</text>
</a>
</g>
</g>
<!-- inventory&#45;&gt;store -->
<g id="edge3" class="edge">
<title>inventory:w&#45;&gt;store:e</title>
<path fill="none" stroke="#000000" d="M392.9929,-260.9169C379.3047,-251.7235 376.9821,-229.9318 355,-229.9318"/>
<polygon fill="#000000" stroke="#000000" points="399.3097,-262.7274 406.008,-268.3924 403.1548,-263.8296 407,-264.9318 407,-264.9318 407,-264.9318 403.1548,-263.8296 407.992,-261.4712 399.3097,-262.7274 399.3097,-262.7274"/>
<ellipse fill="none" stroke="#000000" cx="396.2336" cy="-261.8457" rx="3.2" ry="3.2"/>
</g>
<!-- payment -->
<g id="node5" class="node">
<title>payment</title>
<g id="a_node5"><a xlink:href="../../tables/payment.html" xlink:title="payment" target="_top">
<polygon fill="#ffffff" stroke="transparent" points="686,-329.4318 686,-478.4318 787,-478.4318 787,-329.4318 686,-329.4318"/>
<polygon fill="#f5f5f5" stroke="transparent" points="686.5,-454.9318 686.5,-477.9318 787.5,-477.9318 787.5,-454.9318 686.5,-454.9318"/>
<polygon fill="none" stroke="#000000" points="686.5,-454.9318 686.5,-477.9318 787.5,-477.9318 787.5,-454.9318 686.5,-454.9318"/>
<text text-anchor="start" x="691.5" y="-464.0318" font-family="Helvetica,sans-Serif" font-weight="bold" font-size="11.00" fill="#000000">payment</text>
<text text-anchor="start" x="752.5437" y="-463.0318" font-family="Helvetica,sans-Serif" font-size="11.00" fill="#000000">[table]</text>
<polygon fill="none" stroke="#000000" points="686.5,-432.9318 686.5,-454.9318 787.5,-454.9318 787.5,-432.9318 686.5,-432.9318"/>
<image xlink:href="../../images/primaryKeys.png" width="11px" height="12px" preserveAspectRatio="xMinYMin meet" x="691.5" y="-449.932"/>
<text text-anchor="start" x="706.5" y="-440.0318" font-family="Helvetica,sans-Serif" font-size="11.00" fill="#000000">payment_id</text>
<polygon fill="#ffffff" stroke="transparent" points="686.5,-410.9318 686.5,-432.9318 787.5,-432.9318 787.5,-410.9318 686.5,-410.9318"/>
<polygon fill="none" stroke="#000000" points="686.5,-410.9318 686.5,-432.9318 787.5,-432.9318 787.5,-410.9318 686.5,-410.9318"/>
<image xlink:href="../../images/foreignKeys.png" width="11px" height="12px" preserveAspectRatio="xMinYMin meet" x="691.5" y="-427.932"/>
<text text-anchor="start" x="706.5" y="-418.0318" font-family="Helvetica,sans-Serif" font-size="11.00" fill="#000000">customer_id</text>
<polygon fill="#ffffff" stroke="transparent" points="686.5,-388.9318 686.5,-410.9318 787.5,-410.9318 787.5,-388.9318 686.5,-388.9318"/>
<polygon fill="none" stroke="#000000" points="686.5,-388.9318 686.5,-410.9318 787.5,-410.9318 787.5,-388.9318 686.5,-388.9318"/>
<image xlink:href="../../images/foreignKeys.png" width="11px" height="12px" preserveAspectRatio="xMinYMin meet" x="691.5" y="-405.932"/>
<text text-anchor="start" x="706.5" y="-396.0318" font-family="Helvetica,sans-Serif" font-size="11.00" fill="#000000">staff_id</text>
<polygon fill="none" stroke="#000000" points="686.5,-366.9318 686.5,-388.9318 787.5,-388.9318 787.5,-366.9318 686.5,-366.9318"/>
<image xlink:href="../../images/foreignKeys.png" width="11px" height="12px" preserveAspectRatio="xMinYMin meet" x="691.5" y="-383.932"/>
<text text-anchor="start" x="706.5" y="-374.0318" font-family="Helvetica,sans-Serif" font-size="11.00" fill="#000000">rental_id</text>
<polygon fill="none" stroke="#000000" points="686.5,-347.9318 686.5,-366.9318 787.5,-366.9318 787.5,-347.9318 686.5,-347.9318"/>
<text text-anchor="start" x="689.5" y="-354.0318" font-family="Helvetica,sans-Serif" font-size="11.00" fill="#000000">...</text>
<polygon fill="#ffffff" stroke="transparent" points="686.5,-328.9318 686.5,-347.9318 717.5,-347.9318 717.5,-328.9318 686.5,-328.9318"/>
<polygon fill="none" stroke="#000000" points="686.5,-328.9318 686.5,-347.9318 717.5,-347.9318 717.5,-328.9318 686.5,-328.9318"/>
<text text-anchor="start" x="689.5" y="-335.0318" font-family="Helvetica,sans-Serif" font-size="11.00" fill="#000000">&lt; 3</text>
<polygon fill="#ffffff" stroke="transparent" points="717.5,-328.9318 717.5,-347.9318 760.5,-347.9318 760.5,-328.9318 717.5,-328.9318"/>
<polygon fill="none" stroke="#000000" points="717.5,-328.9318 717.5,-347.9318 760.5,-347.9318 760.5,-328.9318 717.5,-328.9318"/>
<text text-anchor="start" x="725.1105" y="-335.0318" font-family="Helvetica,sans-Serif" font-size="11.00" fill="#000000">0 rows</text>
<polygon fill="#ffffff" stroke="transparent" points="760.5,-328.9318 760.5,-347.9318 787.5,-347.9318 787.5,-328.9318 760.5,-328.9318"/>
<polygon fill="none" stroke="#000000" points="760.5,-328.9318 760.5,-347.9318 787.5,-347.9318 787.5,-328.9318 760.5,-328.9318"/>
<text text-anchor="start" x="768.9053" y="-335.0318" font-family="Helvetica,sans-Serif" font-size="11.00" fill="#000000">6 &gt;</text>
</a>
</g>
</g>
<!-- payment&#45;&gt;customer -->
<g id="edge4" class="edge">
<title>payment:w&#45;&gt;customer:e</title>
<path fill="none" stroke="#000000" d="M671.7661,-422.0585C598.9084,-423.3409 575.698,-433.9318 496,-433.9318"/>
<polygon fill="#000000" stroke="#000000" points="678.5003,-422.0006 686.531,-425.5317 682.5001,-421.9662 686.5,-421.9318 686.5,-421.9318 686.5,-421.9318 682.5001,-421.9662 686.469,-418.3319 678.5003,-422.0006 678.5003,-422.0006"/>
<ellipse fill="none" stroke="#000000" cx="675.3004" cy="-422.0281" rx="3.2" ry="3.2"/>
</g>
<!-- rental -->
<g id="node6" class="node">
<title>rental</title>
<g id="a_node6"><a xlink:href="../../tables/rental.html" xlink:title="rental" target="_top">
<polygon fill="#ffffff" stroke="transparent" points="545,-241.4318 545,-412.4318 637,-412.4318 637,-241.4318 545,-241.4318"/>
<polygon fill="#f5f5f5" stroke="transparent" points="545,-388.9318 545,-411.9318 637,-411.9318 637,-388.9318 545,-388.9318"/>
<polygon fill="none" stroke="#000000" points="545,-388.9318 545,-411.9318 637,-411.9318 637,-388.9318 545,-388.9318"/>
<text text-anchor="start" x="550" y="-398.0318" font-family="Helvetica,sans-Serif" font-weight="bold" font-size="11.00" fill="#000000">rental</text>
<text text-anchor="start" x="602.0437" y="-397.0318" font-family="Helvetica,sans-Serif" font-size="11.00" fill="#000000">[table]</text>
<polygon fill="none" stroke="#000000" points="545,-366.9318 545,-388.9318 637,-388.9318 637,-366.9318 545,-366.9318"/>
<image xlink:href="../../images/primaryKeys.png" width="11px" height="12px" preserveAspectRatio="xMinYMin meet" x="550" y="-383.932"/>
<text text-anchor="start" x="565" y="-374.0318" font-family="Helvetica,sans-Serif" font-size="11.00" fill="#000000">rental_id</text>
<polygon fill="#ffffff" stroke="transparent" points="545,-344.9318 545,-366.9318 637,-366.9318 637,-344.9318 545,-344.9318"/>
<polygon fill="none" stroke="#000000" points="545,-344.9318 545,-366.9318 637,-366.9318 637,-344.9318 545,-344.9318"/>
<text text-anchor="start" x="565" y="-352.0318" font-family="Helvetica,sans-Serif" font-size="11.00" fill="#000000">rental_date</text>
<polygon fill="#ffffff" stroke="transparent" points="545,-322.9318 545,-344.9318 637,-344.9318 637,-322.9318 545,-322.9318"/>
<polygon fill="none" stroke="#000000" points="545,-322.9318 545,-344.9318 637,-344.9318 637,-322.9318 545,-322.9318"/>
<image xlink:href="../../images/foreignKeys.png" width="11px" height="12px" preserveAspectRatio="xMinYMin meet" x="550" y="-339.932"/>
<text text-anchor="start" x="565" y="-330.0318" font-family="Helvetica,sans-Serif" font-size="11.00" fill="#000000">inventory_id</text>
<polygon fill="#ffffff" stroke="transparent" points="545,-300.9318 545,-322.9318 637,-322.9318 637,-300.9318 545,-300.9318"/>
<polygon fill="none" stroke="#000000" points="545,-300.9318 545,-322.9318 637,-322.9318 637,-300.9318 545,-300.9318"/>
<image xlink:href="../../images/foreignKeys.png" width="11px" height="12px" preserveAspectRatio="xMinYMin meet" x="550" y="-317.932"/>
<text text-anchor="start" x="565" y="-308.0318" font-family="Helvetica,sans-Serif" font-size="11.00" fill="#000000">customer_id</text>
<polygon fill="none" stroke="#000000" points="545,-278.9318 545,-300.9318 637,-300.9318 637,-278.9318 545,-278.9318"/>
<image xlink:href="../../images/foreignKeys.png" width="11px" height="12px" preserveAspectRatio="xMinYMin meet" x="550" y="-295.932"/>
<text text-anchor="start" x="565" y="-286.0318" font-family="Helvetica,sans-Serif" font-size="11.00" fill="#000000">staff_id</text>
<polygon fill="none" stroke="#000000" points="545,-259.9318 545,-278.9318 637,-278.9318 637,-259.9318 545,-259.9318"/>
<text text-anchor="start" x="548" y="-266.0318" font-family="Helvetica,sans-Serif" font-size="11.00" fill="#000000">...</text>
<polygon fill="#ffffff" stroke="transparent" points="545,-240.9318 545,-259.9318 572,-259.9318 572,-240.9318 545,-240.9318"/>
<polygon fill="none" stroke="#000000" points="545,-240.9318 545,-259.9318 572,-259.9318 572,-240.9318 545,-240.9318"/>
<text text-anchor="start" x="548" y="-247.0318" font-family="Helvetica,sans-Serif" font-size="11.00" fill="#000000">&lt; 3</text>
<polygon fill="#ffffff" stroke="transparent" points="572,-240.9318 572,-259.9318 613,-259.9318 613,-240.9318 572,-240.9318"/>
<polygon fill="none" stroke="#000000" points="572,-240.9318 572,-259.9318 613,-259.9318 613,-240.9318 572,-240.9318"/>
<text text-anchor="start" x="577.6105" y="-247.0318" font-family="Helvetica,sans-Serif" font-size="11.00" fill="#000000">0 rows</text>
<polygon fill="#ffffff" stroke="transparent" points="613,-240.9318 613,-259.9318 637,-259.9318 637,-240.9318 613,-240.9318"/>
<polygon fill="none" stroke="#000000" points="613,-240.9318 613,-259.9318 637,-259.9318 637,-240.9318 613,-240.9318"/>
<text text-anchor="start" x="618.4053" y="-247.0318" font-family="Helvetica,sans-Serif" font-size="11.00" fill="#000000">7 &gt;</text>
</a>
</g>
</g>
<!-- payment&#45;&gt;rental -->
<g id="edge5" class="edge">
<title>payment:w&#45;&gt;rental:e</title>
<path fill="none" stroke="#000000" d="M671.8428,-377.9318C660.4139,-377.9318 653.1563,-377.9318 637,-377.9318"/>
<polygon fill="#000000" stroke="#000000" points="678.5,-377.9319 686.5,-381.5318 682.5,-377.9318 686.5,-377.9318 686.5,-377.9318 686.5,-377.9318 682.5,-377.9318 686.5,-374.3318 678.5,-377.9319 678.5,-377.9319"/>
<ellipse fill="none" stroke="#000000" cx="675.3" cy="-377.9319" rx="3.2" ry="3.2"/>
</g>
<!-- payment&#45;&gt;staff -->
<g id="edge6" class="edge">
<title>payment:w&#45;&gt;staff:e</title>
<path fill="none" stroke="#000000" d="M672.2558,-402.9785C663.1511,-407.5989 658.5508,-416.5181 645,-422.9318 584.0537,-451.7782 570.2272,-466.2617 504,-478.9318 456.855,-487.9513 440.5511,-496.7979 396,-478.9318 299.2804,-440.1449 330.7071,-316.9318 226.5,-316.9318"/>
<polygon fill="#000000" stroke="#000000" points="678.6769,-401.6051 687.253,-403.4522 682.5885,-400.7685 686.5,-399.9318 686.5,-399.9318 686.5,-399.9318 682.5885,-400.7685 685.747,-396.4114 678.6769,-401.6051 678.6769,-401.6051"/>
<ellipse fill="none" stroke="#000000" cx="675.5477" cy="-402.2744" rx="3.2" ry="3.2"/>
</g>
<!-- rental&#45;&gt;customer -->
<g id="edge31" class="edge">
<title>rental:w&#45;&gt;customer:e</title>
<path fill="none" stroke="#000000" d="M530.84,-315.4515C499.05,-335.4546 548.4977,-433.9318 496,-433.9318"/>
<polygon fill="#000000" stroke="#000000" points="537.2362,-313.8616 545.8684,-315.4255 541.1181,-312.8967 545,-311.9318 545,-311.9318 545,-311.9318 541.1181,-312.8967 544.1316,-308.4381 537.2362,-313.8616 537.2362,-313.8616"/>
<ellipse fill="none" stroke="#000000" cx="534.1307" cy="-314.6336" rx="3.2" ry="3.2"/>
</g>
<!-- rental&#45;&gt;inventory -->
<g id="edge32" class="edge">
<title>rental:w&#45;&gt;inventory:e</title>
<path fill="none" stroke="#000000" d="M531.2846,-329.4045C513.2142,-314.0539 526.1758,-264.9318 494,-264.9318"/>
<polygon fill="#000000" stroke="#000000" points="537.4032,-331.4241 543.8716,-337.3504 541.2016,-332.678 545,-333.9318 545,-333.9318 545,-333.9318 541.2016,-332.678 546.1284,-330.5132 537.4032,-331.4241 537.4032,-331.4241"/>
<ellipse fill="none" stroke="#000000" cx="534.3644" cy="-330.4211" rx="3.2" ry="3.2"/>
</g>
<!-- rental&#45;&gt;staff -->
<g id="edge33" class="edge">
<title>rental:w&#45;&gt;staff:e</title>
<path fill="none" stroke="#000000" d="M530.9482,-285.1274C518.1473,-272.7318 527.631,-239.7475 504,-226.9318 461.8056,-204.0487 438.5908,-204.7953 396,-226.9318 373.3527,-238.7027 383.595,-258.8553 363,-273.9318 311.6766,-311.5029 290.1057,-316.9318 226.5,-316.9318"/>
<polygon fill="#000000" stroke="#000000" points="537.4302,-287.3436 543.8353,-293.3382 541.2151,-288.6377 545,-289.9318 545,-289.9318 545,-289.9318 541.2151,-288.6377 546.1647,-286.5254 537.4302,-287.3436 537.4302,-287.3436"/>
<ellipse fill="none" stroke="#000000" cx="534.4023" cy="-286.3084" rx="3.2" ry="3.2"/>
</g>
<!-- staff&#45;&gt;address -->
<g id="edge34" class="edge">
<title>staff:w&#45;&gt;address:e</title>
<path fill="none" stroke="#000000" d="M124.8428,-294.9318C113.4139,-294.9318 106.1563,-294.9318 90,-294.9318"/>
<polygon fill="#000000" stroke="#000000" points="131.5,-294.9319 139.5,-298.5318 135.5,-294.9318 139.5,-294.9318 139.5,-294.9318 139.5,-294.9318 135.5,-294.9318 139.5,-291.3318 131.5,-294.9319 131.5,-294.9319"/>
<ellipse fill="none" stroke="#000000" cx="128.3" cy="-294.9319" rx="3.2" ry="3.2"/>
</g>
<!-- staff&#45;&gt;store -->
<g id="edge35" class="edge">
<title>staff:w&#45;&gt;store:e</title>
<path fill="none" stroke="#000000" d="M126.6907,-265.7886C121.1913,-254.6154 128.3806,-232.9864 139.5,-220.4318 153.5262,-204.5952 213.3302,-213.4364 234,-208.9318 286.742,-197.4377 316.8305,-160.2623 355,-198.4318 364.8995,-208.3313 369,-229.9318 355,-229.9318"/>
<polygon fill="#000000" stroke="#000000" points="132.513,-269.0354 137.7466,-276.076 136.0065,-270.9836 139.5,-272.9318 139.5,-272.9318 139.5,-272.9318 136.0065,-270.9836 141.2534,-269.7877 132.513,-269.0354 132.513,-269.0354"/>
<ellipse fill="none" stroke="#000000" cx="129.7182" cy="-267.4768" rx="3.2" ry="3.2"/>
</g>
<!-- payment_p2007_01 -->
<g id="node8" class="node">
<title>payment_p2007_01</title>
<g id="a_node8"><a xlink:href="../../tables/payment_p2007_01.html" xlink:title="payment_p2007_01" target="_top">
<polygon fill="#ffffff" stroke="transparent" points="875.5,-611.4318 875.5,-672.4318 1015.5,-672.4318 1015.5,-611.4318 875.5,-611.4318"/>
<polygon fill="#f5f5f5" stroke="transparent" points="875.5,-648.9318 875.5,-671.9318 1015.5,-671.9318 1015.5,-648.9318 875.5,-648.9318"/>
<polygon fill="none" stroke="#000000" points="875.5,-648.9318 875.5,-671.9318 1015.5,-671.9318 1015.5,-648.9318 875.5,-648.9318"/>
<text text-anchor="start" x="880.3938" y="-658.0318" font-family="Helvetica,sans-Serif" font-weight="bold" font-size="11.00" fill="#000000">payment_p2007_01</text>
<text text-anchor="start" x="981.0219" y="-657.0318" font-family="Helvetica,sans-Serif" font-size="11.00" fill="#000000">[table]</text>
<polygon fill="none" stroke="#000000" points="875.5,-629.9318 875.5,-648.9318 1015.5,-648.9318 1015.5,-629.9318 875.5,-629.9318"/>
<text text-anchor="start" x="878.5" y="-636.0318" font-family="Helvetica,sans-Serif" font-size="11.00" fill="#000000">...</text>
<polygon fill="#ffffff" stroke="transparent" points="875.5,-610.9318 875.5,-629.9318 930.5,-629.9318 930.5,-610.9318 875.5,-610.9318"/>
<polygon fill="none" stroke="#000000" points="875.5,-610.9318 875.5,-629.9318 930.5,-629.9318 930.5,-610.9318 875.5,-610.9318"/>
<text text-anchor="start" x="878.5" y="-617.0318" font-family="Helvetica,sans-Serif" font-size="11.00" fill="#000000">&lt; 4</text>
<polygon fill="#ffffff" stroke="transparent" points="930.5,-610.9318 930.5,-629.9318 985.5,-629.9318 985.5,-610.9318 930.5,-610.9318"/>
<polygon fill="none" stroke="#000000" points="930.5,-610.9318 930.5,-629.9318 985.5,-629.9318 985.5,-610.9318 930.5,-610.9318"/>
<text text-anchor="start" x="950.1105" y="-617.0318" font-family="Helvetica,sans-Serif" font-size="11.00" fill="#000000">0 rows</text>
<polygon fill="#ffffff" stroke="transparent" points="985.5,-610.9318 985.5,-629.9318 1015.5,-629.9318 1015.5,-610.9318 985.5,-610.9318"/>
<polygon fill="none" stroke="#000000" points="985.5,-610.9318 985.5,-629.9318 1015.5,-629.9318 1015.5,-610.9318 985.5,-610.9318"/>
<text text-anchor="start" x="1006.3862" y="-617.0318" font-family="Helvetica,sans-Serif" font-size="11.00" fill="#000000"> &#160;</text>
</a>
</g>
</g>
<!-- payment_p2007_01&#45;&gt;customer -->
<g id="edge7" class="edge">
<title>payment_p2007_01:w&#45;&gt;customer:e</title>
<path fill="none" stroke="#000000" d="M861.0827,-638.8497C710.2161,-637.0821 656.0894,-606.3375 537,-503.9318 509.6625,-480.4241 532.0548,-433.9318 496,-433.9318"/>
<polygon fill="#000000" stroke="#000000" points="867.5001,-638.8862 875.4795,-642.5317 871.5001,-638.909 875.5,-638.9318 875.5,-638.9318 875.5,-638.9318 871.5001,-638.909 875.5205,-635.3319 867.5001,-638.8862 867.5001,-638.8862"/>
<ellipse fill="none" stroke="#000000" cx="864.3002" cy="-638.8679" rx="3.2" ry="3.2"/>
</g>
<!-- payment_p2007_01&#45;&gt;payment -->
<g id="edge8" class="edge">
<title>payment_p2007_01:w&#45;&gt;payment:e</title>
<path fill="none" stroke="#000000" stroke-dasharray="5,2" d="M860.946,-636.9635C845.6304,-632.1475 839.5881,-618.8426 828,-600.9318 788.8551,-540.4288 859.562,-443.9318 787.5,-443.9318"/>
<polygon fill="#000000" stroke="#000000" points="867.5722,-637.8596 875.0175,-642.4993 871.5361,-638.3957 875.5,-638.9318 875.5,-638.9318 875.5,-638.9318 871.5361,-638.3957 875.9825,-635.3643 867.5722,-637.8596 867.5722,-637.8596"/>
<ellipse fill="none" stroke="#000000" cx="864.401" cy="-637.4307" rx="3.2" ry="3.2"/>
</g>
<!-- payment_p2007_01&#45;&gt;rental -->
<g id="edge9" class="edge">
<title>payment_p2007_01:w&#45;&gt;rental:e</title>
<path fill="none" stroke="#000000" d="M861.2039,-636.1794C847.6745,-629.9373 844.4203,-614.2167 828,-600.9318 813.2676,-589.0126 810.0052,-585.5057 795,-573.9318 744.1063,-534.6763 716.8039,-540.1706 678,-488.9318 646.2494,-447.0066 689.5911,-377.9318 637,-377.9318"/>
<polygon fill="#000000" stroke="#000000" points="867.6443,-637.4193 874.8194,-642.4669 871.5721,-638.1755 875.5,-638.9318 875.5,-638.9318 875.5,-638.9318 871.5721,-638.1755 876.1806,-635.3967 867.6443,-637.4193 867.6443,-637.4193"/>
<ellipse fill="none" stroke="#000000" cx="864.502" cy="-636.8143" rx="3.2" ry="3.2"/>
</g>
<!-- payment_p2007_01&#45;&gt;staff -->
<g id="edge10" class="edge">
<title>payment_p2007_01:w&#45;&gt;staff:e</title>
<path fill="none" stroke="#000000" d="M861.0504,-639.0477C745.9942,-640.9234 713.0115,-664.9318 591,-664.9318 591,-664.9318 591,-664.9318 450,-664.9318 351.5037,-664.9318 316.5138,-625.0782 267,-539.9318 241.6811,-496.3921 276.8662,-316.9318 226.5,-316.9318"/>
<polygon fill="#000000" stroke="#000000" points="867.5003,-638.996 875.5289,-642.5317 871.5001,-638.9639 875.5,-638.9318 875.5,-638.9318 875.5,-638.9318 871.5001,-638.9639 875.4711,-635.3319 867.5003,-638.996 867.5003,-638.996"/>
<ellipse fill="none" stroke="#000000" cx="864.3004" cy="-639.0217" rx="3.2" ry="3.2"/>
</g>
<!-- payment_p2007_02 -->
<g id="node9" class="node">
<title>payment_p2007_02</title>
<g id="a_node9"><a xlink:href="../../tables/payment_p2007_02.html" xlink:title="payment_p2007_02" target="_top">
<polygon fill="#ffffff" stroke="transparent" points="836,-411.9318 836,-589.9318 1055,-589.9318 1055,-411.9318 836,-411.9318"/>
<polygon fill="#f5f5f5" stroke="transparent" points="838.5,-564.9318 838.5,-587.9318 1053.5,-587.9318 1053.5,-564.9318 838.5,-564.9318"/>
<polygon fill="none" stroke="#000000" points="838.5,-564.9318 838.5,-587.9318 1053.5,-587.9318 1053.5,-564.9318 838.5,-564.9318"/>
<text text-anchor="start" x="843.5" y="-574.0318" font-family="Helvetica,sans-Serif" font-weight="bold" font-size="11.00" fill="#000000">payment_p2007_02</text>
<text text-anchor="start" x="1018.5437" y="-573.0318" font-family="Helvetica,sans-Serif" font-size="11.00" fill="#000000">[table]</text>
<polygon fill="none" stroke="#000000" points="838.5,-542.9318 838.5,-564.9318 969.5,-564.9318 969.5,-542.9318 838.5,-542.9318"/>
<image xlink:href="../../images/foreignKeys.png" width="11px" height="12px" preserveAspectRatio="xMinYMin meet" x="843.5" y="-559.932"/>
<text text-anchor="start" x="858.5" y="-550.0318" font-family="Helvetica,sans-Serif" font-size="11.00" fill="#000000">payment_id</text>
<polygon fill="none" stroke="#000000" points="969.5,-542.9318 969.5,-564.9318 1053.5,-564.9318 1053.5,-542.9318 969.5,-542.9318"/>
<text text-anchor="start" x="972.5" y="-550.6318" font-family="Helvetica,sans-Serif" font-size="11.00" fill="#000000">serial[10]</text>
<polygon fill="#ffffff" stroke="transparent" points="838.5,-520.9318 838.5,-542.9318 969.5,-542.9318 969.5,-520.9318 838.5,-520.9318"/>
<polygon fill="none" stroke="#000000" points="838.5,-520.9318 838.5,-542.9318 969.5,-542.9318 969.5,-520.9318 838.5,-520.9318"/>
<image xlink:href="../../images/foreignKeys.png" width="11px" height="12px" preserveAspectRatio="xMinYMin meet" x="843.5" y="-537.932"/>
<text text-anchor="start" x="858.5" y="-528.0318" font-family="Helvetica,sans-Serif" font-size="11.00" fill="#000000">customer_id</text>
<polygon fill="none" stroke="#000000" points="969.5,-520.9318 969.5,-542.9318 1053.5,-542.9318 1053.5,-520.9318 969.5,-520.9318"/>
<text text-anchor="start" x="972.5" y="-528.6318" font-family="Helvetica,sans-Serif" font-size="11.00" fill="#000000">int2[5]</text>
<polygon fill="#ffffff" stroke="transparent" points="838.5,-498.9318 838.5,-520.9318 969.5,-520.9318 969.5,-498.9318 838.5,-498.9318"/>
<polygon fill="none" stroke="#000000" points="838.5,-498.9318 838.5,-520.9318 969.5,-520.9318 969.5,-498.9318 838.5,-498.9318"/>
<image xlink:href="../../images/foreignKeys.png" width="11px" height="12px" preserveAspectRatio="xMinYMin meet" x="843.5" y="-515.932"/>
<text text-anchor="start" x="858.5" y="-506.0318" font-family="Helvetica,sans-Serif" font-size="11.00" fill="#000000">staff_id</text>
<polygon fill="none" stroke="#000000" points="969.5,-498.9318 969.5,-520.9318 1053.5,-520.9318 1053.5,-498.9318 969.5,-498.9318"/>
<text text-anchor="start" x="972.5" y="-506.6318" font-family="Helvetica,sans-Serif" font-size="11.00" fill="#000000">int2[5]</text>
<polygon fill="none" stroke="#000000" points="838.5,-476.9318 838.5,-498.9318 969.5,-498.9318 969.5,-476.9318 838.5,-476.9318"/>
<image xlink:href="../../images/foreignKeys.png" width="11px" height="12px" preserveAspectRatio="xMinYMin meet" x="843.5" y="-493.932"/>
<text text-anchor="start" x="858.5" y="-484.0318" font-family="Helvetica,sans-Serif" font-size="11.00" fill="#000000">rental_id</text>
<polygon fill="none" stroke="#000000" points="969.5,-476.9318 969.5,-498.9318 1053.5,-498.9318 1053.5,-476.9318 969.5,-476.9318"/>
<text text-anchor="start" x="972.5" y="-484.6318" font-family="Helvetica,sans-Serif" font-size="11.00" fill="#000000">int4[10]</text>
<polygon fill="none" stroke="#000000" points="838.5,-454.9318 838.5,-476.9318 969.5,-476.9318 969.5,-454.9318 838.5,-454.9318"/>
<text text-anchor="start" x="858.5" y="-462.0318" font-family="Helvetica,sans-Serif" font-size="11.00" fill="#000000">amount</text>
<polygon fill="none" stroke="#000000" points="969.5,-454.9318 969.5,-476.9318 1053.5,-476.9318 1053.5,-454.9318 969.5,-454.9318"/>
<text text-anchor="start" x="972.5" y="-462.6318" font-family="Helvetica,sans-Serif" font-size="11.00" fill="#000000">numeric[5,2]</text>
<polygon fill="none" stroke="#000000" points="838.5,-432.9318 838.5,-454.9318 969.5,-454.9318 969.5,-432.9318 838.5,-432.9318"/>
<text text-anchor="start" x="858.5" y="-440.0318" font-family="Helvetica,sans-Serif" font-size="11.00" fill="#000000">payment_date</text>
<polygon fill="none" stroke="#000000" points="969.5,-432.9318 969.5,-454.9318 1053.5,-454.9318 1053.5,-432.9318 969.5,-432.9318"/>
<text text-anchor="start" x="972.3807" y="-440.6318" font-family="Helvetica,sans-Serif" font-size="11.00" fill="#000000">timestamp[29,6]</text>
<polygon fill="#ffffff" stroke="transparent" points="838.5,-413.9318 838.5,-432.9318 895.5,-432.9318 895.5,-413.9318 838.5,-413.9318"/>
<polygon fill="none" stroke="#000000" points="838.5,-413.9318 838.5,-432.9318 895.5,-432.9318 895.5,-413.9318 838.5,-413.9318"/>
<text text-anchor="start" x="841.5" y="-420.0318" font-family="Helvetica,sans-Serif" font-size="11.00" fill="#000000">&lt; 4</text>
<polygon fill="#ffffff" stroke="transparent" points="895.5,-413.9318 895.5,-432.9318 969.5,-432.9318 969.5,-413.9318 895.5,-413.9318"/>
<polygon fill="none" stroke="#000000" points="895.5,-413.9318 895.5,-432.9318 969.5,-432.9318 969.5,-413.9318 895.5,-413.9318"/>
<text text-anchor="start" x="934.1105" y="-420.0318" font-family="Helvetica,sans-Serif" font-size="11.00" fill="#000000">0 rows</text>
<polygon fill="#ffffff" stroke="transparent" points="969.5,-413.9318 969.5,-432.9318 1053.5,-432.9318 1053.5,-413.9318 969.5,-413.9318"/>
<polygon fill="none" stroke="#000000" points="969.5,-413.9318 969.5,-432.9318 1053.5,-432.9318 1053.5,-413.9318 969.5,-413.9318"/>
<text text-anchor="start" x="1034.9053" y="-420.0318" font-family="Helvetica,sans-Serif" font-size="11.00" fill="#000000">0 &gt;</text>
<polygon fill="none" stroke="#000000" stroke-width="2" points="837,-412.9318 837,-588.9318 1054,-588.9318 1054,-412.9318 837,-412.9318"/>
</a>
</g>
</g>
<!-- payment_p2007_02&#45;&gt;customer -->
<g id="edge11" class="edge">
<title>payment_p2007_02:w&#45;&gt;customer:e</title>
<path fill="none" stroke="#000000" d="M824.0311,-531.9485C698.4246,-532.2129 652.3076,-534.7194 537,-470.9318 515.5221,-459.0503 520.5452,-433.9318 496,-433.9318"/>
<polygon fill="#000000" stroke="#000000" points="830.5,-531.9411 838.5042,-535.5318 834.5,-531.9364 838.5,-531.9318 838.5,-531.9318 838.5,-531.9318 834.5,-531.9364 838.4958,-528.3318 830.5,-531.9411 830.5,-531.9411"/>
<ellipse fill="none" stroke="#000000" cx="827.3" cy="-531.9448" rx="3.2" ry="3.2"/>
</g>
<!-- payment_p2007_02&#45;&gt;payment -->
<g id="edge12" class="edge">
<title>payment_p2007_02:w&#45;&gt;payment:e</title>
<path fill="none" stroke="#000000" stroke-dasharray="5,2" d="M824.5,-550.2719C795.708,-531.1852 835.4939,-443.9318 787.5,-443.9318"/>
<polygon fill="#000000" stroke="#000000" points="830.7601,-551.9084 837.5895,-557.4148 834.6301,-552.9201 838.5,-553.9318 838.5,-553.9318 838.5,-553.9318 834.6301,-552.9201 839.4105,-550.4489 830.7601,-551.9084 830.7601,-551.9084"/>
<ellipse fill="none" stroke="#000000" cx="827.6641" cy="-551.099" rx="3.2" ry="3.2"/>
</g>
<!-- payment_p2007_02&#45;&gt;rental -->
<g id="edge13" class="edge">
<title>payment_p2007_02:w&#45;&gt;rental:e</title>
<path fill="none" stroke="#000000" d="M823.9537,-486.0042C774.2323,-470.3068 851.7487,-362.9233 795,-318.9318 753.9024,-287.073 724.0818,-294.8388 678,-318.9318 649.7022,-333.7268 668.932,-377.9318 637,-377.9318"/>
<polygon fill="#000000" stroke="#000000" points="830.5693,-486.8808 838.0271,-491.5006 834.5347,-487.4063 838.5,-487.9318 838.5,-487.9318 838.5,-487.9318 834.5347,-487.4063 838.9729,-484.363 830.5693,-486.8808 830.5693,-486.8808"/>
<ellipse fill="none" stroke="#000000" cx="827.3971" cy="-486.4604" rx="3.2" ry="3.2"/>
</g>
<!-- payment_p2007_02&#45;&gt;staff -->
<g id="edge14" class="edge">
<title>payment_p2007_02:w&#45;&gt;staff:e</title>
<path fill="none" stroke="#000000" d="M825.3884,-516.4553C774.4652,-542.5392 592.6704,-637.9318 591,-637.9318 591,-637.9318 591,-637.9318 450,-637.9318 333.7134,-637.9318 326.1925,-551.0259 267,-450.9318 235.3305,-397.3789 288.7163,-316.9318 226.5,-316.9318"/>
<polygon fill="#000000" stroke="#000000" points="831.3375,-513.4954 840.1036,-513.1549 834.9188,-511.7136 838.5,-509.9318 838.5,-509.9318 838.5,-509.9318 834.9188,-511.7136 836.8964,-506.7087 831.3375,-513.4954 831.3375,-513.4954"/>
<ellipse fill="none" stroke="#000000" cx="828.4725" cy="-514.9209" rx="3.2" ry="3.2"/>
</g>
<!-- payment_p2007_03 -->
<g id="node10" class="node">
<title>payment_p2007_03</title>
<g id="a_node10"><a xlink:href="../../tables/payment_p2007_03.html" xlink:title="payment_p2007_03" target="_top">
<polygon fill="#ffffff" stroke="transparent" points="875.5,-46.4318 875.5,-107.4318 1015.5,-107.4318 1015.5,-46.4318 875.5,-46.4318"/>
<polygon fill="#f5f5f5" stroke="transparent" points="875.5,-83.9318 875.5,-106.9318 1015.5,-106.9318 1015.5,-83.9318 875.5,-83.9318"/>
<polygon fill="none" stroke="#000000" points="875.5,-83.9318 875.5,-106.9318 1015.5,-106.9318 1015.5,-83.9318 875.5,-83.9318"/>
<text text-anchor="start" x="880.3938" y="-93.0318" font-family="Helvetica,sans-Serif" font-weight="bold" font-size="11.00" fill="#000000">payment_p2007_03</text>
<text text-anchor="start" x="981.0219" y="-92.0318" font-family="Helvetica,sans-Serif" font-size="11.00" fill="#000000">[table]</text>
<polygon fill="none" stroke="#000000" points="875.5,-64.9318 875.5,-83.9318 1015.5,-83.9318 1015.5,-64.9318 875.5,-64.9318"/>
<text text-anchor="start" x="878.5" y="-71.0318" font-family="Helvetica,sans-Serif" font-size="11.00" fill="#000000">...</text>
<polygon fill="#ffffff" stroke="transparent" points="875.5,-45.9318 875.5,-64.9318 930.5,-64.9318 930.5,-45.9318 875.5,-45.9318"/>
<polygon fill="none" stroke="#000000" points="875.5,-45.9318 875.5,-64.9318 930.5,-64.9318 930.5,-45.9318 875.5,-45.9318"/>
<text text-anchor="start" x="878.5" y="-52.0318" font-family="Helvetica,sans-Serif" font-size="11.00" fill="#000000">&lt; 4</text>
<polygon fill="#ffffff" stroke="transparent" points="930.5,-45.9318 930.5,-64.9318 985.5,-64.9318 985.5,-45.9318 930.5,-45.9318"/>
<polygon fill="none" stroke="#000000" points="930.5,-45.9318 930.5,-64.9318 985.5,-64.9318 985.5,-45.9318 930.5,-45.9318"/>
<text text-anchor="start" x="950.1105" y="-52.0318" font-family="Helvetica,sans-Serif" font-size="11.00" fill="#000000">0 rows</text>
<polygon fill="#ffffff" stroke="transparent" points="985.5,-45.9318 985.5,-64.9318 1015.5,-64.9318 1015.5,-45.9318 985.5,-45.9318"/>
<polygon fill="none" stroke="#000000" points="985.5,-45.9318 985.5,-64.9318 1015.5,-64.9318 1015.5,-45.9318 985.5,-45.9318"/>
<text text-anchor="start" x="1006.3862" y="-52.0318" font-family="Helvetica,sans-Serif" font-size="11.00" fill="#000000"> &#160;</text>
</a>
</g>
</g>
<!-- payment_p2007_03&#45;&gt;customer -->
<g id="edge15" class="edge">
<title>payment_p2007_03:w&#45;&gt;customer:e</title>
<path fill="none" stroke="#000000" d="M860.7896,-73.7856C715.3924,-70.9336 625.1171,-28.6228 537,-148.9318 499.192,-200.5523 559.9853,-433.9318 496,-433.9318"/>
<polygon fill="#000000" stroke="#000000" points="867.5004,-73.8523 875.4642,-77.5316 871.5002,-73.892 875.5,-73.9318 875.5,-73.9318 875.5,-73.9318 871.5002,-73.892 875.5358,-70.332 867.5004,-73.8523 867.5004,-73.8523"/>
<ellipse fill="none" stroke="#000000" cx="864.3006" cy="-73.8204" rx="3.2" ry="3.2"/>
</g>
<!-- payment_p2007_03&#45;&gt;payment -->
<g id="edge16" class="edge">
<title>payment_p2007_03:w&#45;&gt;payment:e</title>
<path fill="none" stroke="#000000" stroke-dasharray="5,2" d="M861.0804,-76.1865C841.7166,-83.2388 838.9283,-105.905 828,-130.9318 799.9335,-195.2066 857.6354,-443.9318 787.5,-443.9318"/>
<polygon fill="#000000" stroke="#000000" points="867.596,-75.1678 876.0562,-77.4886 871.548,-74.5498 875.5,-73.9318 875.5,-73.9318 875.5,-73.9318 871.548,-74.5498 874.9438,-70.375 867.596,-75.1678 867.596,-75.1678"/>
<ellipse fill="none" stroke="#000000" cx="864.4345" cy="-75.6621" rx="3.2" ry="3.2"/>
</g>
<!-- payment_p2007_03&#45;&gt;rental -->
<g id="edge17" class="edge">
<title>payment_p2007_03:w&#45;&gt;rental:e</title>
<path fill="none" stroke="#000000" d="M861.0044,-74.1407C771.6315,-76.817 734.6407,-105.5865 678,-181.9318 624.9732,-253.406 725.9966,-377.9318 637,-377.9318"/>
<polygon fill="#000000" stroke="#000000" points="867.5008,-74.0471 875.5519,-77.5314 871.5004,-73.9895 875.5,-73.9318 875.5,-73.9318 875.5,-73.9318 871.5004,-73.9895 875.4481,-70.3322 867.5008,-74.0471 867.5008,-74.0471"/>
<ellipse fill="none" stroke="#000000" cx="864.3012" cy="-74.0933" rx="3.2" ry="3.2"/>
</g>
<!-- payment_p2007_03&#45;&gt;staff -->
<g id="edge18" class="edge">
<title>payment_p2007_03:w&#45;&gt;staff:e</title>
<path fill="none" stroke="#000000" d="M861.0214,-73.4491C836.1626,-71.6686 825.5448,-65.3434 795,-60.9318 704.5386,-47.8665 682.4001,-34.9318 591,-34.9318 591,-34.9318 591,-34.9318 450,-34.9318 365.4469,-34.9318 323.6451,-24.1578 267,-86.9318 232.2321,-125.4615 278.3975,-316.9318 226.5,-316.9318"/>
<polygon fill="#000000" stroke="#000000" points="867.5044,-73.6652 875.38,-77.5298 871.5022,-73.7985 875.5,-73.9318 875.5,-73.9318 875.5,-73.9318 871.5022,-73.7985 875.62,-70.3338 867.5044,-73.6652 867.5044,-73.6652"/>
<ellipse fill="none" stroke="#000000" cx="864.3062" cy="-73.5586" rx="3.2" ry="3.2"/>
</g>
<!-- payment_p2007_04 -->
<g id="node11" class="node">
<title>payment_p2007_04</title>
<g id="a_node11"><a xlink:href="../../tables/payment_p2007_04.html" xlink:title="payment_p2007_04" target="_top">
<polygon fill="#ffffff" stroke="transparent" points="875.5,-329.4318 875.5,-390.4318 1015.5,-390.4318 1015.5,-329.4318 875.5,-329.4318"/>
<polygon fill="#f5f5f5" stroke="transparent" points="875.5,-366.9318 875.5,-389.9318 1015.5,-389.9318 1015.5,-366.9318 875.5,-366.9318"/>
<polygon fill="none" stroke="#000000" points="875.5,-366.9318 875.5,-389.9318 1015.5,-389.9318 1015.5,-366.9318 875.5,-366.9318"/>
<text text-anchor="start" x="880.3938" y="-376.0318" font-family="Helvetica,sans-Serif" font-weight="bold" font-size="11.00" fill="#000000">payment_p2007_04</text>
<text text-anchor="start" x="981.0219" y="-375.0318" font-family="Helvetica,sans-Serif" font-size="11.00" fill="#000000">[table]</text>
<polygon fill="none" stroke="#000000" points="875.5,-347.9318 875.5,-366.9318 1015.5,-366.9318 1015.5,-347.9318 875.5,-347.9318"/>
<text text-anchor="start" x="878.5" y="-354.0318" font-family="Helvetica,sans-Serif" font-size="11.00" fill="#000000">...</text>
<polygon fill="#ffffff" stroke="transparent" points="875.5,-328.9318 875.5,-347.9318 930.5,-347.9318 930.5,-328.9318 875.5,-328.9318"/>
<polygon fill="none" stroke="#000000" points="875.5,-328.9318 875.5,-347.9318 930.5,-347.9318 930.5,-328.9318 875.5,-328.9318"/>
<text text-anchor="start" x="878.5" y="-335.0318" font-family="Helvetica,sans-Serif" font-size="11.00" fill="#000000">&lt; 4</text>
<polygon fill="#ffffff" stroke="transparent" points="930.5,-328.9318 930.5,-347.9318 985.5,-347.9318 985.5,-328.9318 930.5,-328.9318"/>
<polygon fill="none" stroke="#000000" points="930.5,-328.9318 930.5,-347.9318 985.5,-347.9318 985.5,-328.9318 930.5,-328.9318"/>
<text text-anchor="start" x="950.1105" y="-335.0318" font-family="Helvetica,sans-Serif" font-size="11.00" fill="#000000">0 rows</text>
<polygon fill="#ffffff" stroke="transparent" points="985.5,-328.9318 985.5,-347.9318 1015.5,-347.9318 1015.5,-328.9318 985.5,-328.9318"/>
<polygon fill="none" stroke="#000000" points="985.5,-328.9318 985.5,-347.9318 1015.5,-347.9318 1015.5,-328.9318 985.5,-328.9318"/>
<text text-anchor="start" x="1006.3862" y="-335.0318" font-family="Helvetica,sans-Serif" font-size="11.00" fill="#000000"> &#160;</text>
</a>
</g>
</g>
<!-- payment_p2007_04&#45;&gt;customer -->
<g id="edge19" class="edge">
<title>payment_p2007_04:w&#45;&gt;customer:e</title>
<path fill="none" stroke="#000000" d="M861.2228,-359.1821C844.9935,-365.185 840.9703,-382.4544 828,-401.9318 805.0784,-436.3531 829.035,-465.4405 795,-488.9318 683.7977,-565.6849 631.1184,-433.9318 496,-433.9318"/>
<polygon fill="#000000" stroke="#000000" points="867.5976,-358.1774 876.0605,-360.4879 871.5488,-357.5546 875.5,-356.9318 875.5,-356.9318 875.5,-356.9318 871.5488,-357.5546 874.9395,-353.3757 867.5976,-358.1774 867.5976,-358.1774"/>
<ellipse fill="none" stroke="#000000" cx="864.4366" cy="-358.6756" rx="3.2" ry="3.2"/>
</g>
<!-- payment_p2007_04&#45;&gt;payment -->
<g id="edge20" class="edge">
<title>payment_p2007_04:w&#45;&gt;payment:e</title>
<path fill="none" stroke="#000000" stroke-dasharray="5,2" d="M861.2009,-359.7283C846.3828,-366.729 844.4585,-385.6182 828,-401.9318 809.5828,-420.1869 813.4315,-443.9318 787.5,-443.9318"/>
<polygon fill="#000000" stroke="#000000" points="867.6487,-358.4673 876.191,-360.4649 871.5744,-357.6996 875.5,-356.9318 875.5,-356.9318 875.5,-356.9318 871.5744,-357.6996 874.809,-353.3987 867.6487,-358.4673 867.6487,-358.4673"/>
<ellipse fill="none" stroke="#000000" cx="864.5082" cy="-359.0815" rx="3.2" ry="3.2"/>
</g>
<!-- payment_p2007_04&#45;&gt;rental -->
<g id="edge21" class="edge">
<title>payment_p2007_04:w&#45;&gt;rental:e</title>
<path fill="none" stroke="#000000" d="M861.2246,-354.9873C831.3996,-345.9234 832.5729,-307.7237 795,-294.9318 745.7747,-278.1727 722.1677,-267.487 678,-294.9318 643.0531,-316.647 678.1441,-377.9318 637,-377.9318"/>
<polygon fill="#000000" stroke="#000000" points="867.5732,-355.852 875.0141,-360.4989 871.5366,-356.3919 875.5,-356.9318 875.5,-356.9318 875.5,-356.9318 871.5366,-356.3919 875.9859,-353.3647 867.5732,-355.852 867.5732,-355.852"/>
<ellipse fill="none" stroke="#000000" cx="864.4025" cy="-355.4201" rx="3.2" ry="3.2"/>
</g>
<!-- payment_p2007_04&#45;&gt;staff -->
<g id="edge22" class="edge">
<title>payment_p2007_04:w&#45;&gt;staff:e</title>
<path fill="none" stroke="#000000" d="M861.1455,-359.1325C844.7297,-365.0158 840.295,-382.0213 828,-401.9318 801.4058,-444.9983 835.6469,-480.7688 795,-510.9318 751.4155,-543.2747 542.7195,-546.2322 396,-493.9318 329.4241,-470.1998 312.4089,-455.0944 267,-400.9318 240.3723,-369.171 267.9461,-316.9318 226.5,-316.9318"/>
<polygon fill="#000000" stroke="#000000" points="867.5924,-358.1442 876.0456,-360.4902 871.5462,-357.538 875.5,-356.9318 875.5,-356.9318 875.5,-356.9318 871.5462,-357.538 874.9544,-353.3734 867.5924,-358.1442 867.5924,-358.1442"/>
<ellipse fill="none" stroke="#000000" cx="864.4293" cy="-358.6291" rx="3.2" ry="3.2"/>
</g>
<!-- payment_p2007_05 -->
<g id="node12" class="node">
<title>payment_p2007_05</title>
<g id="a_node12"><a xlink:href="../../tables/payment_p2007_05.html" xlink:title="payment_p2007_05" target="_top">
<polygon fill="#ffffff" stroke="transparent" points="875.5,-223.4318 875.5,-284.4318 1015.5,-284.4318 1015.5,-223.4318 875.5,-223.4318"/>
<polygon fill="#f5f5f5" stroke="transparent" points="875.5,-260.9318 875.5,-283.9318 1015.5,-283.9318 1015.5,-260.9318 875.5,-260.9318"/>
<polygon fill="none" stroke="#000000" points="875.5,-260.9318 875.5,-283.9318 1015.5,-283.9318 1015.5,-260.9318 875.5,-260.9318"/>
<text text-anchor="start" x="880.3938" y="-270.0318" font-family="Helvetica,sans-Serif" font-weight="bold" font-size="11.00" fill="#000000">payment_p2007_05</text>
<text text-anchor="start" x="981.0219" y="-269.0318" font-family="Helvetica,sans-Serif" font-size="11.00" fill="#000000">[table]</text>
<polygon fill="none" stroke="#000000" points="875.5,-241.9318 875.5,-260.9318 1015.5,-260.9318 1015.5,-241.9318 875.5,-241.9318"/>
<text text-anchor="start" x="878.5" y="-248.0318" font-family="Helvetica,sans-Serif" font-size="11.00" fill="#000000">...</text>
<polygon fill="#ffffff" stroke="transparent" points="875.5,-222.9318 875.5,-241.9318 930.5,-241.9318 930.5,-222.9318 875.5,-222.9318"/>
<polygon fill="none" stroke="#000000" points="875.5,-222.9318 875.5,-241.9318 930.5,-241.9318 930.5,-222.9318 875.5,-222.9318"/>
<text text-anchor="start" x="878.5" y="-229.0318" font-family="Helvetica,sans-Serif" font-size="11.00" fill="#000000">&lt; 4</text>
<polygon fill="#ffffff" stroke="transparent" points="930.5,-222.9318 930.5,-241.9318 985.5,-241.9318 985.5,-222.9318 930.5,-222.9318"/>
<polygon fill="none" stroke="#000000" points="930.5,-222.9318 930.5,-241.9318 985.5,-241.9318 985.5,-222.9318 930.5,-222.9318"/>
<text text-anchor="start" x="950.1105" y="-229.0318" font-family="Helvetica,sans-Serif" font-size="11.00" fill="#000000">0 rows</text>
<polygon fill="#ffffff" stroke="transparent" points="985.5,-222.9318 985.5,-241.9318 1015.5,-241.9318 1015.5,-222.9318 985.5,-222.9318"/>
<polygon fill="none" stroke="#000000" points="985.5,-222.9318 985.5,-241.9318 1015.5,-241.9318 1015.5,-222.9318 985.5,-222.9318"/>
<text text-anchor="start" x="1006.3862" y="-229.0318" font-family="Helvetica,sans-Serif" font-size="11.00" fill="#000000"> &#160;</text>
</a>
</g>
</g>
<!-- payment_p2007_05&#45;&gt;customer -->
<g id="edge23" class="edge">
<title>payment_p2007_05:w&#45;&gt;customer:e</title>
<path fill="none" stroke="#000000" d="M861.0502,-250.4216C836.2426,-248.5524 825.6478,-242.0264 795,-238.9318 728.5763,-232.2249 711.7377,-232.7102 645,-230.9318 597.017,-229.6532 574.1492,-200.5355 537,-230.9318 465.7633,-289.2193 588.044,-433.9318 496,-433.9318"/>
<polygon fill="#000000" stroke="#000000" points="867.505,-250.6495 875.373,-254.5296 871.5025,-250.7906 875.5,-250.9318 875.5,-250.9318 875.5,-250.9318 871.5025,-250.7906 875.627,-247.334 867.505,-250.6495 867.505,-250.6495"/>
<ellipse fill="none" stroke="#000000" cx="864.307" cy="-250.5366" rx="3.2" ry="3.2"/>
</g>
<!-- payment_p2007_05&#45;&gt;payment -->
<g id="edge24" class="edge">
<title>payment_p2007_05:w&#45;&gt;payment:e</title>
<path fill="none" stroke="#000000" stroke-dasharray="5,2" d="M861.0956,-253.3536C839.8996,-261.8183 841.8518,-291.0811 828,-318.9318 801.9938,-371.2204 845.8988,-443.9318 787.5,-443.9318"/>
<polygon fill="#000000" stroke="#000000" points="867.6107,-252.2583 876.0969,-254.482 871.5554,-251.595 875.5,-250.9318 875.5,-250.9318 875.5,-250.9318 871.5554,-251.595 874.9031,-247.3816 867.6107,-252.2583 867.6107,-252.2583"/>
<ellipse fill="none" stroke="#000000" cx="864.455" cy="-252.7889" rx="3.2" ry="3.2"/>
</g>
<!-- payment_p2007_05&#45;&gt;rental -->
<g id="edge25" class="edge">
<title>payment_p2007_05:w&#45;&gt;rental:e</title>
<path fill="none" stroke="#000000" d="M860.9357,-250.6641C782.5556,-247.8066 744.0787,-224.0231 678,-274.9318 638.969,-305.0023 686.2712,-377.9318 637,-377.9318"/>
<polygon fill="#000000" stroke="#000000" points="867.5014,-250.7847 875.4338,-254.5312 871.5007,-250.8583 875.5,-250.9318 875.5,-250.9318 875.5,-250.9318 871.5007,-250.8583 875.5662,-247.3324 867.5014,-250.7847 867.5014,-250.7847"/>
<ellipse fill="none" stroke="#000000" cx="864.3019" cy="-250.7259" rx="3.2" ry="3.2"/>
</g>
<!-- payment_p2007_05&#45;&gt;staff -->
<g id="edge26" class="edge">
<title>payment_p2007_05:w&#45;&gt;staff:e</title>
<path fill="none" stroke="#000000" d="M860.9959,-249.5663C788.4132,-237.0643 654.1336,-142.9318 591,-142.9318 591,-142.9318 591,-142.9318 450,-142.9318 365.8015,-142.9318 328.0564,-133.9534 267,-191.9318 224.6522,-232.1448 284.8988,-316.9318 226.5,-316.9318"/>
<polygon fill="#000000" stroke="#000000" points="867.5352,-250.1819 875.1625,-254.516 871.5176,-250.5569 875.5,-250.9318 875.5,-250.9318 875.5,-250.9318 871.5176,-250.5569 875.8375,-247.3477 867.5352,-250.1819 867.5352,-250.1819"/>
<ellipse fill="none" stroke="#000000" cx="864.3493" cy="-249.8819" rx="3.2" ry="3.2"/>
</g>
<!-- payment_p2007_06 -->
<g id="node13" class="node">
<title>payment_p2007_06</title>
<g id="a_node13"><a xlink:href="../../tables/payment_p2007_06.html" xlink:title="payment_p2007_06" target="_top">
<polygon fill="#ffffff" stroke="transparent" points="875.5,-141.4318 875.5,-202.4318 1015.5,-202.4318 1015.5,-141.4318 875.5,-141.4318"/>
<polygon fill="#f5f5f5" stroke="transparent" points="875.5,-178.9318 875.5,-201.9318 1015.5,-201.9318 1015.5,-178.9318 875.5,-178.9318"/>
<polygon fill="none" stroke="#000000" points="875.5,-178.9318 875.5,-201.9318 1015.5,-201.9318 1015.5,-178.9318 875.5,-178.9318"/>
<text text-anchor="start" x="880.3938" y="-188.0318" font-family="Helvetica,sans-Serif" font-weight="bold" font-size="11.00" fill="#000000">payment_p2007_06</text>
<text text-anchor="start" x="981.0219" y="-187.0318" font-family="Helvetica,sans-Serif" font-size="11.00" fill="#000000">[table]</text>
<polygon fill="none" stroke="#000000" points="875.5,-159.9318 875.5,-178.9318 1015.5,-178.9318 1015.5,-159.9318 875.5,-159.9318"/>
<text text-anchor="start" x="878.5" y="-166.0318" font-family="Helvetica,sans-Serif" font-size="11.00" fill="#000000">...</text>
<polygon fill="#ffffff" stroke="transparent" points="875.5,-140.9318 875.5,-159.9318 930.5,-159.9318 930.5,-140.9318 875.5,-140.9318"/>
<polygon fill="none" stroke="#000000" points="875.5,-140.9318 875.5,-159.9318 930.5,-159.9318 930.5,-140.9318 875.5,-140.9318"/>
<text text-anchor="start" x="878.5" y="-147.0318" font-family="Helvetica,sans-Serif" font-size="11.00" fill="#000000">&lt; 4</text>
<polygon fill="#ffffff" stroke="transparent" points="930.5,-140.9318 930.5,-159.9318 985.5,-159.9318 985.5,-140.9318 930.5,-140.9318"/>
<polygon fill="none" stroke="#000000" points="930.5,-140.9318 930.5,-159.9318 985.5,-159.9318 985.5,-140.9318 930.5,-140.9318"/>
<text text-anchor="start" x="950.1105" y="-147.0318" font-family="Helvetica,sans-Serif" font-size="11.00" fill="#000000">0 rows</text>
<polygon fill="#ffffff" stroke="transparent" points="985.5,-140.9318 985.5,-159.9318 1015.5,-159.9318 1015.5,-140.9318 985.5,-140.9318"/>
<polygon fill="none" stroke="#000000" points="985.5,-140.9318 985.5,-159.9318 1015.5,-159.9318 1015.5,-140.9318 985.5,-140.9318"/>
<text text-anchor="start" x="1006.3862" y="-147.0318" font-family="Helvetica,sans-Serif" font-size="11.00" fill="#000000"> &#160;</text>
</a>
</g>
</g>
<!-- payment_p2007_06&#45;&gt;customer -->
<g id="edge27" class="edge">
<title>payment_p2007_06:w&#45;&gt;customer:e</title>
<path fill="none" stroke="#000000" d="M861.0428,-168.7392C718.4529,-164.9625 638.8171,-108.0728 537,-213.9318 468.0521,-285.6168 595.4613,-433.9318 496,-433.9318"/>
<polygon fill="#000000" stroke="#000000" points="867.5007,-168.8252 875.452,-172.5315 871.5004,-168.8785 875.5,-168.9318 875.5,-168.9318 875.5,-168.9318 871.5004,-168.8785 875.548,-165.3321 867.5007,-168.8252 867.5007,-168.8252"/>
<ellipse fill="none" stroke="#000000" cx="864.301" cy="-168.7825" rx="3.2" ry="3.2"/>
</g>
<!-- payment_p2007_06&#45;&gt;payment -->
<g id="edge28" class="edge">
<title>payment_p2007_06:w&#45;&gt;payment:e</title>
<path fill="none" stroke="#000000" stroke-dasharray="5,2" d="M861.121,-170.9842C844.4492,-176.4967 839.0732,-192.5947 828,-212.9318 803.0784,-258.7032 839.6163,-443.9318 787.5,-443.9318"/>
<polygon fill="#000000" stroke="#000000" points="867.5803,-170.0623 876.0087,-172.4957 871.5401,-169.497 875.5,-168.9318 875.5,-168.9318 875.5,-168.9318 871.5401,-169.497 874.9913,-165.3679 867.5803,-170.0623 867.5803,-170.0623"/>
<ellipse fill="none" stroke="#000000" cx="864.4124" cy="-170.5144" rx="3.2" ry="3.2"/>
</g>
<!-- payment_p2007_06&#45;&gt;rental -->
<g id="edge29" class="edge">
<title>payment_p2007_06:w&#45;&gt;rental:e</title>
<path fill="none" stroke="#000000" d="M860.971,-169.8171C807.8374,-175.5578 707.0884,-208.2353 678,-238.9318 633.697,-285.6842 701.4092,-377.9318 637,-377.9318"/>
<polygon fill="#000000" stroke="#000000" points="867.5148,-169.4184 875.719,-172.5251 871.5074,-169.1751 875.5,-168.9318 875.5,-168.9318 875.5,-168.9318 871.5074,-169.1751 875.281,-165.3385 867.5148,-169.4184 867.5148,-169.4184"/>
<ellipse fill="none" stroke="#000000" cx="864.3207" cy="-169.6131" rx="3.2" ry="3.2"/>
</g>
<!-- payment_p2007_06&#45;&gt;staff -->
<g id="edge30" class="edge">
<title>payment_p2007_06:w&#45;&gt;staff:e</title>
<path fill="none" stroke="#000000" d="M860.957,-168.5925C742.3319,-162.9541 717.3458,-88.9318 591,-88.9318 591,-88.9318 591,-88.9318 450,-88.9318 365.4469,-88.9318 325.2541,-79.648 267,-140.9318 211.6993,-199.1086 306.7665,-316.9318 226.5,-316.9318"/>
<polygon fill="#000000" stroke="#000000" points="867.5022,-168.7452 875.416,-172.5308 871.5011,-168.8385 875.5,-168.9318 875.5,-168.9318 875.5,-168.9318 871.5011,-168.8385 875.584,-165.3328 867.5022,-168.7452 867.5022,-168.7452"/>
<ellipse fill="none" stroke="#000000" cx="864.303" cy="-168.6705" rx="3.2" ry="3.2"/>
</g>
</g>
</svg>
