<?xml version="1.0" encoding="UTF-8" standalone="no"?>
<!DOCTYPE svg PUBLIC "-//W3C//DTD SVG 1.1//EN"
 "http://www.w3.org/Graphics/SVG/1.1/DTD/svg11.dtd">
<!-- Generated by graphviz version 2.40.1 (20161225.0304)
 -->
<!-- Title: oneDegreeRelationshipsDiagramImplied Pages: 1 -->
<svg width="675pt" height="381pt"
 viewBox="0.00 0.00 675.00 380.50" xmlns="http://www.w3.org/2000/svg" xmlns:xlink="http://www.w3.org/1999/xlink">
<g id="graph0" class="graph" transform="scale(1 1) rotate(0) translate(4 376.5029)">
<title>oneDegreeRelationshipsDiagramImplied</title>
<polygon fill="#ffffff" stroke="transparent" points="-4,4 -4,-376.5029 671,-376.5029 671,4 -4,4"/>
<text text-anchor="middle" x="72.4936" y="-7.3" font-family="Helvetica,sans-Serif" font-size="11.00" fill="#000000">Generated by SchemaSpy</text>
<!-- payment -->
<g id="node1" class="node">
<title>payment</title>
<g id="a_node1"><a xlink:href="../../tables/payment.html" xlink:title="payment" target="_top">
<polygon fill="#ffffff" stroke="transparent" points="290,-188.2 290,-337.2 391,-337.2 391,-188.2 290,-188.2"/>
<polygon fill="#f5f5f5" stroke="transparent" points="290.5,-313.7 290.5,-336.7 391.5,-336.7 391.5,-313.7 290.5,-313.7"/>
<polygon fill="none" stroke="#000000" points="290.5,-313.7 290.5,-336.7 391.5,-336.7 391.5,-313.7 290.5,-313.7"/>
<text text-anchor="start" x="295.5" y="-322.8" font-family="Helvetica,sans-Serif" font-weight="bold" font-size="11.00" fill="#000000">payment</text>
<text text-anchor="start" x="356.5437" y="-321.8" font-family="Helvetica,sans-Serif" font-size="11.00" fill="#000000">[table]</text>
<polygon fill="none" stroke="#000000" points="290.5,-291.7 290.5,-313.7 391.5,-313.7 391.5,-291.7 290.5,-291.7"/>
<image xlink:href="../../images/primaryKeys.png" width="11px" height="12px" preserveAspectRatio="xMinYMin meet" x="295.5" y="-308.7"/>
<text text-anchor="start" x="310.5" y="-298.8" font-family="Helvetica,sans-Serif" font-size="11.00" fill="#000000">payment_id</text>
<polygon fill="#ffffff" stroke="transparent" points="290.5,-269.7 290.5,-291.7 391.5,-291.7 391.5,-269.7 290.5,-269.7"/>
<polygon fill="none" stroke="#000000" points="290.5,-269.7 290.5,-291.7 391.5,-291.7 391.5,-269.7 290.5,-269.7"/>
<image xlink:href="../../images/foreignKeys.png" width="11px" height="12px" preserveAspectRatio="xMinYMin meet" x="295.5" y="-286.7"/>
<text text-anchor="start" x="310.5" y="-276.8" font-family="Helvetica,sans-Serif" font-size="11.00" fill="#000000">customer_id</text>
<polygon fill="#ffffff" stroke="transparent" points="290.5,-247.7 290.5,-269.7 391.5,-269.7 391.5,-247.7 290.5,-247.7"/>
<polygon fill="none" stroke="#000000" points="290.5,-247.7 290.5,-269.7 391.5,-269.7 391.5,-247.7 290.5,-247.7"/>
<image xlink:href="../../images/foreignKeys.png" width="11px" height="12px" preserveAspectRatio="xMinYMin meet" x="295.5" y="-264.7"/>
<text text-anchor="start" x="310.5" y="-254.8" font-family="Helvetica,sans-Serif" font-size="11.00" fill="#000000">staff_id</text>
<polygon fill="none" stroke="#000000" points="290.5,-225.7 290.5,-247.7 391.5,-247.7 391.5,-225.7 290.5,-225.7"/>
<image xlink:href="../../images/foreignKeys.png" width="11px" height="12px" preserveAspectRatio="xMinYMin meet" x="295.5" y="-242.7"/>
<text text-anchor="start" x="310.5" y="-232.8" font-family="Helvetica,sans-Serif" font-size="11.00" fill="#000000">rental_id</text>
<polygon fill="none" stroke="#000000" points="290.5,-206.7 290.5,-225.7 391.5,-225.7 391.5,-206.7 290.5,-206.7"/>
<text text-anchor="start" x="293.5" y="-212.8" font-family="Helvetica,sans-Serif" font-size="11.00" fill="#000000">...</text>
<polygon fill="#ffffff" stroke="transparent" points="290.5,-187.7 290.5,-206.7 321.5,-206.7 321.5,-187.7 290.5,-187.7"/>
<polygon fill="none" stroke="#000000" points="290.5,-187.7 290.5,-206.7 321.5,-206.7 321.5,-187.7 290.5,-187.7"/>
<text text-anchor="start" x="293.5" y="-193.8" font-family="Helvetica,sans-Serif" font-size="11.00" fill="#000000">&lt; 3</text>
<polygon fill="#ffffff" stroke="transparent" points="321.5,-187.7 321.5,-206.7 364.5,-206.7 364.5,-187.7 321.5,-187.7"/>
<polygon fill="none" stroke="#000000" points="321.5,-187.7 321.5,-206.7 364.5,-206.7 364.5,-187.7 321.5,-187.7"/>
<text text-anchor="start" x="329.1105" y="-193.8" font-family="Helvetica,sans-Serif" font-size="11.00" fill="#000000">0 rows</text>
<polygon fill="#ffffff" stroke="transparent" points="364.5,-187.7 364.5,-206.7 391.5,-206.7 391.5,-187.7 364.5,-187.7"/>
<polygon fill="none" stroke="#000000" points="364.5,-187.7 364.5,-206.7 391.5,-206.7 391.5,-187.7 364.5,-187.7"/>
<text text-anchor="start" x="372.9053" y="-193.8" font-family="Helvetica,sans-Serif" font-size="11.00" fill="#000000">6 &gt;</text>
</a>
</g>
</g>
<!-- customer -->
<g id="node2" class="node">
<title>customer</title>
<g id="a_node2"><a xlink:href="../../tables/customer.html" xlink:title="customer" target="_top">
<polygon fill="#ffffff" stroke="transparent" points="8,-190.2 8,-339.2 100,-339.2 100,-190.2 8,-190.2"/>
<polygon fill="#f5f5f5" stroke="transparent" points="8,-315.7 8,-338.7 100,-338.7 100,-315.7 8,-315.7"/>
<polygon fill="none" stroke="#000000" points="8,-315.7 8,-338.7 100,-338.7 100,-315.7 8,-315.7"/>
<text text-anchor="start" x="13" y="-324.8" font-family="Helvetica,sans-Serif" font-weight="bold" font-size="11.00" fill="#000000">customer</text>
<text text-anchor="start" x="65.0437" y="-323.8" font-family="Helvetica,sans-Serif" font-size="11.00" fill="#000000">[table]</text>
<polygon fill="none" stroke="#000000" points="8,-293.7 8,-315.7 100,-315.7 100,-293.7 8,-293.7"/>
<image xlink:href="../../images/primaryKeys.png" width="11px" height="12px" preserveAspectRatio="xMinYMin meet" x="13" y="-310.7"/>
<text text-anchor="start" x="28" y="-300.8" font-family="Helvetica,sans-Serif" font-size="11.00" fill="#000000">customer_id</text>
<polygon fill="#ffffff" stroke="transparent" points="8,-271.7 8,-293.7 100,-293.7 100,-271.7 8,-271.7"/>
<polygon fill="none" stroke="#000000" points="8,-271.7 8,-293.7 100,-293.7 100,-271.7 8,-271.7"/>
<image xlink:href="../../images/foreignKeys.png" width="11px" height="12px" preserveAspectRatio="xMinYMin meet" x="13" y="-288.7"/>
<text text-anchor="start" x="28" y="-278.8" font-family="Helvetica,sans-Serif" font-size="11.00" fill="#000000">store_id</text>
<polygon fill="#ffffff" stroke="transparent" points="8,-249.7 8,-271.7 100,-271.7 100,-249.7 8,-249.7"/>
<polygon fill="none" stroke="#000000" points="8,-249.7 8,-271.7 100,-271.7 100,-249.7 8,-249.7"/>
<text text-anchor="start" x="28" y="-256.8" font-family="Helvetica,sans-Serif" font-size="11.00" fill="#000000">last_name</text>
<polygon fill="#ffffff" stroke="transparent" points="8,-227.7 8,-249.7 100,-249.7 100,-227.7 8,-227.7"/>
<polygon fill="none" stroke="#000000" points="8,-227.7 8,-249.7 100,-249.7 100,-227.7 8,-227.7"/>
<image xlink:href="../../images/foreignKeys.png" width="11px" height="12px" preserveAspectRatio="xMinYMin meet" x="13" y="-244.7"/>
<text text-anchor="start" x="28" y="-234.8" font-family="Helvetica,sans-Serif" font-size="11.00" fill="#000000">address_id</text>
<polygon fill="none" stroke="#000000" points="8,-208.7 8,-227.7 100,-227.7 100,-208.7 8,-208.7"/>
<text text-anchor="start" x="11" y="-214.8" font-family="Helvetica,sans-Serif" font-size="11.00" fill="#000000">...</text>
<polygon fill="#ffffff" stroke="transparent" points="8,-189.7 8,-208.7 35,-208.7 35,-189.7 8,-189.7"/>
<polygon fill="none" stroke="#000000" points="8,-189.7 8,-208.7 35,-208.7 35,-189.7 8,-189.7"/>
<text text-anchor="start" x="11" y="-195.8" font-family="Helvetica,sans-Serif" font-size="11.00" fill="#000000">&lt; 2</text>
<polygon fill="#ffffff" stroke="transparent" points="35,-189.7 35,-208.7 76,-208.7 76,-189.7 35,-189.7"/>
<polygon fill="none" stroke="#000000" points="35,-189.7 35,-208.7 76,-208.7 76,-189.7 35,-189.7"/>
<text text-anchor="start" x="40.6105" y="-195.8" font-family="Helvetica,sans-Serif" font-size="11.00" fill="#000000">0 rows</text>
<polygon fill="#ffffff" stroke="transparent" points="76,-189.7 76,-208.7 100,-208.7 100,-189.7 76,-189.7"/>
<polygon fill="none" stroke="#000000" points="76,-189.7 76,-208.7 100,-208.7 100,-189.7 76,-189.7"/>
<text text-anchor="start" x="81.4053" y="-195.8" font-family="Helvetica,sans-Serif" font-size="11.00" fill="#000000">8 &gt;</text>
</a>
</g>
</g>
<!-- payment&#45;&gt;customer -->
<g id="edge1" class="edge">
<title>payment:w&#45;&gt;customer:e</title>
<path fill="none" stroke="#000000" d="M276.0251,-281.8471C267.5953,-283.3268 261.5885,-285.9215 249,-287.7 183.0036,-297.0241 166.6519,-304.7 100,-304.7"/>
<polygon fill="#000000" stroke="#000000" points="282.525,-281.332 290.7844,-284.2887 286.5125,-281.016 290.5,-280.7 290.5,-280.7 290.5,-280.7 286.5125,-281.016 290.2156,-277.1113 282.525,-281.332 282.525,-281.332"/>
<ellipse fill="none" stroke="#000000" cx="279.335" cy="-281.5848" rx="3.2" ry="3.2"/>
</g>
<!-- rental -->
<g id="node3" class="node">
<title>rental</title>
<g id="a_node3"><a xlink:href="../../tables/rental.html" xlink:title="rental" target="_top">
<polygon fill="#ffffff" stroke="transparent" points="149,-82.2 149,-253.2 241,-253.2 241,-82.2 149,-82.2"/>
<polygon fill="#f5f5f5" stroke="transparent" points="149,-229.7 149,-252.7 241,-252.7 241,-229.7 149,-229.7"/>
<polygon fill="none" stroke="#000000" points="149,-229.7 149,-252.7 241,-252.7 241,-229.7 149,-229.7"/>
<text text-anchor="start" x="154" y="-238.8" font-family="Helvetica,sans-Serif" font-weight="bold" font-size="11.00" fill="#000000">rental</text>
<text text-anchor="start" x="206.0437" y="-237.8" font-family="Helvetica,sans-Serif" font-size="11.00" fill="#000000">[table]</text>
<polygon fill="none" stroke="#000000" points="149,-207.7 149,-229.7 241,-229.7 241,-207.7 149,-207.7"/>
<image xlink:href="../../images/primaryKeys.png" width="11px" height="12px" preserveAspectRatio="xMinYMin meet" x="154" y="-224.7"/>
<text text-anchor="start" x="169" y="-214.8" font-family="Helvetica,sans-Serif" font-size="11.00" fill="#000000">rental_id</text>
<polygon fill="#ffffff" stroke="transparent" points="149,-185.7 149,-207.7 241,-207.7 241,-185.7 149,-185.7"/>
<polygon fill="none" stroke="#000000" points="149,-185.7 149,-207.7 241,-207.7 241,-185.7 149,-185.7"/>
<text text-anchor="start" x="169" y="-192.8" font-family="Helvetica,sans-Serif" font-size="11.00" fill="#000000">rental_date</text>
<polygon fill="#ffffff" stroke="transparent" points="149,-163.7 149,-185.7 241,-185.7 241,-163.7 149,-163.7"/>
<polygon fill="none" stroke="#000000" points="149,-163.7 149,-185.7 241,-185.7 241,-163.7 149,-163.7"/>
<image xlink:href="../../images/foreignKeys.png" width="11px" height="12px" preserveAspectRatio="xMinYMin meet" x="154" y="-180.7"/>
<text text-anchor="start" x="169" y="-170.8" font-family="Helvetica,sans-Serif" font-size="11.00" fill="#000000">inventory_id</text>
<polygon fill="#ffffff" stroke="transparent" points="149,-141.7 149,-163.7 241,-163.7 241,-141.7 149,-141.7"/>
<polygon fill="none" stroke="#000000" points="149,-141.7 149,-163.7 241,-163.7 241,-141.7 149,-141.7"/>
<image xlink:href="../../images/foreignKeys.png" width="11px" height="12px" preserveAspectRatio="xMinYMin meet" x="154" y="-158.7"/>
<text text-anchor="start" x="169" y="-148.8" font-family="Helvetica,sans-Serif" font-size="11.00" fill="#000000">customer_id</text>
<polygon fill="none" stroke="#000000" points="149,-119.7 149,-141.7 241,-141.7 241,-119.7 149,-119.7"/>
<image xlink:href="../../images/foreignKeys.png" width="11px" height="12px" preserveAspectRatio="xMinYMin meet" x="154" y="-136.7"/>
<text text-anchor="start" x="169" y="-126.8" font-family="Helvetica,sans-Serif" font-size="11.00" fill="#000000">staff_id</text>
<polygon fill="none" stroke="#000000" points="149,-100.7 149,-119.7 241,-119.7 241,-100.7 149,-100.7"/>
<text text-anchor="start" x="152" y="-106.8" font-family="Helvetica,sans-Serif" font-size="11.00" fill="#000000">...</text>
<polygon fill="#ffffff" stroke="transparent" points="149,-81.7 149,-100.7 176,-100.7 176,-81.7 149,-81.7"/>
<polygon fill="none" stroke="#000000" points="149,-81.7 149,-100.7 176,-100.7 176,-81.7 149,-81.7"/>
<text text-anchor="start" x="152" y="-87.8" font-family="Helvetica,sans-Serif" font-size="11.00" fill="#000000">&lt; 3</text>
<polygon fill="#ffffff" stroke="transparent" points="176,-81.7 176,-100.7 217,-100.7 217,-81.7 176,-81.7"/>
<polygon fill="none" stroke="#000000" points="176,-81.7 176,-100.7 217,-100.7 217,-81.7 176,-81.7"/>
<text text-anchor="start" x="181.6105" y="-87.8" font-family="Helvetica,sans-Serif" font-size="11.00" fill="#000000">0 rows</text>
<polygon fill="#ffffff" stroke="transparent" points="217,-81.7 217,-100.7 241,-100.7 241,-81.7 217,-81.7"/>
<polygon fill="none" stroke="#000000" points="217,-81.7 217,-100.7 241,-100.7 241,-81.7 217,-81.7"/>
<text text-anchor="start" x="222.4053" y="-87.8" font-family="Helvetica,sans-Serif" font-size="11.00" fill="#000000">7 &gt;</text>
</a>
</g>
</g>
<!-- payment&#45;&gt;rental -->
<g id="edge2" class="edge">
<title>payment:w&#45;&gt;rental:e</title>
<path fill="none" stroke="#000000" d="M276.1817,-233.8875C264.4545,-228.825 258.557,-218.7 241,-218.7"/>
<polygon fill="#000000" stroke="#000000" points="282.65,-235.158 289.8061,-240.2325 286.575,-235.929 290.5,-236.7 290.5,-236.7 290.5,-236.7 286.575,-235.929 291.1939,-233.1675 282.65,-235.158 282.65,-235.158"/>
<ellipse fill="none" stroke="#000000" cx="279.51" cy="-234.5412" rx="3.2" ry="3.2"/>
</g>
<!-- staff -->
<g id="node4" class="node">
<title>staff</title>
<g id="a_node4"><a xlink:href="../../tables/staff.html" xlink:title="staff" target="_top">
<polygon fill="#ffffff" stroke="transparent" points="10.5,-38.2 10.5,-165.2 97.5,-165.2 97.5,-38.2 10.5,-38.2"/>
<polygon fill="#f5f5f5" stroke="transparent" points="11,-141.7 11,-164.7 98,-164.7 98,-141.7 11,-141.7"/>
<polygon fill="none" stroke="#000000" points="11,-141.7 11,-164.7 98,-164.7 98,-141.7 11,-141.7"/>
<text text-anchor="start" x="16" y="-150.8" font-family="Helvetica,sans-Serif" font-weight="bold" font-size="11.00" fill="#000000">staff</text>
<text text-anchor="start" x="63.0437" y="-149.8" font-family="Helvetica,sans-Serif" font-size="11.00" fill="#000000">[table]</text>
<polygon fill="none" stroke="#000000" points="11,-119.7 11,-141.7 98,-141.7 98,-119.7 11,-119.7"/>
<image xlink:href="../../images/primaryKeys.png" width="11px" height="12px" preserveAspectRatio="xMinYMin meet" x="16" y="-136.7"/>
<text text-anchor="start" x="31" y="-126.8" font-family="Helvetica,sans-Serif" font-size="11.00" fill="#000000">staff_id</text>
<polygon fill="none" stroke="#000000" points="11,-97.7 11,-119.7 98,-119.7 98,-97.7 11,-97.7"/>
<image xlink:href="../../images/foreignKeys.png" width="11px" height="12px" preserveAspectRatio="xMinYMin meet" x="16" y="-114.7"/>
<text text-anchor="start" x="31" y="-104.8" font-family="Helvetica,sans-Serif" font-size="11.00" fill="#000000">address_id</text>
<polygon fill="none" stroke="#000000" points="11,-75.7 11,-97.7 98,-97.7 98,-75.7 11,-75.7"/>
<image xlink:href="../../images/foreignKeys.png" width="11px" height="12px" preserveAspectRatio="xMinYMin meet" x="16" y="-92.7"/>
<text text-anchor="start" x="31" y="-82.8" font-family="Helvetica,sans-Serif" font-size="11.00" fill="#000000">store_id</text>
<polygon fill="none" stroke="#000000" points="11,-56.7 11,-75.7 98,-75.7 98,-56.7 11,-56.7"/>
<text text-anchor="start" x="14" y="-62.8" font-family="Helvetica,sans-Serif" font-size="11.00" fill="#000000">...</text>
<polygon fill="#ffffff" stroke="transparent" points="11,-37.7 11,-56.7 35,-56.7 35,-37.7 11,-37.7"/>
<polygon fill="none" stroke="#000000" points="11,-37.7 11,-56.7 35,-56.7 35,-37.7 11,-37.7"/>
<text text-anchor="start" x="14" y="-43.8" font-family="Helvetica,sans-Serif" font-size="11.00" fill="#000000">&lt; 2</text>
<polygon fill="#ffffff" stroke="transparent" points="35,-37.7 35,-56.7 75,-56.7 75,-37.7 35,-37.7"/>
<polygon fill="none" stroke="#000000" points="35,-37.7 35,-56.7 75,-56.7 75,-37.7 35,-37.7"/>
<text text-anchor="start" x="39.6105" y="-43.8" font-family="Helvetica,sans-Serif" font-size="11.00" fill="#000000">0 rows</text>
<polygon fill="#ffffff" stroke="transparent" points="75,-37.7 75,-56.7 98,-56.7 98,-37.7 75,-37.7"/>
<polygon fill="none" stroke="#000000" points="75,-37.7 75,-56.7 98,-56.7 98,-37.7 75,-37.7"/>
<text text-anchor="start" x="79.4053" y="-43.8" font-family="Helvetica,sans-Serif" font-size="11.00" fill="#000000">9 &gt;</text>
</a>
</g>
</g>
<!-- payment&#45;&gt;staff -->
<g id="edge3" class="edge">
<title>payment:w&#45;&gt;staff:e</title>
<path fill="none" stroke="#000000" d="M275.9285,-259.4116C219.4184,-264.9379 190.6615,-299.8366 141,-263.7 90.7675,-227.148 160.1237,-130.7 98,-130.7"/>
<polygon fill="#000000" stroke="#000000" points="282.5095,-259.0903 290.6756,-262.2957 286.5048,-258.8951 290.5,-258.7 290.5,-258.7 290.5,-258.7 286.5048,-258.8951 290.3244,-255.1043 282.5095,-259.0903 282.5095,-259.0903"/>
<ellipse fill="none" stroke="#000000" cx="279.3133" cy="-259.2464" rx="3.2" ry="3.2"/>
</g>
<!-- rental&#45;&gt;customer -->
<g id="edge8" class="edge">
<title>rental:w&#45;&gt;customer:e</title>
<path fill="none" stroke="#000000" d="M134.661,-155.6007C92.1687,-176.6147 165.1565,-304.7 100,-304.7"/>
<polygon fill="#000000" stroke="#000000" points="141.1588,-154.2863 149.7138,-156.2285 145.0794,-153.4931 149,-152.7 149,-152.7 149,-152.7 145.0794,-153.4931 148.2862,-149.1715 141.1588,-154.2863 141.1588,-154.2863"/>
<ellipse fill="none" stroke="#000000" cx="138.0224" cy="-154.9208" rx="3.2" ry="3.2"/>
</g>
<!-- rental&#45;&gt;staff -->
<g id="edge9" class="edge">
<title>rental:w&#45;&gt;staff:e</title>
<path fill="none" stroke="#000000" d="M134.276,-130.7C122.2815,-130.7 114.8229,-130.7 98,-130.7"/>
<polygon fill="#000000" stroke="#000000" points="141,-130.7001 149,-134.3 145,-130.7 149,-130.7 149,-130.7 149,-130.7 145,-130.7 149,-127.1 141,-130.7001 141,-130.7001"/>
<ellipse fill="none" stroke="#000000" cx="137.8" cy="-130.7001" rx="3.2" ry="3.2"/>
</g>
<!-- payment_p2007_02 -->
<g id="node5" class="node">
<title>payment_p2007_02</title>
<g id="a_node5"><a xlink:href="../../tables/payment_p2007_02.html" xlink:title="payment_p2007_02" target="_top">
<polygon fill="#ffffff" stroke="transparent" points="440,-123.7 440,-301.7 659,-301.7 659,-123.7 440,-123.7"/>
<polygon fill="#f5f5f5" stroke="transparent" points="442.5,-276.7 442.5,-299.7 657.5,-299.7 657.5,-276.7 442.5,-276.7"/>
<polygon fill="none" stroke="#000000" points="442.5,-276.7 442.5,-299.7 657.5,-299.7 657.5,-276.7 442.5,-276.7"/>
<text text-anchor="start" x="447.5" y="-285.8" font-family="Helvetica,sans-Serif" font-weight="bold" font-size="11.00" fill="#000000">payment_p2007_02</text>
<text text-anchor="start" x="622.5437" y="-284.8" font-family="Helvetica,sans-Serif" font-size="11.00" fill="#000000">[table]</text>
<polygon fill="none" stroke="#000000" points="442.5,-254.7 442.5,-276.7 573.5,-276.7 573.5,-254.7 442.5,-254.7"/>
<image xlink:href="../../images/foreignKeys.png" width="11px" height="12px" preserveAspectRatio="xMinYMin meet" x="447.5" y="-271.7"/>
<text text-anchor="start" x="462.5" y="-261.8" font-family="Helvetica,sans-Serif" font-size="11.00" fill="#000000">payment_id</text>
<polygon fill="none" stroke="#000000" points="573.5,-254.7 573.5,-276.7 657.5,-276.7 657.5,-254.7 573.5,-254.7"/>
<text text-anchor="start" x="576.5" y="-262.4" font-family="Helvetica,sans-Serif" font-size="11.00" fill="#000000">serial[10]</text>
<polygon fill="#ffffff" stroke="transparent" points="442.5,-232.7 442.5,-254.7 573.5,-254.7 573.5,-232.7 442.5,-232.7"/>
<polygon fill="none" stroke="#000000" points="442.5,-232.7 442.5,-254.7 573.5,-254.7 573.5,-232.7 442.5,-232.7"/>
<image xlink:href="../../images/foreignKeys.png" width="11px" height="12px" preserveAspectRatio="xMinYMin meet" x="447.5" y="-249.7"/>
<text text-anchor="start" x="462.5" y="-239.8" font-family="Helvetica,sans-Serif" font-size="11.00" fill="#000000">customer_id</text>
<polygon fill="none" stroke="#000000" points="573.5,-232.7 573.5,-254.7 657.5,-254.7 657.5,-232.7 573.5,-232.7"/>
<text text-anchor="start" x="576.5" y="-240.4" font-family="Helvetica,sans-Serif" font-size="11.00" fill="#000000">int2[5]</text>
<polygon fill="#ffffff" stroke="transparent" points="442.5,-210.7 442.5,-232.7 573.5,-232.7 573.5,-210.7 442.5,-210.7"/>
<polygon fill="none" stroke="#000000" points="442.5,-210.7 442.5,-232.7 573.5,-232.7 573.5,-210.7 442.5,-210.7"/>
<image xlink:href="../../images/foreignKeys.png" width="11px" height="12px" preserveAspectRatio="xMinYMin meet" x="447.5" y="-227.7"/>
<text text-anchor="start" x="462.5" y="-217.8" font-family="Helvetica,sans-Serif" font-size="11.00" fill="#000000">staff_id</text>
<polygon fill="none" stroke="#000000" points="573.5,-210.7 573.5,-232.7 657.5,-232.7 657.5,-210.7 573.5,-210.7"/>
<text text-anchor="start" x="576.5" y="-218.4" font-family="Helvetica,sans-Serif" font-size="11.00" fill="#000000">int2[5]</text>
<polygon fill="none" stroke="#000000" points="442.5,-188.7 442.5,-210.7 573.5,-210.7 573.5,-188.7 442.5,-188.7"/>
<image xlink:href="../../images/foreignKeys.png" width="11px" height="12px" preserveAspectRatio="xMinYMin meet" x="447.5" y="-205.7"/>
<text text-anchor="start" x="462.5" y="-195.8" font-family="Helvetica,sans-Serif" font-size="11.00" fill="#000000">rental_id</text>
<polygon fill="none" stroke="#000000" points="573.5,-188.7 573.5,-210.7 657.5,-210.7 657.5,-188.7 573.5,-188.7"/>
<text text-anchor="start" x="576.5" y="-196.4" font-family="Helvetica,sans-Serif" font-size="11.00" fill="#000000">int4[10]</text>
<polygon fill="none" stroke="#000000" points="442.5,-166.7 442.5,-188.7 573.5,-188.7 573.5,-166.7 442.5,-166.7"/>
<text text-anchor="start" x="462.5" y="-173.8" font-family="Helvetica,sans-Serif" font-size="11.00" fill="#000000">amount</text>
<polygon fill="none" stroke="#000000" points="573.5,-166.7 573.5,-188.7 657.5,-188.7 657.5,-166.7 573.5,-166.7"/>
<text text-anchor="start" x="576.5" y="-174.4" font-family="Helvetica,sans-Serif" font-size="11.00" fill="#000000">numeric[5,2]</text>
<polygon fill="none" stroke="#000000" points="442.5,-144.7 442.5,-166.7 573.5,-166.7 573.5,-144.7 442.5,-144.7"/>
<text text-anchor="start" x="462.5" y="-151.8" font-family="Helvetica,sans-Serif" font-size="11.00" fill="#000000">payment_date</text>
<polygon fill="none" stroke="#000000" points="573.5,-144.7 573.5,-166.7 657.5,-166.7 657.5,-144.7 573.5,-144.7"/>
<text text-anchor="start" x="576.3807" y="-152.4" font-family="Helvetica,sans-Serif" font-size="11.00" fill="#000000">timestamp[29,6]</text>
<polygon fill="#ffffff" stroke="transparent" points="442.5,-125.7 442.5,-144.7 499.5,-144.7 499.5,-125.7 442.5,-125.7"/>
<polygon fill="none" stroke="#000000" points="442.5,-125.7 442.5,-144.7 499.5,-144.7 499.5,-125.7 442.5,-125.7"/>
<text text-anchor="start" x="445.5" y="-131.8" font-family="Helvetica,sans-Serif" font-size="11.00" fill="#000000">&lt; 4</text>
<polygon fill="#ffffff" stroke="transparent" points="499.5,-125.7 499.5,-144.7 573.5,-144.7 573.5,-125.7 499.5,-125.7"/>
<polygon fill="none" stroke="#000000" points="499.5,-125.7 499.5,-144.7 573.5,-144.7 573.5,-125.7 499.5,-125.7"/>
<text text-anchor="start" x="538.1105" y="-131.8" font-family="Helvetica,sans-Serif" font-size="11.00" fill="#000000">0 rows</text>
<polygon fill="#ffffff" stroke="transparent" points="573.5,-125.7 573.5,-144.7 657.5,-144.7 657.5,-125.7 573.5,-125.7"/>
<polygon fill="none" stroke="#000000" points="573.5,-125.7 573.5,-144.7 657.5,-144.7 657.5,-125.7 573.5,-125.7"/>
<text text-anchor="start" x="638.9053" y="-131.8" font-family="Helvetica,sans-Serif" font-size="11.00" fill="#000000">0 &gt;</text>
<polygon fill="none" stroke="#000000" stroke-width="2" points="441,-124.7 441,-300.7 658,-300.7 658,-124.7 441,-124.7"/>
</a>
</g>
</g>
<!-- payment_p2007_02&#45;&gt;payment -->
<g id="edge5" class="edge">
<title>payment_p2007_02:w&#45;&gt;payment:e</title>
<path fill="none" stroke="#000000" stroke-dasharray="5,2" d="M428.5658,-269.9444C415.14,-279.6631 413.5965,-302.7 391.5,-302.7"/>
<polygon fill="#000000" stroke="#000000" points="434.8471,-268.0311 443.549,-269.1438 438.6736,-266.8655 442.5,-265.7 442.5,-265.7 442.5,-265.7 438.6736,-266.8655 441.451,-262.2562 434.8471,-268.0311 434.8471,-268.0311"/>
<ellipse fill="none" stroke="#000000" cx="431.786" cy="-268.9635" rx="3.2" ry="3.2"/>
</g>
<!-- payment_p2007_02&#45;&gt;customer -->
<g id="edge4" class="edge">
<title>payment_p2007_02:w&#45;&gt;customer:e</title>
<path fill="none" stroke="#000000" d="M428.2933,-246.8323C402.7774,-261.4527 435.6564,-323.2985 399,-347.7 287.2414,-422.0956 234.2561,-304.7 100,-304.7"/>
<polygon fill="#000000" stroke="#000000" points="434.6876,-245.4225 443.2751,-247.2156 438.5938,-244.5613 442.5,-243.7 442.5,-243.7 442.5,-243.7 438.5938,-244.5613 441.7249,-240.1844 434.6876,-245.4225 434.6876,-245.4225"/>
<ellipse fill="none" stroke="#000000" cx="431.5627" cy="-246.1115" rx="3.2" ry="3.2"/>
</g>
<!-- payment_p2007_02&#45;&gt;rental -->
<g id="edge6" class="edge">
<title>payment_p2007_02:w&#45;&gt;rental:e</title>
<path fill="none" stroke="#000000" d="M428.2637,-196.3154C418.8001,-191.0972 414.1471,-181.3124 399,-177.7 348.4186,-165.6368 330.0417,-157.8005 282,-177.7 258.1915,-187.5618 266.7701,-218.7 241,-218.7"/>
<polygon fill="#000000" stroke="#000000" points="434.7169,-197.8496 441.6673,-203.2024 438.6085,-198.7748 442.5,-199.7 442.5,-199.7 442.5,-199.7 438.6085,-198.7748 443.3327,-196.1976 434.7169,-197.8496 434.7169,-197.8496"/>
<ellipse fill="none" stroke="#000000" cx="431.6037" cy="-197.1094" rx="3.2" ry="3.2"/>
</g>
<!-- payment_p2007_02&#45;&gt;staff -->
<g id="edge7" class="edge">
<title>payment_p2007_02:w&#45;&gt;staff:e</title>
<path fill="none" stroke="#000000" d="M428.4487,-218.1385C413.5373,-208.3453 418.5405,-180.5563 399,-162.7 341.4382,-110.0993 324.0952,-92.6979 249,-71.7 202.7731,-58.7742 183.7845,-49.9402 141,-71.7 112.0781,-86.4094 130.4475,-130.7 98,-130.7"/>
<polygon fill="#000000" stroke="#000000" points="434.7452,-219.7344 441.6155,-225.1896 438.6226,-220.7172 442.5,-221.7 442.5,-221.7 442.5,-221.7 438.6226,-220.7172 443.3845,-218.2104 434.7452,-219.7344 434.7452,-219.7344"/>
<ellipse fill="none" stroke="#000000" cx="431.6433" cy="-218.9481" rx="3.2" ry="3.2"/>
</g>
</g>
</svg>
