<?xml version="1.0" encoding="UTF-8" standalone="no"?>
<!DOCTYPE svg PUBLIC "-//W3C//DTD SVG 1.1//EN"
 "http://www.w3.org/Graphics/SVG/1.1/DTD/svg11.dtd">
<!-- Generated by graphviz version 2.40.1 (20161225.0304)
 -->
<!-- Title: twoDegreesRelationshipsDiagramImplied Pages: 1 -->
<svg width="1071pt" height="688pt"
 viewBox="0.00 0.00 1071.00 687.82" xmlns="http://www.w3.org/2000/svg" xmlns:xlink="http://www.w3.org/1999/xlink">
<g id="graph0" class="graph" transform="scale(1 1) rotate(0) translate(4 683.8211)">
<title>twoDegreesRelationshipsDiagramImplied</title>
<polygon fill="#ffffff" stroke="transparent" points="-4,4 -4,-683.8211 1067,-683.8211 1067,4 -4,4"/>
<text text-anchor="middle" x="72.4936" y="-7.3" font-family="Helvetica,sans-Serif" font-size="11.00" fill="#000000">Generated by SchemaSpy</text>
<!-- customer -->
<g id="node1" class="node">
<title>customer</title>
<g id="a_node1"><a xlink:href="../../tables/customer.html" xlink:title="customer" target="_top">
<polygon fill="#ffffff" stroke="transparent" points="404,-238.3211 404,-387.3211 496,-387.3211 496,-238.3211 404,-238.3211"/>
<polygon fill="#f5f5f5" stroke="transparent" points="404,-363.8211 404,-386.8211 496,-386.8211 496,-363.8211 404,-363.8211"/>
<polygon fill="none" stroke="#000000" points="404,-363.8211 404,-386.8211 496,-386.8211 496,-363.8211 404,-363.8211"/>
<text text-anchor="start" x="409" y="-372.9211" font-family="Helvetica,sans-Serif" font-weight="bold" font-size="11.00" fill="#000000">customer</text>
<text text-anchor="start" x="461.0437" y="-371.9211" font-family="Helvetica,sans-Serif" font-size="11.00" fill="#000000">[table]</text>
<polygon fill="none" stroke="#000000" points="404,-341.8211 404,-363.8211 496,-363.8211 496,-341.8211 404,-341.8211"/>
<image xlink:href="../../images/primaryKeys.png" width="11px" height="12px" preserveAspectRatio="xMinYMin meet" x="409" y="-358.821"/>
<text text-anchor="start" x="424" y="-348.9211" font-family="Helvetica,sans-Serif" font-size="11.00" fill="#000000">customer_id</text>
<polygon fill="#ffffff" stroke="transparent" points="404,-319.8211 404,-341.8211 496,-341.8211 496,-319.8211 404,-319.8211"/>
<polygon fill="none" stroke="#000000" points="404,-319.8211 404,-341.8211 496,-341.8211 496,-319.8211 404,-319.8211"/>
<image xlink:href="../../images/foreignKeys.png" width="11px" height="12px" preserveAspectRatio="xMinYMin meet" x="409" y="-336.821"/>
<text text-anchor="start" x="424" y="-326.9211" font-family="Helvetica,sans-Serif" font-size="11.00" fill="#000000">store_id</text>
<polygon fill="#ffffff" stroke="transparent" points="404,-297.8211 404,-319.8211 496,-319.8211 496,-297.8211 404,-297.8211"/>
<polygon fill="none" stroke="#000000" points="404,-297.8211 404,-319.8211 496,-319.8211 496,-297.8211 404,-297.8211"/>
<text text-anchor="start" x="424" y="-304.9211" font-family="Helvetica,sans-Serif" font-size="11.00" fill="#000000">last_name</text>
<polygon fill="#ffffff" stroke="transparent" points="404,-275.8211 404,-297.8211 496,-297.8211 496,-275.8211 404,-275.8211"/>
<polygon fill="none" stroke="#000000" points="404,-275.8211 404,-297.8211 496,-297.8211 496,-275.8211 404,-275.8211"/>
<image xlink:href="../../images/foreignKeys.png" width="11px" height="12px" preserveAspectRatio="xMinYMin meet" x="409" y="-292.821"/>
<text text-anchor="start" x="424" y="-282.9211" font-family="Helvetica,sans-Serif" font-size="11.00" fill="#000000">address_id</text>
<polygon fill="none" stroke="#000000" points="404,-256.8211 404,-275.8211 496,-275.8211 496,-256.8211 404,-256.8211"/>
<text text-anchor="start" x="407" y="-262.9211" font-family="Helvetica,sans-Serif" font-size="11.00" fill="#000000">...</text>
<polygon fill="#ffffff" stroke="transparent" points="404,-237.8211 404,-256.8211 431,-256.8211 431,-237.8211 404,-237.8211"/>
<polygon fill="none" stroke="#000000" points="404,-237.8211 404,-256.8211 431,-256.8211 431,-237.8211 404,-237.8211"/>
<text text-anchor="start" x="407" y="-243.9211" font-family="Helvetica,sans-Serif" font-size="11.00" fill="#000000">&lt; 2</text>
<polygon fill="#ffffff" stroke="transparent" points="431,-237.8211 431,-256.8211 472,-256.8211 472,-237.8211 431,-237.8211"/>
<polygon fill="none" stroke="#000000" points="431,-237.8211 431,-256.8211 472,-256.8211 472,-237.8211 431,-237.8211"/>
<text text-anchor="start" x="436.6105" y="-243.9211" font-family="Helvetica,sans-Serif" font-size="11.00" fill="#000000">0 rows</text>
<polygon fill="#ffffff" stroke="transparent" points="472,-237.8211 472,-256.8211 496,-256.8211 496,-237.8211 472,-237.8211"/>
<polygon fill="none" stroke="#000000" points="472,-237.8211 472,-256.8211 496,-256.8211 496,-237.8211 472,-237.8211"/>
<text text-anchor="start" x="477.4053" y="-243.9211" font-family="Helvetica,sans-Serif" font-size="11.00" fill="#000000">8 &gt;</text>
</a>
</g>
</g>
<!-- address -->
<g id="node2" class="node">
<title>address</title>
<g id="a_node2"><a xlink:href="../../tables/address.html" xlink:title="address" target="_top">
<polygon fill="#ffffff" stroke="transparent" points="8,-180.3211 8,-241.3211 90,-241.3211 90,-180.3211 8,-180.3211"/>
<polygon fill="#f5f5f5" stroke="transparent" points="8,-217.8211 8,-240.8211 90,-240.8211 90,-217.8211 8,-217.8211"/>
<polygon fill="none" stroke="#000000" points="8,-217.8211 8,-240.8211 90,-240.8211 90,-217.8211 8,-217.8211"/>
<text text-anchor="start" x="12.9393" y="-226.9211" font-family="Helvetica,sans-Serif" font-weight="bold" font-size="11.00" fill="#000000">address</text>
<text text-anchor="start" x="55.5219" y="-225.9211" font-family="Helvetica,sans-Serif" font-size="11.00" fill="#000000">[table]</text>
<polygon fill="none" stroke="#000000" points="8,-198.8211 8,-217.8211 90,-217.8211 90,-198.8211 8,-198.8211"/>
<text text-anchor="start" x="11" y="-204.9211" font-family="Helvetica,sans-Serif" font-size="11.00" fill="#000000">...</text>
<polygon fill="#ffffff" stroke="transparent" points="8,-179.8211 8,-198.8211 30,-198.8211 30,-179.8211 8,-179.8211"/>
<polygon fill="none" stroke="#000000" points="8,-179.8211 8,-198.8211 30,-198.8211 30,-179.8211 8,-179.8211"/>
<text text-anchor="start" x="11" y="-185.9211" font-family="Helvetica,sans-Serif" font-size="11.00" fill="#000000">&lt; 1</text>
<polygon fill="#ffffff" stroke="transparent" points="30,-179.8211 30,-198.8211 68,-198.8211 68,-179.8211 30,-179.8211"/>
<polygon fill="none" stroke="#000000" points="30,-179.8211 30,-198.8211 68,-198.8211 68,-179.8211 30,-179.8211"/>
<text text-anchor="start" x="32.8053" y="-185.9211" font-family="Helvetica,sans-Serif" font-size="11.00" fill="#000000">0 rows</text>
<polygon fill="#ffffff" stroke="transparent" points="68,-179.8211 68,-198.8211 90,-198.8211 90,-179.8211 68,-179.8211"/>
<polygon fill="none" stroke="#000000" points="68,-179.8211 68,-198.8211 90,-198.8211 90,-179.8211 68,-179.8211"/>
<text text-anchor="start" x="71.4053" y="-185.9211" font-family="Helvetica,sans-Serif" font-size="11.00" fill="#000000">3 &gt;</text>
</a>
</g>
</g>
<!-- customer&#45;&gt;address -->
<g id="edge1" class="edge">
<title>customer:w&#45;&gt;address:e</title>
<path fill="none" stroke="#000000" d="M389.4229,-287.0607C278.6025,-290.7097 231.326,-333.9798 131,-274.8211 100.928,-257.0886 124.9108,-207.8211 90,-207.8211"/>
<polygon fill="#000000" stroke="#000000" points="396.0011,-286.9526 404.0592,-290.4206 400.0005,-286.8868 404,-286.8211 404,-286.8211 404,-286.8211 400.0005,-286.8868 403.9408,-283.2215 396.0011,-286.9526 396.0011,-286.9526"/>
<ellipse fill="none" stroke="#000000" cx="392.8015" cy="-287.0052" rx="3.2" ry="3.2"/>
</g>
<!-- store -->
<g id="node3" class="node">
<title>store</title>
<g id="a_node3"><a xlink:href="../../tables/store.html" xlink:title="store" target="_top">
<polygon fill="#ffffff" stroke="transparent" points="275,-101.3211 275,-162.3211 355,-162.3211 355,-101.3211 275,-101.3211"/>
<polygon fill="#f5f5f5" stroke="transparent" points="275,-138.8211 275,-161.8211 355,-161.8211 355,-138.8211 275,-138.8211"/>
<polygon fill="none" stroke="#000000" points="275,-138.8211 275,-161.8211 355,-161.8211 355,-138.8211 275,-138.8211"/>
<text text-anchor="start" x="280" y="-147.9211" font-family="Helvetica,sans-Serif" font-weight="bold" font-size="11.00" fill="#000000">store</text>
<text text-anchor="start" x="320.0437" y="-146.9211" font-family="Helvetica,sans-Serif" font-size="11.00" fill="#000000">[table]</text>
<polygon fill="none" stroke="#000000" points="275,-119.8211 275,-138.8211 355,-138.8211 355,-119.8211 275,-119.8211"/>
<text text-anchor="start" x="278" y="-125.9211" font-family="Helvetica,sans-Serif" font-size="11.00" fill="#000000">...</text>
<polygon fill="#ffffff" stroke="transparent" points="275,-100.8211 275,-119.8211 296,-119.8211 296,-100.8211 275,-100.8211"/>
<polygon fill="none" stroke="#000000" points="275,-100.8211 275,-119.8211 296,-119.8211 296,-100.8211 275,-100.8211"/>
<text text-anchor="start" x="277.7027" y="-106.9211" font-family="Helvetica,sans-Serif" font-size="11.00" fill="#000000">&lt; 2</text>
<polygon fill="#ffffff" stroke="transparent" points="296,-100.8211 296,-119.8211 334,-119.8211 334,-100.8211 296,-100.8211"/>
<polygon fill="none" stroke="#000000" points="296,-100.8211 296,-119.8211 334,-119.8211 334,-100.8211 296,-100.8211"/>
<text text-anchor="start" x="298.8053" y="-106.9211" font-family="Helvetica,sans-Serif" font-size="11.00" fill="#000000">0 rows</text>
<polygon fill="#ffffff" stroke="transparent" points="334,-100.8211 334,-119.8211 355,-119.8211 355,-100.8211 334,-100.8211"/>
<polygon fill="none" stroke="#000000" points="334,-100.8211 334,-119.8211 355,-119.8211 355,-100.8211 334,-100.8211"/>
<text text-anchor="start" x="336.7027" y="-106.9211" font-family="Helvetica,sans-Serif" font-size="11.00" fill="#000000">3 &gt;</text>
</a>
</g>
</g>
<!-- customer&#45;&gt;store -->
<g id="edge2" class="edge">
<title>customer:w&#45;&gt;store:e</title>
<path fill="none" stroke="#000000" d="M389.6276,-328.6892C327.2223,-307.1006 441.788,-128.8211 355,-128.8211"/>
<polygon fill="#000000" stroke="#000000" points="396.0866,-329.6472 403.4718,-334.3821 400.0433,-330.2341 404,-330.8211 404,-330.8211 404,-330.8211 400.0433,-330.2341 404.5282,-327.26 396.0866,-329.6472 396.0866,-329.6472"/>
<ellipse fill="none" stroke="#000000" cx="392.9212" cy="-329.1777" rx="3.2" ry="3.2"/>
</g>
<!-- store&#45;&gt;address -->
<g id="edge36" class="edge">
<title>store:w&#45;&gt;address:e</title>
<path fill="none" stroke="#000000" d="M260.3303,-128.1915C206.7292,-123.5756 181.163,-95.9891 131,-126.8211 96.6249,-147.9492 130.3491,-207.8211 90,-207.8211"/>
<polygon fill="#000000" stroke="#000000" points="267.0074,-128.478 274.8456,-132.4177 271.0037,-128.6495 275,-128.8211 275,-128.8211 275,-128.8211 271.0037,-128.6495 275.1544,-125.2244 267.0074,-128.478 267.0074,-128.478"/>
<ellipse fill="none" stroke="#000000" cx="263.8103" cy="-128.3408" rx="3.2" ry="3.2"/>
</g>
<!-- staff -->
<g id="node7" class="node">
<title>staff</title>
<g id="a_node7"><a xlink:href="../../tables/staff.html" xlink:title="staff" target="_top">
<polygon fill="#ffffff" stroke="transparent" points="139,-137.3211 139,-264.3211 226,-264.3211 226,-137.3211 139,-137.3211"/>
<polygon fill="#f5f5f5" stroke="transparent" points="139.5,-240.8211 139.5,-263.8211 226.5,-263.8211 226.5,-240.8211 139.5,-240.8211"/>
<polygon fill="none" stroke="#000000" points="139.5,-240.8211 139.5,-263.8211 226.5,-263.8211 226.5,-240.8211 139.5,-240.8211"/>
<text text-anchor="start" x="144.5" y="-249.9211" font-family="Helvetica,sans-Serif" font-weight="bold" font-size="11.00" fill="#000000">staff</text>
<text text-anchor="start" x="191.5437" y="-248.9211" font-family="Helvetica,sans-Serif" font-size="11.00" fill="#000000">[table]</text>
<polygon fill="none" stroke="#000000" points="139.5,-218.8211 139.5,-240.8211 226.5,-240.8211 226.5,-218.8211 139.5,-218.8211"/>
<image xlink:href="../../images/primaryKeys.png" width="11px" height="12px" preserveAspectRatio="xMinYMin meet" x="144.5" y="-235.821"/>
<text text-anchor="start" x="159.5" y="-225.9211" font-family="Helvetica,sans-Serif" font-size="11.00" fill="#000000">staff_id</text>
<polygon fill="none" stroke="#000000" points="139.5,-196.8211 139.5,-218.8211 226.5,-218.8211 226.5,-196.8211 139.5,-196.8211"/>
<image xlink:href="../../images/foreignKeys.png" width="11px" height="12px" preserveAspectRatio="xMinYMin meet" x="144.5" y="-213.821"/>
<text text-anchor="start" x="159.5" y="-203.9211" font-family="Helvetica,sans-Serif" font-size="11.00" fill="#000000">address_id</text>
<polygon fill="none" stroke="#000000" points="139.5,-174.8211 139.5,-196.8211 226.5,-196.8211 226.5,-174.8211 139.5,-174.8211"/>
<image xlink:href="../../images/foreignKeys.png" width="11px" height="12px" preserveAspectRatio="xMinYMin meet" x="144.5" y="-191.821"/>
<text text-anchor="start" x="159.5" y="-181.9211" font-family="Helvetica,sans-Serif" font-size="11.00" fill="#000000">store_id</text>
<polygon fill="none" stroke="#000000" points="139.5,-155.8211 139.5,-174.8211 226.5,-174.8211 226.5,-155.8211 139.5,-155.8211"/>
<text text-anchor="start" x="142.5" y="-161.9211" font-family="Helvetica,sans-Serif" font-size="11.00" fill="#000000">...</text>
<polygon fill="#ffffff" stroke="transparent" points="139.5,-136.8211 139.5,-155.8211 163.5,-155.8211 163.5,-136.8211 139.5,-136.8211"/>
<polygon fill="none" stroke="#000000" points="139.5,-136.8211 139.5,-155.8211 163.5,-155.8211 163.5,-136.8211 139.5,-136.8211"/>
<text text-anchor="start" x="142.5" y="-142.9211" font-family="Helvetica,sans-Serif" font-size="11.00" fill="#000000">&lt; 2</text>
<polygon fill="#ffffff" stroke="transparent" points="163.5,-136.8211 163.5,-155.8211 203.5,-155.8211 203.5,-136.8211 163.5,-136.8211"/>
<polygon fill="none" stroke="#000000" points="163.5,-136.8211 163.5,-155.8211 203.5,-155.8211 203.5,-136.8211 163.5,-136.8211"/>
<text text-anchor="start" x="168.1105" y="-142.9211" font-family="Helvetica,sans-Serif" font-size="11.00" fill="#000000">0 rows</text>
<polygon fill="#ffffff" stroke="transparent" points="203.5,-136.8211 203.5,-155.8211 226.5,-155.8211 226.5,-136.8211 203.5,-136.8211"/>
<polygon fill="none" stroke="#000000" points="203.5,-136.8211 203.5,-155.8211 226.5,-155.8211 226.5,-136.8211 203.5,-136.8211"/>
<text text-anchor="start" x="207.9053" y="-142.9211" font-family="Helvetica,sans-Serif" font-size="11.00" fill="#000000">9 &gt;</text>
</a>
</g>
</g>
<!-- store&#45;&gt;staff -->
<g id="edge37" class="edge">
<title>store:w&#45;&gt;staff:e</title>
<path fill="none" stroke="#000000" d="M264.6708,-130.7485C232.9073,-144.7117 272.2113,-229.8211 226.5,-229.8211"/>
<polygon fill="#000000" stroke="#000000" points="273.4798,-125.0357 274.9473,-132.8999 273.3745,-133.1934 271.907,-125.3292 273.4798,-125.0357"/>
<polyline fill="none" stroke="#000000" points="275,-128.8211 271.0679,-129.5548 "/>
<ellipse fill="none" stroke="#000000" cx="267.9222" cy="-130.1418" rx="3.2" ry="3.2"/>
</g>
<!-- inventory -->
<g id="node4" class="node">
<title>inventory</title>
<g id="a_node4"><a xlink:href="../../tables/inventory.html" xlink:title="inventory" target="_top">
<polygon fill="#ffffff" stroke="transparent" points="406.5,-128.3211 406.5,-189.3211 493.5,-189.3211 493.5,-128.3211 406.5,-128.3211"/>
<polygon fill="#f5f5f5" stroke="transparent" points="407,-165.8211 407,-188.8211 494,-188.8211 494,-165.8211 407,-165.8211"/>
<polygon fill="none" stroke="#000000" points="407,-165.8211 407,-188.8211 494,-188.8211 494,-165.8211 407,-165.8211"/>
<text text-anchor="start" x="411.6904" y="-174.9211" font-family="Helvetica,sans-Serif" font-weight="bold" font-size="11.00" fill="#000000">inventory</text>
<text text-anchor="start" x="459.5219" y="-173.9211" font-family="Helvetica,sans-Serif" font-size="11.00" fill="#000000">[table]</text>
<polygon fill="none" stroke="#000000" points="407,-146.8211 407,-165.8211 494,-165.8211 494,-146.8211 407,-146.8211"/>
<text text-anchor="start" x="410" y="-152.9211" font-family="Helvetica,sans-Serif" font-size="11.00" fill="#000000">...</text>
<polygon fill="#ffffff" stroke="transparent" points="407,-127.8211 407,-146.8211 431,-146.8211 431,-127.8211 407,-127.8211"/>
<polygon fill="none" stroke="#000000" points="407,-127.8211 407,-146.8211 431,-146.8211 431,-127.8211 407,-127.8211"/>
<text text-anchor="start" x="410" y="-133.9211" font-family="Helvetica,sans-Serif" font-size="11.00" fill="#000000">&lt; 2</text>
<polygon fill="#ffffff" stroke="transparent" points="431,-127.8211 431,-146.8211 471,-146.8211 471,-127.8211 431,-127.8211"/>
<polygon fill="none" stroke="#000000" points="431,-127.8211 431,-146.8211 471,-146.8211 471,-127.8211 431,-127.8211"/>
<text text-anchor="start" x="435.6105" y="-133.9211" font-family="Helvetica,sans-Serif" font-size="11.00" fill="#000000">0 rows</text>
<polygon fill="#ffffff" stroke="transparent" points="471,-127.8211 471,-146.8211 494,-146.8211 494,-127.8211 471,-127.8211"/>
<polygon fill="none" stroke="#000000" points="471,-127.8211 471,-146.8211 494,-146.8211 494,-127.8211 471,-127.8211"/>
<text text-anchor="start" x="475.4053" y="-133.9211" font-family="Helvetica,sans-Serif" font-size="11.00" fill="#000000">1 &gt;</text>
</a>
</g>
</g>
<!-- inventory&#45;&gt;store -->
<g id="edge3" class="edge">
<title>inventory:w&#45;&gt;store:e</title>
<path fill="none" stroke="#000000" d="M392.7154,-152.2913C379.6553,-144.9726 375.1409,-128.8211 355,-128.8211"/>
<polygon fill="#000000" stroke="#000000" points="399.2336,-153.9019 406.1364,-159.3159 403.1168,-154.8615 407,-155.8211 407,-155.8211 407,-155.8211 403.1168,-154.8615 407.8636,-152.3262 399.2336,-153.9019 399.2336,-153.9019"/>
<ellipse fill="none" stroke="#000000" cx="396.127" cy="-153.1342" rx="3.2" ry="3.2"/>
</g>
<!-- payment -->
<g id="node5" class="node">
<title>payment</title>
<g id="a_node5"><a xlink:href="../../tables/payment.html" xlink:title="payment" target="_top">
<polygon fill="#ffffff" stroke="transparent" points="686,-317.3211 686,-466.3211 787,-466.3211 787,-317.3211 686,-317.3211"/>
<polygon fill="#f5f5f5" stroke="transparent" points="686.5,-442.8211 686.5,-465.8211 787.5,-465.8211 787.5,-442.8211 686.5,-442.8211"/>
<polygon fill="none" stroke="#000000" points="686.5,-442.8211 686.5,-465.8211 787.5,-465.8211 787.5,-442.8211 686.5,-442.8211"/>
<text text-anchor="start" x="691.5" y="-451.9211" font-family="Helvetica,sans-Serif" font-weight="bold" font-size="11.00" fill="#000000">payment</text>
<text text-anchor="start" x="752.5437" y="-450.9211" font-family="Helvetica,sans-Serif" font-size="11.00" fill="#000000">[table]</text>
<polygon fill="none" stroke="#000000" points="686.5,-420.8211 686.5,-442.8211 787.5,-442.8211 787.5,-420.8211 686.5,-420.8211"/>
<image xlink:href="../../images/primaryKeys.png" width="11px" height="12px" preserveAspectRatio="xMinYMin meet" x="691.5" y="-437.821"/>
<text text-anchor="start" x="706.5" y="-427.9211" font-family="Helvetica,sans-Serif" font-size="11.00" fill="#000000">payment_id</text>
<polygon fill="#ffffff" stroke="transparent" points="686.5,-398.8211 686.5,-420.8211 787.5,-420.8211 787.5,-398.8211 686.5,-398.8211"/>
<polygon fill="none" stroke="#000000" points="686.5,-398.8211 686.5,-420.8211 787.5,-420.8211 787.5,-398.8211 686.5,-398.8211"/>
<image xlink:href="../../images/foreignKeys.png" width="11px" height="12px" preserveAspectRatio="xMinYMin meet" x="691.5" y="-415.821"/>
<text text-anchor="start" x="706.5" y="-405.9211" font-family="Helvetica,sans-Serif" font-size="11.00" fill="#000000">customer_id</text>
<polygon fill="#ffffff" stroke="transparent" points="686.5,-376.8211 686.5,-398.8211 787.5,-398.8211 787.5,-376.8211 686.5,-376.8211"/>
<polygon fill="none" stroke="#000000" points="686.5,-376.8211 686.5,-398.8211 787.5,-398.8211 787.5,-376.8211 686.5,-376.8211"/>
<image xlink:href="../../images/foreignKeys.png" width="11px" height="12px" preserveAspectRatio="xMinYMin meet" x="691.5" y="-393.821"/>
<text text-anchor="start" x="706.5" y="-383.9211" font-family="Helvetica,sans-Serif" font-size="11.00" fill="#000000">staff_id</text>
<polygon fill="none" stroke="#000000" points="686.5,-354.8211 686.5,-376.8211 787.5,-376.8211 787.5,-354.8211 686.5,-354.8211"/>
<image xlink:href="../../images/foreignKeys.png" width="11px" height="12px" preserveAspectRatio="xMinYMin meet" x="691.5" y="-371.821"/>
<text text-anchor="start" x="706.5" y="-361.9211" font-family="Helvetica,sans-Serif" font-size="11.00" fill="#000000">rental_id</text>
<polygon fill="none" stroke="#000000" points="686.5,-335.8211 686.5,-354.8211 787.5,-354.8211 787.5,-335.8211 686.5,-335.8211"/>
<text text-anchor="start" x="689.5" y="-341.9211" font-family="Helvetica,sans-Serif" font-size="11.00" fill="#000000">...</text>
<polygon fill="#ffffff" stroke="transparent" points="686.5,-316.8211 686.5,-335.8211 717.5,-335.8211 717.5,-316.8211 686.5,-316.8211"/>
<polygon fill="none" stroke="#000000" points="686.5,-316.8211 686.5,-335.8211 717.5,-335.8211 717.5,-316.8211 686.5,-316.8211"/>
<text text-anchor="start" x="689.5" y="-322.9211" font-family="Helvetica,sans-Serif" font-size="11.00" fill="#000000">&lt; 3</text>
<polygon fill="#ffffff" stroke="transparent" points="717.5,-316.8211 717.5,-335.8211 760.5,-335.8211 760.5,-316.8211 717.5,-316.8211"/>
<polygon fill="none" stroke="#000000" points="717.5,-316.8211 717.5,-335.8211 760.5,-335.8211 760.5,-316.8211 717.5,-316.8211"/>
<text text-anchor="start" x="725.1105" y="-322.9211" font-family="Helvetica,sans-Serif" font-size="11.00" fill="#000000">0 rows</text>
<polygon fill="#ffffff" stroke="transparent" points="760.5,-316.8211 760.5,-335.8211 787.5,-335.8211 787.5,-316.8211 760.5,-316.8211"/>
<polygon fill="none" stroke="#000000" points="760.5,-316.8211 760.5,-335.8211 787.5,-335.8211 787.5,-316.8211 760.5,-316.8211"/>
<text text-anchor="start" x="768.9053" y="-322.9211" font-family="Helvetica,sans-Serif" font-size="11.00" fill="#000000">6 &gt;</text>
</a>
</g>
</g>
<!-- payment&#45;&gt;customer -->
<g id="edge4" class="edge">
<title>payment:w&#45;&gt;customer:e</title>
<path fill="none" stroke="#000000" d="M671.915,-409.9042C615.8796,-410.5061 593.4899,-413.4802 537,-387.8211 515.1861,-377.9126 519.9588,-352.8211 496,-352.8211"/>
<polygon fill="#000000" stroke="#000000" points="678.5001,-409.8667 686.5205,-413.421 682.5001,-409.8439 686.5,-409.8211 686.5,-409.8211 686.5,-409.8211 682.5001,-409.8439 686.4795,-406.2211 678.5001,-409.8667 678.5001,-409.8667"/>
<ellipse fill="none" stroke="#000000" cx="675.3002" cy="-409.885" rx="3.2" ry="3.2"/>
</g>
<!-- rental -->
<g id="node6" class="node">
<title>rental</title>
<g id="a_node6"><a xlink:href="../../tables/rental.html" xlink:title="rental" target="_top">
<polygon fill="#ffffff" stroke="transparent" points="545,-182.3211 545,-353.3211 637,-353.3211 637,-182.3211 545,-182.3211"/>
<polygon fill="#f5f5f5" stroke="transparent" points="545,-329.8211 545,-352.8211 637,-352.8211 637,-329.8211 545,-329.8211"/>
<polygon fill="none" stroke="#000000" points="545,-329.8211 545,-352.8211 637,-352.8211 637,-329.8211 545,-329.8211"/>
<text text-anchor="start" x="550" y="-338.9211" font-family="Helvetica,sans-Serif" font-weight="bold" font-size="11.00" fill="#000000">rental</text>
<text text-anchor="start" x="602.0437" y="-337.9211" font-family="Helvetica,sans-Serif" font-size="11.00" fill="#000000">[table]</text>
<polygon fill="none" stroke="#000000" points="545,-307.8211 545,-329.8211 637,-329.8211 637,-307.8211 545,-307.8211"/>
<image xlink:href="../../images/primaryKeys.png" width="11px" height="12px" preserveAspectRatio="xMinYMin meet" x="550" y="-324.821"/>
<text text-anchor="start" x="565" y="-314.9211" font-family="Helvetica,sans-Serif" font-size="11.00" fill="#000000">rental_id</text>
<polygon fill="#ffffff" stroke="transparent" points="545,-285.8211 545,-307.8211 637,-307.8211 637,-285.8211 545,-285.8211"/>
<polygon fill="none" stroke="#000000" points="545,-285.8211 545,-307.8211 637,-307.8211 637,-285.8211 545,-285.8211"/>
<text text-anchor="start" x="565" y="-292.9211" font-family="Helvetica,sans-Serif" font-size="11.00" fill="#000000">rental_date</text>
<polygon fill="#ffffff" stroke="transparent" points="545,-263.8211 545,-285.8211 637,-285.8211 637,-263.8211 545,-263.8211"/>
<polygon fill="none" stroke="#000000" points="545,-263.8211 545,-285.8211 637,-285.8211 637,-263.8211 545,-263.8211"/>
<image xlink:href="../../images/foreignKeys.png" width="11px" height="12px" preserveAspectRatio="xMinYMin meet" x="550" y="-280.821"/>
<text text-anchor="start" x="565" y="-270.9211" font-family="Helvetica,sans-Serif" font-size="11.00" fill="#000000">inventory_id</text>
<polygon fill="#ffffff" stroke="transparent" points="545,-241.8211 545,-263.8211 637,-263.8211 637,-241.8211 545,-241.8211"/>
<polygon fill="none" stroke="#000000" points="545,-241.8211 545,-263.8211 637,-263.8211 637,-241.8211 545,-241.8211"/>
<image xlink:href="../../images/foreignKeys.png" width="11px" height="12px" preserveAspectRatio="xMinYMin meet" x="550" y="-258.821"/>
<text text-anchor="start" x="565" y="-248.9211" font-family="Helvetica,sans-Serif" font-size="11.00" fill="#000000">customer_id</text>
<polygon fill="none" stroke="#000000" points="545,-219.8211 545,-241.8211 637,-241.8211 637,-219.8211 545,-219.8211"/>
<image xlink:href="../../images/foreignKeys.png" width="11px" height="12px" preserveAspectRatio="xMinYMin meet" x="550" y="-236.821"/>
<text text-anchor="start" x="565" y="-226.9211" font-family="Helvetica,sans-Serif" font-size="11.00" fill="#000000">staff_id</text>
<polygon fill="none" stroke="#000000" points="545,-200.8211 545,-219.8211 637,-219.8211 637,-200.8211 545,-200.8211"/>
<text text-anchor="start" x="548" y="-206.9211" font-family="Helvetica,sans-Serif" font-size="11.00" fill="#000000">...</text>
<polygon fill="#ffffff" stroke="transparent" points="545,-181.8211 545,-200.8211 572,-200.8211 572,-181.8211 545,-181.8211"/>
<polygon fill="none" stroke="#000000" points="545,-181.8211 545,-200.8211 572,-200.8211 572,-181.8211 545,-181.8211"/>
<text text-anchor="start" x="548" y="-187.9211" font-family="Helvetica,sans-Serif" font-size="11.00" fill="#000000">&lt; 3</text>
<polygon fill="#ffffff" stroke="transparent" points="572,-181.8211 572,-200.8211 613,-200.8211 613,-181.8211 572,-181.8211"/>
<polygon fill="none" stroke="#000000" points="572,-181.8211 572,-200.8211 613,-200.8211 613,-181.8211 572,-181.8211"/>
<text text-anchor="start" x="577.6105" y="-187.9211" font-family="Helvetica,sans-Serif" font-size="11.00" fill="#000000">0 rows</text>
<polygon fill="#ffffff" stroke="transparent" points="613,-181.8211 613,-200.8211 637,-200.8211 637,-181.8211 613,-181.8211"/>
<polygon fill="none" stroke="#000000" points="613,-181.8211 613,-200.8211 637,-200.8211 637,-181.8211 613,-181.8211"/>
<text text-anchor="start" x="618.4053" y="-187.9211" font-family="Helvetica,sans-Serif" font-size="11.00" fill="#000000">7 &gt;</text>
</a>
</g>
</g>
<!-- payment&#45;&gt;rental -->
<g id="edge5" class="edge">
<title>payment:w&#45;&gt;rental:e</title>
<path fill="none" stroke="#000000" d="M672.8564,-361.1427C658.9443,-349.2546 661.412,-318.8211 637,-318.8211"/>
<polygon fill="#000000" stroke="#000000" points="678.9325,-363.2262 685.3323,-369.2264 682.7163,-364.5236 686.5,-365.8211 686.5,-365.8211 686.5,-365.8211 682.7163,-364.5236 687.6677,-362.4157 678.9325,-363.2262 678.9325,-363.2262"/>
<ellipse fill="none" stroke="#000000" cx="675.9055" cy="-362.1882" rx="3.2" ry="3.2"/>
</g>
<!-- payment&#45;&gt;staff -->
<g id="edge6" class="edge">
<title>payment:w&#45;&gt;staff:e</title>
<path fill="none" stroke="#000000" d="M671.7508,-388.0819C553.9245,-392.2786 510.7968,-445.0729 396,-397.8211 346.9584,-377.6349 279.5335,-229.8211 226.5,-229.8211"/>
<polygon fill="#000000" stroke="#000000" points="678.5013,-387.9626 686.5637,-391.4205 682.5006,-387.8918 686.5,-387.8211 686.5,-387.8211 686.5,-387.8211 682.5006,-387.8918 686.4363,-384.2216 678.5013,-387.9626 678.5013,-387.9626"/>
<ellipse fill="none" stroke="#000000" cx="675.3018" cy="-388.0192" rx="3.2" ry="3.2"/>
</g>
<!-- rental&#45;&gt;customer -->
<g id="edge31" class="edge">
<title>rental:w&#45;&gt;customer:e</title>
<path fill="none" stroke="#000000" d="M531.043,-256.865C506.1541,-275.5734 539.4999,-352.8211 496,-352.8211"/>
<polygon fill="#000000" stroke="#000000" points="537.316,-255.0475 546.0019,-256.2788 541.158,-253.9343 545,-252.8211 545,-252.8211 545,-252.8211 541.158,-253.9343 543.9981,-249.3633 537.316,-255.0475 537.316,-255.0475"/>
<ellipse fill="none" stroke="#000000" cx="534.2425" cy="-255.9381" rx="3.2" ry="3.2"/>
</g>
<!-- rental&#45;&gt;inventory -->
<g id="edge32" class="edge">
<title>rental:w&#45;&gt;inventory:e</title>
<path fill="none" stroke="#000000" d="M530.9767,-271.388C499.2209,-251.8767 545.6973,-155.8211 494,-155.8211"/>
<polygon fill="#000000" stroke="#000000" points="537.2295,-272.9187 544.1439,-278.3178 541.1147,-273.8699 545,-274.8211 545,-274.8211 545,-274.8211 541.1147,-273.8699 545.8561,-271.3243 537.2295,-272.9187 537.2295,-272.9187"/>
<ellipse fill="none" stroke="#000000" cx="534.1213" cy="-272.1577" rx="3.2" ry="3.2"/>
</g>
<!-- rental&#45;&gt;staff -->
<g id="edge33" class="edge">
<title>rental:w&#45;&gt;staff:e</title>
<path fill="none" stroke="#000000" d="M530.4975,-230.2088C522.3109,-229.4694 516.2676,-228.2693 504,-227.8211 380.7457,-223.3178 349.8365,-229.8211 226.5,-229.8211"/>
<polygon fill="#000000" stroke="#000000" points="537.0071,-230.4836 544.8481,-234.4179 541.0036,-230.6523 545,-230.8211 545,-230.8211 545,-230.8211 541.0036,-230.6523 545.1519,-227.2243 537.0071,-230.4836 537.0071,-230.4836"/>
<ellipse fill="none" stroke="#000000" cx="533.81" cy="-230.3486" rx="3.2" ry="3.2"/>
</g>
<!-- staff&#45;&gt;address -->
<g id="edge34" class="edge">
<title>staff:w&#45;&gt;address:e</title>
<path fill="none" stroke="#000000" d="M124.8428,-207.8211C113.4139,-207.8211 106.1563,-207.8211 90,-207.8211"/>
<polygon fill="#000000" stroke="#000000" points="131.5,-207.8211 139.5,-211.4211 135.5,-207.8211 139.5,-207.8211 139.5,-207.8211 139.5,-207.8211 135.5,-207.8211 139.5,-204.2211 131.5,-207.8211 131.5,-207.8211"/>
<ellipse fill="none" stroke="#000000" cx="128.3" cy="-207.8211" rx="3.2" ry="3.2"/>
</g>
<!-- staff&#45;&gt;store -->
<g id="edge35" class="edge">
<title>staff:w&#45;&gt;store:e</title>
<path fill="none" stroke="#000000" d="M126.6907,-178.6778C121.1913,-167.5046 128.3806,-145.8757 139.5,-133.3211 153.5262,-117.4845 214.3531,-129.6652 234,-121.8211 250.9647,-115.0478 249.6565,-103.0554 267,-97.3211 267,-97.3211 355,-128.8211 355,-128.8211"/>
<polygon fill="#000000" stroke="#000000" points="132.513,-181.9246 137.7466,-188.9652 136.0065,-183.8729 139.5,-185.8211 139.5,-185.8211 139.5,-185.8211 136.0065,-183.8729 141.2534,-182.6769 132.513,-181.9246 132.513,-181.9246"/>
<ellipse fill="none" stroke="#000000" cx="129.7182" cy="-180.3661" rx="3.2" ry="3.2"/>
</g>
<!-- payment_p2007_01 -->
<g id="node8" class="node">
<title>payment_p2007_01</title>
<g id="a_node8"><a xlink:href="../../tables/payment_p2007_01.html" xlink:title="payment_p2007_01" target="_top">
<polygon fill="#ffffff" stroke="transparent" points="836,-215.8211 836,-393.8211 1055,-393.8211 1055,-215.8211 836,-215.8211"/>
<polygon fill="#f5f5f5" stroke="transparent" points="838.5,-368.8211 838.5,-391.8211 1053.5,-391.8211 1053.5,-368.8211 838.5,-368.8211"/>
<polygon fill="none" stroke="#000000" points="838.5,-368.8211 838.5,-391.8211 1053.5,-391.8211 1053.5,-368.8211 838.5,-368.8211"/>
<text text-anchor="start" x="843.5" y="-377.9211" font-family="Helvetica,sans-Serif" font-weight="bold" font-size="11.00" fill="#000000">payment_p2007_01</text>
<text text-anchor="start" x="1018.5437" y="-376.9211" font-family="Helvetica,sans-Serif" font-size="11.00" fill="#000000">[table]</text>
<polygon fill="none" stroke="#000000" points="838.5,-346.8211 838.5,-368.8211 969.5,-368.8211 969.5,-346.8211 838.5,-346.8211"/>
<image xlink:href="../../images/foreignKeys.png" width="11px" height="12px" preserveAspectRatio="xMinYMin meet" x="843.5" y="-363.821"/>
<text text-anchor="start" x="858.5" y="-353.9211" font-family="Helvetica,sans-Serif" font-size="11.00" fill="#000000">payment_id</text>
<polygon fill="none" stroke="#000000" points="969.5,-346.8211 969.5,-368.8211 1053.5,-368.8211 1053.5,-346.8211 969.5,-346.8211"/>
<text text-anchor="start" x="972.5" y="-354.5211" font-family="Helvetica,sans-Serif" font-size="11.00" fill="#000000">serial[10]</text>
<polygon fill="#ffffff" stroke="transparent" points="838.5,-324.8211 838.5,-346.8211 969.5,-346.8211 969.5,-324.8211 838.5,-324.8211"/>
<polygon fill="none" stroke="#000000" points="838.5,-324.8211 838.5,-346.8211 969.5,-346.8211 969.5,-324.8211 838.5,-324.8211"/>
<image xlink:href="../../images/foreignKeys.png" width="11px" height="12px" preserveAspectRatio="xMinYMin meet" x="843.5" y="-341.821"/>
<text text-anchor="start" x="858.5" y="-331.9211" font-family="Helvetica,sans-Serif" font-size="11.00" fill="#000000">customer_id</text>
<polygon fill="none" stroke="#000000" points="969.5,-324.8211 969.5,-346.8211 1053.5,-346.8211 1053.5,-324.8211 969.5,-324.8211"/>
<text text-anchor="start" x="972.5" y="-332.5211" font-family="Helvetica,sans-Serif" font-size="11.00" fill="#000000">int2[5]</text>
<polygon fill="#ffffff" stroke="transparent" points="838.5,-302.8211 838.5,-324.8211 969.5,-324.8211 969.5,-302.8211 838.5,-302.8211"/>
<polygon fill="none" stroke="#000000" points="838.5,-302.8211 838.5,-324.8211 969.5,-324.8211 969.5,-302.8211 838.5,-302.8211"/>
<image xlink:href="../../images/foreignKeys.png" width="11px" height="12px" preserveAspectRatio="xMinYMin meet" x="843.5" y="-319.821"/>
<text text-anchor="start" x="858.5" y="-309.9211" font-family="Helvetica,sans-Serif" font-size="11.00" fill="#000000">staff_id</text>
<polygon fill="none" stroke="#000000" points="969.5,-302.8211 969.5,-324.8211 1053.5,-324.8211 1053.5,-302.8211 969.5,-302.8211"/>
<text text-anchor="start" x="972.5" y="-310.5211" font-family="Helvetica,sans-Serif" font-size="11.00" fill="#000000">int2[5]</text>
<polygon fill="none" stroke="#000000" points="838.5,-280.8211 838.5,-302.8211 969.5,-302.8211 969.5,-280.8211 838.5,-280.8211"/>
<image xlink:href="../../images/foreignKeys.png" width="11px" height="12px" preserveAspectRatio="xMinYMin meet" x="843.5" y="-297.821"/>
<text text-anchor="start" x="858.5" y="-287.9211" font-family="Helvetica,sans-Serif" font-size="11.00" fill="#000000">rental_id</text>
<polygon fill="none" stroke="#000000" points="969.5,-280.8211 969.5,-302.8211 1053.5,-302.8211 1053.5,-280.8211 969.5,-280.8211"/>
<text text-anchor="start" x="972.5" y="-288.5211" font-family="Helvetica,sans-Serif" font-size="11.00" fill="#000000">int4[10]</text>
<polygon fill="none" stroke="#000000" points="838.5,-258.8211 838.5,-280.8211 969.5,-280.8211 969.5,-258.8211 838.5,-258.8211"/>
<text text-anchor="start" x="858.5" y="-265.9211" font-family="Helvetica,sans-Serif" font-size="11.00" fill="#000000">amount</text>
<polygon fill="none" stroke="#000000" points="969.5,-258.8211 969.5,-280.8211 1053.5,-280.8211 1053.5,-258.8211 969.5,-258.8211"/>
<text text-anchor="start" x="972.5" y="-266.5211" font-family="Helvetica,sans-Serif" font-size="11.00" fill="#000000">numeric[5,2]</text>
<polygon fill="none" stroke="#000000" points="838.5,-236.8211 838.5,-258.8211 969.5,-258.8211 969.5,-236.8211 838.5,-236.8211"/>
<text text-anchor="start" x="858.5" y="-243.9211" font-family="Helvetica,sans-Serif" font-size="11.00" fill="#000000">payment_date</text>
<polygon fill="none" stroke="#000000" points="969.5,-236.8211 969.5,-258.8211 1053.5,-258.8211 1053.5,-236.8211 969.5,-236.8211"/>
<text text-anchor="start" x="972.3807" y="-244.5211" font-family="Helvetica,sans-Serif" font-size="11.00" fill="#000000">timestamp[29,6]</text>
<polygon fill="#ffffff" stroke="transparent" points="838.5,-217.8211 838.5,-236.8211 895.5,-236.8211 895.5,-217.8211 838.5,-217.8211"/>
<polygon fill="none" stroke="#000000" points="838.5,-217.8211 838.5,-236.8211 895.5,-236.8211 895.5,-217.8211 838.5,-217.8211"/>
<text text-anchor="start" x="841.5" y="-223.9211" font-family="Helvetica,sans-Serif" font-size="11.00" fill="#000000">&lt; 4</text>
<polygon fill="#ffffff" stroke="transparent" points="895.5,-217.8211 895.5,-236.8211 969.5,-236.8211 969.5,-217.8211 895.5,-217.8211"/>
<polygon fill="none" stroke="#000000" points="895.5,-217.8211 895.5,-236.8211 969.5,-236.8211 969.5,-217.8211 895.5,-217.8211"/>
<text text-anchor="start" x="934.1105" y="-223.9211" font-family="Helvetica,sans-Serif" font-size="11.00" fill="#000000">0 rows</text>
<polygon fill="#ffffff" stroke="transparent" points="969.5,-217.8211 969.5,-236.8211 1053.5,-236.8211 1053.5,-217.8211 969.5,-217.8211"/>
<polygon fill="none" stroke="#000000" points="969.5,-217.8211 969.5,-236.8211 1053.5,-236.8211 1053.5,-217.8211 969.5,-217.8211"/>
<text text-anchor="start" x="1034.9053" y="-223.9211" font-family="Helvetica,sans-Serif" font-size="11.00" fill="#000000">0 &gt;</text>
<polygon fill="none" stroke="#000000" stroke-width="2" points="837,-216.8211 837,-392.8211 1054,-392.8211 1054,-216.8211 837,-216.8211"/>
</a>
</g>
</g>
<!-- payment_p2007_01&#45;&gt;customer -->
<g id="edge7" class="edge">
<title>payment_p2007_01:w&#45;&gt;customer:e</title>
<path fill="none" stroke="#000000" d="M824.394,-331.8163C814.6048,-325.0879 811.3316,-311.7659 795,-306.8211 745.2312,-291.7523 723.0489,-280.848 678,-306.8211 652.6404,-321.4422 670.3596,-349.1999 645,-363.8211 603.4164,-387.7962 584.5883,-370.0939 537,-363.8211 518.2951,-361.3555 514.8667,-352.8211 496,-352.8211"/>
<polygon fill="#000000" stroke="#000000" points="830.8041,-333.6361 837.5168,-339.2842 834.6521,-334.7286 838.5,-335.8211 838.5,-335.8211 838.5,-335.8211 834.6521,-334.7286 839.4832,-332.3579 830.8041,-333.6361 830.8041,-333.6361"/>
<ellipse fill="none" stroke="#000000" cx="827.7258" cy="-332.7622" rx="3.2" ry="3.2"/>
</g>
<!-- payment_p2007_01&#45;&gt;payment -->
<g id="edge8" class="edge">
<title>payment_p2007_01:w&#45;&gt;payment:e</title>
<path fill="none" stroke="#000000" stroke-dasharray="5,2" d="M824.5503,-362.4501C805.7607,-378.6505 821.3581,-431.8211 787.5,-431.8211"/>
<polygon fill="#000000" stroke="#000000" points="830.9071,-360.3407 839.6338,-361.2379 834.7036,-359.0809 838.5,-357.8211 838.5,-357.8211 838.5,-357.8211 834.7036,-359.0809 837.3662,-354.4043 830.9071,-360.3407 830.9071,-360.3407"/>
<ellipse fill="none" stroke="#000000" cx="827.87" cy="-361.3486" rx="3.2" ry="3.2"/>
</g>
<!-- payment_p2007_01&#45;&gt;rental -->
<g id="edge9" class="edge">
<title>payment_p2007_01:w&#45;&gt;rental:e</title>
<path fill="none" stroke="#000000" d="M824.4363,-287.3918C814.2067,-279.2597 812.7082,-262.1983 795,-255.8211 746.0758,-238.2021 723.7106,-231.0311 678,-255.8211 648.6333,-271.7474 670.4073,-318.8211 637,-318.8211"/>
<polygon fill="#000000" stroke="#000000" points="830.8695,-289.4178 837.4186,-295.2548 834.6847,-290.6195 838.5,-291.8211 838.5,-291.8211 838.5,-291.8211 834.6847,-290.6195 839.5814,-288.3873 830.8695,-289.4178 830.8695,-289.4178"/>
<ellipse fill="none" stroke="#000000" cx="827.8173" cy="-288.4566" rx="3.2" ry="3.2"/>
</g>
<!-- payment_p2007_01&#45;&gt;staff -->
<g id="edge10" class="edge">
<title>payment_p2007_01:w&#45;&gt;staff:e</title>
<path fill="none" stroke="#000000" d="M824.3348,-310.3937C805.6899,-298.5708 819.6526,-259.0047 795,-236.8211 691.1322,-143.3554 641.3996,-143.2317 504,-117.8211 456.8004,-109.092 437.7696,-94.1715 396,-117.8211 371.1933,-131.8664 384.5632,-154.1751 363,-172.8211 338.1351,-194.3221 259.3718,-229.8211 226.5,-229.8211"/>
<polygon fill="#000000" stroke="#000000" points="830.7244,-311.9396 837.6534,-317.3201 834.6122,-312.8803 838.5,-313.8211 838.5,-313.8211 838.5,-313.8211 834.6122,-312.8803 839.3466,-310.322 830.7244,-311.9396 830.7244,-311.9396"/>
<ellipse fill="none" stroke="#000000" cx="827.6141" cy="-311.1871" rx="3.2" ry="3.2"/>
</g>
<!-- payment_p2007_02 -->
<g id="node9" class="node">
<title>payment_p2007_02</title>
<g id="a_node9"><a xlink:href="../../tables/payment_p2007_02.html" xlink:title="payment_p2007_02" target="_top">
<polygon fill="#ffffff" stroke="transparent" points="875.5,-609.3211 875.5,-670.3211 1015.5,-670.3211 1015.5,-609.3211 875.5,-609.3211"/>
<polygon fill="#f5f5f5" stroke="transparent" points="875.5,-646.8211 875.5,-669.8211 1015.5,-669.8211 1015.5,-646.8211 875.5,-646.8211"/>
<polygon fill="none" stroke="#000000" points="875.5,-646.8211 875.5,-669.8211 1015.5,-669.8211 1015.5,-646.8211 875.5,-646.8211"/>
<text text-anchor="start" x="880.3938" y="-655.9211" font-family="Helvetica,sans-Serif" font-weight="bold" font-size="11.00" fill="#000000">payment_p2007_02</text>
<text text-anchor="start" x="981.0219" y="-654.9211" font-family="Helvetica,sans-Serif" font-size="11.00" fill="#000000">[table]</text>
<polygon fill="none" stroke="#000000" points="875.5,-627.8211 875.5,-646.8211 1015.5,-646.8211 1015.5,-627.8211 875.5,-627.8211"/>
<text text-anchor="start" x="878.5" y="-633.9211" font-family="Helvetica,sans-Serif" font-size="11.00" fill="#000000">...</text>
<polygon fill="#ffffff" stroke="transparent" points="875.5,-608.8211 875.5,-627.8211 930.5,-627.8211 930.5,-608.8211 875.5,-608.8211"/>
<polygon fill="none" stroke="#000000" points="875.5,-608.8211 875.5,-627.8211 930.5,-627.8211 930.5,-608.8211 875.5,-608.8211"/>
<text text-anchor="start" x="878.5" y="-614.9211" font-family="Helvetica,sans-Serif" font-size="11.00" fill="#000000">&lt; 4</text>
<polygon fill="#ffffff" stroke="transparent" points="930.5,-608.8211 930.5,-627.8211 985.5,-627.8211 985.5,-608.8211 930.5,-608.8211"/>
<polygon fill="none" stroke="#000000" points="930.5,-608.8211 930.5,-627.8211 985.5,-627.8211 985.5,-608.8211 930.5,-608.8211"/>
<text text-anchor="start" x="950.1105" y="-614.9211" font-family="Helvetica,sans-Serif" font-size="11.00" fill="#000000">0 rows</text>
<polygon fill="#ffffff" stroke="transparent" points="985.5,-608.8211 985.5,-627.8211 1015.5,-627.8211 1015.5,-608.8211 985.5,-608.8211"/>
<polygon fill="none" stroke="#000000" points="985.5,-608.8211 985.5,-627.8211 1015.5,-627.8211 1015.5,-608.8211 985.5,-608.8211"/>
<text text-anchor="start" x="1006.3862" y="-614.9211" font-family="Helvetica,sans-Serif" font-size="11.00" fill="#000000"> &#160;</text>
</a>
</g>
</g>
<!-- payment_p2007_02&#45;&gt;customer -->
<g id="edge11" class="edge">
<title>payment_p2007_02:w&#45;&gt;customer:e</title>
<path fill="none" stroke="#000000" d="M860.9363,-636.784C707.9382,-635.9629 634.1013,-620.5133 537,-495.8211 496.3777,-443.6561 562.1162,-352.8211 496,-352.8211"/>
<polygon fill="#000000" stroke="#000000" points="867.5,-636.8007 875.4908,-640.421 871.5,-636.8109 875.5,-636.8211 875.5,-636.8211 875.5,-636.8211 871.5,-636.8109 875.5092,-633.2211 867.5,-636.8007 867.5,-636.8007"/>
<ellipse fill="none" stroke="#000000" cx="864.3" cy="-636.7925" rx="3.2" ry="3.2"/>
</g>
<!-- payment_p2007_02&#45;&gt;payment -->
<g id="edge12" class="edge">
<title>payment_p2007_02:w&#45;&gt;payment:e</title>
<path fill="none" stroke="#000000" stroke-dasharray="5,2" d="M861.1474,-634.5349C843.4946,-627.9466 840.2019,-607.9708 828,-585.8211 793.8517,-523.8329 858.2718,-431.8211 787.5,-431.8211"/>
<polygon fill="#000000" stroke="#000000" points="867.5996,-635.5626 874.9337,-640.3762 871.5498,-636.1918 875.5,-636.8211 875.5,-636.8211 875.5,-636.8211 871.5498,-636.1918 876.0663,-633.2659 867.5996,-635.5626 867.5996,-635.5626"/>
<ellipse fill="none" stroke="#000000" cx="864.4394" cy="-635.0592" rx="3.2" ry="3.2"/>
</g>
<!-- payment_p2007_02&#45;&gt;rental -->
<g id="edge13" class="edge">
<title>payment_p2007_02:w&#45;&gt;rental:e</title>
<path fill="none" stroke="#000000" d="M861.055,-636.5475C768.28,-632.9145 734.4944,-593.0103 678,-511.8211 627.9133,-439.8405 724.6919,-318.8211 637,-318.8211"/>
<polygon fill="#000000" stroke="#000000" points="867.5014,-636.6695 875.4318,-640.4204 871.5007,-636.7453 875.5,-636.8211 875.5,-636.8211 875.5,-636.8211 871.5007,-636.7453 875.5682,-633.2217 867.5014,-636.6695 867.5014,-636.6695"/>
<ellipse fill="none" stroke="#000000" cx="864.302" cy="-636.6089" rx="3.2" ry="3.2"/>
</g>
<!-- payment_p2007_02&#45;&gt;staff -->
<g id="edge14" class="edge">
<title>payment_p2007_02:w&#45;&gt;staff:e</title>
<path fill="none" stroke="#000000" d="M860.956,-637.0128C745.223,-640.1148 713.8852,-679.8211 591,-679.8211 591,-679.8211 591,-679.8211 450,-679.8211 345.3968,-679.8211 318.25,-623.0091 267,-531.8211 233.8248,-472.7931 294.2119,-229.8211 226.5,-229.8211"/>
<polygon fill="#000000" stroke="#000000" points="867.5007,-636.9266 875.5475,-640.4207 871.5003,-636.8738 875.5,-636.8211 875.5,-636.8211 875.5,-636.8211 871.5003,-636.8738 875.4525,-633.2214 867.5007,-636.9266 867.5007,-636.9266"/>
<ellipse fill="none" stroke="#000000" cx="864.301" cy="-636.9688" rx="3.2" ry="3.2"/>
</g>
<!-- payment_p2007_03 -->
<g id="node10" class="node">
<title>payment_p2007_03</title>
<g id="a_node10"><a xlink:href="../../tables/payment_p2007_03.html" xlink:title="payment_p2007_03" target="_top">
<polygon fill="#ffffff" stroke="transparent" points="875.5,-426.3211 875.5,-487.3211 1015.5,-487.3211 1015.5,-426.3211 875.5,-426.3211"/>
<polygon fill="#f5f5f5" stroke="transparent" points="875.5,-463.8211 875.5,-486.8211 1015.5,-486.8211 1015.5,-463.8211 875.5,-463.8211"/>
<polygon fill="none" stroke="#000000" points="875.5,-463.8211 875.5,-486.8211 1015.5,-486.8211 1015.5,-463.8211 875.5,-463.8211"/>
<text text-anchor="start" x="880.3938" y="-472.9211" font-family="Helvetica,sans-Serif" font-weight="bold" font-size="11.00" fill="#000000">payment_p2007_03</text>
<text text-anchor="start" x="981.0219" y="-471.9211" font-family="Helvetica,sans-Serif" font-size="11.00" fill="#000000">[table]</text>
<polygon fill="none" stroke="#000000" points="875.5,-444.8211 875.5,-463.8211 1015.5,-463.8211 1015.5,-444.8211 875.5,-444.8211"/>
<text text-anchor="start" x="878.5" y="-450.9211" font-family="Helvetica,sans-Serif" font-size="11.00" fill="#000000">...</text>
<polygon fill="#ffffff" stroke="transparent" points="875.5,-425.8211 875.5,-444.8211 930.5,-444.8211 930.5,-425.8211 875.5,-425.8211"/>
<polygon fill="none" stroke="#000000" points="875.5,-425.8211 875.5,-444.8211 930.5,-444.8211 930.5,-425.8211 875.5,-425.8211"/>
<text text-anchor="start" x="878.5" y="-431.9211" font-family="Helvetica,sans-Serif" font-size="11.00" fill="#000000">&lt; 4</text>
<polygon fill="#ffffff" stroke="transparent" points="930.5,-425.8211 930.5,-444.8211 985.5,-444.8211 985.5,-425.8211 930.5,-425.8211"/>
<polygon fill="none" stroke="#000000" points="930.5,-425.8211 930.5,-444.8211 985.5,-444.8211 985.5,-425.8211 930.5,-425.8211"/>
<text text-anchor="start" x="950.1105" y="-431.9211" font-family="Helvetica,sans-Serif" font-size="11.00" fill="#000000">0 rows</text>
<polygon fill="#ffffff" stroke="transparent" points="985.5,-425.8211 985.5,-444.8211 1015.5,-444.8211 1015.5,-425.8211 985.5,-425.8211"/>
<polygon fill="none" stroke="#000000" points="985.5,-425.8211 985.5,-444.8211 1015.5,-444.8211 1015.5,-425.8211 985.5,-425.8211"/>
<text text-anchor="start" x="1006.3862" y="-431.9211" font-family="Helvetica,sans-Serif" font-size="11.00" fill="#000000"> &#160;</text>
</a>
</g>
</g>
<!-- payment_p2007_03&#45;&gt;customer -->
<g id="edge15" class="edge">
<title>payment_p2007_03:w&#45;&gt;customer:e</title>
<path fill="none" stroke="#000000" d="M861.1097,-454.8469C835.7935,-458.7128 826.5238,-472.406 795,-476.8211 743.5026,-484.0335 728.7262,-488.2601 678,-476.8211 610.3178,-461.5583 590.2705,-454.2742 537,-409.8211 513.0402,-389.8271 527.2062,-352.8211 496,-352.8211"/>
<polygon fill="#000000" stroke="#000000" points="867.5202,-454.3899 875.756,-457.4119 871.5101,-454.1055 875.5,-453.8211 875.5,-453.8211 875.5,-453.8211 871.5101,-454.1055 875.244,-450.2302 867.5202,-454.3899 867.5202,-454.3899"/>
<ellipse fill="none" stroke="#000000" cx="864.3283" cy="-454.6175" rx="3.2" ry="3.2"/>
</g>
<!-- payment_p2007_03&#45;&gt;payment -->
<g id="edge16" class="edge">
<title>payment_p2007_03:w&#45;&gt;payment:e</title>
<path fill="none" stroke="#000000" stroke-dasharray="5,2" d="M861.026,-452.76C832.6463,-448.3654 822.4605,-431.8211 787.5,-431.8211"/>
<polygon fill="#000000" stroke="#000000" points="867.5214,-453.2361 875.2368,-457.4114 871.5107,-453.5286 875.5,-453.8211 875.5,-453.8211 875.5,-453.8211 871.5107,-453.5286 875.7632,-450.2307 867.5214,-453.2361 867.5214,-453.2361"/>
<ellipse fill="none" stroke="#000000" cx="864.33" cy="-453.0021" rx="3.2" ry="3.2"/>
</g>
<!-- payment_p2007_03&#45;&gt;rental -->
<g id="edge17" class="edge">
<title>payment_p2007_03:w&#45;&gt;rental:e</title>
<path fill="none" stroke="#000000" d="M861.0935,-451.4545C843.955,-444.8206 840.8862,-425.1323 828,-403.8211 804.4375,-364.8533 832.0241,-333.3333 795,-306.8211 752.7218,-276.5465 729.4739,-299.4431 678,-306.8211 659.2054,-309.515 655.9867,-318.8211 637,-318.8211"/>
<polygon fill="#000000" stroke="#000000" points="867.6058,-452.5242 874.9164,-457.3734 871.5529,-453.1726 875.5,-453.8211 875.5,-453.8211 875.5,-453.8211 871.5529,-453.1726 876.0836,-450.2687 867.6058,-452.5242 867.6058,-452.5242"/>
<ellipse fill="none" stroke="#000000" cx="864.4481" cy="-452.0055" rx="3.2" ry="3.2"/>
</g>
<!-- payment_p2007_03&#45;&gt;staff -->
<g id="edge18" class="edge">
<title>payment_p2007_03:w&#45;&gt;staff:e</title>
<path fill="none" stroke="#000000" d="M861.5033,-457.2623C802.3158,-479.2203 623.223,-598.8211 591,-598.8211 591,-598.8211 591,-598.8211 450,-598.8211 302.4485,-598.8211 337.6438,-451.3622 267,-321.8211 245.6105,-282.5987 271.1755,-229.8211 226.5,-229.8211"/>
<polygon fill="#000000" stroke="#000000" points="867.7314,-455.7311 876.3595,-457.317 871.6157,-454.7761 875.5,-453.8211 875.5,-453.8211 875.5,-453.8211 871.6157,-454.7761 874.6405,-450.3252 867.7314,-455.7311 867.7314,-455.7311"/>
<ellipse fill="none" stroke="#000000" cx="864.6239" cy="-456.4951" rx="3.2" ry="3.2"/>
</g>
<!-- payment_p2007_04 -->
<g id="node11" class="node">
<title>payment_p2007_04</title>
<g id="a_node11"><a xlink:href="../../tables/payment_p2007_04.html" xlink:title="payment_p2007_04" target="_top">
<polygon fill="#ffffff" stroke="transparent" points="875.5,-51.3211 875.5,-112.3211 1015.5,-112.3211 1015.5,-51.3211 875.5,-51.3211"/>
<polygon fill="#f5f5f5" stroke="transparent" points="875.5,-88.8211 875.5,-111.8211 1015.5,-111.8211 1015.5,-88.8211 875.5,-88.8211"/>
<polygon fill="none" stroke="#000000" points="875.5,-88.8211 875.5,-111.8211 1015.5,-111.8211 1015.5,-88.8211 875.5,-88.8211"/>
<text text-anchor="start" x="880.3938" y="-97.9211" font-family="Helvetica,sans-Serif" font-weight="bold" font-size="11.00" fill="#000000">payment_p2007_04</text>
<text text-anchor="start" x="981.0219" y="-96.9211" font-family="Helvetica,sans-Serif" font-size="11.00" fill="#000000">[table]</text>
<polygon fill="none" stroke="#000000" points="875.5,-69.8211 875.5,-88.8211 1015.5,-88.8211 1015.5,-69.8211 875.5,-69.8211"/>
<text text-anchor="start" x="878.5" y="-75.9211" font-family="Helvetica,sans-Serif" font-size="11.00" fill="#000000">...</text>
<polygon fill="#ffffff" stroke="transparent" points="875.5,-50.8211 875.5,-69.8211 930.5,-69.8211 930.5,-50.8211 875.5,-50.8211"/>
<polygon fill="none" stroke="#000000" points="875.5,-50.8211 875.5,-69.8211 930.5,-69.8211 930.5,-50.8211 875.5,-50.8211"/>
<text text-anchor="start" x="878.5" y="-56.9211" font-family="Helvetica,sans-Serif" font-size="11.00" fill="#000000">&lt; 4</text>
<polygon fill="#ffffff" stroke="transparent" points="930.5,-50.8211 930.5,-69.8211 985.5,-69.8211 985.5,-50.8211 930.5,-50.8211"/>
<polygon fill="none" stroke="#000000" points="930.5,-50.8211 930.5,-69.8211 985.5,-69.8211 985.5,-50.8211 930.5,-50.8211"/>
<text text-anchor="start" x="950.1105" y="-56.9211" font-family="Helvetica,sans-Serif" font-size="11.00" fill="#000000">0 rows</text>
<polygon fill="#ffffff" stroke="transparent" points="985.5,-50.8211 985.5,-69.8211 1015.5,-69.8211 1015.5,-50.8211 985.5,-50.8211"/>
<polygon fill="none" stroke="#000000" points="985.5,-50.8211 985.5,-69.8211 1015.5,-69.8211 1015.5,-50.8211 985.5,-50.8211"/>
<text text-anchor="start" x="1006.3862" y="-56.9211" font-family="Helvetica,sans-Serif" font-size="11.00" fill="#000000"> &#160;</text>
</a>
</g>
</g>
<!-- payment_p2007_04&#45;&gt;customer -->
<g id="edge19" class="edge">
<title>payment_p2007_04:w&#45;&gt;customer:e</title>
<path fill="none" stroke="#000000" d="M860.9161,-78.6958C717.2442,-76.2529 641.9986,-40.0384 537,-144.8211 470.3055,-211.3784 590.2233,-352.8211 496,-352.8211"/>
<polygon fill="#000000" stroke="#000000" points="867.5003,-78.7523 875.4691,-82.4209 871.5001,-78.7867 875.5,-78.8211 875.5,-78.8211 875.5,-78.8211 871.5001,-78.7867 875.5309,-75.2212 867.5003,-78.7523 867.5003,-78.7523"/>
<ellipse fill="none" stroke="#000000" cx="864.3004" cy="-78.7248" rx="3.2" ry="3.2"/>
</g>
<!-- payment_p2007_04&#45;&gt;payment -->
<g id="edge20" class="edge">
<title>payment_p2007_04:w&#45;&gt;payment:e</title>
<path fill="none" stroke="#000000" stroke-dasharray="5,2" d="M861.0704,-80.8466C844.2765,-86.2943 838.631,-102.2494 828,-122.8211 796.2057,-184.3453 856.754,-431.8211 787.5,-431.8211"/>
<polygon fill="#000000" stroke="#000000" points="867.5777,-79.9332 876.0005,-82.3861 871.5388,-79.3771 875.5,-78.8211 875.5,-78.8211 875.5,-78.8211 871.5388,-79.3771 874.9995,-75.256 867.5777,-79.9332 867.5777,-79.9332"/>
<ellipse fill="none" stroke="#000000" cx="864.4087" cy="-80.378" rx="3.2" ry="3.2"/>
</g>
<!-- payment_p2007_04&#45;&gt;rental -->
<g id="edge21" class="edge">
<title>payment_p2007_04:w&#45;&gt;rental:e</title>
<path fill="none" stroke="#000000" d="M861.285,-82.663C814.8139,-100.8726 692.1074,-178.3351 678,-195.8211 641.8175,-240.6688 694.6237,-318.8211 637,-318.8211"/>
<polygon fill="#000000" stroke="#000000" points="867.7771,-80.9084 876.4393,-82.2964 871.6385,-79.8647 875.5,-78.8211 875.5,-78.8211 875.5,-78.8211 871.6385,-79.8647 874.5607,-75.3458 867.7771,-80.9084 867.7771,-80.9084"/>
<ellipse fill="none" stroke="#000000" cx="864.6879" cy="-81.7433" rx="3.2" ry="3.2"/>
</g>
<!-- payment_p2007_04&#45;&gt;staff -->
<g id="edge22" class="edge">
<title>payment_p2007_04:w&#45;&gt;staff:e</title>
<path fill="none" stroke="#000000" d="M861.0371,-78.6918C745.8854,-76.5997 713.1348,-49.8211 591,-49.8211 591,-49.8211 591,-49.8211 450,-49.8211 368.5199,-49.8211 329.4341,-8.4666 267,-60.8211 207.8165,-110.4497 303.7378,-229.8211 226.5,-229.8211"/>
<polygon fill="#000000" stroke="#000000" points="867.5003,-78.7495 875.4678,-82.4209 871.5002,-78.7853 875.5,-78.8211 875.5,-78.8211 875.5,-78.8211 871.5002,-78.7853 875.5322,-75.2212 867.5003,-78.7495 867.5003,-78.7495"/>
<ellipse fill="none" stroke="#000000" cx="864.3004" cy="-78.7209" rx="3.2" ry="3.2"/>
</g>
<!-- payment_p2007_05 -->
<g id="node12" class="node">
<title>payment_p2007_05</title>
<g id="a_node12"><a xlink:href="../../tables/payment_p2007_05.html" xlink:title="payment_p2007_05" target="_top">
<polygon fill="#ffffff" stroke="transparent" points="875.5,-133.3211 875.5,-194.3211 1015.5,-194.3211 1015.5,-133.3211 875.5,-133.3211"/>
<polygon fill="#f5f5f5" stroke="transparent" points="875.5,-170.8211 875.5,-193.8211 1015.5,-193.8211 1015.5,-170.8211 875.5,-170.8211"/>
<polygon fill="none" stroke="#000000" points="875.5,-170.8211 875.5,-193.8211 1015.5,-193.8211 1015.5,-170.8211 875.5,-170.8211"/>
<text text-anchor="start" x="880.3938" y="-179.9211" font-family="Helvetica,sans-Serif" font-weight="bold" font-size="11.00" fill="#000000">payment_p2007_05</text>
<text text-anchor="start" x="981.0219" y="-178.9211" font-family="Helvetica,sans-Serif" font-size="11.00" fill="#000000">[table]</text>
<polygon fill="none" stroke="#000000" points="875.5,-151.8211 875.5,-170.8211 1015.5,-170.8211 1015.5,-151.8211 875.5,-151.8211"/>
<text text-anchor="start" x="878.5" y="-157.9211" font-family="Helvetica,sans-Serif" font-size="11.00" fill="#000000">...</text>
<polygon fill="#ffffff" stroke="transparent" points="875.5,-132.8211 875.5,-151.8211 930.5,-151.8211 930.5,-132.8211 875.5,-132.8211"/>
<polygon fill="none" stroke="#000000" points="875.5,-132.8211 875.5,-151.8211 930.5,-151.8211 930.5,-132.8211 875.5,-132.8211"/>
<text text-anchor="start" x="878.5" y="-138.9211" font-family="Helvetica,sans-Serif" font-size="11.00" fill="#000000">&lt; 4</text>
<polygon fill="#ffffff" stroke="transparent" points="930.5,-132.8211 930.5,-151.8211 985.5,-151.8211 985.5,-132.8211 930.5,-132.8211"/>
<polygon fill="none" stroke="#000000" points="930.5,-132.8211 930.5,-151.8211 985.5,-151.8211 985.5,-132.8211 930.5,-132.8211"/>
<text text-anchor="start" x="950.1105" y="-138.9211" font-family="Helvetica,sans-Serif" font-size="11.00" fill="#000000">0 rows</text>
<polygon fill="#ffffff" stroke="transparent" points="985.5,-132.8211 985.5,-151.8211 1015.5,-151.8211 1015.5,-132.8211 985.5,-132.8211"/>
<polygon fill="none" stroke="#000000" points="985.5,-132.8211 985.5,-151.8211 1015.5,-151.8211 1015.5,-132.8211 985.5,-132.8211"/>
<text text-anchor="start" x="1006.3862" y="-138.9211" font-family="Helvetica,sans-Serif" font-size="11.00" fill="#000000"> &#160;</text>
</a>
</g>
</g>
<!-- payment_p2007_05&#45;&gt;customer -->
<g id="edge23" class="edge">
<title>payment_p2007_05:w&#45;&gt;customer:e</title>
<path fill="none" stroke="#000000" d="M860.9877,-160.4653C776.6959,-156.7855 591.6326,-126.7069 537,-171.8211 473.3994,-224.3408 578.4825,-352.8211 496,-352.8211"/>
<polygon fill="#000000" stroke="#000000" points="867.5024,-160.6249 875.4117,-164.42 871.5012,-160.723 875.5,-160.8211 875.5,-160.8211 875.5,-160.8211 871.5012,-160.723 875.5883,-157.2221 867.5024,-160.6249 867.5024,-160.6249"/>
<ellipse fill="none" stroke="#000000" cx="864.3034" cy="-160.5465" rx="3.2" ry="3.2"/>
</g>
<!-- payment_p2007_05&#45;&gt;payment -->
<g id="edge24" class="edge">
<title>payment_p2007_05:w&#45;&gt;payment:e</title>
<path fill="none" stroke="#000000" stroke-dasharray="5,2" d="M861.1245,-162.8753C844.4611,-168.3924 839.1036,-184.5006 828,-204.8211 803.4295,-249.787 838.741,-431.8211 787.5,-431.8211"/>
<polygon fill="#000000" stroke="#000000" points="867.5805,-161.9528 876.0093,-164.3849 871.5402,-161.3869 875.5,-160.8211 875.5,-160.8211 875.5,-160.8211 871.5402,-161.3869 874.9907,-157.2573 867.5805,-161.9528 867.5805,-161.9528"/>
<ellipse fill="none" stroke="#000000" cx="864.4126" cy="-162.4055" rx="3.2" ry="3.2"/>
</g>
<!-- payment_p2007_05&#45;&gt;rental -->
<g id="edge25" class="edge">
<title>payment_p2007_05:w&#45;&gt;rental:e</title>
<path fill="none" stroke="#000000" d="M860.9159,-161.9291C834.513,-166.2979 826.0919,-182.6851 795,-194.8211 743.5328,-214.9101 719.3209,-200.1464 678,-236.8211 647.5258,-263.8686 677.7461,-318.8211 637,-318.8211"/>
<polygon fill="#000000" stroke="#000000" points="867.523,-161.4272 875.7727,-164.4107 871.5115,-161.1241 875.5,-160.8211 875.5,-160.8211 875.5,-160.8211 871.5115,-161.1241 875.2273,-157.2314 867.523,-161.4272 867.523,-161.4272"/>
<ellipse fill="none" stroke="#000000" cx="864.3322" cy="-161.6696" rx="3.2" ry="3.2"/>
</g>
<!-- payment_p2007_05&#45;&gt;staff -->
<g id="edge26" class="edge">
<title>payment_p2007_05:w&#45;&gt;staff:e</title>
<path fill="none" stroke="#000000" d="M861.0108,-159.4216C834.12,-153.7477 827.5515,-132.2185 795,-120.8211 707.4593,-90.1699 683.7516,-76.8211 591,-76.8211 591,-76.8211 591,-76.8211 450,-76.8211 368.429,-76.8211 330.3341,-39.4147 267,-90.8211 217.0394,-131.3726 290.8467,-229.8211 226.5,-229.8211"/>
<polygon fill="#000000" stroke="#000000" points="867.5371,-160.0519 875.1539,-164.4044 871.5185,-160.4365 875.5,-160.8211 875.5,-160.8211 875.5,-160.8211 871.5185,-160.4365 875.8461,-157.2377 867.5371,-160.0519 867.5371,-160.0519"/>
<ellipse fill="none" stroke="#000000" cx="864.3519" cy="-159.7442" rx="3.2" ry="3.2"/>
</g>
<!-- payment_p2007_06 -->
<g id="node13" class="node">
<title>payment_p2007_06</title>
<g id="a_node13"><a xlink:href="../../tables/payment_p2007_06.html" xlink:title="payment_p2007_06" target="_top">
<polygon fill="#ffffff" stroke="transparent" points="875.5,-514.3211 875.5,-575.3211 1015.5,-575.3211 1015.5,-514.3211 875.5,-514.3211"/>
<polygon fill="#f5f5f5" stroke="transparent" points="875.5,-551.8211 875.5,-574.8211 1015.5,-574.8211 1015.5,-551.8211 875.5,-551.8211"/>
<polygon fill="none" stroke="#000000" points="875.5,-551.8211 875.5,-574.8211 1015.5,-574.8211 1015.5,-551.8211 875.5,-551.8211"/>
<text text-anchor="start" x="880.3938" y="-560.9211" font-family="Helvetica,sans-Serif" font-weight="bold" font-size="11.00" fill="#000000">payment_p2007_06</text>
<text text-anchor="start" x="981.0219" y="-559.9211" font-family="Helvetica,sans-Serif" font-size="11.00" fill="#000000">[table]</text>
<polygon fill="none" stroke="#000000" points="875.5,-532.8211 875.5,-551.8211 1015.5,-551.8211 1015.5,-532.8211 875.5,-532.8211"/>
<text text-anchor="start" x="878.5" y="-538.9211" font-family="Helvetica,sans-Serif" font-size="11.00" fill="#000000">...</text>
<polygon fill="#ffffff" stroke="transparent" points="875.5,-513.8211 875.5,-532.8211 930.5,-532.8211 930.5,-513.8211 875.5,-513.8211"/>
<polygon fill="none" stroke="#000000" points="875.5,-513.8211 875.5,-532.8211 930.5,-532.8211 930.5,-513.8211 875.5,-513.8211"/>
<text text-anchor="start" x="878.5" y="-519.9211" font-family="Helvetica,sans-Serif" font-size="11.00" fill="#000000">&lt; 4</text>
<polygon fill="#ffffff" stroke="transparent" points="930.5,-513.8211 930.5,-532.8211 985.5,-532.8211 985.5,-513.8211 930.5,-513.8211"/>
<polygon fill="none" stroke="#000000" points="930.5,-513.8211 930.5,-532.8211 985.5,-532.8211 985.5,-513.8211 930.5,-513.8211"/>
<text text-anchor="start" x="950.1105" y="-519.9211" font-family="Helvetica,sans-Serif" font-size="11.00" fill="#000000">0 rows</text>
<polygon fill="#ffffff" stroke="transparent" points="985.5,-513.8211 985.5,-532.8211 1015.5,-532.8211 1015.5,-513.8211 985.5,-513.8211"/>
<polygon fill="none" stroke="#000000" points="985.5,-513.8211 985.5,-532.8211 1015.5,-532.8211 1015.5,-513.8211 985.5,-513.8211"/>
<text text-anchor="start" x="1006.3862" y="-519.9211" font-family="Helvetica,sans-Serif" font-size="11.00" fill="#000000"> &#160;</text>
</a>
</g>
</g>
<!-- payment_p2007_06&#45;&gt;customer -->
<g id="edge27" class="edge">
<title>payment_p2007_06:w&#45;&gt;customer:e</title>
<path fill="none" stroke="#000000" d="M860.6705,-541.8729C714.7331,-542.8617 642.8791,-556.4685 537,-448.8211 504.4666,-415.7443 542.395,-352.8211 496,-352.8211"/>
<polygon fill="#000000" stroke="#000000" points="867.5,-541.8491 875.5126,-545.421 871.5,-541.8351 875.5,-541.8211 875.5,-541.8211 875.5,-541.8211 871.5,-541.8351 875.4874,-538.2211 867.5,-541.8491 867.5,-541.8491"/>
<ellipse fill="none" stroke="#000000" cx="864.3001" cy="-541.8603" rx="3.2" ry="3.2"/>
</g>
<!-- payment_p2007_06&#45;&gt;payment -->
<g id="edge28" class="edge">
<title>payment_p2007_06:w&#45;&gt;payment:e</title>
<path fill="none" stroke="#000000" stroke-dasharray="5,2" d="M861.0815,-539.3068C845.7979,-532.964 842.5437,-515.5504 828,-497.8211 806.1726,-471.2126 821.9158,-431.8211 787.5,-431.8211"/>
<polygon fill="#000000" stroke="#000000" points="867.6189,-540.4467 874.8816,-545.3675 871.5595,-541.1339 875.5,-541.8211 875.5,-541.8211 875.5,-541.8211 871.5595,-541.1339 876.1184,-538.2746 867.6189,-540.4467 867.6189,-540.4467"/>
<ellipse fill="none" stroke="#000000" cx="864.4665" cy="-539.897" rx="3.2" ry="3.2"/>
</g>
<!-- payment_p2007_06&#45;&gt;rental -->
<g id="edge29" class="edge">
<title>payment_p2007_06:w&#45;&gt;rental:e</title>
<path fill="none" stroke="#000000" d="M861.043,-541.0522C808.0638,-536.0545 706.7071,-507.4285 678,-476.8211 628.3698,-423.9055 709.548,-318.8211 637,-318.8211"/>
<polygon fill="#000000" stroke="#000000" points="867.5113,-541.3961 875.3088,-545.416 871.5056,-541.6086 875.5,-541.8211 875.5,-541.8211 875.5,-541.8211 871.5056,-541.6086 875.6912,-538.2261 867.5113,-541.3961 867.5113,-541.3961"/>
<ellipse fill="none" stroke="#000000" cx="864.3158" cy="-541.2262" rx="3.2" ry="3.2"/>
</g>
<!-- payment_p2007_06&#45;&gt;staff -->
<g id="edge30" class="edge">
<title>payment_p2007_06:w&#45;&gt;staff:e</title>
<path fill="none" stroke="#000000" d="M860.9122,-542.0663C657.0634,-548.9568 586.3657,-698.0573 396,-608.8211 314.8479,-570.78 304.8901,-535.0438 267,-453.8211 245.6148,-407.9789 277.0849,-229.8211 226.5,-229.8211"/>
<polygon fill="#000000" stroke="#000000" points="867.5011,-541.9556 875.5605,-545.4206 871.5006,-541.8883 875.5,-541.8211 875.5,-541.8211 875.5,-541.8211 871.5006,-541.8883 875.4395,-538.2216 867.5011,-541.9556 867.5011,-541.9556"/>
<ellipse fill="none" stroke="#000000" cx="864.3016" cy="-542.0094" rx="3.2" ry="3.2"/>
</g>
</g>
</svg>
