<?xml version="1.0" encoding="UTF-8" standalone="no"?>
<!DOCTYPE svg PUBLIC "-//W3C//DTD SVG 1.1//EN"
 "http://www.w3.org/Graphics/SVG/1.1/DTD/svg11.dtd">
<!-- Generated by graphviz version 2.40.1 (20161225.0304)
 -->
<!-- Title: twoDegreesRelationshipsDiagram Pages: 1 -->
<svg width="626pt" height="440pt"
 viewBox="0.00 0.00 626.00 440.20" xmlns="http://www.w3.org/2000/svg" xmlns:xlink="http://www.w3.org/1999/xlink">
<g id="graph0" class="graph" transform="scale(1 1) rotate(0) translate(4 436.2)">
<title>twoDegreesRelationshipsDiagram</title>
<polygon fill="#ffffff" stroke="transparent" points="-4,4 -4,-436.2 622,-436.2 622,4 -4,4"/>
<text text-anchor="middle" x="72.4936" y="-7.3" font-family="Helvetica,sans-Serif" font-size="11.00" fill="#000000">Generated by SchemaSpy</text>
<!-- customer -->
<g id="node1" class="node">
<title>customer</title>
<g id="a_node1"><a xlink:href="../../tables/customer.html" xlink:title="customer" target="_top">
<polygon fill="#ffffff" stroke="transparent" points="139,-279.2 139,-428.2 231,-428.2 231,-279.2 139,-279.2"/>
<polygon fill="#f5f5f5" stroke="transparent" points="139,-404.7 139,-427.7 231,-427.7 231,-404.7 139,-404.7"/>
<polygon fill="none" stroke="#000000" points="139,-404.7 139,-427.7 231,-427.7 231,-404.7 139,-404.7"/>
<text text-anchor="start" x="144" y="-413.8" font-family="Helvetica,sans-Serif" font-weight="bold" font-size="11.00" fill="#000000">customer</text>
<text text-anchor="start" x="196.0437" y="-412.8" font-family="Helvetica,sans-Serif" font-size="11.00" fill="#000000">[table]</text>
<polygon fill="none" stroke="#000000" points="139,-382.7 139,-404.7 231,-404.7 231,-382.7 139,-382.7"/>
<image xlink:href="../../images/primaryKeys.png" width="11px" height="12px" preserveAspectRatio="xMinYMin meet" x="144" y="-399.7"/>
<text text-anchor="start" x="159" y="-389.8" font-family="Helvetica,sans-Serif" font-size="11.00" fill="#000000">customer_id</text>
<polygon fill="#ffffff" stroke="transparent" points="139,-360.7 139,-382.7 231,-382.7 231,-360.7 139,-360.7"/>
<polygon fill="none" stroke="#000000" points="139,-360.7 139,-382.7 231,-382.7 231,-360.7 139,-360.7"/>
<text text-anchor="start" x="159" y="-367.8" font-family="Helvetica,sans-Serif" font-size="11.00" fill="#000000">store_id</text>
<polygon fill="#ffffff" stroke="transparent" points="139,-338.7 139,-360.7 231,-360.7 231,-338.7 139,-338.7"/>
<polygon fill="none" stroke="#000000" points="139,-338.7 139,-360.7 231,-360.7 231,-338.7 139,-338.7"/>
<text text-anchor="start" x="159" y="-345.8" font-family="Helvetica,sans-Serif" font-size="11.00" fill="#000000">last_name</text>
<polygon fill="#ffffff" stroke="transparent" points="139,-316.7 139,-338.7 231,-338.7 231,-316.7 139,-316.7"/>
<polygon fill="none" stroke="#000000" points="139,-316.7 139,-338.7 231,-338.7 231,-316.7 139,-316.7"/>
<image xlink:href="../../images/foreignKeys.png" width="11px" height="12px" preserveAspectRatio="xMinYMin meet" x="144" y="-333.7"/>
<text text-anchor="start" x="159" y="-323.8" font-family="Helvetica,sans-Serif" font-size="11.00" fill="#000000">address_id</text>
<polygon fill="none" stroke="#000000" points="139,-297.7 139,-316.7 231,-316.7 231,-297.7 139,-297.7"/>
<text text-anchor="start" x="142" y="-303.8" font-family="Helvetica,sans-Serif" font-size="11.00" fill="#000000">...</text>
<polygon fill="#ffffff" stroke="transparent" points="139,-278.7 139,-297.7 166,-297.7 166,-278.7 139,-278.7"/>
<polygon fill="none" stroke="#000000" points="139,-278.7 139,-297.7 166,-297.7 166,-278.7 139,-278.7"/>
<text text-anchor="start" x="142" y="-284.8" font-family="Helvetica,sans-Serif" font-size="11.00" fill="#000000">&lt; 1</text>
<polygon fill="#ffffff" stroke="transparent" points="166,-278.7 166,-297.7 207,-297.7 207,-278.7 166,-278.7"/>
<polygon fill="none" stroke="#000000" points="166,-278.7 166,-297.7 207,-297.7 207,-278.7 166,-278.7"/>
<text text-anchor="start" x="171.6105" y="-284.8" font-family="Helvetica,sans-Serif" font-size="11.00" fill="#000000">0 rows</text>
<polygon fill="#ffffff" stroke="transparent" points="207,-278.7 207,-297.7 231,-297.7 231,-278.7 207,-278.7"/>
<polygon fill="none" stroke="#000000" points="207,-278.7 207,-297.7 231,-297.7 231,-278.7 207,-278.7"/>
<text text-anchor="start" x="212.4053" y="-284.8" font-family="Helvetica,sans-Serif" font-size="11.00" fill="#000000">2 &gt;</text>
</a>
</g>
</g>
<!-- address -->
<g id="node2" class="node">
<title>address</title>
<g id="a_node2"><a xlink:href="../../tables/address.html" xlink:title="address" target="_top">
<polygon fill="#ffffff" stroke="transparent" points="8,-92.2 8,-153.2 90,-153.2 90,-92.2 8,-92.2"/>
<polygon fill="#f5f5f5" stroke="transparent" points="8,-129.7 8,-152.7 90,-152.7 90,-129.7 8,-129.7"/>
<polygon fill="none" stroke="#000000" points="8,-129.7 8,-152.7 90,-152.7 90,-129.7 8,-129.7"/>
<text text-anchor="start" x="12.9393" y="-138.8" font-family="Helvetica,sans-Serif" font-weight="bold" font-size="11.00" fill="#000000">address</text>
<text text-anchor="start" x="55.5219" y="-137.8" font-family="Helvetica,sans-Serif" font-size="11.00" fill="#000000">[table]</text>
<polygon fill="none" stroke="#000000" points="8,-110.7 8,-129.7 90,-129.7 90,-110.7 8,-110.7"/>
<text text-anchor="start" x="11" y="-116.8" font-family="Helvetica,sans-Serif" font-size="11.00" fill="#000000">...</text>
<polygon fill="#ffffff" stroke="transparent" points="8,-91.7 8,-110.7 30,-110.7 30,-91.7 8,-91.7"/>
<polygon fill="none" stroke="#000000" points="8,-91.7 8,-110.7 30,-110.7 30,-91.7 8,-91.7"/>
<text text-anchor="start" x="11" y="-97.8" font-family="Helvetica,sans-Serif" font-size="11.00" fill="#000000">&lt; 1</text>
<polygon fill="#ffffff" stroke="transparent" points="30,-91.7 30,-110.7 68,-110.7 68,-91.7 30,-91.7"/>
<polygon fill="none" stroke="#000000" points="30,-91.7 30,-110.7 68,-110.7 68,-91.7 30,-91.7"/>
<text text-anchor="start" x="32.8053" y="-97.8" font-family="Helvetica,sans-Serif" font-size="11.00" fill="#000000">0 rows</text>
<polygon fill="#ffffff" stroke="transparent" points="68,-91.7 68,-110.7 90,-110.7 90,-91.7 68,-91.7"/>
<polygon fill="none" stroke="#000000" points="68,-91.7 68,-110.7 90,-110.7 90,-91.7 68,-91.7"/>
<text text-anchor="start" x="71.4053" y="-97.8" font-family="Helvetica,sans-Serif" font-size="11.00" fill="#000000">3 &gt;</text>
</a>
</g>
</g>
<!-- customer&#45;&gt;address -->
<g id="edge1" class="edge">
<title>customer:w&#45;&gt;address:e</title>
<path fill="none" stroke="#000000" d="M124.6402,-325.6414C59.7326,-304.0391 179.41,-119.7 90,-119.7"/>
<polygon fill="#000000" stroke="#000000" points="131.081,-326.5647 138.4891,-331.2636 135.0405,-327.1323 139,-327.7 139,-327.7 139,-327.7 135.0405,-327.1323 139.5109,-324.1364 131.081,-326.5647 131.081,-326.5647"/>
<ellipse fill="none" stroke="#000000" cx="127.9133" cy="-326.1105" rx="3.2" ry="3.2"/>
</g>
<!-- payment -->
<g id="node3" class="node">
<title>payment</title>
<g id="a_node3"><a xlink:href="../../tables/payment.html" xlink:title="payment" target="_top">
<polygon fill="#ffffff" stroke="transparent" points="421,-226.7 421,-404.7 610,-404.7 610,-226.7 421,-226.7"/>
<polygon fill="#f5f5f5" stroke="transparent" points="423.5,-379.7 423.5,-402.7 608.5,-402.7 608.5,-379.7 423.5,-379.7"/>
<polygon fill="none" stroke="#000000" points="423.5,-379.7 423.5,-402.7 608.5,-402.7 608.5,-379.7 423.5,-379.7"/>
<text text-anchor="start" x="428.5" y="-388.8" font-family="Helvetica,sans-Serif" font-weight="bold" font-size="11.00" fill="#000000">payment</text>
<text text-anchor="start" x="573.5437" y="-387.8" font-family="Helvetica,sans-Serif" font-size="11.00" fill="#000000">[table]</text>
<polygon fill="none" stroke="#000000" points="423.5,-357.7 423.5,-379.7 524.5,-379.7 524.5,-357.7 423.5,-357.7"/>
<image xlink:href="../../images/primaryKeys.png" width="11px" height="12px" preserveAspectRatio="xMinYMin meet" x="428.5" y="-374.7"/>
<text text-anchor="start" x="443.5" y="-364.8" font-family="Helvetica,sans-Serif" font-size="11.00" fill="#000000">payment_id</text>
<polygon fill="none" stroke="#000000" points="524.5,-357.7 524.5,-379.7 608.5,-379.7 608.5,-357.7 524.5,-357.7"/>
<text text-anchor="start" x="527.5" y="-365.4" font-family="Helvetica,sans-Serif" font-size="11.00" fill="#000000">serial[10]</text>
<polygon fill="#ffffff" stroke="transparent" points="423.5,-335.7 423.5,-357.7 524.5,-357.7 524.5,-335.7 423.5,-335.7"/>
<polygon fill="none" stroke="#000000" points="423.5,-335.7 423.5,-357.7 524.5,-357.7 524.5,-335.7 423.5,-335.7"/>
<image xlink:href="../../images/foreignKeys.png" width="11px" height="12px" preserveAspectRatio="xMinYMin meet" x="428.5" y="-352.7"/>
<text text-anchor="start" x="443.5" y="-342.8" font-family="Helvetica,sans-Serif" font-size="11.00" fill="#000000">customer_id</text>
<polygon fill="none" stroke="#000000" points="524.5,-335.7 524.5,-357.7 608.5,-357.7 608.5,-335.7 524.5,-335.7"/>
<text text-anchor="start" x="527.5" y="-343.4" font-family="Helvetica,sans-Serif" font-size="11.00" fill="#000000">int2[5]</text>
<polygon fill="#ffffff" stroke="transparent" points="423.5,-313.7 423.5,-335.7 524.5,-335.7 524.5,-313.7 423.5,-313.7"/>
<polygon fill="none" stroke="#000000" points="423.5,-313.7 423.5,-335.7 524.5,-335.7 524.5,-313.7 423.5,-313.7"/>
<image xlink:href="../../images/foreignKeys.png" width="11px" height="12px" preserveAspectRatio="xMinYMin meet" x="428.5" y="-330.7"/>
<text text-anchor="start" x="443.5" y="-320.8" font-family="Helvetica,sans-Serif" font-size="11.00" fill="#000000">staff_id</text>
<polygon fill="none" stroke="#000000" points="524.5,-313.7 524.5,-335.7 608.5,-335.7 608.5,-313.7 524.5,-313.7"/>
<text text-anchor="start" x="527.5" y="-321.4" font-family="Helvetica,sans-Serif" font-size="11.00" fill="#000000">int2[5]</text>
<polygon fill="#ffffff" stroke="transparent" points="423.5,-291.7 423.5,-313.7 524.5,-313.7 524.5,-291.7 423.5,-291.7"/>
<polygon fill="none" stroke="#000000" points="423.5,-291.7 423.5,-313.7 524.5,-313.7 524.5,-291.7 423.5,-291.7"/>
<image xlink:href="../../images/foreignKeys.png" width="11px" height="12px" preserveAspectRatio="xMinYMin meet" x="428.5" y="-308.7"/>
<text text-anchor="start" x="443.5" y="-298.8" font-family="Helvetica,sans-Serif" font-size="11.00" fill="#000000">rental_id</text>
<polygon fill="none" stroke="#000000" points="524.5,-291.7 524.5,-313.7 608.5,-313.7 608.5,-291.7 524.5,-291.7"/>
<text text-anchor="start" x="527.5" y="-299.4" font-family="Helvetica,sans-Serif" font-size="11.00" fill="#000000">int4[10]</text>
<polygon fill="none" stroke="#000000" points="423.5,-269.7 423.5,-291.7 524.5,-291.7 524.5,-269.7 423.5,-269.7"/>
<text text-anchor="start" x="443.5" y="-276.8" font-family="Helvetica,sans-Serif" font-size="11.00" fill="#000000">amount</text>
<polygon fill="none" stroke="#000000" points="524.5,-269.7 524.5,-291.7 608.5,-291.7 608.5,-269.7 524.5,-269.7"/>
<text text-anchor="start" x="527.5" y="-277.4" font-family="Helvetica,sans-Serif" font-size="11.00" fill="#000000">numeric[5,2]</text>
<polygon fill="none" stroke="#000000" points="423.5,-247.7 423.5,-269.7 524.5,-269.7 524.5,-247.7 423.5,-247.7"/>
<text text-anchor="start" x="443.5" y="-254.8" font-family="Helvetica,sans-Serif" font-size="11.00" fill="#000000">payment_date</text>
<polygon fill="none" stroke="#000000" points="524.5,-247.7 524.5,-269.7 608.5,-269.7 608.5,-247.7 524.5,-247.7"/>
<text text-anchor="start" x="527.3807" y="-255.4" font-family="Helvetica,sans-Serif" font-size="11.00" fill="#000000">timestamp[29,6]</text>
<polygon fill="#ffffff" stroke="transparent" points="423.5,-228.7 423.5,-247.7 465.5,-247.7 465.5,-228.7 423.5,-228.7"/>
<polygon fill="none" stroke="#000000" points="423.5,-228.7 423.5,-247.7 465.5,-247.7 465.5,-228.7 423.5,-228.7"/>
<text text-anchor="start" x="426.5" y="-234.8" font-family="Helvetica,sans-Serif" font-size="11.00" fill="#000000">&lt; 3</text>
<polygon fill="#ffffff" stroke="transparent" points="465.5,-228.7 465.5,-247.7 524.5,-247.7 524.5,-228.7 465.5,-228.7"/>
<polygon fill="none" stroke="#000000" points="465.5,-228.7 465.5,-247.7 524.5,-247.7 524.5,-228.7 465.5,-228.7"/>
<text text-anchor="start" x="489.1105" y="-234.8" font-family="Helvetica,sans-Serif" font-size="11.00" fill="#000000">0 rows</text>
<polygon fill="#ffffff" stroke="transparent" points="524.5,-228.7 524.5,-247.7 608.5,-247.7 608.5,-228.7 524.5,-228.7"/>
<polygon fill="none" stroke="#000000" points="524.5,-228.7 524.5,-247.7 608.5,-247.7 608.5,-228.7 524.5,-228.7"/>
<text text-anchor="start" x="589.9053" y="-234.8" font-family="Helvetica,sans-Serif" font-size="11.00" fill="#000000">0 &gt;</text>
<polygon fill="none" stroke="#000000" stroke-width="2" points="422,-227.7 422,-403.7 609,-403.7 609,-227.7 422,-227.7"/>
</a>
</g>
</g>
<!-- payment&#45;&gt;customer -->
<g id="edge2" class="edge">
<title>payment:w&#45;&gt;customer:e</title>
<path fill="none" stroke="#000000" d="M408.7289,-347.1652C333.2676,-352.0465 313.9084,-393.7 231,-393.7"/>
<polygon fill="#000000" stroke="#000000" points="415.504,-346.9519 423.6133,-350.2982 419.502,-346.8259 423.5,-346.7 423.5,-346.7 423.5,-346.7 419.502,-346.8259 423.3867,-343.1018 415.504,-346.9519 415.504,-346.9519"/>
<ellipse fill="none" stroke="#000000" cx="412.3055" cy="-347.0526" rx="3.2" ry="3.2"/>
</g>
<!-- rental -->
<g id="node4" class="node">
<title>rental</title>
<g id="a_node4"><a xlink:href="../../tables/rental.html" xlink:title="rental" target="_top">
<polygon fill="#ffffff" stroke="transparent" points="280,-166.2 280,-337.2 372,-337.2 372,-166.2 280,-166.2"/>
<polygon fill="#f5f5f5" stroke="transparent" points="280,-313.7 280,-336.7 372,-336.7 372,-313.7 280,-313.7"/>
<polygon fill="none" stroke="#000000" points="280,-313.7 280,-336.7 372,-336.7 372,-313.7 280,-313.7"/>
<text text-anchor="start" x="285" y="-322.8" font-family="Helvetica,sans-Serif" font-weight="bold" font-size="11.00" fill="#000000">rental</text>
<text text-anchor="start" x="337.0437" y="-321.8" font-family="Helvetica,sans-Serif" font-size="11.00" fill="#000000">[table]</text>
<polygon fill="none" stroke="#000000" points="280,-291.7 280,-313.7 372,-313.7 372,-291.7 280,-291.7"/>
<image xlink:href="../../images/primaryKeys.png" width="11px" height="12px" preserveAspectRatio="xMinYMin meet" x="285" y="-308.7"/>
<text text-anchor="start" x="300" y="-298.8" font-family="Helvetica,sans-Serif" font-size="11.00" fill="#000000">rental_id</text>
<polygon fill="#ffffff" stroke="transparent" points="280,-269.7 280,-291.7 372,-291.7 372,-269.7 280,-269.7"/>
<polygon fill="none" stroke="#000000" points="280,-269.7 280,-291.7 372,-291.7 372,-269.7 280,-269.7"/>
<text text-anchor="start" x="300" y="-276.8" font-family="Helvetica,sans-Serif" font-size="11.00" fill="#000000">rental_date</text>
<polygon fill="#ffffff" stroke="transparent" points="280,-247.7 280,-269.7 372,-269.7 372,-247.7 280,-247.7"/>
<polygon fill="none" stroke="#000000" points="280,-247.7 280,-269.7 372,-269.7 372,-247.7 280,-247.7"/>
<image xlink:href="../../images/foreignKeys.png" width="11px" height="12px" preserveAspectRatio="xMinYMin meet" x="285" y="-264.7"/>
<text text-anchor="start" x="300" y="-254.8" font-family="Helvetica,sans-Serif" font-size="11.00" fill="#000000">inventory_id</text>
<polygon fill="#ffffff" stroke="transparent" points="280,-225.7 280,-247.7 372,-247.7 372,-225.7 280,-225.7"/>
<polygon fill="none" stroke="#000000" points="280,-225.7 280,-247.7 372,-247.7 372,-225.7 280,-225.7"/>
<image xlink:href="../../images/foreignKeys.png" width="11px" height="12px" preserveAspectRatio="xMinYMin meet" x="285" y="-242.7"/>
<text text-anchor="start" x="300" y="-232.8" font-family="Helvetica,sans-Serif" font-size="11.00" fill="#000000">customer_id</text>
<polygon fill="none" stroke="#000000" points="280,-203.7 280,-225.7 372,-225.7 372,-203.7 280,-203.7"/>
<image xlink:href="../../images/foreignKeys.png" width="11px" height="12px" preserveAspectRatio="xMinYMin meet" x="285" y="-220.7"/>
<text text-anchor="start" x="300" y="-210.8" font-family="Helvetica,sans-Serif" font-size="11.00" fill="#000000">staff_id</text>
<polygon fill="none" stroke="#000000" points="280,-184.7 280,-203.7 372,-203.7 372,-184.7 280,-184.7"/>
<text text-anchor="start" x="283" y="-190.8" font-family="Helvetica,sans-Serif" font-size="11.00" fill="#000000">...</text>
<polygon fill="#ffffff" stroke="transparent" points="280,-165.7 280,-184.7 307,-184.7 307,-165.7 280,-165.7"/>
<polygon fill="none" stroke="#000000" points="280,-165.7 280,-184.7 307,-184.7 307,-165.7 280,-165.7"/>
<text text-anchor="start" x="283" y="-171.8" font-family="Helvetica,sans-Serif" font-size="11.00" fill="#000000">&lt; 3</text>
<polygon fill="#ffffff" stroke="transparent" points="307,-165.7 307,-184.7 348,-184.7 348,-165.7 307,-165.7"/>
<polygon fill="none" stroke="#000000" points="307,-165.7 307,-184.7 348,-184.7 348,-165.7 307,-165.7"/>
<text text-anchor="start" x="312.6105" y="-171.8" font-family="Helvetica,sans-Serif" font-size="11.00" fill="#000000">0 rows</text>
<polygon fill="#ffffff" stroke="transparent" points="348,-165.7 348,-184.7 372,-184.7 372,-165.7 348,-165.7"/>
<polygon fill="none" stroke="#000000" points="348,-165.7 348,-184.7 372,-184.7 372,-165.7 348,-165.7"/>
<text text-anchor="start" x="353.4053" y="-171.8" font-family="Helvetica,sans-Serif" font-size="11.00" fill="#000000">1 &gt;</text>
</a>
</g>
</g>
<!-- payment&#45;&gt;rental -->
<g id="edge3" class="edge">
<title>payment:w&#45;&gt;rental:e</title>
<path fill="none" stroke="#000000" d="M409.0156,-302.7C396.6771,-302.7 389.1667,-302.7 372,-302.7"/>
<polygon fill="#000000" stroke="#000000" points="415.5,-302.7001 423.5,-306.3 419.5,-302.7 423.5,-302.7 423.5,-302.7 423.5,-302.7 419.5,-302.7 423.5,-299.1 415.5,-302.7001 415.5,-302.7001"/>
<ellipse fill="none" stroke="#000000" cx="412.3" cy="-302.7001" rx="3.2" ry="3.2"/>
</g>
<!-- staff -->
<g id="node5" class="node">
<title>staff</title>
<g id="a_node5"><a xlink:href="../../tables/staff.html" xlink:title="staff" target="_top">
<polygon fill="#ffffff" stroke="transparent" points="141.5,-71.2 141.5,-176.2 228.5,-176.2 228.5,-71.2 141.5,-71.2"/>
<polygon fill="#f5f5f5" stroke="transparent" points="142,-152.7 142,-175.7 229,-175.7 229,-152.7 142,-152.7"/>
<polygon fill="none" stroke="#000000" points="142,-152.7 142,-175.7 229,-175.7 229,-152.7 142,-152.7"/>
<text text-anchor="start" x="147" y="-161.8" font-family="Helvetica,sans-Serif" font-weight="bold" font-size="11.00" fill="#000000">staff</text>
<text text-anchor="start" x="194.0437" y="-160.8" font-family="Helvetica,sans-Serif" font-size="11.00" fill="#000000">[table]</text>
<polygon fill="none" stroke="#000000" points="142,-130.7 142,-152.7 229,-152.7 229,-130.7 142,-130.7"/>
<image xlink:href="../../images/primaryKeys.png" width="11px" height="12px" preserveAspectRatio="xMinYMin meet" x="147" y="-147.7"/>
<text text-anchor="start" x="162" y="-137.8" font-family="Helvetica,sans-Serif" font-size="11.00" fill="#000000">staff_id</text>
<polygon fill="none" stroke="#000000" points="142,-108.7 142,-130.7 229,-130.7 229,-108.7 142,-108.7"/>
<image xlink:href="../../images/foreignKeys.png" width="11px" height="12px" preserveAspectRatio="xMinYMin meet" x="147" y="-125.7"/>
<text text-anchor="start" x="162" y="-115.8" font-family="Helvetica,sans-Serif" font-size="11.00" fill="#000000">address_id</text>
<polygon fill="none" stroke="#000000" points="142,-89.7 142,-108.7 229,-108.7 229,-89.7 142,-89.7"/>
<text text-anchor="start" x="145" y="-95.8" font-family="Helvetica,sans-Serif" font-size="11.00" fill="#000000">...</text>
<polygon fill="#ffffff" stroke="transparent" points="142,-70.7 142,-89.7 166,-89.7 166,-70.7 142,-70.7"/>
<polygon fill="none" stroke="#000000" points="142,-70.7 142,-89.7 166,-89.7 166,-70.7 142,-70.7"/>
<text text-anchor="start" x="145" y="-76.8" font-family="Helvetica,sans-Serif" font-size="11.00" fill="#000000">&lt; 1</text>
<polygon fill="#ffffff" stroke="transparent" points="166,-70.7 166,-89.7 206,-89.7 206,-70.7 166,-70.7"/>
<polygon fill="none" stroke="#000000" points="166,-70.7 166,-89.7 206,-89.7 206,-70.7 166,-70.7"/>
<text text-anchor="start" x="170.6105" y="-76.8" font-family="Helvetica,sans-Serif" font-size="11.00" fill="#000000">0 rows</text>
<polygon fill="#ffffff" stroke="transparent" points="206,-70.7 206,-89.7 229,-89.7 229,-70.7 206,-70.7"/>
<polygon fill="none" stroke="#000000" points="206,-70.7 206,-89.7 229,-89.7 229,-70.7 206,-70.7"/>
<text text-anchor="start" x="210.4053" y="-76.8" font-family="Helvetica,sans-Serif" font-size="11.00" fill="#000000">3 &gt;</text>
</a>
</g>
</g>
<!-- payment&#45;&gt;staff -->
<g id="edge4" class="edge">
<title>payment:w&#45;&gt;staff:e</title>
<path fill="none" stroke="#000000" d="M408.9191,-322.8149C358.9216,-307.4573 434.6553,-202.2669 380,-155.7 328.697,-111.9894 296.3989,-141.7 229,-141.7"/>
<polygon fill="#000000" stroke="#000000" points="415.566,-323.6742 423.0384,-328.2703 419.533,-324.1871 423.5,-324.7 423.5,-324.7 423.5,-324.7 419.533,-324.1871 423.9616,-321.1297 415.566,-323.6742 415.566,-323.6742"/>
<ellipse fill="none" stroke="#000000" cx="412.3924" cy="-323.2639" rx="3.2" ry="3.2"/>
</g>
<!-- rental&#45;&gt;customer -->
<g id="edge5" class="edge">
<title>rental:w&#45;&gt;customer:e</title>
<path fill="none" stroke="#000000" d="M265.8236,-239.425C221.05,-260.273 298.3865,-393.7 231,-393.7"/>
<polygon fill="#000000" stroke="#000000" points="272.1438,-238.2102 280.6796,-240.2353 276.0719,-237.4551 280,-236.7 280,-236.7 280,-236.7 276.0719,-237.4551 279.3204,-233.1647 272.1438,-238.2102 272.1438,-238.2102"/>
<ellipse fill="none" stroke="#000000" cx="269.0014" cy="-238.8142" rx="3.2" ry="3.2"/>
</g>
<!-- rental&#45;&gt;staff -->
<g id="edge7" class="edge">
<title>rental:w&#45;&gt;staff:e</title>
<path fill="none" stroke="#000000" d="M266.1487,-210.1335C247.4288,-194.152 262.5486,-141.7 229,-141.7"/>
<polygon fill="#000000" stroke="#000000" points="272.4022,-212.1951 278.8728,-218.119 276.2011,-213.4476 280,-214.7 280,-214.7 280,-214.7 276.2011,-213.4476 281.1272,-211.281 272.4022,-212.1951 272.4022,-212.1951"/>
<ellipse fill="none" stroke="#000000" cx="269.3631" cy="-211.1932" rx="3.2" ry="3.2"/>
</g>
<!-- inventory -->
<g id="node6" class="node">
<title>inventory</title>
<g id="a_node6"><a xlink:href="../../tables/inventory.html" xlink:title="inventory" target="_top">
<polygon fill="#ffffff" stroke="transparent" points="141.5,-197.2 141.5,-258.2 228.5,-258.2 228.5,-197.2 141.5,-197.2"/>
<polygon fill="#f5f5f5" stroke="transparent" points="142,-234.7 142,-257.7 229,-257.7 229,-234.7 142,-234.7"/>
<polygon fill="none" stroke="#000000" points="142,-234.7 142,-257.7 229,-257.7 229,-234.7 142,-234.7"/>
<text text-anchor="start" x="146.6904" y="-243.8" font-family="Helvetica,sans-Serif" font-weight="bold" font-size="11.00" fill="#000000">inventory</text>
<text text-anchor="start" x="194.5219" y="-242.8" font-family="Helvetica,sans-Serif" font-size="11.00" fill="#000000">[table]</text>
<polygon fill="none" stroke="#000000" points="142,-215.7 142,-234.7 229,-234.7 229,-215.7 142,-215.7"/>
<text text-anchor="start" x="145" y="-221.8" font-family="Helvetica,sans-Serif" font-size="11.00" fill="#000000">...</text>
<polygon fill="#ffffff" stroke="transparent" points="142,-196.7 142,-215.7 166,-215.7 166,-196.7 142,-196.7"/>
<polygon fill="none" stroke="#000000" points="142,-196.7 142,-215.7 166,-215.7 166,-196.7 142,-196.7"/>
<text text-anchor="start" x="145" y="-202.8" font-family="Helvetica,sans-Serif" font-size="11.00" fill="#000000">&lt; 1</text>
<polygon fill="#ffffff" stroke="transparent" points="166,-196.7 166,-215.7 206,-215.7 206,-196.7 166,-196.7"/>
<polygon fill="none" stroke="#000000" points="166,-196.7 166,-215.7 206,-215.7 206,-196.7 166,-196.7"/>
<text text-anchor="start" x="170.6105" y="-202.8" font-family="Helvetica,sans-Serif" font-size="11.00" fill="#000000">0 rows</text>
<polygon fill="#ffffff" stroke="transparent" points="206,-196.7 206,-215.7 229,-215.7 229,-196.7 206,-196.7"/>
<polygon fill="none" stroke="#000000" points="206,-196.7 206,-215.7 229,-215.7 229,-196.7 206,-196.7"/>
<text text-anchor="start" x="210.4053" y="-202.8" font-family="Helvetica,sans-Serif" font-size="11.00" fill="#000000">1 &gt;</text>
</a>
</g>
</g>
<!-- rental&#45;&gt;inventory -->
<g id="edge6" class="edge">
<title>rental:w&#45;&gt;inventory:e</title>
<path fill="none" stroke="#000000" d="M265.8901,-254.5309C252.812,-245.452 250.2828,-224.7 229,-224.7"/>
<polygon fill="#000000" stroke="#000000" points="272.3279,-256.4331 278.9799,-262.1524 276.1639,-257.5665 280,-258.7 280,-258.7 280,-258.7 276.1639,-257.5665 281.0201,-255.2476 272.3279,-256.4331 272.3279,-256.4331"/>
<ellipse fill="none" stroke="#000000" cx="269.259" cy="-255.5263" rx="3.2" ry="3.2"/>
</g>
<!-- staff&#45;&gt;address -->
<g id="edge8" class="edge">
<title>staff:w&#45;&gt;address:e</title>
<path fill="none" stroke="#000000" d="M127.375,-119.7C114.9167,-119.7 107.3333,-119.7 90,-119.7"/>
<polygon fill="#000000" stroke="#000000" points="134,-119.7001 142,-123.3 138,-119.7 142,-119.7 142,-119.7 142,-119.7 138,-119.7 142,-116.1 134,-119.7001 134,-119.7001"/>
<ellipse fill="none" stroke="#000000" cx="130.8" cy="-119.7001" rx="3.2" ry="3.2"/>
</g>
<!-- store -->
<g id="node7" class="node">
<title>store</title>
<g id="a_node7"><a xlink:href="../../tables/store.html" xlink:title="store" target="_top">
<polygon fill="#ffffff" stroke="transparent" points="290.5,-38.2 290.5,-99.2 361.5,-99.2 361.5,-38.2 290.5,-38.2"/>
<polygon fill="#f5f5f5" stroke="transparent" points="291,-75.7 291,-98.7 362,-98.7 362,-75.7 291,-75.7"/>
<polygon fill="none" stroke="#000000" points="291,-75.7 291,-98.7 362,-98.7 362,-75.7 291,-75.7"/>
<text text-anchor="start" x="296" y="-84.8" font-family="Helvetica,sans-Serif" font-weight="bold" font-size="11.00" fill="#000000">store</text>
<text text-anchor="start" x="327.0437" y="-83.8" font-family="Helvetica,sans-Serif" font-size="11.00" fill="#000000">[table]</text>
<polygon fill="none" stroke="#000000" points="291,-56.7 291,-75.7 362,-75.7 362,-56.7 291,-56.7"/>
<text text-anchor="start" x="294" y="-62.8" font-family="Helvetica,sans-Serif" font-size="11.00" fill="#000000">...</text>
<polygon fill="#ffffff" stroke="transparent" points="291,-37.7 291,-56.7 312,-56.7 312,-37.7 291,-37.7"/>
<polygon fill="none" stroke="#000000" points="291,-37.7 291,-56.7 312,-56.7 312,-37.7 291,-37.7"/>
<text text-anchor="start" x="293.7027" y="-43.8" font-family="Helvetica,sans-Serif" font-size="11.00" fill="#000000">&lt; 2</text>
<polygon fill="#ffffff" stroke="transparent" points="312,-37.7 312,-56.7 350,-56.7 350,-37.7 312,-37.7"/>
<polygon fill="none" stroke="#000000" points="312,-37.7 312,-56.7 350,-56.7 350,-37.7 312,-37.7"/>
<text text-anchor="start" x="314.8053" y="-43.8" font-family="Helvetica,sans-Serif" font-size="11.00" fill="#000000">0 rows</text>
<polygon fill="#ffffff" stroke="transparent" points="350,-37.7 350,-56.7 362,-56.7 362,-37.7 350,-37.7"/>
<polygon fill="none" stroke="#000000" points="350,-37.7 350,-56.7 362,-56.7 362,-37.7 350,-37.7"/>
<text text-anchor="start" x="352.9431" y="-43.8" font-family="Helvetica,sans-Serif" font-size="11.00" fill="#000000"> &#160;</text>
</a>
</g>
</g>
<!-- store&#45;&gt;address -->
<g id="edge9" class="edge">
<title>store:w&#45;&gt;address:e</title>
<path fill="none" stroke="#000000" d="M276.255,-65.1463C215.93,-60.5835 189.4923,-30.1184 131,-60.7 102.7022,-75.495 121.932,-119.7 90,-119.7"/>
<polygon fill="#000000" stroke="#000000" points="283.0056,-65.3998 290.8649,-69.2975 287.0028,-65.5499 291,-65.7 291,-65.7 291,-65.7 287.0028,-65.5499 291.1351,-62.1025 283.0056,-65.3998 283.0056,-65.3998"/>
<ellipse fill="none" stroke="#000000" cx="279.8079" cy="-65.2797" rx="3.2" ry="3.2"/>
</g>
<!-- store&#45;&gt;staff -->
<g id="edge10" class="edge">
<title>store:w&#45;&gt;staff:e</title>
<path fill="none" stroke="#000000" d="M280.4399,-67.5787C251.5256,-79.282 268.5051,-141.7 229,-141.7"/>
<polygon fill="#000000" stroke="#000000" points="289.5117,-61.902 290.913,-69.7783 289.3377,-70.0585 287.9365,-62.1822 289.5117,-61.902"/>
<polyline fill="none" stroke="#000000" points="291,-65.7 287.0618,-66.4006 "/>
<ellipse fill="none" stroke="#000000" cx="283.9113" cy="-66.9611" rx="3.2" ry="3.2"/>
</g>
</g>
</svg>
