<?xml version="1.0" encoding="UTF-8" standalone="no"?>
<!DOCTYPE svg PUBLIC "-//W3C//DTD SVG 1.1//EN"
 "http://www.w3.org/Graphics/SVG/1.1/DTD/svg11.dtd">
<!-- Generated by graphviz version 2.40.1 (20161225.0304)
 -->
<!-- Title: twoDegreesRelationshipsDiagramImplied Pages: 1 -->
<svg width="1071pt" height="688pt"
 viewBox="0.00 0.00 1071.00 687.82" xmlns="http://www.w3.org/2000/svg" xmlns:xlink="http://www.w3.org/1999/xlink">
<g id="graph0" class="graph" transform="scale(1 1) rotate(0) translate(4 683.8211)">
<title>twoDegreesRelationshipsDiagramImplied</title>
<polygon fill="#ffffff" stroke="transparent" points="-4,4 -4,-683.8211 1067,-683.8211 1067,4 -4,4"/>
<text text-anchor="middle" x="72.4936" y="-7.3" font-family="Helvetica,sans-Serif" font-size="11.00" fill="#000000">Generated by SchemaSpy</text>
<!-- customer -->
<g id="node1" class="node">
<title>customer</title>
<g id="a_node1"><a xlink:href="../../tables/customer.html" xlink:title="customer" target="_top">
<polygon fill="#ffffff" stroke="transparent" points="404,-238.3211 404,-387.3211 496,-387.3211 496,-238.3211 404,-238.3211"/>
<polygon fill="#f5f5f5" stroke="transparent" points="404,-363.8211 404,-386.8211 496,-386.8211 496,-363.8211 404,-363.8211"/>
<polygon fill="none" stroke="#000000" points="404,-363.8211 404,-386.8211 496,-386.8211 496,-363.8211 404,-363.8211"/>
<text text-anchor="start" x="409" y="-372.9211" font-family="Helvetica,sans-Serif" font-weight="bold" font-size="11.00" fill="#000000">customer</text>
<text text-anchor="start" x="461.0437" y="-371.9211" font-family="Helvetica,sans-Serif" font-size="11.00" fill="#000000">[table]</text>
<polygon fill="none" stroke="#000000" points="404,-341.8211 404,-363.8211 496,-363.8211 496,-341.8211 404,-341.8211"/>
<image xlink:href="../../images/primaryKeys.png" width="11px" height="12px" preserveAspectRatio="xMinYMin meet" x="409" y="-358.821"/>
<text text-anchor="start" x="424" y="-348.9211" font-family="Helvetica,sans-Serif" font-size="11.00" fill="#000000">customer_id</text>
<polygon fill="#ffffff" stroke="transparent" points="404,-319.8211 404,-341.8211 496,-341.8211 496,-319.8211 404,-319.8211"/>
<polygon fill="none" stroke="#000000" points="404,-319.8211 404,-341.8211 496,-341.8211 496,-319.8211 404,-319.8211"/>
<image xlink:href="../../images/foreignKeys.png" width="11px" height="12px" preserveAspectRatio="xMinYMin meet" x="409" y="-336.821"/>
<text text-anchor="start" x="424" y="-326.9211" font-family="Helvetica,sans-Serif" font-size="11.00" fill="#000000">store_id</text>
<polygon fill="#ffffff" stroke="transparent" points="404,-297.8211 404,-319.8211 496,-319.8211 496,-297.8211 404,-297.8211"/>
<polygon fill="none" stroke="#000000" points="404,-297.8211 404,-319.8211 496,-319.8211 496,-297.8211 404,-297.8211"/>
<text text-anchor="start" x="424" y="-304.9211" font-family="Helvetica,sans-Serif" font-size="11.00" fill="#000000">last_name</text>
<polygon fill="#ffffff" stroke="transparent" points="404,-275.8211 404,-297.8211 496,-297.8211 496,-275.8211 404,-275.8211"/>
<polygon fill="none" stroke="#000000" points="404,-275.8211 404,-297.8211 496,-297.8211 496,-275.8211 404,-275.8211"/>
<image xlink:href="../../images/foreignKeys.png" width="11px" height="12px" preserveAspectRatio="xMinYMin meet" x="409" y="-292.821"/>
<text text-anchor="start" x="424" y="-282.9211" font-family="Helvetica,sans-Serif" font-size="11.00" fill="#000000">address_id</text>
<polygon fill="none" stroke="#000000" points="404,-256.8211 404,-275.8211 496,-275.8211 496,-256.8211 404,-256.8211"/>
<text text-anchor="start" x="407" y="-262.9211" font-family="Helvetica,sans-Serif" font-size="11.00" fill="#000000">...</text>
<polygon fill="#ffffff" stroke="transparent" points="404,-237.8211 404,-256.8211 431,-256.8211 431,-237.8211 404,-237.8211"/>
<polygon fill="none" stroke="#000000" points="404,-237.8211 404,-256.8211 431,-256.8211 431,-237.8211 404,-237.8211"/>
<text text-anchor="start" x="407" y="-243.9211" font-family="Helvetica,sans-Serif" font-size="11.00" fill="#000000">&lt; 2</text>
<polygon fill="#ffffff" stroke="transparent" points="431,-237.8211 431,-256.8211 472,-256.8211 472,-237.8211 431,-237.8211"/>
<polygon fill="none" stroke="#000000" points="431,-237.8211 431,-256.8211 472,-256.8211 472,-237.8211 431,-237.8211"/>
<text text-anchor="start" x="436.6105" y="-243.9211" font-family="Helvetica,sans-Serif" font-size="11.00" fill="#000000">0 rows</text>
<polygon fill="#ffffff" stroke="transparent" points="472,-237.8211 472,-256.8211 496,-256.8211 496,-237.8211 472,-237.8211"/>
<polygon fill="none" stroke="#000000" points="472,-237.8211 472,-256.8211 496,-256.8211 496,-237.8211 472,-237.8211"/>
<text text-anchor="start" x="477.4053" y="-243.9211" font-family="Helvetica,sans-Serif" font-size="11.00" fill="#000000">8 &gt;</text>
</a>
</g>
</g>
<!-- address -->
<g id="node2" class="node">
<title>address</title>
<g id="a_node2"><a xlink:href="../../tables/address.html" xlink:title="address" target="_top">
<polygon fill="#ffffff" stroke="transparent" points="8,-180.3211 8,-241.3211 90,-241.3211 90,-180.3211 8,-180.3211"/>
<polygon fill="#f5f5f5" stroke="transparent" points="8,-217.8211 8,-240.8211 90,-240.8211 90,-217.8211 8,-217.8211"/>
<polygon fill="none" stroke="#000000" points="8,-217.8211 8,-240.8211 90,-240.8211 90,-217.8211 8,-217.8211"/>
<text text-anchor="start" x="12.9393" y="-226.9211" font-family="Helvetica,sans-Serif" font-weight="bold" font-size="11.00" fill="#000000">address</text>
<text text-anchor="start" x="55.5219" y="-225.9211" font-family="Helvetica,sans-Serif" font-size="11.00" fill="#000000">[table]</text>
<polygon fill="none" stroke="#000000" points="8,-198.8211 8,-217.8211 90,-217.8211 90,-198.8211 8,-198.8211"/>
<text text-anchor="start" x="11" y="-204.9211" font-family="Helvetica,sans-Serif" font-size="11.00" fill="#000000">...</text>
<polygon fill="#ffffff" stroke="transparent" points="8,-179.8211 8,-198.8211 30,-198.8211 30,-179.8211 8,-179.8211"/>
<polygon fill="none" stroke="#000000" points="8,-179.8211 8,-198.8211 30,-198.8211 30,-179.8211 8,-179.8211"/>
<text text-anchor="start" x="11" y="-185.9211" font-family="Helvetica,sans-Serif" font-size="11.00" fill="#000000">&lt; 1</text>
<polygon fill="#ffffff" stroke="transparent" points="30,-179.8211 30,-198.8211 68,-198.8211 68,-179.8211 30,-179.8211"/>
<polygon fill="none" stroke="#000000" points="30,-179.8211 30,-198.8211 68,-198.8211 68,-179.8211 30,-179.8211"/>
<text text-anchor="start" x="32.8053" y="-185.9211" font-family="Helvetica,sans-Serif" font-size="11.00" fill="#000000">0 rows</text>
<polygon fill="#ffffff" stroke="transparent" points="68,-179.8211 68,-198.8211 90,-198.8211 90,-179.8211 68,-179.8211"/>
<polygon fill="none" stroke="#000000" points="68,-179.8211 68,-198.8211 90,-198.8211 90,-179.8211 68,-179.8211"/>
<text text-anchor="start" x="71.4053" y="-185.9211" font-family="Helvetica,sans-Serif" font-size="11.00" fill="#000000">3 &gt;</text>
</a>
</g>
</g>
<!-- customer&#45;&gt;address -->
<g id="edge1" class="edge">
<title>customer:w&#45;&gt;address:e</title>
<path fill="none" stroke="#000000" d="M389.4229,-287.0607C278.6025,-290.7097 231.326,-333.9798 131,-274.8211 100.928,-257.0886 124.9108,-207.8211 90,-207.8211"/>
<polygon fill="#000000" stroke="#000000" points="396.0011,-286.9526 404.0592,-290.4206 400.0005,-286.8868 404,-286.8211 404,-286.8211 404,-286.8211 400.0005,-286.8868 403.9408,-283.2215 396.0011,-286.9526 396.0011,-286.9526"/>
<ellipse fill="none" stroke="#000000" cx="392.8015" cy="-287.0052" rx="3.2" ry="3.2"/>
</g>
<!-- store -->
<g id="node3" class="node">
<title>store</title>
<g id="a_node3"><a xlink:href="../../tables/store.html" xlink:title="store" target="_top">
<polygon fill="#ffffff" stroke="transparent" points="275,-101.3211 275,-162.3211 355,-162.3211 355,-101.3211 275,-101.3211"/>
<polygon fill="#f5f5f5" stroke="transparent" points="275,-138.8211 275,-161.8211 355,-161.8211 355,-138.8211 275,-138.8211"/>
<polygon fill="none" stroke="#000000" points="275,-138.8211 275,-161.8211 355,-161.8211 355,-138.8211 275,-138.8211"/>
<text text-anchor="start" x="280" y="-147.9211" font-family="Helvetica,sans-Serif" font-weight="bold" font-size="11.00" fill="#000000">store</text>
<text text-anchor="start" x="320.0437" y="-146.9211" font-family="Helvetica,sans-Serif" font-size="11.00" fill="#000000">[table]</text>
<polygon fill="none" stroke="#000000" points="275,-119.8211 275,-138.8211 355,-138.8211 355,-119.8211 275,-119.8211"/>
<text text-anchor="start" x="278" y="-125.9211" font-family="Helvetica,sans-Serif" font-size="11.00" fill="#000000">...</text>
<polygon fill="#ffffff" stroke="transparent" points="275,-100.8211 275,-119.8211 296,-119.8211 296,-100.8211 275,-100.8211"/>
<polygon fill="none" stroke="#000000" points="275,-100.8211 275,-119.8211 296,-119.8211 296,-100.8211 275,-100.8211"/>
<text text-anchor="start" x="277.7027" y="-106.9211" font-family="Helvetica,sans-Serif" font-size="11.00" fill="#000000">&lt; 2</text>
<polygon fill="#ffffff" stroke="transparent" points="296,-100.8211 296,-119.8211 334,-119.8211 334,-100.8211 296,-100.8211"/>
<polygon fill="none" stroke="#000000" points="296,-100.8211 296,-119.8211 334,-119.8211 334,-100.8211 296,-100.8211"/>
<text text-anchor="start" x="298.8053" y="-106.9211" font-family="Helvetica,sans-Serif" font-size="11.00" fill="#000000">0 rows</text>
<polygon fill="#ffffff" stroke="transparent" points="334,-100.8211 334,-119.8211 355,-119.8211 355,-100.8211 334,-100.8211"/>
<polygon fill="none" stroke="#000000" points="334,-100.8211 334,-119.8211 355,-119.8211 355,-100.8211 334,-100.8211"/>
<text text-anchor="start" x="336.7027" y="-106.9211" font-family="Helvetica,sans-Serif" font-size="11.00" fill="#000000">3 &gt;</text>
</a>
</g>
</g>
<!-- customer&#45;&gt;store -->
<g id="edge2" class="edge">
<title>customer:w&#45;&gt;store:e</title>
<path fill="none" stroke="#000000" d="M389.6276,-328.6892C327.2223,-307.1006 441.788,-128.8211 355,-128.8211"/>
<polygon fill="#000000" stroke="#000000" points="396.0866,-329.6472 403.4718,-334.3821 400.0433,-330.2341 404,-330.8211 404,-330.8211 404,-330.8211 400.0433,-330.2341 404.5282,-327.26 396.0866,-329.6472 396.0866,-329.6472"/>
<ellipse fill="none" stroke="#000000" cx="392.9212" cy="-329.1777" rx="3.2" ry="3.2"/>
</g>
<!-- store&#45;&gt;address -->
<g id="edge36" class="edge">
<title>store:w&#45;&gt;address:e</title>
<path fill="none" stroke="#000000" d="M260.3303,-128.1915C206.7292,-123.5756 181.163,-95.9891 131,-126.8211 96.6249,-147.9492 130.3491,-207.8211 90,-207.8211"/>
<polygon fill="#000000" stroke="#000000" points="267.0074,-128.478 274.8456,-132.4177 271.0037,-128.6495 275,-128.8211 275,-128.8211 275,-128.8211 271.0037,-128.6495 275.1544,-125.2244 267.0074,-128.478 267.0074,-128.478"/>
<ellipse fill="none" stroke="#000000" cx="263.8103" cy="-128.3408" rx="3.2" ry="3.2"/>
</g>
<!-- staff -->
<g id="node7" class="node">
<title>staff</title>
<g id="a_node7"><a xlink:href="../../tables/staff.html" xlink:title="staff" target="_top">
<polygon fill="#ffffff" stroke="transparent" points="139,-137.3211 139,-264.3211 226,-264.3211 226,-137.3211 139,-137.3211"/>
<polygon fill="#f5f5f5" stroke="transparent" points="139.5,-240.8211 139.5,-263.8211 226.5,-263.8211 226.5,-240.8211 139.5,-240.8211"/>
<polygon fill="none" stroke="#000000" points="139.5,-240.8211 139.5,-263.8211 226.5,-263.8211 226.5,-240.8211 139.5,-240.8211"/>
<text text-anchor="start" x="144.5" y="-249.9211" font-family="Helvetica,sans-Serif" font-weight="bold" font-size="11.00" fill="#000000">staff</text>
<text text-anchor="start" x="191.5437" y="-248.9211" font-family="Helvetica,sans-Serif" font-size="11.00" fill="#000000">[table]</text>
<polygon fill="none" stroke="#000000" points="139.5,-218.8211 139.5,-240.8211 226.5,-240.8211 226.5,-218.8211 139.5,-218.8211"/>
<image xlink:href="../../images/primaryKeys.png" width="11px" height="12px" preserveAspectRatio="xMinYMin meet" x="144.5" y="-235.821"/>
<text text-anchor="start" x="159.5" y="-225.9211" font-family="Helvetica,sans-Serif" font-size="11.00" fill="#000000">staff_id</text>
<polygon fill="none" stroke="#000000" points="139.5,-196.8211 139.5,-218.8211 226.5,-218.8211 226.5,-196.8211 139.5,-196.8211"/>
<image xlink:href="../../images/foreignKeys.png" width="11px" height="12px" preserveAspectRatio="xMinYMin meet" x="144.5" y="-213.821"/>
<text text-anchor="start" x="159.5" y="-203.9211" font-family="Helvetica,sans-Serif" font-size="11.00" fill="#000000">address_id</text>
<polygon fill="none" stroke="#000000" points="139.5,-174.8211 139.5,-196.8211 226.5,-196.8211 226.5,-174.8211 139.5,-174.8211"/>
<image xlink:href="../../images/foreignKeys.png" width="11px" height="12px" preserveAspectRatio="xMinYMin meet" x="144.5" y="-191.821"/>
<text text-anchor="start" x="159.5" y="-181.9211" font-family="Helvetica,sans-Serif" font-size="11.00" fill="#000000">store_id</text>
<polygon fill="none" stroke="#000000" points="139.5,-155.8211 139.5,-174.8211 226.5,-174.8211 226.5,-155.8211 139.5,-155.8211"/>
<text text-anchor="start" x="142.5" y="-161.9211" font-family="Helvetica,sans-Serif" font-size="11.00" fill="#000000">...</text>
<polygon fill="#ffffff" stroke="transparent" points="139.5,-136.8211 139.5,-155.8211 163.5,-155.8211 163.5,-136.8211 139.5,-136.8211"/>
<polygon fill="none" stroke="#000000" points="139.5,-136.8211 139.5,-155.8211 163.5,-155.8211 163.5,-136.8211 139.5,-136.8211"/>
<text text-anchor="start" x="142.5" y="-142.9211" font-family="Helvetica,sans-Serif" font-size="11.00" fill="#000000">&lt; 2</text>
<polygon fill="#ffffff" stroke="transparent" points="163.5,-136.8211 163.5,-155.8211 203.5,-155.8211 203.5,-136.8211 163.5,-136.8211"/>
<polygon fill="none" stroke="#000000" points="163.5,-136.8211 163.5,-155.8211 203.5,-155.8211 203.5,-136.8211 163.5,-136.8211"/>
<text text-anchor="start" x="168.1105" y="-142.9211" font-family="Helvetica,sans-Serif" font-size="11.00" fill="#000000">0 rows</text>
<polygon fill="#ffffff" stroke="transparent" points="203.5,-136.8211 203.5,-155.8211 226.5,-155.8211 226.5,-136.8211 203.5,-136.8211"/>
<polygon fill="none" stroke="#000000" points="203.5,-136.8211 203.5,-155.8211 226.5,-155.8211 226.5,-136.8211 203.5,-136.8211"/>
<text text-anchor="start" x="207.9053" y="-142.9211" font-family="Helvetica,sans-Serif" font-size="11.00" fill="#000000">9 &gt;</text>
</a>
</g>
</g>
<!-- store&#45;&gt;staff -->
<g id="edge37" class="edge">
<title>store:w&#45;&gt;staff:e</title>
<path fill="none" stroke="#000000" d="M264.6708,-130.7485C232.9073,-144.7117 272.2113,-229.8211 226.5,-229.8211"/>
<polygon fill="#000000" stroke="#000000" points="273.4798,-125.0357 274.9473,-132.8999 273.3745,-133.1934 271.907,-125.3292 273.4798,-125.0357"/>
<polyline fill="none" stroke="#000000" points="275,-128.8211 271.0679,-129.5548 "/>
<ellipse fill="none" stroke="#000000" cx="267.9222" cy="-130.1418" rx="3.2" ry="3.2"/>
</g>
<!-- inventory -->
<g id="node4" class="node">
<title>inventory</title>
<g id="a_node4"><a xlink:href="../../tables/inventory.html" xlink:title="inventory" target="_top">
<polygon fill="#ffffff" stroke="transparent" points="406.5,-128.3211 406.5,-189.3211 493.5,-189.3211 493.5,-128.3211 406.5,-128.3211"/>
<polygon fill="#f5f5f5" stroke="transparent" points="407,-165.8211 407,-188.8211 494,-188.8211 494,-165.8211 407,-165.8211"/>
<polygon fill="none" stroke="#000000" points="407,-165.8211 407,-188.8211 494,-188.8211 494,-165.8211 407,-165.8211"/>
<text text-anchor="start" x="411.6904" y="-174.9211" font-family="Helvetica,sans-Serif" font-weight="bold" font-size="11.00" fill="#000000">inventory</text>
<text text-anchor="start" x="459.5219" y="-173.9211" font-family="Helvetica,sans-Serif" font-size="11.00" fill="#000000">[table]</text>
<polygon fill="none" stroke="#000000" points="407,-146.8211 407,-165.8211 494,-165.8211 494,-146.8211 407,-146.8211"/>
<text text-anchor="start" x="410" y="-152.9211" font-family="Helvetica,sans-Serif" font-size="11.00" fill="#000000">...</text>
<polygon fill="#ffffff" stroke="transparent" points="407,-127.8211 407,-146.8211 431,-146.8211 431,-127.8211 407,-127.8211"/>
<polygon fill="none" stroke="#000000" points="407,-127.8211 407,-146.8211 431,-146.8211 431,-127.8211 407,-127.8211"/>
<text text-anchor="start" x="410" y="-133.9211" font-family="Helvetica,sans-Serif" font-size="11.00" fill="#000000">&lt; 2</text>
<polygon fill="#ffffff" stroke="transparent" points="431,-127.8211 431,-146.8211 471,-146.8211 471,-127.8211 431,-127.8211"/>
<polygon fill="none" stroke="#000000" points="431,-127.8211 431,-146.8211 471,-146.8211 471,-127.8211 431,-127.8211"/>
<text text-anchor="start" x="435.6105" y="-133.9211" font-family="Helvetica,sans-Serif" font-size="11.00" fill="#000000">0 rows</text>
<polygon fill="#ffffff" stroke="transparent" points="471,-127.8211 471,-146.8211 494,-146.8211 494,-127.8211 471,-127.8211"/>
<polygon fill="none" stroke="#000000" points="471,-127.8211 471,-146.8211 494,-146.8211 494,-127.8211 471,-127.8211"/>
<text text-anchor="start" x="475.4053" y="-133.9211" font-family="Helvetica,sans-Serif" font-size="11.00" fill="#000000">1 &gt;</text>
</a>
</g>
</g>
<!-- inventory&#45;&gt;store -->
<g id="edge3" class="edge">
<title>inventory:w&#45;&gt;store:e</title>
<path fill="none" stroke="#000000" d="M392.7154,-152.2913C379.6553,-144.9726 375.1409,-128.8211 355,-128.8211"/>
<polygon fill="#000000" stroke="#000000" points="399.2336,-153.9019 406.1364,-159.3159 403.1168,-154.8615 407,-155.8211 407,-155.8211 407,-155.8211 403.1168,-154.8615 407.8636,-152.3262 399.2336,-153.9019 399.2336,-153.9019"/>
<ellipse fill="none" stroke="#000000" cx="396.127" cy="-153.1342" rx="3.2" ry="3.2"/>
</g>
<!-- payment -->
<g id="node5" class="node">
<title>payment</title>
<g id="a_node5"><a xlink:href="../../tables/payment.html" xlink:title="payment" target="_top">
<polygon fill="#ffffff" stroke="transparent" points="686,-317.3211 686,-466.3211 787,-466.3211 787,-317.3211 686,-317.3211"/>
<polygon fill="#f5f5f5" stroke="transparent" points="686.5,-442.8211 686.5,-465.8211 787.5,-465.8211 787.5,-442.8211 686.5,-442.8211"/>
<polygon fill="none" stroke="#000000" points="686.5,-442.8211 686.5,-465.8211 787.5,-465.8211 787.5,-442.8211 686.5,-442.8211"/>
<text text-anchor="start" x="691.5" y="-451.9211" font-family="Helvetica,sans-Serif" font-weight="bold" font-size="11.00" fill="#000000">payment</text>
<text text-anchor="start" x="752.5437" y="-450.9211" font-family="Helvetica,sans-Serif" font-size="11.00" fill="#000000">[table]</text>
<polygon fill="none" stroke="#000000" points="686.5,-420.8211 686.5,-442.8211 787.5,-442.8211 787.5,-420.8211 686.5,-420.8211"/>
<image xlink:href="../../images/primaryKeys.png" width="11px" height="12px" preserveAspectRatio="xMinYMin meet" x="691.5" y="-437.821"/>
<text text-anchor="start" x="706.5" y="-427.9211" font-family="Helvetica,sans-Serif" font-size="11.00" fill="#000000">payment_id</text>
<polygon fill="#ffffff" stroke="transparent" points="686.5,-398.8211 686.5,-420.8211 787.5,-420.8211 787.5,-398.8211 686.5,-398.8211"/>
<polygon fill="none" stroke="#000000" points="686.5,-398.8211 686.5,-420.8211 787.5,-420.8211 787.5,-398.8211 686.5,-398.8211"/>
<image xlink:href="../../images/foreignKeys.png" width="11px" height="12px" preserveAspectRatio="xMinYMin meet" x="691.5" y="-415.821"/>
<text text-anchor="start" x="706.5" y="-405.9211" font-family="Helvetica,sans-Serif" font-size="11.00" fill="#000000">customer_id</text>
<polygon fill="#ffffff" stroke="transparent" points="686.5,-376.8211 686.5,-398.8211 787.5,-398.8211 787.5,-376.8211 686.5,-376.8211"/>
<polygon fill="none" stroke="#000000" points="686.5,-376.8211 686.5,-398.8211 787.5,-398.8211 787.5,-376.8211 686.5,-376.8211"/>
<image xlink:href="../../images/foreignKeys.png" width="11px" height="12px" preserveAspectRatio="xMinYMin meet" x="691.5" y="-393.821"/>
<text text-anchor="start" x="706.5" y="-383.9211" font-family="Helvetica,sans-Serif" font-size="11.00" fill="#000000">staff_id</text>
<polygon fill="none" stroke="#000000" points="686.5,-354.8211 686.5,-376.8211 787.5,-376.8211 787.5,-354.8211 686.5,-354.8211"/>
<image xlink:href="../../images/foreignKeys.png" width="11px" height="12px" preserveAspectRatio="xMinYMin meet" x="691.5" y="-371.821"/>
<text text-anchor="start" x="706.5" y="-361.9211" font-family="Helvetica,sans-Serif" font-size="11.00" fill="#000000">rental_id</text>
<polygon fill="none" stroke="#000000" points="686.5,-335.8211 686.5,-354.8211 787.5,-354.8211 787.5,-335.8211 686.5,-335.8211"/>
<text text-anchor="start" x="689.5" y="-341.9211" font-family="Helvetica,sans-Serif" font-size="11.00" fill="#000000">...</text>
<polygon fill="#ffffff" stroke="transparent" points="686.5,-316.8211 686.5,-335.8211 717.5,-335.8211 717.5,-316.8211 686.5,-316.8211"/>
<polygon fill="none" stroke="#000000" points="686.5,-316.8211 686.5,-335.8211 717.5,-335.8211 717.5,-316.8211 686.5,-316.8211"/>
<text text-anchor="start" x="689.5" y="-322.9211" font-family="Helvetica,sans-Serif" font-size="11.00" fill="#000000">&lt; 3</text>
<polygon fill="#ffffff" stroke="transparent" points="717.5,-316.8211 717.5,-335.8211 760.5,-335.8211 760.5,-316.8211 717.5,-316.8211"/>
<polygon fill="none" stroke="#000000" points="717.5,-316.8211 717.5,-335.8211 760.5,-335.8211 760.5,-316.8211 717.5,-316.8211"/>
<text text-anchor="start" x="725.1105" y="-322.9211" font-family="Helvetica,sans-Serif" font-size="11.00" fill="#000000">0 rows</text>
<polygon fill="#ffffff" stroke="transparent" points="760.5,-316.8211 760.5,-335.8211 787.5,-335.8211 787.5,-316.8211 760.5,-316.8211"/>
<polygon fill="none" stroke="#000000" points="760.5,-316.8211 760.5,-335.8211 787.5,-335.8211 787.5,-316.8211 760.5,-316.8211"/>
<text text-anchor="start" x="768.9053" y="-322.9211" font-family="Helvetica,sans-Serif" font-size="11.00" fill="#000000">6 &gt;</text>
</a>
</g>
</g>
<!-- payment&#45;&gt;customer -->
<g id="edge4" class="edge">
<title>payment:w&#45;&gt;customer:e</title>
<path fill="none" stroke="#000000" d="M671.915,-409.9042C615.8796,-410.5061 593.4899,-413.4802 537,-387.8211 515.1861,-377.9126 519.9588,-352.8211 496,-352.8211"/>
<polygon fill="#000000" stroke="#000000" points="678.5001,-409.8667 686.5205,-413.421 682.5001,-409.8439 686.5,-409.8211 686.5,-409.8211 686.5,-409.8211 682.5001,-409.8439 686.4795,-406.2211 678.5001,-409.8667 678.5001,-409.8667"/>
<ellipse fill="none" stroke="#000000" cx="675.3002" cy="-409.885" rx="3.2" ry="3.2"/>
</g>
<!-- rental -->
<g id="node6" class="node">
<title>rental</title>
<g id="a_node6"><a xlink:href="../../tables/rental.html" xlink:title="rental" target="_top">
<polygon fill="#ffffff" stroke="transparent" points="545,-182.3211 545,-353.3211 637,-353.3211 637,-182.3211 545,-182.3211"/>
<polygon fill="#f5f5f5" stroke="transparent" points="545,-329.8211 545,-352.8211 637,-352.8211 637,-329.8211 545,-329.8211"/>
<polygon fill="none" stroke="#000000" points="545,-329.8211 545,-352.8211 637,-352.8211 637,-329.8211 545,-329.8211"/>
<text text-anchor="start" x="550" y="-338.9211" font-family="Helvetica,sans-Serif" font-weight="bold" font-size="11.00" fill="#000000">rental</text>
<text text-anchor="start" x="602.0437" y="-337.9211" font-family="Helvetica,sans-Serif" font-size="11.00" fill="#000000">[table]</text>
<polygon fill="none" stroke="#000000" points="545,-307.8211 545,-329.8211 637,-329.8211 637,-307.8211 545,-307.8211"/>
<image xlink:href="../../images/primaryKeys.png" width="11px" height="12px" preserveAspectRatio="xMinYMin meet" x="550" y="-324.821"/>
<text text-anchor="start" x="565" y="-314.9211" font-family="Helvetica,sans-Serif" font-size="11.00" fill="#000000">rental_id</text>
<polygon fill="#ffffff" stroke="transparent" points="545,-285.8211 545,-307.8211 637,-307.8211 637,-285.8211 545,-285.8211"/>
<polygon fill="none" stroke="#000000" points="545,-285.8211 545,-307.8211 637,-307.8211 637,-285.8211 545,-285.8211"/>
<text text-anchor="start" x="565" y="-292.9211" font-family="Helvetica,sans-Serif" font-size="11.00" fill="#000000">rental_date</text>
<polygon fill="#ffffff" stroke="transparent" points="545,-263.8211 545,-285.8211 637,-285.8211 637,-263.8211 545,-263.8211"/>
<polygon fill="none" stroke="#000000" points="545,-263.8211 545,-285.8211 637,-285.8211 637,-263.8211 545,-263.8211"/>
<image xlink:href="../../images/foreignKeys.png" width="11px" height="12px" preserveAspectRatio="xMinYMin meet" x="550" y="-280.821"/>
<text text-anchor="start" x="565" y="-270.9211" font-family="Helvetica,sans-Serif" font-size="11.00" fill="#000000">inventory_id</text>
<polygon fill="#ffffff" stroke="transparent" points="545,-241.8211 545,-263.8211 637,-263.8211 637,-241.8211 545,-241.8211"/>
<polygon fill="none" stroke="#000000" points="545,-241.8211 545,-263.8211 637,-263.8211 637,-241.8211 545,-241.8211"/>
<image xlink:href="../../images/foreignKeys.png" width="11px" height="12px" preserveAspectRatio="xMinYMin meet" x="550" y="-258.821"/>
<text text-anchor="start" x="565" y="-248.9211" font-family="Helvetica,sans-Serif" font-size="11.00" fill="#000000">customer_id</text>
<polygon fill="none" stroke="#000000" points="545,-219.8211 545,-241.8211 637,-241.8211 637,-219.8211 545,-219.8211"/>
<image xlink:href="../../images/foreignKeys.png" width="11px" height="12px" preserveAspectRatio="xMinYMin meet" x="550" y="-236.821"/>
<text text-anchor="start" x="565" y="-226.9211" font-family="Helvetica,sans-Serif" font-size="11.00" fill="#000000">staff_id</text>
<polygon fill="none" stroke="#000000" points="545,-200.8211 545,-219.8211 637,-219.8211 637,-200.8211 545,-200.8211"/>
<text text-anchor="start" x="548" y="-206.9211" font-family="Helvetica,sans-Serif" font-size="11.00" fill="#000000">...</text>
<polygon fill="#ffffff" stroke="transparent" points="545,-181.8211 545,-200.8211 572,-200.8211 572,-181.8211 545,-181.8211"/>
<polygon fill="none" stroke="#000000" points="545,-181.8211 545,-200.8211 572,-200.8211 572,-181.8211 545,-181.8211"/>
<text text-anchor="start" x="548" y="-187.9211" font-family="Helvetica,sans-Serif" font-size="11.00" fill="#000000">&lt; 3</text>
<polygon fill="#ffffff" stroke="transparent" points="572,-181.8211 572,-200.8211 613,-200.8211 613,-181.8211 572,-181.8211"/>
<polygon fill="none" stroke="#000000" points="572,-181.8211 572,-200.8211 613,-200.8211 613,-181.8211 572,-181.8211"/>
<text text-anchor="start" x="577.6105" y="-187.9211" font-family="Helvetica,sans-Serif" font-size="11.00" fill="#000000">0 rows</text>
<polygon fill="#ffffff" stroke="transparent" points="613,-181.8211 613,-200.8211 637,-200.8211 637,-181.8211 613,-181.8211"/>
<polygon fill="none" stroke="#000000" points="613,-181.8211 613,-200.8211 637,-200.8211 637,-181.8211 613,-181.8211"/>
<text text-anchor="start" x="618.4053" y="-187.9211" font-family="Helvetica,sans-Serif" font-size="11.00" fill="#000000">7 &gt;</text>
</a>
</g>
</g>
<!-- payment&#45;&gt;rental -->
<g id="edge5" class="edge">
<title>payment:w&#45;&gt;rental:e</title>
<path fill="none" stroke="#000000" d="M672.8564,-361.1427C658.9443,-349.2546 661.412,-318.8211 637,-318.8211"/>
<polygon fill="#000000" stroke="#000000" points="678.9325,-363.2262 685.3323,-369.2264 682.7163,-364.5236 686.5,-365.8211 686.5,-365.8211 686.5,-365.8211 682.7163,-364.5236 687.6677,-362.4157 678.9325,-363.2262 678.9325,-363.2262"/>
<ellipse fill="none" stroke="#000000" cx="675.9055" cy="-362.1882" rx="3.2" ry="3.2"/>
</g>
<!-- payment&#45;&gt;staff -->
<g id="edge6" class="edge">
<title>payment:w&#45;&gt;staff:e</title>
<path fill="none" stroke="#000000" d="M671.7508,-388.0819C553.9245,-392.2786 510.7968,-445.0729 396,-397.8211 297.9169,-357.4488 332.5671,-229.8211 226.5,-229.8211"/>
<polygon fill="#000000" stroke="#000000" points="678.5013,-387.9626 686.5637,-391.4205 682.5006,-387.8918 686.5,-387.8211 686.5,-387.8211 686.5,-387.8211 682.5006,-387.8918 686.4363,-384.2216 678.5013,-387.9626 678.5013,-387.9626"/>
<ellipse fill="none" stroke="#000000" cx="675.3018" cy="-388.0192" rx="3.2" ry="3.2"/>
</g>
<!-- rental&#45;&gt;customer -->
<g id="edge31" class="edge">
<title>rental:w&#45;&gt;customer:e</title>
<path fill="none" stroke="#000000" d="M531.043,-256.865C506.1541,-275.5734 539.4999,-352.8211 496,-352.8211"/>
<polygon fill="#000000" stroke="#000000" points="537.316,-255.0475 546.0019,-256.2788 541.158,-253.9343 545,-252.8211 545,-252.8211 545,-252.8211 541.158,-253.9343 543.9981,-249.3633 537.316,-255.0475 537.316,-255.0475"/>
<ellipse fill="none" stroke="#000000" cx="534.2425" cy="-255.9381" rx="3.2" ry="3.2"/>
</g>
<!-- rental&#45;&gt;inventory -->
<g id="edge32" class="edge">
<title>rental:w&#45;&gt;inventory:e</title>
<path fill="none" stroke="#000000" d="M530.9767,-271.388C499.2209,-251.8767 545.6973,-155.8211 494,-155.8211"/>
<polygon fill="#000000" stroke="#000000" points="537.2295,-272.9187 544.1439,-278.3178 541.1147,-273.8699 545,-274.8211 545,-274.8211 545,-274.8211 541.1147,-273.8699 545.8561,-271.3243 537.2295,-272.9187 537.2295,-272.9187"/>
<ellipse fill="none" stroke="#000000" cx="534.1213" cy="-272.1577" rx="3.2" ry="3.2"/>
</g>
<!-- rental&#45;&gt;staff -->
<g id="edge33" class="edge">
<title>rental:w&#45;&gt;staff:e</title>
<path fill="none" stroke="#000000" d="M530.4975,-230.2088C522.3109,-229.4694 516.2676,-228.2693 504,-227.8211 380.7457,-223.3178 349.8365,-229.8211 226.5,-229.8211"/>
<polygon fill="#000000" stroke="#000000" points="537.0071,-230.4836 544.8481,-234.4179 541.0036,-230.6523 545,-230.8211 545,-230.8211 545,-230.8211 541.0036,-230.6523 545.1519,-227.2243 537.0071,-230.4836 537.0071,-230.4836"/>
<ellipse fill="none" stroke="#000000" cx="533.81" cy="-230.3486" rx="3.2" ry="3.2"/>
</g>
<!-- staff&#45;&gt;address -->
<g id="edge34" class="edge">
<title>staff:w&#45;&gt;address:e</title>
<path fill="none" stroke="#000000" d="M124.8428,-207.8211C113.4139,-207.8211 106.1563,-207.8211 90,-207.8211"/>
<polygon fill="#000000" stroke="#000000" points="131.5,-207.8211 139.5,-211.4211 135.5,-207.8211 139.5,-207.8211 139.5,-207.8211 139.5,-207.8211 135.5,-207.8211 139.5,-204.2211 131.5,-207.8211 131.5,-207.8211"/>
<ellipse fill="none" stroke="#000000" cx="128.3" cy="-207.8211" rx="3.2" ry="3.2"/>
</g>
<!-- staff&#45;&gt;store -->
<g id="edge35" class="edge">
<title>staff:w&#45;&gt;store:e</title>
<path fill="none" stroke="#000000" d="M126.6907,-178.6778C121.1913,-167.5046 128.3806,-145.8757 139.5,-133.3211 153.5262,-117.4845 214.3531,-129.6652 234,-121.8211 250.9647,-115.0478 249.6565,-103.0554 267,-97.3211 267,-97.3211 355,-128.8211 355,-128.8211"/>
<polygon fill="#000000" stroke="#000000" points="132.513,-181.9246 137.7466,-188.9652 136.0065,-183.8729 139.5,-185.8211 139.5,-185.8211 139.5,-185.8211 136.0065,-183.8729 141.2534,-182.6769 132.513,-181.9246 132.513,-181.9246"/>
<ellipse fill="none" stroke="#000000" cx="129.7182" cy="-180.3661" rx="3.2" ry="3.2"/>
</g>
<!-- payment_p2007_01 -->
<g id="node8" class="node">
<title>payment_p2007_01</title>
<g id="a_node8"><a xlink:href="../../tables/payment_p2007_01.html" xlink:title="payment_p2007_01" target="_top">
<polygon fill="#ffffff" stroke="transparent" points="875.5,-608.3211 875.5,-669.3211 1015.5,-669.3211 1015.5,-608.3211 875.5,-608.3211"/>
<polygon fill="#f5f5f5" stroke="transparent" points="875.5,-645.8211 875.5,-668.8211 1015.5,-668.8211 1015.5,-645.8211 875.5,-645.8211"/>
<polygon fill="none" stroke="#000000" points="875.5,-645.8211 875.5,-668.8211 1015.5,-668.8211 1015.5,-645.8211 875.5,-645.8211"/>
<text text-anchor="start" x="880.3938" y="-654.9211" font-family="Helvetica,sans-Serif" font-weight="bold" font-size="11.00" fill="#000000">payment_p2007_01</text>
<text text-anchor="start" x="981.0219" y="-653.9211" font-family="Helvetica,sans-Serif" font-size="11.00" fill="#000000">[table]</text>
<polygon fill="none" stroke="#000000" points="875.5,-626.8211 875.5,-645.8211 1015.5,-645.8211 1015.5,-626.8211 875.5,-626.8211"/>
<text text-anchor="start" x="878.5" y="-632.9211" font-family="Helvetica,sans-Serif" font-size="11.00" fill="#000000">...</text>
<polygon fill="#ffffff" stroke="transparent" points="875.5,-607.8211 875.5,-626.8211 930.5,-626.8211 930.5,-607.8211 875.5,-607.8211"/>
<polygon fill="none" stroke="#000000" points="875.5,-607.8211 875.5,-626.8211 930.5,-626.8211 930.5,-607.8211 875.5,-607.8211"/>
<text text-anchor="start" x="878.5" y="-613.9211" font-family="Helvetica,sans-Serif" font-size="11.00" fill="#000000">&lt; 4</text>
<polygon fill="#ffffff" stroke="transparent" points="930.5,-607.8211 930.5,-626.8211 985.5,-626.8211 985.5,-607.8211 930.5,-607.8211"/>
<polygon fill="none" stroke="#000000" points="930.5,-607.8211 930.5,-626.8211 985.5,-626.8211 985.5,-607.8211 930.5,-607.8211"/>
<text text-anchor="start" x="950.1105" y="-613.9211" font-family="Helvetica,sans-Serif" font-size="11.00" fill="#000000">0 rows</text>
<polygon fill="#ffffff" stroke="transparent" points="985.5,-607.8211 985.5,-626.8211 1015.5,-626.8211 1015.5,-607.8211 985.5,-607.8211"/>
<polygon fill="none" stroke="#000000" points="985.5,-607.8211 985.5,-626.8211 1015.5,-626.8211 1015.5,-607.8211 985.5,-607.8211"/>
<text text-anchor="start" x="1006.3862" y="-613.9211" font-family="Helvetica,sans-Serif" font-size="11.00" fill="#000000"> &#160;</text>
</a>
</g>
</g>
<!-- payment_p2007_01&#45;&gt;customer -->
<g id="edge7" class="edge">
<title>payment_p2007_01:w&#45;&gt;customer:e</title>
<path fill="none" stroke="#000000" d="M860.9586,-635.7654C708.4302,-634.5526 642.2273,-612.7364 537,-494.8211 493.2625,-445.8099 561.6891,-352.8211 496,-352.8211"/>
<polygon fill="#000000" stroke="#000000" points="867.5001,-635.7904 875.4862,-639.421 871.5,-635.8057 875.5,-635.8211 875.5,-635.8211 875.5,-635.8211 871.5,-635.8057 875.5138,-632.2211 867.5001,-635.7904 867.5001,-635.7904"/>
<ellipse fill="none" stroke="#000000" cx="864.3001" cy="-635.7781" rx="3.2" ry="3.2"/>
</g>
<!-- payment_p2007_01&#45;&gt;payment -->
<g id="edge8" class="edge">
<title>payment_p2007_01:w&#45;&gt;payment:e</title>
<path fill="none" stroke="#000000" stroke-dasharray="5,2" d="M861.0657,-633.7768C845.1815,-628.5479 839.637,-613.7537 828,-594.8211 788.9114,-531.2264 862.1472,-431.8211 787.5,-431.8211"/>
<polygon fill="#000000" stroke="#000000" points="867.579,-634.6992 874.9952,-639.3855 871.5395,-635.2601 875.5,-635.8211 875.5,-635.8211 875.5,-635.8211 871.5395,-635.2601 876.0048,-632.2566 867.579,-634.6992 867.579,-634.6992"/>
<ellipse fill="none" stroke="#000000" cx="864.4107" cy="-634.2505" rx="3.2" ry="3.2"/>
</g>
<!-- payment_p2007_01&#45;&gt;rental -->
<g id="edge9" class="edge">
<title>payment_p2007_01:w&#45;&gt;rental:e</title>
<path fill="none" stroke="#000000" d="M861.0627,-635.5163C766.3878,-631.389 734.8805,-585.405 678,-501.8211 631.1072,-432.9137 720.3496,-318.8211 637,-318.8211"/>
<polygon fill="#000000" stroke="#000000" points="867.5018,-635.6522 875.424,-639.4203 871.5009,-635.7366 875.5,-635.8211 875.5,-635.8211 875.5,-635.8211 871.5009,-635.7366 875.576,-632.2219 867.5018,-635.6522 867.5018,-635.6522"/>
<ellipse fill="none" stroke="#000000" cx="864.3025" cy="-635.5846" rx="3.2" ry="3.2"/>
</g>
<!-- payment_p2007_01&#45;&gt;staff -->
<g id="edge10" class="edge">
<title>payment_p2007_01:w&#45;&gt;staff:e</title>
<path fill="none" stroke="#000000" d="M860.949,-636.0172C745.166,-639.1914 713.9498,-679.8211 591,-679.8211 591,-679.8211 591,-679.8211 450,-679.8211 345.1168,-679.8211 318.2565,-622.3266 267,-530.8211 234.0168,-471.9379 293.9917,-229.8211 226.5,-229.8211"/>
<polygon fill="#000000" stroke="#000000" points="867.5007,-635.929 875.5486,-639.4207 871.5004,-635.875 875.5,-635.8211 875.5,-635.8211 875.5,-635.8211 871.5004,-635.875 875.4514,-632.2214 867.5007,-635.929 867.5007,-635.929"/>
<ellipse fill="none" stroke="#000000" cx="864.301" cy="-635.9721" rx="3.2" ry="3.2"/>
</g>
<!-- payment_p2007_02 -->
<g id="node9" class="node">
<title>payment_p2007_02</title>
<g id="a_node9"><a xlink:href="../../tables/payment_p2007_02.html" xlink:title="payment_p2007_02" target="_top">
<polygon fill="#ffffff" stroke="transparent" points="875.5,-523.3211 875.5,-584.3211 1015.5,-584.3211 1015.5,-523.3211 875.5,-523.3211"/>
<polygon fill="#f5f5f5" stroke="transparent" points="875.5,-560.8211 875.5,-583.8211 1015.5,-583.8211 1015.5,-560.8211 875.5,-560.8211"/>
<polygon fill="none" stroke="#000000" points="875.5,-560.8211 875.5,-583.8211 1015.5,-583.8211 1015.5,-560.8211 875.5,-560.8211"/>
<text text-anchor="start" x="880.3938" y="-569.9211" font-family="Helvetica,sans-Serif" font-weight="bold" font-size="11.00" fill="#000000">payment_p2007_02</text>
<text text-anchor="start" x="981.0219" y="-568.9211" font-family="Helvetica,sans-Serif" font-size="11.00" fill="#000000">[table]</text>
<polygon fill="none" stroke="#000000" points="875.5,-541.8211 875.5,-560.8211 1015.5,-560.8211 1015.5,-541.8211 875.5,-541.8211"/>
<text text-anchor="start" x="878.5" y="-547.9211" font-family="Helvetica,sans-Serif" font-size="11.00" fill="#000000">...</text>
<polygon fill="#ffffff" stroke="transparent" points="875.5,-522.8211 875.5,-541.8211 930.5,-541.8211 930.5,-522.8211 875.5,-522.8211"/>
<polygon fill="none" stroke="#000000" points="875.5,-522.8211 875.5,-541.8211 930.5,-541.8211 930.5,-522.8211 875.5,-522.8211"/>
<text text-anchor="start" x="878.5" y="-528.9211" font-family="Helvetica,sans-Serif" font-size="11.00" fill="#000000">&lt; 4</text>
<polygon fill="#ffffff" stroke="transparent" points="930.5,-522.8211 930.5,-541.8211 985.5,-541.8211 985.5,-522.8211 930.5,-522.8211"/>
<polygon fill="none" stroke="#000000" points="930.5,-522.8211 930.5,-541.8211 985.5,-541.8211 985.5,-522.8211 930.5,-522.8211"/>
<text text-anchor="start" x="950.1105" y="-528.9211" font-family="Helvetica,sans-Serif" font-size="11.00" fill="#000000">0 rows</text>
<polygon fill="#ffffff" stroke="transparent" points="985.5,-522.8211 985.5,-541.8211 1015.5,-541.8211 1015.5,-522.8211 985.5,-522.8211"/>
<polygon fill="none" stroke="#000000" points="985.5,-522.8211 985.5,-541.8211 1015.5,-541.8211 1015.5,-522.8211 985.5,-522.8211"/>
<text text-anchor="start" x="1006.3862" y="-528.9211" font-family="Helvetica,sans-Serif" font-size="11.00" fill="#000000"> &#160;</text>
</a>
</g>
</g>
<!-- payment_p2007_02&#45;&gt;customer -->
<g id="edge11" class="edge">
<title>payment_p2007_02:w&#45;&gt;customer:e</title>
<path fill="none" stroke="#000000" d="M861.0261,-550.823C714.1932,-550.8292 650.584,-549.3414 537,-447.8211 502.7128,-417.1755 541.9866,-352.8211 496,-352.8211"/>
<polygon fill="#000000" stroke="#000000" points="867.5,-550.8222 875.5005,-554.4211 871.5,-550.8216 875.5,-550.8211 875.5,-550.8211 875.5,-550.8211 871.5,-550.8216 875.4995,-547.2211 867.5,-550.8222 867.5,-550.8222"/>
<ellipse fill="none" stroke="#000000" cx="864.3" cy="-550.8226" rx="3.2" ry="3.2"/>
</g>
<!-- payment_p2007_02&#45;&gt;payment -->
<g id="edge12" class="edge">
<title>payment_p2007_02:w&#45;&gt;payment:e</title>
<path fill="none" stroke="#000000" stroke-dasharray="5,2" d="M861.1248,-548.4342C845.7493,-542.3959 841.9551,-525.715 828,-507.8211 804.4623,-477.6397 825.7745,-431.8211 787.5,-431.8211"/>
<polygon fill="#000000" stroke="#000000" points="867.608,-549.5106 874.9103,-554.3724 871.554,-550.1659 875.5,-550.8211 875.5,-550.8211 875.5,-550.8211 871.554,-550.1659 876.0897,-547.2697 867.608,-549.5106 867.608,-549.5106"/>
<ellipse fill="none" stroke="#000000" cx="864.4513" cy="-548.9865" rx="3.2" ry="3.2"/>
</g>
<!-- payment_p2007_02&#45;&gt;rental -->
<g id="edge13" class="edge">
<title>payment_p2007_02:w&#45;&gt;rental:e</title>
<path fill="none" stroke="#000000" d="M860.8259,-549.3484C833.674,-543.3723 827.5856,-520.6403 795,-507.8211 744.9401,-488.1275 715.941,-514.9565 678,-476.8211 626.8321,-425.3909 709.548,-318.8211 637,-318.8211"/>
<polygon fill="#000000" stroke="#000000" points="867.54,-550.0222 875.1405,-554.4031 871.52,-550.4216 875.5,-550.8211 875.5,-550.8211 875.5,-550.8211 871.52,-550.4216 875.8595,-547.2391 867.54,-550.0222 867.54,-550.0222"/>
<ellipse fill="none" stroke="#000000" cx="864.356" cy="-549.7026" rx="3.2" ry="3.2"/>
</g>
<!-- payment_p2007_02&#45;&gt;staff -->
<g id="edge14" class="edge">
<title>payment_p2007_02:w&#45;&gt;staff:e</title>
<path fill="none" stroke="#000000" d="M860.945,-551.0529C657.5231,-557.566 585.6272,-698.4403 396,-608.8211 314.3487,-570.232 304.9865,-533.7544 267,-451.8211 245.907,-406.3253 276.6476,-229.8211 226.5,-229.8211"/>
<polygon fill="#000000" stroke="#000000" points="867.501,-550.9485 875.5574,-554.4206 871.5005,-550.8848 875.5,-550.8211 875.5,-550.8211 875.5,-550.8211 871.5005,-550.8848 875.4426,-547.2215 867.501,-550.9485 867.501,-550.9485"/>
<ellipse fill="none" stroke="#000000" cx="864.3014" cy="-550.9995" rx="3.2" ry="3.2"/>
</g>
<!-- payment_p2007_03 -->
<g id="node10" class="node">
<title>payment_p2007_03</title>
<g id="a_node10"><a xlink:href="../../tables/payment_p2007_03.html" xlink:title="payment_p2007_03" target="_top">
<polygon fill="#ffffff" stroke="transparent" points="875.5,-62.3211 875.5,-123.3211 1015.5,-123.3211 1015.5,-62.3211 875.5,-62.3211"/>
<polygon fill="#f5f5f5" stroke="transparent" points="875.5,-99.8211 875.5,-122.8211 1015.5,-122.8211 1015.5,-99.8211 875.5,-99.8211"/>
<polygon fill="none" stroke="#000000" points="875.5,-99.8211 875.5,-122.8211 1015.5,-122.8211 1015.5,-99.8211 875.5,-99.8211"/>
<text text-anchor="start" x="880.3938" y="-108.9211" font-family="Helvetica,sans-Serif" font-weight="bold" font-size="11.00" fill="#000000">payment_p2007_03</text>
<text text-anchor="start" x="981.0219" y="-107.9211" font-family="Helvetica,sans-Serif" font-size="11.00" fill="#000000">[table]</text>
<polygon fill="none" stroke="#000000" points="875.5,-80.8211 875.5,-99.8211 1015.5,-99.8211 1015.5,-80.8211 875.5,-80.8211"/>
<text text-anchor="start" x="878.5" y="-86.9211" font-family="Helvetica,sans-Serif" font-size="11.00" fill="#000000">...</text>
<polygon fill="#ffffff" stroke="transparent" points="875.5,-61.8211 875.5,-80.8211 930.5,-80.8211 930.5,-61.8211 875.5,-61.8211"/>
<polygon fill="none" stroke="#000000" points="875.5,-61.8211 875.5,-80.8211 930.5,-80.8211 930.5,-61.8211 875.5,-61.8211"/>
<text text-anchor="start" x="878.5" y="-67.9211" font-family="Helvetica,sans-Serif" font-size="11.00" fill="#000000">&lt; 4</text>
<polygon fill="#ffffff" stroke="transparent" points="930.5,-61.8211 930.5,-80.8211 985.5,-80.8211 985.5,-61.8211 930.5,-61.8211"/>
<polygon fill="none" stroke="#000000" points="930.5,-61.8211 930.5,-80.8211 985.5,-80.8211 985.5,-61.8211 930.5,-61.8211"/>
<text text-anchor="start" x="950.1105" y="-67.9211" font-family="Helvetica,sans-Serif" font-size="11.00" fill="#000000">0 rows</text>
<polygon fill="#ffffff" stroke="transparent" points="985.5,-61.8211 985.5,-80.8211 1015.5,-80.8211 1015.5,-61.8211 985.5,-61.8211"/>
<polygon fill="none" stroke="#000000" points="985.5,-61.8211 985.5,-80.8211 1015.5,-80.8211 1015.5,-61.8211 985.5,-61.8211"/>
<text text-anchor="start" x="1006.3862" y="-67.9211" font-family="Helvetica,sans-Serif" font-size="11.00" fill="#000000"> &#160;</text>
</a>
</g>
</g>
<!-- payment_p2007_03&#45;&gt;customer -->
<g id="edge15" class="edge">
<title>payment_p2007_03:w&#45;&gt;customer:e</title>
<path fill="none" stroke="#000000" d="M860.9768,-89.677C717.9015,-86.8607 642.8889,-44.8253 537,-147.8211 470.3952,-212.606 588.9155,-352.8211 496,-352.8211"/>
<polygon fill="#000000" stroke="#000000" points="867.5004,-89.7416 875.4643,-93.4209 871.5002,-89.7814 875.5,-89.8211 875.5,-89.8211 875.5,-89.8211 871.5002,-89.7814 875.5357,-86.2212 867.5004,-89.7416 867.5004,-89.7416"/>
<ellipse fill="none" stroke="#000000" cx="864.3006" cy="-89.7099" rx="3.2" ry="3.2"/>
</g>
<!-- payment_p2007_03&#45;&gt;payment -->
<g id="edge16" class="edge">
<title>payment_p2007_03:w&#45;&gt;payment:e</title>
<path fill="none" stroke="#000000" stroke-dasharray="5,2" d="M861.076,-91.8495C844.2955,-97.3042 838.6798,-113.2747 828,-133.8211 797.1771,-193.1197 854.331,-431.8211 787.5,-431.8211"/>
<polygon fill="#000000" stroke="#000000" points="867.5779,-90.9352 876.0013,-93.386 871.539,-90.3781 875.5,-89.8211 875.5,-89.8211 875.5,-89.8211 871.539,-90.3781 874.9987,-86.2561 867.5779,-90.9352 867.5779,-90.9352"/>
<ellipse fill="none" stroke="#000000" cx="864.4091" cy="-91.3808" rx="3.2" ry="3.2"/>
</g>
<!-- payment_p2007_03&#45;&gt;rental -->
<g id="edge17" class="edge">
<title>payment_p2007_03:w&#45;&gt;rental:e</title>
<path fill="none" stroke="#000000" d="M860.9431,-91.3283C806.014,-101.5268 707.268,-161.0717 678,-195.8211 640.8785,-239.8948 694.6237,-318.8211 637,-318.8211"/>
<polygon fill="#000000" stroke="#000000" points="867.5425,-90.645 875.8708,-93.4019 871.5213,-90.233 875.5,-89.8211 875.5,-89.8211 875.5,-89.8211 871.5213,-90.233 875.1292,-86.2402 867.5425,-90.645 867.5425,-90.645"/>
<ellipse fill="none" stroke="#000000" cx="864.3596" cy="-90.9746" rx="3.2" ry="3.2"/>
</g>
<!-- payment_p2007_03&#45;&gt;staff -->
<g id="edge18" class="edge">
<title>payment_p2007_03:w&#45;&gt;staff:e</title>
<path fill="none" stroke="#000000" d="M860.9285,-88.0507C803.5352,-80.3095 597.9674,-49.8211 591,-49.8211 591,-49.8211 591,-49.8211 450,-49.8211 368.5199,-49.8211 329.4341,-8.4666 267,-60.8211 207.8165,-110.4497 303.7378,-229.8211 226.5,-229.8211"/>
<polygon fill="#000000" stroke="#000000" points="867.5584,-88.8561 875.0658,-93.3948 871.5292,-89.3386 875.5,-89.8211 875.5,-89.8211 875.5,-89.8211 871.5292,-89.3386 875.9342,-86.2473 867.5584,-88.8561 867.5584,-88.8561"/>
<ellipse fill="none" stroke="#000000" cx="864.3818" cy="-88.4702" rx="3.2" ry="3.2"/>
</g>
<!-- payment_p2007_04 -->
<g id="node11" class="node">
<title>payment_p2007_04</title>
<g id="a_node11"><a xlink:href="../../tables/payment_p2007_04.html" xlink:title="payment_p2007_04" target="_top">
<polygon fill="#ffffff" stroke="transparent" points="875.5,-436.3211 875.5,-497.3211 1015.5,-497.3211 1015.5,-436.3211 875.5,-436.3211"/>
<polygon fill="#f5f5f5" stroke="transparent" points="875.5,-473.8211 875.5,-496.8211 1015.5,-496.8211 1015.5,-473.8211 875.5,-473.8211"/>
<polygon fill="none" stroke="#000000" points="875.5,-473.8211 875.5,-496.8211 1015.5,-496.8211 1015.5,-473.8211 875.5,-473.8211"/>
<text text-anchor="start" x="880.3938" y="-482.9211" font-family="Helvetica,sans-Serif" font-weight="bold" font-size="11.00" fill="#000000">payment_p2007_04</text>
<text text-anchor="start" x="981.0219" y="-481.9211" font-family="Helvetica,sans-Serif" font-size="11.00" fill="#000000">[table]</text>
<polygon fill="none" stroke="#000000" points="875.5,-454.8211 875.5,-473.8211 1015.5,-473.8211 1015.5,-454.8211 875.5,-454.8211"/>
<text text-anchor="start" x="878.5" y="-460.9211" font-family="Helvetica,sans-Serif" font-size="11.00" fill="#000000">...</text>
<polygon fill="#ffffff" stroke="transparent" points="875.5,-435.8211 875.5,-454.8211 930.5,-454.8211 930.5,-435.8211 875.5,-435.8211"/>
<polygon fill="none" stroke="#000000" points="875.5,-435.8211 875.5,-454.8211 930.5,-454.8211 930.5,-435.8211 875.5,-435.8211"/>
<text text-anchor="start" x="878.5" y="-441.9211" font-family="Helvetica,sans-Serif" font-size="11.00" fill="#000000">&lt; 4</text>
<polygon fill="#ffffff" stroke="transparent" points="930.5,-435.8211 930.5,-454.8211 985.5,-454.8211 985.5,-435.8211 930.5,-435.8211"/>
<polygon fill="none" stroke="#000000" points="930.5,-435.8211 930.5,-454.8211 985.5,-454.8211 985.5,-435.8211 930.5,-435.8211"/>
<text text-anchor="start" x="950.1105" y="-441.9211" font-family="Helvetica,sans-Serif" font-size="11.00" fill="#000000">0 rows</text>
<polygon fill="#ffffff" stroke="transparent" points="985.5,-435.8211 985.5,-454.8211 1015.5,-454.8211 1015.5,-435.8211 985.5,-435.8211"/>
<polygon fill="none" stroke="#000000" points="985.5,-435.8211 985.5,-454.8211 1015.5,-454.8211 1015.5,-435.8211 985.5,-435.8211"/>
<text text-anchor="start" x="1006.3862" y="-441.9211" font-family="Helvetica,sans-Serif" font-size="11.00" fill="#000000"> &#160;</text>
</a>
</g>
</g>
<!-- payment_p2007_04&#45;&gt;customer -->
<g id="edge19" class="edge">
<title>payment_p2007_04:w&#45;&gt;customer:e</title>
<path fill="none" stroke="#000000" d="M861.0358,-464.4322C836.2273,-466.6613 825.7629,-474.3531 795,-476.8211 743.1665,-480.9794 728.693,-488.4064 678,-476.8211 610.1751,-461.3203 590.4767,-453.3265 537,-408.8211 513.2903,-389.0889 526.8465,-352.8211 496,-352.8211"/>
<polygon fill="#000000" stroke="#000000" points="867.5071,-464.1588 875.652,-467.4179 871.5036,-463.9899 875.5,-463.8211 875.5,-463.8211 875.5,-463.8211 871.5036,-463.9899 875.348,-460.2243 867.5071,-464.1588 867.5071,-464.1588"/>
<ellipse fill="none" stroke="#000000" cx="864.31" cy="-464.2939" rx="3.2" ry="3.2"/>
</g>
<!-- payment_p2007_04&#45;&gt;payment -->
<g id="edge20" class="edge">
<title>payment_p2007_04:w&#45;&gt;payment:e</title>
<path fill="none" stroke="#000000" stroke-dasharray="5,2" d="M861.0852,-462.3629C832.0421,-456.1028 823.7521,-431.8211 787.5,-431.8211"/>
<polygon fill="#000000" stroke="#000000" points="867.5406,-463.0159 875.1377,-467.4028 871.5203,-463.4185 875.5,-463.8211 875.5,-463.8211 875.5,-463.8211 871.5203,-463.4185 875.8623,-460.2393 867.5406,-463.0159 867.5406,-463.0159"/>
<ellipse fill="none" stroke="#000000" cx="864.3569" cy="-462.6938" rx="3.2" ry="3.2"/>
</g>
<!-- payment_p2007_04&#45;&gt;rental -->
<g id="edge21" class="edge">
<title>payment_p2007_04:w&#45;&gt;rental:e</title>
<path fill="none" stroke="#000000" d="M860.7987,-461.4179C844.1498,-455.008 840.3563,-436.572 828,-415.8211 802.1038,-372.3313 835.6469,-336.984 795,-306.8211 753.2416,-275.8333 729.4739,-299.4431 678,-306.8211 659.2054,-309.515 655.9867,-318.8211 637,-318.8211"/>
<polygon fill="#000000" stroke="#000000" points="867.6048,-462.5304 874.9192,-467.3739 871.5524,-463.1757 875.5,-463.8211 875.5,-463.8211 875.5,-463.8211 871.5524,-463.1757 876.0808,-460.2682 867.6048,-462.5304 867.6048,-462.5304"/>
<ellipse fill="none" stroke="#000000" cx="864.4467" cy="-462.0142" rx="3.2" ry="3.2"/>
</g>
<!-- payment_p2007_04&#45;&gt;staff -->
<g id="edge22" class="edge">
<title>payment_p2007_04:w&#45;&gt;staff:e</title>
<path fill="none" stroke="#000000" d="M861.0796,-465.4312C787.1984,-480.6626 656.4686,-598.8211 591,-598.8211 591,-598.8211 591,-598.8211 450,-598.8211 300.5893,-598.8211 339.3716,-447.5341 267,-316.8211 246.3407,-279.5075 269.151,-229.8211 226.5,-229.8211"/>
<polygon fill="#000000" stroke="#000000" points="867.5494,-464.7089 875.8995,-467.3988 871.5247,-464.265 875.5,-463.8211 875.5,-463.8211 875.5,-463.8211 871.5247,-464.265 875.1005,-460.2433 867.5494,-464.7089 867.5494,-464.7089"/>
<ellipse fill="none" stroke="#000000" cx="864.3692" cy="-465.064" rx="3.2" ry="3.2"/>
</g>
<!-- payment_p2007_05 -->
<g id="node12" class="node">
<title>payment_p2007_05</title>
<g id="a_node12"><a xlink:href="../../tables/payment_p2007_05.html" xlink:title="payment_p2007_05" target="_top">
<polygon fill="#ffffff" stroke="transparent" points="836,-226.8211 836,-404.8211 1055,-404.8211 1055,-226.8211 836,-226.8211"/>
<polygon fill="#f5f5f5" stroke="transparent" points="838.5,-379.8211 838.5,-402.8211 1053.5,-402.8211 1053.5,-379.8211 838.5,-379.8211"/>
<polygon fill="none" stroke="#000000" points="838.5,-379.8211 838.5,-402.8211 1053.5,-402.8211 1053.5,-379.8211 838.5,-379.8211"/>
<text text-anchor="start" x="843.5" y="-388.9211" font-family="Helvetica,sans-Serif" font-weight="bold" font-size="11.00" fill="#000000">payment_p2007_05</text>
<text text-anchor="start" x="1018.5437" y="-387.9211" font-family="Helvetica,sans-Serif" font-size="11.00" fill="#000000">[table]</text>
<polygon fill="none" stroke="#000000" points="838.5,-357.8211 838.5,-379.8211 969.5,-379.8211 969.5,-357.8211 838.5,-357.8211"/>
<image xlink:href="../../images/foreignKeys.png" width="11px" height="12px" preserveAspectRatio="xMinYMin meet" x="843.5" y="-374.821"/>
<text text-anchor="start" x="858.5" y="-364.9211" font-family="Helvetica,sans-Serif" font-size="11.00" fill="#000000">payment_id</text>
<polygon fill="none" stroke="#000000" points="969.5,-357.8211 969.5,-379.8211 1053.5,-379.8211 1053.5,-357.8211 969.5,-357.8211"/>
<text text-anchor="start" x="972.5" y="-365.5211" font-family="Helvetica,sans-Serif" font-size="11.00" fill="#000000">serial[10]</text>
<polygon fill="#ffffff" stroke="transparent" points="838.5,-335.8211 838.5,-357.8211 969.5,-357.8211 969.5,-335.8211 838.5,-335.8211"/>
<polygon fill="none" stroke="#000000" points="838.5,-335.8211 838.5,-357.8211 969.5,-357.8211 969.5,-335.8211 838.5,-335.8211"/>
<image xlink:href="../../images/foreignKeys.png" width="11px" height="12px" preserveAspectRatio="xMinYMin meet" x="843.5" y="-352.821"/>
<text text-anchor="start" x="858.5" y="-342.9211" font-family="Helvetica,sans-Serif" font-size="11.00" fill="#000000">customer_id</text>
<polygon fill="none" stroke="#000000" points="969.5,-335.8211 969.5,-357.8211 1053.5,-357.8211 1053.5,-335.8211 969.5,-335.8211"/>
<text text-anchor="start" x="972.5" y="-343.5211" font-family="Helvetica,sans-Serif" font-size="11.00" fill="#000000">int2[5]</text>
<polygon fill="#ffffff" stroke="transparent" points="838.5,-313.8211 838.5,-335.8211 969.5,-335.8211 969.5,-313.8211 838.5,-313.8211"/>
<polygon fill="none" stroke="#000000" points="838.5,-313.8211 838.5,-335.8211 969.5,-335.8211 969.5,-313.8211 838.5,-313.8211"/>
<image xlink:href="../../images/foreignKeys.png" width="11px" height="12px" preserveAspectRatio="xMinYMin meet" x="843.5" y="-330.821"/>
<text text-anchor="start" x="858.5" y="-320.9211" font-family="Helvetica,sans-Serif" font-size="11.00" fill="#000000">staff_id</text>
<polygon fill="none" stroke="#000000" points="969.5,-313.8211 969.5,-335.8211 1053.5,-335.8211 1053.5,-313.8211 969.5,-313.8211"/>
<text text-anchor="start" x="972.5" y="-321.5211" font-family="Helvetica,sans-Serif" font-size="11.00" fill="#000000">int2[5]</text>
<polygon fill="none" stroke="#000000" points="838.5,-291.8211 838.5,-313.8211 969.5,-313.8211 969.5,-291.8211 838.5,-291.8211"/>
<image xlink:href="../../images/foreignKeys.png" width="11px" height="12px" preserveAspectRatio="xMinYMin meet" x="843.5" y="-308.821"/>
<text text-anchor="start" x="858.5" y="-298.9211" font-family="Helvetica,sans-Serif" font-size="11.00" fill="#000000">rental_id</text>
<polygon fill="none" stroke="#000000" points="969.5,-291.8211 969.5,-313.8211 1053.5,-313.8211 1053.5,-291.8211 969.5,-291.8211"/>
<text text-anchor="start" x="972.5" y="-299.5211" font-family="Helvetica,sans-Serif" font-size="11.00" fill="#000000">int4[10]</text>
<polygon fill="none" stroke="#000000" points="838.5,-269.8211 838.5,-291.8211 969.5,-291.8211 969.5,-269.8211 838.5,-269.8211"/>
<text text-anchor="start" x="858.5" y="-276.9211" font-family="Helvetica,sans-Serif" font-size="11.00" fill="#000000">amount</text>
<polygon fill="none" stroke="#000000" points="969.5,-269.8211 969.5,-291.8211 1053.5,-291.8211 1053.5,-269.8211 969.5,-269.8211"/>
<text text-anchor="start" x="972.5" y="-277.5211" font-family="Helvetica,sans-Serif" font-size="11.00" fill="#000000">numeric[5,2]</text>
<polygon fill="none" stroke="#000000" points="838.5,-247.8211 838.5,-269.8211 969.5,-269.8211 969.5,-247.8211 838.5,-247.8211"/>
<text text-anchor="start" x="858.5" y="-254.9211" font-family="Helvetica,sans-Serif" font-size="11.00" fill="#000000">payment_date</text>
<polygon fill="none" stroke="#000000" points="969.5,-247.8211 969.5,-269.8211 1053.5,-269.8211 1053.5,-247.8211 969.5,-247.8211"/>
<text text-anchor="start" x="972.3807" y="-255.5211" font-family="Helvetica,sans-Serif" font-size="11.00" fill="#000000">timestamp[29,6]</text>
<polygon fill="#ffffff" stroke="transparent" points="838.5,-228.8211 838.5,-247.8211 895.5,-247.8211 895.5,-228.8211 838.5,-228.8211"/>
<polygon fill="none" stroke="#000000" points="838.5,-228.8211 838.5,-247.8211 895.5,-247.8211 895.5,-228.8211 838.5,-228.8211"/>
<text text-anchor="start" x="841.5" y="-234.9211" font-family="Helvetica,sans-Serif" font-size="11.00" fill="#000000">&lt; 4</text>
<polygon fill="#ffffff" stroke="transparent" points="895.5,-228.8211 895.5,-247.8211 969.5,-247.8211 969.5,-228.8211 895.5,-228.8211"/>
<polygon fill="none" stroke="#000000" points="895.5,-228.8211 895.5,-247.8211 969.5,-247.8211 969.5,-228.8211 895.5,-228.8211"/>
<text text-anchor="start" x="934.1105" y="-234.9211" font-family="Helvetica,sans-Serif" font-size="11.00" fill="#000000">0 rows</text>
<polygon fill="#ffffff" stroke="transparent" points="969.5,-228.8211 969.5,-247.8211 1053.5,-247.8211 1053.5,-228.8211 969.5,-228.8211"/>
<polygon fill="none" stroke="#000000" points="969.5,-228.8211 969.5,-247.8211 1053.5,-247.8211 1053.5,-228.8211 969.5,-228.8211"/>
<text text-anchor="start" x="1034.9053" y="-234.9211" font-family="Helvetica,sans-Serif" font-size="11.00" fill="#000000">0 &gt;</text>
<polygon fill="none" stroke="#000000" stroke-width="2" points="837,-227.8211 837,-403.8211 1054,-403.8211 1054,-227.8211 837,-227.8211"/>
</a>
</g>
</g>
<!-- payment_p2007_05&#45;&gt;customer -->
<g id="edge23" class="edge">
<title>payment_p2007_05:w&#45;&gt;customer:e</title>
<path fill="none" stroke="#000000" d="M824.7138,-342.463C813.8852,-333.6923 813.7352,-314.1256 795,-306.8211 746.552,-287.9321 723.0489,-280.848 678,-306.8211 652.6404,-321.4422 670.3596,-349.1999 645,-363.8211 603.4164,-387.7962 584.5883,-370.0939 537,-363.8211 518.2951,-361.3555 514.8667,-352.8211 496,-352.8211"/>
<polygon fill="#000000" stroke="#000000" points="830.8721,-344.4097 837.4149,-350.2536 834.686,-345.6154 838.5,-346.8211 838.5,-346.8211 838.5,-346.8211 834.686,-345.6154 839.5851,-343.3885 830.8721,-344.4097 830.8721,-344.4097"/>
<ellipse fill="none" stroke="#000000" cx="827.8209" cy="-343.4451" rx="3.2" ry="3.2"/>
</g>
<!-- payment_p2007_05&#45;&gt;payment -->
<g id="edge24" class="edge">
<title>payment_p2007_05:w&#45;&gt;payment:e</title>
<path fill="none" stroke="#000000" stroke-dasharray="5,2" d="M824.4033,-373.7646C808.025,-388.6162 817.3329,-431.8211 787.5,-431.8211"/>
<polygon fill="#000000" stroke="#000000" points="830.9507,-371.4685 839.6913,-372.2182 834.7254,-370.1448 838.5,-368.8211 838.5,-368.8211 838.5,-368.8211 834.7254,-370.1448 837.3087,-365.4239 830.9507,-371.4685 830.9507,-371.4685"/>
<ellipse fill="none" stroke="#000000" cx="827.931" cy="-372.5275" rx="3.2" ry="3.2"/>
</g>
<!-- payment_p2007_05&#45;&gt;rental -->
<g id="edge25" class="edge">
<title>payment_p2007_05:w&#45;&gt;rental:e</title>
<path fill="none" stroke="#000000" d="M824.6905,-298.3363C813.0923,-288.4035 815.3755,-264.726 795,-255.8211 747.3518,-234.9968 723.7106,-231.0311 678,-255.8211 648.6333,-271.7474 670.4073,-318.8211 637,-318.8211"/>
<polygon fill="#000000" stroke="#000000" points="830.8912,-300.35 837.388,-306.245 834.6956,-301.5855 838.5,-302.8211 838.5,-302.8211 838.5,-302.8211 834.6956,-301.5855 839.612,-299.3971 830.8912,-300.35 830.8912,-300.35"/>
<ellipse fill="none" stroke="#000000" cx="827.8477" cy="-299.3616" rx="3.2" ry="3.2"/>
</g>
<!-- payment_p2007_05&#45;&gt;staff -->
<g id="edge26" class="edge">
<title>payment_p2007_05:w&#45;&gt;staff:e</title>
<path fill="none" stroke="#000000" d="M824.2632,-321.7145C801.917,-309.112 822.8236,-261.2183 795,-234.8211 693.8747,-138.8795 641.0711,-143.171 504,-117.8211 456.8004,-109.092 437.7696,-94.1715 396,-117.8211 371.1933,-131.8664 384.5632,-154.1751 363,-172.8211 338.1351,-194.3221 259.3718,-229.8211 226.5,-229.8211"/>
<polygon fill="#000000" stroke="#000000" points="830.6839,-323.1155 837.7325,-328.3383 834.592,-323.9683 838.5,-324.8211 838.5,-324.8211 838.5,-324.8211 834.592,-323.9683 839.2675,-321.3038 830.6839,-323.1155 830.6839,-323.1155"/>
<ellipse fill="none" stroke="#000000" cx="827.5575" cy="-322.4333" rx="3.2" ry="3.2"/>
</g>
<!-- payment_p2007_06 -->
<g id="node13" class="node">
<title>payment_p2007_06</title>
<g id="a_node13"><a xlink:href="../../tables/payment_p2007_06.html" xlink:title="payment_p2007_06" target="_top">
<polygon fill="#ffffff" stroke="transparent" points="875.5,-144.3211 875.5,-205.3211 1015.5,-205.3211 1015.5,-144.3211 875.5,-144.3211"/>
<polygon fill="#f5f5f5" stroke="transparent" points="875.5,-181.8211 875.5,-204.8211 1015.5,-204.8211 1015.5,-181.8211 875.5,-181.8211"/>
<polygon fill="none" stroke="#000000" points="875.5,-181.8211 875.5,-204.8211 1015.5,-204.8211 1015.5,-181.8211 875.5,-181.8211"/>
<text text-anchor="start" x="880.3938" y="-190.9211" font-family="Helvetica,sans-Serif" font-weight="bold" font-size="11.00" fill="#000000">payment_p2007_06</text>
<text text-anchor="start" x="981.0219" y="-189.9211" font-family="Helvetica,sans-Serif" font-size="11.00" fill="#000000">[table]</text>
<polygon fill="none" stroke="#000000" points="875.5,-162.8211 875.5,-181.8211 1015.5,-181.8211 1015.5,-162.8211 875.5,-162.8211"/>
<text text-anchor="start" x="878.5" y="-168.9211" font-family="Helvetica,sans-Serif" font-size="11.00" fill="#000000">...</text>
<polygon fill="#ffffff" stroke="transparent" points="875.5,-143.8211 875.5,-162.8211 930.5,-162.8211 930.5,-143.8211 875.5,-143.8211"/>
<polygon fill="none" stroke="#000000" points="875.5,-143.8211 875.5,-162.8211 930.5,-162.8211 930.5,-143.8211 875.5,-143.8211"/>
<text text-anchor="start" x="878.5" y="-149.9211" font-family="Helvetica,sans-Serif" font-size="11.00" fill="#000000">&lt; 4</text>
<polygon fill="#ffffff" stroke="transparent" points="930.5,-143.8211 930.5,-162.8211 985.5,-162.8211 985.5,-143.8211 930.5,-143.8211"/>
<polygon fill="none" stroke="#000000" points="930.5,-143.8211 930.5,-162.8211 985.5,-162.8211 985.5,-143.8211 930.5,-143.8211"/>
<text text-anchor="start" x="950.1105" y="-149.9211" font-family="Helvetica,sans-Serif" font-size="11.00" fill="#000000">0 rows</text>
<polygon fill="#ffffff" stroke="transparent" points="985.5,-143.8211 985.5,-162.8211 1015.5,-162.8211 1015.5,-143.8211 985.5,-143.8211"/>
<polygon fill="none" stroke="#000000" points="985.5,-143.8211 985.5,-162.8211 1015.5,-162.8211 1015.5,-143.8211 985.5,-143.8211"/>
<text text-anchor="start" x="1006.3862" y="-149.9211" font-family="Helvetica,sans-Serif" font-size="11.00" fill="#000000"> &#160;</text>
</a>
</g>
</g>
<!-- payment_p2007_06&#45;&gt;customer -->
<g id="edge27" class="edge">
<title>payment_p2007_06:w&#45;&gt;customer:e</title>
<path fill="none" stroke="#000000" d="M861.0011,-171.3658C776.8127,-166.6417 592.3289,-127.6235 537,-171.8211 472.5548,-223.3009 578.4825,-352.8211 496,-352.8211"/>
<polygon fill="#000000" stroke="#000000" points="867.5039,-171.57 875.387,-175.4193 871.502,-171.6955 875.5,-171.8211 875.5,-171.8211 875.5,-171.8211 871.502,-171.6955 875.613,-168.2228 867.5039,-171.57 867.5039,-171.57"/>
<ellipse fill="none" stroke="#000000" cx="864.3055" cy="-171.4695" rx="3.2" ry="3.2"/>
</g>
<!-- payment_p2007_06&#45;&gt;payment -->
<g id="edge28" class="edge">
<title>payment_p2007_06:w&#45;&gt;payment:e</title>
<path fill="none" stroke="#000000" stroke-dasharray="5,2" d="M861.0208,-173.9493C844.3038,-179.6576 839.2046,-196.2772 828,-216.8211 804.7209,-259.5036 836.1181,-431.8211 787.5,-431.8211"/>
<polygon fill="#000000" stroke="#000000" points="867.585,-172.9845 876.0235,-175.3828 871.5425,-172.4028 875.5,-171.8211 875.5,-171.8211 875.5,-171.8211 871.5425,-172.4028 874.9765,-168.2593 867.585,-172.9845 867.585,-172.9845"/>
<ellipse fill="none" stroke="#000000" cx="864.4191" cy="-173.4499" rx="3.2" ry="3.2"/>
</g>
<!-- payment_p2007_06&#45;&gt;rental -->
<g id="edge29" class="edge">
<title>payment_p2007_06:w&#45;&gt;rental:e</title>
<path fill="none" stroke="#000000" d="M861.5116,-175.5398C816.8955,-188.5817 681.6929,-231.6292 678,-234.8211 646.5699,-261.9868 678.5431,-318.8211 637,-318.8211"/>
<polygon fill="#000000" stroke="#000000" points="867.7685,-173.8764 876.4249,-175.3002 871.6343,-172.8488 875.5,-171.8211 875.5,-171.8211 875.5,-171.8211 871.6343,-172.8488 874.5751,-168.3419 867.7685,-173.8764 867.7685,-173.8764"/>
<ellipse fill="none" stroke="#000000" cx="864.6759" cy="-174.6986" rx="3.2" ry="3.2"/>
</g>
<!-- payment_p2007_06&#45;&gt;staff -->
<g id="edge30" class="edge">
<title>payment_p2007_06:w&#45;&gt;staff:e</title>
<path fill="none" stroke="#000000" d="M861.1056,-170.194C832.7483,-163.1238 829.1435,-134.7991 795,-120.8211 709.163,-85.6803 683.7516,-76.8211 591,-76.8211 591,-76.8211 591,-76.8211 450,-76.8211 368.429,-76.8211 330.3341,-39.4147 267,-90.8211 217.0394,-131.3726 290.8467,-229.8211 226.5,-229.8211"/>
<polygon fill="#000000" stroke="#000000" points="867.5506,-170.9225 875.0956,-175.3983 871.5253,-171.3718 875.5,-171.8211 875.5,-171.8211 875.5,-171.8211 871.5253,-171.3718 875.9044,-168.2438 867.5506,-170.9225 867.5506,-170.9225"/>
<ellipse fill="none" stroke="#000000" cx="864.3709" cy="-170.563" rx="3.2" ry="3.2"/>
</g>
</g>
</svg>
