<?xml version="1.0" encoding="UTF-8" standalone="no"?>
<!DOCTYPE svg PUBLIC "-//W3C//DTD SVG 1.1//EN"
 "http://www.w3.org/Graphics/SVG/1.1/DTD/svg11.dtd">
<!-- Generated by graphviz version 2.40.1 (20161225.0304)
 -->
<!-- Title: twoDegreesRelationshipsDiagram Pages: 1 -->
<svg width="626pt" height="507pt"
 viewBox="0.00 0.00 626.00 507.20" xmlns="http://www.w3.org/2000/svg" xmlns:xlink="http://www.w3.org/1999/xlink">
<g id="graph0" class="graph" transform="scale(1 1) rotate(0) translate(4 503.2)">
<title>twoDegreesRelationshipsDiagram</title>
<polygon fill="#ffffff" stroke="transparent" points="-4,4 -4,-503.2 622,-503.2 622,4 -4,4"/>
<text text-anchor="middle" x="72.4936" y="-7.3" font-family="Helvetica,sans-Serif" font-size="11.00" fill="#000000">Generated by SchemaSpy</text>
<!-- customer -->
<g id="node1" class="node">
<title>customer</title>
<g id="a_node1"><a xlink:href="../../tables/customer.html" xlink:title="customer" target="_top">
<polygon fill="#ffffff" stroke="transparent" points="139,-198.2 139,-347.2 231,-347.2 231,-198.2 139,-198.2"/>
<polygon fill="#f5f5f5" stroke="transparent" points="139,-323.7 139,-346.7 231,-346.7 231,-323.7 139,-323.7"/>
<polygon fill="none" stroke="#000000" points="139,-323.7 139,-346.7 231,-346.7 231,-323.7 139,-323.7"/>
<text text-anchor="start" x="144" y="-332.8" font-family="Helvetica,sans-Serif" font-weight="bold" font-size="11.00" fill="#000000">customer</text>
<text text-anchor="start" x="196.0437" y="-331.8" font-family="Helvetica,sans-Serif" font-size="11.00" fill="#000000">[table]</text>
<polygon fill="none" stroke="#000000" points="139,-301.7 139,-323.7 231,-323.7 231,-301.7 139,-301.7"/>
<image xlink:href="../../images/primaryKeys.png" width="11px" height="12px" preserveAspectRatio="xMinYMin meet" x="144" y="-318.7"/>
<text text-anchor="start" x="159" y="-308.8" font-family="Helvetica,sans-Serif" font-size="11.00" fill="#000000">customer_id</text>
<polygon fill="#ffffff" stroke="transparent" points="139,-279.7 139,-301.7 231,-301.7 231,-279.7 139,-279.7"/>
<polygon fill="none" stroke="#000000" points="139,-279.7 139,-301.7 231,-301.7 231,-279.7 139,-279.7"/>
<text text-anchor="start" x="159" y="-286.8" font-family="Helvetica,sans-Serif" font-size="11.00" fill="#000000">store_id</text>
<polygon fill="#ffffff" stroke="transparent" points="139,-257.7 139,-279.7 231,-279.7 231,-257.7 139,-257.7"/>
<polygon fill="none" stroke="#000000" points="139,-257.7 139,-279.7 231,-279.7 231,-257.7 139,-257.7"/>
<text text-anchor="start" x="159" y="-264.8" font-family="Helvetica,sans-Serif" font-size="11.00" fill="#000000">last_name</text>
<polygon fill="#ffffff" stroke="transparent" points="139,-235.7 139,-257.7 231,-257.7 231,-235.7 139,-235.7"/>
<polygon fill="none" stroke="#000000" points="139,-235.7 139,-257.7 231,-257.7 231,-235.7 139,-235.7"/>
<image xlink:href="../../images/foreignKeys.png" width="11px" height="12px" preserveAspectRatio="xMinYMin meet" x="144" y="-252.7"/>
<text text-anchor="start" x="159" y="-242.8" font-family="Helvetica,sans-Serif" font-size="11.00" fill="#000000">address_id</text>
<polygon fill="none" stroke="#000000" points="139,-216.7 139,-235.7 231,-235.7 231,-216.7 139,-216.7"/>
<text text-anchor="start" x="142" y="-222.8" font-family="Helvetica,sans-Serif" font-size="11.00" fill="#000000">...</text>
<polygon fill="#ffffff" stroke="transparent" points="139,-197.7 139,-216.7 166,-216.7 166,-197.7 139,-197.7"/>
<polygon fill="none" stroke="#000000" points="139,-197.7 139,-216.7 166,-216.7 166,-197.7 139,-197.7"/>
<text text-anchor="start" x="142" y="-203.8" font-family="Helvetica,sans-Serif" font-size="11.00" fill="#000000">&lt; 1</text>
<polygon fill="#ffffff" stroke="transparent" points="166,-197.7 166,-216.7 207,-216.7 207,-197.7 166,-197.7"/>
<polygon fill="none" stroke="#000000" points="166,-197.7 166,-216.7 207,-216.7 207,-197.7 166,-197.7"/>
<text text-anchor="start" x="171.6105" y="-203.8" font-family="Helvetica,sans-Serif" font-size="11.00" fill="#000000">0 rows</text>
<polygon fill="#ffffff" stroke="transparent" points="207,-197.7 207,-216.7 231,-216.7 231,-197.7 207,-197.7"/>
<polygon fill="none" stroke="#000000" points="207,-197.7 207,-216.7 231,-216.7 231,-197.7 207,-197.7"/>
<text text-anchor="start" x="212.4053" y="-203.8" font-family="Helvetica,sans-Serif" font-size="11.00" fill="#000000">2 &gt;</text>
</a>
</g>
</g>
<!-- address -->
<g id="node2" class="node">
<title>address</title>
<g id="a_node2"><a xlink:href="../../tables/address.html" xlink:title="address" target="_top">
<polygon fill="#ffffff" stroke="transparent" points="8,-93.2 8,-154.2 90,-154.2 90,-93.2 8,-93.2"/>
<polygon fill="#f5f5f5" stroke="transparent" points="8,-130.7 8,-153.7 90,-153.7 90,-130.7 8,-130.7"/>
<polygon fill="none" stroke="#000000" points="8,-130.7 8,-153.7 90,-153.7 90,-130.7 8,-130.7"/>
<text text-anchor="start" x="12.9393" y="-139.8" font-family="Helvetica,sans-Serif" font-weight="bold" font-size="11.00" fill="#000000">address</text>
<text text-anchor="start" x="55.5219" y="-138.8" font-family="Helvetica,sans-Serif" font-size="11.00" fill="#000000">[table]</text>
<polygon fill="none" stroke="#000000" points="8,-111.7 8,-130.7 90,-130.7 90,-111.7 8,-111.7"/>
<text text-anchor="start" x="11" y="-117.8" font-family="Helvetica,sans-Serif" font-size="11.00" fill="#000000">...</text>
<polygon fill="#ffffff" stroke="transparent" points="8,-92.7 8,-111.7 30,-111.7 30,-92.7 8,-92.7"/>
<polygon fill="none" stroke="#000000" points="8,-92.7 8,-111.7 30,-111.7 30,-92.7 8,-92.7"/>
<text text-anchor="start" x="11" y="-98.8" font-family="Helvetica,sans-Serif" font-size="11.00" fill="#000000">&lt; 1</text>
<polygon fill="#ffffff" stroke="transparent" points="30,-92.7 30,-111.7 68,-111.7 68,-92.7 30,-92.7"/>
<polygon fill="none" stroke="#000000" points="30,-92.7 30,-111.7 68,-111.7 68,-92.7 30,-92.7"/>
<text text-anchor="start" x="32.8053" y="-98.8" font-family="Helvetica,sans-Serif" font-size="11.00" fill="#000000">0 rows</text>
<polygon fill="#ffffff" stroke="transparent" points="68,-92.7 68,-111.7 90,-111.7 90,-92.7 68,-92.7"/>
<polygon fill="none" stroke="#000000" points="68,-92.7 68,-111.7 90,-111.7 90,-92.7 68,-92.7"/>
<text text-anchor="start" x="71.4053" y="-98.8" font-family="Helvetica,sans-Serif" font-size="11.00" fill="#000000">3 &gt;</text>
</a>
</g>
</g>
<!-- customer&#45;&gt;address -->
<g id="edge1" class="edge">
<title>customer:w&#45;&gt;address:e</title>
<path fill="none" stroke="#000000" d="M124.9076,-243.3298C91.5633,-223.2923 144.2178,-120.7 90,-120.7"/>
<polygon fill="#000000" stroke="#000000" points="131.2194,-244.8392 138.1627,-250.2013 135.1097,-245.7696 139,-246.7 139,-246.7 139,-246.7 135.1097,-245.7696 139.8373,-243.1987 131.2194,-244.8392 131.2194,-244.8392"/>
<ellipse fill="none" stroke="#000000" cx="128.1072" cy="-244.0949" rx="3.2" ry="3.2"/>
</g>
<!-- inventory -->
<g id="node3" class="node">
<title>inventory</title>
<g id="a_node3"><a xlink:href="../../tables/inventory.html" xlink:title="inventory" target="_top">
<polygon fill="#ffffff" stroke="transparent" points="139,-368.2 139,-495.2 231,-495.2 231,-368.2 139,-368.2"/>
<polygon fill="#f5f5f5" stroke="transparent" points="139,-471.7 139,-494.7 231,-494.7 231,-471.7 139,-471.7"/>
<polygon fill="none" stroke="#000000" points="139,-471.7 139,-494.7 231,-494.7 231,-471.7 139,-471.7"/>
<text text-anchor="start" x="144" y="-480.8" font-family="Helvetica,sans-Serif" font-weight="bold" font-size="11.00" fill="#000000">inventory</text>
<text text-anchor="start" x="196.0437" y="-479.8" font-family="Helvetica,sans-Serif" font-size="11.00" fill="#000000">[table]</text>
<polygon fill="none" stroke="#000000" points="139,-449.7 139,-471.7 231,-471.7 231,-449.7 139,-449.7"/>
<image xlink:href="../../images/primaryKeys.png" width="11px" height="12px" preserveAspectRatio="xMinYMin meet" x="144" y="-466.7"/>
<text text-anchor="start" x="159" y="-456.8" font-family="Helvetica,sans-Serif" font-size="11.00" fill="#000000">inventory_id</text>
<polygon fill="#ffffff" stroke="transparent" points="139,-427.7 139,-449.7 231,-449.7 231,-427.7 139,-427.7"/>
<polygon fill="none" stroke="#000000" points="139,-427.7 139,-449.7 231,-449.7 231,-427.7 139,-427.7"/>
<image xlink:href="../../images/foreignKeys.png" width="11px" height="12px" preserveAspectRatio="xMinYMin meet" x="144" y="-444.7"/>
<text text-anchor="start" x="159" y="-434.8" font-family="Helvetica,sans-Serif" font-size="11.00" fill="#000000">film_id</text>
<polygon fill="#ffffff" stroke="transparent" points="139,-405.7 139,-427.7 231,-427.7 231,-405.7 139,-405.7"/>
<polygon fill="none" stroke="#000000" points="139,-405.7 139,-427.7 231,-427.7 231,-405.7 139,-405.7"/>
<text text-anchor="start" x="159" y="-412.8" font-family="Helvetica,sans-Serif" font-size="11.00" fill="#000000">store_id</text>
<polygon fill="none" stroke="#000000" points="139,-386.7 139,-405.7 231,-405.7 231,-386.7 139,-386.7"/>
<text text-anchor="start" x="142" y="-392.8" font-family="Helvetica,sans-Serif" font-size="11.00" fill="#000000">...</text>
<polygon fill="#ffffff" stroke="transparent" points="139,-367.7 139,-386.7 166,-386.7 166,-367.7 139,-367.7"/>
<polygon fill="none" stroke="#000000" points="139,-367.7 139,-386.7 166,-386.7 166,-367.7 139,-367.7"/>
<text text-anchor="start" x="142" y="-373.8" font-family="Helvetica,sans-Serif" font-size="11.00" fill="#000000">&lt; 1</text>
<polygon fill="#ffffff" stroke="transparent" points="166,-367.7 166,-386.7 207,-386.7 207,-367.7 166,-367.7"/>
<polygon fill="none" stroke="#000000" points="166,-367.7 166,-386.7 207,-386.7 207,-367.7 166,-367.7"/>
<text text-anchor="start" x="171.6105" y="-373.8" font-family="Helvetica,sans-Serif" font-size="11.00" fill="#000000">0 rows</text>
<polygon fill="#ffffff" stroke="transparent" points="207,-367.7 207,-386.7 231,-386.7 231,-367.7 207,-367.7"/>
<polygon fill="none" stroke="#000000" points="207,-367.7 207,-386.7 231,-386.7 231,-367.7 207,-367.7"/>
<text text-anchor="start" x="212.4053" y="-373.8" font-family="Helvetica,sans-Serif" font-size="11.00" fill="#000000">1 &gt;</text>
</a>
</g>
</g>
<!-- film -->
<g id="node4" class="node">
<title>film</title>
<g id="a_node4"><a xlink:href="../../tables/film.html" xlink:title="film" target="_top">
<polygon fill="#ffffff" stroke="transparent" points="9,-411.2 9,-472.2 89,-472.2 89,-411.2 9,-411.2"/>
<polygon fill="#f5f5f5" stroke="transparent" points="9,-448.7 9,-471.7 89,-471.7 89,-448.7 9,-448.7"/>
<polygon fill="none" stroke="#000000" points="9,-448.7 9,-471.7 89,-471.7 89,-448.7 9,-448.7"/>
<text text-anchor="start" x="14" y="-457.8" font-family="Helvetica,sans-Serif" font-weight="bold" font-size="11.00" fill="#000000">film</text>
<text text-anchor="start" x="54.0437" y="-456.8" font-family="Helvetica,sans-Serif" font-size="11.00" fill="#000000">[table]</text>
<polygon fill="none" stroke="#000000" points="9,-429.7 9,-448.7 89,-448.7 89,-429.7 9,-429.7"/>
<text text-anchor="start" x="12" y="-435.8" font-family="Helvetica,sans-Serif" font-size="11.00" fill="#000000">...</text>
<polygon fill="#ffffff" stroke="transparent" points="9,-410.7 9,-429.7 30,-429.7 30,-410.7 9,-410.7"/>
<polygon fill="none" stroke="#000000" points="9,-410.7 9,-429.7 30,-429.7 30,-410.7 9,-410.7"/>
<text text-anchor="start" x="11.7027" y="-416.8" font-family="Helvetica,sans-Serif" font-size="11.00" fill="#000000">&lt; 1</text>
<polygon fill="#ffffff" stroke="transparent" points="30,-410.7 30,-429.7 68,-429.7 68,-410.7 30,-410.7"/>
<polygon fill="none" stroke="#000000" points="30,-410.7 30,-429.7 68,-429.7 68,-410.7 30,-410.7"/>
<text text-anchor="start" x="32.8053" y="-416.8" font-family="Helvetica,sans-Serif" font-size="11.00" fill="#000000">0 rows</text>
<polygon fill="#ffffff" stroke="transparent" points="68,-410.7 68,-429.7 89,-429.7 89,-410.7 68,-410.7"/>
<polygon fill="none" stroke="#000000" points="68,-410.7 68,-429.7 89,-429.7 89,-410.7 68,-410.7"/>
<text text-anchor="start" x="70.7027" y="-416.8" font-family="Helvetica,sans-Serif" font-size="11.00" fill="#000000">3 &gt;</text>
</a>
</g>
</g>
<!-- inventory&#45;&gt;film -->
<g id="edge2" class="edge">
<title>inventory:w&#45;&gt;film:e</title>
<path fill="none" stroke="#000000" d="M124.5647,-438.7C112.8054,-438.7 105.4931,-438.7 89,-438.7"/>
<polygon fill="#000000" stroke="#000000" points="131,-438.7001 139,-442.3 135,-438.7 139,-438.7 139,-438.7 139,-438.7 135,-438.7 139,-435.1 131,-438.7001 131,-438.7001"/>
<ellipse fill="none" stroke="#000000" cx="127.8" cy="-438.7001" rx="3.2" ry="3.2"/>
</g>
<!-- payment -->
<g id="node5" class="node">
<title>payment</title>
<g id="a_node5"><a xlink:href="../../tables/payment.html" xlink:title="payment" target="_top">
<polygon fill="#ffffff" stroke="transparent" points="509,-282.2 509,-431.2 610,-431.2 610,-282.2 509,-282.2"/>
<polygon fill="#f5f5f5" stroke="transparent" points="509.5,-407.7 509.5,-430.7 610.5,-430.7 610.5,-407.7 509.5,-407.7"/>
<polygon fill="none" stroke="#000000" points="509.5,-407.7 509.5,-430.7 610.5,-430.7 610.5,-407.7 509.5,-407.7"/>
<text text-anchor="start" x="514.5" y="-416.8" font-family="Helvetica,sans-Serif" font-weight="bold" font-size="11.00" fill="#000000">payment</text>
<text text-anchor="start" x="575.5437" y="-415.8" font-family="Helvetica,sans-Serif" font-size="11.00" fill="#000000">[table]</text>
<polygon fill="none" stroke="#000000" points="509.5,-385.7 509.5,-407.7 610.5,-407.7 610.5,-385.7 509.5,-385.7"/>
<image xlink:href="../../images/primaryKeys.png" width="11px" height="12px" preserveAspectRatio="xMinYMin meet" x="514.5" y="-402.7"/>
<text text-anchor="start" x="529.5" y="-392.8" font-family="Helvetica,sans-Serif" font-size="11.00" fill="#000000">payment_id</text>
<polygon fill="#ffffff" stroke="transparent" points="509.5,-363.7 509.5,-385.7 610.5,-385.7 610.5,-363.7 509.5,-363.7"/>
<polygon fill="none" stroke="#000000" points="509.5,-363.7 509.5,-385.7 610.5,-385.7 610.5,-363.7 509.5,-363.7"/>
<image xlink:href="../../images/foreignKeys.png" width="11px" height="12px" preserveAspectRatio="xMinYMin meet" x="514.5" y="-380.7"/>
<text text-anchor="start" x="529.5" y="-370.8" font-family="Helvetica,sans-Serif" font-size="11.00" fill="#000000">customer_id</text>
<polygon fill="#ffffff" stroke="transparent" points="509.5,-341.7 509.5,-363.7 610.5,-363.7 610.5,-341.7 509.5,-341.7"/>
<polygon fill="none" stroke="#000000" points="509.5,-341.7 509.5,-363.7 610.5,-363.7 610.5,-341.7 509.5,-341.7"/>
<image xlink:href="../../images/foreignKeys.png" width="11px" height="12px" preserveAspectRatio="xMinYMin meet" x="514.5" y="-358.7"/>
<text text-anchor="start" x="529.5" y="-348.8" font-family="Helvetica,sans-Serif" font-size="11.00" fill="#000000">staff_id</text>
<polygon fill="#ffffff" stroke="transparent" points="509.5,-319.7 509.5,-341.7 610.5,-341.7 610.5,-319.7 509.5,-319.7"/>
<polygon fill="none" stroke="#000000" points="509.5,-319.7 509.5,-341.7 610.5,-341.7 610.5,-319.7 509.5,-319.7"/>
<image xlink:href="../../images/foreignKeys.png" width="11px" height="12px" preserveAspectRatio="xMinYMin meet" x="514.5" y="-336.7"/>
<text text-anchor="start" x="529.5" y="-326.8" font-family="Helvetica,sans-Serif" font-size="11.00" fill="#000000">rental_id</text>
<polygon fill="none" stroke="#000000" points="509.5,-300.7 509.5,-319.7 610.5,-319.7 610.5,-300.7 509.5,-300.7"/>
<text text-anchor="start" x="512.5" y="-306.8" font-family="Helvetica,sans-Serif" font-size="11.00" fill="#000000">...</text>
<polygon fill="#ffffff" stroke="transparent" points="509.5,-281.7 509.5,-300.7 545.5,-300.7 545.5,-281.7 509.5,-281.7"/>
<polygon fill="none" stroke="#000000" points="509.5,-281.7 509.5,-300.7 545.5,-300.7 545.5,-281.7 509.5,-281.7"/>
<text text-anchor="start" x="512.5" y="-287.8" font-family="Helvetica,sans-Serif" font-size="11.00" fill="#000000">&lt; 3</text>
<polygon fill="#ffffff" stroke="transparent" points="545.5,-281.7 545.5,-300.7 590.5,-300.7 590.5,-281.7 545.5,-281.7"/>
<polygon fill="none" stroke="#000000" points="545.5,-281.7 545.5,-300.7 590.5,-300.7 590.5,-281.7 545.5,-281.7"/>
<text text-anchor="start" x="555.1105" y="-287.8" font-family="Helvetica,sans-Serif" font-size="11.00" fill="#000000">0 rows</text>
<polygon fill="#ffffff" stroke="transparent" points="590.5,-281.7 590.5,-300.7 610.5,-300.7 610.5,-281.7 590.5,-281.7"/>
<polygon fill="none" stroke="#000000" points="590.5,-281.7 590.5,-300.7 610.5,-300.7 610.5,-281.7 590.5,-281.7"/>
<text text-anchor="start" x="601.3862" y="-287.8" font-family="Helvetica,sans-Serif" font-size="11.00" fill="#000000"> &#160;</text>
</a>
</g>
</g>
<!-- payment&#45;&gt;customer -->
<g id="edge3" class="edge">
<title>payment:w&#45;&gt;customer:e</title>
<path fill="none" stroke="#000000" d="M495.1109,-375.2867C486.6757,-376.0236 480.561,-377.2466 468,-377.7 380.9456,-380.8424 348.2783,-419.771 272,-377.7 242.0917,-361.2042 265.1558,-312.7 231,-312.7"/>
<polygon fill="#000000" stroke="#000000" points="501.5066,-375.0259 509.6467,-378.297 505.5033,-374.863 509.5,-374.7 509.5,-374.7 509.5,-374.7 505.5033,-374.863 509.3533,-371.103 501.5066,-375.0259 501.5066,-375.0259"/>
<ellipse fill="none" stroke="#000000" cx="498.3093" cy="-375.1563" rx="3.2" ry="3.2"/>
</g>
<!-- rental -->
<g id="node6" class="node">
<title>rental</title>
<g id="a_node6"><a xlink:href="../../tables/rental.html" xlink:title="rental" target="_top">
<polygon fill="#ffffff" stroke="transparent" points="280,-166.7 280,-366.7 460,-366.7 460,-166.7 280,-166.7"/>
<polygon fill="#f5f5f5" stroke="transparent" points="282,-341.7 282,-364.7 458,-364.7 458,-341.7 282,-341.7"/>
<polygon fill="none" stroke="#000000" points="282,-341.7 282,-364.7 458,-364.7 458,-341.7 282,-341.7"/>
<text text-anchor="start" x="287" y="-350.8" font-family="Helvetica,sans-Serif" font-weight="bold" font-size="11.00" fill="#000000">rental</text>
<text text-anchor="start" x="423.0437" y="-349.8" font-family="Helvetica,sans-Serif" font-size="11.00" fill="#000000">[table]</text>
<polygon fill="none" stroke="#000000" points="282,-319.7 282,-341.7 374,-341.7 374,-319.7 282,-319.7"/>
<image xlink:href="../../images/primaryKeys.png" width="11px" height="12px" preserveAspectRatio="xMinYMin meet" x="287" y="-336.7"/>
<text text-anchor="start" x="302" y="-326.8" font-family="Helvetica,sans-Serif" font-size="11.00" fill="#000000">rental_id</text>
<polygon fill="none" stroke="#000000" points="374,-319.7 374,-341.7 458,-341.7 458,-319.7 374,-319.7"/>
<text text-anchor="start" x="377" y="-327.4" font-family="Helvetica,sans-Serif" font-size="11.00" fill="#000000">serial[10]</text>
<polygon fill="#ffffff" stroke="transparent" points="282,-297.7 282,-319.7 374,-319.7 374,-297.7 282,-297.7"/>
<polygon fill="none" stroke="#000000" points="282,-297.7 282,-319.7 374,-319.7 374,-297.7 282,-297.7"/>
<text text-anchor="start" x="302" y="-304.8" font-family="Helvetica,sans-Serif" font-size="11.00" fill="#000000">rental_date</text>
<polygon fill="none" stroke="#000000" points="374,-297.7 374,-319.7 458,-319.7 458,-297.7 374,-297.7"/>
<text text-anchor="start" x="376.8807" y="-305.4" font-family="Helvetica,sans-Serif" font-size="11.00" fill="#000000">timestamp[29,6]</text>
<polygon fill="#ffffff" stroke="transparent" points="282,-275.7 282,-297.7 374,-297.7 374,-275.7 282,-275.7"/>
<polygon fill="none" stroke="#000000" points="282,-275.7 282,-297.7 374,-297.7 374,-275.7 282,-275.7"/>
<image xlink:href="../../images/foreignKeys.png" width="11px" height="12px" preserveAspectRatio="xMinYMin meet" x="287" y="-292.7"/>
<text text-anchor="start" x="302" y="-282.8" font-family="Helvetica,sans-Serif" font-size="11.00" fill="#000000">inventory_id</text>
<polygon fill="none" stroke="#000000" points="374,-275.7 374,-297.7 458,-297.7 458,-275.7 374,-275.7"/>
<text text-anchor="start" x="377" y="-283.4" font-family="Helvetica,sans-Serif" font-size="11.00" fill="#000000">int4[10]</text>
<polygon fill="#ffffff" stroke="transparent" points="282,-253.7 282,-275.7 374,-275.7 374,-253.7 282,-253.7"/>
<polygon fill="none" stroke="#000000" points="282,-253.7 282,-275.7 374,-275.7 374,-253.7 282,-253.7"/>
<image xlink:href="../../images/foreignKeys.png" width="11px" height="12px" preserveAspectRatio="xMinYMin meet" x="287" y="-270.7"/>
<text text-anchor="start" x="302" y="-260.8" font-family="Helvetica,sans-Serif" font-size="11.00" fill="#000000">customer_id</text>
<polygon fill="none" stroke="#000000" points="374,-253.7 374,-275.7 458,-275.7 458,-253.7 374,-253.7"/>
<text text-anchor="start" x="377" y="-261.4" font-family="Helvetica,sans-Serif" font-size="11.00" fill="#000000">int2[5]</text>
<polygon fill="none" stroke="#000000" points="282,-231.7 282,-253.7 374,-253.7 374,-231.7 282,-231.7"/>
<text text-anchor="start" x="302" y="-238.8" font-family="Helvetica,sans-Serif" font-size="11.00" fill="#000000">return_date</text>
<polygon fill="none" stroke="#000000" points="374,-231.7 374,-253.7 458,-253.7 458,-231.7 374,-231.7"/>
<text text-anchor="start" x="376.8807" y="-239.4" font-family="Helvetica,sans-Serif" font-size="11.00" fill="#000000">timestamp[29,6]</text>
<polygon fill="none" stroke="#000000" points="282,-209.7 282,-231.7 374,-231.7 374,-209.7 282,-209.7"/>
<image xlink:href="../../images/foreignKeys.png" width="11px" height="12px" preserveAspectRatio="xMinYMin meet" x="287" y="-226.7"/>
<text text-anchor="start" x="302" y="-216.8" font-family="Helvetica,sans-Serif" font-size="11.00" fill="#000000">staff_id</text>
<polygon fill="none" stroke="#000000" points="374,-209.7 374,-231.7 458,-231.7 458,-209.7 374,-209.7"/>
<text text-anchor="start" x="377" y="-217.4" font-family="Helvetica,sans-Serif" font-size="11.00" fill="#000000">int2[5]</text>
<polygon fill="none" stroke="#000000" points="282,-187.7 282,-209.7 374,-209.7 374,-187.7 282,-187.7"/>
<text text-anchor="start" x="302" y="-194.8" font-family="Helvetica,sans-Serif" font-size="11.00" fill="#000000">last_update</text>
<polygon fill="none" stroke="#000000" points="374,-187.7 374,-209.7 458,-209.7 458,-187.7 374,-187.7"/>
<text text-anchor="start" x="376.8807" y="-195.4" font-family="Helvetica,sans-Serif" font-size="11.00" fill="#000000">timestamp[29,6]</text>
<polygon fill="#ffffff" stroke="transparent" points="282,-168.7 282,-187.7 319,-187.7 319,-168.7 282,-168.7"/>
<polygon fill="none" stroke="#000000" points="282,-168.7 282,-187.7 319,-187.7 319,-168.7 282,-168.7"/>
<text text-anchor="start" x="285" y="-174.8" font-family="Helvetica,sans-Serif" font-size="11.00" fill="#000000">&lt; 3</text>
<polygon fill="#ffffff" stroke="transparent" points="319,-168.7 319,-187.7 374,-187.7 374,-168.7 319,-168.7"/>
<polygon fill="none" stroke="#000000" points="319,-168.7 319,-187.7 374,-187.7 374,-168.7 319,-168.7"/>
<text text-anchor="start" x="338.6105" y="-174.8" font-family="Helvetica,sans-Serif" font-size="11.00" fill="#000000">0 rows</text>
<polygon fill="#ffffff" stroke="transparent" points="374,-168.7 374,-187.7 458,-187.7 458,-168.7 374,-168.7"/>
<polygon fill="none" stroke="#000000" points="374,-168.7 374,-187.7 458,-187.7 458,-168.7 374,-168.7"/>
<text text-anchor="start" x="439.4053" y="-174.8" font-family="Helvetica,sans-Serif" font-size="11.00" fill="#000000">1 &gt;</text>
<polygon fill="none" stroke="#000000" stroke-width="2" points="281,-167.7 281,-365.7 459,-365.7 459,-167.7 281,-167.7"/>
</a>
</g>
</g>
<!-- payment&#45;&gt;rental -->
<g id="edge4" class="edge">
<title>payment:w&#45;&gt;rental:e</title>
<path fill="none" stroke="#000000" d="M495.0156,-330.7C482.6771,-330.7 475.1667,-330.7 458,-330.7"/>
<polygon fill="#000000" stroke="#000000" points="501.5,-330.7001 509.5,-334.3 505.5,-330.7 509.5,-330.7 509.5,-330.7 509.5,-330.7 505.5,-330.7 509.5,-327.1 501.5,-330.7001 501.5,-330.7001"/>
<ellipse fill="none" stroke="#000000" cx="498.3" cy="-330.7001" rx="3.2" ry="3.2"/>
</g>
<!-- staff -->
<g id="node7" class="node">
<title>staff</title>
<g id="a_node7"><a xlink:href="../../tables/staff.html" xlink:title="staff" target="_top">
<polygon fill="#ffffff" stroke="transparent" points="141.5,-72.2 141.5,-177.2 228.5,-177.2 228.5,-72.2 141.5,-72.2"/>
<polygon fill="#f5f5f5" stroke="transparent" points="142,-153.7 142,-176.7 229,-176.7 229,-153.7 142,-153.7"/>
<polygon fill="none" stroke="#000000" points="142,-153.7 142,-176.7 229,-176.7 229,-153.7 142,-153.7"/>
<text text-anchor="start" x="147" y="-162.8" font-family="Helvetica,sans-Serif" font-weight="bold" font-size="11.00" fill="#000000">staff</text>
<text text-anchor="start" x="194.0437" y="-161.8" font-family="Helvetica,sans-Serif" font-size="11.00" fill="#000000">[table]</text>
<polygon fill="none" stroke="#000000" points="142,-131.7 142,-153.7 229,-153.7 229,-131.7 142,-131.7"/>
<image xlink:href="../../images/primaryKeys.png" width="11px" height="12px" preserveAspectRatio="xMinYMin meet" x="147" y="-148.7"/>
<text text-anchor="start" x="162" y="-138.8" font-family="Helvetica,sans-Serif" font-size="11.00" fill="#000000">staff_id</text>
<polygon fill="none" stroke="#000000" points="142,-109.7 142,-131.7 229,-131.7 229,-109.7 142,-109.7"/>
<image xlink:href="../../images/foreignKeys.png" width="11px" height="12px" preserveAspectRatio="xMinYMin meet" x="147" y="-126.7"/>
<text text-anchor="start" x="162" y="-116.8" font-family="Helvetica,sans-Serif" font-size="11.00" fill="#000000">address_id</text>
<polygon fill="none" stroke="#000000" points="142,-90.7 142,-109.7 229,-109.7 229,-90.7 142,-90.7"/>
<text text-anchor="start" x="145" y="-96.8" font-family="Helvetica,sans-Serif" font-size="11.00" fill="#000000">...</text>
<polygon fill="#ffffff" stroke="transparent" points="142,-71.7 142,-90.7 166,-90.7 166,-71.7 142,-71.7"/>
<polygon fill="none" stroke="#000000" points="142,-71.7 142,-90.7 166,-90.7 166,-71.7 142,-71.7"/>
<text text-anchor="start" x="145" y="-77.8" font-family="Helvetica,sans-Serif" font-size="11.00" fill="#000000">&lt; 1</text>
<polygon fill="#ffffff" stroke="transparent" points="166,-71.7 166,-90.7 206,-90.7 206,-71.7 166,-71.7"/>
<polygon fill="none" stroke="#000000" points="166,-71.7 166,-90.7 206,-90.7 206,-71.7 166,-71.7"/>
<text text-anchor="start" x="170.6105" y="-77.8" font-family="Helvetica,sans-Serif" font-size="11.00" fill="#000000">0 rows</text>
<polygon fill="#ffffff" stroke="transparent" points="206,-71.7 206,-90.7 229,-90.7 229,-71.7 206,-71.7"/>
<polygon fill="none" stroke="#000000" points="206,-71.7 206,-90.7 229,-90.7 229,-71.7 206,-71.7"/>
<text text-anchor="start" x="210.4053" y="-77.8" font-family="Helvetica,sans-Serif" font-size="11.00" fill="#000000">3 &gt;</text>
</a>
</g>
</g>
<!-- payment&#45;&gt;staff -->
<g id="edge5" class="edge">
<title>payment:w&#45;&gt;staff:e</title>
<path fill="none" stroke="#000000" d="M495.1019,-351.1367C434.1257,-335.7699 531.2881,-211.134 468,-156.7 387.3297,-87.3157 335.4043,-142.7 229,-142.7"/>
<polygon fill="#000000" stroke="#000000" points="501.5467,-351.8364 509.1114,-356.279 505.5234,-352.2682 509.5,-352.7 509.5,-352.7 509.5,-352.7 505.5234,-352.2682 509.8886,-349.121 501.5467,-351.8364 501.5467,-351.8364"/>
<ellipse fill="none" stroke="#000000" cx="498.3654" cy="-351.491" rx="3.2" ry="3.2"/>
</g>
<!-- rental&#45;&gt;customer -->
<g id="edge6" class="edge">
<title>rental:w&#45;&gt;customer:e</title>
<path fill="none" stroke="#000000" d="M267.9801,-269.4779C253.6524,-281.6189 256.0475,-312.7 231,-312.7"/>
<polygon fill="#000000" stroke="#000000" points="274.4277,-267.2807 283.1613,-268.1076 278.2138,-265.9903 282,-264.7 282,-264.7 282,-264.7 278.2138,-265.9903 280.8387,-261.2924 274.4277,-267.2807 274.4277,-267.2807"/>
<ellipse fill="none" stroke="#000000" cx="271.3987" cy="-268.3129" rx="3.2" ry="3.2"/>
</g>
<!-- rental&#45;&gt;inventory -->
<g id="edge7" class="edge">
<title>rental:w&#45;&gt;inventory:e</title>
<path fill="none" stroke="#000000" d="M267.6979,-289.1597C215.9633,-310.3085 305.9205,-460.7 231,-460.7"/>
<polygon fill="#000000" stroke="#000000" points="274.1158,-288.056 282.6102,-290.2479 278.0579,-287.378 282,-286.7 282,-286.7 282,-286.7 278.0579,-287.378 281.3898,-283.1521 274.1158,-288.056 274.1158,-288.056"/>
<ellipse fill="none" stroke="#000000" cx="270.9621" cy="-288.5984" rx="3.2" ry="3.2"/>
</g>
<!-- rental&#45;&gt;staff -->
<g id="edge8" class="edge">
<title>rental:w&#45;&gt;staff:e</title>
<path fill="none" stroke="#000000" d="M267.9461,-216.2829C247.4785,-199.7825 264.8547,-142.7 229,-142.7"/>
<polygon fill="#000000" stroke="#000000" points="274.3681,-218.3013 280.9206,-224.1344 278.184,-219.5006 282,-220.7 282,-220.7 282,-220.7 278.184,-219.5006 283.0794,-217.2656 274.3681,-218.3013 274.3681,-218.3013"/>
<ellipse fill="none" stroke="#000000" cx="271.3153" cy="-217.3418" rx="3.2" ry="3.2"/>
</g>
<!-- staff&#45;&gt;address -->
<g id="edge9" class="edge">
<title>staff:w&#45;&gt;address:e</title>
<path fill="none" stroke="#000000" d="M127.375,-120.7C114.9167,-120.7 107.3333,-120.7 90,-120.7"/>
<polygon fill="#000000" stroke="#000000" points="134,-120.7001 142,-124.3 138,-120.7 142,-120.7 142,-120.7 142,-120.7 138,-120.7 142,-117.1 134,-120.7001 134,-120.7001"/>
<ellipse fill="none" stroke="#000000" cx="130.8" cy="-120.7001" rx="3.2" ry="3.2"/>
</g>
<!-- store -->
<g id="node8" class="node">
<title>store</title>
<g id="a_node8"><a xlink:href="../../tables/store.html" xlink:title="store" target="_top">
<polygon fill="#ffffff" stroke="transparent" points="334.5,-38.2 334.5,-99.2 405.5,-99.2 405.5,-38.2 334.5,-38.2"/>
<polygon fill="#f5f5f5" stroke="transparent" points="335,-75.7 335,-98.7 406,-98.7 406,-75.7 335,-75.7"/>
<polygon fill="none" stroke="#000000" points="335,-75.7 335,-98.7 406,-98.7 406,-75.7 335,-75.7"/>
<text text-anchor="start" x="340" y="-84.8" font-family="Helvetica,sans-Serif" font-weight="bold" font-size="11.00" fill="#000000">store</text>
<text text-anchor="start" x="371.0437" y="-83.8" font-family="Helvetica,sans-Serif" font-size="11.00" fill="#000000">[table]</text>
<polygon fill="none" stroke="#000000" points="335,-56.7 335,-75.7 406,-75.7 406,-56.7 335,-56.7"/>
<text text-anchor="start" x="338" y="-62.8" font-family="Helvetica,sans-Serif" font-size="11.00" fill="#000000">...</text>
<polygon fill="#ffffff" stroke="transparent" points="335,-37.7 335,-56.7 356,-56.7 356,-37.7 335,-37.7"/>
<polygon fill="none" stroke="#000000" points="335,-37.7 335,-56.7 356,-56.7 356,-37.7 335,-37.7"/>
<text text-anchor="start" x="337.7027" y="-43.8" font-family="Helvetica,sans-Serif" font-size="11.00" fill="#000000">&lt; 2</text>
<polygon fill="#ffffff" stroke="transparent" points="356,-37.7 356,-56.7 394,-56.7 394,-37.7 356,-37.7"/>
<polygon fill="none" stroke="#000000" points="356,-37.7 356,-56.7 394,-56.7 394,-37.7 356,-37.7"/>
<text text-anchor="start" x="358.8053" y="-43.8" font-family="Helvetica,sans-Serif" font-size="11.00" fill="#000000">0 rows</text>
<polygon fill="#ffffff" stroke="transparent" points="394,-37.7 394,-56.7 406,-56.7 406,-37.7 394,-37.7"/>
<polygon fill="none" stroke="#000000" points="394,-37.7 394,-56.7 406,-56.7 406,-37.7 394,-37.7"/>
<text text-anchor="start" x="396.9431" y="-43.8" font-family="Helvetica,sans-Serif" font-size="11.00" fill="#000000"> &#160;</text>
</a>
</g>
</g>
<!-- store&#45;&gt;address -->
<g id="edge10" class="edge">
<title>store:w&#45;&gt;address:e</title>
<path fill="none" stroke="#000000" d="M320.1273,-65.2815C240.4309,-60.7696 206.8113,-22.0635 131,-61.7 102.7022,-76.495 121.932,-120.7 90,-120.7"/>
<polygon fill="#000000" stroke="#000000" points="327.0032,-65.4749 334.8987,-69.2986 331.0016,-65.5875 335,-65.7 335,-65.7 335,-65.7 331.0016,-65.5875 335.1013,-62.1014 327.0032,-65.4749 327.0032,-65.4749"/>
<ellipse fill="none" stroke="#000000" cx="323.8044" cy="-65.3849" rx="3.2" ry="3.2"/>
</g>
<!-- store&#45;&gt;staff -->
<g id="edge11" class="edge">
<title>store:w&#45;&gt;staff:e</title>
<path fill="none" stroke="#000000" d="M324.5601,-66.6184C277.8338,-75.3059 283.476,-142.7 229,-142.7"/>
<polygon fill="#000000" stroke="#000000" points="333.8525,-61.7855 334.5536,-69.7547 332.9598,-69.8949 332.2587,-61.9257 333.8525,-61.7855"/>
<polyline fill="none" stroke="#000000" points="335,-65.7 331.0154,-66.0506 "/>
<ellipse fill="none" stroke="#000000" cx="327.8277" cy="-66.331" rx="3.2" ry="3.2"/>
</g>
</g>
</svg>
