<?xml version="1.0" encoding="UTF-8" standalone="no"?>
<!DOCTYPE svg PUBLIC "-//W3C//DTD SVG 1.1//EN"
 "http://www.w3.org/Graphics/SVG/1.1/DTD/svg11.dtd">
<!-- Generated by graphviz version 2.40.1 (20161225.0304)
 -->
<!-- Title: oneDegreeRelationshipsDiagram Pages: 1 -->
<svg width="495pt" height="473pt"
 viewBox="0.00 0.00 495.00 473.20" xmlns="http://www.w3.org/2000/svg" xmlns:xlink="http://www.w3.org/1999/xlink">
<g id="graph0" class="graph" transform="scale(1 1) rotate(0) translate(4 469.2)">
<title>oneDegreeRelationshipsDiagram</title>
<polygon fill="#ffffff" stroke="transparent" points="-4,4 -4,-469.2 491,-469.2 491,4 -4,4"/>
<text text-anchor="middle" x="72.4936" y="-7.3" font-family="Helvetica,sans-Serif" font-size="11.00" fill="#000000">Generated by SchemaSpy</text>
<!-- payment -->
<g id="node1" class="node">
<title>payment</title>
<g id="a_node1"><a xlink:href="../../tables/payment.html" xlink:title="payment" target="_top">
<polygon fill="#ffffff" stroke="transparent" points="378,-252.2 378,-401.2 479,-401.2 479,-252.2 378,-252.2"/>
<polygon fill="#f5f5f5" stroke="transparent" points="378.5,-377.7 378.5,-400.7 479.5,-400.7 479.5,-377.7 378.5,-377.7"/>
<polygon fill="none" stroke="#000000" points="378.5,-377.7 378.5,-400.7 479.5,-400.7 479.5,-377.7 378.5,-377.7"/>
<text text-anchor="start" x="383.5" y="-386.8" font-family="Helvetica,sans-Serif" font-weight="bold" font-size="11.00" fill="#000000">payment</text>
<text text-anchor="start" x="444.5437" y="-385.8" font-family="Helvetica,sans-Serif" font-size="11.00" fill="#000000">[table]</text>
<polygon fill="none" stroke="#000000" points="378.5,-355.7 378.5,-377.7 479.5,-377.7 479.5,-355.7 378.5,-355.7"/>
<image xlink:href="../../images/primaryKeys.png" width="11px" height="12px" preserveAspectRatio="xMinYMin meet" x="383.5" y="-372.7"/>
<text text-anchor="start" x="398.5" y="-362.8" font-family="Helvetica,sans-Serif" font-size="11.00" fill="#000000">payment_id</text>
<polygon fill="#ffffff" stroke="transparent" points="378.5,-333.7 378.5,-355.7 479.5,-355.7 479.5,-333.7 378.5,-333.7"/>
<polygon fill="none" stroke="#000000" points="378.5,-333.7 378.5,-355.7 479.5,-355.7 479.5,-333.7 378.5,-333.7"/>
<image xlink:href="../../images/foreignKeys.png" width="11px" height="12px" preserveAspectRatio="xMinYMin meet" x="383.5" y="-350.7"/>
<text text-anchor="start" x="398.5" y="-340.8" font-family="Helvetica,sans-Serif" font-size="11.00" fill="#000000">customer_id</text>
<polygon fill="#ffffff" stroke="transparent" points="378.5,-311.7 378.5,-333.7 479.5,-333.7 479.5,-311.7 378.5,-311.7"/>
<polygon fill="none" stroke="#000000" points="378.5,-311.7 378.5,-333.7 479.5,-333.7 479.5,-311.7 378.5,-311.7"/>
<image xlink:href="../../images/foreignKeys.png" width="11px" height="12px" preserveAspectRatio="xMinYMin meet" x="383.5" y="-328.7"/>
<text text-anchor="start" x="398.5" y="-318.8" font-family="Helvetica,sans-Serif" font-size="11.00" fill="#000000">staff_id</text>
<polygon fill="#ffffff" stroke="transparent" points="378.5,-289.7 378.5,-311.7 479.5,-311.7 479.5,-289.7 378.5,-289.7"/>
<polygon fill="none" stroke="#000000" points="378.5,-289.7 378.5,-311.7 479.5,-311.7 479.5,-289.7 378.5,-289.7"/>
<image xlink:href="../../images/foreignKeys.png" width="11px" height="12px" preserveAspectRatio="xMinYMin meet" x="383.5" y="-306.7"/>
<text text-anchor="start" x="398.5" y="-296.8" font-family="Helvetica,sans-Serif" font-size="11.00" fill="#000000">rental_id</text>
<polygon fill="none" stroke="#000000" points="378.5,-270.7 378.5,-289.7 479.5,-289.7 479.5,-270.7 378.5,-270.7"/>
<text text-anchor="start" x="381.5" y="-276.8" font-family="Helvetica,sans-Serif" font-size="11.00" fill="#000000">...</text>
<polygon fill="#ffffff" stroke="transparent" points="378.5,-251.7 378.5,-270.7 414.5,-270.7 414.5,-251.7 378.5,-251.7"/>
<polygon fill="none" stroke="#000000" points="378.5,-251.7 378.5,-270.7 414.5,-270.7 414.5,-251.7 378.5,-251.7"/>
<text text-anchor="start" x="381.5" y="-257.8" font-family="Helvetica,sans-Serif" font-size="11.00" fill="#000000">&lt; 3</text>
<polygon fill="#ffffff" stroke="transparent" points="414.5,-251.7 414.5,-270.7 459.5,-270.7 459.5,-251.7 414.5,-251.7"/>
<polygon fill="none" stroke="#000000" points="414.5,-251.7 414.5,-270.7 459.5,-270.7 459.5,-251.7 414.5,-251.7"/>
<text text-anchor="start" x="424.1105" y="-257.8" font-family="Helvetica,sans-Serif" font-size="11.00" fill="#000000">0 rows</text>
<polygon fill="#ffffff" stroke="transparent" points="459.5,-251.7 459.5,-270.7 479.5,-270.7 479.5,-251.7 459.5,-251.7"/>
<polygon fill="none" stroke="#000000" points="459.5,-251.7 459.5,-270.7 479.5,-270.7 479.5,-251.7 459.5,-251.7"/>
<text text-anchor="start" x="470.3862" y="-257.8" font-family="Helvetica,sans-Serif" font-size="11.00" fill="#000000"> &#160;</text>
</a>
</g>
</g>
<!-- customer -->
<g id="node2" class="node">
<title>customer</title>
<g id="a_node2"><a xlink:href="../../tables/customer.html" xlink:title="customer" target="_top">
<polygon fill="#ffffff" stroke="transparent" points="8,-312.2 8,-461.2 100,-461.2 100,-312.2 8,-312.2"/>
<polygon fill="#f5f5f5" stroke="transparent" points="8,-437.7 8,-460.7 100,-460.7 100,-437.7 8,-437.7"/>
<polygon fill="none" stroke="#000000" points="8,-437.7 8,-460.7 100,-460.7 100,-437.7 8,-437.7"/>
<text text-anchor="start" x="13" y="-446.8" font-family="Helvetica,sans-Serif" font-weight="bold" font-size="11.00" fill="#000000">customer</text>
<text text-anchor="start" x="65.0437" y="-445.8" font-family="Helvetica,sans-Serif" font-size="11.00" fill="#000000">[table]</text>
<polygon fill="none" stroke="#000000" points="8,-415.7 8,-437.7 100,-437.7 100,-415.7 8,-415.7"/>
<image xlink:href="../../images/primaryKeys.png" width="11px" height="12px" preserveAspectRatio="xMinYMin meet" x="13" y="-432.7"/>
<text text-anchor="start" x="28" y="-422.8" font-family="Helvetica,sans-Serif" font-size="11.00" fill="#000000">customer_id</text>
<polygon fill="#ffffff" stroke="transparent" points="8,-393.7 8,-415.7 100,-415.7 100,-393.7 8,-393.7"/>
<polygon fill="none" stroke="#000000" points="8,-393.7 8,-415.7 100,-415.7 100,-393.7 8,-393.7"/>
<text text-anchor="start" x="28" y="-400.8" font-family="Helvetica,sans-Serif" font-size="11.00" fill="#000000">store_id</text>
<polygon fill="#ffffff" stroke="transparent" points="8,-371.7 8,-393.7 100,-393.7 100,-371.7 8,-371.7"/>
<polygon fill="none" stroke="#000000" points="8,-371.7 8,-393.7 100,-393.7 100,-371.7 8,-371.7"/>
<text text-anchor="start" x="28" y="-378.8" font-family="Helvetica,sans-Serif" font-size="11.00" fill="#000000">last_name</text>
<polygon fill="#ffffff" stroke="transparent" points="8,-349.7 8,-371.7 100,-371.7 100,-349.7 8,-349.7"/>
<polygon fill="none" stroke="#000000" points="8,-349.7 8,-371.7 100,-371.7 100,-349.7 8,-349.7"/>
<image xlink:href="../../images/foreignKeys.png" width="11px" height="12px" preserveAspectRatio="xMinYMin meet" x="13" y="-366.7"/>
<text text-anchor="start" x="28" y="-356.8" font-family="Helvetica,sans-Serif" font-size="11.00" fill="#000000">address_id</text>
<polygon fill="none" stroke="#000000" points="8,-330.7 8,-349.7 100,-349.7 100,-330.7 8,-330.7"/>
<text text-anchor="start" x="11" y="-336.8" font-family="Helvetica,sans-Serif" font-size="11.00" fill="#000000">...</text>
<polygon fill="#ffffff" stroke="transparent" points="8,-311.7 8,-330.7 35,-330.7 35,-311.7 8,-311.7"/>
<polygon fill="none" stroke="#000000" points="8,-311.7 8,-330.7 35,-330.7 35,-311.7 8,-311.7"/>
<text text-anchor="start" x="11" y="-317.8" font-family="Helvetica,sans-Serif" font-size="11.00" fill="#000000">&lt; 1</text>
<polygon fill="#ffffff" stroke="transparent" points="35,-311.7 35,-330.7 76,-330.7 76,-311.7 35,-311.7"/>
<polygon fill="none" stroke="#000000" points="35,-311.7 35,-330.7 76,-330.7 76,-311.7 35,-311.7"/>
<text text-anchor="start" x="40.6105" y="-317.8" font-family="Helvetica,sans-Serif" font-size="11.00" fill="#000000">0 rows</text>
<polygon fill="#ffffff" stroke="transparent" points="76,-311.7 76,-330.7 100,-330.7 100,-311.7 76,-311.7"/>
<polygon fill="none" stroke="#000000" points="76,-311.7 76,-330.7 100,-330.7 100,-311.7 76,-311.7"/>
<text text-anchor="start" x="81.4053" y="-317.8" font-family="Helvetica,sans-Serif" font-size="11.00" fill="#000000">2 &gt;</text>
</a>
</g>
</g>
<!-- payment&#45;&gt;customer -->
<g id="edge1" class="edge">
<title>payment:w&#45;&gt;customer:e</title>
<path fill="none" stroke="#000000" d="M363.8633,-345.0656C247.7061,-350.9811 223.9912,-426.7 100,-426.7"/>
<polygon fill="#000000" stroke="#000000" points="370.5025,-344.8998 378.5899,-348.2989 374.5012,-344.7999 378.5,-344.7 378.5,-344.7 378.5,-344.7 374.5012,-344.7999 378.4101,-341.1011 370.5025,-344.8998 370.5025,-344.8998"/>
<ellipse fill="none" stroke="#000000" cx="367.3035" cy="-344.9797" rx="3.2" ry="3.2"/>
</g>
<!-- rental -->
<g id="node3" class="node">
<title>rental</title>
<g id="a_node3"><a xlink:href="../../tables/rental.html" xlink:title="rental" target="_top">
<polygon fill="#ffffff" stroke="transparent" points="149,-136.7 149,-336.7 329,-336.7 329,-136.7 149,-136.7"/>
<polygon fill="#f5f5f5" stroke="transparent" points="151,-311.7 151,-334.7 327,-334.7 327,-311.7 151,-311.7"/>
<polygon fill="none" stroke="#000000" points="151,-311.7 151,-334.7 327,-334.7 327,-311.7 151,-311.7"/>
<text text-anchor="start" x="156" y="-320.8" font-family="Helvetica,sans-Serif" font-weight="bold" font-size="11.00" fill="#000000">rental</text>
<text text-anchor="start" x="292.0437" y="-319.8" font-family="Helvetica,sans-Serif" font-size="11.00" fill="#000000">[table]</text>
<polygon fill="none" stroke="#000000" points="151,-289.7 151,-311.7 243,-311.7 243,-289.7 151,-289.7"/>
<image xlink:href="../../images/primaryKeys.png" width="11px" height="12px" preserveAspectRatio="xMinYMin meet" x="156" y="-306.7"/>
<text text-anchor="start" x="171" y="-296.8" font-family="Helvetica,sans-Serif" font-size="11.00" fill="#000000">rental_id</text>
<polygon fill="none" stroke="#000000" points="243,-289.7 243,-311.7 327,-311.7 327,-289.7 243,-289.7"/>
<text text-anchor="start" x="246" y="-297.4" font-family="Helvetica,sans-Serif" font-size="11.00" fill="#000000">serial[10]</text>
<polygon fill="#ffffff" stroke="transparent" points="151,-267.7 151,-289.7 243,-289.7 243,-267.7 151,-267.7"/>
<polygon fill="none" stroke="#000000" points="151,-267.7 151,-289.7 243,-289.7 243,-267.7 151,-267.7"/>
<text text-anchor="start" x="171" y="-274.8" font-family="Helvetica,sans-Serif" font-size="11.00" fill="#000000">rental_date</text>
<polygon fill="none" stroke="#000000" points="243,-267.7 243,-289.7 327,-289.7 327,-267.7 243,-267.7"/>
<text text-anchor="start" x="245.8807" y="-275.4" font-family="Helvetica,sans-Serif" font-size="11.00" fill="#000000">timestamp[29,6]</text>
<polygon fill="#ffffff" stroke="transparent" points="151,-245.7 151,-267.7 243,-267.7 243,-245.7 151,-245.7"/>
<polygon fill="none" stroke="#000000" points="151,-245.7 151,-267.7 243,-267.7 243,-245.7 151,-245.7"/>
<image xlink:href="../../images/foreignKeys.png" width="11px" height="12px" preserveAspectRatio="xMinYMin meet" x="156" y="-262.7"/>
<text text-anchor="start" x="171" y="-252.8" font-family="Helvetica,sans-Serif" font-size="11.00" fill="#000000">inventory_id</text>
<polygon fill="none" stroke="#000000" points="243,-245.7 243,-267.7 327,-267.7 327,-245.7 243,-245.7"/>
<text text-anchor="start" x="246" y="-253.4" font-family="Helvetica,sans-Serif" font-size="11.00" fill="#000000">int4[10]</text>
<polygon fill="#ffffff" stroke="transparent" points="151,-223.7 151,-245.7 243,-245.7 243,-223.7 151,-223.7"/>
<polygon fill="none" stroke="#000000" points="151,-223.7 151,-245.7 243,-245.7 243,-223.7 151,-223.7"/>
<image xlink:href="../../images/foreignKeys.png" width="11px" height="12px" preserveAspectRatio="xMinYMin meet" x="156" y="-240.7"/>
<text text-anchor="start" x="171" y="-230.8" font-family="Helvetica,sans-Serif" font-size="11.00" fill="#000000">customer_id</text>
<polygon fill="none" stroke="#000000" points="243,-223.7 243,-245.7 327,-245.7 327,-223.7 243,-223.7"/>
<text text-anchor="start" x="246" y="-231.4" font-family="Helvetica,sans-Serif" font-size="11.00" fill="#000000">int2[5]</text>
<polygon fill="none" stroke="#000000" points="151,-201.7 151,-223.7 243,-223.7 243,-201.7 151,-201.7"/>
<text text-anchor="start" x="171" y="-208.8" font-family="Helvetica,sans-Serif" font-size="11.00" fill="#000000">return_date</text>
<polygon fill="none" stroke="#000000" points="243,-201.7 243,-223.7 327,-223.7 327,-201.7 243,-201.7"/>
<text text-anchor="start" x="245.8807" y="-209.4" font-family="Helvetica,sans-Serif" font-size="11.00" fill="#000000">timestamp[29,6]</text>
<polygon fill="none" stroke="#000000" points="151,-179.7 151,-201.7 243,-201.7 243,-179.7 151,-179.7"/>
<image xlink:href="../../images/foreignKeys.png" width="11px" height="12px" preserveAspectRatio="xMinYMin meet" x="156" y="-196.7"/>
<text text-anchor="start" x="171" y="-186.8" font-family="Helvetica,sans-Serif" font-size="11.00" fill="#000000">staff_id</text>
<polygon fill="none" stroke="#000000" points="243,-179.7 243,-201.7 327,-201.7 327,-179.7 243,-179.7"/>
<text text-anchor="start" x="246" y="-187.4" font-family="Helvetica,sans-Serif" font-size="11.00" fill="#000000">int2[5]</text>
<polygon fill="none" stroke="#000000" points="151,-157.7 151,-179.7 243,-179.7 243,-157.7 151,-157.7"/>
<text text-anchor="start" x="171" y="-164.8" font-family="Helvetica,sans-Serif" font-size="11.00" fill="#000000">last_update</text>
<polygon fill="none" stroke="#000000" points="243,-157.7 243,-179.7 327,-179.7 327,-157.7 243,-157.7"/>
<text text-anchor="start" x="245.8807" y="-165.4" font-family="Helvetica,sans-Serif" font-size="11.00" fill="#000000">timestamp[29,6]</text>
<polygon fill="#ffffff" stroke="transparent" points="151,-138.7 151,-157.7 188,-157.7 188,-138.7 151,-138.7"/>
<polygon fill="none" stroke="#000000" points="151,-138.7 151,-157.7 188,-157.7 188,-138.7 151,-138.7"/>
<text text-anchor="start" x="154" y="-144.8" font-family="Helvetica,sans-Serif" font-size="11.00" fill="#000000">&lt; 3</text>
<polygon fill="#ffffff" stroke="transparent" points="188,-138.7 188,-157.7 243,-157.7 243,-138.7 188,-138.7"/>
<polygon fill="none" stroke="#000000" points="188,-138.7 188,-157.7 243,-157.7 243,-138.7 188,-138.7"/>
<text text-anchor="start" x="207.6105" y="-144.8" font-family="Helvetica,sans-Serif" font-size="11.00" fill="#000000">0 rows</text>
<polygon fill="#ffffff" stroke="transparent" points="243,-138.7 243,-157.7 327,-157.7 327,-138.7 243,-138.7"/>
<polygon fill="none" stroke="#000000" points="243,-138.7 243,-157.7 327,-157.7 327,-138.7 243,-138.7"/>
<text text-anchor="start" x="308.4053" y="-144.8" font-family="Helvetica,sans-Serif" font-size="11.00" fill="#000000">1 &gt;</text>
<polygon fill="none" stroke="#000000" stroke-width="2" points="150,-137.7 150,-335.7 328,-335.7 328,-137.7 150,-137.7"/>
</a>
</g>
</g>
<!-- payment&#45;&gt;rental -->
<g id="edge2" class="edge">
<title>payment:w&#45;&gt;rental:e</title>
<path fill="none" stroke="#000000" d="M364.0156,-300.7C351.6771,-300.7 344.1667,-300.7 327,-300.7"/>
<polygon fill="#000000" stroke="#000000" points="370.5,-300.7001 378.5,-304.3 374.5,-300.7 378.5,-300.7 378.5,-300.7 378.5,-300.7 374.5,-300.7 378.5,-297.1 370.5,-300.7001 370.5,-300.7001"/>
<ellipse fill="none" stroke="#000000" cx="367.3" cy="-300.7001" rx="3.2" ry="3.2"/>
</g>
<!-- staff -->
<g id="node4" class="node">
<title>staff</title>
<g id="a_node4"><a xlink:href="../../tables/staff.html" xlink:title="staff" target="_top">
<polygon fill="#ffffff" stroke="transparent" points="10.5,-38.2 10.5,-143.2 97.5,-143.2 97.5,-38.2 10.5,-38.2"/>
<polygon fill="#f5f5f5" stroke="transparent" points="11,-119.7 11,-142.7 98,-142.7 98,-119.7 11,-119.7"/>
<polygon fill="none" stroke="#000000" points="11,-119.7 11,-142.7 98,-142.7 98,-119.7 11,-119.7"/>
<text text-anchor="start" x="16" y="-128.8" font-family="Helvetica,sans-Serif" font-weight="bold" font-size="11.00" fill="#000000">staff</text>
<text text-anchor="start" x="63.0437" y="-127.8" font-family="Helvetica,sans-Serif" font-size="11.00" fill="#000000">[table]</text>
<polygon fill="none" stroke="#000000" points="11,-97.7 11,-119.7 98,-119.7 98,-97.7 11,-97.7"/>
<image xlink:href="../../images/primaryKeys.png" width="11px" height="12px" preserveAspectRatio="xMinYMin meet" x="16" y="-114.7"/>
<text text-anchor="start" x="31" y="-104.8" font-family="Helvetica,sans-Serif" font-size="11.00" fill="#000000">staff_id</text>
<polygon fill="none" stroke="#000000" points="11,-75.7 11,-97.7 98,-97.7 98,-75.7 11,-75.7"/>
<image xlink:href="../../images/foreignKeys.png" width="11px" height="12px" preserveAspectRatio="xMinYMin meet" x="16" y="-92.7"/>
<text text-anchor="start" x="31" y="-82.8" font-family="Helvetica,sans-Serif" font-size="11.00" fill="#000000">address_id</text>
<polygon fill="none" stroke="#000000" points="11,-56.7 11,-75.7 98,-75.7 98,-56.7 11,-56.7"/>
<text text-anchor="start" x="14" y="-62.8" font-family="Helvetica,sans-Serif" font-size="11.00" fill="#000000">...</text>
<polygon fill="#ffffff" stroke="transparent" points="11,-37.7 11,-56.7 35,-56.7 35,-37.7 11,-37.7"/>
<polygon fill="none" stroke="#000000" points="11,-37.7 11,-56.7 35,-56.7 35,-37.7 11,-37.7"/>
<text text-anchor="start" x="14" y="-43.8" font-family="Helvetica,sans-Serif" font-size="11.00" fill="#000000">&lt; 1</text>
<polygon fill="#ffffff" stroke="transparent" points="35,-37.7 35,-56.7 75,-56.7 75,-37.7 35,-37.7"/>
<polygon fill="none" stroke="#000000" points="35,-37.7 35,-56.7 75,-56.7 75,-37.7 35,-37.7"/>
<text text-anchor="start" x="39.6105" y="-43.8" font-family="Helvetica,sans-Serif" font-size="11.00" fill="#000000">0 rows</text>
<polygon fill="#ffffff" stroke="transparent" points="75,-37.7 75,-56.7 98,-56.7 98,-37.7 75,-37.7"/>
<polygon fill="none" stroke="#000000" points="75,-37.7 75,-56.7 98,-56.7 98,-37.7 75,-37.7"/>
<text text-anchor="start" x="79.4053" y="-43.8" font-family="Helvetica,sans-Serif" font-size="11.00" fill="#000000">3 &gt;</text>
</a>
</g>
</g>
<!-- payment&#45;&gt;staff -->
<g id="edge3" class="edge">
<title>payment:w&#45;&gt;staff:e</title>
<path fill="none" stroke="#000000" d="M364.0965,-321.1429C303.0688,-305.8355 399.8325,-181.6593 337,-126.7 256.8211,-56.5679 204.5231,-108.7 98,-108.7"/>
<polygon fill="#000000" stroke="#000000" points="370.5463,-321.8401 378.113,-326.2791 374.5232,-322.2701 378.5,-322.7 378.5,-322.7 378.5,-322.7 374.5232,-322.2701 378.887,-319.1209 370.5463,-321.8401 370.5463,-321.8401"/>
<ellipse fill="none" stroke="#000000" cx="367.3649" cy="-321.4961" rx="3.2" ry="3.2"/>
</g>
<!-- rental&#45;&gt;customer -->
<g id="edge4" class="edge">
<title>rental:w&#45;&gt;customer:e</title>
<path fill="none" stroke="#000000" d="M136.4788,-236.99C78.0077,-258.6524 182.6017,-426.7 100,-426.7"/>
<polygon fill="#000000" stroke="#000000" points="143.0977,-235.9462 151.5608,-238.2561 147.0488,-235.3231 151,-234.7 151,-234.7 151,-234.7 147.0488,-235.3231 150.4392,-231.1439 143.0977,-235.9462 143.0977,-235.9462"/>
<ellipse fill="none" stroke="#000000" cx="139.9367" cy="-236.4447" rx="3.2" ry="3.2"/>
</g>
<!-- rental&#45;&gt;staff -->
<g id="edge6" class="edge">
<title>rental:w&#45;&gt;staff:e</title>
<path fill="none" stroke="#000000" d="M137.1352,-186.5209C115.4021,-169.8109 135.4615,-108.7 98,-108.7"/>
<polygon fill="#000000" stroke="#000000" points="143.3404,-188.3912 149.961,-194.1468 147.1702,-189.5456 151,-190.7 151,-190.7 151,-190.7 147.1702,-189.5456 152.039,-187.2532 143.3404,-188.3912 143.3404,-188.3912"/>
<ellipse fill="none" stroke="#000000" cx="140.2765" cy="-187.4677" rx="3.2" ry="3.2"/>
</g>
<!-- inventory -->
<g id="node5" class="node">
<title>inventory</title>
<g id="a_node5"><a xlink:href="../../tables/inventory.html" xlink:title="inventory" target="_top">
<polygon fill="#ffffff" stroke="transparent" points="8,-164.2 8,-291.2 100,-291.2 100,-164.2 8,-164.2"/>
<polygon fill="#f5f5f5" stroke="transparent" points="8,-267.7 8,-290.7 100,-290.7 100,-267.7 8,-267.7"/>
<polygon fill="none" stroke="#000000" points="8,-267.7 8,-290.7 100,-290.7 100,-267.7 8,-267.7"/>
<text text-anchor="start" x="13" y="-276.8" font-family="Helvetica,sans-Serif" font-weight="bold" font-size="11.00" fill="#000000">inventory</text>
<text text-anchor="start" x="65.0437" y="-275.8" font-family="Helvetica,sans-Serif" font-size="11.00" fill="#000000">[table]</text>
<polygon fill="none" stroke="#000000" points="8,-245.7 8,-267.7 100,-267.7 100,-245.7 8,-245.7"/>
<image xlink:href="../../images/primaryKeys.png" width="11px" height="12px" preserveAspectRatio="xMinYMin meet" x="13" y="-262.7"/>
<text text-anchor="start" x="28" y="-252.8" font-family="Helvetica,sans-Serif" font-size="11.00" fill="#000000">inventory_id</text>
<polygon fill="#ffffff" stroke="transparent" points="8,-223.7 8,-245.7 100,-245.7 100,-223.7 8,-223.7"/>
<polygon fill="none" stroke="#000000" points="8,-223.7 8,-245.7 100,-245.7 100,-223.7 8,-223.7"/>
<image xlink:href="../../images/foreignKeys.png" width="11px" height="12px" preserveAspectRatio="xMinYMin meet" x="13" y="-240.7"/>
<text text-anchor="start" x="28" y="-230.8" font-family="Helvetica,sans-Serif" font-size="11.00" fill="#000000">film_id</text>
<polygon fill="#ffffff" stroke="transparent" points="8,-201.7 8,-223.7 100,-223.7 100,-201.7 8,-201.7"/>
<polygon fill="none" stroke="#000000" points="8,-201.7 8,-223.7 100,-223.7 100,-201.7 8,-201.7"/>
<text text-anchor="start" x="28" y="-208.8" font-family="Helvetica,sans-Serif" font-size="11.00" fill="#000000">store_id</text>
<polygon fill="none" stroke="#000000" points="8,-182.7 8,-201.7 100,-201.7 100,-182.7 8,-182.7"/>
<text text-anchor="start" x="11" y="-188.8" font-family="Helvetica,sans-Serif" font-size="11.00" fill="#000000">...</text>
<polygon fill="#ffffff" stroke="transparent" points="8,-163.7 8,-182.7 35,-182.7 35,-163.7 8,-163.7"/>
<polygon fill="none" stroke="#000000" points="8,-163.7 8,-182.7 35,-182.7 35,-163.7 8,-163.7"/>
<text text-anchor="start" x="11" y="-169.8" font-family="Helvetica,sans-Serif" font-size="11.00" fill="#000000">&lt; 1</text>
<polygon fill="#ffffff" stroke="transparent" points="35,-163.7 35,-182.7 76,-182.7 76,-163.7 35,-163.7"/>
<polygon fill="none" stroke="#000000" points="35,-163.7 35,-182.7 76,-182.7 76,-163.7 35,-163.7"/>
<text text-anchor="start" x="40.6105" y="-169.8" font-family="Helvetica,sans-Serif" font-size="11.00" fill="#000000">0 rows</text>
<polygon fill="#ffffff" stroke="transparent" points="76,-163.7 76,-182.7 100,-182.7 100,-163.7 76,-163.7"/>
<polygon fill="none" stroke="#000000" points="76,-163.7 76,-182.7 100,-182.7 100,-163.7 76,-163.7"/>
<text text-anchor="start" x="81.4053" y="-169.8" font-family="Helvetica,sans-Serif" font-size="11.00" fill="#000000">1 &gt;</text>
</a>
</g>
</g>
<!-- rental&#45;&gt;inventory -->
<g id="edge5" class="edge">
<title>rental:w&#45;&gt;inventory:e</title>
<path fill="none" stroke="#000000" d="M136.276,-256.7C124.2815,-256.7 116.8229,-256.7 100,-256.7"/>
<polygon fill="#000000" stroke="#000000" points="143,-256.7001 151,-260.3 147,-256.7 151,-256.7 151,-256.7 151,-256.7 147,-256.7 151,-253.1 143,-256.7001 143,-256.7001"/>
<ellipse fill="none" stroke="#000000" cx="139.8" cy="-256.7001" rx="3.2" ry="3.2"/>
</g>
</g>
</svg>
