<?xml version="1.0" encoding="UTF-8" standalone="no"?>
<!DOCTYPE svg PUBLIC "-//W3C//DTD SVG 1.1//EN"
 "http://www.w3.org/Graphics/SVG/1.1/DTD/svg11.dtd">
<!-- Generated by graphviz version 2.40.1 (20161225.0304)
 -->
<!-- Title: twoDegreesRelationshipsDiagram Pages: 1 -->
<svg width="803pt" height="576pt"
 viewBox="0.00 0.00 803.00 575.73" xmlns="http://www.w3.org/2000/svg" xmlns:xlink="http://www.w3.org/1999/xlink">
<g id="graph0" class="graph" transform="scale(1 1) rotate(0) translate(4 571.7276)">
<title>twoDegreesRelationshipsDiagram</title>
<polygon fill="#ffffff" stroke="transparent" points="-4,4 -4,-571.7276 799,-571.7276 799,4 -4,4"/>
<text text-anchor="middle" x="72.4936" y="-7.3" font-family="Helvetica,sans-Serif" font-size="11.00" fill="#000000">Generated by SchemaSpy</text>
<!-- address -->
<g id="node1" class="node">
<title>address</title>
<g id="a_node1"><a xlink:href="../../tables/address.html" xlink:title="address" target="_top">
<polygon fill="#ffffff" stroke="transparent" points="137,-197.7276 137,-302.7276 228,-302.7276 228,-197.7276 137,-197.7276"/>
<polygon fill="#f5f5f5" stroke="transparent" points="137.5,-279.2276 137.5,-302.2276 228.5,-302.2276 228.5,-279.2276 137.5,-279.2276"/>
<polygon fill="none" stroke="#000000" points="137.5,-279.2276 137.5,-302.2276 228.5,-302.2276 228.5,-279.2276 137.5,-279.2276"/>
<text text-anchor="start" x="142.5" y="-288.3276" font-family="Helvetica,sans-Serif" font-weight="bold" font-size="11.00" fill="#000000">address</text>
<text text-anchor="start" x="193.5437" y="-287.3276" font-family="Helvetica,sans-Serif" font-size="11.00" fill="#000000">[table]</text>
<polygon fill="none" stroke="#000000" points="137.5,-257.2276 137.5,-279.2276 228.5,-279.2276 228.5,-257.2276 137.5,-257.2276"/>
<image xlink:href="../../images/primaryKeys.png" width="11px" height="12px" preserveAspectRatio="xMinYMin meet" x="142.5" y="-274.228"/>
<text text-anchor="start" x="157.5" y="-264.3276" font-family="Helvetica,sans-Serif" font-size="11.00" fill="#000000">address_id</text>
<polygon fill="#ffffff" stroke="transparent" points="137.5,-235.2276 137.5,-257.2276 228.5,-257.2276 228.5,-235.2276 137.5,-235.2276"/>
<polygon fill="none" stroke="#000000" points="137.5,-235.2276 137.5,-257.2276 228.5,-257.2276 228.5,-235.2276 137.5,-235.2276"/>
<image xlink:href="../../images/foreignKeys.png" width="11px" height="12px" preserveAspectRatio="xMinYMin meet" x="142.5" y="-252.228"/>
<text text-anchor="start" x="157.5" y="-242.3276" font-family="Helvetica,sans-Serif" font-size="11.00" fill="#000000">city_id</text>
<polygon fill="none" stroke="#000000" points="137.5,-216.2276 137.5,-235.2276 228.5,-235.2276 228.5,-216.2276 137.5,-216.2276"/>
<text text-anchor="start" x="140.5" y="-222.3276" font-family="Helvetica,sans-Serif" font-size="11.00" fill="#000000">...</text>
<polygon fill="#ffffff" stroke="transparent" points="137.5,-197.2276 137.5,-216.2276 163.5,-216.2276 163.5,-197.2276 137.5,-197.2276"/>
<polygon fill="none" stroke="#000000" points="137.5,-197.2276 137.5,-216.2276 163.5,-216.2276 163.5,-197.2276 137.5,-197.2276"/>
<text text-anchor="start" x="140.5" y="-203.3276" font-family="Helvetica,sans-Serif" font-size="11.00" fill="#000000">&lt; 1</text>
<polygon fill="#ffffff" stroke="transparent" points="163.5,-197.2276 163.5,-216.2276 204.5,-216.2276 204.5,-197.2276 163.5,-197.2276"/>
<polygon fill="none" stroke="#000000" points="163.5,-197.2276 163.5,-216.2276 204.5,-216.2276 204.5,-197.2276 163.5,-197.2276"/>
<text text-anchor="start" x="169.1105" y="-203.3276" font-family="Helvetica,sans-Serif" font-size="11.00" fill="#000000">0 rows</text>
<polygon fill="#ffffff" stroke="transparent" points="204.5,-197.2276 204.5,-216.2276 228.5,-216.2276 228.5,-197.2276 204.5,-197.2276"/>
<polygon fill="none" stroke="#000000" points="204.5,-197.2276 204.5,-216.2276 228.5,-216.2276 228.5,-197.2276 204.5,-197.2276"/>
<text text-anchor="start" x="209.9053" y="-203.3276" font-family="Helvetica,sans-Serif" font-size="11.00" fill="#000000">3 &gt;</text>
</a>
</g>
</g>
<!-- city -->
<g id="node2" class="node">
<title>city</title>
<g id="a_node2"><a xlink:href="../../tables/city.html" xlink:title="city" target="_top">
<polygon fill="#ffffff" stroke="transparent" points="8,-218.7276 8,-279.7276 88,-279.7276 88,-218.7276 8,-218.7276"/>
<polygon fill="#f5f5f5" stroke="transparent" points="8,-256.2276 8,-279.2276 88,-279.2276 88,-256.2276 8,-256.2276"/>
<polygon fill="none" stroke="#000000" points="8,-256.2276 8,-279.2276 88,-279.2276 88,-256.2276 8,-256.2276"/>
<text text-anchor="start" x="13" y="-265.3276" font-family="Helvetica,sans-Serif" font-weight="bold" font-size="11.00" fill="#000000">city</text>
<text text-anchor="start" x="53.0437" y="-264.3276" font-family="Helvetica,sans-Serif" font-size="11.00" fill="#000000">[table]</text>
<polygon fill="none" stroke="#000000" points="8,-237.2276 8,-256.2276 88,-256.2276 88,-237.2276 8,-237.2276"/>
<text text-anchor="start" x="11" y="-243.3276" font-family="Helvetica,sans-Serif" font-size="11.00" fill="#000000">...</text>
<polygon fill="#ffffff" stroke="transparent" points="8,-218.2276 8,-237.2276 29,-237.2276 29,-218.2276 8,-218.2276"/>
<polygon fill="none" stroke="#000000" points="8,-218.2276 8,-237.2276 29,-237.2276 29,-218.2276 8,-218.2276"/>
<text text-anchor="start" x="10.7027" y="-224.3276" font-family="Helvetica,sans-Serif" font-size="11.00" fill="#000000">&lt; 1</text>
<polygon fill="#ffffff" stroke="transparent" points="29,-218.2276 29,-237.2276 67,-237.2276 67,-218.2276 29,-218.2276"/>
<polygon fill="none" stroke="#000000" points="29,-218.2276 29,-237.2276 67,-237.2276 67,-218.2276 29,-218.2276"/>
<text text-anchor="start" x="31.8053" y="-224.3276" font-family="Helvetica,sans-Serif" font-size="11.00" fill="#000000">0 rows</text>
<polygon fill="#ffffff" stroke="transparent" points="67,-218.2276 67,-237.2276 88,-237.2276 88,-218.2276 67,-218.2276"/>
<polygon fill="none" stroke="#000000" points="67,-218.2276 67,-237.2276 88,-237.2276 88,-218.2276 67,-218.2276"/>
<text text-anchor="start" x="69.7027" y="-224.3276" font-family="Helvetica,sans-Serif" font-size="11.00" fill="#000000">1 &gt;</text>
</a>
</g>
</g>
<!-- address&#45;&gt;city -->
<g id="edge1" class="edge">
<title>address:w&#45;&gt;city:e</title>
<path fill="none" stroke="#000000" d="M122.8428,-246.2276C111.4139,-246.2276 104.1563,-246.2276 88,-246.2276"/>
<polygon fill="#000000" stroke="#000000" points="129.5,-246.2277 137.5,-249.8276 133.5,-246.2276 137.5,-246.2276 137.5,-246.2276 137.5,-246.2276 133.5,-246.2276 137.5,-242.6276 129.5,-246.2277 129.5,-246.2277"/>
<ellipse fill="none" stroke="#000000" cx="126.3" cy="-246.2277" rx="3.2" ry="3.2"/>
</g>
<!-- customer -->
<g id="node3" class="node">
<title>customer</title>
<g id="a_node3"><a xlink:href="../../tables/customer.html" xlink:title="customer" target="_top">
<polygon fill="#ffffff" stroke="transparent" points="328.5,-473.7276 328.5,-534.7276 416.5,-534.7276 416.5,-473.7276 328.5,-473.7276"/>
<polygon fill="#f5f5f5" stroke="transparent" points="328.5,-511.2276 328.5,-534.2276 416.5,-534.2276 416.5,-511.2276 328.5,-511.2276"/>
<polygon fill="none" stroke="#000000" points="328.5,-511.2276 328.5,-534.2276 416.5,-534.2276 416.5,-511.2276 328.5,-511.2276"/>
<text text-anchor="start" x="333.3873" y="-520.3276" font-family="Helvetica,sans-Serif" font-weight="bold" font-size="11.00" fill="#000000">customer</text>
<text text-anchor="start" x="382.0219" y="-519.3276" font-family="Helvetica,sans-Serif" font-size="11.00" fill="#000000">[table]</text>
<polygon fill="none" stroke="#000000" points="328.5,-492.2276 328.5,-511.2276 416.5,-511.2276 416.5,-492.2276 328.5,-492.2276"/>
<text text-anchor="start" x="331.5" y="-498.3276" font-family="Helvetica,sans-Serif" font-size="11.00" fill="#000000">...</text>
<polygon fill="#ffffff" stroke="transparent" points="328.5,-473.2276 328.5,-492.2276 353.5,-492.2276 353.5,-473.2276 328.5,-473.2276"/>
<polygon fill="none" stroke="#000000" points="328.5,-473.2276 328.5,-492.2276 353.5,-492.2276 353.5,-473.2276 328.5,-473.2276"/>
<text text-anchor="start" x="331.5" y="-479.3276" font-family="Helvetica,sans-Serif" font-size="11.00" fill="#000000">&lt; 1</text>
<polygon fill="#ffffff" stroke="transparent" points="353.5,-473.2276 353.5,-492.2276 393.5,-492.2276 393.5,-473.2276 353.5,-473.2276"/>
<polygon fill="none" stroke="#000000" points="353.5,-473.2276 353.5,-492.2276 393.5,-492.2276 393.5,-473.2276 353.5,-473.2276"/>
<text text-anchor="start" x="358.1105" y="-479.3276" font-family="Helvetica,sans-Serif" font-size="11.00" fill="#000000">0 rows</text>
<polygon fill="#ffffff" stroke="transparent" points="393.5,-473.2276 393.5,-492.2276 416.5,-492.2276 416.5,-473.2276 393.5,-473.2276"/>
<polygon fill="none" stroke="#000000" points="393.5,-473.2276 393.5,-492.2276 416.5,-492.2276 416.5,-473.2276 393.5,-473.2276"/>
<text text-anchor="start" x="397.9053" y="-479.3276" font-family="Helvetica,sans-Serif" font-size="11.00" fill="#000000">2 &gt;</text>
</a>
</g>
</g>
<!-- customer&#45;&gt;address -->
<g id="edge2" class="edge">
<title>customer:w&#45;&gt;address:e</title>
<path fill="none" stroke="#000000" d="M314.0429,-500.1417C293.3563,-496.6414 283.7492,-484.6204 269,-463.2276 218.7567,-390.3529 317.0162,-268.2276 228.5,-268.2276"/>
<polygon fill="#000000" stroke="#000000" points="320.5225,-500.6284 328.2303,-504.8175 324.5112,-500.928 328.5,-501.2276 328.5,-501.2276 328.5,-501.2276 324.5112,-500.928 328.7697,-497.6377 320.5225,-500.6284 320.5225,-500.6284"/>
<ellipse fill="none" stroke="#000000" cx="317.3315" cy="-500.3886" rx="3.2" ry="3.2"/>
</g>
<!-- payment -->
<g id="node4" class="node">
<title>payment</title>
<g id="a_node4"><a xlink:href="../../tables/payment.html" xlink:title="payment" target="_top">
<polygon fill="#ffffff" stroke="transparent" points="686,-414.7276 686,-563.7276 787,-563.7276 787,-414.7276 686,-414.7276"/>
<polygon fill="#f5f5f5" stroke="transparent" points="686.5,-540.2276 686.5,-563.2276 787.5,-563.2276 787.5,-540.2276 686.5,-540.2276"/>
<polygon fill="none" stroke="#000000" points="686.5,-540.2276 686.5,-563.2276 787.5,-563.2276 787.5,-540.2276 686.5,-540.2276"/>
<text text-anchor="start" x="691.5" y="-549.3276" font-family="Helvetica,sans-Serif" font-weight="bold" font-size="11.00" fill="#000000">payment</text>
<text text-anchor="start" x="752.5437" y="-548.3276" font-family="Helvetica,sans-Serif" font-size="11.00" fill="#000000">[table]</text>
<polygon fill="none" stroke="#000000" points="686.5,-518.2276 686.5,-540.2276 787.5,-540.2276 787.5,-518.2276 686.5,-518.2276"/>
<image xlink:href="../../images/primaryKeys.png" width="11px" height="12px" preserveAspectRatio="xMinYMin meet" x="691.5" y="-535.228"/>
<text text-anchor="start" x="706.5" y="-525.3276" font-family="Helvetica,sans-Serif" font-size="11.00" fill="#000000">payment_id</text>
<polygon fill="#ffffff" stroke="transparent" points="686.5,-496.2276 686.5,-518.2276 787.5,-518.2276 787.5,-496.2276 686.5,-496.2276"/>
<polygon fill="none" stroke="#000000" points="686.5,-496.2276 686.5,-518.2276 787.5,-518.2276 787.5,-496.2276 686.5,-496.2276"/>
<image xlink:href="../../images/foreignKeys.png" width="11px" height="12px" preserveAspectRatio="xMinYMin meet" x="691.5" y="-513.228"/>
<text text-anchor="start" x="706.5" y="-503.3276" font-family="Helvetica,sans-Serif" font-size="11.00" fill="#000000">customer_id</text>
<polygon fill="#ffffff" stroke="transparent" points="686.5,-474.2276 686.5,-496.2276 787.5,-496.2276 787.5,-474.2276 686.5,-474.2276"/>
<polygon fill="none" stroke="#000000" points="686.5,-474.2276 686.5,-496.2276 787.5,-496.2276 787.5,-474.2276 686.5,-474.2276"/>
<image xlink:href="../../images/foreignKeys.png" width="11px" height="12px" preserveAspectRatio="xMinYMin meet" x="691.5" y="-491.228"/>
<text text-anchor="start" x="706.5" y="-481.3276" font-family="Helvetica,sans-Serif" font-size="11.00" fill="#000000">staff_id</text>
<polygon fill="#ffffff" stroke="transparent" points="686.5,-452.2276 686.5,-474.2276 787.5,-474.2276 787.5,-452.2276 686.5,-452.2276"/>
<polygon fill="none" stroke="#000000" points="686.5,-452.2276 686.5,-474.2276 787.5,-474.2276 787.5,-452.2276 686.5,-452.2276"/>
<image xlink:href="../../images/foreignKeys.png" width="11px" height="12px" preserveAspectRatio="xMinYMin meet" x="691.5" y="-469.228"/>
<text text-anchor="start" x="706.5" y="-459.3276" font-family="Helvetica,sans-Serif" font-size="11.00" fill="#000000">rental_id</text>
<polygon fill="none" stroke="#000000" points="686.5,-433.2276 686.5,-452.2276 787.5,-452.2276 787.5,-433.2276 686.5,-433.2276"/>
<text text-anchor="start" x="689.5" y="-439.3276" font-family="Helvetica,sans-Serif" font-size="11.00" fill="#000000">...</text>
<polygon fill="#ffffff" stroke="transparent" points="686.5,-414.2276 686.5,-433.2276 722.5,-433.2276 722.5,-414.2276 686.5,-414.2276"/>
<polygon fill="none" stroke="#000000" points="686.5,-414.2276 686.5,-433.2276 722.5,-433.2276 722.5,-414.2276 686.5,-414.2276"/>
<text text-anchor="start" x="689.5" y="-420.3276" font-family="Helvetica,sans-Serif" font-size="11.00" fill="#000000">&lt; 3</text>
<polygon fill="#ffffff" stroke="transparent" points="722.5,-414.2276 722.5,-433.2276 767.5,-433.2276 767.5,-414.2276 722.5,-414.2276"/>
<polygon fill="none" stroke="#000000" points="722.5,-414.2276 722.5,-433.2276 767.5,-433.2276 767.5,-414.2276 722.5,-414.2276"/>
<text text-anchor="start" x="732.1105" y="-420.3276" font-family="Helvetica,sans-Serif" font-size="11.00" fill="#000000">0 rows</text>
<polygon fill="#ffffff" stroke="transparent" points="767.5,-414.2276 767.5,-433.2276 787.5,-433.2276 787.5,-414.2276 767.5,-414.2276"/>
<polygon fill="none" stroke="#000000" points="767.5,-414.2276 767.5,-433.2276 787.5,-433.2276 787.5,-414.2276 767.5,-414.2276"/>
<text text-anchor="start" x="778.3862" y="-420.3276" font-family="Helvetica,sans-Serif" font-size="11.00" fill="#000000"> &#160;</text>
</a>
</g>
</g>
<!-- payment&#45;&gt;customer -->
<g id="edge3" class="edge">
<title>payment:w&#45;&gt;customer:e</title>
<path fill="none" stroke="#000000" d="M671.833,-507.4317C663.5395,-507.6782 657.3951,-508.0783 645,-508.2276 584.5599,-508.9557 569.4013,-510.5098 509,-508.2276 467.8007,-506.6709 457.7287,-501.2276 416.5,-501.2276"/>
<polygon fill="#000000" stroke="#000000" points="678.5008,-507.339 686.5501,-510.8273 682.5004,-507.2833 686.5,-507.2276 686.5,-507.2276 686.5,-507.2276 682.5004,-507.2833 686.4499,-503.628 678.5008,-507.339 678.5008,-507.339"/>
<ellipse fill="none" stroke="#000000" cx="675.3011" cy="-507.3835" rx="3.2" ry="3.2"/>
</g>
<!-- rental -->
<g id="node5" class="node">
<title>rental</title>
<g id="a_node5"><a xlink:href="../../tables/rental.html" xlink:title="rental" target="_top">
<polygon fill="#ffffff" stroke="transparent" points="531,-326.7276 531,-497.7276 623,-497.7276 623,-326.7276 531,-326.7276"/>
<polygon fill="#f5f5f5" stroke="transparent" points="531,-474.2276 531,-497.2276 623,-497.2276 623,-474.2276 531,-474.2276"/>
<polygon fill="none" stroke="#000000" points="531,-474.2276 531,-497.2276 623,-497.2276 623,-474.2276 531,-474.2276"/>
<text text-anchor="start" x="536" y="-483.3276" font-family="Helvetica,sans-Serif" font-weight="bold" font-size="11.00" fill="#000000">rental</text>
<text text-anchor="start" x="588.0437" y="-482.3276" font-family="Helvetica,sans-Serif" font-size="11.00" fill="#000000">[table]</text>
<polygon fill="none" stroke="#000000" points="531,-452.2276 531,-474.2276 623,-474.2276 623,-452.2276 531,-452.2276"/>
<image xlink:href="../../images/primaryKeys.png" width="11px" height="12px" preserveAspectRatio="xMinYMin meet" x="536" y="-469.228"/>
<text text-anchor="start" x="551" y="-459.3276" font-family="Helvetica,sans-Serif" font-size="11.00" fill="#000000">rental_id</text>
<polygon fill="#ffffff" stroke="transparent" points="531,-430.2276 531,-452.2276 623,-452.2276 623,-430.2276 531,-430.2276"/>
<polygon fill="none" stroke="#000000" points="531,-430.2276 531,-452.2276 623,-452.2276 623,-430.2276 531,-430.2276"/>
<text text-anchor="start" x="551" y="-437.3276" font-family="Helvetica,sans-Serif" font-size="11.00" fill="#000000">rental_date</text>
<polygon fill="#ffffff" stroke="transparent" points="531,-408.2276 531,-430.2276 623,-430.2276 623,-408.2276 531,-408.2276"/>
<polygon fill="none" stroke="#000000" points="531,-408.2276 531,-430.2276 623,-430.2276 623,-408.2276 531,-408.2276"/>
<image xlink:href="../../images/foreignKeys.png" width="11px" height="12px" preserveAspectRatio="xMinYMin meet" x="536" y="-425.228"/>
<text text-anchor="start" x="551" y="-415.3276" font-family="Helvetica,sans-Serif" font-size="11.00" fill="#000000">inventory_id</text>
<polygon fill="#ffffff" stroke="transparent" points="531,-386.2276 531,-408.2276 623,-408.2276 623,-386.2276 531,-386.2276"/>
<polygon fill="none" stroke="#000000" points="531,-386.2276 531,-408.2276 623,-408.2276 623,-386.2276 531,-386.2276"/>
<image xlink:href="../../images/foreignKeys.png" width="11px" height="12px" preserveAspectRatio="xMinYMin meet" x="536" y="-403.228"/>
<text text-anchor="start" x="551" y="-393.3276" font-family="Helvetica,sans-Serif" font-size="11.00" fill="#000000">customer_id</text>
<polygon fill="none" stroke="#000000" points="531,-364.2276 531,-386.2276 623,-386.2276 623,-364.2276 531,-364.2276"/>
<image xlink:href="../../images/foreignKeys.png" width="11px" height="12px" preserveAspectRatio="xMinYMin meet" x="536" y="-381.228"/>
<text text-anchor="start" x="551" y="-371.3276" font-family="Helvetica,sans-Serif" font-size="11.00" fill="#000000">staff_id</text>
<polygon fill="none" stroke="#000000" points="531,-345.2276 531,-364.2276 623,-364.2276 623,-345.2276 531,-345.2276"/>
<text text-anchor="start" x="534" y="-351.3276" font-family="Helvetica,sans-Serif" font-size="11.00" fill="#000000">...</text>
<polygon fill="#ffffff" stroke="transparent" points="531,-326.2276 531,-345.2276 558,-345.2276 558,-326.2276 531,-326.2276"/>
<polygon fill="none" stroke="#000000" points="531,-326.2276 531,-345.2276 558,-345.2276 558,-326.2276 531,-326.2276"/>
<text text-anchor="start" x="534" y="-332.3276" font-family="Helvetica,sans-Serif" font-size="11.00" fill="#000000">&lt; 3</text>
<polygon fill="#ffffff" stroke="transparent" points="558,-326.2276 558,-345.2276 599,-345.2276 599,-326.2276 558,-326.2276"/>
<polygon fill="none" stroke="#000000" points="558,-326.2276 558,-345.2276 599,-345.2276 599,-326.2276 558,-326.2276"/>
<text text-anchor="start" x="563.6105" y="-332.3276" font-family="Helvetica,sans-Serif" font-size="11.00" fill="#000000">0 rows</text>
<polygon fill="#ffffff" stroke="transparent" points="599,-326.2276 599,-345.2276 623,-345.2276 623,-326.2276 599,-326.2276"/>
<polygon fill="none" stroke="#000000" points="599,-326.2276 599,-345.2276 623,-345.2276 623,-326.2276 599,-326.2276"/>
<text text-anchor="start" x="604.4053" y="-332.3276" font-family="Helvetica,sans-Serif" font-size="11.00" fill="#000000">1 &gt;</text>
</a>
</g>
</g>
<!-- payment&#45;&gt;rental -->
<g id="edge4" class="edge">
<title>payment:w&#45;&gt;rental:e</title>
<path fill="none" stroke="#000000" d="M672.0705,-463.2276C654.7143,-463.2276 645.7101,-463.2276 623,-463.2276"/>
<polygon fill="#000000" stroke="#000000" points="678.5,-463.2277 686.5,-466.8276 682.5,-463.2276 686.5,-463.2276 686.5,-463.2276 686.5,-463.2276 682.5,-463.2276 686.5,-459.6276 678.5,-463.2277 678.5,-463.2277"/>
<ellipse fill="none" stroke="#000000" cx="675.3" cy="-463.2277" rx="3.2" ry="3.2"/>
</g>
<!-- staff -->
<g id="node6" class="node">
<title>staff</title>
<g id="a_node6"><a xlink:href="../../tables/staff.html" xlink:title="staff" target="_top">
<polygon fill="#ffffff" stroke="transparent" points="277,-82.2276 277,-370.2276 468,-370.2276 468,-82.2276 277,-82.2276"/>
<polygon fill="#f5f5f5" stroke="transparent" points="279.5,-345.2276 279.5,-368.2276 466.5,-368.2276 466.5,-345.2276 279.5,-345.2276"/>
<polygon fill="none" stroke="#000000" points="279.5,-345.2276 279.5,-368.2276 466.5,-368.2276 466.5,-345.2276 279.5,-345.2276"/>
<text text-anchor="start" x="284.5" y="-354.3276" font-family="Helvetica,sans-Serif" font-weight="bold" font-size="11.00" fill="#000000">staff</text>
<text text-anchor="start" x="431.5437" y="-353.3276" font-family="Helvetica,sans-Serif" font-size="11.00" fill="#000000">[table]</text>
<polygon fill="none" stroke="#000000" points="279.5,-323.2276 279.5,-345.2276 366.5,-345.2276 366.5,-323.2276 279.5,-323.2276"/>
<image xlink:href="../../images/primaryKeys.png" width="11px" height="12px" preserveAspectRatio="xMinYMin meet" x="284.5" y="-340.228"/>
<text text-anchor="start" x="299.5" y="-330.3276" font-family="Helvetica,sans-Serif" font-size="11.00" fill="#000000">staff_id</text>
<polygon fill="none" stroke="#000000" points="366.5,-323.2276 366.5,-345.2276 466.5,-345.2276 466.5,-323.2276 366.5,-323.2276"/>
<text text-anchor="start" x="369.5" y="-330.9276" font-family="Helvetica,sans-Serif" font-size="11.00" fill="#000000">serial[10]</text>
<polygon fill="none" stroke="#000000" points="279.5,-301.2276 279.5,-323.2276 366.5,-323.2276 366.5,-301.2276 279.5,-301.2276"/>
<text text-anchor="start" x="299.5" y="-308.3276" font-family="Helvetica,sans-Serif" font-size="11.00" fill="#000000">first_name</text>
<polygon fill="none" stroke="#000000" points="366.5,-301.2276 366.5,-323.2276 466.5,-323.2276 466.5,-301.2276 366.5,-301.2276"/>
<text text-anchor="start" x="369.5" y="-308.9276" font-family="Helvetica,sans-Serif" font-size="11.00" fill="#000000">varchar[45]</text>
<polygon fill="none" stroke="#000000" points="279.5,-279.2276 279.5,-301.2276 366.5,-301.2276 366.5,-279.2276 279.5,-279.2276"/>
<text text-anchor="start" x="299.5" y="-286.3276" font-family="Helvetica,sans-Serif" font-size="11.00" fill="#000000">last_name</text>
<polygon fill="none" stroke="#000000" points="366.5,-279.2276 366.5,-301.2276 466.5,-301.2276 466.5,-279.2276 366.5,-279.2276"/>
<text text-anchor="start" x="369.5" y="-286.9276" font-family="Helvetica,sans-Serif" font-size="11.00" fill="#000000">varchar[45]</text>
<polygon fill="none" stroke="#000000" points="279.5,-257.2276 279.5,-279.2276 366.5,-279.2276 366.5,-257.2276 279.5,-257.2276"/>
<image xlink:href="../../images/foreignKeys.png" width="11px" height="12px" preserveAspectRatio="xMinYMin meet" x="284.5" y="-274.228"/>
<text text-anchor="start" x="299.5" y="-264.3276" font-family="Helvetica,sans-Serif" font-size="11.00" fill="#000000">address_id</text>
<polygon fill="none" stroke="#000000" points="366.5,-257.2276 366.5,-279.2276 466.5,-279.2276 466.5,-257.2276 366.5,-257.2276"/>
<text text-anchor="start" x="369.5" y="-264.9276" font-family="Helvetica,sans-Serif" font-size="11.00" fill="#000000">int2[5]</text>
<polygon fill="none" stroke="#000000" points="279.5,-235.2276 279.5,-257.2276 366.5,-257.2276 366.5,-235.2276 279.5,-235.2276"/>
<text text-anchor="start" x="299.5" y="-242.3276" font-family="Helvetica,sans-Serif" font-size="11.00" fill="#000000">email</text>
<polygon fill="none" stroke="#000000" points="366.5,-235.2276 366.5,-257.2276 466.5,-257.2276 466.5,-235.2276 366.5,-235.2276"/>
<text text-anchor="start" x="369.5" y="-242.9276" font-family="Helvetica,sans-Serif" font-size="11.00" fill="#000000">varchar[50]</text>
<polygon fill="none" stroke="#000000" points="279.5,-213.2276 279.5,-235.2276 366.5,-235.2276 366.5,-213.2276 279.5,-213.2276"/>
<text text-anchor="start" x="299.5" y="-220.3276" font-family="Helvetica,sans-Serif" font-size="11.00" fill="#000000">store_id</text>
<polygon fill="none" stroke="#000000" points="366.5,-213.2276 366.5,-235.2276 466.5,-235.2276 466.5,-213.2276 366.5,-213.2276"/>
<text text-anchor="start" x="369.5" y="-220.9276" font-family="Helvetica,sans-Serif" font-size="11.00" fill="#000000">int2[5]</text>
<polygon fill="none" stroke="#000000" points="279.5,-191.2276 279.5,-213.2276 366.5,-213.2276 366.5,-191.2276 279.5,-191.2276"/>
<text text-anchor="start" x="299.5" y="-198.3276" font-family="Helvetica,sans-Serif" font-size="11.00" fill="#000000">active</text>
<polygon fill="none" stroke="#000000" points="366.5,-191.2276 366.5,-213.2276 466.5,-213.2276 466.5,-191.2276 366.5,-191.2276"/>
<text text-anchor="start" x="369.5" y="-198.9276" font-family="Helvetica,sans-Serif" font-size="11.00" fill="#000000">bool[1]</text>
<polygon fill="none" stroke="#000000" points="279.5,-169.2276 279.5,-191.2276 366.5,-191.2276 366.5,-169.2276 279.5,-169.2276"/>
<text text-anchor="start" x="299.5" y="-176.3276" font-family="Helvetica,sans-Serif" font-size="11.00" fill="#000000">username</text>
<polygon fill="none" stroke="#000000" points="366.5,-169.2276 366.5,-191.2276 466.5,-191.2276 466.5,-169.2276 366.5,-169.2276"/>
<text text-anchor="start" x="369.5" y="-176.9276" font-family="Helvetica,sans-Serif" font-size="11.00" fill="#000000">varchar[16]</text>
<polygon fill="none" stroke="#000000" points="279.5,-147.2276 279.5,-169.2276 366.5,-169.2276 366.5,-147.2276 279.5,-147.2276"/>
<text text-anchor="start" x="299.5" y="-154.3276" font-family="Helvetica,sans-Serif" font-size="11.00" fill="#000000">password</text>
<polygon fill="none" stroke="#000000" points="366.5,-147.2276 366.5,-169.2276 466.5,-169.2276 466.5,-147.2276 366.5,-147.2276"/>
<text text-anchor="start" x="369.5" y="-154.9276" font-family="Helvetica,sans-Serif" font-size="11.00" fill="#000000">varchar[40]</text>
<polygon fill="none" stroke="#000000" points="279.5,-125.2276 279.5,-147.2276 366.5,-147.2276 366.5,-125.2276 279.5,-125.2276"/>
<text text-anchor="start" x="299.5" y="-132.3276" font-family="Helvetica,sans-Serif" font-size="11.00" fill="#000000">last_update</text>
<polygon fill="none" stroke="#000000" points="366.5,-125.2276 366.5,-147.2276 466.5,-147.2276 466.5,-125.2276 366.5,-125.2276"/>
<text text-anchor="start" x="369.5" y="-132.9276" font-family="Helvetica,sans-Serif" font-size="11.00" fill="#000000">timestamp[29,6]</text>
<polygon fill="none" stroke="#000000" points="279.5,-103.2276 279.5,-125.2276 366.5,-125.2276 366.5,-103.2276 279.5,-103.2276"/>
<text text-anchor="start" x="299.5" y="-110.3276" font-family="Helvetica,sans-Serif" font-size="11.00" fill="#000000">picture</text>
<polygon fill="none" stroke="#000000" points="366.5,-103.2276 366.5,-125.2276 466.5,-125.2276 466.5,-103.2276 366.5,-103.2276"/>
<text text-anchor="start" x="369.4178" y="-110.9276" font-family="Helvetica,sans-Serif" font-size="11.00" fill="#000000">bytea[2147483647]</text>
<polygon fill="#ffffff" stroke="transparent" points="279.5,-84.2276 279.5,-103.2276 314.5,-103.2276 314.5,-84.2276 279.5,-84.2276"/>
<polygon fill="none" stroke="#000000" points="279.5,-84.2276 279.5,-103.2276 314.5,-103.2276 314.5,-84.2276 279.5,-84.2276"/>
<text text-anchor="start" x="282.5" y="-90.3276" font-family="Helvetica,sans-Serif" font-size="11.00" fill="#000000">&lt; 1</text>
<polygon fill="#ffffff" stroke="transparent" points="314.5,-84.2276 314.5,-103.2276 366.5,-103.2276 366.5,-84.2276 314.5,-84.2276"/>
<polygon fill="none" stroke="#000000" points="314.5,-84.2276 314.5,-103.2276 366.5,-103.2276 366.5,-84.2276 314.5,-84.2276"/>
<text text-anchor="start" x="331.1105" y="-90.3276" font-family="Helvetica,sans-Serif" font-size="11.00" fill="#000000">0 rows</text>
<polygon fill="#ffffff" stroke="transparent" points="366.5,-84.2276 366.5,-103.2276 466.5,-103.2276 466.5,-84.2276 366.5,-84.2276"/>
<polygon fill="none" stroke="#000000" points="366.5,-84.2276 366.5,-103.2276 466.5,-103.2276 466.5,-84.2276 366.5,-84.2276"/>
<text text-anchor="start" x="447.9053" y="-90.3276" font-family="Helvetica,sans-Serif" font-size="11.00" fill="#000000">3 &gt;</text>
<polygon fill="none" stroke="#000000" stroke-width="2" points="278,-83.2276 278,-369.2276 467,-369.2276 467,-83.2276 278,-83.2276"/>
</a>
</g>
</g>
<!-- payment&#45;&gt;staff -->
<g id="edge5" class="edge">
<title>payment:w&#45;&gt;staff:e</title>
<path fill="none" stroke="#000000" d="M672.0198,-483.3032C622.6441,-467.631 701.3451,-360.4104 645,-316.2276 597.4352,-278.9298 568.2358,-304.2007 509,-316.2276 488.897,-320.3092 487.0132,-334.2276 466.5,-334.2276"/>
<polygon fill="#000000" stroke="#000000" points="678.5697,-484.1736 686.0257,-488.7962 682.5349,-484.7006 686.5,-485.2276 686.5,-485.2276 686.5,-485.2276 682.5349,-484.7006 686.9743,-481.659 678.5697,-484.1736 678.5697,-484.1736"/>
<ellipse fill="none" stroke="#000000" cx="675.3976" cy="-483.752" rx="3.2" ry="3.2"/>
</g>
<!-- rental&#45;&gt;customer -->
<g id="edge6" class="edge">
<title>rental:w&#45;&gt;customer:e</title>
<path fill="none" stroke="#000000" d="M516.7115,-399.8665C495.4827,-409.2862 500.2861,-441.832 476,-463.2276 452.456,-483.9695 447.8774,-501.2276 416.5,-501.2276"/>
<polygon fill="#000000" stroke="#000000" points="523.133,-398.6806 531.6538,-400.7677 527.0665,-397.9541 531,-397.2276 531,-397.2276 531,-397.2276 527.0665,-397.9541 530.3462,-393.6875 523.133,-398.6806 523.133,-398.6806"/>
<ellipse fill="none" stroke="#000000" cx="519.9863" cy="-399.2618" rx="3.2" ry="3.2"/>
</g>
<!-- rental&#45;&gt;staff -->
<g id="edge8" class="edge">
<title>rental:w&#45;&gt;staff:e</title>
<path fill="none" stroke="#000000" d="M516.6947,-372.1459C497.131,-362.6109 494.7625,-334.2276 466.5,-334.2276"/>
<polygon fill="#000000" stroke="#000000" points="523.1794,-373.5428 530.2419,-378.7469 527.0897,-374.3852 531,-375.2276 531,-375.2276 531,-375.2276 527.0897,-374.3852 531.7581,-371.7083 523.1794,-373.5428 523.1794,-373.5428"/>
<ellipse fill="none" stroke="#000000" cx="520.0512" cy="-372.8689" rx="3.2" ry="3.2"/>
</g>
<!-- inventory -->
<g id="node7" class="node">
<title>inventory</title>
<g id="a_node7"><a xlink:href="../../tables/inventory.html" xlink:title="inventory" target="_top">
<polygon fill="#ffffff" stroke="transparent" points="329,-391.7276 329,-452.7276 416,-452.7276 416,-391.7276 329,-391.7276"/>
<polygon fill="#f5f5f5" stroke="transparent" points="329.5,-429.2276 329.5,-452.2276 416.5,-452.2276 416.5,-429.2276 329.5,-429.2276"/>
<polygon fill="none" stroke="#000000" points="329.5,-429.2276 329.5,-452.2276 416.5,-452.2276 416.5,-429.2276 329.5,-429.2276"/>
<text text-anchor="start" x="334.1904" y="-438.3276" font-family="Helvetica,sans-Serif" font-weight="bold" font-size="11.00" fill="#000000">inventory</text>
<text text-anchor="start" x="382.0219" y="-437.3276" font-family="Helvetica,sans-Serif" font-size="11.00" fill="#000000">[table]</text>
<polygon fill="none" stroke="#000000" points="329.5,-410.2276 329.5,-429.2276 416.5,-429.2276 416.5,-410.2276 329.5,-410.2276"/>
<text text-anchor="start" x="332.5" y="-416.3276" font-family="Helvetica,sans-Serif" font-size="11.00" fill="#000000">...</text>
<polygon fill="#ffffff" stroke="transparent" points="329.5,-391.2276 329.5,-410.2276 353.5,-410.2276 353.5,-391.2276 329.5,-391.2276"/>
<polygon fill="none" stroke="#000000" points="329.5,-391.2276 329.5,-410.2276 353.5,-410.2276 353.5,-391.2276 329.5,-391.2276"/>
<text text-anchor="start" x="332.5" y="-397.3276" font-family="Helvetica,sans-Serif" font-size="11.00" fill="#000000">&lt; 1</text>
<polygon fill="#ffffff" stroke="transparent" points="353.5,-391.2276 353.5,-410.2276 393.5,-410.2276 393.5,-391.2276 353.5,-391.2276"/>
<polygon fill="none" stroke="#000000" points="353.5,-391.2276 353.5,-410.2276 393.5,-410.2276 393.5,-391.2276 353.5,-391.2276"/>
<text text-anchor="start" x="358.1105" y="-397.3276" font-family="Helvetica,sans-Serif" font-size="11.00" fill="#000000">0 rows</text>
<polygon fill="#ffffff" stroke="transparent" points="393.5,-391.2276 393.5,-410.2276 416.5,-410.2276 416.5,-391.2276 393.5,-391.2276"/>
<polygon fill="none" stroke="#000000" points="393.5,-391.2276 393.5,-410.2276 416.5,-410.2276 416.5,-391.2276 393.5,-391.2276"/>
<text text-anchor="start" x="397.9053" y="-397.3276" font-family="Helvetica,sans-Serif" font-size="11.00" fill="#000000">1 &gt;</text>
</a>
</g>
</g>
<!-- rental&#45;&gt;inventory -->
<g id="edge7" class="edge">
<title>rental:w&#45;&gt;inventory:e</title>
<path fill="none" stroke="#000000" d="M516.5959,-419.2276C477.1332,-419.2276 462.2205,-419.2276 416.5,-419.2276"/>
<polygon fill="#000000" stroke="#000000" points="523,-419.2277 531,-422.8276 527,-419.2276 531,-419.2276 531,-419.2276 531,-419.2276 527,-419.2276 531,-415.6276 523,-419.2277 523,-419.2277"/>
<ellipse fill="none" stroke="#000000" cx="519.8" cy="-419.2277" rx="3.2" ry="3.2"/>
</g>
<!-- staff&#45;&gt;address -->
<g id="edge9" class="edge">
<title>staff:w&#45;&gt;address:e</title>
<path fill="none" stroke="#000000" d="M264.776,-268.2276C252.7815,-268.2276 245.3229,-268.2276 228.5,-268.2276"/>
<polygon fill="#000000" stroke="#000000" points="271.5,-268.2277 279.5,-271.8276 275.5,-268.2276 279.5,-268.2276 279.5,-268.2276 279.5,-268.2276 275.5,-268.2276 279.5,-264.6276 271.5,-268.2277 271.5,-268.2277"/>
<ellipse fill="none" stroke="#000000" cx="268.3" cy="-268.2277" rx="3.2" ry="3.2"/>
</g>
<!-- store -->
<g id="node8" class="node">
<title>store</title>
<g id="a_node8"><a xlink:href="../../tables/store.html" xlink:title="store" target="_top">
<polygon fill="#ffffff" stroke="transparent" points="517,-80.7276 517,-207.7276 637,-207.7276 637,-80.7276 517,-80.7276"/>
<polygon fill="#f5f5f5" stroke="transparent" points="517,-184.2276 517,-207.2276 637,-207.2276 637,-184.2276 517,-184.2276"/>
<polygon fill="none" stroke="#000000" points="517,-184.2276 517,-207.2276 637,-207.2276 637,-184.2276 517,-184.2276"/>
<text text-anchor="start" x="522" y="-193.3276" font-family="Helvetica,sans-Serif" font-weight="bold" font-size="11.00" fill="#000000">store</text>
<text text-anchor="start" x="602.0437" y="-192.3276" font-family="Helvetica,sans-Serif" font-size="11.00" fill="#000000">[table]</text>
<polygon fill="none" stroke="#000000" points="517,-162.2276 517,-184.2276 637,-184.2276 637,-162.2276 517,-162.2276"/>
<image xlink:href="../../images/primaryKeys.png" width="11px" height="12px" preserveAspectRatio="xMinYMin meet" x="522" y="-179.228"/>
<text text-anchor="start" x="537" y="-169.3276" font-family="Helvetica,sans-Serif" font-size="11.00" fill="#000000">store_id</text>
<polygon fill="#ffffff" stroke="transparent" points="517,-140.2276 517,-162.2276 637,-162.2276 637,-140.2276 517,-140.2276"/>
<polygon fill="none" stroke="#000000" points="517,-140.2276 517,-162.2276 637,-162.2276 637,-140.2276 517,-140.2276"/>
<image xlink:href="../../images/foreignKeys.png" width="11px" height="12px" preserveAspectRatio="xMinYMin meet" x="522" y="-157.228"/>
<text text-anchor="start" x="537" y="-147.3276" font-family="Helvetica,sans-Serif" font-size="11.00" fill="#000000">manager_staff_id</text>
<polygon fill="none" stroke="#000000" points="517,-118.2276 517,-140.2276 637,-140.2276 637,-118.2276 517,-118.2276"/>
<image xlink:href="../../images/foreignKeys.png" width="11px" height="12px" preserveAspectRatio="xMinYMin meet" x="522" y="-135.228"/>
<text text-anchor="start" x="537" y="-125.3276" font-family="Helvetica,sans-Serif" font-size="11.00" fill="#000000">address_id</text>
<polygon fill="none" stroke="#000000" points="517,-99.2276 517,-118.2276 637,-118.2276 637,-99.2276 517,-99.2276"/>
<text text-anchor="start" x="520" y="-105.3276" font-family="Helvetica,sans-Serif" font-size="11.00" fill="#000000">...</text>
<polygon fill="#ffffff" stroke="transparent" points="517,-80.2276 517,-99.2276 562,-99.2276 562,-80.2276 517,-80.2276"/>
<polygon fill="none" stroke="#000000" points="517,-80.2276 517,-99.2276 562,-99.2276 562,-80.2276 517,-80.2276"/>
<text text-anchor="start" x="520" y="-86.3276" font-family="Helvetica,sans-Serif" font-size="11.00" fill="#000000">&lt; 2</text>
<polygon fill="#ffffff" stroke="transparent" points="562,-80.2276 562,-99.2276 612,-99.2276 612,-80.2276 562,-80.2276"/>
<polygon fill="none" stroke="#000000" points="562,-80.2276 562,-99.2276 612,-99.2276 612,-80.2276 562,-80.2276"/>
<text text-anchor="start" x="576.6105" y="-86.3276" font-family="Helvetica,sans-Serif" font-size="11.00" fill="#000000">0 rows</text>
<polygon fill="#ffffff" stroke="transparent" points="612,-80.2276 612,-99.2276 637,-99.2276 637,-80.2276 612,-80.2276"/>
<polygon fill="none" stroke="#000000" points="612,-80.2276 612,-99.2276 637,-99.2276 637,-80.2276 612,-80.2276"/>
<text text-anchor="start" x="627.8862" y="-86.3276" font-family="Helvetica,sans-Serif" font-size="11.00" fill="#000000"> &#160;</text>
</a>
</g>
</g>
<!-- store&#45;&gt;address -->
<g id="edge10" class="edge">
<title>store:w&#45;&gt;address:e</title>
<path fill="none" stroke="#000000" d="M503.276,-124.5315C491.2095,-113.031 498.1301,-83.5699 476,-72.2276 394.127,-30.2656 340.3329,-14.1275 269,-72.2276 200.0309,-128.4024 317.4514,-268.2276 228.5,-268.2276"/>
<polygon fill="#000000" stroke="#000000" points="509.4309,-126.6376 515.8345,-132.6337 513.2154,-127.9326 517,-129.2276 517,-129.2276 517,-129.2276 513.2154,-127.9326 518.1655,-125.8215 509.4309,-126.6376 509.4309,-126.6376"/>
<ellipse fill="none" stroke="#000000" cx="506.4032" cy="-125.6016" rx="3.2" ry="3.2"/>
</g>
<!-- store&#45;&gt;staff -->
<g id="edge11" class="edge">
<title>store:w&#45;&gt;staff:e</title>
<path fill="none" stroke="#000000" d="M506.4289,-152.3962C443.2671,-167.9818 546.9184,-334.2276 466.5,-334.2276"/>
<polygon fill="#000000" stroke="#000000" points="515.7653,-147.3397 516.6444,-155.2913 515.0541,-155.4671 514.175,-147.5156 515.7653,-147.3397"/>
<polyline fill="none" stroke="#000000" points="517,-151.2276 513.0242,-151.6672 "/>
<ellipse fill="none" stroke="#000000" cx="509.8436" cy="-152.0188" rx="3.2" ry="3.2"/>
</g>
</g>
</svg>
