<?xml version="1.0" encoding="UTF-8" standalone="no"?>
<!DOCTYPE svg PUBLIC "-//W3C//DTD SVG 1.1//EN"
 "http://www.w3.org/Graphics/SVG/1.1/DTD/svg11.dtd">
<!-- Generated by graphviz version 2.40.1 (20161225.0304)
 -->
<!-- Title: oneDegreeRelationshipsDiagram Pages: 1 -->
<svg width="674pt" height="517pt"
 viewBox="0.00 0.00 674.00 517.20" xmlns="http://www.w3.org/2000/svg" xmlns:xlink="http://www.w3.org/1999/xlink">
<g id="graph0" class="graph" transform="scale(1 1) rotate(0) translate(4 513.2)">
<title>oneDegreeRelationshipsDiagram</title>
<polygon fill="#ffffff" stroke="transparent" points="-4,4 -4,-513.2 670,-513.2 670,4 -4,4"/>
<text text-anchor="middle" x="72.4936" y="-7.3" font-family="Helvetica,sans-Serif" font-size="11.00" fill="#000000">Generated by SchemaSpy</text>
<!-- payment -->
<g id="node1" class="node">
<title>payment</title>
<g id="a_node1"><a xlink:href="../../tables/payment.html" xlink:title="payment" target="_top">
<polygon fill="#ffffff" stroke="transparent" points="557,-356.2 557,-505.2 658,-505.2 658,-356.2 557,-356.2"/>
<polygon fill="#f5f5f5" stroke="transparent" points="557.5,-481.7 557.5,-504.7 658.5,-504.7 658.5,-481.7 557.5,-481.7"/>
<polygon fill="none" stroke="#000000" points="557.5,-481.7 557.5,-504.7 658.5,-504.7 658.5,-481.7 557.5,-481.7"/>
<text text-anchor="start" x="562.5" y="-490.8" font-family="Helvetica,sans-Serif" font-weight="bold" font-size="11.00" fill="#000000">payment</text>
<text text-anchor="start" x="623.5437" y="-489.8" font-family="Helvetica,sans-Serif" font-size="11.00" fill="#000000">[table]</text>
<polygon fill="none" stroke="#000000" points="557.5,-459.7 557.5,-481.7 658.5,-481.7 658.5,-459.7 557.5,-459.7"/>
<image xlink:href="../../images/primaryKeys.png" width="11px" height="12px" preserveAspectRatio="xMinYMin meet" x="562.5" y="-476.7"/>
<text text-anchor="start" x="577.5" y="-466.8" font-family="Helvetica,sans-Serif" font-size="11.00" fill="#000000">payment_id</text>
<polygon fill="#ffffff" stroke="transparent" points="557.5,-437.7 557.5,-459.7 658.5,-459.7 658.5,-437.7 557.5,-437.7"/>
<polygon fill="none" stroke="#000000" points="557.5,-437.7 557.5,-459.7 658.5,-459.7 658.5,-437.7 557.5,-437.7"/>
<image xlink:href="../../images/foreignKeys.png" width="11px" height="12px" preserveAspectRatio="xMinYMin meet" x="562.5" y="-454.7"/>
<text text-anchor="start" x="577.5" y="-444.8" font-family="Helvetica,sans-Serif" font-size="11.00" fill="#000000">customer_id</text>
<polygon fill="#ffffff" stroke="transparent" points="557.5,-415.7 557.5,-437.7 658.5,-437.7 658.5,-415.7 557.5,-415.7"/>
<polygon fill="none" stroke="#000000" points="557.5,-415.7 557.5,-437.7 658.5,-437.7 658.5,-415.7 557.5,-415.7"/>
<image xlink:href="../../images/foreignKeys.png" width="11px" height="12px" preserveAspectRatio="xMinYMin meet" x="562.5" y="-432.7"/>
<text text-anchor="start" x="577.5" y="-422.8" font-family="Helvetica,sans-Serif" font-size="11.00" fill="#000000">staff_id</text>
<polygon fill="#ffffff" stroke="transparent" points="557.5,-393.7 557.5,-415.7 658.5,-415.7 658.5,-393.7 557.5,-393.7"/>
<polygon fill="none" stroke="#000000" points="557.5,-393.7 557.5,-415.7 658.5,-415.7 658.5,-393.7 557.5,-393.7"/>
<image xlink:href="../../images/foreignKeys.png" width="11px" height="12px" preserveAspectRatio="xMinYMin meet" x="562.5" y="-410.7"/>
<text text-anchor="start" x="577.5" y="-400.8" font-family="Helvetica,sans-Serif" font-size="11.00" fill="#000000">rental_id</text>
<polygon fill="none" stroke="#000000" points="557.5,-374.7 557.5,-393.7 658.5,-393.7 658.5,-374.7 557.5,-374.7"/>
<text text-anchor="start" x="560.5" y="-380.8" font-family="Helvetica,sans-Serif" font-size="11.00" fill="#000000">...</text>
<polygon fill="#ffffff" stroke="transparent" points="557.5,-355.7 557.5,-374.7 593.5,-374.7 593.5,-355.7 557.5,-355.7"/>
<polygon fill="none" stroke="#000000" points="557.5,-355.7 557.5,-374.7 593.5,-374.7 593.5,-355.7 557.5,-355.7"/>
<text text-anchor="start" x="560.5" y="-361.8" font-family="Helvetica,sans-Serif" font-size="11.00" fill="#000000">&lt; 3</text>
<polygon fill="#ffffff" stroke="transparent" points="593.5,-355.7 593.5,-374.7 638.5,-374.7 638.5,-355.7 593.5,-355.7"/>
<polygon fill="none" stroke="#000000" points="593.5,-355.7 593.5,-374.7 638.5,-374.7 638.5,-355.7 593.5,-355.7"/>
<text text-anchor="start" x="603.1105" y="-361.8" font-family="Helvetica,sans-Serif" font-size="11.00" fill="#000000">0 rows</text>
<polygon fill="#ffffff" stroke="transparent" points="638.5,-355.7 638.5,-374.7 658.5,-374.7 658.5,-355.7 638.5,-355.7"/>
<polygon fill="none" stroke="#000000" points="638.5,-355.7 638.5,-374.7 658.5,-374.7 658.5,-355.7 638.5,-355.7"/>
<text text-anchor="start" x="649.3862" y="-361.8" font-family="Helvetica,sans-Serif" font-size="11.00" fill="#000000"> &#160;</text>
</a>
</g>
</g>
<!-- rental -->
<g id="node2" class="node">
<title>rental</title>
<g id="a_node2"><a xlink:href="../../tables/rental.html" xlink:title="rental" target="_top">
<polygon fill="#ffffff" stroke="transparent" points="402,-250.2 402,-421.2 494,-421.2 494,-250.2 402,-250.2"/>
<polygon fill="#f5f5f5" stroke="transparent" points="402,-397.7 402,-420.7 494,-420.7 494,-397.7 402,-397.7"/>
<polygon fill="none" stroke="#000000" points="402,-397.7 402,-420.7 494,-420.7 494,-397.7 402,-397.7"/>
<text text-anchor="start" x="407" y="-406.8" font-family="Helvetica,sans-Serif" font-weight="bold" font-size="11.00" fill="#000000">rental</text>
<text text-anchor="start" x="459.0437" y="-405.8" font-family="Helvetica,sans-Serif" font-size="11.00" fill="#000000">[table]</text>
<polygon fill="none" stroke="#000000" points="402,-375.7 402,-397.7 494,-397.7 494,-375.7 402,-375.7"/>
<image xlink:href="../../images/primaryKeys.png" width="11px" height="12px" preserveAspectRatio="xMinYMin meet" x="407" y="-392.7"/>
<text text-anchor="start" x="422" y="-382.8" font-family="Helvetica,sans-Serif" font-size="11.00" fill="#000000">rental_id</text>
<polygon fill="#ffffff" stroke="transparent" points="402,-353.7 402,-375.7 494,-375.7 494,-353.7 402,-353.7"/>
<polygon fill="none" stroke="#000000" points="402,-353.7 402,-375.7 494,-375.7 494,-353.7 402,-353.7"/>
<text text-anchor="start" x="422" y="-360.8" font-family="Helvetica,sans-Serif" font-size="11.00" fill="#000000">rental_date</text>
<polygon fill="#ffffff" stroke="transparent" points="402,-331.7 402,-353.7 494,-353.7 494,-331.7 402,-331.7"/>
<polygon fill="none" stroke="#000000" points="402,-331.7 402,-353.7 494,-353.7 494,-331.7 402,-331.7"/>
<image xlink:href="../../images/foreignKeys.png" width="11px" height="12px" preserveAspectRatio="xMinYMin meet" x="407" y="-348.7"/>
<text text-anchor="start" x="422" y="-338.8" font-family="Helvetica,sans-Serif" font-size="11.00" fill="#000000">inventory_id</text>
<polygon fill="#ffffff" stroke="transparent" points="402,-309.7 402,-331.7 494,-331.7 494,-309.7 402,-309.7"/>
<polygon fill="none" stroke="#000000" points="402,-309.7 402,-331.7 494,-331.7 494,-309.7 402,-309.7"/>
<image xlink:href="../../images/foreignKeys.png" width="11px" height="12px" preserveAspectRatio="xMinYMin meet" x="407" y="-326.7"/>
<text text-anchor="start" x="422" y="-316.8" font-family="Helvetica,sans-Serif" font-size="11.00" fill="#000000">customer_id</text>
<polygon fill="none" stroke="#000000" points="402,-287.7 402,-309.7 494,-309.7 494,-287.7 402,-287.7"/>
<image xlink:href="../../images/foreignKeys.png" width="11px" height="12px" preserveAspectRatio="xMinYMin meet" x="407" y="-304.7"/>
<text text-anchor="start" x="422" y="-294.8" font-family="Helvetica,sans-Serif" font-size="11.00" fill="#000000">staff_id</text>
<polygon fill="none" stroke="#000000" points="402,-268.7 402,-287.7 494,-287.7 494,-268.7 402,-268.7"/>
<text text-anchor="start" x="405" y="-274.8" font-family="Helvetica,sans-Serif" font-size="11.00" fill="#000000">...</text>
<polygon fill="#ffffff" stroke="transparent" points="402,-249.7 402,-268.7 429,-268.7 429,-249.7 402,-249.7"/>
<polygon fill="none" stroke="#000000" points="402,-249.7 402,-268.7 429,-268.7 429,-249.7 402,-249.7"/>
<text text-anchor="start" x="405" y="-255.8" font-family="Helvetica,sans-Serif" font-size="11.00" fill="#000000">&lt; 3</text>
<polygon fill="#ffffff" stroke="transparent" points="429,-249.7 429,-268.7 470,-268.7 470,-249.7 429,-249.7"/>
<polygon fill="none" stroke="#000000" points="429,-249.7 429,-268.7 470,-268.7 470,-249.7 429,-249.7"/>
<text text-anchor="start" x="434.6105" y="-255.8" font-family="Helvetica,sans-Serif" font-size="11.00" fill="#000000">0 rows</text>
<polygon fill="#ffffff" stroke="transparent" points="470,-249.7 470,-268.7 494,-268.7 494,-249.7 470,-249.7"/>
<polygon fill="none" stroke="#000000" points="470,-249.7 470,-268.7 494,-268.7 494,-249.7 470,-249.7"/>
<text text-anchor="start" x="475.4053" y="-255.8" font-family="Helvetica,sans-Serif" font-size="11.00" fill="#000000">1 &gt;</text>
</a>
</g>
</g>
<!-- payment&#45;&gt;rental -->
<g id="edge1" class="edge">
<title>payment:w&#45;&gt;rental:e</title>
<path fill="none" stroke="#000000" d="M543.0052,-402.9741C525.4185,-398.4688 517.7194,-386.7 494,-386.7"/>
<polygon fill="#000000" stroke="#000000" points="549.5561,-403.7541 557.0743,-408.2747 553.5281,-404.227 557.5,-404.7 557.5,-404.7 557.5,-404.7 553.5281,-404.227 557.9257,-401.1253 549.5561,-403.7541 549.5561,-403.7541"/>
<ellipse fill="none" stroke="#000000" cx="546.3786" cy="-403.3757" rx="3.2" ry="3.2"/>
</g>
<!-- staff -->
<g id="node3" class="node">
<title>staff</title>
<g id="a_node3"><a xlink:href="../../tables/staff.html" xlink:title="staff" target="_top">
<polygon fill="#ffffff" stroke="transparent" points="148,-78.7 148,-366.7 339,-366.7 339,-78.7 148,-78.7"/>
<polygon fill="#f5f5f5" stroke="transparent" points="150.5,-341.7 150.5,-364.7 337.5,-364.7 337.5,-341.7 150.5,-341.7"/>
<polygon fill="none" stroke="#000000" points="150.5,-341.7 150.5,-364.7 337.5,-364.7 337.5,-341.7 150.5,-341.7"/>
<text text-anchor="start" x="155.5" y="-350.8" font-family="Helvetica,sans-Serif" font-weight="bold" font-size="11.00" fill="#000000">staff</text>
<text text-anchor="start" x="302.5437" y="-349.8" font-family="Helvetica,sans-Serif" font-size="11.00" fill="#000000">[table]</text>
<polygon fill="none" stroke="#000000" points="150.5,-319.7 150.5,-341.7 237.5,-341.7 237.5,-319.7 150.5,-319.7"/>
<image xlink:href="../../images/primaryKeys.png" width="11px" height="12px" preserveAspectRatio="xMinYMin meet" x="155.5" y="-336.7"/>
<text text-anchor="start" x="170.5" y="-326.8" font-family="Helvetica,sans-Serif" font-size="11.00" fill="#000000">staff_id</text>
<polygon fill="none" stroke="#000000" points="237.5,-319.7 237.5,-341.7 337.5,-341.7 337.5,-319.7 237.5,-319.7"/>
<text text-anchor="start" x="240.5" y="-327.4" font-family="Helvetica,sans-Serif" font-size="11.00" fill="#000000">serial[10]</text>
<polygon fill="none" stroke="#000000" points="150.5,-297.7 150.5,-319.7 237.5,-319.7 237.5,-297.7 150.5,-297.7"/>
<text text-anchor="start" x="170.5" y="-304.8" font-family="Helvetica,sans-Serif" font-size="11.00" fill="#000000">first_name</text>
<polygon fill="none" stroke="#000000" points="237.5,-297.7 237.5,-319.7 337.5,-319.7 337.5,-297.7 237.5,-297.7"/>
<text text-anchor="start" x="240.5" y="-305.4" font-family="Helvetica,sans-Serif" font-size="11.00" fill="#000000">varchar[45]</text>
<polygon fill="none" stroke="#000000" points="150.5,-275.7 150.5,-297.7 237.5,-297.7 237.5,-275.7 150.5,-275.7"/>
<text text-anchor="start" x="170.5" y="-282.8" font-family="Helvetica,sans-Serif" font-size="11.00" fill="#000000">last_name</text>
<polygon fill="none" stroke="#000000" points="237.5,-275.7 237.5,-297.7 337.5,-297.7 337.5,-275.7 237.5,-275.7"/>
<text text-anchor="start" x="240.5" y="-283.4" font-family="Helvetica,sans-Serif" font-size="11.00" fill="#000000">varchar[45]</text>
<polygon fill="none" stroke="#000000" points="150.5,-253.7 150.5,-275.7 237.5,-275.7 237.5,-253.7 150.5,-253.7"/>
<image xlink:href="../../images/foreignKeys.png" width="11px" height="12px" preserveAspectRatio="xMinYMin meet" x="155.5" y="-270.7"/>
<text text-anchor="start" x="170.5" y="-260.8" font-family="Helvetica,sans-Serif" font-size="11.00" fill="#000000">address_id</text>
<polygon fill="none" stroke="#000000" points="237.5,-253.7 237.5,-275.7 337.5,-275.7 337.5,-253.7 237.5,-253.7"/>
<text text-anchor="start" x="240.5" y="-261.4" font-family="Helvetica,sans-Serif" font-size="11.00" fill="#000000">int2[5]</text>
<polygon fill="none" stroke="#000000" points="150.5,-231.7 150.5,-253.7 237.5,-253.7 237.5,-231.7 150.5,-231.7"/>
<text text-anchor="start" x="170.5" y="-238.8" font-family="Helvetica,sans-Serif" font-size="11.00" fill="#000000">email</text>
<polygon fill="none" stroke="#000000" points="237.5,-231.7 237.5,-253.7 337.5,-253.7 337.5,-231.7 237.5,-231.7"/>
<text text-anchor="start" x="240.5" y="-239.4" font-family="Helvetica,sans-Serif" font-size="11.00" fill="#000000">varchar[50]</text>
<polygon fill="none" stroke="#000000" points="150.5,-209.7 150.5,-231.7 237.5,-231.7 237.5,-209.7 150.5,-209.7"/>
<text text-anchor="start" x="170.5" y="-216.8" font-family="Helvetica,sans-Serif" font-size="11.00" fill="#000000">store_id</text>
<polygon fill="none" stroke="#000000" points="237.5,-209.7 237.5,-231.7 337.5,-231.7 337.5,-209.7 237.5,-209.7"/>
<text text-anchor="start" x="240.5" y="-217.4" font-family="Helvetica,sans-Serif" font-size="11.00" fill="#000000">int2[5]</text>
<polygon fill="none" stroke="#000000" points="150.5,-187.7 150.5,-209.7 237.5,-209.7 237.5,-187.7 150.5,-187.7"/>
<text text-anchor="start" x="170.5" y="-194.8" font-family="Helvetica,sans-Serif" font-size="11.00" fill="#000000">active</text>
<polygon fill="none" stroke="#000000" points="237.5,-187.7 237.5,-209.7 337.5,-209.7 337.5,-187.7 237.5,-187.7"/>
<text text-anchor="start" x="240.5" y="-195.4" font-family="Helvetica,sans-Serif" font-size="11.00" fill="#000000">bool[1]</text>
<polygon fill="none" stroke="#000000" points="150.5,-165.7 150.5,-187.7 237.5,-187.7 237.5,-165.7 150.5,-165.7"/>
<text text-anchor="start" x="170.5" y="-172.8" font-family="Helvetica,sans-Serif" font-size="11.00" fill="#000000">username</text>
<polygon fill="none" stroke="#000000" points="237.5,-165.7 237.5,-187.7 337.5,-187.7 337.5,-165.7 237.5,-165.7"/>
<text text-anchor="start" x="240.5" y="-173.4" font-family="Helvetica,sans-Serif" font-size="11.00" fill="#000000">varchar[16]</text>
<polygon fill="none" stroke="#000000" points="150.5,-143.7 150.5,-165.7 237.5,-165.7 237.5,-143.7 150.5,-143.7"/>
<text text-anchor="start" x="170.5" y="-150.8" font-family="Helvetica,sans-Serif" font-size="11.00" fill="#000000">password</text>
<polygon fill="none" stroke="#000000" points="237.5,-143.7 237.5,-165.7 337.5,-165.7 337.5,-143.7 237.5,-143.7"/>
<text text-anchor="start" x="240.5" y="-151.4" font-family="Helvetica,sans-Serif" font-size="11.00" fill="#000000">varchar[40]</text>
<polygon fill="none" stroke="#000000" points="150.5,-121.7 150.5,-143.7 237.5,-143.7 237.5,-121.7 150.5,-121.7"/>
<text text-anchor="start" x="170.5" y="-128.8" font-family="Helvetica,sans-Serif" font-size="11.00" fill="#000000">last_update</text>
<polygon fill="none" stroke="#000000" points="237.5,-121.7 237.5,-143.7 337.5,-143.7 337.5,-121.7 237.5,-121.7"/>
<text text-anchor="start" x="240.5" y="-129.4" font-family="Helvetica,sans-Serif" font-size="11.00" fill="#000000">timestamp[29,6]</text>
<polygon fill="none" stroke="#000000" points="150.5,-99.7 150.5,-121.7 237.5,-121.7 237.5,-99.7 150.5,-99.7"/>
<text text-anchor="start" x="170.5" y="-106.8" font-family="Helvetica,sans-Serif" font-size="11.00" fill="#000000">picture</text>
<polygon fill="none" stroke="#000000" points="237.5,-99.7 237.5,-121.7 337.5,-121.7 337.5,-99.7 237.5,-99.7"/>
<text text-anchor="start" x="240.4178" y="-107.4" font-family="Helvetica,sans-Serif" font-size="11.00" fill="#000000">bytea[2147483647]</text>
<polygon fill="#ffffff" stroke="transparent" points="150.5,-80.7 150.5,-99.7 185.5,-99.7 185.5,-80.7 150.5,-80.7"/>
<polygon fill="none" stroke="#000000" points="150.5,-80.7 150.5,-99.7 185.5,-99.7 185.5,-80.7 150.5,-80.7"/>
<text text-anchor="start" x="153.5" y="-86.8" font-family="Helvetica,sans-Serif" font-size="11.00" fill="#000000">&lt; 1</text>
<polygon fill="#ffffff" stroke="transparent" points="185.5,-80.7 185.5,-99.7 237.5,-99.7 237.5,-80.7 185.5,-80.7"/>
<polygon fill="none" stroke="#000000" points="185.5,-80.7 185.5,-99.7 237.5,-99.7 237.5,-80.7 185.5,-80.7"/>
<text text-anchor="start" x="202.1105" y="-86.8" font-family="Helvetica,sans-Serif" font-size="11.00" fill="#000000">0 rows</text>
<polygon fill="#ffffff" stroke="transparent" points="237.5,-80.7 237.5,-99.7 337.5,-99.7 337.5,-80.7 237.5,-80.7"/>
<polygon fill="none" stroke="#000000" points="237.5,-80.7 237.5,-99.7 337.5,-99.7 337.5,-80.7 237.5,-80.7"/>
<text text-anchor="start" x="318.9053" y="-86.8" font-family="Helvetica,sans-Serif" font-size="11.00" fill="#000000">3 &gt;</text>
<polygon fill="none" stroke="#000000" stroke-width="2" points="149,-79.7 149,-365.7 338,-365.7 338,-79.7 149,-79.7"/>
</a>
</g>
</g>
<!-- payment&#45;&gt;staff -->
<g id="edge2" class="edge">
<title>payment:w&#45;&gt;staff:e</title>
<path fill="none" stroke="#000000" d="M543.0864,-427.6775C534.6642,-428.9054 528.6044,-430.9434 516,-431.7 455.6641,-435.3216 430.3516,-465.1402 380,-431.7 339.4308,-404.7566 386.2012,-330.7 337.5,-330.7"/>
<polygon fill="#000000" stroke="#000000" points="549.5183,-427.2413 557.7436,-430.2917 553.5092,-426.9707 557.5,-426.7 557.5,-426.7 557.5,-426.7 553.5092,-426.9707 557.2564,-423.1083 549.5183,-427.2413 549.5183,-427.2413"/>
<ellipse fill="none" stroke="#000000" cx="546.3257" cy="-427.4579" rx="3.2" ry="3.2"/>
</g>
<!-- rental&#45;&gt;staff -->
<g id="edge3" class="edge">
<title>rental:w&#45;&gt;staff:e</title>
<path fill="none" stroke="#000000" d="M387.7026,-301.3187C368.8506,-308.9612 363.8756,-330.7 337.5,-330.7"/>
<polygon fill="#000000" stroke="#000000" points="394.1309,-300.1413 402.6486,-302.2411 398.0655,-299.4207 402,-298.7 402,-298.7 402,-298.7 398.0655,-299.4207 401.3514,-295.1589 394.1309,-300.1413 394.1309,-300.1413"/>
<ellipse fill="none" stroke="#000000" cx="390.9833" cy="-300.7179" rx="3.2" ry="3.2"/>
</g>
<!-- address -->
<g id="node4" class="node">
<title>address</title>
<g id="a_node4"><a xlink:href="../../tables/address.html" xlink:title="address" target="_top">
<polygon fill="#ffffff" stroke="transparent" points="8,-89.2 8,-194.2 99,-194.2 99,-89.2 8,-89.2"/>
<polygon fill="#f5f5f5" stroke="transparent" points="8.5,-170.7 8.5,-193.7 99.5,-193.7 99.5,-170.7 8.5,-170.7"/>
<polygon fill="none" stroke="#000000" points="8.5,-170.7 8.5,-193.7 99.5,-193.7 99.5,-170.7 8.5,-170.7"/>
<text text-anchor="start" x="13.5" y="-179.8" font-family="Helvetica,sans-Serif" font-weight="bold" font-size="11.00" fill="#000000">address</text>
<text text-anchor="start" x="64.5437" y="-178.8" font-family="Helvetica,sans-Serif" font-size="11.00" fill="#000000">[table]</text>
<polygon fill="none" stroke="#000000" points="8.5,-148.7 8.5,-170.7 99.5,-170.7 99.5,-148.7 8.5,-148.7"/>
<image xlink:href="../../images/primaryKeys.png" width="11px" height="12px" preserveAspectRatio="xMinYMin meet" x="13.5" y="-165.7"/>
<text text-anchor="start" x="28.5" y="-155.8" font-family="Helvetica,sans-Serif" font-size="11.00" fill="#000000">address_id</text>
<polygon fill="#ffffff" stroke="transparent" points="8.5,-126.7 8.5,-148.7 99.5,-148.7 99.5,-126.7 8.5,-126.7"/>
<polygon fill="none" stroke="#000000" points="8.5,-126.7 8.5,-148.7 99.5,-148.7 99.5,-126.7 8.5,-126.7"/>
<image xlink:href="../../images/foreignKeys.png" width="11px" height="12px" preserveAspectRatio="xMinYMin meet" x="13.5" y="-143.7"/>
<text text-anchor="start" x="28.5" y="-133.8" font-family="Helvetica,sans-Serif" font-size="11.00" fill="#000000">city_id</text>
<polygon fill="none" stroke="#000000" points="8.5,-107.7 8.5,-126.7 99.5,-126.7 99.5,-107.7 8.5,-107.7"/>
<text text-anchor="start" x="11.5" y="-113.8" font-family="Helvetica,sans-Serif" font-size="11.00" fill="#000000">...</text>
<polygon fill="#ffffff" stroke="transparent" points="8.5,-88.7 8.5,-107.7 34.5,-107.7 34.5,-88.7 8.5,-88.7"/>
<polygon fill="none" stroke="#000000" points="8.5,-88.7 8.5,-107.7 34.5,-107.7 34.5,-88.7 8.5,-88.7"/>
<text text-anchor="start" x="11.5" y="-94.8" font-family="Helvetica,sans-Serif" font-size="11.00" fill="#000000">&lt; 1</text>
<polygon fill="#ffffff" stroke="transparent" points="34.5,-88.7 34.5,-107.7 75.5,-107.7 75.5,-88.7 34.5,-88.7"/>
<polygon fill="none" stroke="#000000" points="34.5,-88.7 34.5,-107.7 75.5,-107.7 75.5,-88.7 34.5,-88.7"/>
<text text-anchor="start" x="40.1105" y="-94.8" font-family="Helvetica,sans-Serif" font-size="11.00" fill="#000000">0 rows</text>
<polygon fill="#ffffff" stroke="transparent" points="75.5,-88.7 75.5,-107.7 99.5,-107.7 99.5,-88.7 75.5,-88.7"/>
<polygon fill="none" stroke="#000000" points="75.5,-88.7 75.5,-107.7 99.5,-107.7 99.5,-88.7 75.5,-88.7"/>
<text text-anchor="start" x="80.9053" y="-94.8" font-family="Helvetica,sans-Serif" font-size="11.00" fill="#000000">3 &gt;</text>
</a>
</g>
</g>
<!-- staff&#45;&gt;address -->
<g id="edge4" class="edge">
<title>staff:w&#45;&gt;address:e</title>
<path fill="none" stroke="#000000" d="M136.5931,-260.963C109.2305,-242.2584 145.5031,-159.7 99.5,-159.7"/>
<polygon fill="#000000" stroke="#000000" points="142.7741,-262.6239 149.5657,-268.1767 146.637,-263.6619 150.5,-264.7 150.5,-264.7 150.5,-264.7 146.637,-263.6619 151.4343,-261.2233 142.7741,-262.6239 142.7741,-262.6239"/>
<ellipse fill="none" stroke="#000000" cx="139.6837" cy="-261.7934" rx="3.2" ry="3.2"/>
</g>
<!-- store -->
<g id="node5" class="node">
<title>store</title>
<g id="a_node5"><a xlink:href="../../tables/store.html" xlink:title="store" target="_top">
<polygon fill="#ffffff" stroke="transparent" points="388,-38.2 388,-165.2 508,-165.2 508,-38.2 388,-38.2"/>
<polygon fill="#f5f5f5" stroke="transparent" points="388,-141.7 388,-164.7 508,-164.7 508,-141.7 388,-141.7"/>
<polygon fill="none" stroke="#000000" points="388,-141.7 388,-164.7 508,-164.7 508,-141.7 388,-141.7"/>
<text text-anchor="start" x="393" y="-150.8" font-family="Helvetica,sans-Serif" font-weight="bold" font-size="11.00" fill="#000000">store</text>
<text text-anchor="start" x="473.0437" y="-149.8" font-family="Helvetica,sans-Serif" font-size="11.00" fill="#000000">[table]</text>
<polygon fill="none" stroke="#000000" points="388,-119.7 388,-141.7 508,-141.7 508,-119.7 388,-119.7"/>
<image xlink:href="../../images/primaryKeys.png" width="11px" height="12px" preserveAspectRatio="xMinYMin meet" x="393" y="-136.7"/>
<text text-anchor="start" x="408" y="-126.8" font-family="Helvetica,sans-Serif" font-size="11.00" fill="#000000">store_id</text>
<polygon fill="#ffffff" stroke="transparent" points="388,-97.7 388,-119.7 508,-119.7 508,-97.7 388,-97.7"/>
<polygon fill="none" stroke="#000000" points="388,-97.7 388,-119.7 508,-119.7 508,-97.7 388,-97.7"/>
<image xlink:href="../../images/foreignKeys.png" width="11px" height="12px" preserveAspectRatio="xMinYMin meet" x="393" y="-114.7"/>
<text text-anchor="start" x="408" y="-104.8" font-family="Helvetica,sans-Serif" font-size="11.00" fill="#000000">manager_staff_id</text>
<polygon fill="none" stroke="#000000" points="388,-75.7 388,-97.7 508,-97.7 508,-75.7 388,-75.7"/>
<image xlink:href="../../images/foreignKeys.png" width="11px" height="12px" preserveAspectRatio="xMinYMin meet" x="393" y="-92.7"/>
<text text-anchor="start" x="408" y="-82.8" font-family="Helvetica,sans-Serif" font-size="11.00" fill="#000000">address_id</text>
<polygon fill="none" stroke="#000000" points="388,-56.7 388,-75.7 508,-75.7 508,-56.7 388,-56.7"/>
<text text-anchor="start" x="391" y="-62.8" font-family="Helvetica,sans-Serif" font-size="11.00" fill="#000000">...</text>
<polygon fill="#ffffff" stroke="transparent" points="388,-37.7 388,-56.7 433,-56.7 433,-37.7 388,-37.7"/>
<polygon fill="none" stroke="#000000" points="388,-37.7 388,-56.7 433,-56.7 433,-37.7 388,-37.7"/>
<text text-anchor="start" x="391" y="-43.8" font-family="Helvetica,sans-Serif" font-size="11.00" fill="#000000">&lt; 2</text>
<polygon fill="#ffffff" stroke="transparent" points="433,-37.7 433,-56.7 483,-56.7 483,-37.7 433,-37.7"/>
<polygon fill="none" stroke="#000000" points="433,-37.7 433,-56.7 483,-56.7 483,-37.7 433,-37.7"/>
<text text-anchor="start" x="447.6105" y="-43.8" font-family="Helvetica,sans-Serif" font-size="11.00" fill="#000000">0 rows</text>
<polygon fill="#ffffff" stroke="transparent" points="483,-37.7 483,-56.7 508,-56.7 508,-37.7 483,-37.7"/>
<polygon fill="none" stroke="#000000" points="483,-37.7 483,-56.7 508,-56.7 508,-37.7 483,-37.7"/>
<text text-anchor="start" x="498.8862" y="-43.8" font-family="Helvetica,sans-Serif" font-size="11.00" fill="#000000"> &#160;</text>
</a>
</g>
</g>
<!-- store&#45;&gt;staff -->
<g id="edge6" class="edge">
<title>store:w&#45;&gt;staff:e</title>
<path fill="none" stroke="#000000" d="M377.2704,-109.6898C298.2918,-125.705 434.7346,-330.7 337.5,-330.7"/>
<polygon fill="#000000" stroke="#000000" points="386.8359,-104.7904 387.5708,-112.7566 385.9776,-112.9036 385.2427,-104.9374 386.8359,-104.7904"/>
<polyline fill="none" stroke="#000000" points="388,-108.7 384.0169,-109.0675 "/>
<ellipse fill="none" stroke="#000000" cx="380.8304" cy="-109.3614" rx="3.2" ry="3.2"/>
</g>
<!-- store&#45;&gt;address -->
<g id="edge5" class="edge">
<title>store:w&#45;&gt;address:e</title>
<path fill="none" stroke="#000000" d="M373.8779,-83.4967C365.4529,-79.134 360.5424,-71.5418 347,-68.7 256.9611,-49.8057 217.1541,-18.5876 140,-68.7 102.8746,-92.8134 143.7691,-159.7 99.5,-159.7"/>
<polygon fill="#000000" stroke="#000000" points="380.1982,-84.9303 387.2036,-90.2108 384.0991,-85.8151 388,-86.7 388,-86.7 388,-86.7 384.0991,-85.8151 388.7964,-83.1892 380.1982,-84.9303 380.1982,-84.9303"/>
<ellipse fill="none" stroke="#000000" cx="377.0775" cy="-84.2224" rx="3.2" ry="3.2"/>
</g>
</g>
</svg>
