<?xml version="1.0" encoding="UTF-8" standalone="no"?>
<!DOCTYPE svg PUBLIC "-//W3C//DTD SVG 1.1//EN"
 "http://www.w3.org/Graphics/SVG/1.1/DTD/svg11.dtd">
<!-- Generated by graphviz version 2.40.1 (20161225.0304)
 -->
<!-- Title: twoDegreesRelationshipsDiagram Pages: 1 -->
<svg width="772pt" height="323pt"
 viewBox="0.00 0.00 772.00 322.70" xmlns="http://www.w3.org/2000/svg" xmlns:xlink="http://www.w3.org/1999/xlink">
<g id="graph0" class="graph" transform="scale(1 1) rotate(0) translate(4 318.7)">
<title>twoDegreesRelationshipsDiagram</title>
<polygon fill="#ffffff" stroke="transparent" points="-4,4 -4,-318.7 768,-318.7 768,4 -4,4"/>
<text text-anchor="middle" x="72.4936" y="-7.3" font-family="Helvetica,sans-Serif" font-size="11.00" fill="#000000">Generated by SchemaSpy</text>
<!-- address -->
<g id="node1" class="node">
<title>address</title>
<g id="a_node1"><a xlink:href="../../tables/address.html" xlink:title="address" target="_top">
<polygon fill="#ffffff" stroke="transparent" points="137,-101.7 137,-206.7 228,-206.7 228,-101.7 137,-101.7"/>
<polygon fill="#f5f5f5" stroke="transparent" points="137.5,-183.2 137.5,-206.2 228.5,-206.2 228.5,-183.2 137.5,-183.2"/>
<polygon fill="none" stroke="#000000" points="137.5,-183.2 137.5,-206.2 228.5,-206.2 228.5,-183.2 137.5,-183.2"/>
<text text-anchor="start" x="142.5" y="-192.3" font-family="Helvetica,sans-Serif" font-weight="bold" font-size="11.00" fill="#000000">address</text>
<text text-anchor="start" x="193.5437" y="-191.3" font-family="Helvetica,sans-Serif" font-size="11.00" fill="#000000">[table]</text>
<polygon fill="none" stroke="#000000" points="137.5,-161.2 137.5,-183.2 228.5,-183.2 228.5,-161.2 137.5,-161.2"/>
<image xlink:href="../../images/primaryKeys.png" width="11px" height="12px" preserveAspectRatio="xMinYMin meet" x="142.5" y="-178.2"/>
<text text-anchor="start" x="157.5" y="-168.3" font-family="Helvetica,sans-Serif" font-size="11.00" fill="#000000">address_id</text>
<polygon fill="#ffffff" stroke="transparent" points="137.5,-139.2 137.5,-161.2 228.5,-161.2 228.5,-139.2 137.5,-139.2"/>
<polygon fill="none" stroke="#000000" points="137.5,-139.2 137.5,-161.2 228.5,-161.2 228.5,-139.2 137.5,-139.2"/>
<image xlink:href="../../images/foreignKeys.png" width="11px" height="12px" preserveAspectRatio="xMinYMin meet" x="142.5" y="-156.2"/>
<text text-anchor="start" x="157.5" y="-146.3" font-family="Helvetica,sans-Serif" font-size="11.00" fill="#000000">city_id</text>
<polygon fill="none" stroke="#000000" points="137.5,-120.2 137.5,-139.2 228.5,-139.2 228.5,-120.2 137.5,-120.2"/>
<text text-anchor="start" x="140.5" y="-126.3" font-family="Helvetica,sans-Serif" font-size="11.00" fill="#000000">...</text>
<polygon fill="#ffffff" stroke="transparent" points="137.5,-101.2 137.5,-120.2 163.5,-120.2 163.5,-101.2 137.5,-101.2"/>
<polygon fill="none" stroke="#000000" points="137.5,-101.2 137.5,-120.2 163.5,-120.2 163.5,-101.2 137.5,-101.2"/>
<text text-anchor="start" x="140.5" y="-107.3" font-family="Helvetica,sans-Serif" font-size="11.00" fill="#000000">&lt; 1</text>
<polygon fill="#ffffff" stroke="transparent" points="163.5,-101.2 163.5,-120.2 204.5,-120.2 204.5,-101.2 163.5,-101.2"/>
<polygon fill="none" stroke="#000000" points="163.5,-101.2 163.5,-120.2 204.5,-120.2 204.5,-101.2 163.5,-101.2"/>
<text text-anchor="start" x="169.1105" y="-107.3" font-family="Helvetica,sans-Serif" font-size="11.00" fill="#000000">0 rows</text>
<polygon fill="#ffffff" stroke="transparent" points="204.5,-101.2 204.5,-120.2 228.5,-120.2 228.5,-101.2 204.5,-101.2"/>
<polygon fill="none" stroke="#000000" points="204.5,-101.2 204.5,-120.2 228.5,-120.2 228.5,-101.2 204.5,-101.2"/>
<text text-anchor="start" x="209.9053" y="-107.3" font-family="Helvetica,sans-Serif" font-size="11.00" fill="#000000">3 &gt;</text>
</a>
</g>
</g>
<!-- city -->
<g id="node2" class="node">
<title>city</title>
<g id="a_node2"><a xlink:href="../../tables/city.html" xlink:title="city" target="_top">
<polygon fill="#ffffff" stroke="transparent" points="8,-122.7 8,-183.7 88,-183.7 88,-122.7 8,-122.7"/>
<polygon fill="#f5f5f5" stroke="transparent" points="8,-160.2 8,-183.2 88,-183.2 88,-160.2 8,-160.2"/>
<polygon fill="none" stroke="#000000" points="8,-160.2 8,-183.2 88,-183.2 88,-160.2 8,-160.2"/>
<text text-anchor="start" x="13" y="-169.3" font-family="Helvetica,sans-Serif" font-weight="bold" font-size="11.00" fill="#000000">city</text>
<text text-anchor="start" x="53.0437" y="-168.3" font-family="Helvetica,sans-Serif" font-size="11.00" fill="#000000">[table]</text>
<polygon fill="none" stroke="#000000" points="8,-141.2 8,-160.2 88,-160.2 88,-141.2 8,-141.2"/>
<text text-anchor="start" x="11" y="-147.3" font-family="Helvetica,sans-Serif" font-size="11.00" fill="#000000">...</text>
<polygon fill="#ffffff" stroke="transparent" points="8,-122.2 8,-141.2 29,-141.2 29,-122.2 8,-122.2"/>
<polygon fill="none" stroke="#000000" points="8,-122.2 8,-141.2 29,-141.2 29,-122.2 8,-122.2"/>
<text text-anchor="start" x="10.7027" y="-128.3" font-family="Helvetica,sans-Serif" font-size="11.00" fill="#000000">&lt; 1</text>
<polygon fill="#ffffff" stroke="transparent" points="29,-122.2 29,-141.2 67,-141.2 67,-122.2 29,-122.2"/>
<polygon fill="none" stroke="#000000" points="29,-122.2 29,-141.2 67,-141.2 67,-122.2 29,-122.2"/>
<text text-anchor="start" x="31.8053" y="-128.3" font-family="Helvetica,sans-Serif" font-size="11.00" fill="#000000">0 rows</text>
<polygon fill="#ffffff" stroke="transparent" points="67,-122.2 67,-141.2 88,-141.2 88,-122.2 67,-122.2"/>
<polygon fill="none" stroke="#000000" points="67,-122.2 67,-141.2 88,-141.2 88,-122.2 67,-122.2"/>
<text text-anchor="start" x="69.7027" y="-128.3" font-family="Helvetica,sans-Serif" font-size="11.00" fill="#000000">1 &gt;</text>
</a>
</g>
</g>
<!-- address&#45;&gt;city -->
<g id="edge1" class="edge">
<title>address:w&#45;&gt;city:e</title>
<path fill="none" stroke="#000000" d="M122.8428,-150.2C111.4139,-150.2 104.1563,-150.2 88,-150.2"/>
<polygon fill="#000000" stroke="#000000" points="129.5,-150.2001 137.5,-153.8 133.5,-150.2 137.5,-150.2 137.5,-150.2 137.5,-150.2 133.5,-150.2 137.5,-146.6 129.5,-150.2001 129.5,-150.2001"/>
<ellipse fill="none" stroke="#000000" cx="126.3" cy="-150.2001" rx="3.2" ry="3.2"/>
</g>
<!-- customer -->
<g id="node3" class="node">
<title>customer</title>
<g id="a_node3"><a xlink:href="../../tables/customer.html" xlink:title="customer" target="_top">
<polygon fill="#ffffff" stroke="transparent" points="277,-249.7 277,-310.7 365,-310.7 365,-249.7 277,-249.7"/>
<polygon fill="#f5f5f5" stroke="transparent" points="277,-287.2 277,-310.2 365,-310.2 365,-287.2 277,-287.2"/>
<polygon fill="none" stroke="#000000" points="277,-287.2 277,-310.2 365,-310.2 365,-287.2 277,-287.2"/>
<text text-anchor="start" x="281.8873" y="-296.3" font-family="Helvetica,sans-Serif" font-weight="bold" font-size="11.00" fill="#000000">customer</text>
<text text-anchor="start" x="330.5219" y="-295.3" font-family="Helvetica,sans-Serif" font-size="11.00" fill="#000000">[table]</text>
<polygon fill="none" stroke="#000000" points="277,-268.2 277,-287.2 365,-287.2 365,-268.2 277,-268.2"/>
<text text-anchor="start" x="280" y="-274.3" font-family="Helvetica,sans-Serif" font-size="11.00" fill="#000000">...</text>
<polygon fill="#ffffff" stroke="transparent" points="277,-249.2 277,-268.2 302,-268.2 302,-249.2 277,-249.2"/>
<polygon fill="none" stroke="#000000" points="277,-249.2 277,-268.2 302,-268.2 302,-249.2 277,-249.2"/>
<text text-anchor="start" x="280" y="-255.3" font-family="Helvetica,sans-Serif" font-size="11.00" fill="#000000">&lt; 1</text>
<polygon fill="#ffffff" stroke="transparent" points="302,-249.2 302,-268.2 342,-268.2 342,-249.2 302,-249.2"/>
<polygon fill="none" stroke="#000000" points="302,-249.2 302,-268.2 342,-268.2 342,-249.2 302,-249.2"/>
<text text-anchor="start" x="306.6105" y="-255.3" font-family="Helvetica,sans-Serif" font-size="11.00" fill="#000000">0 rows</text>
<polygon fill="#ffffff" stroke="transparent" points="342,-249.2 342,-268.2 365,-268.2 365,-249.2 342,-249.2"/>
<polygon fill="none" stroke="#000000" points="342,-249.2 342,-268.2 365,-268.2 365,-249.2 342,-249.2"/>
<text text-anchor="start" x="346.4053" y="-255.3" font-family="Helvetica,sans-Serif" font-size="11.00" fill="#000000">2 &gt;</text>
</a>
</g>
</g>
<!-- customer&#45;&gt;address -->
<g id="edge2" class="edge">
<title>customer:w&#45;&gt;address:e</title>
<path fill="none" stroke="#000000" d="M262.9431,-273.2121C236.8724,-254.0326 273.8805,-172.2 228.5,-172.2"/>
<polygon fill="#000000" stroke="#000000" points="269.3037,-275.0165 276.0174,-280.6633 273.1519,-276.1083 277,-277.2 277,-277.2 277,-277.2 273.1519,-276.1083 277.9826,-273.7367 269.3037,-275.0165 269.3037,-275.0165"/>
<ellipse fill="none" stroke="#000000" cx="266.2252" cy="-274.1432" rx="3.2" ry="3.2"/>
</g>
<!-- payment -->
<g id="node4" class="node">
<title>payment</title>
<g id="a_node4"><a xlink:href="../../tables/payment.html" xlink:title="payment" target="_top">
<polygon fill="#ffffff" stroke="transparent" points="671,-220.7 671,-281.7 756,-281.7 756,-220.7 671,-220.7"/>
<polygon fill="#f5f5f5" stroke="transparent" points="671.5,-258.2 671.5,-281.2 756.5,-281.2 756.5,-258.2 671.5,-258.2"/>
<polygon fill="none" stroke="#000000" points="671.5,-258.2 671.5,-281.2 756.5,-281.2 756.5,-258.2 671.5,-258.2"/>
<text text-anchor="start" x="676.4108" y="-267.3" font-family="Helvetica,sans-Serif" font-weight="bold" font-size="11.00" fill="#000000">payment</text>
<text text-anchor="start" x="722.0219" y="-266.3" font-family="Helvetica,sans-Serif" font-size="11.00" fill="#000000">[table]</text>
<polygon fill="none" stroke="#000000" points="671.5,-239.2 671.5,-258.2 756.5,-258.2 756.5,-239.2 671.5,-239.2"/>
<text text-anchor="start" x="674.5" y="-245.3" font-family="Helvetica,sans-Serif" font-size="11.00" fill="#000000">...</text>
<polygon fill="#ffffff" stroke="transparent" points="671.5,-220.2 671.5,-239.2 699.5,-239.2 699.5,-220.2 671.5,-220.2"/>
<polygon fill="none" stroke="#000000" points="671.5,-220.2 671.5,-239.2 699.5,-239.2 699.5,-220.2 671.5,-220.2"/>
<text text-anchor="start" x="674.5" y="-226.3" font-family="Helvetica,sans-Serif" font-size="11.00" fill="#000000">&lt; 3</text>
<polygon fill="#ffffff" stroke="transparent" points="699.5,-220.2 699.5,-239.2 740.5,-239.2 740.5,-220.2 699.5,-220.2"/>
<polygon fill="none" stroke="#000000" points="699.5,-220.2 699.5,-239.2 740.5,-239.2 740.5,-220.2 699.5,-220.2"/>
<text text-anchor="start" x="705.1105" y="-226.3" font-family="Helvetica,sans-Serif" font-size="11.00" fill="#000000">0 rows</text>
<polygon fill="#ffffff" stroke="transparent" points="740.5,-220.2 740.5,-239.2 756.5,-239.2 756.5,-220.2 740.5,-220.2"/>
<polygon fill="none" stroke="#000000" points="740.5,-220.2 740.5,-239.2 756.5,-239.2 756.5,-220.2 740.5,-220.2"/>
<text text-anchor="start" x="747.3862" y="-226.3" font-family="Helvetica,sans-Serif" font-size="11.00" fill="#000000"> &#160;</text>
</a>
</g>
</g>
<!-- payment&#45;&gt;customer -->
<g id="edge3" class="edge">
<title>payment:w&#45;&gt;customer:e</title>
<path fill="none" stroke="#000000" d="M657.7643,-252.9744C647.4272,-262.5862 648.8974,-284.0469 630,-292.2 538.5893,-331.6385 504.0287,-309.5691 406,-292.2 386.8941,-288.8147 384.4034,-277.2 365,-277.2"/>
<polygon fill="#000000" stroke="#000000" points="663.9435,-250.8266 672.682,-251.6004 667.7217,-249.5133 671.5,-248.2 671.5,-248.2 671.5,-248.2 667.7217,-249.5133 670.318,-244.7996 663.9435,-250.8266 663.9435,-250.8266"/>
<ellipse fill="none" stroke="#000000" cx="660.9209" cy="-251.8773" rx="3.2" ry="3.2"/>
</g>
<!-- rental -->
<g id="node5" class="node">
<title>rental</title>
<g id="a_node5"><a xlink:href="../../tables/rental.html" xlink:title="rental" target="_top">
<polygon fill="#ffffff" stroke="transparent" points="478,-220.7 478,-281.7 558,-281.7 558,-220.7 478,-220.7"/>
<polygon fill="#f5f5f5" stroke="transparent" points="478,-258.2 478,-281.2 558,-281.2 558,-258.2 478,-258.2"/>
<polygon fill="none" stroke="#000000" points="478,-258.2 478,-281.2 558,-281.2 558,-258.2 478,-258.2"/>
<text text-anchor="start" x="483" y="-267.3" font-family="Helvetica,sans-Serif" font-weight="bold" font-size="11.00" fill="#000000">rental</text>
<text text-anchor="start" x="523.0437" y="-266.3" font-family="Helvetica,sans-Serif" font-size="11.00" fill="#000000">[table]</text>
<polygon fill="none" stroke="#000000" points="478,-239.2 478,-258.2 558,-258.2 558,-239.2 478,-239.2"/>
<text text-anchor="start" x="481" y="-245.3" font-family="Helvetica,sans-Serif" font-size="11.00" fill="#000000">...</text>
<polygon fill="#ffffff" stroke="transparent" points="478,-220.2 478,-239.2 499,-239.2 499,-220.2 478,-220.2"/>
<polygon fill="none" stroke="#000000" points="478,-220.2 478,-239.2 499,-239.2 499,-220.2 478,-220.2"/>
<text text-anchor="start" x="480.7027" y="-226.3" font-family="Helvetica,sans-Serif" font-size="11.00" fill="#000000">&lt; 3</text>
<polygon fill="#ffffff" stroke="transparent" points="499,-220.2 499,-239.2 537,-239.2 537,-220.2 499,-220.2"/>
<polygon fill="none" stroke="#000000" points="499,-220.2 499,-239.2 537,-239.2 537,-220.2 499,-220.2"/>
<text text-anchor="start" x="501.8053" y="-226.3" font-family="Helvetica,sans-Serif" font-size="11.00" fill="#000000">0 rows</text>
<polygon fill="#ffffff" stroke="transparent" points="537,-220.2 537,-239.2 558,-239.2 558,-220.2 537,-220.2"/>
<polygon fill="none" stroke="#000000" points="537,-220.2 537,-239.2 558,-239.2 558,-220.2 537,-220.2"/>
<text text-anchor="start" x="539.7026" y="-226.3" font-family="Helvetica,sans-Serif" font-size="11.00" fill="#000000">1 &gt;</text>
</a>
</g>
</g>
<!-- payment&#45;&gt;rental -->
<g id="edge4" class="edge">
<title>payment:w&#45;&gt;rental:e</title>
<path fill="none" stroke="#000000" d="M656.9669,-248.2C618.0393,-248.2 603.2227,-248.2 558,-248.2"/>
<polygon fill="#000000" stroke="#000000" points="663.5,-248.2001 671.5,-251.8 667.5,-248.2 671.5,-248.2 671.5,-248.2 671.5,-248.2 667.5,-248.2 671.5,-244.6 663.5,-248.2001 663.5,-248.2001"/>
<ellipse fill="none" stroke="#000000" cx="660.3" cy="-248.2001" rx="3.2" ry="3.2"/>
</g>
<!-- staff -->
<g id="node6" class="node">
<title>staff</title>
<g id="a_node6"><a xlink:href="../../tables/staff.html" xlink:title="staff" target="_top">
<polygon fill="#ffffff" stroke="transparent" points="277.5,-123.7 277.5,-228.7 364.5,-228.7 364.5,-123.7 277.5,-123.7"/>
<polygon fill="#f5f5f5" stroke="transparent" points="278,-205.2 278,-228.2 365,-228.2 365,-205.2 278,-205.2"/>
<polygon fill="none" stroke="#000000" points="278,-205.2 278,-228.2 365,-228.2 365,-205.2 278,-205.2"/>
<text text-anchor="start" x="283" y="-214.3" font-family="Helvetica,sans-Serif" font-weight="bold" font-size="11.00" fill="#000000">staff</text>
<text text-anchor="start" x="330.0437" y="-213.3" font-family="Helvetica,sans-Serif" font-size="11.00" fill="#000000">[table]</text>
<polygon fill="none" stroke="#000000" points="278,-183.2 278,-205.2 365,-205.2 365,-183.2 278,-183.2"/>
<image xlink:href="../../images/primaryKeys.png" width="11px" height="12px" preserveAspectRatio="xMinYMin meet" x="283" y="-200.2"/>
<text text-anchor="start" x="298" y="-190.3" font-family="Helvetica,sans-Serif" font-size="11.00" fill="#000000">staff_id</text>
<polygon fill="none" stroke="#000000" points="278,-161.2 278,-183.2 365,-183.2 365,-161.2 278,-161.2"/>
<image xlink:href="../../images/foreignKeys.png" width="11px" height="12px" preserveAspectRatio="xMinYMin meet" x="283" y="-178.2"/>
<text text-anchor="start" x="298" y="-168.3" font-family="Helvetica,sans-Serif" font-size="11.00" fill="#000000">address_id</text>
<polygon fill="none" stroke="#000000" points="278,-142.2 278,-161.2 365,-161.2 365,-142.2 278,-142.2"/>
<text text-anchor="start" x="281" y="-148.3" font-family="Helvetica,sans-Serif" font-size="11.00" fill="#000000">...</text>
<polygon fill="#ffffff" stroke="transparent" points="278,-123.2 278,-142.2 302,-142.2 302,-123.2 278,-123.2"/>
<polygon fill="none" stroke="#000000" points="278,-123.2 278,-142.2 302,-142.2 302,-123.2 278,-123.2"/>
<text text-anchor="start" x="281" y="-129.3" font-family="Helvetica,sans-Serif" font-size="11.00" fill="#000000">&lt; 1</text>
<polygon fill="#ffffff" stroke="transparent" points="302,-123.2 302,-142.2 342,-142.2 342,-123.2 302,-123.2"/>
<polygon fill="none" stroke="#000000" points="302,-123.2 302,-142.2 342,-142.2 342,-123.2 302,-123.2"/>
<text text-anchor="start" x="306.6105" y="-129.3" font-family="Helvetica,sans-Serif" font-size="11.00" fill="#000000">0 rows</text>
<polygon fill="#ffffff" stroke="transparent" points="342,-123.2 342,-142.2 365,-142.2 365,-123.2 342,-123.2"/>
<polygon fill="none" stroke="#000000" points="342,-123.2 342,-142.2 365,-142.2 365,-123.2 342,-123.2"/>
<text text-anchor="start" x="346.4053" y="-129.3" font-family="Helvetica,sans-Serif" font-size="11.00" fill="#000000">3 &gt;</text>
</a>
</g>
</g>
<!-- payment&#45;&gt;staff -->
<g id="edge5" class="edge">
<title>payment:w&#45;&gt;staff:e</title>
<path fill="none" stroke="#000000" d="M657.7032,-243.6348C647.9112,-235.2344 647.2696,-217.5188 630,-210.2 521.3612,-164.159 482.9923,-194.2 365,-194.2"/>
<polygon fill="#000000" stroke="#000000" points="663.905,-245.6869 670.3691,-251.6178 667.7025,-246.9434 671.5,-248.2 671.5,-248.2 671.5,-248.2 667.7025,-246.9434 672.6309,-244.7822 663.905,-245.6869 663.905,-245.6869"/>
<ellipse fill="none" stroke="#000000" cx="660.867" cy="-244.6816" rx="3.2" ry="3.2"/>
</g>
<!-- rental&#45;&gt;customer -->
<g id="edge6" class="edge">
<title>rental:w&#45;&gt;customer:e</title>
<path fill="none" stroke="#000000" d="M463.4296,-249.0366C423.8222,-253.7915 411.5837,-277.2 365,-277.2"/>
<polygon fill="#000000" stroke="#000000" points="470.0132,-248.6587 478.2064,-251.7941 474.0066,-248.4293 478,-248.2 478,-248.2 478,-248.2 474.0066,-248.4293 477.7936,-244.6059 470.0132,-248.6587 470.0132,-248.6587"/>
<ellipse fill="none" stroke="#000000" cx="466.8184" cy="-248.8421" rx="3.2" ry="3.2"/>
</g>
<!-- rental&#45;&gt;staff -->
<g id="edge7" class="edge">
<title>rental:w&#45;&gt;staff:e</title>
<path fill="none" stroke="#000000" d="M463.4076,-246.8109C421.5227,-238.3587 415.3351,-194.2 365,-194.2"/>
<polygon fill="#000000" stroke="#000000" points="470.036,-247.4418 477.6588,-251.7838 474.018,-247.8209 478,-248.2 478,-248.2 478,-248.2 474.018,-247.8209 478.3412,-244.6162 470.036,-247.4418 470.036,-247.4418"/>
<ellipse fill="none" stroke="#000000" cx="466.8504" cy="-247.1386" rx="3.2" ry="3.2"/>
</g>
<!-- staff&#45;&gt;address -->
<g id="edge8" class="edge">
<title>staff:w&#45;&gt;address:e</title>
<path fill="none" stroke="#000000" d="M263.3428,-172.2C251.9139,-172.2 244.6563,-172.2 228.5,-172.2"/>
<polygon fill="#000000" stroke="#000000" points="270,-172.2001 278,-175.8 274,-172.2 278,-172.2 278,-172.2 278,-172.2 274,-172.2 278,-168.6 270,-172.2001 270,-172.2001"/>
<ellipse fill="none" stroke="#000000" cx="266.8" cy="-172.2001" rx="3.2" ry="3.2"/>
</g>
<!-- store -->
<g id="node7" class="node">
<title>store</title>
<g id="a_node7"><a xlink:href="../../tables/store.html" xlink:title="store" target="_top">
<polygon fill="#ffffff" stroke="transparent" points="414,-38.2 414,-172.2 622,-172.2 622,-38.2 414,-38.2"/>
<polygon fill="#f5f5f5" stroke="transparent" points="416,-147.2 416,-170.2 620,-170.2 620,-147.2 416,-147.2"/>
<polygon fill="none" stroke="#000000" points="416,-147.2 416,-170.2 620,-170.2 620,-147.2 416,-147.2"/>
<text text-anchor="start" x="421" y="-156.3" font-family="Helvetica,sans-Serif" font-weight="bold" font-size="11.00" fill="#000000">store</text>
<text text-anchor="start" x="585.0437" y="-155.3" font-family="Helvetica,sans-Serif" font-size="11.00" fill="#000000">[table]</text>
<polygon fill="none" stroke="#000000" points="416,-125.2 416,-147.2 536,-147.2 536,-125.2 416,-125.2"/>
<image xlink:href="../../images/primaryKeys.png" width="11px" height="12px" preserveAspectRatio="xMinYMin meet" x="421" y="-142.2"/>
<text text-anchor="start" x="436" y="-132.3" font-family="Helvetica,sans-Serif" font-size="11.00" fill="#000000">store_id</text>
<polygon fill="none" stroke="#000000" points="536,-125.2 536,-147.2 620,-147.2 620,-125.2 536,-125.2"/>
<text text-anchor="start" x="539" y="-132.9" font-family="Helvetica,sans-Serif" font-size="11.00" fill="#000000">serial[10]</text>
<polygon fill="#ffffff" stroke="transparent" points="416,-103.2 416,-125.2 536,-125.2 536,-103.2 416,-103.2"/>
<polygon fill="none" stroke="#000000" points="416,-103.2 416,-125.2 536,-125.2 536,-103.2 416,-103.2"/>
<image xlink:href="../../images/foreignKeys.png" width="11px" height="12px" preserveAspectRatio="xMinYMin meet" x="421" y="-120.2"/>
<text text-anchor="start" x="436" y="-110.3" font-family="Helvetica,sans-Serif" font-size="11.00" fill="#000000">manager_staff_id</text>
<polygon fill="none" stroke="#000000" points="536,-103.2 536,-125.2 620,-125.2 620,-103.2 536,-103.2"/>
<text text-anchor="start" x="539" y="-110.9" font-family="Helvetica,sans-Serif" font-size="11.00" fill="#000000">int2[5]</text>
<polygon fill="none" stroke="#000000" points="416,-81.2 416,-103.2 536,-103.2 536,-81.2 416,-81.2"/>
<image xlink:href="../../images/foreignKeys.png" width="11px" height="12px" preserveAspectRatio="xMinYMin meet" x="421" y="-98.2"/>
<text text-anchor="start" x="436" y="-88.3" font-family="Helvetica,sans-Serif" font-size="11.00" fill="#000000">address_id</text>
<polygon fill="none" stroke="#000000" points="536,-81.2 536,-103.2 620,-103.2 620,-81.2 536,-81.2"/>
<text text-anchor="start" x="539" y="-88.9" font-family="Helvetica,sans-Serif" font-size="11.00" fill="#000000">int2[5]</text>
<polygon fill="none" stroke="#000000" points="416,-59.2 416,-81.2 536,-81.2 536,-59.2 416,-59.2"/>
<text text-anchor="start" x="436" y="-66.3" font-family="Helvetica,sans-Serif" font-size="11.00" fill="#000000">last_update</text>
<polygon fill="none" stroke="#000000" points="536,-59.2 536,-81.2 620,-81.2 620,-59.2 536,-59.2"/>
<text text-anchor="start" x="538.8807" y="-66.9" font-family="Helvetica,sans-Serif" font-size="11.00" fill="#000000">timestamp[29,6]</text>
<polygon fill="#ffffff" stroke="transparent" points="416,-40.2 416,-59.2 467,-59.2 467,-40.2 416,-40.2"/>
<polygon fill="none" stroke="#000000" points="416,-40.2 416,-59.2 467,-59.2 467,-40.2 416,-40.2"/>
<text text-anchor="start" x="419" y="-46.3" font-family="Helvetica,sans-Serif" font-size="11.00" fill="#000000">&lt; 2</text>
<polygon fill="#ffffff" stroke="transparent" points="467,-40.2 467,-59.2 536,-59.2 536,-40.2 467,-40.2"/>
<polygon fill="none" stroke="#000000" points="467,-40.2 467,-59.2 536,-59.2 536,-40.2 467,-40.2"/>
<text text-anchor="start" x="500.6105" y="-46.3" font-family="Helvetica,sans-Serif" font-size="11.00" fill="#000000">0 rows</text>
<polygon fill="#ffffff" stroke="transparent" points="536,-40.2 536,-59.2 620,-59.2 620,-40.2 536,-40.2"/>
<polygon fill="none" stroke="#000000" points="536,-40.2 536,-59.2 620,-59.2 620,-40.2 536,-40.2"/>
<text text-anchor="start" x="601.4053" y="-46.3" font-family="Helvetica,sans-Serif" font-size="11.00" fill="#000000">0 &gt;</text>
<polygon fill="none" stroke="#000000" stroke-width="2" points="415,-39.2 415,-171.2 621,-171.2 621,-39.2 415,-39.2"/>
</a>
</g>
</g>
<!-- store&#45;&gt;address -->
<g id="edge9" class="edge">
<title>store:w&#45;&gt;address:e</title>
<path fill="none" stroke="#000000" d="M401.2495,-91.9769C345.9176,-90.3392 320.6904,-81.1113 269,-113.2 241.9777,-129.975 260.3057,-172.2 228.5,-172.2"/>
<polygon fill="#000000" stroke="#000000" points="408.0009,-92.079 415.9455,-95.7996 412.0005,-92.1395 416,-92.2 416,-92.2 416,-92.2 412.0005,-92.1395 416.0545,-88.6004 408.0009,-92.079 408.0009,-92.079"/>
<ellipse fill="none" stroke="#000000" cx="404.8013" cy="-92.0306" rx="3.2" ry="3.2"/>
</g>
<!-- store&#45;&gt;staff -->
<g id="edge10" class="edge">
<title>store:w&#45;&gt;staff:e</title>
<path fill="none" stroke="#000000" d="M405.6661,-116.3398C379.6241,-129.0621 403.0483,-194.2 365,-194.2"/>
<polygon fill="#000000" stroke="#000000" points="414.4055,-110.4453 416.0277,-118.2791 414.4609,-118.6036 412.8388,-110.7697 414.4055,-110.4453"/>
<polyline fill="none" stroke="#000000" points="416,-114.2 412.0831,-115.0111 "/>
<ellipse fill="none" stroke="#000000" cx="408.9496" cy="-115.66" rx="3.2" ry="3.2"/>
</g>
</g>
</svg>
