<?xml version="1.0" encoding="UTF-8" standalone="no"?>
<!DOCTYPE svg PUBLIC "-//W3C//DTD SVG 1.1//EN"
 "http://www.w3.org/Graphics/SVG/1.1/DTD/svg11.dtd">
<!-- Generated by graphviz version 2.40.1 (20161225.0304)
 -->
<!-- Title: oneDegreeRelationshipsDiagram Pages: 1 -->
<svg width="649pt" height="352pt"
 viewBox="0.00 0.00 649.00 351.70" xmlns="http://www.w3.org/2000/svg" xmlns:xlink="http://www.w3.org/1999/xlink">
<g id="graph0" class="graph" transform="scale(1 1) rotate(0) translate(4 347.7)">
<title>oneDegreeRelationshipsDiagram</title>
<polygon fill="#ffffff" stroke="transparent" points="-4,4 -4,-347.7 645,-347.7 645,4 -4,4"/>
<text text-anchor="middle" x="72.4936" y="-7.3" font-family="Helvetica,sans-Serif" font-size="11.00" fill="#000000">Generated by SchemaSpy</text>
<!-- customer -->
<g id="node1" class="node">
<title>customer</title>
<g id="a_node1"><a xlink:href="../../tables/customer.html" xlink:title="customer" target="_top">
<polygon fill="#ffffff" stroke="transparent" points="541,-190.7 541,-339.7 633,-339.7 633,-190.7 541,-190.7"/>
<polygon fill="#f5f5f5" stroke="transparent" points="541,-316.2 541,-339.2 633,-339.2 633,-316.2 541,-316.2"/>
<polygon fill="none" stroke="#000000" points="541,-316.2 541,-339.2 633,-339.2 633,-316.2 541,-316.2"/>
<text text-anchor="start" x="546" y="-325.3" font-family="Helvetica,sans-Serif" font-weight="bold" font-size="11.00" fill="#000000">customer</text>
<text text-anchor="start" x="598.0437" y="-324.3" font-family="Helvetica,sans-Serif" font-size="11.00" fill="#000000">[table]</text>
<polygon fill="none" stroke="#000000" points="541,-294.2 541,-316.2 633,-316.2 633,-294.2 541,-294.2"/>
<image xlink:href="../../images/primaryKeys.png" width="11px" height="12px" preserveAspectRatio="xMinYMin meet" x="546" y="-311.2"/>
<text text-anchor="start" x="561" y="-301.3" font-family="Helvetica,sans-Serif" font-size="11.00" fill="#000000">customer_id</text>
<polygon fill="#ffffff" stroke="transparent" points="541,-272.2 541,-294.2 633,-294.2 633,-272.2 541,-272.2"/>
<polygon fill="none" stroke="#000000" points="541,-272.2 541,-294.2 633,-294.2 633,-272.2 541,-272.2"/>
<image xlink:href="../../images/foreignKeys.png" width="11px" height="12px" preserveAspectRatio="xMinYMin meet" x="546" y="-289.2"/>
<text text-anchor="start" x="561" y="-279.3" font-family="Helvetica,sans-Serif" font-size="11.00" fill="#000000">store_id</text>
<polygon fill="#ffffff" stroke="transparent" points="541,-250.2 541,-272.2 633,-272.2 633,-250.2 541,-250.2"/>
<polygon fill="none" stroke="#000000" points="541,-250.2 541,-272.2 633,-272.2 633,-250.2 541,-250.2"/>
<text text-anchor="start" x="561" y="-257.3" font-family="Helvetica,sans-Serif" font-size="11.00" fill="#000000">last_name</text>
<polygon fill="#ffffff" stroke="transparent" points="541,-228.2 541,-250.2 633,-250.2 633,-228.2 541,-228.2"/>
<polygon fill="none" stroke="#000000" points="541,-228.2 541,-250.2 633,-250.2 633,-228.2 541,-228.2"/>
<image xlink:href="../../images/foreignKeys.png" width="11px" height="12px" preserveAspectRatio="xMinYMin meet" x="546" y="-245.2"/>
<text text-anchor="start" x="561" y="-235.3" font-family="Helvetica,sans-Serif" font-size="11.00" fill="#000000">address_id</text>
<polygon fill="none" stroke="#000000" points="541,-209.2 541,-228.2 633,-228.2 633,-209.2 541,-209.2"/>
<text text-anchor="start" x="544" y="-215.3" font-family="Helvetica,sans-Serif" font-size="11.00" fill="#000000">...</text>
<polygon fill="#ffffff" stroke="transparent" points="541,-190.2 541,-209.2 568,-209.2 568,-190.2 541,-190.2"/>
<polygon fill="none" stroke="#000000" points="541,-190.2 541,-209.2 568,-209.2 568,-190.2 541,-190.2"/>
<text text-anchor="start" x="544" y="-196.3" font-family="Helvetica,sans-Serif" font-size="11.00" fill="#000000">&lt; 2</text>
<polygon fill="#ffffff" stroke="transparent" points="568,-190.2 568,-209.2 609,-209.2 609,-190.2 568,-190.2"/>
<polygon fill="none" stroke="#000000" points="568,-190.2 568,-209.2 609,-209.2 609,-190.2 568,-190.2"/>
<text text-anchor="start" x="573.6105" y="-196.3" font-family="Helvetica,sans-Serif" font-size="11.00" fill="#000000">0 rows</text>
<polygon fill="#ffffff" stroke="transparent" points="609,-190.2 609,-209.2 633,-209.2 633,-190.2 609,-190.2"/>
<polygon fill="none" stroke="#000000" points="609,-190.2 609,-209.2 633,-209.2 633,-190.2 609,-190.2"/>
<text text-anchor="start" x="614.4053" y="-196.3" font-family="Helvetica,sans-Serif" font-size="11.00" fill="#000000">8 &gt;</text>
</a>
</g>
</g>
<!-- address -->
<g id="node2" class="node">
<title>address</title>
<g id="a_node2"><a xlink:href="../../tables/address.html" xlink:title="address" target="_top">
<polygon fill="#ffffff" stroke="transparent" points="8,-87.7 8,-192.7 99,-192.7 99,-87.7 8,-87.7"/>
<polygon fill="#f5f5f5" stroke="transparent" points="8.5,-169.2 8.5,-192.2 99.5,-192.2 99.5,-169.2 8.5,-169.2"/>
<polygon fill="none" stroke="#000000" points="8.5,-169.2 8.5,-192.2 99.5,-192.2 99.5,-169.2 8.5,-169.2"/>
<text text-anchor="start" x="13.5" y="-178.3" font-family="Helvetica,sans-Serif" font-weight="bold" font-size="11.00" fill="#000000">address</text>
<text text-anchor="start" x="64.5437" y="-177.3" font-family="Helvetica,sans-Serif" font-size="11.00" fill="#000000">[table]</text>
<polygon fill="none" stroke="#000000" points="8.5,-147.2 8.5,-169.2 99.5,-169.2 99.5,-147.2 8.5,-147.2"/>
<image xlink:href="../../images/primaryKeys.png" width="11px" height="12px" preserveAspectRatio="xMinYMin meet" x="13.5" y="-164.2"/>
<text text-anchor="start" x="28.5" y="-154.3" font-family="Helvetica,sans-Serif" font-size="11.00" fill="#000000">address_id</text>
<polygon fill="#ffffff" stroke="transparent" points="8.5,-125.2 8.5,-147.2 99.5,-147.2 99.5,-125.2 8.5,-125.2"/>
<polygon fill="none" stroke="#000000" points="8.5,-125.2 8.5,-147.2 99.5,-147.2 99.5,-125.2 8.5,-125.2"/>
<image xlink:href="../../images/foreignKeys.png" width="11px" height="12px" preserveAspectRatio="xMinYMin meet" x="13.5" y="-142.2"/>
<text text-anchor="start" x="28.5" y="-132.3" font-family="Helvetica,sans-Serif" font-size="11.00" fill="#000000">city_id</text>
<polygon fill="none" stroke="#000000" points="8.5,-106.2 8.5,-125.2 99.5,-125.2 99.5,-106.2 8.5,-106.2"/>
<text text-anchor="start" x="11.5" y="-112.3" font-family="Helvetica,sans-Serif" font-size="11.00" fill="#000000">...</text>
<polygon fill="#ffffff" stroke="transparent" points="8.5,-87.2 8.5,-106.2 34.5,-106.2 34.5,-87.2 8.5,-87.2"/>
<polygon fill="none" stroke="#000000" points="8.5,-87.2 8.5,-106.2 34.5,-106.2 34.5,-87.2 8.5,-87.2"/>
<text text-anchor="start" x="11.5" y="-93.3" font-family="Helvetica,sans-Serif" font-size="11.00" fill="#000000">&lt; 1</text>
<polygon fill="#ffffff" stroke="transparent" points="34.5,-87.2 34.5,-106.2 75.5,-106.2 75.5,-87.2 34.5,-87.2"/>
<polygon fill="none" stroke="#000000" points="34.5,-87.2 34.5,-106.2 75.5,-106.2 75.5,-87.2 34.5,-87.2"/>
<text text-anchor="start" x="40.1105" y="-93.3" font-family="Helvetica,sans-Serif" font-size="11.00" fill="#000000">0 rows</text>
<polygon fill="#ffffff" stroke="transparent" points="75.5,-87.2 75.5,-106.2 99.5,-106.2 99.5,-87.2 75.5,-87.2"/>
<polygon fill="none" stroke="#000000" points="75.5,-87.2 75.5,-106.2 99.5,-106.2 99.5,-87.2 75.5,-87.2"/>
<text text-anchor="start" x="80.9053" y="-93.3" font-family="Helvetica,sans-Serif" font-size="11.00" fill="#000000">3 &gt;</text>
</a>
</g>
</g>
<!-- customer&#45;&gt;address -->
<g id="edge1" class="edge">
<title>customer:w&#45;&gt;address:e</title>
<path fill="none" stroke="#000000" d="M526.3602,-239.3721C358.7685,-243.3184 289.4954,-312.9918 140,-225.2 109.9958,-207.5799 134.2953,-158.2 99.5,-158.2"/>
<polygon fill="#000000" stroke="#000000" points="533.0006,-239.2941 541.0423,-242.7998 537.0003,-239.247 541,-239.2 541,-239.2 541,-239.2 537.0003,-239.247 540.9577,-235.6002 533.0006,-239.2941 533.0006,-239.2941"/>
<ellipse fill="none" stroke="#000000" cx="529.8008" cy="-239.3317" rx="3.2" ry="3.2"/>
</g>
<!-- store -->
<g id="node3" class="node">
<title>store</title>
<g id="a_node3"><a xlink:href="../../tables/store.html" xlink:title="store" target="_top">
<polygon fill="#ffffff" stroke="transparent" points="284,-38.2 284,-172.2 492,-172.2 492,-38.2 284,-38.2"/>
<polygon fill="#f5f5f5" stroke="transparent" points="286,-147.2 286,-170.2 490,-170.2 490,-147.2 286,-147.2"/>
<polygon fill="none" stroke="#000000" points="286,-147.2 286,-170.2 490,-170.2 490,-147.2 286,-147.2"/>
<text text-anchor="start" x="291" y="-156.3" font-family="Helvetica,sans-Serif" font-weight="bold" font-size="11.00" fill="#000000">store</text>
<text text-anchor="start" x="455.0437" y="-155.3" font-family="Helvetica,sans-Serif" font-size="11.00" fill="#000000">[table]</text>
<polygon fill="none" stroke="#000000" points="286,-125.2 286,-147.2 406,-147.2 406,-125.2 286,-125.2"/>
<image xlink:href="../../images/primaryKeys.png" width="11px" height="12px" preserveAspectRatio="xMinYMin meet" x="291" y="-142.2"/>
<text text-anchor="start" x="306" y="-132.3" font-family="Helvetica,sans-Serif" font-size="11.00" fill="#000000">store_id</text>
<polygon fill="none" stroke="#000000" points="406,-125.2 406,-147.2 490,-147.2 490,-125.2 406,-125.2"/>
<text text-anchor="start" x="409" y="-132.9" font-family="Helvetica,sans-Serif" font-size="11.00" fill="#000000">serial[10]</text>
<polygon fill="#ffffff" stroke="transparent" points="286,-103.2 286,-125.2 406,-125.2 406,-103.2 286,-103.2"/>
<polygon fill="none" stroke="#000000" points="286,-103.2 286,-125.2 406,-125.2 406,-103.2 286,-103.2"/>
<image xlink:href="../../images/foreignKeys.png" width="11px" height="12px" preserveAspectRatio="xMinYMin meet" x="291" y="-120.2"/>
<text text-anchor="start" x="306" y="-110.3" font-family="Helvetica,sans-Serif" font-size="11.00" fill="#000000">manager_staff_id</text>
<polygon fill="none" stroke="#000000" points="406,-103.2 406,-125.2 490,-125.2 490,-103.2 406,-103.2"/>
<text text-anchor="start" x="409" y="-110.9" font-family="Helvetica,sans-Serif" font-size="11.00" fill="#000000">int2[5]</text>
<polygon fill="none" stroke="#000000" points="286,-81.2 286,-103.2 406,-103.2 406,-81.2 286,-81.2"/>
<image xlink:href="../../images/foreignKeys.png" width="11px" height="12px" preserveAspectRatio="xMinYMin meet" x="291" y="-98.2"/>
<text text-anchor="start" x="306" y="-88.3" font-family="Helvetica,sans-Serif" font-size="11.00" fill="#000000">address_id</text>
<polygon fill="none" stroke="#000000" points="406,-81.2 406,-103.2 490,-103.2 490,-81.2 406,-81.2"/>
<text text-anchor="start" x="409" y="-88.9" font-family="Helvetica,sans-Serif" font-size="11.00" fill="#000000">int2[5]</text>
<polygon fill="none" stroke="#000000" points="286,-59.2 286,-81.2 406,-81.2 406,-59.2 286,-59.2"/>
<text text-anchor="start" x="306" y="-66.3" font-family="Helvetica,sans-Serif" font-size="11.00" fill="#000000">last_update</text>
<polygon fill="none" stroke="#000000" points="406,-59.2 406,-81.2 490,-81.2 490,-59.2 406,-59.2"/>
<text text-anchor="start" x="408.8807" y="-66.9" font-family="Helvetica,sans-Serif" font-size="11.00" fill="#000000">timestamp[29,6]</text>
<polygon fill="#ffffff" stroke="transparent" points="286,-40.2 286,-59.2 337,-59.2 337,-40.2 286,-40.2"/>
<polygon fill="none" stroke="#000000" points="286,-40.2 286,-59.2 337,-59.2 337,-40.2 286,-40.2"/>
<text text-anchor="start" x="289" y="-46.3" font-family="Helvetica,sans-Serif" font-size="11.00" fill="#000000">&lt; 2</text>
<polygon fill="#ffffff" stroke="transparent" points="337,-40.2 337,-59.2 406,-59.2 406,-40.2 337,-40.2"/>
<polygon fill="none" stroke="#000000" points="337,-40.2 337,-59.2 406,-59.2 406,-40.2 337,-40.2"/>
<text text-anchor="start" x="370.6105" y="-46.3" font-family="Helvetica,sans-Serif" font-size="11.00" fill="#000000">0 rows</text>
<polygon fill="#ffffff" stroke="transparent" points="406,-40.2 406,-59.2 490,-59.2 490,-40.2 406,-40.2"/>
<polygon fill="none" stroke="#000000" points="406,-40.2 406,-59.2 490,-59.2 490,-40.2 406,-40.2"/>
<text text-anchor="start" x="471.4053" y="-46.3" font-family="Helvetica,sans-Serif" font-size="11.00" fill="#000000">3 &gt;</text>
<polygon fill="none" stroke="#000000" stroke-width="2" points="285,-39.2 285,-171.2 491,-171.2 491,-39.2 285,-39.2"/>
</a>
</g>
</g>
<!-- customer&#45;&gt;store -->
<g id="edge2" class="edge">
<title>customer:w&#45;&gt;store:e</title>
<path fill="none" stroke="#000000" d="M526.7019,-280.2636C485.4077,-259.5454 553.3458,-136.2 490,-136.2"/>
<polygon fill="#000000" stroke="#000000" points="533.1635,-281.5906 540.2758,-286.7264 537.0818,-282.3953 541,-283.2 541,-283.2 541,-283.2 537.0818,-282.3953 541.7242,-279.6736 533.1635,-281.5906 533.1635,-281.5906"/>
<ellipse fill="none" stroke="#000000" cx="530.029" cy="-280.9468" rx="3.2" ry="3.2"/>
</g>
<!-- store&#45;&gt;address -->
<g id="edge6" class="edge">
<title>store:w&#45;&gt;address:e</title>
<path fill="none" stroke="#000000" d="M271.6787,-89.6474C262.5832,-86.0272 257.0317,-79.5771 243,-77.2 197.8653,-69.5536 178.9409,-53.1332 140,-77.2 105.762,-98.3603 139.7492,-158.2 99.5,-158.2"/>
<polygon fill="#000000" stroke="#000000" points="278.1241,-90.7962 285.3683,-95.7441 282.0621,-91.4981 286,-92.2 286,-92.2 286,-92.2 282.0621,-91.4981 286.6317,-88.6559 278.1241,-90.7962 278.1241,-90.7962"/>
<ellipse fill="none" stroke="#000000" cx="274.9738" cy="-90.2347" rx="3.2" ry="3.2"/>
</g>
<!-- staff -->
<g id="node5" class="node">
<title>staff</title>
<g id="a_node5"><a xlink:href="../../tables/staff.html" xlink:title="staff" target="_top">
<polygon fill="#ffffff" stroke="transparent" points="148,-87.7 148,-214.7 235,-214.7 235,-87.7 148,-87.7"/>
<polygon fill="#f5f5f5" stroke="transparent" points="148.5,-191.2 148.5,-214.2 235.5,-214.2 235.5,-191.2 148.5,-191.2"/>
<polygon fill="none" stroke="#000000" points="148.5,-191.2 148.5,-214.2 235.5,-214.2 235.5,-191.2 148.5,-191.2"/>
<text text-anchor="start" x="153.5" y="-200.3" font-family="Helvetica,sans-Serif" font-weight="bold" font-size="11.00" fill="#000000">staff</text>
<text text-anchor="start" x="200.5437" y="-199.3" font-family="Helvetica,sans-Serif" font-size="11.00" fill="#000000">[table]</text>
<polygon fill="none" stroke="#000000" points="148.5,-169.2 148.5,-191.2 235.5,-191.2 235.5,-169.2 148.5,-169.2"/>
<image xlink:href="../../images/primaryKeys.png" width="11px" height="12px" preserveAspectRatio="xMinYMin meet" x="153.5" y="-186.2"/>
<text text-anchor="start" x="168.5" y="-176.3" font-family="Helvetica,sans-Serif" font-size="11.00" fill="#000000">staff_id</text>
<polygon fill="none" stroke="#000000" points="148.5,-147.2 148.5,-169.2 235.5,-169.2 235.5,-147.2 148.5,-147.2"/>
<image xlink:href="../../images/foreignKeys.png" width="11px" height="12px" preserveAspectRatio="xMinYMin meet" x="153.5" y="-164.2"/>
<text text-anchor="start" x="168.5" y="-154.3" font-family="Helvetica,sans-Serif" font-size="11.00" fill="#000000">address_id</text>
<polygon fill="none" stroke="#000000" points="148.5,-125.2 148.5,-147.2 235.5,-147.2 235.5,-125.2 148.5,-125.2"/>
<image xlink:href="../../images/foreignKeys.png" width="11px" height="12px" preserveAspectRatio="xMinYMin meet" x="153.5" y="-142.2"/>
<text text-anchor="start" x="168.5" y="-132.3" font-family="Helvetica,sans-Serif" font-size="11.00" fill="#000000">store_id</text>
<polygon fill="none" stroke="#000000" points="148.5,-106.2 148.5,-125.2 235.5,-125.2 235.5,-106.2 148.5,-106.2"/>
<text text-anchor="start" x="151.5" y="-112.3" font-family="Helvetica,sans-Serif" font-size="11.00" fill="#000000">...</text>
<polygon fill="#ffffff" stroke="transparent" points="148.5,-87.2 148.5,-106.2 172.5,-106.2 172.5,-87.2 148.5,-87.2"/>
<polygon fill="none" stroke="#000000" points="148.5,-87.2 148.5,-106.2 172.5,-106.2 172.5,-87.2 148.5,-87.2"/>
<text text-anchor="start" x="151.5" y="-93.3" font-family="Helvetica,sans-Serif" font-size="11.00" fill="#000000">&lt; 2</text>
<polygon fill="#ffffff" stroke="transparent" points="172.5,-87.2 172.5,-106.2 212.5,-106.2 212.5,-87.2 172.5,-87.2"/>
<polygon fill="none" stroke="#000000" points="172.5,-87.2 172.5,-106.2 212.5,-106.2 212.5,-87.2 172.5,-87.2"/>
<text text-anchor="start" x="177.1105" y="-93.3" font-family="Helvetica,sans-Serif" font-size="11.00" fill="#000000">0 rows</text>
<polygon fill="#ffffff" stroke="transparent" points="212.5,-87.2 212.5,-106.2 235.5,-106.2 235.5,-87.2 212.5,-87.2"/>
<polygon fill="none" stroke="#000000" points="212.5,-87.2 212.5,-106.2 235.5,-106.2 235.5,-87.2 212.5,-87.2"/>
<text text-anchor="start" x="216.9053" y="-93.3" font-family="Helvetica,sans-Serif" font-size="11.00" fill="#000000">9 &gt;</text>
</a>
</g>
</g>
<!-- store&#45;&gt;staff -->
<g id="edge7" class="edge">
<title>store:w&#45;&gt;staff:e</title>
<path fill="none" stroke="#000000" d="M275.5941,-116.549C253.5859,-128.3062 268.251,-180.2 235.5,-180.2"/>
<polygon fill="#000000" stroke="#000000" points="284.3388,-110.4743 286.1004,-118.278 284.5397,-118.6303 282.7781,-110.8267 284.3388,-110.4743"/>
<polyline fill="none" stroke="#000000" points="286,-114.2 282.0982,-115.0808 "/>
<ellipse fill="none" stroke="#000000" cx="278.9767" cy="-115.7855" rx="3.2" ry="3.2"/>
</g>
<!-- inventory -->
<g id="node4" class="node">
<title>inventory</title>
<g id="a_node4"><a xlink:href="../../tables/inventory.html" xlink:title="inventory" target="_top">
<polygon fill="#ffffff" stroke="transparent" points="541,-42.7 541,-169.7 633,-169.7 633,-42.7 541,-42.7"/>
<polygon fill="#f5f5f5" stroke="transparent" points="541,-146.2 541,-169.2 633,-169.2 633,-146.2 541,-146.2"/>
<polygon fill="none" stroke="#000000" points="541,-146.2 541,-169.2 633,-169.2 633,-146.2 541,-146.2"/>
<text text-anchor="start" x="546" y="-155.3" font-family="Helvetica,sans-Serif" font-weight="bold" font-size="11.00" fill="#000000">inventory</text>
<text text-anchor="start" x="598.0437" y="-154.3" font-family="Helvetica,sans-Serif" font-size="11.00" fill="#000000">[table]</text>
<polygon fill="none" stroke="#000000" points="541,-124.2 541,-146.2 633,-146.2 633,-124.2 541,-124.2"/>
<image xlink:href="../../images/primaryKeys.png" width="11px" height="12px" preserveAspectRatio="xMinYMin meet" x="546" y="-141.2"/>
<text text-anchor="start" x="561" y="-131.3" font-family="Helvetica,sans-Serif" font-size="11.00" fill="#000000">inventory_id</text>
<polygon fill="#ffffff" stroke="transparent" points="541,-102.2 541,-124.2 633,-124.2 633,-102.2 541,-102.2"/>
<polygon fill="none" stroke="#000000" points="541,-102.2 541,-124.2 633,-124.2 633,-102.2 541,-102.2"/>
<image xlink:href="../../images/foreignKeys.png" width="11px" height="12px" preserveAspectRatio="xMinYMin meet" x="546" y="-119.2"/>
<text text-anchor="start" x="561" y="-109.3" font-family="Helvetica,sans-Serif" font-size="11.00" fill="#000000">film_id</text>
<polygon fill="#ffffff" stroke="transparent" points="541,-80.2 541,-102.2 633,-102.2 633,-80.2 541,-80.2"/>
<polygon fill="none" stroke="#000000" points="541,-80.2 541,-102.2 633,-102.2 633,-80.2 541,-80.2"/>
<image xlink:href="../../images/foreignKeys.png" width="11px" height="12px" preserveAspectRatio="xMinYMin meet" x="546" y="-97.2"/>
<text text-anchor="start" x="561" y="-87.3" font-family="Helvetica,sans-Serif" font-size="11.00" fill="#000000">store_id</text>
<polygon fill="none" stroke="#000000" points="541,-61.2 541,-80.2 633,-80.2 633,-61.2 541,-61.2"/>
<text text-anchor="start" x="544" y="-67.3" font-family="Helvetica,sans-Serif" font-size="11.00" fill="#000000">...</text>
<polygon fill="#ffffff" stroke="transparent" points="541,-42.2 541,-61.2 568,-61.2 568,-42.2 541,-42.2"/>
<polygon fill="none" stroke="#000000" points="541,-42.2 541,-61.2 568,-61.2 568,-42.2 541,-42.2"/>
<text text-anchor="start" x="544" y="-48.3" font-family="Helvetica,sans-Serif" font-size="11.00" fill="#000000">&lt; 2</text>
<polygon fill="#ffffff" stroke="transparent" points="568,-42.2 568,-61.2 609,-61.2 609,-42.2 568,-42.2"/>
<polygon fill="none" stroke="#000000" points="568,-42.2 568,-61.2 609,-61.2 609,-42.2 568,-42.2"/>
<text text-anchor="start" x="573.6105" y="-48.3" font-family="Helvetica,sans-Serif" font-size="11.00" fill="#000000">0 rows</text>
<polygon fill="#ffffff" stroke="transparent" points="609,-42.2 609,-61.2 633,-61.2 633,-42.2 609,-42.2"/>
<polygon fill="none" stroke="#000000" points="609,-42.2 609,-61.2 633,-61.2 633,-42.2 609,-42.2"/>
<text text-anchor="start" x="614.4053" y="-48.3" font-family="Helvetica,sans-Serif" font-size="11.00" fill="#000000">1 &gt;</text>
</a>
</g>
</g>
<!-- inventory&#45;&gt;store -->
<g id="edge3" class="edge">
<title>inventory:w&#45;&gt;store:e</title>
<path fill="none" stroke="#000000" d="M527.2382,-95.6793C512.9517,-107.0615 514.3247,-136.2 490,-136.2"/>
<polygon fill="#000000" stroke="#000000" points="533.3928,-93.6761 542.1142,-94.6232 537.1964,-92.438 541,-91.2 541,-91.2 541,-91.2 537.1964,-92.438 539.8858,-87.7768 533.3928,-93.6761 533.3928,-93.6761"/>
<ellipse fill="none" stroke="#000000" cx="530.3499" cy="-94.6665" rx="3.2" ry="3.2"/>
</g>
<!-- staff&#45;&gt;address -->
<g id="edge4" class="edge">
<title>staff:w&#45;&gt;address:e</title>
<path fill="none" stroke="#000000" d="M133.9909,-158.2C122.6774,-158.2 115.4931,-158.2 99.5,-158.2"/>
<polygon fill="#000000" stroke="#000000" points="140.5,-158.2001 148.5,-161.8 144.5,-158.2 148.5,-158.2 148.5,-158.2 148.5,-158.2 144.5,-158.2 148.5,-154.6 140.5,-158.2001 140.5,-158.2001"/>
<ellipse fill="none" stroke="#000000" cx="137.3" cy="-158.2001" rx="3.2" ry="3.2"/>
</g>
<!-- staff&#45;&gt;store -->
<g id="edge5" class="edge">
<title>staff:w&#45;&gt;store:e</title>
<path fill="none" stroke="#000000" d="M135.7069,-129.2596C129.6267,-117.9701 136.5123,-95.6877 148.5,-83.7 163.3492,-68.8508 222.115,-81.505 243,-83.7 243,-83.7 490,-136.2 490,-136.2"/>
<polygon fill="#000000" stroke="#000000" points="141.4682,-132.3851 146.7833,-139.3643 144.9841,-134.2926 148.5,-136.2 148.5,-136.2 148.5,-136.2 144.9841,-134.2926 150.2167,-133.0357 141.4682,-132.3851 141.4682,-132.3851"/>
<ellipse fill="none" stroke="#000000" cx="138.6554" cy="-130.8591" rx="3.2" ry="3.2"/>
</g>
</g>
</svg>
