<?xml version="1.0" encoding="UTF-8" standalone="no"?>
<!DOCTYPE svg PUBLIC "-//W3C//DTD SVG 1.1//EN"
 "http://www.w3.org/Graphics/SVG/1.1/DTD/svg11.dtd">
<!-- Generated by graphviz version 2.40.1 (20161225.0304)
 -->
<!-- Title: oneDegreeRelationshipsDiagram Pages: 1 -->
<svg width="508pt" height="214pt"
 viewBox="0.00 0.00 508.00 214.20" xmlns="http://www.w3.org/2000/svg" xmlns:xlink="http://www.w3.org/1999/xlink">
<g id="graph0" class="graph" transform="scale(1 1) rotate(0) translate(4 210.2)">
<title>oneDegreeRelationshipsDiagram</title>
<polygon fill="#ffffff" stroke="transparent" points="-4,4 -4,-210.2 504,-210.2 504,4 -4,4"/>
<text text-anchor="middle" x="72.4936" y="-7.3" font-family="Helvetica,sans-Serif" font-size="11.00" fill="#000000">Generated by SchemaSpy</text>
<!-- staff -->
<g id="node1" class="node">
<title>staff</title>
<g id="a_node1"><a xlink:href="../../tables/staff.html" xlink:title="staff" target="_top">
<polygon fill="#ffffff" stroke="transparent" points="148,-97.2 148,-202.2 235,-202.2 235,-97.2 148,-97.2"/>
<polygon fill="#f5f5f5" stroke="transparent" points="148.5,-178.7 148.5,-201.7 235.5,-201.7 235.5,-178.7 148.5,-178.7"/>
<polygon fill="none" stroke="#000000" points="148.5,-178.7 148.5,-201.7 235.5,-201.7 235.5,-178.7 148.5,-178.7"/>
<text text-anchor="start" x="153.5" y="-187.8" font-family="Helvetica,sans-Serif" font-weight="bold" font-size="11.00" fill="#000000">staff</text>
<text text-anchor="start" x="200.5437" y="-186.8" font-family="Helvetica,sans-Serif" font-size="11.00" fill="#000000">[table]</text>
<polygon fill="none" stroke="#000000" points="148.5,-156.7 148.5,-178.7 235.5,-178.7 235.5,-156.7 148.5,-156.7"/>
<image xlink:href="../../images/primaryKeys.png" width="11px" height="12px" preserveAspectRatio="xMinYMin meet" x="153.5" y="-173.7"/>
<text text-anchor="start" x="168.5" y="-163.8" font-family="Helvetica,sans-Serif" font-size="11.00" fill="#000000">staff_id</text>
<polygon fill="none" stroke="#000000" points="148.5,-134.7 148.5,-156.7 235.5,-156.7 235.5,-134.7 148.5,-134.7"/>
<image xlink:href="../../images/foreignKeys.png" width="11px" height="12px" preserveAspectRatio="xMinYMin meet" x="153.5" y="-151.7"/>
<text text-anchor="start" x="168.5" y="-141.8" font-family="Helvetica,sans-Serif" font-size="11.00" fill="#000000">address_id</text>
<polygon fill="none" stroke="#000000" points="148.5,-115.7 148.5,-134.7 235.5,-134.7 235.5,-115.7 148.5,-115.7"/>
<text text-anchor="start" x="151.5" y="-121.8" font-family="Helvetica,sans-Serif" font-size="11.00" fill="#000000">...</text>
<polygon fill="#ffffff" stroke="transparent" points="148.5,-96.7 148.5,-115.7 172.5,-115.7 172.5,-96.7 148.5,-96.7"/>
<polygon fill="none" stroke="#000000" points="148.5,-96.7 148.5,-115.7 172.5,-115.7 172.5,-96.7 148.5,-96.7"/>
<text text-anchor="start" x="151.5" y="-102.8" font-family="Helvetica,sans-Serif" font-size="11.00" fill="#000000">&lt; 1</text>
<polygon fill="#ffffff" stroke="transparent" points="172.5,-96.7 172.5,-115.7 212.5,-115.7 212.5,-96.7 172.5,-96.7"/>
<polygon fill="none" stroke="#000000" points="172.5,-96.7 172.5,-115.7 212.5,-115.7 212.5,-96.7 172.5,-96.7"/>
<text text-anchor="start" x="177.1105" y="-102.8" font-family="Helvetica,sans-Serif" font-size="11.00" fill="#000000">0 rows</text>
<polygon fill="#ffffff" stroke="transparent" points="212.5,-96.7 212.5,-115.7 235.5,-115.7 235.5,-96.7 212.5,-96.7"/>
<polygon fill="none" stroke="#000000" points="212.5,-96.7 212.5,-115.7 235.5,-115.7 235.5,-96.7 212.5,-96.7"/>
<text text-anchor="start" x="216.9053" y="-102.8" font-family="Helvetica,sans-Serif" font-size="11.00" fill="#000000">3 &gt;</text>
</a>
</g>
</g>
<!-- address -->
<g id="node2" class="node">
<title>address</title>
<g id="a_node2"><a xlink:href="../../tables/address.html" xlink:title="address" target="_top">
<polygon fill="#ffffff" stroke="transparent" points="8,-38.2 8,-143.2 99,-143.2 99,-38.2 8,-38.2"/>
<polygon fill="#f5f5f5" stroke="transparent" points="8.5,-119.7 8.5,-142.7 99.5,-142.7 99.5,-119.7 8.5,-119.7"/>
<polygon fill="none" stroke="#000000" points="8.5,-119.7 8.5,-142.7 99.5,-142.7 99.5,-119.7 8.5,-119.7"/>
<text text-anchor="start" x="13.5" y="-128.8" font-family="Helvetica,sans-Serif" font-weight="bold" font-size="11.00" fill="#000000">address</text>
<text text-anchor="start" x="64.5437" y="-127.8" font-family="Helvetica,sans-Serif" font-size="11.00" fill="#000000">[table]</text>
<polygon fill="none" stroke="#000000" points="8.5,-97.7 8.5,-119.7 99.5,-119.7 99.5,-97.7 8.5,-97.7"/>
<image xlink:href="../../images/primaryKeys.png" width="11px" height="12px" preserveAspectRatio="xMinYMin meet" x="13.5" y="-114.7"/>
<text text-anchor="start" x="28.5" y="-104.8" font-family="Helvetica,sans-Serif" font-size="11.00" fill="#000000">address_id</text>
<polygon fill="#ffffff" stroke="transparent" points="8.5,-75.7 8.5,-97.7 99.5,-97.7 99.5,-75.7 8.5,-75.7"/>
<polygon fill="none" stroke="#000000" points="8.5,-75.7 8.5,-97.7 99.5,-97.7 99.5,-75.7 8.5,-75.7"/>
<image xlink:href="../../images/foreignKeys.png" width="11px" height="12px" preserveAspectRatio="xMinYMin meet" x="13.5" y="-92.7"/>
<text text-anchor="start" x="28.5" y="-82.8" font-family="Helvetica,sans-Serif" font-size="11.00" fill="#000000">city_id</text>
<polygon fill="none" stroke="#000000" points="8.5,-56.7 8.5,-75.7 99.5,-75.7 99.5,-56.7 8.5,-56.7"/>
<text text-anchor="start" x="11.5" y="-62.8" font-family="Helvetica,sans-Serif" font-size="11.00" fill="#000000">...</text>
<polygon fill="#ffffff" stroke="transparent" points="8.5,-37.7 8.5,-56.7 34.5,-56.7 34.5,-37.7 8.5,-37.7"/>
<polygon fill="none" stroke="#000000" points="8.5,-37.7 8.5,-56.7 34.5,-56.7 34.5,-37.7 8.5,-37.7"/>
<text text-anchor="start" x="11.5" y="-43.8" font-family="Helvetica,sans-Serif" font-size="11.00" fill="#000000">&lt; 1</text>
<polygon fill="#ffffff" stroke="transparent" points="34.5,-37.7 34.5,-56.7 75.5,-56.7 75.5,-37.7 34.5,-37.7"/>
<polygon fill="none" stroke="#000000" points="34.5,-37.7 34.5,-56.7 75.5,-56.7 75.5,-37.7 34.5,-37.7"/>
<text text-anchor="start" x="40.1105" y="-43.8" font-family="Helvetica,sans-Serif" font-size="11.00" fill="#000000">0 rows</text>
<polygon fill="#ffffff" stroke="transparent" points="75.5,-37.7 75.5,-56.7 99.5,-56.7 99.5,-37.7 75.5,-37.7"/>
<polygon fill="none" stroke="#000000" points="75.5,-37.7 75.5,-56.7 99.5,-56.7 99.5,-37.7 75.5,-37.7"/>
<text text-anchor="start" x="80.9053" y="-43.8" font-family="Helvetica,sans-Serif" font-size="11.00" fill="#000000">3 &gt;</text>
</a>
</g>
</g>
<!-- staff&#45;&gt;address -->
<g id="edge1" class="edge">
<title>staff:w&#45;&gt;address:e</title>
<path fill="none" stroke="#000000" d="M134.6217,-141.1631C122.0786,-131.283 120.8196,-108.7 99.5,-108.7"/>
<polygon fill="#000000" stroke="#000000" points="140.896,-143.2142 147.3814,-149.1218 144.698,-144.4571 148.5,-145.7 148.5,-145.7 148.5,-145.7 144.698,-144.4571 149.6186,-142.2782 140.896,-143.2142 140.896,-143.2142"/>
<ellipse fill="none" stroke="#000000" cx="137.8544" cy="-142.2198" rx="3.2" ry="3.2"/>
</g>
<!-- store -->
<g id="node3" class="node">
<title>store</title>
<g id="a_node3"><a xlink:href="../../tables/store.html" xlink:title="store" target="_top">
<polygon fill="#ffffff" stroke="transparent" points="284,-54.7 284,-188.7 492,-188.7 492,-54.7 284,-54.7"/>
<polygon fill="#f5f5f5" stroke="transparent" points="286,-163.7 286,-186.7 490,-186.7 490,-163.7 286,-163.7"/>
<polygon fill="none" stroke="#000000" points="286,-163.7 286,-186.7 490,-186.7 490,-163.7 286,-163.7"/>
<text text-anchor="start" x="291" y="-172.8" font-family="Helvetica,sans-Serif" font-weight="bold" font-size="11.00" fill="#000000">store</text>
<text text-anchor="start" x="455.0437" y="-171.8" font-family="Helvetica,sans-Serif" font-size="11.00" fill="#000000">[table]</text>
<polygon fill="none" stroke="#000000" points="286,-141.7 286,-163.7 406,-163.7 406,-141.7 286,-141.7"/>
<image xlink:href="../../images/primaryKeys.png" width="11px" height="12px" preserveAspectRatio="xMinYMin meet" x="291" y="-158.7"/>
<text text-anchor="start" x="306" y="-148.8" font-family="Helvetica,sans-Serif" font-size="11.00" fill="#000000">store_id</text>
<polygon fill="none" stroke="#000000" points="406,-141.7 406,-163.7 490,-163.7 490,-141.7 406,-141.7"/>
<text text-anchor="start" x="409" y="-149.4" font-family="Helvetica,sans-Serif" font-size="11.00" fill="#000000">serial[10]</text>
<polygon fill="#ffffff" stroke="transparent" points="286,-119.7 286,-141.7 406,-141.7 406,-119.7 286,-119.7"/>
<polygon fill="none" stroke="#000000" points="286,-119.7 286,-141.7 406,-141.7 406,-119.7 286,-119.7"/>
<image xlink:href="../../images/foreignKeys.png" width="11px" height="12px" preserveAspectRatio="xMinYMin meet" x="291" y="-136.7"/>
<text text-anchor="start" x="306" y="-126.8" font-family="Helvetica,sans-Serif" font-size="11.00" fill="#000000">manager_staff_id</text>
<polygon fill="none" stroke="#000000" points="406,-119.7 406,-141.7 490,-141.7 490,-119.7 406,-119.7"/>
<text text-anchor="start" x="409" y="-127.4" font-family="Helvetica,sans-Serif" font-size="11.00" fill="#000000">int2[5]</text>
<polygon fill="none" stroke="#000000" points="286,-97.7 286,-119.7 406,-119.7 406,-97.7 286,-97.7"/>
<image xlink:href="../../images/foreignKeys.png" width="11px" height="12px" preserveAspectRatio="xMinYMin meet" x="291" y="-114.7"/>
<text text-anchor="start" x="306" y="-104.8" font-family="Helvetica,sans-Serif" font-size="11.00" fill="#000000">address_id</text>
<polygon fill="none" stroke="#000000" points="406,-97.7 406,-119.7 490,-119.7 490,-97.7 406,-97.7"/>
<text text-anchor="start" x="409" y="-105.4" font-family="Helvetica,sans-Serif" font-size="11.00" fill="#000000">int2[5]</text>
<polygon fill="none" stroke="#000000" points="286,-75.7 286,-97.7 406,-97.7 406,-75.7 286,-75.7"/>
<text text-anchor="start" x="306" y="-82.8" font-family="Helvetica,sans-Serif" font-size="11.00" fill="#000000">last_update</text>
<polygon fill="none" stroke="#000000" points="406,-75.7 406,-97.7 490,-97.7 490,-75.7 406,-75.7"/>
<text text-anchor="start" x="408.8807" y="-83.4" font-family="Helvetica,sans-Serif" font-size="11.00" fill="#000000">timestamp[29,6]</text>
<polygon fill="#ffffff" stroke="transparent" points="286,-56.7 286,-75.7 337,-75.7 337,-56.7 286,-56.7"/>
<polygon fill="none" stroke="#000000" points="286,-56.7 286,-75.7 337,-75.7 337,-56.7 286,-56.7"/>
<text text-anchor="start" x="289" y="-62.8" font-family="Helvetica,sans-Serif" font-size="11.00" fill="#000000">&lt; 2</text>
<polygon fill="#ffffff" stroke="transparent" points="337,-56.7 337,-75.7 406,-75.7 406,-56.7 337,-56.7"/>
<polygon fill="none" stroke="#000000" points="337,-56.7 337,-75.7 406,-75.7 406,-56.7 337,-56.7"/>
<text text-anchor="start" x="370.6105" y="-62.8" font-family="Helvetica,sans-Serif" font-size="11.00" fill="#000000">0 rows</text>
<polygon fill="#ffffff" stroke="transparent" points="406,-56.7 406,-75.7 490,-75.7 490,-56.7 406,-56.7"/>
<polygon fill="none" stroke="#000000" points="406,-56.7 406,-75.7 490,-75.7 490,-56.7 406,-56.7"/>
<text text-anchor="start" x="471.4053" y="-62.8" font-family="Helvetica,sans-Serif" font-size="11.00" fill="#000000">0 &gt;</text>
<polygon fill="none" stroke="#000000" stroke-width="2" points="285,-55.7 285,-187.7 491,-187.7 491,-55.7 285,-55.7"/>
</a>
</g>
</g>
<!-- store&#45;&gt;staff -->
<g id="edge3" class="edge">
<title>store:w&#45;&gt;staff:e</title>
<path fill="none" stroke="#000000" d="M275.5734,-132.9037C258.9778,-140.8691 259.1938,-167.7 235.5,-167.7"/>
<polygon fill="#000000" stroke="#000000" points="284.3901,-126.9519 286.0445,-134.779 284.4791,-135.1099 282.8247,-127.2828 284.3901,-126.9519"/>
<polyline fill="none" stroke="#000000" points="286,-130.7 282.0865,-131.5272 "/>
<ellipse fill="none" stroke="#000000" cx="278.9556" cy="-132.1889" rx="3.2" ry="3.2"/>
</g>
<!-- store&#45;&gt;address -->
<g id="edge2" class="edge">
<title>store:w&#45;&gt;address:e</title>
<path fill="none" stroke="#000000" d="M271.9116,-105.3159C262.5615,-100.0984 258.0002,-90.3145 243,-86.7 198.496,-75.9763 184.3681,-75.4273 140,-86.7 120.1465,-91.7442 119.9843,-108.7 99.5,-108.7"/>
<polygon fill="#000000" stroke="#000000" points="278.2213,-106.8315 285.1592,-112.2004 282.1106,-107.7657 286,-108.7 286,-108.7 286,-108.7 282.1106,-107.7657 286.8408,-105.1996 278.2213,-106.8315 278.2213,-106.8315"/>
<ellipse fill="none" stroke="#000000" cx="275.1098" cy="-106.0841" rx="3.2" ry="3.2"/>
</g>
</g>
</svg>
