<?xml version="1.0" encoding="UTF-8" standalone="no"?>
<!DOCTYPE svg PUBLIC "-//W3C//DTD SVG 1.1//EN"
 "http://www.w3.org/Graphics/SVG/1.1/DTD/svg11.dtd">
<!-- Generated by graphviz version 2.40.1 (20161225.0304)
 -->
<!-- Title: twoDegreesRelationshipsDiagram Pages: 1 -->
<svg width="1096pt" height="659pt"
 viewBox="0.00 0.00 1096.00 658.91" xmlns="http://www.w3.org/2000/svg" xmlns:xlink="http://www.w3.org/1999/xlink">
<g id="graph0" class="graph" transform="scale(1 1) rotate(0) translate(4 654.9088)">
<title>twoDegreesRelationshipsDiagram</title>
<polygon fill="#ffffff" stroke="transparent" points="-4,4 -4,-654.9088 1092,-654.9088 1092,4 -4,4"/>
<text text-anchor="middle" x="72.4936" y="-7.3" font-family="Helvetica,sans-Serif" font-size="11.00" fill="#000000">Generated by SchemaSpy</text>
<!-- address -->
<g id="node1" class="node">
<title>address</title>
<g id="a_node1"><a xlink:href="../../tables/address.html" xlink:title="address" target="_top">
<polygon fill="#ffffff" stroke="transparent" points="137,-90.8553 137,-195.8553 228,-195.8553 228,-90.8553 137,-90.8553"/>
<polygon fill="#f5f5f5" stroke="transparent" points="137.5,-172.3553 137.5,-195.3553 228.5,-195.3553 228.5,-172.3553 137.5,-172.3553"/>
<polygon fill="none" stroke="#000000" points="137.5,-172.3553 137.5,-195.3553 228.5,-195.3553 228.5,-172.3553 137.5,-172.3553"/>
<text text-anchor="start" x="142.5" y="-181.4553" font-family="Helvetica,sans-Serif" font-weight="bold" font-size="11.00" fill="#000000">address</text>
<text text-anchor="start" x="193.5437" y="-180.4553" font-family="Helvetica,sans-Serif" font-size="11.00" fill="#000000">[table]</text>
<polygon fill="none" stroke="#000000" points="137.5,-150.3553 137.5,-172.3553 228.5,-172.3553 228.5,-150.3553 137.5,-150.3553"/>
<image xlink:href="../../images/primaryKeys.png" width="11px" height="12px" preserveAspectRatio="xMinYMin meet" x="142.5" y="-167.355"/>
<text text-anchor="start" x="157.5" y="-157.4553" font-family="Helvetica,sans-Serif" font-size="11.00" fill="#000000">address_id</text>
<polygon fill="#ffffff" stroke="transparent" points="137.5,-128.3553 137.5,-150.3553 228.5,-150.3553 228.5,-128.3553 137.5,-128.3553"/>
<polygon fill="none" stroke="#000000" points="137.5,-128.3553 137.5,-150.3553 228.5,-150.3553 228.5,-128.3553 137.5,-128.3553"/>
<image xlink:href="../../images/foreignKeys.png" width="11px" height="12px" preserveAspectRatio="xMinYMin meet" x="142.5" y="-145.355"/>
<text text-anchor="start" x="157.5" y="-135.4553" font-family="Helvetica,sans-Serif" font-size="11.00" fill="#000000">city_id</text>
<polygon fill="none" stroke="#000000" points="137.5,-109.3553 137.5,-128.3553 228.5,-128.3553 228.5,-109.3553 137.5,-109.3553"/>
<text text-anchor="start" x="140.5" y="-115.4553" font-family="Helvetica,sans-Serif" font-size="11.00" fill="#000000">...</text>
<polygon fill="#ffffff" stroke="transparent" points="137.5,-90.3553 137.5,-109.3553 163.5,-109.3553 163.5,-90.3553 137.5,-90.3553"/>
<polygon fill="none" stroke="#000000" points="137.5,-90.3553 137.5,-109.3553 163.5,-109.3553 163.5,-90.3553 137.5,-90.3553"/>
<text text-anchor="start" x="140.5" y="-96.4553" font-family="Helvetica,sans-Serif" font-size="11.00" fill="#000000">&lt; 1</text>
<polygon fill="#ffffff" stroke="transparent" points="163.5,-90.3553 163.5,-109.3553 204.5,-109.3553 204.5,-90.3553 163.5,-90.3553"/>
<polygon fill="none" stroke="#000000" points="163.5,-90.3553 163.5,-109.3553 204.5,-109.3553 204.5,-90.3553 163.5,-90.3553"/>
<text text-anchor="start" x="169.1105" y="-96.4553" font-family="Helvetica,sans-Serif" font-size="11.00" fill="#000000">0 rows</text>
<polygon fill="#ffffff" stroke="transparent" points="204.5,-90.3553 204.5,-109.3553 228.5,-109.3553 228.5,-90.3553 204.5,-90.3553"/>
<polygon fill="none" stroke="#000000" points="204.5,-90.3553 204.5,-109.3553 228.5,-109.3553 228.5,-90.3553 204.5,-90.3553"/>
<text text-anchor="start" x="209.9053" y="-96.4553" font-family="Helvetica,sans-Serif" font-size="11.00" fill="#000000">3 &gt;</text>
</a>
</g>
</g>
<!-- city -->
<g id="node2" class="node">
<title>city</title>
<g id="a_node2"><a xlink:href="../../tables/city.html" xlink:title="city" target="_top">
<polygon fill="#ffffff" stroke="transparent" points="8,-111.8553 8,-172.8553 88,-172.8553 88,-111.8553 8,-111.8553"/>
<polygon fill="#f5f5f5" stroke="transparent" points="8,-149.3553 8,-172.3553 88,-172.3553 88,-149.3553 8,-149.3553"/>
<polygon fill="none" stroke="#000000" points="8,-149.3553 8,-172.3553 88,-172.3553 88,-149.3553 8,-149.3553"/>
<text text-anchor="start" x="13" y="-158.4553" font-family="Helvetica,sans-Serif" font-weight="bold" font-size="11.00" fill="#000000">city</text>
<text text-anchor="start" x="53.0437" y="-157.4553" font-family="Helvetica,sans-Serif" font-size="11.00" fill="#000000">[table]</text>
<polygon fill="none" stroke="#000000" points="8,-130.3553 8,-149.3553 88,-149.3553 88,-130.3553 8,-130.3553"/>
<text text-anchor="start" x="11" y="-136.4553" font-family="Helvetica,sans-Serif" font-size="11.00" fill="#000000">...</text>
<polygon fill="#ffffff" stroke="transparent" points="8,-111.3553 8,-130.3553 29,-130.3553 29,-111.3553 8,-111.3553"/>
<polygon fill="none" stroke="#000000" points="8,-111.3553 8,-130.3553 29,-130.3553 29,-111.3553 8,-111.3553"/>
<text text-anchor="start" x="10.7027" y="-117.4553" font-family="Helvetica,sans-Serif" font-size="11.00" fill="#000000">&lt; 1</text>
<polygon fill="#ffffff" stroke="transparent" points="29,-111.3553 29,-130.3553 67,-130.3553 67,-111.3553 29,-111.3553"/>
<polygon fill="none" stroke="#000000" points="29,-111.3553 29,-130.3553 67,-130.3553 67,-111.3553 29,-111.3553"/>
<text text-anchor="start" x="31.8053" y="-117.4553" font-family="Helvetica,sans-Serif" font-size="11.00" fill="#000000">0 rows</text>
<polygon fill="#ffffff" stroke="transparent" points="67,-111.3553 67,-130.3553 88,-130.3553 88,-111.3553 67,-111.3553"/>
<polygon fill="none" stroke="#000000" points="67,-111.3553 67,-130.3553 88,-130.3553 88,-111.3553 67,-111.3553"/>
<text text-anchor="start" x="69.7027" y="-117.4553" font-family="Helvetica,sans-Serif" font-size="11.00" fill="#000000">1 &gt;</text>
</a>
</g>
</g>
<!-- address&#45;&gt;city -->
<g id="edge1" class="edge">
<title>address:w&#45;&gt;city:e</title>
<path fill="none" stroke="#000000" d="M122.8428,-139.3553C111.4139,-139.3553 104.1563,-139.3553 88,-139.3553"/>
<polygon fill="#000000" stroke="#000000" points="129.5,-139.3553 137.5,-142.9553 133.5,-139.3553 137.5,-139.3553 137.5,-139.3553 137.5,-139.3553 133.5,-139.3553 137.5,-135.7553 129.5,-139.3553 129.5,-139.3553"/>
<ellipse fill="none" stroke="#000000" cx="126.3" cy="-139.3553" rx="3.2" ry="3.2"/>
</g>
<!-- customer -->
<g id="node3" class="node">
<title>customer</title>
<g id="a_node3"><a xlink:href="../../tables/customer.html" xlink:title="customer" target="_top">
<polygon fill="#ffffff" stroke="transparent" points="670,-161.8553 670,-310.8553 762,-310.8553 762,-161.8553 670,-161.8553"/>
<polygon fill="#f5f5f5" stroke="transparent" points="670,-287.3553 670,-310.3553 762,-310.3553 762,-287.3553 670,-287.3553"/>
<polygon fill="none" stroke="#000000" points="670,-287.3553 670,-310.3553 762,-310.3553 762,-287.3553 670,-287.3553"/>
<text text-anchor="start" x="675" y="-296.4553" font-family="Helvetica,sans-Serif" font-weight="bold" font-size="11.00" fill="#000000">customer</text>
<text text-anchor="start" x="727.0437" y="-295.4553" font-family="Helvetica,sans-Serif" font-size="11.00" fill="#000000">[table]</text>
<polygon fill="none" stroke="#000000" points="670,-265.3553 670,-287.3553 762,-287.3553 762,-265.3553 670,-265.3553"/>
<image xlink:href="../../images/primaryKeys.png" width="11px" height="12px" preserveAspectRatio="xMinYMin meet" x="675" y="-282.355"/>
<text text-anchor="start" x="690" y="-272.4553" font-family="Helvetica,sans-Serif" font-size="11.00" fill="#000000">customer_id</text>
<polygon fill="#ffffff" stroke="transparent" points="670,-243.3553 670,-265.3553 762,-265.3553 762,-243.3553 670,-243.3553"/>
<polygon fill="none" stroke="#000000" points="670,-243.3553 670,-265.3553 762,-265.3553 762,-243.3553 670,-243.3553"/>
<image xlink:href="../../images/foreignKeys.png" width="11px" height="12px" preserveAspectRatio="xMinYMin meet" x="675" y="-260.355"/>
<text text-anchor="start" x="690" y="-250.4553" font-family="Helvetica,sans-Serif" font-size="11.00" fill="#000000">store_id</text>
<polygon fill="#ffffff" stroke="transparent" points="670,-221.3553 670,-243.3553 762,-243.3553 762,-221.3553 670,-221.3553"/>
<polygon fill="none" stroke="#000000" points="670,-221.3553 670,-243.3553 762,-243.3553 762,-221.3553 670,-221.3553"/>
<text text-anchor="start" x="690" y="-228.4553" font-family="Helvetica,sans-Serif" font-size="11.00" fill="#000000">last_name</text>
<polygon fill="#ffffff" stroke="transparent" points="670,-199.3553 670,-221.3553 762,-221.3553 762,-199.3553 670,-199.3553"/>
<polygon fill="none" stroke="#000000" points="670,-199.3553 670,-221.3553 762,-221.3553 762,-199.3553 670,-199.3553"/>
<image xlink:href="../../images/foreignKeys.png" width="11px" height="12px" preserveAspectRatio="xMinYMin meet" x="675" y="-216.355"/>
<text text-anchor="start" x="690" y="-206.4553" font-family="Helvetica,sans-Serif" font-size="11.00" fill="#000000">address_id</text>
<polygon fill="none" stroke="#000000" points="670,-180.3553 670,-199.3553 762,-199.3553 762,-180.3553 670,-180.3553"/>
<text text-anchor="start" x="673" y="-186.4553" font-family="Helvetica,sans-Serif" font-size="11.00" fill="#000000">...</text>
<polygon fill="#ffffff" stroke="transparent" points="670,-161.3553 670,-180.3553 697,-180.3553 697,-161.3553 670,-161.3553"/>
<polygon fill="none" stroke="#000000" points="670,-161.3553 670,-180.3553 697,-180.3553 697,-161.3553 670,-161.3553"/>
<text text-anchor="start" x="673" y="-167.4553" font-family="Helvetica,sans-Serif" font-size="11.00" fill="#000000">&lt; 2</text>
<polygon fill="#ffffff" stroke="transparent" points="697,-161.3553 697,-180.3553 738,-180.3553 738,-161.3553 697,-161.3553"/>
<polygon fill="none" stroke="#000000" points="697,-161.3553 697,-180.3553 738,-180.3553 738,-161.3553 697,-161.3553"/>
<text text-anchor="start" x="702.6105" y="-167.4553" font-family="Helvetica,sans-Serif" font-size="11.00" fill="#000000">0 rows</text>
<polygon fill="#ffffff" stroke="transparent" points="738,-161.3553 738,-180.3553 762,-180.3553 762,-161.3553 738,-161.3553"/>
<polygon fill="none" stroke="#000000" points="738,-161.3553 738,-180.3553 762,-180.3553 762,-161.3553 738,-161.3553"/>
<text text-anchor="start" x="743.4053" y="-167.4553" font-family="Helvetica,sans-Serif" font-size="11.00" fill="#000000">8 &gt;</text>
</a>
</g>
</g>
<!-- customer&#45;&gt;address -->
<g id="edge2" class="edge">
<title>customer:w&#45;&gt;address:e</title>
<path fill="none" stroke="#000000" d="M655.7584,-207.3804C628.0189,-192.3645 667.7926,-124.5472 629,-97.3553 547.4776,-40.2116 503.0535,-80.1267 405,-97.3553 322.8167,-111.7954 311.9423,-161.3553 228.5,-161.3553"/>
<polygon fill="#000000" stroke="#000000" points="662.169,-208.7194 669.2639,-213.8792 666.0845,-209.5374 670,-210.3553 670,-210.3553 670,-210.3553 666.0845,-209.5374 670.7361,-206.8313 662.169,-208.7194 662.169,-208.7194"/>
<ellipse fill="none" stroke="#000000" cx="659.0366" cy="-208.0651" rx="3.2" ry="3.2"/>
</g>
<!-- store -->
<g id="node4" class="node">
<title>store</title>
<g id="a_node4"><a xlink:href="../../tables/store.html" xlink:title="store" target="_top">
<polygon fill="#ffffff" stroke="transparent" points="413,-107.3553 413,-241.3553 621,-241.3553 621,-107.3553 413,-107.3553"/>
<polygon fill="#f5f5f5" stroke="transparent" points="415,-216.3553 415,-239.3553 619,-239.3553 619,-216.3553 415,-216.3553"/>
<polygon fill="none" stroke="#000000" points="415,-216.3553 415,-239.3553 619,-239.3553 619,-216.3553 415,-216.3553"/>
<text text-anchor="start" x="420" y="-225.4553" font-family="Helvetica,sans-Serif" font-weight="bold" font-size="11.00" fill="#000000">store</text>
<text text-anchor="start" x="584.0437" y="-224.4553" font-family="Helvetica,sans-Serif" font-size="11.00" fill="#000000">[table]</text>
<polygon fill="none" stroke="#000000" points="415,-194.3553 415,-216.3553 535,-216.3553 535,-194.3553 415,-194.3553"/>
<image xlink:href="../../images/primaryKeys.png" width="11px" height="12px" preserveAspectRatio="xMinYMin meet" x="420" y="-211.355"/>
<text text-anchor="start" x="435" y="-201.4553" font-family="Helvetica,sans-Serif" font-size="11.00" fill="#000000">store_id</text>
<polygon fill="none" stroke="#000000" points="535,-194.3553 535,-216.3553 619,-216.3553 619,-194.3553 535,-194.3553"/>
<text text-anchor="start" x="538" y="-202.0553" font-family="Helvetica,sans-Serif" font-size="11.00" fill="#000000">serial[10]</text>
<polygon fill="#ffffff" stroke="transparent" points="415,-172.3553 415,-194.3553 535,-194.3553 535,-172.3553 415,-172.3553"/>
<polygon fill="none" stroke="#000000" points="415,-172.3553 415,-194.3553 535,-194.3553 535,-172.3553 415,-172.3553"/>
<image xlink:href="../../images/foreignKeys.png" width="11px" height="12px" preserveAspectRatio="xMinYMin meet" x="420" y="-189.355"/>
<text text-anchor="start" x="435" y="-179.4553" font-family="Helvetica,sans-Serif" font-size="11.00" fill="#000000">manager_staff_id</text>
<polygon fill="none" stroke="#000000" points="535,-172.3553 535,-194.3553 619,-194.3553 619,-172.3553 535,-172.3553"/>
<text text-anchor="start" x="538" y="-180.0553" font-family="Helvetica,sans-Serif" font-size="11.00" fill="#000000">int2[5]</text>
<polygon fill="none" stroke="#000000" points="415,-150.3553 415,-172.3553 535,-172.3553 535,-150.3553 415,-150.3553"/>
<image xlink:href="../../images/foreignKeys.png" width="11px" height="12px" preserveAspectRatio="xMinYMin meet" x="420" y="-167.355"/>
<text text-anchor="start" x="435" y="-157.4553" font-family="Helvetica,sans-Serif" font-size="11.00" fill="#000000">address_id</text>
<polygon fill="none" stroke="#000000" points="535,-150.3553 535,-172.3553 619,-172.3553 619,-150.3553 535,-150.3553"/>
<text text-anchor="start" x="538" y="-158.0553" font-family="Helvetica,sans-Serif" font-size="11.00" fill="#000000">int2[5]</text>
<polygon fill="none" stroke="#000000" points="415,-128.3553 415,-150.3553 535,-150.3553 535,-128.3553 415,-128.3553"/>
<text text-anchor="start" x="435" y="-135.4553" font-family="Helvetica,sans-Serif" font-size="11.00" fill="#000000">last_update</text>
<polygon fill="none" stroke="#000000" points="535,-128.3553 535,-150.3553 619,-150.3553 619,-128.3553 535,-128.3553"/>
<text text-anchor="start" x="537.8807" y="-136.0553" font-family="Helvetica,sans-Serif" font-size="11.00" fill="#000000">timestamp[29,6]</text>
<polygon fill="#ffffff" stroke="transparent" points="415,-109.3553 415,-128.3553 466,-128.3553 466,-109.3553 415,-109.3553"/>
<polygon fill="none" stroke="#000000" points="415,-109.3553 415,-128.3553 466,-128.3553 466,-109.3553 415,-109.3553"/>
<text text-anchor="start" x="418" y="-115.4553" font-family="Helvetica,sans-Serif" font-size="11.00" fill="#000000">&lt; 2</text>
<polygon fill="#ffffff" stroke="transparent" points="466,-109.3553 466,-128.3553 535,-128.3553 535,-109.3553 466,-109.3553"/>
<polygon fill="none" stroke="#000000" points="466,-109.3553 466,-128.3553 535,-128.3553 535,-109.3553 466,-109.3553"/>
<text text-anchor="start" x="499.6105" y="-115.4553" font-family="Helvetica,sans-Serif" font-size="11.00" fill="#000000">0 rows</text>
<polygon fill="#ffffff" stroke="transparent" points="535,-109.3553 535,-128.3553 619,-128.3553 619,-109.3553 535,-109.3553"/>
<polygon fill="none" stroke="#000000" points="535,-109.3553 535,-128.3553 619,-128.3553 619,-109.3553 535,-109.3553"/>
<text text-anchor="start" x="600.4053" y="-115.4553" font-family="Helvetica,sans-Serif" font-size="11.00" fill="#000000">3 &gt;</text>
<polygon fill="none" stroke="#000000" stroke-width="2" points="414,-108.3553 414,-240.3553 620,-240.3553 620,-108.3553 414,-108.3553"/>
</a>
</g>
</g>
<!-- customer&#45;&gt;store -->
<g id="edge3" class="edge">
<title>customer:w&#45;&gt;store:e</title>
<path fill="none" stroke="#000000" d="M656.3147,-249.8333C641.4944,-237.7029 644.5395,-205.3553 619,-205.3553"/>
<polygon fill="#000000" stroke="#000000" points="662.4039,-251.8453 668.8705,-257.7735 666.202,-253.1003 670,-254.3553 670,-254.3553 670,-254.3553 666.202,-253.1003 671.1295,-250.937 662.4039,-251.8453 662.4039,-251.8453"/>
<ellipse fill="none" stroke="#000000" cx="659.3655" cy="-250.8413" rx="3.2" ry="3.2"/>
</g>
<!-- store&#45;&gt;address -->
<g id="edge32" class="edge">
<title>store:w&#45;&gt;address:e</title>
<path fill="none" stroke="#000000" d="M400.1565,-161.3553C329.278,-161.3553 306.2083,-161.3553 228.5,-161.3553"/>
<polygon fill="#000000" stroke="#000000" points="407,-161.3553 415,-164.9553 411,-161.3553 415,-161.3553 415,-161.3553 415,-161.3553 411,-161.3553 415,-157.7553 407,-161.3553 407,-161.3553"/>
<ellipse fill="none" stroke="#000000" cx="403.8" cy="-161.3553" rx="3.2" ry="3.2"/>
</g>
<!-- staff -->
<g id="node9" class="node">
<title>staff</title>
<g id="a_node9"><a xlink:href="../../tables/staff.html" xlink:title="staff" target="_top">
<polygon fill="#ffffff" stroke="transparent" points="277,-199.8553 277,-326.8553 364,-326.8553 364,-199.8553 277,-199.8553"/>
<polygon fill="#f5f5f5" stroke="transparent" points="277.5,-303.3553 277.5,-326.3553 364.5,-326.3553 364.5,-303.3553 277.5,-303.3553"/>
<polygon fill="none" stroke="#000000" points="277.5,-303.3553 277.5,-326.3553 364.5,-326.3553 364.5,-303.3553 277.5,-303.3553"/>
<text text-anchor="start" x="282.5" y="-312.4553" font-family="Helvetica,sans-Serif" font-weight="bold" font-size="11.00" fill="#000000">staff</text>
<text text-anchor="start" x="329.5437" y="-311.4553" font-family="Helvetica,sans-Serif" font-size="11.00" fill="#000000">[table]</text>
<polygon fill="none" stroke="#000000" points="277.5,-281.3553 277.5,-303.3553 364.5,-303.3553 364.5,-281.3553 277.5,-281.3553"/>
<image xlink:href="../../images/primaryKeys.png" width="11px" height="12px" preserveAspectRatio="xMinYMin meet" x="282.5" y="-298.355"/>
<text text-anchor="start" x="297.5" y="-288.4553" font-family="Helvetica,sans-Serif" font-size="11.00" fill="#000000">staff_id</text>
<polygon fill="none" stroke="#000000" points="277.5,-259.3553 277.5,-281.3553 364.5,-281.3553 364.5,-259.3553 277.5,-259.3553"/>
<image xlink:href="../../images/foreignKeys.png" width="11px" height="12px" preserveAspectRatio="xMinYMin meet" x="282.5" y="-276.355"/>
<text text-anchor="start" x="297.5" y="-266.4553" font-family="Helvetica,sans-Serif" font-size="11.00" fill="#000000">address_id</text>
<polygon fill="none" stroke="#000000" points="277.5,-237.3553 277.5,-259.3553 364.5,-259.3553 364.5,-237.3553 277.5,-237.3553"/>
<image xlink:href="../../images/foreignKeys.png" width="11px" height="12px" preserveAspectRatio="xMinYMin meet" x="282.5" y="-254.355"/>
<text text-anchor="start" x="297.5" y="-244.4553" font-family="Helvetica,sans-Serif" font-size="11.00" fill="#000000">store_id</text>
<polygon fill="none" stroke="#000000" points="277.5,-218.3553 277.5,-237.3553 364.5,-237.3553 364.5,-218.3553 277.5,-218.3553"/>
<text text-anchor="start" x="280.5" y="-224.4553" font-family="Helvetica,sans-Serif" font-size="11.00" fill="#000000">...</text>
<polygon fill="#ffffff" stroke="transparent" points="277.5,-199.3553 277.5,-218.3553 301.5,-218.3553 301.5,-199.3553 277.5,-199.3553"/>
<polygon fill="none" stroke="#000000" points="277.5,-199.3553 277.5,-218.3553 301.5,-218.3553 301.5,-199.3553 277.5,-199.3553"/>
<text text-anchor="start" x="280.5" y="-205.4553" font-family="Helvetica,sans-Serif" font-size="11.00" fill="#000000">&lt; 2</text>
<polygon fill="#ffffff" stroke="transparent" points="301.5,-199.3553 301.5,-218.3553 341.5,-218.3553 341.5,-199.3553 301.5,-199.3553"/>
<polygon fill="none" stroke="#000000" points="301.5,-199.3553 301.5,-218.3553 341.5,-218.3553 341.5,-199.3553 301.5,-199.3553"/>
<text text-anchor="start" x="306.1105" y="-205.4553" font-family="Helvetica,sans-Serif" font-size="11.00" fill="#000000">0 rows</text>
<polygon fill="#ffffff" stroke="transparent" points="341.5,-199.3553 341.5,-218.3553 364.5,-218.3553 364.5,-199.3553 341.5,-199.3553"/>
<polygon fill="none" stroke="#000000" points="341.5,-199.3553 341.5,-218.3553 364.5,-218.3553 364.5,-199.3553 341.5,-199.3553"/>
<text text-anchor="start" x="345.9053" y="-205.4553" font-family="Helvetica,sans-Serif" font-size="11.00" fill="#000000">9 &gt;</text>
</a>
</g>
</g>
<!-- store&#45;&gt;staff -->
<g id="edge33" class="edge">
<title>store:w&#45;&gt;staff:e</title>
<path fill="none" stroke="#000000" d="M404.39,-185.2472C369.7335,-199.7212 413.72,-292.3553 364.5,-292.3553"/>
<polygon fill="#000000" stroke="#000000" points="413.5102,-179.5578 414.9146,-187.4336 413.3395,-187.7145 411.9351,-179.8387 413.5102,-179.5578"/>
<polyline fill="none" stroke="#000000" points="415,-183.3553 411.0621,-184.0575 "/>
<ellipse fill="none" stroke="#000000" cx="407.9118" cy="-184.6192" rx="3.2" ry="3.2"/>
</g>
<!-- inventory -->
<g id="node5" class="node">
<title>inventory</title>
<g id="a_node5"><a xlink:href="../../tables/inventory.html" xlink:title="inventory" target="_top">
<polygon fill="#ffffff" stroke="transparent" points="670,-331.8553 670,-458.8553 762,-458.8553 762,-331.8553 670,-331.8553"/>
<polygon fill="#f5f5f5" stroke="transparent" points="670,-435.3553 670,-458.3553 762,-458.3553 762,-435.3553 670,-435.3553"/>
<polygon fill="none" stroke="#000000" points="670,-435.3553 670,-458.3553 762,-458.3553 762,-435.3553 670,-435.3553"/>
<text text-anchor="start" x="675" y="-444.4553" font-family="Helvetica,sans-Serif" font-weight="bold" font-size="11.00" fill="#000000">inventory</text>
<text text-anchor="start" x="727.0437" y="-443.4553" font-family="Helvetica,sans-Serif" font-size="11.00" fill="#000000">[table]</text>
<polygon fill="none" stroke="#000000" points="670,-413.3553 670,-435.3553 762,-435.3553 762,-413.3553 670,-413.3553"/>
<image xlink:href="../../images/primaryKeys.png" width="11px" height="12px" preserveAspectRatio="xMinYMin meet" x="675" y="-430.355"/>
<text text-anchor="start" x="690" y="-420.4553" font-family="Helvetica,sans-Serif" font-size="11.00" fill="#000000">inventory_id</text>
<polygon fill="#ffffff" stroke="transparent" points="670,-391.3553 670,-413.3553 762,-413.3553 762,-391.3553 670,-391.3553"/>
<polygon fill="none" stroke="#000000" points="670,-391.3553 670,-413.3553 762,-413.3553 762,-391.3553 670,-391.3553"/>
<image xlink:href="../../images/foreignKeys.png" width="11px" height="12px" preserveAspectRatio="xMinYMin meet" x="675" y="-408.355"/>
<text text-anchor="start" x="690" y="-398.4553" font-family="Helvetica,sans-Serif" font-size="11.00" fill="#000000">film_id</text>
<polygon fill="#ffffff" stroke="transparent" points="670,-369.3553 670,-391.3553 762,-391.3553 762,-369.3553 670,-369.3553"/>
<polygon fill="none" stroke="#000000" points="670,-369.3553 670,-391.3553 762,-391.3553 762,-369.3553 670,-369.3553"/>
<image xlink:href="../../images/foreignKeys.png" width="11px" height="12px" preserveAspectRatio="xMinYMin meet" x="675" y="-386.355"/>
<text text-anchor="start" x="690" y="-376.4553" font-family="Helvetica,sans-Serif" font-size="11.00" fill="#000000">store_id</text>
<polygon fill="none" stroke="#000000" points="670,-350.3553 670,-369.3553 762,-369.3553 762,-350.3553 670,-350.3553"/>
<text text-anchor="start" x="673" y="-356.4553" font-family="Helvetica,sans-Serif" font-size="11.00" fill="#000000">...</text>
<polygon fill="#ffffff" stroke="transparent" points="670,-331.3553 670,-350.3553 697,-350.3553 697,-331.3553 670,-331.3553"/>
<polygon fill="none" stroke="#000000" points="670,-331.3553 670,-350.3553 697,-350.3553 697,-331.3553 670,-331.3553"/>
<text text-anchor="start" x="673" y="-337.4553" font-family="Helvetica,sans-Serif" font-size="11.00" fill="#000000">&lt; 2</text>
<polygon fill="#ffffff" stroke="transparent" points="697,-331.3553 697,-350.3553 738,-350.3553 738,-331.3553 697,-331.3553"/>
<polygon fill="none" stroke="#000000" points="697,-331.3553 697,-350.3553 738,-350.3553 738,-331.3553 697,-331.3553"/>
<text text-anchor="start" x="702.6105" y="-337.4553" font-family="Helvetica,sans-Serif" font-size="11.00" fill="#000000">0 rows</text>
<polygon fill="#ffffff" stroke="transparent" points="738,-331.3553 738,-350.3553 762,-350.3553 762,-331.3553 738,-331.3553"/>
<polygon fill="none" stroke="#000000" points="738,-331.3553 738,-350.3553 762,-350.3553 762,-331.3553 738,-331.3553"/>
<text text-anchor="start" x="743.4053" y="-337.4553" font-family="Helvetica,sans-Serif" font-size="11.00" fill="#000000">1 &gt;</text>
</a>
</g>
</g>
<!-- inventory&#45;&gt;store -->
<g id="edge5" class="edge">
<title>inventory:w&#45;&gt;store:e</title>
<path fill="none" stroke="#000000" d="M655.626,-377.8814C603.6504,-356.6111 694.3171,-205.3553 619,-205.3553"/>
<polygon fill="#000000" stroke="#000000" points="662.1159,-378.9983 669.3894,-383.9031 666.058,-379.6768 670,-380.3553 670,-380.3553 670,-380.3553 666.058,-379.6768 670.6106,-376.8074 662.1159,-378.9983 662.1159,-378.9983"/>
<ellipse fill="none" stroke="#000000" cx="658.9623" cy="-378.4555" rx="3.2" ry="3.2"/>
</g>
<!-- film -->
<g id="node6" class="node">
<title>film</title>
<g id="a_node6"><a xlink:href="../../tables/film.html" xlink:title="film" target="_top">
<polygon fill="#ffffff" stroke="transparent" points="477,-374.8553 477,-435.8553 557,-435.8553 557,-374.8553 477,-374.8553"/>
<polygon fill="#f5f5f5" stroke="transparent" points="477,-412.3553 477,-435.3553 557,-435.3553 557,-412.3553 477,-412.3553"/>
<polygon fill="none" stroke="#000000" points="477,-412.3553 477,-435.3553 557,-435.3553 557,-412.3553 477,-412.3553"/>
<text text-anchor="start" x="482" y="-421.4553" font-family="Helvetica,sans-Serif" font-weight="bold" font-size="11.00" fill="#000000">film</text>
<text text-anchor="start" x="522.0437" y="-420.4553" font-family="Helvetica,sans-Serif" font-size="11.00" fill="#000000">[table]</text>
<polygon fill="none" stroke="#000000" points="477,-393.3553 477,-412.3553 557,-412.3553 557,-393.3553 477,-393.3553"/>
<text text-anchor="start" x="480" y="-399.4553" font-family="Helvetica,sans-Serif" font-size="11.00" fill="#000000">...</text>
<polygon fill="#ffffff" stroke="transparent" points="477,-374.3553 477,-393.3553 498,-393.3553 498,-374.3553 477,-374.3553"/>
<polygon fill="none" stroke="#000000" points="477,-374.3553 477,-393.3553 498,-393.3553 498,-374.3553 477,-374.3553"/>
<text text-anchor="start" x="479.7027" y="-380.4553" font-family="Helvetica,sans-Serif" font-size="11.00" fill="#000000">&lt; 2</text>
<polygon fill="#ffffff" stroke="transparent" points="498,-374.3553 498,-393.3553 536,-393.3553 536,-374.3553 498,-374.3553"/>
<polygon fill="none" stroke="#000000" points="498,-374.3553 498,-393.3553 536,-393.3553 536,-374.3553 498,-374.3553"/>
<text text-anchor="start" x="500.8053" y="-380.4553" font-family="Helvetica,sans-Serif" font-size="11.00" fill="#000000">0 rows</text>
<polygon fill="#ffffff" stroke="transparent" points="536,-374.3553 536,-393.3553 557,-393.3553 557,-374.3553 536,-374.3553"/>
<polygon fill="none" stroke="#000000" points="536,-374.3553 536,-393.3553 557,-393.3553 557,-374.3553 536,-374.3553"/>
<text text-anchor="start" x="538.7026" y="-380.4553" font-family="Helvetica,sans-Serif" font-size="11.00" fill="#000000">3 &gt;</text>
</a>
</g>
</g>
<!-- inventory&#45;&gt;film -->
<g id="edge4" class="edge">
<title>inventory:w&#45;&gt;film:e</title>
<path fill="none" stroke="#000000" d="M655.5309,-402.3553C616.7748,-402.3553 602.0234,-402.3553 557,-402.3553"/>
<polygon fill="#000000" stroke="#000000" points="662,-402.3553 670,-405.9553 666,-402.3553 670,-402.3553 670,-402.3553 670,-402.3553 666,-402.3553 670,-398.7553 662,-402.3553 662,-402.3553"/>
<ellipse fill="none" stroke="#000000" cx="658.8" cy="-402.3553" rx="3.2" ry="3.2"/>
</g>
<!-- payment -->
<g id="node7" class="node">
<title>payment</title>
<g id="a_node7"><a xlink:href="../../tables/payment.html" xlink:title="payment" target="_top">
<polygon fill="#ffffff" stroke="transparent" points="967.5,-248.8553 967.5,-309.8553 1052.5,-309.8553 1052.5,-248.8553 967.5,-248.8553"/>
<polygon fill="#f5f5f5" stroke="transparent" points="968,-286.3553 968,-309.3553 1053,-309.3553 1053,-286.3553 968,-286.3553"/>
<polygon fill="none" stroke="#000000" points="968,-286.3553 968,-309.3553 1053,-309.3553 1053,-286.3553 968,-286.3553"/>
<text text-anchor="start" x="972.9108" y="-295.4553" font-family="Helvetica,sans-Serif" font-weight="bold" font-size="11.00" fill="#000000">payment</text>
<text text-anchor="start" x="1018.5219" y="-294.4553" font-family="Helvetica,sans-Serif" font-size="11.00" fill="#000000">[table]</text>
<polygon fill="none" stroke="#000000" points="968,-267.3553 968,-286.3553 1053,-286.3553 1053,-267.3553 968,-267.3553"/>
<text text-anchor="start" x="971" y="-273.4553" font-family="Helvetica,sans-Serif" font-size="11.00" fill="#000000">...</text>
<polygon fill="#ffffff" stroke="transparent" points="968,-248.3553 968,-267.3553 996,-267.3553 996,-248.3553 968,-248.3553"/>
<polygon fill="none" stroke="#000000" points="968,-248.3553 968,-267.3553 996,-267.3553 996,-248.3553 968,-248.3553"/>
<text text-anchor="start" x="971" y="-254.4553" font-family="Helvetica,sans-Serif" font-size="11.00" fill="#000000">&lt; 3</text>
<polygon fill="#ffffff" stroke="transparent" points="996,-248.3553 996,-267.3553 1037,-267.3553 1037,-248.3553 996,-248.3553"/>
<polygon fill="none" stroke="#000000" points="996,-248.3553 996,-267.3553 1037,-267.3553 1037,-248.3553 996,-248.3553"/>
<text text-anchor="start" x="1001.6105" y="-254.4553" font-family="Helvetica,sans-Serif" font-size="11.00" fill="#000000">0 rows</text>
<polygon fill="#ffffff" stroke="transparent" points="1037,-248.3553 1037,-267.3553 1053,-267.3553 1053,-248.3553 1037,-248.3553"/>
<polygon fill="none" stroke="#000000" points="1037,-248.3553 1037,-267.3553 1053,-267.3553 1053,-248.3553 1037,-248.3553"/>
<text text-anchor="start" x="1043.8862" y="-254.4553" font-family="Helvetica,sans-Serif" font-size="11.00" fill="#000000"> &#160;</text>
</a>
</g>
</g>
<!-- payment&#45;&gt;customer -->
<g id="edge6" class="edge">
<title>payment:w&#45;&gt;customer:e</title>
<path fill="none" stroke="#000000" d="M953.5728,-276.3553C873.7356,-276.3553 848.5486,-276.3553 762,-276.3553"/>
<polygon fill="#000000" stroke="#000000" points="960,-276.3553 968,-279.9553 964,-276.3553 968,-276.3553 968,-276.3553 968,-276.3553 964,-276.3553 968,-272.7553 960,-276.3553 960,-276.3553"/>
<ellipse fill="none" stroke="#000000" cx="956.8" cy="-276.3553" rx="3.2" ry="3.2"/>
</g>
<!-- rental -->
<g id="node8" class="node">
<title>rental</title>
<g id="a_node8"><a xlink:href="../../tables/rental.html" xlink:title="rental" target="_top">
<polygon fill="#ffffff" stroke="transparent" points="811,-342.8553 811,-403.8553 891,-403.8553 891,-342.8553 811,-342.8553"/>
<polygon fill="#f5f5f5" stroke="transparent" points="811,-380.3553 811,-403.3553 891,-403.3553 891,-380.3553 811,-380.3553"/>
<polygon fill="none" stroke="#000000" points="811,-380.3553 811,-403.3553 891,-403.3553 891,-380.3553 811,-380.3553"/>
<text text-anchor="start" x="816" y="-389.4553" font-family="Helvetica,sans-Serif" font-weight="bold" font-size="11.00" fill="#000000">rental</text>
<text text-anchor="start" x="856.0437" y="-388.4553" font-family="Helvetica,sans-Serif" font-size="11.00" fill="#000000">[table]</text>
<polygon fill="none" stroke="#000000" points="811,-361.3553 811,-380.3553 891,-380.3553 891,-361.3553 811,-361.3553"/>
<text text-anchor="start" x="814" y="-367.4553" font-family="Helvetica,sans-Serif" font-size="11.00" fill="#000000">...</text>
<polygon fill="#ffffff" stroke="transparent" points="811,-342.3553 811,-361.3553 832,-361.3553 832,-342.3553 811,-342.3553"/>
<polygon fill="none" stroke="#000000" points="811,-342.3553 811,-361.3553 832,-361.3553 832,-342.3553 811,-342.3553"/>
<text text-anchor="start" x="813.7026" y="-348.4553" font-family="Helvetica,sans-Serif" font-size="11.00" fill="#000000">&lt; 3</text>
<polygon fill="#ffffff" stroke="transparent" points="832,-342.3553 832,-361.3553 870,-361.3553 870,-342.3553 832,-342.3553"/>
<polygon fill="none" stroke="#000000" points="832,-342.3553 832,-361.3553 870,-361.3553 870,-342.3553 832,-342.3553"/>
<text text-anchor="start" x="834.8053" y="-348.4553" font-family="Helvetica,sans-Serif" font-size="11.00" fill="#000000">0 rows</text>
<polygon fill="#ffffff" stroke="transparent" points="870,-342.3553 870,-361.3553 891,-361.3553 891,-342.3553 870,-342.3553"/>
<polygon fill="none" stroke="#000000" points="870,-342.3553 870,-361.3553 891,-361.3553 891,-342.3553 870,-342.3553"/>
<text text-anchor="start" x="872.7027" y="-348.4553" font-family="Helvetica,sans-Serif" font-size="11.00" fill="#000000">7 &gt;</text>
</a>
</g>
</g>
<!-- payment&#45;&gt;rental -->
<g id="edge7" class="edge">
<title>payment:w&#45;&gt;rental:e</title>
<path fill="none" stroke="#000000" d="M953.55,-279.2716C919.5905,-295.1378 939.3092,-370.3553 891,-370.3553"/>
<polygon fill="#000000" stroke="#000000" points="960.1581,-277.938 968.7122,-279.8841 964.0791,-277.1466 968,-276.3553 968,-276.3553 968,-276.3553 964.0791,-277.1466 967.2878,-272.8264 960.1581,-277.938 960.1581,-277.938"/>
<ellipse fill="none" stroke="#000000" cx="957.0214" cy="-278.5711" rx="3.2" ry="3.2"/>
</g>
<!-- payment&#45;&gt;staff -->
<g id="edge8" class="edge">
<title>payment:w&#45;&gt;staff:e</title>
<path fill="none" stroke="#000000" d="M953.2944,-275.6241C818.091,-262.0452 774.4941,-64.8836 662,-151.3553 616.7851,-186.111 673.0764,-239.1667 629,-275.3553 537.957,-350.1053 482.2981,-292.3553 364.5,-292.3553"/>
<polygon fill="#000000" stroke="#000000" points="960.0099,-275.9579 967.8212,-279.9508 964.0049,-276.1566 968,-276.3553 968,-276.3553 968,-276.3553 964.0049,-276.1566 968.1788,-272.7597 960.0099,-275.9579 960.0099,-275.9579"/>
<ellipse fill="none" stroke="#000000" cx="956.8138" cy="-275.799" rx="3.2" ry="3.2"/>
</g>
<!-- rental&#45;&gt;customer -->
<g id="edge27" class="edge">
<title>rental:w&#45;&gt;customer:e</title>
<path fill="none" stroke="#000000" d="M796.988,-366.072C774.0123,-347.6829 803.04,-276.3553 762,-276.3553"/>
<polygon fill="#000000" stroke="#000000" points="803.3495,-368.0166 809.9476,-373.798 807.1747,-369.1859 811,-370.3553 811,-370.3553 811,-370.3553 807.1747,-369.1859 812.0524,-366.9125 803.3495,-368.0166 803.3495,-368.0166"/>
<ellipse fill="none" stroke="#000000" cx="800.2892" cy="-367.0811" rx="3.2" ry="3.2"/>
</g>
<!-- rental&#45;&gt;inventory -->
<g id="edge28" class="edge">
<title>rental:w&#45;&gt;inventory:e</title>
<path fill="none" stroke="#000000" d="M797.2209,-375.3387C782.8277,-388.7068 788.3314,-424.3553 762,-424.3553"/>
<polygon fill="#000000" stroke="#000000" points="803.4769,-373.0761 812.2244,-373.7407 807.2384,-371.7157 811,-370.3553 811,-370.3553 811,-370.3553 807.2384,-371.7157 809.7756,-366.9699 803.4769,-373.0761 803.4769,-373.0761"/>
<ellipse fill="none" stroke="#000000" cx="800.4677" cy="-374.1645" rx="3.2" ry="3.2"/>
</g>
<!-- rental&#45;&gt;staff -->
<g id="edge29" class="edge">
<title>rental:w&#45;&gt;staff:e</title>
<path fill="none" stroke="#000000" d="M796.8763,-373.7173C773.8663,-388.2913 804.4928,-446.3064 770,-469.3553 707.1556,-511.3494 482.4,-511.7398 405,-446.3553 350.9367,-400.6847 435.2718,-292.3553 364.5,-292.3553"/>
<polygon fill="#000000" stroke="#000000" points="803.2175,-372.2079 811.8337,-373.8574 807.1087,-371.2816 811,-370.3553 811,-370.3553 811,-370.3553 807.1087,-371.2816 810.1663,-366.8531 803.2175,-372.2079 803.2175,-372.2079"/>
<ellipse fill="none" stroke="#000000" cx="800.1044" cy="-372.949" rx="3.2" ry="3.2"/>
</g>
<!-- staff&#45;&gt;address -->
<g id="edge30" class="edge">
<title>staff:w&#45;&gt;address:e</title>
<path fill="none" stroke="#000000" d="M263.3766,-266.4759C235.9355,-247.0587 275.5975,-161.3553 228.5,-161.3553"/>
<polygon fill="#000000" stroke="#000000" points="269.7857,-268.2363 276.5465,-273.8267 273.6429,-269.2958 277.5,-270.3553 277.5,-270.3553 277.5,-270.3553 273.6429,-269.2958 278.4535,-266.8838 269.7857,-268.2363 269.7857,-268.2363"/>
<ellipse fill="none" stroke="#000000" cx="266.7" cy="-267.3887" rx="3.2" ry="3.2"/>
</g>
<!-- staff&#45;&gt;store -->
<g id="edge31" class="edge">
<title>staff:w&#45;&gt;store:e</title>
<path fill="none" stroke="#000000" d="M264.7069,-241.4148C258.6267,-230.1254 265.5123,-207.8429 277.5,-195.8553 307.1985,-166.1568 330.0078,-195.048 372,-195.8553 372,-195.8553 619,-205.3553 619,-205.3553"/>
<polygon fill="#000000" stroke="#000000" points="270.4682,-244.5404 275.7833,-251.5196 273.9841,-246.4478 277.5,-248.3553 277.5,-248.3553 277.5,-248.3553 273.9841,-246.4478 279.2167,-245.1909 270.4682,-244.5404 270.4682,-244.5404"/>
<ellipse fill="none" stroke="#000000" cx="267.6554" cy="-243.0144" rx="3.2" ry="3.2"/>
</g>
<!-- payment_p2007_01 -->
<g id="node10" class="node">
<title>payment_p2007_01</title>
<g id="a_node10"><a xlink:href="../../tables/payment_p2007_01.html" xlink:title="payment_p2007_01" target="_top">
<polygon fill="#ffffff" stroke="transparent" points="940,-412.8553 940,-473.8553 1080,-473.8553 1080,-412.8553 940,-412.8553"/>
<polygon fill="#f5f5f5" stroke="transparent" points="940,-450.3553 940,-473.3553 1080,-473.3553 1080,-450.3553 940,-450.3553"/>
<polygon fill="none" stroke="#000000" points="940,-450.3553 940,-473.3553 1080,-473.3553 1080,-450.3553 940,-450.3553"/>
<text text-anchor="start" x="944.8938" y="-459.4553" font-family="Helvetica,sans-Serif" font-weight="bold" font-size="11.00" fill="#000000">payment_p2007_01</text>
<text text-anchor="start" x="1045.5219" y="-458.4553" font-family="Helvetica,sans-Serif" font-size="11.00" fill="#000000">[table]</text>
<polygon fill="none" stroke="#000000" points="940,-431.3553 940,-450.3553 1080,-450.3553 1080,-431.3553 940,-431.3553"/>
<text text-anchor="start" x="943" y="-437.4553" font-family="Helvetica,sans-Serif" font-size="11.00" fill="#000000">...</text>
<polygon fill="#ffffff" stroke="transparent" points="940,-412.3553 940,-431.3553 995,-431.3553 995,-412.3553 940,-412.3553"/>
<polygon fill="none" stroke="#000000" points="940,-412.3553 940,-431.3553 995,-431.3553 995,-412.3553 940,-412.3553"/>
<text text-anchor="start" x="943" y="-418.4553" font-family="Helvetica,sans-Serif" font-size="11.00" fill="#000000">&lt; 3</text>
<polygon fill="#ffffff" stroke="transparent" points="995,-412.3553 995,-431.3553 1050,-431.3553 1050,-412.3553 995,-412.3553"/>
<polygon fill="none" stroke="#000000" points="995,-412.3553 995,-431.3553 1050,-431.3553 1050,-412.3553 995,-412.3553"/>
<text text-anchor="start" x="1014.6105" y="-418.4553" font-family="Helvetica,sans-Serif" font-size="11.00" fill="#000000">0 rows</text>
<polygon fill="#ffffff" stroke="transparent" points="1050,-412.3553 1050,-431.3553 1080,-431.3553 1080,-412.3553 1050,-412.3553"/>
<polygon fill="none" stroke="#000000" points="1050,-412.3553 1050,-431.3553 1080,-431.3553 1080,-412.3553 1050,-412.3553"/>
<text text-anchor="start" x="1070.8862" y="-418.4553" font-family="Helvetica,sans-Serif" font-size="11.00" fill="#000000"> &#160;</text>
</a>
</g>
</g>
<!-- payment_p2007_01&#45;&gt;customer -->
<g id="edge9" class="edge">
<title>payment_p2007_01:w&#45;&gt;customer:e</title>
<path fill="none" stroke="#000000" d="M925.3855,-440.6291C873.146,-442.5222 845.2126,-452.4967 803,-414.3553 755.5258,-371.4597 825.983,-276.3553 762,-276.3553"/>
<polygon fill="#000000" stroke="#000000" points="932.0014,-440.5052 940.0675,-443.9546 936.0007,-440.4302 940,-440.3553 940,-440.3553 940,-440.3553 936.0007,-440.4302 939.9325,-436.7559 932.0014,-440.5052 932.0014,-440.5052"/>
<ellipse fill="none" stroke="#000000" cx="928.802" cy="-440.5651" rx="3.2" ry="3.2"/>
</g>
<!-- payment_p2007_01&#45;&gt;rental -->
<g id="edge10" class="edge">
<title>payment_p2007_01:w&#45;&gt;rental:e</title>
<path fill="none" stroke="#000000" d="M925.9782,-435.321C909.12,-419.2707 922.7455,-370.3553 891,-370.3553"/>
<polygon fill="#000000" stroke="#000000" points="932.4706,-437.652 938.7835,-443.7435 936.2353,-439.0036 940,-440.3553 940,-440.3553 940,-440.3553 936.2353,-439.0036 941.2165,-436.967 932.4706,-437.652 932.4706,-437.652"/>
<ellipse fill="none" stroke="#000000" cx="929.4588" cy="-436.5706" rx="3.2" ry="3.2"/>
</g>
<!-- payment_p2007_01&#45;&gt;staff -->
<g id="edge11" class="edge">
<title>payment_p2007_01:w&#45;&gt;staff:e</title>
<path fill="none" stroke="#000000" d="M925.7241,-442.6943C917.032,-445.9992 911.7132,-452.2069 899,-457.3553 841.8564,-480.4961 830.5622,-496.8181 770,-508.3553 691.4947,-523.3106 442.044,-536.3855 405,-505.3553 331.1295,-443.477 460.8627,-292.3553 364.5,-292.3553"/>
<polygon fill="#000000" stroke="#000000" points="932.1053,-441.6488 940.5821,-443.9079 936.0526,-441.002 940,-440.3553 940,-440.3553 940,-440.3553 936.0526,-441.002 939.4179,-436.8026 932.1053,-441.6488 932.1053,-441.6488"/>
<ellipse fill="none" stroke="#000000" cx="928.9474" cy="-442.1662" rx="3.2" ry="3.2"/>
</g>
<!-- payment_p2007_02 -->
<g id="node11" class="node">
<title>payment_p2007_02</title>
<g id="a_node11"><a xlink:href="../../tables/payment_p2007_02.html" xlink:title="payment_p2007_02" target="_top">
<polygon fill="#ffffff" stroke="transparent" points="940,-166.8553 940,-227.8553 1080,-227.8553 1080,-166.8553 940,-166.8553"/>
<polygon fill="#f5f5f5" stroke="transparent" points="940,-204.3553 940,-227.3553 1080,-227.3553 1080,-204.3553 940,-204.3553"/>
<polygon fill="none" stroke="#000000" points="940,-204.3553 940,-227.3553 1080,-227.3553 1080,-204.3553 940,-204.3553"/>
<text text-anchor="start" x="944.8938" y="-213.4553" font-family="Helvetica,sans-Serif" font-weight="bold" font-size="11.00" fill="#000000">payment_p2007_02</text>
<text text-anchor="start" x="1045.5219" y="-212.4553" font-family="Helvetica,sans-Serif" font-size="11.00" fill="#000000">[table]</text>
<polygon fill="none" stroke="#000000" points="940,-185.3553 940,-204.3553 1080,-204.3553 1080,-185.3553 940,-185.3553"/>
<text text-anchor="start" x="943" y="-191.4553" font-family="Helvetica,sans-Serif" font-size="11.00" fill="#000000">...</text>
<polygon fill="#ffffff" stroke="transparent" points="940,-166.3553 940,-185.3553 995,-185.3553 995,-166.3553 940,-166.3553"/>
<polygon fill="none" stroke="#000000" points="940,-166.3553 940,-185.3553 995,-185.3553 995,-166.3553 940,-166.3553"/>
<text text-anchor="start" x="943" y="-172.4553" font-family="Helvetica,sans-Serif" font-size="11.00" fill="#000000">&lt; 3</text>
<polygon fill="#ffffff" stroke="transparent" points="995,-166.3553 995,-185.3553 1050,-185.3553 1050,-166.3553 995,-166.3553"/>
<polygon fill="none" stroke="#000000" points="995,-166.3553 995,-185.3553 1050,-185.3553 1050,-166.3553 995,-166.3553"/>
<text text-anchor="start" x="1014.6105" y="-172.4553" font-family="Helvetica,sans-Serif" font-size="11.00" fill="#000000">0 rows</text>
<polygon fill="#ffffff" stroke="transparent" points="1050,-166.3553 1050,-185.3553 1080,-185.3553 1080,-166.3553 1050,-166.3553"/>
<polygon fill="none" stroke="#000000" points="1050,-166.3553 1050,-185.3553 1080,-185.3553 1080,-166.3553 1050,-166.3553"/>
<text text-anchor="start" x="1070.8862" y="-172.4553" font-family="Helvetica,sans-Serif" font-size="11.00" fill="#000000"> &#160;</text>
</a>
</g>
</g>
<!-- payment_p2007_02&#45;&gt;customer -->
<g id="edge12" class="edge">
<title>payment_p2007_02:w&#45;&gt;customer:e</title>
<path fill="none" stroke="#000000" d="M925.67,-196.634C878.8102,-209.8776 801.2129,-276.3553 762,-276.3553"/>
<polygon fill="#000000" stroke="#000000" points="932.0993,-195.6117 940.5654,-197.9106 936.0496,-194.9835 940,-194.3553 940,-194.3553 940,-194.3553 936.0496,-194.9835 939.4346,-190.7999 932.0993,-195.6117 932.0993,-195.6117"/>
<ellipse fill="none" stroke="#000000" cx="928.939" cy="-196.1142" rx="3.2" ry="3.2"/>
</g>
<!-- payment_p2007_02&#45;&gt;rental -->
<g id="edge13" class="edge">
<title>payment_p2007_02:w&#45;&gt;rental:e</title>
<path fill="none" stroke="#000000" d="M925.6233,-196.8433C873.7868,-218.2352 966.488,-370.3553 891,-370.3553"/>
<polygon fill="#000000" stroke="#000000" points="932.1172,-195.7195 940.6139,-197.9025 936.0586,-195.0374 940,-194.3553 940,-194.3553 940,-194.3553 936.0586,-195.0374 939.3861,-190.808 932.1172,-195.7195 932.1172,-195.7195"/>
<ellipse fill="none" stroke="#000000" cx="928.964" cy="-196.2652" rx="3.2" ry="3.2"/>
</g>
<!-- payment_p2007_02&#45;&gt;staff -->
<g id="edge14" class="edge">
<title>payment_p2007_02:w&#45;&gt;staff:e</title>
<path fill="none" stroke="#000000" d="M925.6681,-191.8318C916.994,-188.2768 911.7892,-181.6382 899,-176.3553 842.1685,-152.8794 830.4414,-137.659 770,-126.3553 722.818,-117.5313 699.9983,-97.0273 662,-126.3553 616.1734,-161.7253 672.8746,-214.5911 629,-252.3553 591.0569,-285.014 453.61,-264.3829 405,-276.3553 386.2078,-280.9837 383.8538,-292.3553 364.5,-292.3553"/>
<polygon fill="#000000" stroke="#000000" points="932.1212,-192.968 939.3757,-197.9007 936.0606,-193.6616 940,-194.3553 940,-194.3553 940,-194.3553 936.0606,-193.6616 940.6243,-190.8098 932.1212,-192.968 932.1212,-192.968"/>
<ellipse fill="none" stroke="#000000" cx="928.9697" cy="-192.4131" rx="3.2" ry="3.2"/>
</g>
<!-- payment_p2007_03 -->
<g id="node12" class="node">
<title>payment_p2007_03</title>
<g id="a_node12"><a xlink:href="../../tables/payment_p2007_03.html" xlink:title="payment_p2007_03" target="_top">
<polygon fill="#ffffff" stroke="transparent" points="940,-576.8553 940,-637.8553 1080,-637.8553 1080,-576.8553 940,-576.8553"/>
<polygon fill="#f5f5f5" stroke="transparent" points="940,-614.3553 940,-637.3553 1080,-637.3553 1080,-614.3553 940,-614.3553"/>
<polygon fill="none" stroke="#000000" points="940,-614.3553 940,-637.3553 1080,-637.3553 1080,-614.3553 940,-614.3553"/>
<text text-anchor="start" x="944.8938" y="-623.4553" font-family="Helvetica,sans-Serif" font-weight="bold" font-size="11.00" fill="#000000">payment_p2007_03</text>
<text text-anchor="start" x="1045.5219" y="-622.4553" font-family="Helvetica,sans-Serif" font-size="11.00" fill="#000000">[table]</text>
<polygon fill="none" stroke="#000000" points="940,-595.3553 940,-614.3553 1080,-614.3553 1080,-595.3553 940,-595.3553"/>
<text text-anchor="start" x="943" y="-601.4553" font-family="Helvetica,sans-Serif" font-size="11.00" fill="#000000">...</text>
<polygon fill="#ffffff" stroke="transparent" points="940,-576.3553 940,-595.3553 995,-595.3553 995,-576.3553 940,-576.3553"/>
<polygon fill="none" stroke="#000000" points="940,-576.3553 940,-595.3553 995,-595.3553 995,-576.3553 940,-576.3553"/>
<text text-anchor="start" x="943" y="-582.4553" font-family="Helvetica,sans-Serif" font-size="11.00" fill="#000000">&lt; 3</text>
<polygon fill="#ffffff" stroke="transparent" points="995,-576.3553 995,-595.3553 1050,-595.3553 1050,-576.3553 995,-576.3553"/>
<polygon fill="none" stroke="#000000" points="995,-576.3553 995,-595.3553 1050,-595.3553 1050,-576.3553 995,-576.3553"/>
<text text-anchor="start" x="1014.6105" y="-582.4553" font-family="Helvetica,sans-Serif" font-size="11.00" fill="#000000">0 rows</text>
<polygon fill="#ffffff" stroke="transparent" points="1050,-576.3553 1050,-595.3553 1080,-595.3553 1080,-576.3553 1050,-576.3553"/>
<polygon fill="none" stroke="#000000" points="1050,-576.3553 1050,-595.3553 1080,-595.3553 1080,-576.3553 1050,-576.3553"/>
<text text-anchor="start" x="1070.8862" y="-582.4553" font-family="Helvetica,sans-Serif" font-size="11.00" fill="#000000"> &#160;</text>
</a>
</g>
</g>
<!-- payment_p2007_03&#45;&gt;customer -->
<g id="edge15" class="edge">
<title>payment_p2007_03:w&#45;&gt;customer:e</title>
<path fill="none" stroke="#000000" d="M925.2852,-603.7663C857.6911,-598.1009 840.7372,-552.0663 803,-487.3553 778.9373,-446.0931 809.7659,-276.3553 762,-276.3553"/>
<polygon fill="#000000" stroke="#000000" points="932.0064,-604.0353 939.856,-607.9524 936.0032,-604.1953 940,-604.3553 940,-604.3553 940,-604.3553 936.0032,-604.1953 940.144,-600.7582 932.0064,-604.0353 932.0064,-604.0353"/>
<ellipse fill="none" stroke="#000000" cx="928.809" cy="-603.9072" rx="3.2" ry="3.2"/>
</g>
<!-- payment_p2007_03&#45;&gt;rental -->
<g id="edge16" class="edge">
<title>payment_p2007_03:w&#45;&gt;rental:e</title>
<path fill="none" stroke="#000000" d="M925.3615,-602.4717C850.2395,-580.3263 991.6524,-370.3553 891,-370.3553"/>
<polygon fill="#000000" stroke="#000000" points="932.0654,-603.3343 939.5405,-607.9258 936.0327,-603.8448 940,-604.3553 940,-604.3553 940,-604.3553 936.0327,-603.8448 940.4595,-600.7847 932.0654,-603.3343 932.0654,-603.3343"/>
<ellipse fill="none" stroke="#000000" cx="928.8916" cy="-602.9259" rx="3.2" ry="3.2"/>
</g>
<!-- payment_p2007_03&#45;&gt;staff -->
<g id="edge17" class="edge">
<title>payment_p2007_03:w&#45;&gt;staff:e</title>
<path fill="none" stroke="#000000" d="M925.4818,-604.5093C696.6386,-609.3579 576.3249,-725.9437 405,-567.3553 359.6694,-525.3946 426.2703,-292.3553 364.5,-292.3553"/>
<polygon fill="#000000" stroke="#000000" points="932.0005,-604.4402 940.0382,-607.9551 936.0002,-604.3977 940,-604.3553 940,-604.3553 940,-604.3553 936.0002,-604.3977 939.9618,-600.7555 932.0005,-604.4402 932.0005,-604.4402"/>
<ellipse fill="none" stroke="#000000" cx="928.8006" cy="-604.4742" rx="3.2" ry="3.2"/>
</g>
<!-- payment_p2007_04 -->
<g id="node13" class="node">
<title>payment_p2007_04</title>
<g id="a_node13"><a xlink:href="../../tables/payment_p2007_04.html" xlink:title="payment_p2007_04" target="_top">
<polygon fill="#ffffff" stroke="transparent" points="940,-494.8553 940,-555.8553 1080,-555.8553 1080,-494.8553 940,-494.8553"/>
<polygon fill="#f5f5f5" stroke="transparent" points="940,-532.3553 940,-555.3553 1080,-555.3553 1080,-532.3553 940,-532.3553"/>
<polygon fill="none" stroke="#000000" points="940,-532.3553 940,-555.3553 1080,-555.3553 1080,-532.3553 940,-532.3553"/>
<text text-anchor="start" x="944.8938" y="-541.4553" font-family="Helvetica,sans-Serif" font-weight="bold" font-size="11.00" fill="#000000">payment_p2007_04</text>
<text text-anchor="start" x="1045.5219" y="-540.4553" font-family="Helvetica,sans-Serif" font-size="11.00" fill="#000000">[table]</text>
<polygon fill="none" stroke="#000000" points="940,-513.3553 940,-532.3553 1080,-532.3553 1080,-513.3553 940,-513.3553"/>
<text text-anchor="start" x="943" y="-519.4553" font-family="Helvetica,sans-Serif" font-size="11.00" fill="#000000">...</text>
<polygon fill="#ffffff" stroke="transparent" points="940,-494.3553 940,-513.3553 995,-513.3553 995,-494.3553 940,-494.3553"/>
<polygon fill="none" stroke="#000000" points="940,-494.3553 940,-513.3553 995,-513.3553 995,-494.3553 940,-494.3553"/>
<text text-anchor="start" x="943" y="-500.4553" font-family="Helvetica,sans-Serif" font-size="11.00" fill="#000000">&lt; 3</text>
<polygon fill="#ffffff" stroke="transparent" points="995,-494.3553 995,-513.3553 1050,-513.3553 1050,-494.3553 995,-494.3553"/>
<polygon fill="none" stroke="#000000" points="995,-494.3553 995,-513.3553 1050,-513.3553 1050,-494.3553 995,-494.3553"/>
<text text-anchor="start" x="1014.6105" y="-500.4553" font-family="Helvetica,sans-Serif" font-size="11.00" fill="#000000">0 rows</text>
<polygon fill="#ffffff" stroke="transparent" points="1050,-494.3553 1050,-513.3553 1080,-513.3553 1080,-494.3553 1050,-494.3553"/>
<polygon fill="none" stroke="#000000" points="1050,-494.3553 1050,-513.3553 1080,-513.3553 1080,-494.3553 1050,-494.3553"/>
<text text-anchor="start" x="1070.8862" y="-500.4553" font-family="Helvetica,sans-Serif" font-size="11.00" fill="#000000"> &#160;</text>
</a>
</g>
</g>
<!-- payment_p2007_04&#45;&gt;customer -->
<g id="edge18" class="edge">
<title>payment_p2007_04:w&#45;&gt;customer:e</title>
<path fill="none" stroke="#000000" d="M925.2451,-521.9388C865.1172,-518.3672 842.2689,-491.727 803,-438.3553 758.9849,-378.5329 836.2701,-276.3553 762,-276.3553"/>
<polygon fill="#000000" stroke="#000000" points="932.0032,-522.1295 939.8984,-525.9538 936.0016,-522.2424 940,-522.3553 940,-522.3553 940,-522.3553 936.0016,-522.2424 940.1016,-518.7567 932.0032,-522.1295 932.0032,-522.1295"/>
<ellipse fill="none" stroke="#000000" cx="928.8045" cy="-522.0392" rx="3.2" ry="3.2"/>
</g>
<!-- payment_p2007_04&#45;&gt;rental -->
<g id="edge19" class="edge">
<title>payment_p2007_04:w&#45;&gt;rental:e</title>
<path fill="none" stroke="#000000" d="M925.661,-519.4546C883.1687,-498.4406 956.1565,-370.3553 891,-370.3553"/>
<polygon fill="#000000" stroke="#000000" points="932.1588,-520.769 939.2862,-525.8838 936.0794,-521.5621 940,-522.3553 940,-522.3553 940,-522.3553 936.0794,-521.5621 940.7138,-518.8267 932.1588,-520.769 932.1588,-520.769"/>
<ellipse fill="none" stroke="#000000" cx="929.0224" cy="-520.1345" rx="3.2" ry="3.2"/>
</g>
<!-- payment_p2007_04&#45;&gt;staff -->
<g id="edge20" class="edge">
<title>payment_p2007_04:w&#45;&gt;staff:e</title>
<path fill="none" stroke="#000000" d="M925.524,-522.5468C697.4674,-528.583 583.2864,-674.2146 405,-524.3553 324.8752,-457.0061 469.1704,-292.3553 364.5,-292.3553"/>
<polygon fill="#000000" stroke="#000000" points="932.0007,-522.4612 940.0477,-525.955 936.0004,-522.4082 940,-522.3553 940,-522.3553 940,-522.3553 936.0004,-522.4082 939.9523,-518.7556 932.0007,-522.4612 932.0007,-522.4612"/>
<ellipse fill="none" stroke="#000000" cx="928.801" cy="-522.5035" rx="3.2" ry="3.2"/>
</g>
<!-- payment_p2007_05 -->
<g id="node14" class="node">
<title>payment_p2007_05</title>
<g id="a_node14"><a xlink:href="../../tables/payment_p2007_05.html" xlink:title="payment_p2007_05" target="_top">
<polygon fill="#ffffff" stroke="transparent" points="940,-330.8553 940,-391.8553 1080,-391.8553 1080,-330.8553 940,-330.8553"/>
<polygon fill="#f5f5f5" stroke="transparent" points="940,-368.3553 940,-391.3553 1080,-391.3553 1080,-368.3553 940,-368.3553"/>
<polygon fill="none" stroke="#000000" points="940,-368.3553 940,-391.3553 1080,-391.3553 1080,-368.3553 940,-368.3553"/>
<text text-anchor="start" x="944.8938" y="-377.4553" font-family="Helvetica,sans-Serif" font-weight="bold" font-size="11.00" fill="#000000">payment_p2007_05</text>
<text text-anchor="start" x="1045.5219" y="-376.4553" font-family="Helvetica,sans-Serif" font-size="11.00" fill="#000000">[table]</text>
<polygon fill="none" stroke="#000000" points="940,-349.3553 940,-368.3553 1080,-368.3553 1080,-349.3553 940,-349.3553"/>
<text text-anchor="start" x="943" y="-355.4553" font-family="Helvetica,sans-Serif" font-size="11.00" fill="#000000">...</text>
<polygon fill="#ffffff" stroke="transparent" points="940,-330.3553 940,-349.3553 995,-349.3553 995,-330.3553 940,-330.3553"/>
<polygon fill="none" stroke="#000000" points="940,-330.3553 940,-349.3553 995,-349.3553 995,-330.3553 940,-330.3553"/>
<text text-anchor="start" x="943" y="-336.4553" font-family="Helvetica,sans-Serif" font-size="11.00" fill="#000000">&lt; 3</text>
<polygon fill="#ffffff" stroke="transparent" points="995,-330.3553 995,-349.3553 1050,-349.3553 1050,-330.3553 995,-330.3553"/>
<polygon fill="none" stroke="#000000" points="995,-330.3553 995,-349.3553 1050,-349.3553 1050,-330.3553 995,-330.3553"/>
<text text-anchor="start" x="1014.6105" y="-336.4553" font-family="Helvetica,sans-Serif" font-size="11.00" fill="#000000">0 rows</text>
<polygon fill="#ffffff" stroke="transparent" points="1050,-330.3553 1050,-349.3553 1080,-349.3553 1080,-330.3553 1050,-330.3553"/>
<polygon fill="none" stroke="#000000" points="1050,-330.3553 1050,-349.3553 1080,-349.3553 1080,-330.3553 1050,-330.3553"/>
<text text-anchor="start" x="1070.8862" y="-336.4553" font-family="Helvetica,sans-Serif" font-size="11.00" fill="#000000"> &#160;</text>
</a>
</g>
</g>
<!-- payment_p2007_05&#45;&gt;customer -->
<g id="edge21" class="edge">
<title>payment_p2007_05:w&#45;&gt;customer:e</title>
<path fill="none" stroke="#000000" d="M925.9598,-355.0306C916.7853,-349.7889 912.7805,-339.4699 899,-332.3553 869.7755,-317.267 794.8896,-276.3553 762,-276.3553"/>
<polygon fill="#000000" stroke="#000000" points="932.2153,-356.5118 939.1704,-361.8584 936.1076,-357.4335 940,-358.3553 940,-358.3553 940,-358.3553 936.1076,-357.4335 940.8296,-354.8521 932.2153,-356.5118 932.2153,-356.5118"/>
<ellipse fill="none" stroke="#000000" cx="929.1014" cy="-355.7744" rx="3.2" ry="3.2"/>
</g>
<!-- payment_p2007_05&#45;&gt;rental -->
<g id="edge22" class="edge">
<title>payment_p2007_05:w&#45;&gt;rental:e</title>
<path fill="none" stroke="#000000" d="M925.6744,-360.3368C914.2211,-363.7452 907.6408,-370.3553 891,-370.3553"/>
<polygon fill="#000000" stroke="#000000" points="932.0755,-359.4515 940.4933,-361.9213 936.0377,-358.9034 940,-358.3553 940,-358.3553 940,-358.3553 936.0377,-358.9034 939.5067,-354.7892 932.0755,-359.4515 932.0755,-359.4515"/>
<ellipse fill="none" stroke="#000000" cx="928.9056" cy="-359.8899" rx="3.2" ry="3.2"/>
</g>
<!-- payment_p2007_05&#45;&gt;staff -->
<g id="edge23" class="edge">
<title>payment_p2007_05:w&#45;&gt;staff:e</title>
<path fill="none" stroke="#000000" d="M925.9201,-362.2937C912.8129,-372.0515 917.1301,-397.7567 899,-414.3553 849.5832,-459.5976 834.5375,-474.3608 770,-492.3553 693.4814,-513.6904 447.2899,-517.9637 405,-482.3553 338.9532,-426.7433 450.8416,-292.3553 364.5,-292.3553"/>
<polygon fill="#000000" stroke="#000000" points="932.2957,-360.5103 940.9698,-361.8222 936.1479,-359.4328 940,-358.3553 940,-358.3553 940,-358.3553 936.1479,-359.4328 939.0302,-354.8883 932.2957,-360.5103 932.2957,-360.5103"/>
<ellipse fill="none" stroke="#000000" cx="929.214" cy="-361.3724" rx="3.2" ry="3.2"/>
</g>
<!-- payment_p2007_06 -->
<g id="node15" class="node">
<title>payment_p2007_06</title>
<g id="a_node15"><a xlink:href="../../tables/payment_p2007_06.html" xlink:title="payment_p2007_06" target="_top">
<polygon fill="#ffffff" stroke="transparent" points="940,-84.8553 940,-145.8553 1080,-145.8553 1080,-84.8553 940,-84.8553"/>
<polygon fill="#f5f5f5" stroke="transparent" points="940,-122.3553 940,-145.3553 1080,-145.3553 1080,-122.3553 940,-122.3553"/>
<polygon fill="none" stroke="#000000" points="940,-122.3553 940,-145.3553 1080,-145.3553 1080,-122.3553 940,-122.3553"/>
<text text-anchor="start" x="944.8938" y="-131.4553" font-family="Helvetica,sans-Serif" font-weight="bold" font-size="11.00" fill="#000000">payment_p2007_06</text>
<text text-anchor="start" x="1045.5219" y="-130.4553" font-family="Helvetica,sans-Serif" font-size="11.00" fill="#000000">[table]</text>
<polygon fill="none" stroke="#000000" points="940,-103.3553 940,-122.3553 1080,-122.3553 1080,-103.3553 940,-103.3553"/>
<text text-anchor="start" x="943" y="-109.4553" font-family="Helvetica,sans-Serif" font-size="11.00" fill="#000000">...</text>
<polygon fill="#ffffff" stroke="transparent" points="940,-84.3553 940,-103.3553 995,-103.3553 995,-84.3553 940,-84.3553"/>
<polygon fill="none" stroke="#000000" points="940,-84.3553 940,-103.3553 995,-103.3553 995,-84.3553 940,-84.3553"/>
<text text-anchor="start" x="943" y="-90.4553" font-family="Helvetica,sans-Serif" font-size="11.00" fill="#000000">&lt; 3</text>
<polygon fill="#ffffff" stroke="transparent" points="995,-84.3553 995,-103.3553 1050,-103.3553 1050,-84.3553 995,-84.3553"/>
<polygon fill="none" stroke="#000000" points="995,-84.3553 995,-103.3553 1050,-103.3553 1050,-84.3553 995,-84.3553"/>
<text text-anchor="start" x="1014.6105" y="-90.4553" font-family="Helvetica,sans-Serif" font-size="11.00" fill="#000000">0 rows</text>
<polygon fill="#ffffff" stroke="transparent" points="1050,-84.3553 1050,-103.3553 1080,-103.3553 1080,-84.3553 1050,-84.3553"/>
<polygon fill="none" stroke="#000000" points="1050,-84.3553 1050,-103.3553 1080,-103.3553 1080,-84.3553 1050,-84.3553"/>
<text text-anchor="start" x="1070.8862" y="-90.4553" font-family="Helvetica,sans-Serif" font-size="11.00" fill="#000000"> &#160;</text>
</a>
</g>
</g>
<!-- payment_p2007_06&#45;&gt;customer -->
<g id="edge24" class="edge">
<title>payment_p2007_06:w&#45;&gt;customer:e</title>
<path fill="none" stroke="#000000" d="M925.3797,-112.9148C864.5448,-117.8124 849.4061,-154.3958 803,-204.3553 777.9383,-231.336 798.8246,-276.3553 762,-276.3553"/>
<polygon fill="#000000" stroke="#000000" points="932.0059,-112.6613 940.1377,-115.9526 936.0029,-112.5083 940,-112.3553 940,-112.3553 940,-112.3553 936.0029,-112.5083 939.8623,-108.7579 932.0059,-112.6613 932.0059,-112.6613"/>
<ellipse fill="none" stroke="#000000" cx="928.8082" cy="-112.7837" rx="3.2" ry="3.2"/>
</g>
<!-- payment_p2007_06&#45;&gt;rental -->
<g id="edge25" class="edge">
<title>payment_p2007_06:w&#45;&gt;rental:e</title>
<path fill="none" stroke="#000000" d="M925.5098,-114.0028C839.9125,-135.9759 1002.2453,-370.3553 891,-370.3553"/>
<polygon fill="#000000" stroke="#000000" points="932.0512,-113.2591 940.4067,-115.9322 936.0256,-112.8072 940,-112.3553 940,-112.3553 940,-112.3553 936.0256,-112.8072 939.5933,-108.7783 932.0512,-113.2591 932.0512,-113.2591"/>
<ellipse fill="none" stroke="#000000" cx="928.8717" cy="-113.6206" rx="3.2" ry="3.2"/>
</g>
<!-- payment_p2007_06&#45;&gt;staff -->
<g id="edge26" class="edge">
<title>payment_p2007_06:w&#45;&gt;staff:e</title>
<path fill="none" stroke="#000000" d="M925.5217,-112.1511C697.4795,-105.7151 585.7275,49.6933 405,-97.3553 336.34,-153.2204 453.0162,-292.3553 364.5,-292.3553"/>
<polygon fill="#000000" stroke="#000000" points="932.0008,-112.2424 939.9492,-115.9549 936.0004,-112.2988 940,-112.3553 940,-112.3553 940,-112.3553 936.0004,-112.2988 940.0508,-108.7556 932.0008,-112.2424 932.0008,-112.2424"/>
<ellipse fill="none" stroke="#000000" cx="928.8011" cy="-112.1972" rx="3.2" ry="3.2"/>
</g>
</g>
</svg>
