<?xml version="1.0" encoding="UTF-8" standalone="no"?>
<!DOCTYPE svg PUBLIC "-//W3C//DTD SVG 1.1//EN"
 "http://www.w3.org/Graphics/SVG/1.1/DTD/svg11.dtd">
<!-- Generated by graphviz version 2.40.1 (20161225.0304)
 -->
<!-- Title: oneDegreeRelationshipsDiagram Pages: 1 -->
<svg width="374pt" height="184pt"
 viewBox="0.00 0.00 374.00 184.20" xmlns="http://www.w3.org/2000/svg" xmlns:xlink="http://www.w3.org/1999/xlink">
<g id="graph0" class="graph" transform="scale(1 1) rotate(0) translate(4 180.2)">
<title>oneDegreeRelationshipsDiagram</title>
<polygon fill="#ffffff" stroke="transparent" points="-4,4 -4,-180.2 370,-180.2 370,4 -4,4"/>
<text text-anchor="middle" x="72.4936" y="-7.3" font-family="Helvetica,sans-Serif" font-size="11.00" fill="#000000">Generated by SchemaSpy</text>
<!-- subcountry -->
<g id="node1" class="node">
<title>subcountry</title>
<g id="a_node1"><a xlink:href="../../tables/subcountry.html" xlink:title="subcountry" target="_top">
<polygon fill="#ffffff" stroke="transparent" points="140,-38.2 140,-172.2 358,-172.2 358,-38.2 140,-38.2"/>
<polygon fill="#f5f5f5" stroke="transparent" points="142,-147.2 142,-170.2 356,-170.2 356,-147.2 142,-147.2"/>
<polygon fill="none" stroke="#000000" points="142,-147.2 142,-170.2 356,-170.2 356,-147.2 142,-147.2"/>
<text text-anchor="start" x="147" y="-156.3" font-family="Helvetica,sans-Serif" font-weight="bold" font-size="11.00" fill="#000000">subcountry</text>
<text text-anchor="start" x="321.0437" y="-155.3" font-family="Helvetica,sans-Serif" font-size="11.00" fill="#000000">[table]</text>
<polygon fill="#ffffff" stroke="transparent" points="142,-125.2 142,-147.2 266,-147.2 266,-125.2 142,-125.2"/>
<polygon fill="none" stroke="#000000" points="142,-125.2 142,-147.2 266,-147.2 266,-125.2 142,-125.2"/>
<image xlink:href="../../images/foreignKeys.png" width="11px" height="12px" preserveAspectRatio="xMinYMin meet" x="147" y="-142.2"/>
<text text-anchor="start" x="162" y="-132.3" font-family="Helvetica,sans-Serif" font-size="11.00" fill="#000000">country</text>
<polygon fill="none" stroke="#000000" points="266,-125.2 266,-147.2 356,-147.2 356,-125.2 266,-125.2"/>
<text text-anchor="start" x="268.5043" y="-132.9" font-family="Helvetica,sans-Serif" font-size="11.00" fill="#000000">text[2147483647]</text>
<polygon fill="#ffffff" stroke="transparent" points="142,-103.2 142,-125.2 266,-125.2 266,-103.2 142,-103.2"/>
<polygon fill="none" stroke="#000000" points="142,-103.2 142,-125.2 266,-125.2 266,-103.2 142,-103.2"/>
<text text-anchor="start" x="162" y="-110.3" font-family="Helvetica,sans-Serif" font-size="11.00" fill="#000000">subcountry_name</text>
<polygon fill="none" stroke="#000000" points="266,-103.2 266,-125.2 356,-125.2 356,-103.2 266,-103.2"/>
<text text-anchor="start" x="268.5043" y="-110.9" font-family="Helvetica,sans-Serif" font-size="11.00" fill="#000000">text[2147483647]</text>
<polygon fill="none" stroke="#000000" points="142,-81.2 142,-103.2 266,-103.2 266,-81.2 142,-81.2"/>
<text text-anchor="start" x="162" y="-88.3" font-family="Helvetica,sans-Serif" font-size="11.00" fill="#000000">subdivision</text>
<polygon fill="none" stroke="#000000" points="266,-81.2 266,-103.2 356,-103.2 356,-81.2 266,-81.2"/>
<text text-anchor="start" x="268.5043" y="-88.9" font-family="Helvetica,sans-Serif" font-size="11.00" fill="#000000">text[2147483647]</text>
<polygon fill="none" stroke="#000000" points="142,-59.2 142,-81.2 266,-81.2 266,-59.2 142,-59.2"/>
<text text-anchor="start" x="162" y="-66.3" font-family="Helvetica,sans-Serif" font-size="11.00" fill="#000000">subcountry_level</text>
<polygon fill="none" stroke="#000000" points="266,-59.2 266,-81.2 356,-81.2 356,-59.2 266,-59.2"/>
<text text-anchor="start" x="268.5043" y="-66.9" font-family="Helvetica,sans-Serif" font-size="11.00" fill="#000000">text[2147483647]</text>
<polygon fill="#ffffff" stroke="transparent" points="142,-40.2 142,-59.2 185,-59.2 185,-40.2 142,-40.2"/>
<polygon fill="none" stroke="#000000" points="142,-40.2 142,-59.2 185,-59.2 185,-40.2 142,-40.2"/>
<text text-anchor="start" x="145" y="-46.3" font-family="Helvetica,sans-Serif" font-size="11.00" fill="#000000">&lt; 1</text>
<polygon fill="#ffffff" stroke="transparent" points="185,-40.2 185,-59.2 266,-59.2 266,-40.2 185,-40.2"/>
<polygon fill="none" stroke="#000000" points="185,-40.2 185,-59.2 266,-59.2 266,-40.2 185,-40.2"/>
<text text-anchor="start" x="209.2089" y="-46.3" font-family="Helvetica,sans-Serif" font-size="11.00" fill="#000000">3,995 rows</text>
<polygon fill="#ffffff" stroke="transparent" points="266,-40.2 266,-59.2 356,-59.2 356,-40.2 266,-40.2"/>
<polygon fill="none" stroke="#000000" points="266,-40.2 266,-59.2 356,-59.2 356,-40.2 266,-40.2"/>
<text text-anchor="start" x="337.4053" y="-46.3" font-family="Helvetica,sans-Serif" font-size="11.00" fill="#000000">0 &gt;</text>
<polygon fill="none" stroke="#000000" stroke-width="2" points="141,-39.2 141,-171.2 357,-171.2 357,-39.2 141,-39.2"/>
</a>
</g>
</g>
<!-- country -->
<g id="node2" class="node">
<title>country</title>
<g id="a_node2"><a xlink:href="../../tables/country.html" xlink:title="country" target="_top">
<polygon fill="#ffffff" stroke="transparent" points="8,-87.7 8,-170.7 91,-170.7 91,-87.7 8,-87.7"/>
<polygon fill="#f5f5f5" stroke="transparent" points="8.5,-147.2 8.5,-170.2 91.5,-170.2 91.5,-147.2 8.5,-147.2"/>
<polygon fill="none" stroke="#000000" points="8.5,-147.2 8.5,-170.2 91.5,-170.2 91.5,-147.2 8.5,-147.2"/>
<text text-anchor="start" x="13.5" y="-156.3" font-family="Helvetica,sans-Serif" font-weight="bold" font-size="11.00" fill="#000000">country</text>
<text text-anchor="start" x="56.5437" y="-155.3" font-family="Helvetica,sans-Serif" font-size="11.00" fill="#000000">[table]</text>
<polygon fill="none" stroke="#000000" points="8.5,-125.2 8.5,-147.2 91.5,-147.2 91.5,-125.2 8.5,-125.2"/>
<image xlink:href="../../images/primaryKeys.png" width="11px" height="12px" preserveAspectRatio="xMinYMin meet" x="13.5" y="-142.2"/>
<text text-anchor="start" x="29.5" y="-132.3" font-family="Helvetica,sans-Serif" font-size="11.00" fill="#000000">two_letter</text>
<polygon fill="none" stroke="#000000" points="8.5,-106.2 8.5,-125.2 91.5,-125.2 91.5,-106.2 8.5,-106.2"/>
<text text-anchor="start" x="11.5" y="-112.3" font-family="Helvetica,sans-Serif" font-size="11.00" fill="#000000">...</text>
<polygon fill="#ffffff" stroke="transparent" points="8.5,-87.2 8.5,-106.2 20.5,-106.2 20.5,-87.2 8.5,-87.2"/>
<polygon fill="none" stroke="#000000" points="8.5,-87.2 8.5,-106.2 20.5,-106.2 20.5,-87.2 8.5,-87.2"/>
<text text-anchor="start" x="11.4431" y="-93.3" font-family="Helvetica,sans-Serif" font-size="11.00" fill="#000000"> &#160;</text>
<polygon fill="#ffffff" stroke="transparent" points="20.5,-87.2 20.5,-106.2 70.5,-106.2 70.5,-87.2 20.5,-87.2"/>
<polygon fill="none" stroke="#000000" points="20.5,-87.2 20.5,-106.2 70.5,-106.2 70.5,-87.2 20.5,-87.2"/>
<text text-anchor="start" x="23.1904" y="-93.3" font-family="Helvetica,sans-Serif" font-size="11.00" fill="#000000">242 rows</text>
<polygon fill="#ffffff" stroke="transparent" points="70.5,-87.2 70.5,-106.2 91.5,-106.2 91.5,-87.2 70.5,-87.2"/>
<polygon fill="none" stroke="#000000" points="70.5,-87.2 70.5,-106.2 91.5,-106.2 91.5,-87.2 70.5,-87.2"/>
<text text-anchor="start" x="73.2027" y="-93.3" font-family="Helvetica,sans-Serif" font-size="11.00" fill="#000000">1 &gt;</text>
</a>
</g>
</g>
<!-- subcountry&#45;&gt;country -->
<g id="edge1" class="edge">
<title>subcountry:w&#45;&gt;country:e</title>
<path fill="none" stroke="#000000" d="M127.4203,-136.2C115.5435,-136.2 108.158,-136.2 91.5,-136.2"/>
<polygon fill="#000000" stroke="#000000" points="134,-136.2001 142,-139.8 138,-136.2 142,-136.2 142,-136.2 142,-136.2 138,-136.2 142,-132.6 134,-136.2001 134,-136.2001"/>
<ellipse fill="none" stroke="#000000" cx="130.8" cy="-136.2001" rx="3.2" ry="3.2"/>
</g>
</g>
</svg>
